<svg width="51" height="45" viewBox="0 0 51 45" xmlns="http://www.w3.org/2000/svg"><title>21B80841-DD34-4E4E-B87E-D24483DE7C6F</title><defs><linearGradient x1="12.957%" y1="80.245%" y2="15.021%" id="a"><stop stop-color="#F8A56F" offset="0%"/><stop stop-color="#F26C51" offset="100%"/></linearGradient></defs><g fill="none" fill-rule="evenodd"><g transform="translate(0 3.53)" fill="url(#a)"><path d="M2.47.46c.814-.3 1.697-.3 2.557-.31 3.736.015 7.476.003 11.216.006 1.21-.018 2.534.276 3.344 1.248.794.91.906 2.173.903 3.326-.014 9.592 0 19.18-.008 28.773.003 1.138-.207 2.374-1.058 3.201-.892.922-2.242 1.097-3.462 1.08-3.946-.022-7.893.01-11.836-.016-1.247-.003-2.597-.462-3.285-1.568-.863-1.322-.632-2.976-.659-4.47.015-8.602 0-17.2.006-25.803C.2 4.774.082 3.577.472 2.468A3.384 3.384 0 0 1 2.469.46zm-.607 1.4c-.756.756-.697 1.895-.753 2.882 6.15-.006 12.3-.006 18.453 0-.062-.925 0-1.96-.62-2.721-.624-.824-1.734-.913-2.686-.922-3.94.003-7.88.006-11.818 0-.898.012-1.914.068-2.576.761zm-.727 3.821c0 8.611-.003 17.222.003 25.836 6.13.012 12.262.012 18.391-.003.01-8.608.003-17.219.003-25.83-6.132.003-12.264.012-18.397-.003zm-.009 26.796c.042 1.144-.153 2.449.58 3.427.64.824 1.763.928 2.726.93 3.929-.002 7.857-.002 11.786 0 .96-.008 2.083-.088 2.724-.91.75-.978.558-2.294.6-3.447-6.14 0-12.277-.003-18.416 0z"/><path d="M9.863 33.948c.349-.174.789-.139 1.137.024.665.552.31 1.942-.667 1.76-.957.102-1.24-1.357-.47-1.784z"/></g><path fill="#FFF" d="M15.828 0H51v44.118H15.828z"/><g transform="translate(15.828)" fill="url(#a)"><path d="M2.946.03c.134-.012.268-.017.403-.018L31.077.01c.863-.011 1.76.253 2.384.871.664.633.949 1.577.93 2.479.003 12.58 0 25.16.003 37.741.014.697.002 1.42-.286 2.068a2.89 2.89 0 0 1-1.81 1.638c-.649.222-1.344.178-2.019.18-8.799 0-17.596-.001-26.395 0-.825.029-1.698-.028-2.417-.48-.952-.566-1.451-1.695-1.432-2.78C.033 28.939.036 16.15.034 3.36c-.008-.82.214-1.67.762-2.297C1.33.437 2.136.09 2.946.029zm-.352 1.176c-.404.074-.802.268-1.05.606-.308.417-.373.955-.378 1.46v38.095c-.01.62 0 1.297.375 1.822.393.533 1.103.662 1.723.664 9.3.002 18.6 0 27.9 0 .618-.005 1.328-.133 1.72-.665.409-.578.383-1.322.377-1.998-.002-12.639.002-25.278-.002-37.918.005-.638-.13-1.375-.686-1.768-.591-.41-1.345-.36-2.03-.36H3.356c-.255.003-.51.014-.76.062z"/><path d="M3.297 3.583c.312-.039.627-.013.94-.018H30.19c.312.005.628-.022.94.02.252.034.415.278.445.518-.022 11.946.002 23.894-.012 35.842.028.363-.317.64-.664.596-9.006.002-18.011-.004-27.017.002-.288-.013-.637.062-.86-.17-.14-.13-.162-.33-.164-.51.003-11.898-.001-23.797.002-35.694-.017-.268.163-.547.437-.586zm.7 1.115c-.017 11.568-.004 23.137-.006 34.707 8.814.002 17.629.004 26.443 0-.002-11.568.012-23.136-.006-34.703-8.81-.004-17.62.004-26.43-.004zm12.717 36.974c.343-.039.71-.072 1.043.034.438.181.398.893-.05 1.033-.362.07-.767.103-1.117-.036-.422-.213-.346-.934.124-1.031z"/></g><path d="M0 3.796h3.783V0H0zm7.914 0h3.782V0H7.914zm7.254 0h3.783V0h-3.783zM3.957 7.766H7.74V3.971H3.957zm7.913 0h3.784V3.971H11.87z" transform="translate(22.862 18.53)" stroke-width=".875" stroke="url(#a)"/></g></svg>