<svg width="49" height="55" viewBox="0 0 49 55" xmlns="http://www.w3.org/2000/svg"><title>9CE80421-9596-4381-B1CA-8A5D65C6A351</title><defs><linearGradient x1="12.957%" y1="80.245%" y2="15.021%" id="a"><stop stop-color="#F8A56F" offset="0%"/><stop stop-color="#F26C51" offset="100%"/></linearGradient></defs><g transform="translate(-1068 -986)" fill="url(#a)" fill-rule="evenodd"><path d="M1088.277 1031.298a.505.505 0 0 1-.505-.504v-2.493a.504.504 0 1 1 1.01 0v2.493a.505.505 0 0 1-.505.504"/><path d="M1085.662 1031.298a.505.505 0 0 1-.505-.504v-4.954c0-2.053 1.927-2.595 2.945-2.595h2.009c.054-.01.255-.08.255-.145a.518.518 0 0 1 .513-.496.504.504 0 0 1 .497.512c-.011.697-.638 1.078-1.215 1.135l-2.059.002c-.196.002-1.935.058-1.935 1.587v4.954a.505.505 0 0 1-.505.504m10.978-.169a.505.505 0 0 1-.506-.505v-2.28a.505.505 0 0 1 1.01 0v2.28a.505.505 0 0 1-.505.505"/><path d="M1099.253 1031.213a.505.505 0 0 1-.505-.504v-4.87c0-1.567-1.856-1.585-1.935-1.585h-2.008a1.115 1.115 0 0 1-.768-.3c-.15-.143-.33-.406-.333-.842a.506.506 0 0 1 .502-.508h.002c.278 0 .504.224.505.502 0 .136.028.137.088.14h2.012c1.019 0 2.944.542 2.944 2.593v4.87a.505.505 0 0 1-.504.504m-6.796-16.729c-1.61 0-2.918 1.513-2.918 3.373 0 1.86 1.309 3.374 2.918 3.374 1.609 0 2.918-1.514 2.918-3.374s-1.309-3.373-2.918-3.373m0 7.755c-2.166 0-3.927-1.966-3.927-4.382 0-2.416 1.761-4.381 3.927-4.381 2.165 0 3.928 1.965 3.928 4.381 0 2.416-1.763 4.382-3.928 4.382m12.977 18.791a.505.505 0 0 1-.505-.504v-2.494a.504.504 0 1 1 1.01 0v2.494a.505.505 0 0 1-.505.504"/><path d="M1102.82 1041.03a.505.505 0 0 1-.505-.504v-4.955c0-2.052 1.926-2.594 2.945-2.594h2.008c.054-.01.255-.08.256-.145a.515.515 0 0 1 .512-.496c.279.004.5.233.497.511-.01.698-.637 1.078-1.215 1.136l-2.058.002c-.197.002-1.936.057-1.936 1.586v4.955a.505.505 0 0 1-.505.504m10.977-.17a.505.505 0 0 1-.504-.504v-2.28a.505.505 0 0 1 1.009 0v2.28a.505.505 0 0 1-.505.504"/><path d="M1116.41 1040.945a.505.505 0 0 1-.505-.505v-4.869c0-1.568-1.855-1.586-1.935-1.586h-2.008a1.117 1.117 0 0 1-.768-.299c-.15-.144-.33-.406-.333-.843a.505.505 0 0 1 .502-.507h.003c.277 0 .503.224.504.501.001.137.029.138.088.14h2.012c1.019 0 2.945.542 2.945 2.594v4.87a.505.505 0 0 1-.505.504m-6.796-16.729c-1.609 0-2.918 1.513-2.918 3.373 0 1.86 1.31 3.373 2.918 3.373 1.61 0 2.919-1.513 2.919-3.373 0-1.86-1.31-3.373-2.92-3.373m0 7.755c-2.164 0-3.926-1.966-3.926-4.382 0-2.416 1.762-4.382 3.927-4.382 2.166 0 3.928 1.966 3.928 4.382 0 2.416-1.762 4.382-3.928 4.382m-38.494 9.059a.505.505 0 0 1-.505-.504v-2.494a.504.504 0 1 1 1.009 0v2.494a.505.505 0 0 1-.505.504"/><path d="M1068.505 1041.03a.505.505 0 0 1-.505-.504v-4.955c0-2.052 1.926-2.594 2.945-2.594h2.008c.054-.01.255-.08.256-.145a.504.504 0 1 1 1.01.015c-.011.698-.638 1.078-1.215 1.136l-2.059.002c-.196.002-1.936.057-1.936 1.586v4.955a.505.505 0 0 1-.504.504m10.977-.17a.505.505 0 0 1-.505-.504v-2.28a.505.505 0 0 1 1.01 0v2.28a.505.505 0 0 1-.505.504"/><path d="M1082.095 1040.945a.505.505 0 0 1-.504-.505v-4.869c0-1.568-1.856-1.586-1.935-1.586h-2.008a1.114 1.114 0 0 1-.768-.299c-.151-.144-.33-.406-.334-.843a.505.505 0 0 1 .502-.507h.003c.277 0 .503.224.505.501 0 .137.028.138.088.14h2.012c1.018 0 2.944.542 2.944 2.594v4.87a.505.505 0 0 1-.505.504m-6.795-16.729c-1.61 0-2.918 1.513-2.918 3.373 0 1.86 1.309 3.373 2.917 3.373 1.61 0 2.92-1.513 2.92-3.373 0-1.86-1.31-3.373-2.92-3.373m0 7.755c-2.165 0-3.926-1.966-3.926-4.382 0-2.416 1.761-4.382 3.926-4.382 2.166 0 3.928 1.966 3.928 4.382 0 2.416-1.762 4.382-3.928 4.382m16.111-40.276h-13.51a.505.505 0 0 1-.504-.504v-4.687a.505.505 0 0 1 1.009 0v4.182h12.5v-4.182a.505.505 0 0 1 1.01 0v4.687a.505.505 0 0 1-.505.504m8.729 17.021a.505.505 0 0 1-.404-.807l1.563-2.08-2.488-5.415a.503.503 0 1 1 .917-.421l2.613 5.687a.504.504 0 0 1-.055.513l-1.742 2.321a.506.506 0 0 1-.404.202"/><path d="M1101.59 1005.408a.504.504 0 0 1-.446-.739l1.084-2.064-2.573-4.077a.504.504 0 1 1 .853-.538l2.729 4.322a.504.504 0 0 1 .02.504l-1.22 2.322a.506.506 0 0 1-.447.27m-4.241 9.752a.974.974 0 0 1-.73-.326c-.926-1.014-.32-4.707-.039-6.145-.436-.553-1.761-2.222-2.386-2.863-2.982-1.765-4.189-1.2-4.57-.872-.497.427-.547 1.166-.34 1.674.95 2.59 1.097 4.6.442 5.991a3.121 3.121 0 0 1-1.785 1.639.504.504 0 0 1-.653-.334c-.677-2.312-2.848-5.784-3.261-6.248-4.129-5.478-5.191-15.918-5.235-16.36a.505.505 0 0 1 1.005-.098c.01.105 1.079 10.6 5.01 15.82.486.544 2.421 3.684 3.263 6.034.268-.18.542-.457.742-.882.529-1.123.367-2.92-.47-5.198-.325-.8-.274-2.032.625-2.803.683-.586 2.342-1.26 5.8.804a.515.515 0 0 1 .098.076c.767.768 2.577 3.083 2.653 3.18a.508.508 0 0 1 .097.412c-.482 2.368-.62 4.775-.33 5.382 1.148-1.346 2.392-4.174 2.618-4.887-.48-1.418-2.196-6.238-2.213-6.288a.504.504 0 1 1 .95-.338c.077.213 1.866 5.241 2.268 6.45a.493.493 0 0 1 .016.258c-.132.66-1.746 4.361-3.157 5.771a.506.506 0 0 1-.3.145.996.996 0 0 1-.118.006"/><path d="M1102.52 1002.45a.503.503 0 0 1-.496-.6l.63-3.303-4.043-2.316-.834-.387c-.175-.05-5.809-1.834-7.865-4.124a.504.504 0 1 1 .75-.674c1.873 2.084 7.424 3.843 7.48 3.86l.934.43 4.392 2.515c.187.107.285.32.244.532l-.696 3.656a.505.505 0 0 1-.495.41"/></g></svg>