<svg width="73" height="60" viewBox="0 0 73 60" xmlns="http://www.w3.org/2000/svg" xmlns:xlink="http://www.w3.org/1999/xlink"><title>D443B1F6-0159-4378-9D8B-80E3EAD9ACC6</title><defs><path id="a" d="M48.286 16.596V.341H0v32.511h48.286z"/><linearGradient x1="12.957%" y1="80.245%" y2="15.021%" id="b"><stop stop-color="#F8A56F" offset="0%"/><stop stop-color="#F26C51" offset="100%"/></linearGradient></defs><g fill="none" fill-rule="evenodd"><g transform="translate(0 27.037)"><mask id="c" fill="#fff"><use xlink:href="#a"/></mask><path d="M47.016 28.685c0 2.8-2.63 2.905-2.936 2.908H4.206c-.12 0-2.935-.033-2.935-2.908V4.508c0-2.804 2.637-2.906 2.935-2.909H44.08c.12 0 2.936.034 2.936 2.909v24.177zM44.08.34H4.206C2.751.34 0 1.212 0 4.508v24.177c0 3.296 2.75 4.167 4.206 4.167H44.08c1.455 0 4.206-.871 4.206-4.167V4.508c0-3.296-2.751-4.168-4.206-4.168z" fill="url(#b)" mask="url(#c)"/></g><path d="M16.704 26.785H5.992a.633.633 0 0 0-.635.63c0 .347.284.629.635.629h10.712c.35 0 .635-.282.635-.63a.633.633 0 0 0-.635-.63m0-4.717H5.992a.633.633 0 0 0-.635.63c0 .347.284.629.635.629h10.712c.35 0 .635-.282.635-.63a.633.633 0 0 0-.635-.63m30.947-15.92H.635a.633.633 0 0 0-.635.63c0 .347.285.629.635.629h47.016c.35 0 .635-.282.635-.63a.633.633 0 0 0-.635-.63m0 5.897H.635a.633.633 0 0 0-.635.63c0 .347.285.63.635.63h47.016c.35 0 .635-.283.635-.63a.633.633 0 0 0-.635-.63M28.992 26.785H41.7v-7.276H28.992v7.276zm13.342-8.535H28.357a.633.633 0 0 0-.636.63v8.534c0 .348.285.63.636.63h13.977a.633.633 0 0 0 .636-.63V18.88a.633.633 0 0 0-.636-.63z" fill="url(#b)" transform="translate(0 26.538)"/><g transform="translate(46.215)" fill="url(#b)"><path d="M12.947 1.792c-6.457 0-11.71 5.266-11.71 11.74 0 6.473 5.253 11.74 11.71 11.74 6.458 0 11.71-5.267 11.71-11.74 0-6.474-5.252-11.74-11.71-11.74m0 24.68C5.83 26.473.04 20.668.04 13.533.04 6.395 5.83.591 12.947.591c7.118 0 12.908 5.804 12.908 12.94 0 7.135-5.79 12.94-12.908 12.94" transform="translate(0 .209)" stroke="url(#b)" stroke-width=".5"/><path d="M12.947 14.34a.6.6 0 0 1-.598-.599l-.012-5.337a.6.6 0 0 1 .598-.601h.001a.6.6 0 0 1 .599.598l.01 5.337a.6.6 0 0 1-.597.602zm.001-8.608a.6.6 0 0 1-.599-.6v-1.6a.6.6 0 1 1 1.197 0v1.6a.6.6 0 0 1-.598.6m0 18.952a.6.6 0 0 1-.599-.6v-1.602a.6.6 0 1 1 1.197 0v1.602a.6.6 0 0 1-.598.6M4.294 14.408H2.697a.6.6 0 0 1 0-1.2h1.597a.6.6 0 0 1 0 1.2m18.903 0H21.6a.6.6 0 0 1 0-1.2h1.597a.6.6 0 0 1 0 1.2" stroke="url(#b)" stroke-width=".5"/><path d="M18.783 20.725a.596.596 0 0 1-.441-.193l-5.762-6.28a.6.6 0 0 1 .034-.847.597.597 0 0 1 .846.035l5.763 6.279a.602.602 0 0 1-.44 1.006"/></g></g></svg>