<svg xmlns="http://www.w3.org/2000/svg" viewBox="0 0 360 335"><defs><linearGradient id="a" x1="12.957%" y1="80.245%" y2="15.021%"><stop stop-color="#F8A56F" offset="0%"/><stop stop-color="#F26C51" offset="100%"/></linearGradient><linearGradient id="b" x1="50%" x2="50%" y1="0%" y2="100%"><stop stop-color="#CFDEF8" offset="0%"/><stop stop-color="#D9F5FD" offset="100%"/></linearGradient><linearGradient id="c" x1="12.957%" y1="80.245%" y2="15.021%"><stop stop-color="#F8A56F" offset="0%"/><stop stop-color="#F37556" offset="83.969%"/><stop stop-color="#F26C51" offset="100%"/></linearGradient><linearGradient id="d" x1="50%" x2="50%" y1="0%" y2="100%"><stop stop-color="#FCFCFE" offset="0%"/><stop stop-color="#F6F7FB" offset="100%"/></linearGradient><linearGradient id="e" x1="12.957%" y1="80.245%" y2="15.021%"><stop stop-color="#F8A56F" offset="0%"/><stop stop-color="#F36C51" offset="99.146%"/><stop stop-color="#F26C51" offset="99.621%"/><stop stop-color="#F26C51" offset="100%"/></linearGradient><linearGradient id="f" x1="12.957%" y1="80.245%" y2="15.021%"><stop stop-color="#F8A56F" offset="0%"/><stop stop-color="#F68C62" offset="44.377%"/><stop stop-color="#F26C51" offset="100%"/></linearGradient><linearGradient id="g" x1="50%" x2="50%" y1="0%" y2="100%"><stop stop-color="#FFF" offset="0%"/><stop stop-color="#FFF" offset="100%"/></linearGradient><linearGradient id="h" x1="12.957%" y1="80.245%" y2="15.021%"><stop stop-color="#F8A56F" offset="0%"/><stop stop-color="#F5875F" offset="52.172%"/><stop stop-color="#F26C51" offset="100%"/></linearGradient><linearGradient id="i" x1="12.957%" y1="80.245%" y2="15.021%"><stop stop-color="#F8A56F" offset="0%"/><stop stop-color="#F37455" offset="85.091%"/><stop stop-color="#F26C51" offset="100%"/></linearGradient><linearGradient id="j" x1="12.957%" y1="80.245%" y2="15.021%"><stop stop-color="#F8A56F" offset="0%"/><stop stop-color="#F5875F" offset="53.545%"/><stop stop-color="#F26C51" offset="100%"/></linearGradient><linearGradient id="k" x1="50%" x2="50%" y1="0%" y2="100%"><stop stop-color="#EAF1FD" offset="0%"/><stop stop-color="#CFDEF8" offset="100%"/></linearGradient><linearGradient id="l" x1="12.957%" y1="80.245%" y2="15.021%"><stop stop-color="#F8A56F" offset="0%"/><stop stop-color="#F47F5B" offset="67.297%"/><stop stop-color="#F26C51" offset="100%"/></linearGradient></defs><g fill="none" fill-rule="evenodd"><path fill="#CFDEF8" d="M149.52 159.808L22.253 233.306 189.17 329.7l39.648-22.897 127.266-73.497L189.17 136.91"/><path fill="url(#a)" d="M189.17 328.865L23.7 233.305l165.47-95.56 165.466 95.56-165.467 95.56zm167.276-96.186L189.53 136.282a.719.719 0 0 0-.723 0L21.892 232.68a.722.722 0 1 0 0 1.253l166.915 96.395a.72.72 0 0 0 .722 0l166.916-96.395a.724.724 0 0 0 0-1.254z"/><path fill="#C4D2EB" d="M105.71 281.504l-41.727-24.1-41.73-24.098v4.517l166.916 96.395V329.7l-41.73-24.098"/><path fill="url(#a)" d="M188.445 332.964l-165.467-95.56v-2.844l165.467 95.56v2.844zm1.086-3.89L22.617 232.68a.72.72 0 0 0-.724 0 .72.72 0 0 0-.362.626v4.517c0 .258.138.497.362.627l166.915 96.395a.72.72 0 0 0 .722 0 .723.723 0 0 0 .363-.627V329.7a.725.725 0 0 0-.362-.626z"/><path fill="#D9F5FD" d="M272.627 281.504l-41.73 24.098-41.728 24.1v4.516l127.264-73.497v-4.516l-2.08 1.2"/><path fill="#0081E6" d="M315.71 260.303l-125.817 72.66v-2.844l125.818-72.662v2.845zm1.086-4.726a.719.719 0 0 0-.723 0l-127.266 73.497a.727.727 0 0 0-.362.627v4.518a.722.722 0 0 0 1.084.627l127.266-73.497a.727.727 0 0 0 .362-.627v-4.516a.722.722 0 0 0-.362-.627z"/><path fill="#E2EBFB" d="M272.627 281.504l-41.73 24.098-41.728 24.1v4.516l166.914-96.395v-4.517l-41.73 24.1"/><path fill="url(#a)" d="M355.36 237.405l-165.467 95.56v-2.846l165.467-95.56v2.845zm1.086-4.726a.72.72 0 0 0-.724 0l-166.915 96.394a.727.727 0 0 0-.362.627v4.518a.722.722 0 0 0 1.084.627l166.916-96.395a.727.727 0 0 0 .362-.627v-4.517a.722.722 0 0 0-.362-.627z"/><path fill="#C4D2EB" d="M140.936 296.32l32.454 18.742h15.78l9.065-11.95-26.344-24.822"/><path fill="#C4D2EB" d="M188.81 314.338h-15.226l-31.205-18.02 29.41-17.13 25.475 24.005-8.455 11.145zm-16.422-36.575a.725.725 0 0 0-.86-.1l-30.957 18.03a.724.724 0 0 0 .004 1.254l32.454 18.743c.11.063.235.096.362.096h15.78c.225 0 .44-.106.576-.286l9.066-11.95a.723.723 0 0 0-.08-.964l-26.344-24.823zm19.258-10.82l32.454 18.743h15.78l9.065-11.95-26.343-24.823"/><path fill="#C4D2EB" d="M239.52 284.96h-15.226l-31.205-18.02 29.41-17.13 25.475 24.007-8.455 11.144zm-16.422-36.574a.725.725 0 0 0-.86-.1l-30.957 18.03a.728.728 0 0 0 .004 1.254l32.454 18.742a.72.72 0 0 0 .362.098h15.78a.72.72 0 0 0 .576-.287l9.066-11.95a.723.723 0 0 0-.08-.964l-26.344-24.824z"/><path fill="#BAC7DF" fill-opacity=".5" d="M249.63 233.24l32.455 18.744h15.78l9.065-11.95-26.344-24.822"/><path fill="#C4D2EB" d="M61.88 248.254l26.32 15.2h12.796l7.352-9.69-21.363-20.13"/><path fill="#C4D2EB" d="M100.637 262.73H88.394l-25.07-14.48 23.558-13.72 20.496 19.314-6.74 8.886zM87.48 233.106a.725.725 0 0 0-.86-.1L61.518 247.63a.725.725 0 0 0 .002 1.253l26.318 15.2a.72.72 0 0 0 .362.098h12.796c.226 0 .44-.106.577-.287l7.352-9.69a.723.723 0 0 0-.08-.964l-21.364-20.13zm16.02 39.834l26.318 15.2h12.796l7.352-9.69-21.363-20.13"/><path fill="#C4D2EB" d="M142.254 287.416h-12.242l-25.07-14.48 23.558-13.72 20.496 19.314-6.742 8.886zM129.1 257.792a.728.728 0 0 0-.862-.1l-25.103 14.622a.727.727 0 0 0 .002 1.254l26.32 15.2c.11.063.234.097.36.097h12.797a.72.72 0 0 0 .576-.287l7.353-9.69a.725.725 0 0 0-.08-.965l-21.364-20.13zm-95.036-26.986l21.206 12.247h10.31l5.924-7.808-17.213-16.22"/><path fill="#C4D2EB" d="M65.22 242.33h-9.756l-19.957-11.527 18.68-10.88 16.347 15.403-5.313 7.003zm-10.433-23.832a.722.722 0 0 0-.86-.098L33.7 230.18a.725.725 0 0 0 .002 1.253l21.206 12.247a.73.73 0 0 0 .362.097h10.31c.226 0 .44-.106.577-.286l5.924-7.807a.724.724 0 0 0-.08-.965l-17.213-16.22z"/><path fill="#FFF" d="M168.304 54.81h-9.18a.869.869 0 0 0 0 1.74h9.18a.869.869 0 0 0 0-1.74"/><path fill="#CFDEF8" d="M289.9 150.617h-75.345c-5.746 0-10.42-4.677-10.42-10.425 0-4.49 2.857-8.463 7.11-9.887a.87.87 0 0 0 .577-.655c1.256-6.347 6.87-10.953 13.347-10.953 2.195 0 4.29.507 6.23 1.508.387.2.863.08 1.11-.277a13.624 13.624 0 0 1 11.19-5.865c2.184 0 4.27.502 6.2 1.492a13.737 13.737 0 0 1 4.712 3.987.869.869 0 0 0 1.043.278 13.503 13.503 0 0 1 5.417-1.123c3.14 0 6.088 1.04 8.528 3.005a.867.867 0 0 0 1.09 0 13.453 13.453 0 0 1 8.527-3.005c6.467 0 12.078 4.597 13.342 10.93.06.308.283.558.58.656a10.4 10.4 0 0 1 7.182 9.91c0 5.747-4.675 10.424-10.42 10.424m4.255-21.82c-1.61-6.888-7.815-11.838-14.94-11.838-3.26 0-6.454 1.05-9.072 2.97a15.393 15.393 0 0 0-9.073-2.97c-1.893 0-3.735.34-5.484 1.01-1.34-1.637-3.02-3-4.895-3.96a15.163 15.163 0 0 0-6.993-1.685c-4.78 0-9.278 2.233-12.176 6.01a15.403 15.403 0 0 0-6.355-1.376c-7.14 0-13.346 4.96-14.947 11.866a12.148 12.148 0 0 0-7.827 11.366c0 6.707 5.455 12.163 12.16 12.163H289.9c6.705 0 12.16-5.456 12.16-12.163 0-5.108-3.155-9.625-7.903-11.395m-177.471-17.193h-23.96c-3.624 0-6.573-2.95-6.573-6.576a6.6 6.6 0 0 1 4.775-6.328.871.871 0 0 0 .61-.637 8.708 8.708 0 0 1 3.02-4.78 8.576 8.576 0 0 1 5.424-1.905 8.608 8.608 0 0 1 6.97 3.51.863.863 0 0 0 .982.3 6.623 6.623 0 0 1 2.166-.364c2.335 0 4.446 1.2 5.646 3.207.157.262.44.422.746.422h.194a6.583 6.583 0 0 1 6.575 6.576 6.582 6.582 0 0 1-6.574 6.576m.284-14.886a8.365 8.365 0 0 0-6.87-3.633 8.28 8.28 0 0 0-2.14.28 10.46 10.46 0 0 0-7.978-3.726c-2.36 0-4.674.813-6.512 2.288a10.469 10.469 0 0 0-3.498 5.255 8.349 8.349 0 0 0-5.557 7.846c0 4.584 3.73 8.314 8.312 8.314h23.96c4.583 0 8.31-3.73 8.31-8.314 0-4.49-3.575-8.16-8.027-8.31M35 159.52H9.614c-3.87 0-7.02-3.15-7.02-7.02 0-3.87 3.15-7.02 7.02-7.02h.206c.305 0 .588-.16.745-.423a7.06 7.06 0 0 1 6.027-3.422c.792 0 1.57.13 2.312.39.36.125.757.003.984-.302a9.164 9.164 0 0 1 7.425-3.74c2.127 0 4.126.702 5.78 2.03a9.286 9.286 0 0 1 3.22 5.095.87.87 0 0 0 .608.637 7.047 7.047 0 0 1 5.1 6.755c0 3.87-3.15 7.02-7.02 7.02m2.878-15.294a11.051 11.051 0 0 0-3.697-5.567 10.992 10.992 0 0 0-6.867-2.415 11.04 11.04 0 0 0-8.436 3.954 8.695 8.695 0 0 0-2.285-.303 8.805 8.805 0 0 0-7.25 3.85c-4.704.143-8.485 4.015-8.485 8.753 0 4.83 3.928 8.758 8.756 8.758H35c4.83 0 8.757-3.93 8.757-8.758 0-3.73-2.393-7.06-5.88-8.274M304.024 312.38h-16.34c-2.32 0-4.207-1.887-4.207-4.207s1.888-4.21 4.208-4.21h.132c.306 0 .59-.16.746-.422a4.177 4.177 0 0 1 3.613-2.05c.475 0 .942.078 1.386.233.36.125.757.003.984-.302a5.59 5.59 0 0 1 4.53-2.28 5.613 5.613 0 0 1 5.49 4.346c.073.307.306.55.61.637a4.223 4.223 0 0 1 3.056 4.05 4.213 4.213 0 0 1-4.208 4.208m2.105-9.77a7.345 7.345 0 0 0-7.054-5.208 7.418 7.418 0 0 0-5.54 2.507 5.846 5.846 0 0 0-1.36-.158 5.98 5.98 0 0 0-4.833 2.484 5.952 5.952 0 0 0-5.603 5.937 5.951 5.951 0 0 0 5.945 5.946h16.34a5.953 5.953 0 0 0 5.944-5.947 5.975 5.975 0 0 0-3.84-5.563m-48.4-267.923h-16.34a4.213 4.213 0 0 1-4.207-4.21 4.213 4.213 0 0 1 4.208-4.208h.133c.307 0 .59-.16.747-.423a4.177 4.177 0 0 1 3.613-2.05c.475 0 .94.078 1.386.233a.87.87 0 0 0 .984-.303 5.59 5.59 0 0 1 4.53-2.28 5.612 5.612 0 0 1 5.49 4.345c.073.308.306.55.61.638a4.222 4.222 0 0 1 3.055 4.05 4.212 4.212 0 0 1-4.207 4.208m2.105-9.772a7.344 7.344 0 0 0-7.053-5.208 7.416 7.416 0 0 0-5.54 2.507 5.961 5.961 0 0 0-1.36-.157 5.98 5.98 0 0 0-4.833 2.484 5.954 5.954 0 0 0-5.603 5.937 5.951 5.951 0 0 0 5.944 5.945h16.34a5.952 5.952 0 0 0 5.945-5.946 5.975 5.975 0 0 0-3.84-5.564M88.89 83.798H72.55a4.212 4.212 0 0 1-4.207-4.208c0-2.32 1.888-4.21 4.208-4.21h.133c.306 0 .59-.16.746-.422a4.173 4.173 0 0 1 3.612-2.052c.475 0 .942.08 1.386.234.36.125.757.003.984-.302a5.593 5.593 0 0 1 4.53-2.282 5.614 5.614 0 0 1 5.49 4.347c.073.307.306.55.61.637a4.223 4.223 0 0 1 3.056 4.05 4.213 4.213 0 0 1-4.208 4.208m2.105-9.77a7.345 7.345 0 0 0-7.052-5.21c-2.12 0-4.147.928-5.54 2.508a5.906 5.906 0 0 0-1.36-.157c-1.915 0-3.724.94-4.834 2.483a5.953 5.953 0 0 0-5.604 5.937 5.953 5.953 0 0 0 5.945 5.946h16.34a5.953 5.953 0 0 0 5.945-5.946 5.974 5.974 0 0 0-3.84-5.563m259.642 91.452H325.58c-3.813 0-6.915-3.103-6.915-6.918a6.924 6.924 0 0 1 6.916-6.917h.204c.305 0 .59-.16.745-.423a6.954 6.954 0 0 1 5.938-3.372c.78 0 1.547.13 2.28.385a.868.868 0 0 0 .982-.302 9.038 9.038 0 0 1 7.32-3.685c2.096 0 4.067.692 5.698 2a9.167 9.167 0 0 1 3.173 5.022.87.87 0 0 0 .61.638 6.943 6.943 0 0 1 5.023 6.655c0 3.815-3.103 6.918-6.916 6.918m2.85-15.092a10.921 10.921 0 0 0-3.652-5.495 10.882 10.882 0 0 0-6.785-2.383c-3.21 0-6.28 1.447-8.33 3.9a8.652 8.652 0 0 0-2.252-.296 8.705 8.705 0 0 0-7.162 3.8c-4.645.145-8.378 3.97-8.378 8.65 0 4.773 3.88 8.656 8.653 8.656h25.057c4.77 0 8.653-3.883 8.653-8.656a8.692 8.692 0 0 0-5.804-8.174M202.8 27.22h-34.57a6.104 6.104 0 0 1-6.096-6.097 6.04 6.04 0 0 1 2.107-4.612 5.62 5.62 0 0 1 .462-.363c.04-.03.08-.057.12-.084a5.932 5.932 0 0 1 .9-.503c.296-.134.607-.245.925-.33a.867.867 0 0 0 .628-1 8.198 8.198 0 0 1-.14-1.507c0-4.447 3.616-8.064 8.06-8.064.854 0 1.695.133 2.5.396a.87.87 0 0 0 .994-.346 6.087 6.087 0 0 1 5.083-2.733c2.75 0 5.17 1.852 5.886 4.504a.866.866 0 0 0 1.382.45 7.006 7.006 0 0 1 4.432-1.56c3.904 0 7.08 3.177 7.08 7.082 0 .513-.056 1.027-.166 1.527a.87.87 0 0 0 .795 1.054 6.106 6.106 0 0 1 5.713 6.086 6.104 6.104 0 0 1-6.097 6.098m1.438-13.8a8.87 8.87 0 0 0 .053-.964c0-4.863-3.954-8.82-8.816-8.82-1.6 0-3.176.443-4.54 1.26a7.85 7.85 0 0 0-7.16-4.654 7.82 7.82 0 0 0-6.154 2.985 9.865 9.865 0 0 0-2.424-.303c-5.403 0-9.8 4.397-9.8 9.802 0 .356.02.713.06 1.067-.153.058-.303.12-.45.186l-.172.08a7.881 7.881 0 0 0-2.009 1.39 7.776 7.776 0 0 0-2.43 5.673c0 4.32 3.516 7.836 7.835 7.836h34.57c4.318 0 7.833-3.516 7.833-7.837a7.848 7.848 0 0 0-6.395-7.703"/><path fill="#CFDEF8" d="M171.44 13.973a7.777 7.777 0 0 0-3.21-.686c-4.32 0-7.834 3.515-7.834 7.836 0 4.32 3.515 7.836 7.834 7.836a.87.87 0 0 0 0-1.74 6.104 6.104 0 0 1-6.096-6.097 6.104 6.104 0 0 1 8.594-5.565.87.87 0 1 0 .713-1.586m24.034-10.334a8.834 8.834 0 0 0-7.688 4.5.869.869 0 1 0 1.514.85 7.094 7.094 0 0 1 6.175-3.613c3.903 0 7.08 3.176 7.08 7.08a7.088 7.088 0 0 1-.913 3.48.868.868 0 1 0 1.512.858 8.837 8.837 0 0 0 1.137-4.337c0-4.863-3.954-8.82-8.815-8.82"/><path fill="#CFDEF8" d="M175.196 2.924c-5.403 0-9.8 4.397-9.8 9.802a.869.869 0 1 0 1.738 0c0-4.447 3.617-8.064 8.062-8.064 2.204 0 4.262.873 5.795 2.458a.87.87 0 0 0 1.25-1.208 9.718 9.718 0 0 0-7.044-2.988"/><path fill="#FFF" d="M144.376 89.874v81.867l31.817 18.376 31.817-18.375V89.875L176.193 71.5"/><path fill="#0081E6" d="M207.286 171.323l-31.093 17.957-31.093-17.957v-81.03l31.093-17.957 31.093 17.956v81.03zm1.085-82.076l-31.815-18.375a.72.72 0 0 0-.724 0l-31.816 18.375a.727.727 0 0 0-.362.627v81.867c0 .26.138.5.362.628l31.817 18.375a.73.73 0 0 0 .725 0l31.816-18.375a.723.723 0 0 0 .363-.627V89.875a.724.724 0 0 0-.362-.627z"/><path fill="#F6F7FB" d="M144.376 89.874l31.817 18.375 31.817-18.376L176.193 71.5"/><path fill="url(#a)" d="M176.193 107.413l-30.37-17.54 30.37-17.537 30.37 17.538-30.37 17.54zm32.178-18.166l-31.815-18.375a.72.72 0 0 0-.724 0l-31.816 18.375a.724.724 0 0 0 0 1.254l31.817 18.376a.726.726 0 0 0 .725 0L208.37 90.5a.722.722 0 1 0 .001-1.253z"/><path fill="#F6F7FB" d="M144.376 171.74l31.817 18.376V108.25l-31.817-18.376"/><path fill="url(#a)" d="M175.47 188.86l-30.37-17.537V91.128l30.37 17.54v80.193zm1.085-81.238l-31.817-18.375a.724.724 0 0 0-1.086.627v81.867c0 .26.138.5.362.628l31.817 18.375a.73.73 0 0 0 .725 0 .727.727 0 0 0 .362-.627V108.25c0-.26-.138-.5-.362-.628z"/><path fill="#D9F5FD" d="M144.376 136.974v6.61l31.817 18.374 31.817-18.375v-6.61l-31.817 18.375"/><path fill="#0081E6" d="M207.286 143.165l-31.093 17.957-31.093-17.957v-4.937l30.73 17.747c.225.13.5.13.725 0l30.73-17.747v4.937zm1.085-6.818a.717.717 0 0 0-.722 0l-31.455 18.165-31.455-18.165a.724.724 0 0 0-1.086.627v6.61c0 .258.138.497.362.626l31.817 18.375a.726.726 0 0 0 .725 0l31.816-18.375a.723.723 0 0 0 .363-.627v-6.61a.723.723 0 0 0-.362-.626z"/><path fill="#CFDEF8" d="M144.376 143.583l31.817 18.375v-6.61l-31.817-18.374"/><path fill="url(#a)" d="M175.47 160.704l-30.37-17.54v-4.936l30.37 17.54v4.936zm1.085-5.983l-31.817-18.373a.724.724 0 0 0-1.086.627v6.61c0 .258.138.497.362.626l31.817 18.375a.726.726 0 0 0 1.087-.627v-6.61a.726.726 0 0 0-.362-.627z"/><path fill="#D9F5FD" d="M144.376 120.298v6.61l31.817 18.374 31.817-18.375v-6.61l-31.817 18.376"/><path fill="url(#a)" d="M207.286 126.49l-31.093 17.956L145.1 126.49v-4.938l30.73 17.748c.225.13.5.13.725 0l30.73-17.748v4.937zm1.085-6.82a.717.717 0 0 0-.722 0l-31.455 18.166-31.455-18.165a.72.72 0 0 0-.724 0 .727.727 0 0 0-.362.628v6.61c0 .258.138.497.362.626l31.817 18.375a.736.736 0 0 0 .725-.001l31.816-18.376a.723.723 0 0 0 .363-.627v-6.61a.723.723 0 0 0-.362-.626z"/><path fill="#CFDEF8" d="M144.376 126.907l31.817 18.375v-6.61l-31.817-18.374"/><path fill="url(#a)" d="M175.47 144.028l-30.37-17.54v-4.936l30.37 17.54v4.936zm1.085-5.983l-31.817-18.374a.72.72 0 0 0-.724 0 .727.727 0 0 0-.362.628v6.61c0 .258.138.497.362.626l31.817 18.375a.736.736 0 0 0 .725-.001.727.727 0 0 0 .362-.628v-6.61a.726.726 0 0 0-.362-.627z"/><path fill="#D9F5FD" d="M144.376 103.622v6.61l31.817 18.374 31.817-18.375v-6.608l-31.817 18.374"/><path fill="#0081E6" d="M207.286 109.813l-31.093 17.957-31.093-17.957v-4.937l30.73 17.748c.225.13.5.13.725 0l30.73-17.748v4.937zm1.085-6.818a.717.717 0 0 0-.722 0l-31.455 18.165-31.455-18.165a.724.724 0 0 0-1.086.627v6.61c0 .258.138.497.362.626l31.817 18.375a.726.726 0 0 0 .725 0l31.816-18.375a.723.723 0 0 0 .363-.627v-6.608a.722.722 0 0 0-.362-.627z"/><path fill="url(#b)" d="M144.376 110.23l31.817 18.376v-6.61l-31.817-18.374"/><path fill="url(#a)" d="M175.47 127.352l-30.37-17.54v-4.936l30.37 17.54v4.936zm1.085-5.983l-31.817-18.375a.724.724 0 0 0-1.086.627v6.61c0 .258.138.497.362.626l31.817 18.375a.726.726 0 0 0 1.087-.627v-6.61a.726.726 0 0 0-.362-.627z"/><path fill="#FFF" d="M203.822 106.627v96.065l26.065 15.053 26.065-15.053v-96.065l-26.065-15.053"/><path fill="url(#a)" d="M255.228 202.274l-25.34 14.635-25.343-14.636v-95.23l25.342-14.633 25.34 14.635v95.23zM256.314 106L230.25 90.947a.723.723 0 0 0-.725 0L203.46 106a.727.727 0 0 0-.362.627v96.065c0 .26.138.498.362.627l26.065 15.052a.72.72 0 0 0 .724-.001l26.064-15.053a.727.727 0 0 0 .362-.628v-96.065a.726.726 0 0 0-.362-.627z"/><path fill="#F6F7FB" d="M203.822 106.627l26.065 15.053 26.065-15.053-26.065-15.053"/><path fill="url(#a)" d="M229.887 120.844l-24.618-14.217 24.617-14.216 24.617 14.217-24.617 14.217zM256.314 106L230.25 90.947a.723.723 0 0 0-.725 0L203.46 106a.722.722 0 1 0 0 1.254l26.065 15.053a.72.72 0 0 0 .724 0l26.064-15.053a.724.724 0 0 0 0-1.254z"/><path fill="#F6F7FB" d="M203.822 202.692l26.065 15.053V121.68l-26.065-15.053"/><path fill="url(#a)" d="M229.163 216.49l-24.618-14.216v-94.392l24.618 14.216v94.393zm1.086-95.437L204.182 106a.719.719 0 0 0-.723 0 .727.727 0 0 0-.362.627v96.065c0 .26.138.498.362.627l26.065 15.052a.72.72 0 0 0 .724-.001.725.725 0 0 0 .36-.627V121.68a.726.726 0 0 0-.36-.627z"/><path fill="#D9F5FD" d="M248.408 176.82l4.11-2.373v-8.484l-4.11 2.373"/><path fill="#0081E6" d="M251.793 174.03l-2.66 1.536v-6.812l2.66-1.537v6.812zm1.086-8.694a.723.723 0 0 0-.725 0l-4.108 2.373a.718.718 0 0 0-.362.626v8.484a.72.72 0 0 0 .722.724c.126 0 .25-.032.363-.097l4.11-2.373a.725.725 0 0 0 .36-.627v-8.484a.722.722 0 0 0-.36-.627z"/><path fill="#F6F7FB" d="M248.408 149.023l4.11-2.373v-8.484l-4.11 2.373"/><path fill="url(#a)" d="M251.793 146.232l-2.66 1.537v-6.813l2.66-1.537v6.812zm1.086-8.693a.723.723 0 0 0-.725 0l-4.108 2.372a.722.722 0 0 0-.362.627v8.483a.72.72 0 0 0 .722.724c.126 0 .25-.032.363-.097l4.11-2.373a.725.725 0 0 0 .36-.627v-8.484a.722.722 0 0 0-.36-.627z"/><path fill="#F6F7FB" d="M248.408 162.922l4.11-2.373v-8.486l-4.11 2.373"/><path fill="url(#a)" d="M251.793 160.13l-2.66 1.537v-6.812l2.66-1.536v6.81zm1.086-8.693a.723.723 0 0 0-.725 0l-4.108 2.373a.725.725 0 0 0-.362.627v8.485a.724.724 0 0 0 1.085.626l4.11-2.374c.223-.13.36-.37.36-.627v-8.486a.726.726 0 0 0-.36-.627z"/><path fill="#F6F7FB" d="M233.32 143.837l4.11-2.373v-8.484l-4.11 2.373"/><path fill="url(#a)" d="M236.706 141.046l-2.66 1.537v-6.812l2.66-1.536v6.812zm1.086-8.693a.72.72 0 0 0-.724 0l-4.11 2.373a.725.725 0 0 0-.36.627v8.484a.722.722 0 0 0 1.086.628l4.11-2.373a.72.72 0 0 0 .36-.626v-8.484a.722.722 0 0 0-.36-.627z"/><path fill="#F6F7FB" d="M233.32 171.634l4.11-2.373v-8.483l-4.11 2.373"/><path fill="url(#a)" d="M236.706 168.843l-2.66 1.537v-6.812l2.66-1.537v6.813zm1.086-8.693a.72.72 0 0 0-.724 0l-4.11 2.373a.727.727 0 0 0-.36.627v8.484a.725.725 0 0 0 .723.725c.126 0 .25-.034.363-.098l4.11-2.373c.223-.13.36-.37.36-.628v-8.485a.726.726 0 0 0-.36-.627z"/><path fill="#F6F7FB" d="M248.408 135.124l4.11-2.373v-8.483l-4.11 2.373"/><path fill="url(#a)" d="M251.793 132.333l-2.66 1.537v-6.812l2.66-1.537v6.813zm1.086-8.693a.723.723 0 0 0-.725 0l-4.108 2.373a.722.722 0 0 0-.362.627v8.484c0 .26.137.498.362.627a.724.724 0 0 0 .723.001l4.11-2.372a.725.725 0 0 0 .36-.627v-8.483a.722.722 0 0 0-.36-.627z"/><path fill="#D9F5FD" d="M248.408 190.72l4.11-2.374v-8.484l-4.11 2.373"/><path fill="#0081E6" d="M251.793 187.928l-2.66 1.537v-6.812l2.66-1.537v6.812zm1.086-8.693a.723.723 0 0 0-.725 0l-4.108 2.373a.722.722 0 0 0-.362.627v8.484a.72.72 0 0 0 .722.723c.126 0 .25-.032.363-.097l4.11-2.373a.725.725 0 0 0 .36-.627v-8.484a.722.722 0 0 0-.36-.627z"/><path fill="#D9F5FD" d="M233.32 199.432l4.11-2.373v-8.485l-4.11 2.373"/><path fill="#0081E6" d="M236.706 196.64l-2.66 1.538v-6.812l2.66-1.537v6.81zm1.086-8.692a.72.72 0 0 0-.724 0l-4.11 2.373a.727.727 0 0 0-.36.628v8.484c0 .258.137.497.36.627a.734.734 0 0 0 .726-.001l4.11-2.374a.725.725 0 0 0 .36-.627v-8.485a.722.722 0 0 0-.36-.627z"/><path fill="#D9F5FD" d="M240.865 195.075l4.11-2.373v-8.484l-4.11 2.373"/><path fill="#0081E6" d="M244.25 192.284l-2.66 1.537v-6.81l2.66-1.538v6.812zm1.086-8.693a.73.73 0 0 0-.724 0l-4.11 2.374a.727.727 0 0 0-.36.627v8.485a.722.722 0 0 0 1.085.626l4.11-2.373c.223-.13.36-.37.36-.628v-8.484a.726.726 0 0 0-.36-.627z"/><path fill="#F6F7FB" d="M240.865 167.278l4.11-2.373v-8.484l-4.11 2.374"/><path fill="url(#a)" d="M244.25 164.487l-2.66 1.537v-6.812l2.66-1.537v6.812zm1.086-8.693a.72.72 0 0 0-.724 0l-4.11 2.373a.725.725 0 0 0-.36.627v8.484a.722.722 0 0 0 1.085.627l4.11-2.373a.725.725 0 0 0 .36-.627v-8.484a.723.723 0 0 0-.36-.626z"/><path fill="#F6F7FB" d="M240.865 153.38l4.11-2.374v-8.484l-4.11 2.373"/><path fill="url(#a)" d="M244.25 150.588l-2.66 1.537v-6.812l2.66-1.537v6.812zm1.086-8.693a.72.72 0 0 0-.724 0l-4.11 2.373a.725.725 0 0 0-.36.627v8.484a.723.723 0 0 0 1.085.626l4.11-2.373a.725.725 0 0 0 .36-.627v-8.484a.726.726 0 0 0-.36-.627z"/><path fill="#D9F5FD" d="M233.32 185.533l4.11-2.373v-8.484l-4.11 2.373"/><path fill="#0081E6" d="M236.706 182.742l-2.66 1.537v-6.813l2.66-1.537v6.812zm1.086-8.693a.72.72 0 0 0-.724 0l-4.11 2.372a.725.725 0 0 0-.36.627v8.483a.722.722 0 0 0 1.086.627l4.11-2.373a.725.725 0 0 0 .36-.627v-8.484a.722.722 0 0 0-.36-.627z"/><path fill="#D9F5FD" d="M240.865 181.177l4.11-2.373v-8.484l-4.11 2.373"/><path fill="#0081E6" d="M244.25 178.386l-2.66 1.537v-6.812l2.66-1.536v6.812zm1.086-8.693a.72.72 0 0 0-.724 0l-4.11 2.372a.727.727 0 0 0-.36.627v8.485a.726.726 0 0 0 .723.724.73.73 0 0 0 .362-.096l4.11-2.373a.724.724 0 0 0 .36-.626v-8.484a.722.722 0 0 0-.36-.627z"/><path fill="#F6F7FB" d="M240.865 139.48l4.11-2.372v-8.484l-4.11 2.373"/><path fill="url(#a)" d="M244.25 136.69l-2.66 1.537v-6.812l2.66-1.537v6.812zm1.086-8.693a.72.72 0 0 0-.724 0l-4.11 2.372a.725.725 0 0 0-.36.627v8.484a.725.725 0 0 0 .723.725.73.73 0 0 0 .362-.097l4.11-2.373c.223-.13.36-.37.36-.627v-8.484a.722.722 0 0 0-.36-.627z"/><path fill="#F6F7FB" d="M233.32 157.736l4.11-2.373v-8.484l-4.11 2.372"/><path fill="url(#a)" d="M236.706 154.945l-2.66 1.537v-6.812l2.66-1.537v6.812zm1.086-8.693a.72.72 0 0 0-.724 0l-4.11 2.373a.725.725 0 0 0-.36.627v8.484a.725.725 0 0 0 1.086.627l4.11-2.373a.725.725 0 0 0 .36-.627v-8.484c0-.26-.137-.5-.36-.628z"/><path fill="#F6F7FB" d="M233.32 163.15l4.11-2.373v-5.414l-4.11 2.373"/><path fill="url(#a)" d="M236.706 160.36l-2.66 1.536v-3.742l2.66-1.537v3.742zm1.086-5.624a.72.72 0 0 0-.724 0l-4.11 2.373a.72.72 0 0 0-.36.626v5.414a.722.722 0 0 0 1.086.627l4.11-2.373a.725.725 0 0 0 .36-.627v-5.414a.722.722 0 0 0-.36-.627z"/><path fill="#F6F7FB" d="M248.408 154.437l4.11-2.373v-5.414l-4.11 2.373"/><path fill="url(#a)" d="M251.793 151.646l-2.66 1.537v-3.742l2.66-1.536v3.742zm1.086-5.623a.723.723 0 0 0-.725 0l-4.108 2.373a.722.722 0 0 0-.362.627v5.414a.72.72 0 0 0 .722.724c.126 0 .25-.03.363-.096l4.11-2.373a.72.72 0 0 0 .36-.626v-5.414a.722.722 0 0 0-.36-.627z"/><path fill="#F6F7FB" d="M240.865 158.794l4.11-2.373v-5.414l-4.11 2.373"/><path fill="url(#a)" d="M244.25 156.003l-2.66 1.537v-3.743l2.66-1.537v3.743zm1.086-5.624a.72.72 0 0 0-.724 0l-4.11 2.372a.727.727 0 0 0-.36.627v5.414a.723.723 0 0 0 1.085.628l4.11-2.372a.725.725 0 0 0 .36-.627v-5.414a.726.726 0 0 0-.36-.627z"/><path fill="#F6F7FB" d="M233.32 149.252l4.11-2.373v-5.416l-4.11 2.373"/><path fill="url(#a)" d="M236.706 146.46l-2.66 1.538v-3.743l2.66-1.537v3.743zm1.086-5.623a.72.72 0 0 0-.724 0l-4.11 2.373a.725.725 0 0 0-.36.627v5.415c0 .258.137.497.36.627a.734.734 0 0 0 .726-.001l4.11-2.374c.223-.13.36-.37.36-.627v-5.416a.723.723 0 0 0-.36-.627z"/><path fill="#F6F7FB" d="M248.408 140.54l4.11-2.374v-5.415l-4.11 2.374"/><path fill="url(#c)" d="M251.793 137.748l-2.66 1.537v-3.743l2.66-1.537v3.743zm1.086-5.624a.723.723 0 0 0-.725 0l-4.108 2.373a.722.722 0 0 0-.362.627v5.415a.723.723 0 0 0 1.085.626l4.11-2.373c.223-.13.36-.37.36-.627v-5.415a.725.725 0 0 0-.36-.626z"/><path fill="#F6F7FB" d="M240.865 144.895l4.11-2.373v-5.414l-4.11 2.373"/><path fill="url(#a)" d="M244.25 142.104l-2.66 1.537v-3.74l2.66-1.538v3.742zm1.086-5.623a.72.72 0 0 0-.724 0l-4.11 2.374a.725.725 0 0 0-.36.627v5.415a.722.722 0 0 0 1.085.626l4.11-2.373c.223-.13.36-.37.36-.628v-5.414a.722.722 0 0 0-.36-.627z"/><path fill="#F6F7FB" d="M248.408 126.64l4.11-2.373v-5.414l-4.11 2.373"/><path fill="url(#a)" d="M251.793 123.85l-2.66 1.536v-3.742l2.66-1.537v3.742zm1.086-5.624a.723.723 0 0 0-.725 0l-4.108 2.372a.725.725 0 0 0-.362.627v5.415a.72.72 0 0 0 .722.724c.126 0 .25-.032.363-.097l4.11-2.373a.725.725 0 0 0 .36-.627v-5.414a.722.722 0 0 0-.36-.627z"/><path fill="#F6F7FB" d="M240.865 130.997l4.11-2.373v-5.415l-4.11 2.372"/><path fill="url(#a)" d="M244.25 128.206l-2.66 1.536V126l2.66-1.537v3.743zm1.086-5.624a.72.72 0 0 0-.724 0l-4.11 2.373a.725.725 0 0 0-.36.627v5.414a.725.725 0 0 0 1.085.629l4.11-2.373a.724.724 0 0 0 .36-.626v-5.415c0-.26-.137-.5-.36-.628z"/><path fill="#F6F7FB" d="M233.32 135.353l4.11-2.373v-5.414l-4.11 2.372"/><path fill="url(#a)" d="M236.706 132.562l-2.66 1.537v-3.744l2.66-1.536v3.742zm1.086-5.624a.72.72 0 0 0-.724 0l-4.11 2.373a.727.727 0 0 0-.36.628v5.415a.722.722 0 0 0 1.086.627l4.11-2.373a.725.725 0 0 0 .36-.627v-5.414a.725.725 0 0 0-.36-.628z"/><path fill="#D9F5FD" d="M248.408 196.133l4.11-2.373v-5.414l-4.11 2.373"/><path fill="#0081E6" d="M251.793 193.342l-2.66 1.537v-3.743l2.66-1.537v3.742zm1.086-5.623a.723.723 0 0 0-.725 0l-4.108 2.372a.722.722 0 0 0-.362.627v5.413a.72.72 0 0 0 .722.724c.126 0 .25-.032.363-.097l4.11-2.373a.725.725 0 0 0 .36-.627v-5.414a.722.722 0 0 0-.36-.627z"/><path fill="#D9F5FD" d="M240.865 200.49l4.11-2.373v-5.415l-4.11 2.373"/><path fill="#0081E6" d="M244.25 197.7l-2.66 1.536v-3.743l2.66-1.537v3.743zm1.086-5.625a.72.72 0 0 0-.724 0l-4.11 2.373a.727.727 0 0 0-.36.627v5.415a.722.722 0 0 0 1.085.627l4.11-2.373a.725.725 0 0 0 .36-.627v-5.415a.726.726 0 0 0-.36-.627z"/><path fill="#D9F5FD" d="M233.32 204.846l4.11-2.373v-5.414l-4.11 2.372"/><path fill="#0081E6" d="M236.706 202.055l-2.66 1.537v-3.742l2.66-1.537v3.742zm1.086-5.623a.72.72 0 0 0-.724 0l-4.11 2.373a.725.725 0 0 0-.36.627v5.414a.722.722 0 0 0 1.086.627l4.11-2.373a.725.725 0 0 0 .36-.627v-5.414c0-.26-.137-.5-.36-.628z"/><path fill="#D9F5FD" d="M240.865 186.59l4.11-2.372v-5.414l-4.11 2.373"/><path fill="#0081E6" d="M244.25 183.8l-2.66 1.537v-3.742l2.66-1.537v3.742zm1.086-5.623a.72.72 0 0 0-.724 0l-4.11 2.373a.725.725 0 0 0-.36.627v5.414a.723.723 0 0 0 1.085.628l4.11-2.373a.725.725 0 0 0 .36-.627v-5.414a.722.722 0 0 0-.36-.627z"/><path fill="#D9F5FD" d="M233.32 190.948l4.11-2.373v-5.415l-4.11 2.373"/><path fill="#0081E6" d="M236.706 188.157l-2.66 1.537v-3.743l2.66-1.536v3.743zm1.086-5.624a.72.72 0 0 0-.724 0l-4.11 2.373a.725.725 0 0 0-.36.627v5.415a.726.726 0 0 0 .723.724c.126 0 .25-.033.363-.097l4.11-2.373c.223-.13.36-.37.36-.627v-5.415a.723.723 0 0 0-.36-.627z"/><path fill="#D9F5FD" d="M248.408 182.235l4.11-2.373v-5.415l-4.11 2.373"/><path fill="#0081E6" d="M251.793 179.444l-2.66 1.537v-3.742l2.66-1.537v3.744zm1.086-5.624a.723.723 0 0 0-.725 0l-4.108 2.373a.722.722 0 0 0-.362.627v5.415a.724.724 0 0 0 1.085.626l4.11-2.373c.223-.13.36-.37.36-.628v-5.415a.723.723 0 0 0-.36-.627z"/><path fill="#D9F5FD" d="M240.865 172.693l4.11-2.373v-5.415l-4.11 2.373"/><path fill="#0081E6" d="M244.25 169.902l-2.66 1.536v-3.742l2.66-1.537v3.742zm1.086-5.624a.72.72 0 0 0-.724 0l-4.11 2.373a.727.727 0 0 0-.36.628v5.415a.726.726 0 0 0 .723.724.73.73 0 0 0 .362-.097l4.11-2.373c.223-.13.36-.37.36-.627v-5.415a.722.722 0 0 0-.36-.627z"/><path fill="#D9F5FD" d="M248.408 168.336l4.11-2.373v-5.414l-4.11 2.372"/><path fill="#0081E6" d="M251.793 165.545l-2.66 1.537v-3.742l2.66-1.537v3.742zm1.086-5.623a.723.723 0 0 0-.725 0l-4.108 2.373a.722.722 0 0 0-.362.627v5.414a.72.72 0 0 0 .722.724c.126 0 .25-.032.363-.097l4.11-2.373a.725.725 0 0 0 .36-.627v-5.414c0-.26-.137-.5-.36-.628z"/><path fill="#D9F5FD" d="M233.32 177.05l4.11-2.374v-5.415l-4.11 2.374"/><path fill="#0081E6" d="M236.706 174.258l-2.66 1.537v-3.742l2.66-1.537v3.742zm1.086-5.624a.72.72 0 0 0-.724 0l-4.11 2.373a.727.727 0 0 0-.36.627v5.415a.723.723 0 0 0 1.086.626l4.11-2.373a.725.725 0 0 0 .36-.627v-5.414a.725.725 0 0 0-.36-.628z"/><path fill="#E2EBFB" d="M48.376 233.117l17.204 9.936v-35.4l-17.204-9.934"/><path fill="url(#a)" d="M64.856 241.8L49.1 232.7v-33.727l15.756 9.1v33.726zm1.086-34.773l-17.204-9.936a.73.73 0 0 0-.724 0 .727.727 0 0 0-.362.628v35.4c0 .258.138.497.362.626l17.204 9.936a.72.72 0 0 0 .724 0 .724.724 0 0 0 .362-.627v-35.4a.723.723 0 0 0-.362-.626z"/><path fill="#F8F9FC" d="M48.376 197.72l17.204 9.934 8.602-12.28-17.204-9.937"/><path fill="url(#a)" d="M65.368 206.695l-15.946-9.208 7.768-11.09 15.946 9.208-7.768 11.09zm9.176-11.95L57.34 184.81a.725.725 0 0 0-.955.212l-8.602 12.28a.729.729 0 0 0 .23 1.043l17.204 9.936a.72.72 0 0 0 .955-.21l8.602-12.282a.725.725 0 0 0-.232-1.042z"/><path fill="#FFF" d="M65.58 207.654v35.4l17.204-9.937V197.72l-8.602-2.347"/><path fill="url(#a)" d="M82.06 232.7l-15.756 9.1v-33.917l8.18-11.677 7.576 2.066V232.7zm.915-35.68l-8.602-2.346a.725.725 0 0 0-.784.284l-8.603 12.28a.727.727 0 0 0-.13.416v35.4a.723.723 0 0 0 1.085.626l17.204-9.936a.724.724 0 0 0 .362-.627V197.72a.724.724 0 0 0-.533-.7z"/><path fill="#D9F5FD" d="M56.978 185.437l17.204 9.936 8.602 2.346-17.204-9.937"/><path fill="url(#a)" d="M74.463 194.7l-12.28-7.093 3.116.85 12.28 7.092-3.117-.85zm8.65 2.372l-17.17-9.916a.859.859 0 0 0-.172-.072l-8.602-2.345a.723.723 0 1 0-.552 1.325L73.82 196c.054.03.112.055.172.072l8.602 2.345a.73.73 0 0 0 .19.026h.04a.726.726 0 0 0 .289-1.371z"/><path fill="#D9F5FD" d="M54.966 229.027l4.53 2.617v-7.696l-4.53-2.617"/><path fill="url(#a)" d="M58.773 230.39l-3.084-1.78v-6.025l3.083 1.78v6.025zm1.086-7.07l-4.533-2.616a.724.724 0 0 0-1.085.627v7.697c0 .26.138.498.362.627l4.53 2.617a.717.717 0 0 0 .725.001.72.72 0 0 0 .36-.626v-7.696a.722.722 0 0 0-.36-.627z"/><path fill="#D9F5FD" d="M54.966 217.248l4.53 2.617v-7.696l-4.53-2.618"/><path fill="url(#a)" d="M58.773 218.61l-3.084-1.78v-6.024l3.083 1.78v6.025zm1.086-7.068l-4.533-2.617a.724.724 0 0 0-1.085.627v7.696c0 .26.138.498.362.627l4.53 2.617a.726.726 0 0 0 .725-.001.725.725 0 0 0 .36-.627v-7.696c0-.26-.137-.5-.36-.628z"/><path fill="#D9F5FD" d="M294.562 234.02l17.204 9.935v-35.398l-17.204-9.936"/><path fill="#0081E6" d="M311.042 242.7l-15.756-9.098v-33.727l15.756 9.1V242.7zm1.086-34.77l-17.204-9.936a.724.724 0 0 0-1.086.627v35.4c0 .258.138.497.362.627l17.204 9.935a.72.72 0 0 0 .724-.001.724.724 0 0 0 .362-.627v-35.4a.725.725 0 0 0-.362-.626z"/><path fill="#F6F7FB" d="M294.562 198.62l17.204 9.936 8.602-12.28-17.204-9.936"/><path fill="#0081E6" d="M311.554 207.598l-15.946-9.21 7.768-11.09 15.946 9.21-7.768 11.09zm9.176-11.95l-17.204-9.935a.725.725 0 0 0-.955.21l-8.6 12.282a.719.719 0 0 0 .23 1.042l17.204 9.937a.728.728 0 0 0 .955-.211l8.6-12.28a.727.727 0 0 0-.23-1.045z"/><path fill="#FFF" d="M311.766 208.556v35.4l17.204-9.936v-35.4l-8.602-2.345"/><path fill="url(#a)" d="M328.246 233.602l-15.756 9.1v-33.917l8.18-11.677 7.576 2.066v34.428zm.915-35.68l-8.602-2.345a.724.724 0 0 0-.783.283l-8.602 12.28a.731.731 0 0 0-.13.416v35.4a.723.723 0 0 0 1.085.625l17.204-9.935a.727.727 0 0 0 .362-.627v-35.4a.726.726 0 0 0-.533-.698z"/><path fill="#D9F5FD" d="M303.164 186.34l17.204 9.935 8.602 2.346-17.204-9.935"/><path fill="url(#a)" d="M320.65 195.6l-12.282-7.09 3.117.85 12.28 7.09-3.116-.85zm8.65 2.374l-17.172-9.916a.715.715 0 0 0-.172-.07l-8.602-2.347a.724.724 0 1 0-.552 1.327l17.204 9.935a.682.682 0 0 0 .172.072l8.602 2.346a.73.73 0 0 0 .19.025h.04a.725.725 0 0 0 .289-1.37z"/><path fill="#D9F5FD" d="M301.15 229.93l4.533 2.616v-7.696l-4.532-2.617"/><path fill="#0081E6" d="M304.96 231.292l-3.085-1.78v-6.024l3.084 1.78v6.024zm1.085-7.07l-4.532-2.616a.719.719 0 0 0-.723 0 .727.727 0 0 0-.362.627v7.696c0 .258.138.497.362.626l4.53 2.617a.726.726 0 0 0 1.087-.627v-7.696a.726.726 0 0 0-.362-.627z"/><path fill="#D9F5FD" d="M301.15 218.15l4.533 2.617v-7.696l-4.532-2.616"/><path fill="#0081E6" d="M304.96 219.513l-3.085-1.78v-6.025l3.084 1.78v6.025zm1.085-7.07l-4.532-2.616a.719.719 0 0 0-.723 0 .727.727 0 0 0-.362.627v7.696c0 .26.138.498.362.627l4.53 2.617a.726.726 0 0 0 1.087-.626v-7.696a.725.725 0 0 0-.362-.626z"/><path fill="#D9F5FD" d="M283.962 176.368l13.902 8.03 13.902-8.03-13.902-8.028"/><path fill="#0081E6" d="M297.864 183.56l-12.454-7.192 12.454-7.192 12.454 7.192-12.454 7.193zm14.264-7.82l-13.902-8.027a.72.72 0 0 0-.724 0L283.6 175.74a.727.727 0 0 0 0 1.255l13.902 8.03a.73.73 0 0 0 .724 0l13.902-8.03a.726.726 0 0 0 0-1.253z"/><path fill="#CFDEF8" d="M283.962 243.955l13.902 8.03v-67.588l-13.902-8.03"/><path fill="url(#a)" d="M297.14 250.73l-12.454-7.193v-65.915l12.454 7.193v65.915zm1.086-66.96l-13.902-8.03a.73.73 0 0 0-.724 0 .727.727 0 0 0-.362.628v67.587c0 .26.138.498.362.627l13.902 8.03a.73.73 0 0 0 .724-.001.72.72 0 0 0 .362-.626v-67.587a.722.722 0 0 0-.362-.627z"/><path fill="#FFF" d="M297.864 251.984l13.902-8.03V176.37l-13.902 8.03"/><path fill="url(#a)" d="M311.042 243.537l-12.454 7.193v-65.915l12.454-7.193v65.915zm1.086-67.796a.73.73 0 0 0-.724 0l-13.902 8.03a.724.724 0 0 0-.362.627v67.587a.722.722 0 0 0 .724.725.72.72 0 0 0 .362-.097l13.902-8.028a.724.724 0 0 0 .362-.627v-67.587a.726.726 0 0 0-.362-.627z"/><path fill="#F6F7FB" d="M283.962 176.368l13.902 8.03V159.95"/><path fill="url(#a)" d="M297.14 183.143l-12.066-6.968 12.066-14.25v21.218zm.973-23.872a.72.72 0 0 0-.8.213L283.408 175.9a.715.715 0 0 0-.16.592.715.715 0 0 0 .35.503l13.902 8.03a.73.73 0 0 0 .724 0 .724.724 0 0 0 .362-.627V159.95a.726.726 0 0 0-.475-.68z"/><path fill="#FFF" d="M297.864 184.397l13.902-8.03-13.902-16.416"/><path fill="url(#a)" d="M298.588 183.143v-21.217l12.065 14.25-12.065 6.967zm-.172-23.66a.725.725 0 0 0-1.276.468v24.447a.722.722 0 0 0 .724.724c.125 0 .25-.03.362-.096l13.902-8.03a.714.714 0 0 0 .35-.502.716.716 0 0 0-.16-.592l-13.902-16.417z"/><path fill="#D9F5FD" d="M303.285 192.685l3.06-1.767v-5.195l-3.06 1.767"/><path fill="url(#a)" d="M305.62 190.5l-1.61.93v-3.522l1.61-.93v3.522zm1.086-5.404a.719.719 0 0 0-.723 0l-3.06 1.767a.725.725 0 0 0-.36.627v5.195a.722.722 0 0 0 1.084.626l3.06-1.767a.725.725 0 0 0 .36-.627v-5.195a.722.722 0 0 0-.36-.627z"/><path fill="#D9F5FD" d="M303.285 205.233l3.06-1.767v-5.195l-3.06 1.767"/><path fill="url(#a)" d="M305.62 203.048l-1.61.93v-3.522l1.61-.93v3.522zm1.086-5.404a.719.719 0 0 0-.723 0l-3.06 1.766a.727.727 0 0 0-.36.627v5.196a.722.722 0 0 0 1.084.627l3.06-1.767a.725.725 0 0 0 .36-.627v-5.195a.723.723 0 0 0-.36-.626z"/><path fill="#D9F5FD" d="M303.285 217.78l3.06-1.766v-5.196l-3.06 1.767"/><path fill="url(#a)" d="M305.62 215.596l-1.61.93v-3.523l1.61-.93v3.523zm1.086-5.405a.729.729 0 0 0-.723 0l-3.06 1.768a.725.725 0 0 0-.36.627v5.195a.722.722 0 0 0 1.084.627l3.06-1.766a.724.724 0 0 0 .36-.626v-5.196a.726.726 0 0 0-.36-.627z"/><path fill="#CFDEF8" d="M74.426 150.182v97.927l26.57 15.344 26.57-15.345V150.18l-26.57-15.344"/><path fill="url(#a)" d="M126.843 247.69l-25.847 14.928L75.15 247.69V150.6l25.846-14.926 25.847 14.926v97.09zm1.085-98.135l-26.57-15.344a.72.72 0 0 0-.724 0l-26.57 15.345a.727.727 0 0 0-.362.627v97.927c0 .258.138.497.362.626l26.57 15.345a.721.721 0 0 0 .724.001l26.57-15.344a.724.724 0 0 0 .362-.627V150.18a.726.726 0 0 0-.362-.627z"/><path fill="#F6F7FB" d="M100.996 134.838v128.616l26.57-15.345 11.045-6.38 15.527-8.966v-97.926l-26.57-15.345"/><path fill="url(#a)" d="M153.413 232.346L101.72 262.2V135.256l25.846-14.927 25.847 14.926v97.09zm1.086-98.135l-26.572-15.344a.72.72 0 0 0-.724 0l-26.57 15.345a.727.727 0 0 0-.362.628v128.616a.726.726 0 0 0 1.086.628l53.14-30.69a.72.72 0 0 0 .363-.626v-97.926a.722.722 0 0 0-.36-.627z"/><path fill="#D9F5FD" d="M127.566 194.478l26.57-15.345v-5.52l-26.57 15.345"/><path fill="#0081E6" d="M153.413 178.715l-25.123 14.51v-3.848l25.123-14.51v3.848zm1.086-5.728a.723.723 0 0 0-.725 0l-26.57 15.344a.726.726 0 0 0-.362.63v5.518a.722.722 0 0 0 1.085.627l26.57-15.345a.723.723 0 0 0 .363-.627v-5.52a.723.723 0 0 0-.36-.626z"/><path fill="#D9F5FD" d="M127.566 180.31l26.57-15.345v-5.52l-26.57 15.345"/><path fill="#0081E6" d="M153.413 164.547l-25.123 14.51v-3.85l25.123-14.507v3.847zm1.086-5.728a.723.723 0 0 0-.725 0l-26.57 15.343a.725.725 0 0 0-.362.627v5.52a.722.722 0 0 0 1.085.627l26.57-15.345a.723.723 0 0 0 .363-.627v-5.52a.723.723 0 0 0-.36-.626z"/><path fill="#D9F5FD" d="M127.566 166.142l26.57-15.345v-5.52l-26.57 15.345"/><path fill="#0081E6" d="M153.413 150.38l-25.123 14.508v-3.848l25.123-14.508v3.847zm1.086-5.73a.723.723 0 0 0-.725 0l-26.57 15.345a.725.725 0 0 0-.362.627v5.52a.722.722 0 0 0 1.085.626l26.57-15.346a.723.723 0 0 0 .363-.627v-5.52a.723.723 0 0 0-.36-.626z"/><path fill="#D9F5FD" d="M127.566 236.982l26.57-15.345v-5.52l-26.57 15.346"/><path fill="#0081E6" d="M153.413 221.22l-25.123 14.508v-3.847l25.123-14.508v3.847zm1.086-5.73a.723.723 0 0 0-.725 0l-26.57 15.345a.725.725 0 0 0-.362.628v5.52a.723.723 0 0 0 1.085.625l26.57-15.346a.723.723 0 0 0 .363-.627v-5.52a.723.723 0 0 0-.36-.626z"/><path fill="#D9F5FD" d="M127.566 222.814l26.57-15.345v-5.52l-26.57 15.345"/><path fill="#0081E6" d="M153.413 207.05l-25.123 14.51v-3.847l25.123-14.51v3.848zm1.086-5.727a.723.723 0 0 0-.725 0l-26.57 15.344a.725.725 0 0 0-.362.628v5.52a.723.723 0 0 0 1.085.627l26.57-15.344a.723.723 0 0 0 .363-.627v-5.52a.722.722 0 0 0-.36-.627z"/><path fill="#D9F5FD" d="M127.566 208.646l26.57-15.345v-5.518l-26.57 15.344"/><path fill="#0081E6" d="M153.413 192.883l-25.123 14.51v-3.848l25.123-14.51v3.848zm1.086-5.728a.723.723 0 0 0-.725 0l-26.57 15.344a.722.722 0 0 0-.362.627v5.52a.723.723 0 0 0 1.085.626l26.57-15.345a.723.723 0 0 0 .363-.627v-5.518a.722.722 0 0 0-.36-.627z"/><path fill="#D9F5FD" d="M146.447 206.39l4.19-2.418v-8.65l-4.19 2.42"/><path fill="#0081E6" d="M149.912 203.554l-2.74 1.583v-6.977l2.74-1.583v6.977zm1.085-8.858a.719.719 0 0 0-.723 0l-4.19 2.42a.72.72 0 0 0-.36.626v8.65a.725.725 0 0 0 .723.723.73.73 0 0 0 .362-.097l4.187-2.42a.724.724 0 0 0 .362-.626v-8.65a.728.728 0 0 0-.363-.626z"/><path fill="#D9F5FD" d="M146.447 178.055l4.19-2.42v-8.648l-4.19 2.42"/><path fill="#0081E6" d="M149.912 175.218l-2.74 1.583v-6.976l2.74-1.583v6.978zm1.085-8.858a.719.719 0 0 0-.723 0l-4.19 2.42a.72.72 0 0 0-.36.626v8.65a.725.725 0 0 0 .723.723c.125 0 .25-.034.362-.098l4.187-2.42a.722.722 0 0 0 .362-.626v-8.65a.726.726 0 0 0-.363-.626z"/><path fill="#D9F5FD" d="M146.447 192.223l4.19-2.42v-8.648l-4.19 2.42"/><path fill="#0081E6" d="M149.912 189.386l-2.74 1.583v-6.978l2.74-1.583v6.976zm1.085-8.858a.719.719 0 0 0-.723 0l-4.19 2.42a.72.72 0 0 0-.36.626v8.65a.725.725 0 0 0 .723.723.73.73 0 0 0 .362-.097l4.187-2.42a.723.723 0 0 0 .362-.626v-8.65a.727.727 0 0 0-.363-.626z"/><path fill="#D9F5FD" d="M131.068 172.768l4.188-2.42v-8.647l-4.188 2.42"/><path fill="#0081E6" d="M134.532 169.93l-2.74 1.584v-6.976l2.74-1.583v6.976zm1.086-8.856a.72.72 0 0 0-.724 0l-4.188 2.42a.72.72 0 0 0-.362.626v8.648a.722.722 0 0 0 1.086.627l4.188-2.418a.727.727 0 0 0 .362-.628v-8.65a.723.723 0 0 0-.362-.626z"/><path fill="#D9F5FD" d="M131.068 201.105l4.188-2.42v-8.648l-4.188 2.42"/><path fill="#0081E6" d="M134.532 198.268l-2.74 1.582v-6.976l2.74-1.583v6.978zm1.086-8.858a.72.72 0 0 0-.724 0l-4.188 2.42a.72.72 0 0 0-.362.626v8.65a.725.725 0 0 0 1.086.625l4.188-2.42a.724.724 0 0 0 .362-.626v-8.65a.723.723 0 0 0-.362-.626z"/><path fill="#D9F5FD" d="M146.447 163.887l4.19-2.42v-8.648l-4.19 2.418"/><path fill="#0081E6" d="M149.912 161.05l-2.74 1.583v-6.977l2.74-1.583v6.977zm1.085-8.858a.719.719 0 0 0-.723 0l-4.19 2.42a.72.72 0 0 0-.36.626v8.65a.725.725 0 0 0 1.085.627l4.187-2.42a.724.724 0 0 0 .362-.626v-8.65a.726.726 0 0 0-.363-.626z"/><path fill="#D9F5FD" d="M146.447 220.56l4.19-2.42v-8.65l-4.19 2.42"/><path fill="#0081E6" d="M149.912 217.722l-2.74 1.583v-6.977l2.74-1.583v6.977zm1.085-8.858a.719.719 0 0 0-.723 0l-4.19 2.42a.72.72 0 0 0-.36.626v8.65a.725.725 0 0 0 .723.723.72.72 0 0 0 .362-.097l4.187-2.42a.72.72 0 0 0 .362-.626v-8.65a.728.728 0 0 0-.363-.626z"/><path fill="#D9F5FD" d="M131.068 229.44l4.188-2.418v-8.65l-4.188 2.42"/><path fill="#0081E6" d="M134.532 226.604l-2.74 1.583v-6.977l2.74-1.583v6.977zm1.086-8.858a.72.72 0 0 0-.724 0l-4.188 2.42a.72.72 0 0 0-.362.626v8.65a.725.725 0 0 0 1.086.626l4.188-2.42a.724.724 0 0 0 .362-.626v-8.65a.723.723 0 0 0-.362-.626z"/><path fill="#D9F5FD" d="M138.757 225l4.19-2.42v-8.648l-4.19 2.42"/><path fill="#0081E6" d="M142.222 222.163l-2.74 1.583v-6.977l2.74-1.584v6.977zm1.086-8.858a.72.72 0 0 0-.724 0l-4.19 2.42a.72.72 0 0 0-.36.626V225a.726.726 0 0 0 .723.724.73.73 0 0 0 .362-.097l4.188-2.42a.724.724 0 0 0 .362-.626v-8.648a.722.722 0 0 0-.362-.627z"/><path fill="#D9F5FD" d="M138.757 196.664l4.19-2.42v-8.648l-4.19 2.42"/><path fill="#0081E6" d="M142.222 193.827l-2.74 1.583v-6.977l2.74-1.583v6.977zm1.086-8.858a.72.72 0 0 0-.724 0l-4.19 2.418a.725.725 0 0 0-.36.627v8.65a.725.725 0 0 0 1.085.627l4.188-2.418a.727.727 0 0 0 .362-.627v-8.65a.723.723 0 0 0-.362-.626z"/><path fill="#D9F5FD" d="M138.757 182.496l4.19-2.42v-8.648l-4.19 2.42"/><path fill="#0081E6" d="M142.222 179.66l-2.74 1.582v-6.977l2.74-1.583v6.977zm1.086-8.86a.73.73 0 0 0-.724 0l-4.19 2.42a.725.725 0 0 0-.36.627v8.65a.725.725 0 0 0 .723.723.73.73 0 0 0 .362-.097l4.188-2.42a.724.724 0 0 0 .362-.626v-8.65a.723.723 0 0 0-.362-.626z"/><path fill="#D9F5FD" d="M131.068 215.273l4.188-2.42v-8.648l-4.188 2.42"/><path fill="#0081E6" d="M134.532 212.436l-2.74 1.582v-6.976l2.74-1.583v6.976zm1.086-8.858a.72.72 0 0 0-.724 0l-4.188 2.42a.72.72 0 0 0-.362.626v8.65a.725.725 0 0 0 1.086.626l4.188-2.42a.724.724 0 0 0 .362-.626v-8.65a.723.723 0 0 0-.362-.626z"/><path fill="#D9F5FD" d="M138.757 210.832l4.19-2.42v-8.648l-4.19 2.42"/><path fill="#0081E6" d="M142.222 207.995l-2.74 1.583V202.6l2.74-1.582v6.977zm1.086-8.858a.72.72 0 0 0-.724 0l-4.19 2.42a.72.72 0 0 0-.36.626v8.65c0 .257.137.496.36.626a.73.73 0 0 0 .725-.001l4.188-2.42a.727.727 0 0 0 .362-.627v-8.65a.724.724 0 0 0-.362-.626z"/><path fill="#D9F5FD" d="M138.757 168.328l4.19-2.42v-8.648l-4.19 2.42"/><path fill="#0081E6" d="M142.222 165.49l-2.74 1.583v-6.976l2.74-1.583v6.977zm1.086-8.857a.72.72 0 0 0-.724 0l-4.19 2.42a.72.72 0 0 0-.36.626v8.648a.726.726 0 0 0 .723.724.73.73 0 0 0 .362-.097l4.188-2.42a.724.724 0 0 0 .362-.626v-8.65a.722.722 0 0 0-.362-.627z"/><path fill="#D9F5FD" d="M131.068 186.936l4.188-2.418v-8.65l-4.188 2.42"/><path fill="#0081E6" d="M134.532 184.1l-2.74 1.582v-6.976l2.74-1.583v6.977zm1.086-8.858a.72.72 0 0 0-.724 0l-4.188 2.42a.72.72 0 0 0-.362.626v8.65a.725.725 0 0 0 1.086.627l4.188-2.42a.724.724 0 0 0 .362-.626v-8.65a.723.723 0 0 0-.362-.626z"/><path fill="#D9F5FD" d="M131.068 192.456l4.188-2.42v-5.518l-4.188 2.418"/><path fill="#0081E6" d="M134.532 189.62l-2.74 1.582v-3.847l2.74-1.583v3.847zm1.086-5.73a.72.72 0 0 0-.724 0l-4.188 2.42a.724.724 0 0 0-.362.626v5.52a.722.722 0 0 0 1.086.627l4.188-2.42a.72.72 0 0 0 .362-.626v-5.52a.723.723 0 0 0-.362-.626z"/><path fill="#D9F5FD" d="M146.447 183.574l4.19-2.42v-5.518l-4.19 2.42"/><path fill="#0081E6" d="M149.912 180.737l-2.74 1.583v-3.847l2.74-1.583v3.847zm1.085-5.728a.719.719 0 0 0-.723 0l-4.19 2.418a.725.725 0 0 0-.36.627v5.52a.723.723 0 0 0 1.085.627l4.187-2.418a.724.724 0 0 0 .362-.627v-5.52a.726.726 0 0 0-.363-.626z"/><path fill="#D9F5FD" d="M138.757 188.015l4.19-2.42v-5.518l-4.19 2.42"/><path fill="#0081E6" d="M142.222 185.178l-2.74 1.583v-3.846l2.74-1.583v3.848zm1.086-5.728a.72.72 0 0 0-.724 0l-4.19 2.42a.72.72 0 0 0-.36.626v5.52a.723.723 0 0 0 1.085.625l4.188-2.42a.72.72 0 0 0 .362-.626v-5.52a.723.723 0 0 0-.362-.626z"/><path fill="#D9F5FD" d="M131.068 178.288l4.188-2.42v-5.52l-4.188 2.42"/><path fill="#0081E6" d="M134.532 175.45l-2.74 1.584v-3.848l2.74-1.582v3.847zm1.086-5.728a.72.72 0 0 0-.724 0l-4.188 2.42a.724.724 0 0 0-.362.626v5.52a.722.722 0 0 0 1.086.627l4.188-2.42a.72.72 0 0 0 .362-.626v-5.52a.725.725 0 0 0-.362-.628z"/><path fill="#D9F5FD" d="M146.447 169.406l4.19-2.42v-5.518l-4.19 2.42"/><path fill="#0081E6" d="M149.912 166.57l-2.74 1.582v-3.847l2.74-1.583v3.847zm1.085-5.73a.719.719 0 0 0-.723 0l-4.19 2.42a.725.725 0 0 0-.36.627v5.52a.723.723 0 0 0 1.085.626l4.187-2.42a.72.72 0 0 0 .362-.626v-5.52a.726.726 0 0 0-.363-.626z"/><path fill="#D9F5FD" d="M138.757 173.847l4.19-2.42v-5.518l-4.19 2.418"/><path fill="#0081E6" d="M142.222 171.01l-2.74 1.583v-3.847l2.74-1.583v3.847zm1.086-5.728a.72.72 0 0 0-.724 0l-4.19 2.42a.72.72 0 0 0-.36.626v5.52a.723.723 0 0 0 1.085.627l4.188-2.42a.72.72 0 0 0 .362-.626v-5.52a.723.723 0 0 0-.362-.626z"/><path fill="#D9F5FD" d="M146.447 155.238l4.19-2.42V147.3l-4.19 2.42"/><path fill="#0081E6" d="M149.912 152.4l-2.74 1.584v-3.847l2.74-1.583v3.847zm1.085-5.727a.719.719 0 0 0-.723 0l-4.19 2.42a.72.72 0 0 0-.36.626v5.518a.722.722 0 0 0 1.085.627l4.187-2.42a.72.72 0 0 0 .362-.626v-5.52c0-.26-.14-.498-.363-.627z"/><path fill="#D9F5FD" d="M138.757 159.68l4.19-2.42v-5.52l-4.19 2.42"/><path fill="#0081E6" d="M142.222 156.842l-2.74 1.583v-3.847l2.74-1.583v3.847zm1.086-5.728a.72.72 0 0 0-.724 0l-4.19 2.418a.727.727 0 0 0-.36.628v5.52a.723.723 0 0 0 1.085.626l4.188-2.42a.72.72 0 0 0 .362-.626v-5.52a.723.723 0 0 0-.362-.626z"/><path fill="#D9F5FD" d="M131.068 164.12l4.188-2.42v-5.52l-4.188 2.42"/><path fill="#0081E6" d="M134.532 161.283l-2.74 1.583v-3.848l2.74-1.582v3.847zm1.086-5.73a.73.73 0 0 0-.724 0l-4.188 2.42a.727.727 0 0 0-.362.627v5.52a.722.722 0 0 0 1.086.627l4.188-2.42a.72.72 0 0 0 .362-.626v-5.52a.725.725 0 0 0-.362-.626z"/><path fill="#D9F5FD" d="M146.447 226.078l4.19-2.42v-5.518l-4.19 2.42"/><path fill="#0081E6" d="M149.912 223.24l-2.74 1.584v-3.847l2.74-1.583v3.847zm1.085-5.727a.719.719 0 0 0-.723 0l-4.19 2.42a.72.72 0 0 0-.36.626v5.518a.722.722 0 0 0 1.085.627l4.187-2.42a.72.72 0 0 0 .362-.626v-5.52c0-.26-.14-.498-.363-.627z"/><path fill="#D9F5FD" d="M138.757 230.52l4.19-2.42v-5.52l-4.19 2.42"/><path fill="#0081E6" d="M142.222 227.682l-2.74 1.583v-3.847l2.74-1.583v3.847zm1.086-5.728a.72.72 0 0 0-.724 0l-4.19 2.42a.72.72 0 0 0-.36.626v5.52a.723.723 0 0 0 1.085.626l4.188-2.42a.72.72 0 0 0 .362-.626v-5.52a.723.723 0 0 0-.362-.626z"/><path fill="#D9F5FD" d="M131.068 234.96l4.188-2.42v-5.518l-4.188 2.42"/><path fill="#0081E6" d="M134.532 232.123l-2.74 1.583v-3.847l2.74-1.584v3.847zm1.086-5.728a.72.72 0 0 0-.724 0l-4.188 2.42a.72.72 0 0 0-.362.626v5.52a.722.722 0 0 0 1.086.627l4.188-2.42a.72.72 0 0 0 .362-.626v-5.518a.722.722 0 0 0-.362-.627z"/><path fill="#D9F5FD" d="M138.757 216.35l4.19-2.418v-5.52l-4.19 2.42"/><path fill="#0081E6" d="M142.222 213.514l-2.74 1.583v-3.847l2.74-1.583v3.847zm1.086-5.728a.72.72 0 0 0-.724 0l-4.19 2.42a.72.72 0 0 0-.36.626v5.52a.723.723 0 0 0 1.085.626l4.188-2.42a.72.72 0 0 0 .362-.626v-5.52a.723.723 0 0 0-.362-.626z"/><path fill="#D9F5FD" d="M131.068 220.792l4.188-2.42v-5.518l-4.188 2.42"/><path fill="#0081E6" d="M134.532 217.955l-2.74 1.583v-3.847l2.74-1.582v3.847zm1.086-5.728a.72.72 0 0 0-.724 0l-4.188 2.42a.72.72 0 0 0-.362.626v5.52a.723.723 0 0 0 1.086.625l4.188-2.42a.724.724 0 0 0 .362-.627v-5.52a.723.723 0 0 0-.362-.626z"/><path fill="#D9F5FD" d="M146.447 211.91l4.19-2.42v-5.518l-4.19 2.42"/><path fill="#0081E6" d="M149.912 209.073l-2.74 1.583v-3.847l2.74-1.584v3.847zm1.085-5.728a.719.719 0 0 0-.723 0l-4.19 2.42a.72.72 0 0 0-.36.626v5.52a.722.722 0 0 0 1.085.627l4.187-2.42a.72.72 0 0 0 .362-.626v-5.518c0-.26-.14-.498-.363-.627z"/><path fill="#D9F5FD" d="M138.757 202.183l4.19-2.42v-5.518l-4.19 2.42"/><path fill="#0081E6" d="M142.222 199.346l-2.74 1.583v-3.848l2.74-1.583v3.846zm1.086-5.728a.72.72 0 0 0-.724 0l-4.19 2.42a.72.72 0 0 0-.36.626v5.52a.723.723 0 0 0 1.085.626l4.188-2.42a.72.72 0 0 0 .362-.626v-5.52a.723.723 0 0 0-.362-.626z"/><path fill="#D9F5FD" d="M146.447 197.742l4.19-2.42v-5.518l-4.19 2.42"/><path fill="#0081E6" d="M149.912 194.905l-2.74 1.583v-3.847l2.74-1.582v3.847zm1.085-5.728a.719.719 0 0 0-.723 0l-4.19 2.42a.72.72 0 0 0-.36.626v5.52a.723.723 0 0 0 1.085.625l4.187-2.42a.724.724 0 0 0 .362-.627v-5.52a.726.726 0 0 0-.363-.626z"/><path fill="#D9F5FD" d="M131.068 206.624l4.188-2.42v-5.518l-4.188 2.418"/><path fill="#0081E6" d="M134.532 203.787l-2.74 1.583v-3.847l2.74-1.583v3.847zm1.086-5.73a.73.73 0 0 0-.724 0l-4.188 2.42a.727.727 0 0 0-.362.628v5.52a.723.723 0 0 0 1.086.627l4.188-2.418a.724.724 0 0 0 .362-.627v-5.52a.726.726 0 0 0-.362-.627z"/><path fill="url(#d)" d="M100.996 134.838l-26.57 15.344 26.57 15.345 26.57-15.345 26.57-15.344-26.57-15.345"/><path fill="url(#e)" d="M100.996 164.69l-25.123-14.508 51.693-29.853 25.123 14.508-51.694 29.853zm53.503-30.48l-26.572-15.344a.72.72 0 0 0-.724 0l-53.14 30.69a.724.724 0 0 0 0 1.253l26.57 15.344a.72.72 0 0 0 .724.001l53.14-30.69a.723.723 0 0 0 .003-1.253z"/><path fill="#F8F9FC" d="M74.426 188.958v5.52l26.57 15.345 26.57-15.345v-5.52l-26.57 15.345"/><path fill="url(#a)" d="M126.843 194.06l-25.847 14.927L75.15 194.06v-3.847l25.484 14.717c.224.13.5.13.724 0l25.485-14.717v3.847zm1.085-5.73a.73.73 0 0 0-.724 0l-26.208 15.137-26.208-15.136a.73.73 0 0 0-.724 0 .727.727 0 0 0-.362.628v5.52c0 .26.138.498.362.627l26.57 15.345a.73.73 0 0 0 .724 0l26.57-15.345a.724.724 0 0 0 .362-.627v-5.52a.726.726 0 0 0-.362-.627z"/><path fill="#F7F8FB" d="M74.426 174.79v5.52l26.57 15.345 26.57-15.345v-5.52l-26.57 15.345"/><path fill="url(#a)" d="M126.843 179.892l-25.847 14.926-25.846-14.926v-3.848l25.484 14.718c.224.13.5.13.724 0l25.485-14.718v3.848zm1.085-5.73a.73.73 0 0 0-.724 0L100.996 189.3l-26.208-15.137a.72.72 0 0 0-.724 0 .727.727 0 0 0-.362.627v5.52c0 .26.138.498.362.627l26.57 15.345c.112.064.237.097.362.097s.25-.034.362-.098l26.57-15.345a.724.724 0 0 0 .362-.627v-5.52a.726.726 0 0 0-.362-.627z"/><path fill="#F8F9FC" d="M74.426 160.622v5.52l26.57 15.345 26.57-15.345v-5.52l-26.57 15.345"/><path fill="url(#a)" d="M126.843 165.724l-25.847 14.927-25.846-14.926v-3.848l25.484 14.718c.224.13.5.13.724 0l25.485-14.718v3.848zm1.085-5.73a.73.73 0 0 0-.724 0l-26.208 15.137-26.208-15.135a.72.72 0 0 0-.724 0 .727.727 0 0 0-.362.627v5.52c0 .258.138.498.362.627l26.57 15.344a.73.73 0 0 0 .724.001l26.57-15.345a.727.727 0 0 0 .362-.628v-5.52a.726.726 0 0 0-.362-.627z"/><path fill="#F7F8FB" d="M74.426 231.463v5.52l26.57 15.344 26.57-15.345v-5.52l-26.57 15.345"/><path fill="url(#a)" d="M126.843 236.564l-25.847 14.927-25.846-14.926v-3.847l25.484 14.717c.224.13.5.13.724 0l25.485-14.717v3.847zm1.085-5.728a.72.72 0 0 0-.724 0l-26.208 15.135-26.208-15.134a.724.724 0 0 0-1.086.627v5.52c0 .258.138.497.362.626l26.57 15.344a.73.73 0 0 0 .724.001l26.57-15.345a.727.727 0 0 0 .362-.628v-5.52a.723.723 0 0 0-.362-.626z"/><path fill="#F8F9FC" d="M74.426 217.295v5.52l26.57 15.344 26.57-15.346v-5.52l-26.57 15.345"/><path fill="url(#a)" d="M126.843 222.396l-25.847 14.927-25.846-14.927v-3.847l25.484 14.716c.224.13.5.13.724 0l25.485-14.717v3.846zm1.085-5.73a.73.73 0 0 0-.724 0l-26.208 15.137-26.208-15.136a.72.72 0 0 0-.724 0 .727.727 0 0 0-.362.628v5.52c0 .258.138.497.362.626l26.57 15.346a.73.73 0 0 0 .724 0l26.57-15.345a.72.72 0 0 0 .362-.626v-5.52a.726.726 0 0 0-.362-.627z"/><path fill="#F7F8FB" d="M74.426 203.127v5.52l26.57 15.344 26.57-15.344v-5.52l-26.57 15.345"/><path fill="url(#a)" d="M126.843 208.228l-25.847 14.927-25.846-14.927v-3.847l25.484 14.718c.224.13.5.13.724 0l25.485-14.717v3.848zm1.085-5.73a.73.73 0 0 0-.724 0l-26.208 15.137L74.788 202.5a.724.724 0 0 0-1.086.626v5.52c0 .26.138.498.362.627l26.57 15.345a.73.73 0 0 0 .724 0l26.57-15.345a.724.724 0 0 0 .362-.627v-5.52a.726.726 0 0 0-.362-.627z"/><path fill="#D9F5FD" d="M119.877 221.735l4.188-2.42v-8.647l-4.188 2.42"/><path fill="#0081E6" d="M123.34 218.9l-2.74 1.58v-6.975l2.74-1.583v6.977zm1.087-8.86a.73.73 0 0 0-.724 0l-4.188 2.42a.724.724 0 0 0-.362.627v8.648a.725.725 0 0 0 1.086.628l4.187-2.42a.724.724 0 0 0 .362-.626v-8.65a.726.726 0 0 0-.363-.626z"/><path fill="#D9F5FD" d="M119.877 193.4l4.188-2.42v-8.648l-4.188 2.42"/><path fill="url(#a)" d="M123.34 190.562l-2.74 1.583v-6.976l2.74-1.584v6.976zm1.087-8.857a.72.72 0 0 0-.724 0l-4.188 2.42a.72.72 0 0 0-.362.626v8.65a.723.723 0 0 0 1.086.626l4.187-2.418a.727.727 0 0 0 .362-.628v-8.648c0-.26-.14-.498-.363-.627z"/><path fill="#D9F5FD" d="M119.877 207.567l4.188-2.42V196.5l-4.188 2.42"/><path fill="#0081E6" d="M123.34 204.73l-2.74 1.583v-6.976l2.74-1.583v6.976zm1.087-8.857a.72.72 0 0 0-.724 0l-4.188 2.42a.72.72 0 0 0-.362.626v8.647a.722.722 0 0 0 .724.724c.125 0 .25-.03.362-.096l4.187-2.42a.72.72 0 0 0 .362-.626V196.5c0-.26-.14-.498-.363-.627z"/><path fill="#F7F8FB" d="M104.497 188.113l4.19-2.42v-8.647l-4.19 2.42"/><path fill="url(#a)" d="M107.962 185.276l-2.74 1.583v-6.977l2.74-1.583v6.976zm1.086-8.857a.72.72 0 0 0-.724 0l-4.19 2.418a.725.725 0 0 0-.36.627v8.648a.722.722 0 0 0 1.085.627l4.188-2.42a.72.72 0 0 0 .362-.626v-8.648a.722.722 0 0 0-.362-.627z"/><path fill="#F7F8FB" d="M104.497 216.45l4.19-2.42v-8.648l-4.19 2.42"/><path fill="url(#a)" d="M107.962 213.612l-2.74 1.583v-6.976l2.74-1.584v6.976zm1.086-8.857a.72.72 0 0 0-.724 0l-4.19 2.42a.72.72 0 0 0-.36.626v8.65a.723.723 0 0 0 1.085.626l4.188-2.42a.72.72 0 0 0 .362-.626v-8.648a.722.722 0 0 0-.362-.627z"/><path fill="#D9F5FD" d="M119.877 179.23l4.188-2.418v-8.648l-4.188 2.42"/><path fill="url(#a)" d="M123.34 176.394l-2.74 1.583V171l2.74-1.582v6.976zm1.087-8.857a.72.72 0 0 0-.724 0l-4.188 2.42a.72.72 0 0 0-.362.626v8.648a.722.722 0 0 0 1.086.628l4.187-2.42a.72.72 0 0 0 .362-.626v-8.648c0-.26-.14-.498-.363-.627z"/><path fill="#D9F5FD" d="M119.877 235.903l4.188-2.418v-8.65l-4.188 2.42"/><path fill="#0081E6" d="M123.34 233.066l-2.74 1.583v-6.977l2.74-1.583v6.976zm1.087-8.857a.72.72 0 0 0-.724 0l-4.188 2.418a.724.724 0 0 0-.362.627v8.648a.725.725 0 0 0 1.086.629l4.187-2.418a.727.727 0 0 0 .362-.627v-8.65a.726.726 0 0 0-.363-.626z"/><path fill="#F7F8FB" d="M104.497 244.785l4.19-2.42v-8.647l-4.19 2.42"/><path fill="url(#a)" d="M107.962 241.948l-2.74 1.583v-6.975l2.74-1.583v6.976zm1.086-8.857a.72.72 0 0 0-.724 0l-4.19 2.42a.725.725 0 0 0-.36.627v8.648a.722.722 0 0 0 1.085.626l4.188-2.42a.72.72 0 0 0 .362-.626v-8.648a.722.722 0 0 0-.362-.627z"/><path fill="#D9F5FD" d="M112.187 240.344l4.188-2.42v-8.647l-4.188 2.42"/><path fill="url(#a)" d="M115.652 237.507l-2.74 1.583v-6.976l2.74-1.583v6.977zm1.085-8.857a.719.719 0 0 0-.723 0l-4.19 2.42a.72.72 0 0 0-.36.626v8.648a.722.722 0 0 0 1.085.628l4.187-2.418a.724.724 0 0 0 .362-.627v-8.648c0-.26-.14-.498-.363-.627z"/><path fill="#D9F5FD" d="M112.187 212.008l4.188-2.42v-8.647l-4.188 2.42"/><path fill="url(#a)" d="M115.652 209.17l-2.74 1.584v-6.976l2.74-1.583v6.976zm1.085-8.856a.719.719 0 0 0-.723 0l-4.19 2.42a.72.72 0 0 0-.36.626v8.648a.722.722 0 0 0 1.085.627l4.187-2.42a.72.72 0 0 0 .362-.626v-8.65a.726.726 0 0 0-.363-.626z"/><path fill="#F8F9FC" d="M112.187 197.84l4.188-2.42v-8.647l-4.188 2.42"/><path fill="url(#a)" d="M115.652 195.003l-2.74 1.583v-6.976l2.74-1.583v6.976zm1.085-8.857a.719.719 0 0 0-.723 0l-4.19 2.42a.72.72 0 0 0-.36.626v8.648a.722.722 0 0 0 1.085.627l4.187-2.42a.72.72 0 0 0 .362-.626v-8.647c0-.26-.14-.498-.363-.627z"/><path fill="#F7F8FB" d="M104.497 230.617l4.19-2.42v-8.647l-4.19 2.42"/><path fill="url(#a)" d="M107.962 227.78l-2.74 1.583v-6.976l2.74-1.583v6.976zm1.086-8.857a.72.72 0 0 0-.724 0l-4.19 2.42a.72.72 0 0 0-.36.626v8.647a.722.722 0 0 0 1.085.628l4.188-2.42a.72.72 0 0 0 .362-.626v-8.648a.722.722 0 0 0-.362-.627z"/><path fill="#D9F5FD" d="M112.187 226.176l4.188-2.42v-8.647l-4.188 2.418"/><path fill="url(#a)" d="M115.652 223.34l-2.74 1.582v-6.976l2.74-1.583v6.976zm1.085-8.858a.719.719 0 0 0-.723 0l-4.19 2.42a.72.72 0 0 0-.36.626v8.648a.722.722 0 0 0 1.085.627l4.187-2.42a.72.72 0 0 0 .362-.626v-8.648c0-.26-.14-.5-.363-.628z"/><path fill="#F7F8FB" d="M112.187 183.672l4.188-2.42v-8.647l-4.188 2.42"/><path fill="url(#a)" d="M115.652 180.835l-2.74 1.583v-6.976l2.74-1.583v6.975zm1.085-8.857a.719.719 0 0 0-.723 0l-4.19 2.42a.72.72 0 0 0-.36.626v8.648a.722.722 0 0 0 1.085.626l4.187-2.42a.724.724 0 0 0 .362-.627v-8.648c0-.26-.14-.498-.363-.627z"/><path fill="#F7F8FB" d="M104.497 202.28l4.19-2.418v-8.648l-4.19 2.42"/><path fill="url(#a)" d="M107.962 199.444l-2.74 1.583v-6.976l2.74-1.582v6.976zm1.086-8.857a.72.72 0 0 0-.724 0l-4.19 2.42a.72.72 0 0 0-.36.626v8.648a.723.723 0 0 0 1.085.628l4.188-2.42a.72.72 0 0 0 .362-.626v-8.648a.722.722 0 0 0-.362-.627z"/><path fill="#F8F9FC" d="M104.497 207.8l4.19-2.418v-5.52l-4.19 2.42"/><path fill="url(#a)" d="M107.962 204.964l-2.74 1.583V202.7l2.74-1.584v3.848zm1.086-5.73a.73.73 0 0 0-.724 0l-4.19 2.42a.725.725 0 0 0-.36.627v5.52a.725.725 0 0 0 .723.725.73.73 0 0 0 .362-.097l4.188-2.42a.724.724 0 0 0 .362-.626v-5.52a.726.726 0 0 0-.362-.627z"/><path fill="#D9F5FD" d="M119.877 198.92l4.188-2.42v-5.52l-4.188 2.42"/><path fill="#0081E6" d="M123.34 196.082l-2.74 1.583v-3.848l2.74-1.582v3.847zm1.087-5.73a.73.73 0 0 0-.724 0l-4.188 2.42a.727.727 0 0 0-.362.627v5.52a.723.723 0 0 0 1.086.626l4.187-2.42a.72.72 0 0 0 .362-.626v-5.52a.729.729 0 0 0-.363-.627z"/><path fill="#D9F5FD" d="M112.187 203.36l4.188-2.42v-5.52l-4.188 2.42"/><path fill="url(#a)" d="M115.652 200.523l-2.74 1.583v-3.848l2.74-1.583v3.848zm1.085-5.73a.729.729 0 0 0-.723 0l-4.19 2.42a.727.727 0 0 0-.36.627v5.52a.726.726 0 0 0 .723.724.73.73 0 0 0 .362-.097l4.187-2.42a.723.723 0 0 0 .362-.626v-5.52a.728.728 0 0 0-.363-.626z"/><path fill="#F7F8FB" d="M104.497 193.633l4.19-2.42v-5.52l-4.19 2.42"/><path fill="url(#f)" d="M107.962 190.796l-2.74 1.583v-3.85l2.74-1.582v3.848zm1.086-5.73a.73.73 0 0 0-.724 0l-4.19 2.42a.725.725 0 0 0-.36.627v5.52a.726.726 0 0 0 .723.724.73.73 0 0 0 .362-.097l4.188-2.42a.724.724 0 0 0 .362-.626v-5.52a.726.726 0 0 0-.362-.627z"/><path fill="#D9F5FD" d="M119.877 184.75l4.188-2.418v-5.52l-4.188 2.42"/><path fill="url(#a)" d="M123.34 181.914l-2.74 1.583v-3.848l2.74-1.584v3.848zm1.087-5.73a.73.73 0 0 0-.724 0l-4.188 2.42a.727.727 0 0 0-.362.627v5.52a.722.722 0 0 0 1.086.628l4.187-2.42a.72.72 0 0 0 .362-.626v-5.52a.729.729 0 0 0-.363-.627z"/><path fill="#F7F8FB" d="M112.187 189.192l4.188-2.42v-5.52l-4.188 2.42"/><path fill="url(#a)" d="M115.652 186.355l-2.74 1.583v-3.848l2.74-1.583v3.848zm1.085-5.73a.729.729 0 0 0-.723 0l-4.19 2.42a.727.727 0 0 0-.36.627v5.52c0 .258.137.497.36.627a.73.73 0 0 0 .725-.001l4.187-2.42a.724.724 0 0 0 .362-.627v-5.52a.729.729 0 0 0-.363-.627z"/><path fill="#D9F5FD" d="M119.877 170.583l4.188-2.42v-5.52l-4.188 2.42"/><path fill="url(#a)" d="M123.34 167.746l-2.74 1.583v-3.85l2.74-1.582v3.848zm1.087-5.73a.73.73 0 0 0-.724 0l-4.188 2.42a.727.727 0 0 0-.362.627v5.52a.726.726 0 0 0 1.086.627l4.187-2.42a.72.72 0 0 0 .362-.626v-5.52a.729.729 0 0 0-.363-.627z"/><path fill="#F7F8FB" d="M112.187 175.024l4.188-2.42v-5.52l-4.188 2.42"/><path fill="url(#a)" d="M115.652 172.187l-2.74 1.583v-3.848l2.74-1.583v3.847zm1.085-5.73a.729.729 0 0 0-.723 0l-4.19 2.42a.725.725 0 0 0-.36.627v5.52a.726.726 0 0 0 .723.725.73.73 0 0 0 .362-.097l4.187-2.418a.727.727 0 0 0 .362-.627v-5.52a.729.729 0 0 0-.363-.627z"/><path fill="#F7F8FB" d="M104.497 179.465l4.19-2.42v-5.52l-4.19 2.42"/><path fill="url(#a)" d="M107.962 176.628l-2.74 1.583v-3.847l2.74-1.583v3.848zm1.086-5.73a.73.73 0 0 0-.724 0l-4.19 2.42a.725.725 0 0 0-.36.627v5.52a.726.726 0 0 0 .723.724c.125 0 .25-.034.362-.098l4.188-2.42a.724.724 0 0 0 .362-.626v-5.52a.724.724 0 0 0-.362-.627z"/><path fill="#D9F5FD" d="M119.877 241.423l4.188-2.42v-5.518l-4.188 2.418"/><path fill="#0081E6" d="M123.34 238.586l-2.74 1.583v-3.85l2.74-1.58v3.846zm1.087-5.73a.73.73 0 0 0-.724 0l-4.188 2.42a.727.727 0 0 0-.362.627v5.52a.722.722 0 0 0 1.086.627l4.187-2.42a.72.72 0 0 0 .362-.626v-5.52a.729.729 0 0 0-.363-.627z"/><path fill="#D9F5FD" d="M112.187 245.864l4.188-2.42v-5.52l-4.188 2.42"/><path fill="url(#a)" d="M115.652 243.027l-2.74 1.583v-3.848l2.74-1.583v3.847zm1.085-5.73a.729.729 0 0 0-.723 0l-4.19 2.42a.727.727 0 0 0-.36.627v5.52a.725.725 0 0 0 1.085.628l4.187-2.418a.724.724 0 0 0 .362-.627v-5.52a.729.729 0 0 0-.363-.627z"/><path fill="#F8F8FC" d="M104.497 250.305l4.19-2.42v-5.52l-4.19 2.42"/><path fill="url(#a)" d="M107.962 247.468l-2.74 1.583v-3.847l2.74-1.583v3.848zm1.086-5.73a.73.73 0 0 0-.724 0l-4.19 2.42a.727.727 0 0 0-.36.627v5.52a.726.726 0 0 0 .723.724c.125 0 .25-.033.362-.098l4.188-2.42a.72.72 0 0 0 .362-.626v-5.52a.726.726 0 0 0-.362-.627z"/><path fill="#D9F5FD" d="M112.187 231.696l4.188-2.42v-5.52l-4.188 2.42"/><path fill="url(#a)" d="M115.652 228.86l-2.74 1.582v-3.848l2.74-1.582v3.847zm1.085-5.73a.719.719 0 0 0-.723 0l-4.19 2.42a.724.724 0 0 0-.36.626v5.52a.722.722 0 0 0 1.085.627l4.187-2.42a.72.72 0 0 0 .362-.626v-5.52a.729.729 0 0 0-.363-.627z"/><path fill="#F8F9FC" d="M104.497 236.137l4.19-2.42v-5.52l-4.19 2.42"/><path fill="url(#a)" d="M107.962 233.3l-2.74 1.583v-3.848l2.74-1.583v3.848zm1.086-5.73a.73.73 0 0 0-.724 0l-4.19 2.42a.725.725 0 0 0-.36.627v5.52a.726.726 0 0 0 .723.724.73.73 0 0 0 .362-.096l4.188-2.42a.724.724 0 0 0 .362-.626v-5.52a.726.726 0 0 0-.362-.627z"/><path fill="#D9F5FD" d="M119.877 227.255l4.188-2.42v-5.52l-4.188 2.42"/><path fill="#0081E6" d="M123.34 224.418L120.6 226v-3.846l2.74-1.583v3.848zm1.087-5.73a.73.73 0 0 0-.724 0l-4.188 2.42a.727.727 0 0 0-.362.627v5.52a.722.722 0 0 0 1.086.626l4.187-2.42a.72.72 0 0 0 .362-.626v-5.52a.729.729 0 0 0-.363-.627z"/><path fill="#D9F5FD" d="M112.187 217.528l4.188-2.42v-5.52l-4.188 2.42"/><path fill="url(#a)" d="M115.652 214.69l-2.74 1.584v-3.848l2.74-1.583v3.848zm1.085-5.728a.719.719 0 0 0-.723 0l-4.19 2.42a.724.724 0 0 0-.36.626v5.52a.726.726 0 0 0 .723.724.72.72 0 0 0 .362-.097l4.187-2.42a.72.72 0 0 0 .362-.626v-5.52c0-.26-.14-.498-.363-.628z"/><path fill="#D9F5FD" d="M119.877 213.087l4.188-2.42v-5.52l-4.188 2.42"/><path fill="#0081E6" d="M123.34 210.25l-2.74 1.583v-3.848l2.74-1.582v3.847zm1.087-5.73a.73.73 0 0 0-.724 0l-4.188 2.42a.727.727 0 0 0-.362.627v5.52a.722.722 0 0 0 .724.724c.125 0 .25-.03.362-.096l4.187-2.42a.72.72 0 0 0 .362-.626v-5.52a.729.729 0 0 0-.363-.627z"/><path fill="#F7F8FB" d="M104.497 221.97l4.19-2.42v-5.52l-4.19 2.42"/><path fill="url(#a)" d="M107.962 219.132l-2.74 1.583v-3.848l2.74-1.583v3.848zm1.086-5.73a.73.73 0 0 0-.724 0l-4.19 2.42a.727.727 0 0 0-.36.627v5.52a.725.725 0 0 0 .723.723.73.73 0 0 0 .362-.097l4.188-2.42a.723.723 0 0 0 .362-.626v-5.52a.726.726 0 0 0-.362-.627z"/><path fill="#F8F9FC" d="M77.927 219.317l4.188 2.418v-8.648l-4.188-2.42"/><path fill="url(#a)" d="M81.392 220.48l-2.74-1.582v-6.976l2.74 1.583v6.976zm1.085-8.02l-4.188-2.42a.732.732 0 0 0-.725 0 .727.727 0 0 0-.362.628v8.65c0 .257.138.496.362.626l4.188 2.418a.721.721 0 0 0 1.086-.627v-8.648c0-.26-.14-.498-.363-.627z"/><path fill="#F7F8FB" d="M77.927 190.98l4.188 2.42v-8.65l-4.188-2.418"/><path fill="url(#a)" d="M81.392 192.145l-2.74-1.583v-6.976l2.74 1.583v6.975zm1.085-8.02l-4.188-2.42a.723.723 0 0 0-1.087.627v8.65c0 .257.138.496.362.626l4.188 2.418a.72.72 0 0 0 .724 0 .724.724 0 0 0 .362-.627v-8.65a.726.726 0 0 0-.363-.626z"/><path fill="#F8F9FC" d="M77.927 205.148l4.188 2.42v-8.65l-4.188-2.418"/><path fill="url(#a)" d="M81.392 206.313l-2.74-1.583v-6.976l2.74 1.583v6.976zm1.085-8.02l-4.188-2.42a.723.723 0 0 0-1.087.627v8.65c0 .257.138.496.362.626l4.188 2.418a.72.72 0 0 0 .724.001.724.724 0 0 0 .362-.627v-8.648c0-.26-.14-.5-.363-.628z"/><path fill="#F7F8FB" d="M93.306 185.694l4.19 2.42v-8.65l-4.19-2.418"/><path fill="url(#a)" d="M96.77 186.86l-2.74-1.584V178.3l2.74 1.583v6.976zm1.087-8.022l-4.19-2.42a.719.719 0 0 0-.723 0 .727.727 0 0 0-.362.628v8.648c0 .26.138.498.362.627l4.19 2.42a.724.724 0 0 0 1.085-.627v-8.648c0-.26-.14-.498-.363-.627z"/><path fill="#F7F8FB" d="M93.306 214.03l4.19 2.42v-8.65l-4.19-2.418"/><path fill="url(#a)" d="M96.77 215.195l-2.74-1.583v-6.976l2.74 1.583v6.975zm1.087-8.02l-4.19-2.42a.724.724 0 0 0-1.085.627v8.648c0 .26.138.498.362.627l4.19 2.42a.72.72 0 0 0 .723-.001.724.724 0 0 0 .362-.627v-8.65a.726.726 0 0 0-.363-.626z"/><path fill="#F8F9FC" d="M77.927 176.812l4.188 2.42v-8.65l-4.188-2.418"/><path fill="url(#a)" d="M81.392 177.977l-2.74-1.583v-6.976L81.39 171v6.977zm1.085-8.02l-4.188-2.42a.723.723 0 0 0-1.087.627v8.648c0 .26.138.498.362.627l4.188 2.418a.72.72 0 0 0 .724 0 .724.724 0 0 0 .362-.627v-8.647c0-.26-.14-.498-.363-.627z"/><path fill="#F7F8FC" d="M77.927 233.485l4.188 2.42v-8.65l-4.188-2.42"/><path fill="url(#a)" d="M81.392 234.65l-2.74-1.584v-6.976l2.74 1.583v6.976zm1.085-8.022l-4.188-2.42a.732.732 0 0 0-.725 0 .727.727 0 0 0-.362.628v8.65c0 .257.138.496.362.626l4.188 2.418a.72.72 0 0 0 .724 0 .724.724 0 0 0 .362-.627v-8.648c0-.26-.14-.498-.363-.627z"/><path fill="#F8F9FC" d="M93.306 242.366l4.19 2.42v-8.65l-4.19-2.418"/><path fill="url(#a)" d="M96.77 243.53l-2.74-1.582v-6.976l2.74 1.583v6.976zm1.087-8.02l-4.19-2.42a.719.719 0 0 0-.723 0 .727.727 0 0 0-.362.628v8.648c0 .26.138.498.362.627l4.19 2.42a.72.72 0 0 0 .723-.002.724.724 0 0 0 .362-.627v-8.648c0-.26-.14-.498-.363-.627z"/><path fill="#F8F8FC" d="M85.617 237.925l4.188 2.42v-8.65l-4.188-2.418"/><path fill="url(#a)" d="M89.08 239.09l-2.74-1.583v-6.976l2.74 1.584v6.976zm1.087-8.02l-4.188-2.42a.723.723 0 0 0-1.087.627v8.648c0 .26.138.498.362.628l4.188 2.418a.72.72 0 0 0 .724.001.72.72 0 0 0 .362-.626v-8.648c0-.26-.14-.498-.363-.627z"/><path fill="#F8F9FC" d="M85.617 209.59l4.188 2.418v-8.648l-4.188-2.42"/><path fill="url(#a)" d="M89.08 210.754l-2.74-1.583v-6.975l2.74 1.583v6.976zm1.087-8.02l-4.188-2.42a.723.723 0 0 0-1.087.627v8.65c0 .258.138.497.362.626l4.188 2.42a.73.73 0 0 0 .724-.001.724.724 0 0 0 .362-.627v-8.648c0-.26-.14-.498-.363-.627z"/><path fill="#F7F8FB" d="M85.617 195.42l4.188 2.42v-8.648l-4.188-2.42"/><path fill="url(#a)" d="M89.08 196.586l-2.74-1.583v-6.976l2.74 1.583v6.976zm1.087-8.02l-4.188-2.42a.723.723 0 0 0-1.087.627v8.648c0 .26.138.5.362.628l4.188 2.42a.73.73 0 0 0 .724-.001.724.724 0 0 0 .362-.627v-8.648c0-.26-.14-.498-.363-.627z"/><path fill="#F8F9FC" d="M93.306 228.198l4.19 2.42v-8.65l-4.19-2.418"/><path fill="url(#a)" d="M96.77 229.363l-2.74-1.583v-6.976l2.74 1.583v6.976zm1.087-8.02l-4.19-2.42a.724.724 0 0 0-1.085.627v8.648c0 .26.138.498.362.627l4.19 2.42a.72.72 0 0 0 .36.096.724.724 0 0 0 .725-.723v-8.648c0-.26-.14-.5-.363-.628z"/><path fill="#F8F9FC" d="M85.617 223.757l4.188 2.42v-8.65l-4.188-2.418"/><path fill="url(#a)" d="M89.08 224.922l-2.74-1.583v-6.977l2.74 1.583v6.976zm1.087-8.02l-4.188-2.42a.723.723 0 0 0-1.087.627v8.648c0 .258.138.497.362.627l4.188 2.418a.72.72 0 0 0 .724 0 .724.724 0 0 0 .362-.627v-8.648c0-.26-.14-.498-.363-.627z"/><path fill="#F7F8FB" d="M85.617 181.253l4.188 2.42v-8.65l-4.188-2.418"/><path fill="url(#a)" d="M89.08 182.418l-2.74-1.583v-6.976l2.74 1.582v6.976zm1.087-8.02l-4.188-2.42a.723.723 0 0 0-1.087.627v8.648c0 .26.138.498.362.627l4.188 2.42a.73.73 0 0 0 .724-.001.727.727 0 0 0 .362-.628v-8.648c0-.26-.14-.498-.363-.627z"/><path fill="#F7F8FB" d="M93.306 199.862l4.19 2.42v-8.65l-4.19-2.418"/><path fill="url(#a)" d="M96.77 201.027l-2.74-1.583v-6.976l2.74 1.583v6.977zm1.087-8.02l-4.19-2.42a.724.724 0 0 0-1.085.627v8.648c0 .26.138.498.362.627l4.19 2.418a.724.724 0 0 0 1.085-.627v-8.647c0-.26-.14-.498-.363-.627z"/><path fill="#F7F8FB" d="M93.306 205.382l4.19 2.42v-5.52l-4.19-2.42"/><path fill="url(#a)" d="M96.77 206.547l-2.74-1.583v-3.848l2.74 1.583v3.847zm1.087-4.893l-4.19-2.42a.729.729 0 0 0-.723 0 .727.727 0 0 0-.362.628v5.52c0 .258.138.497.362.627l4.19 2.418a.72.72 0 0 0 .723 0 .727.727 0 0 0 .362-.627v-5.52a.726.726 0 0 0-.363-.626z"/><path fill="#FFF" d="M77.927 196.5l4.188 2.42v-5.52l-4.188-2.42"/><path fill="url(#a)" d="M81.392 197.665l-2.74-1.583v-3.847l2.74 1.582v3.848zm1.085-4.893l-4.188-2.42a.732.732 0 0 0-.725 0 .728.728 0 0 0-.362.63v5.518c0 .26.138.498.362.627l4.188 2.42a.73.73 0 0 0 .724-.001.724.724 0 0 0 .362-.627v-5.52c0-.26-.14-.498-.363-.628z"/><path fill="#FFF" d="M85.617 200.94l4.188 2.42v-5.52l-4.188-2.42"/><path fill="url(#a)" d="M89.08 202.106l-2.74-1.583v-3.848l2.74 1.583v3.848zm1.087-4.893l-4.188-2.42a.732.732 0 0 0-.725 0 .727.727 0 0 0-.362.628v5.52c0 .26.138.5.362.628l4.188 2.42a.73.73 0 0 0 .724-.001.727.727 0 0 0 .362-.627v-5.52a.729.729 0 0 0-.363-.627z"/><path fill="#F7F8FB" d="M93.306 191.214l4.19 2.42v-5.52l-4.19-2.42"/><path fill="url(#a)" d="M96.77 192.38l-2.74-1.584v-3.848l2.74 1.583v3.85zm1.087-4.894l-4.19-2.42a.729.729 0 0 0-.723 0 .727.727 0 0 0-.362.628v5.52c0 .258.138.497.362.627l4.19 2.42a.72.72 0 0 0 .723 0 .727.727 0 0 0 .362-.627v-5.52a.727.727 0 0 0-.363-.627z"/><path fill="#D9F5FD" d="M77.927 182.332l4.188 2.42v-5.52l-4.188-2.42"/><path fill="url(#a)" d="M81.392 183.497l-2.74-1.583v-3.847l2.74 1.582v3.847zm1.085-4.893l-4.188-2.42a.732.732 0 0 0-.725 0 .727.727 0 0 0-.362.628v5.52c0 .26.138.498.362.627l4.188 2.418a.72.72 0 0 0 .724 0 .724.724 0 0 0 .362-.627v-5.52a.728.728 0 0 0-.363-.626z"/><path fill="#F7F8FB" d="M85.617 186.773l4.188 2.42v-5.52l-4.188-2.42"/><path fill="url(#a)" d="M89.08 187.938l-2.74-1.583v-3.848l2.74 1.583v3.848zm1.087-4.893l-4.188-2.42a.732.732 0 0 0-.725 0 .727.727 0 0 0-.362.628v5.52c0 .258.138.498.362.627l4.188 2.42a.73.73 0 0 0 .724-.001.727.727 0 0 0 .362-.628v-5.52a.729.729 0 0 0-.363-.627z"/><path fill="#F8F9FC" d="M77.927 168.164l4.188 2.42v-5.52l-4.188-2.42"/><path fill="url(#a)" d="M81.392 169.33l-2.74-1.584v-3.848l2.74 1.583v3.85zm1.085-4.894l-4.188-2.42a.732.732 0 0 0-.725 0 .727.727 0 0 0-.362.628v5.52c0 .26.138.498.362.627l4.188 2.42a.73.73 0 0 0 .724 0 .727.727 0 0 0 .362-.627v-5.52a.729.729 0 0 0-.363-.627z"/><path fill="#F7F8FB" d="M85.617 172.605l4.188 2.42v-5.52l-4.188-2.42"/><path fill="url(#a)" d="M89.08 173.77l-2.74-1.583v-3.848l2.74 1.582v3.848zm1.087-4.893l-4.188-2.42a.732.732 0 0 0-.725 0 .727.727 0 0 0-.362.628v5.52c0 .258.138.497.362.627l4.188 2.42a.73.73 0 0 0 .724-.001.724.724 0 0 0 .362-.626v-5.52a.727.727 0 0 0-.363-.627z"/><path fill="#F8F9FC" d="M93.306 177.046l4.19 2.42v-5.52l-4.19-2.42"/><path fill="url(#a)" d="M96.77 178.21l-2.74-1.582v-3.848l2.74 1.583v3.847zm1.087-4.892l-4.19-2.42a.729.729 0 0 0-.723 0 .727.727 0 0 0-.362.628v5.52c0 .258.138.497.362.627l4.19 2.42a.73.73 0 0 0 .723-.002.727.727 0 0 0 .362-.627v-5.52c0-.26-.14-.498-.363-.627z"/><path fill="#F7F8FC" d="M77.927 239.004l4.188 2.42v-5.52l-4.188-2.42"/><path fill="url(#a)" d="M81.392 240.17l-2.74-1.584v-3.847l2.74 1.58v3.85zm1.085-4.894l-4.188-2.418a.723.723 0 0 0-1.087.627v5.52c0 .258.138.497.362.626l4.188 2.42a.72.72 0 0 0 .724 0 .724.724 0 0 0 .362-.627v-5.52a.729.729 0 0 0-.363-.627z"/><path fill="#F7F8FC" d="M85.617 243.445l4.188 2.42v-5.52l-4.188-2.42"/><path fill="url(#a)" d="M89.08 244.61l-2.74-1.583v-3.847l2.74 1.582v3.848zm1.087-4.893l-4.188-2.42a.732.732 0 0 0-.725 0 .727.727 0 0 0-.362.628v5.52c0 .26.138.498.362.627l4.188 2.42a.73.73 0 0 0 .724-.001.72.72 0 0 0 .362-.626v-5.52a.729.729 0 0 0-.363-.627z"/><path fill="#F7F8FC" d="M93.306 247.886l4.19 2.42v-5.52l-4.19-2.42"/><path fill="url(#a)" d="M96.77 249.05l-2.74-1.582v-3.848l2.74 1.583v3.848zm1.087-4.892l-4.19-2.42a.729.729 0 0 0-.723 0 .727.727 0 0 0-.362.628v5.52c0 .26.138.498.362.627l4.19 2.42a.73.73 0 0 0 .723-.002.727.727 0 0 0 .362-.627v-5.52a.729.729 0 0 0-.363-.627z"/><path fill="#F8F9FC" d="M85.617 229.277l4.188 2.42v-5.52l-4.188-2.42"/><path fill="url(#a)" d="M89.08 230.442l-2.74-1.583v-3.848l2.74 1.582v3.848zm1.087-4.893l-4.188-2.42a.723.723 0 0 0-1.087.627v5.52c0 .26.138.498.362.627l4.188 2.42a.73.73 0 0 0 .724-.001.724.724 0 0 0 .362-.627v-5.52a.729.729 0 0 0-.363-.627z"/><path fill="#F8F9FC" d="M93.306 233.718l4.19 2.42v-5.52l-4.19-2.42"/><path fill="url(#a)" d="M96.77 234.883l-2.74-1.583v-3.848l2.74 1.583v3.848zm1.087-4.893l-4.19-2.42a.729.729 0 0 0-.723 0 .727.727 0 0 0-.362.628v5.52c0 .258.138.497.362.627l4.19 2.42a.73.73 0 0 0 .723 0 .727.727 0 0 0 .362-.627v-5.52a.729.729 0 0 0-.363-.627z"/><path fill="#F8F9FC" d="M77.927 224.836l4.188 2.42v-5.52l-4.188-2.42"/><path fill="url(#a)" d="M81.392 226l-2.74-1.582v-3.847l2.74 1.583V226zm1.085-4.892l-4.188-2.418a.723.723 0 0 0-1.087.627v5.52c0 .258.138.497.362.626l4.188 2.42a.73.73 0 0 0 .724-.002.724.724 0 0 0 .362-.627v-5.52a.729.729 0 0 0-.363-.627z"/><path fill="#D9F5FD" d="M85.617 215.11l4.188 2.418v-5.52l-4.188-2.42"/><path fill="url(#a)" d="M89.08 216.274l-2.74-1.583v-3.847l2.74 1.583v3.848zm1.087-4.893l-4.188-2.418a.723.723 0 0 0-1.087.627v5.52c0 .258.138.497.362.626l4.188 2.42a.73.73 0 0 0 .724-.001.727.727 0 0 0 .362-.627v-5.52a.729.729 0 0 0-.363-.627z"/><path fill="#D9F5FD" d="M77.927 210.668l4.188 2.42v-5.52l-4.188-2.42"/><path fill="url(#a)" d="M81.392 211.833l-2.74-1.583v-3.847l2.74 1.582v3.848zm1.085-4.893l-4.188-2.42a.732.732 0 0 0-.725 0 .727.727 0 0 0-.362.628v5.52c0 .26.138.498.362.627l4.188 2.42a.73.73 0 0 0 .724 0 .724.724 0 0 0 .362-.627v-5.52a.729.729 0 0 0-.363-.627z"/><path fill="#F8F9FC" d="M93.306 219.55l4.19 2.42v-5.52l-4.19-2.42"/><path fill="url(#a)" d="M96.77 220.715l-2.74-1.583v-3.848l2.74 1.583v3.848zm1.087-4.893l-4.19-2.42a.729.729 0 0 0-.723 0 .727.727 0 0 0-.362.628v5.52c0 .258.138.498.362.627l4.19 2.42a.73.73 0 0 0 .723-.001.727.727 0 0 0 .362-.627v-5.52c0-.26-.14-.498-.363-.628zm3.139-51.019c-.4 0-.724.324-.724.724v97.927a.724.724 0 1 0 1.448 0v-97.927c0-.4-.324-.724-.724-.724"/><path fill="url(#g)" d="M113 194.842v76.196l29.614 17.102 29.613-17.102v-76.196l-29.613-17.102"/><path fill="url(#a)" d="M171.503 270.62l-28.89 16.684-28.888-16.684v-75.36l28.89-16.684 28.888 16.684v75.36zm1.086-76.406l-29.614-17.1a.72.72 0 0 0-.724 0l-29.613 17.1a.726.726 0 0 0-.363.627v76.198c0 .258.138.497.362.627l29.612 17.102a.73.73 0 0 0 .724 0l29.613-17.102c.223-.13.36-.37.36-.627V194.84a.725.725 0 0 0-.36-.626z"/><path fill="url(#d)" d="M113 194.842l29.614 17.1 29.613-17.1-29.613-17.102"/><path fill="url(#h)" d="M142.614 211.107l-28.165-16.265 28.164-16.266 28.165 16.266-28.166 16.265zm29.975-16.893l-29.614-17.1a.72.72 0 0 0-.724 0l-29.613 17.1a.726.726 0 0 0-.001 1.255l29.612 17.1a.72.72 0 0 0 .724 0l29.613-17.1a.727.727 0 0 0 0-1.256z"/><path fill="#F6F7FB" d="M113 271.038l29.614 17.102v-76.197L113 194.843"/><path fill="url(#a)" d="M141.89 286.886l-28.165-16.266v-74.524l28.165 16.265v74.526zm1.086-75.57l-29.613-17.102a.726.726 0 0 0-1.087.628v76.196c0 .258.138.497.362.627l29.612 17.102a.73.73 0 0 0 .724 0 .727.727 0 0 0 .362-.627v-76.197a.726.726 0 0 0-.362-.627z"/><path fill="url(#g)" d="M121.71 152.186v40.667l20.904 12.072 20.903-12.072v-40.667l-20.903-12.072"/><path fill="url(#a)" d="M162.793 192.435l-20.18 11.654-20.178-11.655v-39.83l20.18-11.655 20.178 11.654v39.83zm1.086-40.876l-20.904-12.073a.72.72 0 0 0-.724 0L121.35 151.56a.72.72 0 0 0-.363.626v40.667c0 .26.138.498.362.627l20.902 12.072a.72.72 0 0 0 .724-.001l20.903-12.072a.725.725 0 0 0 .36-.627v-40.667a.722.722 0 0 0-.36-.627z"/><path fill="#F6F7FB" d="M121.71 152.186l20.904 12.07 20.903-12.07-20.903-12.072"/><path fill="url(#i)" d="M142.614 163.42l-19.455-11.234 19.454-11.236 19.455 11.236-19.456 11.235zm21.265-11.86l-20.904-12.073a.72.72 0 0 0-.724 0L121.35 151.56a.72.72 0 0 0-.363.626c0 .258.138.497.362.627l20.902 12.07c.112.066.237.098.362.098s.25-.03.362-.096l20.903-12.07a.727.727 0 0 0 0-1.255z"/><path fill="#F6F7FB" d="M121.71 192.853l20.904 12.072v-40.668l-20.903-12.07"/><path fill="url(#a)" d="M141.89 203.67l-19.455-11.235V153.44l19.455 11.235v38.996zm1.086-40.04l-20.903-12.07a.72.72 0 0 0-.724 0 .72.72 0 0 0-.363.626v40.667c0 .26.138.498.362.627l20.902 12.072a.72.72 0 0 0 .724-.001.724.724 0 0 0 .362-.627v-40.668a.726.726 0 0 0-.362-.627z"/><path fill="#CFDEF8" d="M113 238.68v6.15l29.614 17.102 29.613-17.102v-6.15l-29.613 17.1"/><path fill="url(#j)" d="M171.503 244.412l-28.89 16.684-28.888-16.684v-4.48l28.527 16.476c.224.13.5.13.724 0l28.527-16.475v4.48zm1.086-6.36a.723.723 0 0 0-.725 0l-29.25 16.893-29.252-16.893a.723.723 0 1 0-1.087.627v6.15c0 .26.138.498.362.627l29.612 17.102a.73.73 0 0 0 .724-.001l29.613-17.103a.725.725 0 0 0 .36-.627v-6.15c0-.26-.137-.5-.36-.628z"/><path fill="#CFDEF8" d="M113 244.83l29.614 17.102v-6.15L113 238.678"/><path fill="url(#a)" d="M141.89 260.678l-28.165-16.266v-4.48L141.89 256.2v4.478zm1.086-5.524l-29.613-17.102a.723.723 0 1 0-1.087.627v6.15c0 .26.138.498.362.627l29.612 17.102a.73.73 0 0 0 .724-.001.727.727 0 0 0 .362-.628v-6.15c0-.26-.138-.5-.362-.628z"/><path fill="#CFDEF8" d="M113 223.158v6.15l29.614 17.103 29.613-17.1v-6.152l-29.613 17.102"/><path fill="url(#a)" d="M171.503 228.89l-28.89 16.685-28.888-16.684v-4.478l28.527 16.475c.224.13.5.13.724 0l28.527-16.475v4.48zm1.086-6.36a.732.732 0 0 0-.725 0l-29.25 16.894-29.252-16.893a.726.726 0 0 0-1.087.628v6.15c0 .26.138.5.362.628l29.612 17.102a.72.72 0 0 0 .724 0l29.613-17.102a.725.725 0 0 0 .36-.627v-6.152a.722.722 0 0 0-.36-.627z"/><path fill="#CFDEF8" d="M113 229.31l29.614 17.1v-6.15L113 223.158"/><path fill="url(#a)" d="M141.89 245.157l-28.165-16.266v-4.478l28.165 16.266v4.48zm1.086-5.524l-29.613-17.102a.726.726 0 0 0-1.087.628v6.15c0 .26.138.5.362.63l29.612 17.1a.72.72 0 0 0 .724 0 .724.724 0 0 0 .362-.627v-6.15a.722.722 0 0 0-.362-.627z"/><path fill="#CFDEF8" d="M113 207.637v6.152l29.614 17.1 29.613-17.1v-6.153l-29.613 17.102"/><path fill="url(#a)" d="M171.503 213.37l-28.89 16.684-28.888-16.683v-4.48l28.527 16.476c.224.13.5.13.724 0l28.527-16.475v4.48zm1.086-6.36a.723.723 0 0 0-.725 0l-29.25 16.893-29.252-16.893a.723.723 0 1 0-1.087.627v6.152c0 .257.138.496.362.626l29.612 17.102a.73.73 0 0 0 .724 0l29.613-17.102c.223-.13.36-.37.36-.627v-6.153a.722.722 0 0 0-.36-.627z"/><path fill="#CFDEF8" d="M113 213.79l29.614 17.1v-6.15L113 207.636"/><path fill="url(#a)" d="M141.89 229.636l-28.165-16.265v-4.48l28.165 16.267v4.48zm1.086-5.524l-29.613-17.102a.723.723 0 1 0-1.087.627v6.152c0 .257.138.496.362.626l29.612 17.1a.72.72 0 0 0 .724.001.724.724 0 0 0 .362-.627v-6.15c0-.26-.138-.5-.362-.628z"/><path fill="url(#k)" d="M121.71 179.014v6.023l20.904 12.072 20.903-12.073v-6.023l-20.903 12.072"/><path fill="url(#a)" d="M162.793 184.62l-20.18 11.653-20.178-11.654v-4.352l19.817 11.445c.224.13.5.13.724 0l19.817-11.445v4.35zm1.086-6.233a.723.723 0 0 0-.725 0l-20.54 11.863-20.542-11.863a.726.726 0 0 0-1.087.627v6.023c0 .26.138.498.362.627l20.902 12.072a.72.72 0 0 0 .724 0l20.903-12.072a.725.725 0 0 0 .36-.627v-6.023a.725.725 0 0 0-.36-.627z"/><path fill="#CFDEF8" d="M121.71 185.037l20.904 12.072v-6.024l-20.903-12.072"/><path fill="url(#a)" d="M141.89 195.855l-19.455-11.236v-4.352l19.455 11.236v4.35zm1.086-5.396l-20.903-12.073a.726.726 0 0 0-1.087.627v6.023c0 .26.138.498.362.627l20.902 12.072a.72.72 0 0 0 .724 0 .724.724 0 0 0 .362-.627v-6.024a.722.722 0 0 0-.362-.627z"/><path fill="#CFDEF8" d="M121.71 163.44v6.023l20.904 12.072 20.903-12.072v-6.023l-20.903 12.072"/><path fill="url(#a)" d="M162.793 169.045l-20.18 11.654-20.178-11.655v-4.35l19.817 11.444a.73.73 0 0 0 .724 0l19.817-11.445v4.35zm1.086-6.232a.723.723 0 0 0-.725 0l-20.54 11.863-20.542-11.863a.726.726 0 0 0-1.087.627v6.023c0 .26.138.498.362.627l20.902 12.072a.72.72 0 0 0 .724-.001l20.903-12.072a.725.725 0 0 0 .36-.627v-6.023a.726.726 0 0 0-.36-.627z"/><path fill="#CFDEF8" d="M121.71 169.463l20.904 12.072v-6.023L121.71 163.44"/><path fill="url(#a)" d="M141.89 180.28l-19.455-11.235v-4.35l19.455 11.235v4.35zm1.086-5.395l-20.903-12.072a.726.726 0 0 0-1.087.627v6.023c0 .26.138.498.362.627l20.902 12.072a.72.72 0 0 0 .724-.001.724.724 0 0 0 .362-.627v-6.023a.722.722 0 0 0-.362-.627z"/><path fill="#F6F7FB" d="M215.626 182.29v89.39l24.253 14.005 24.253-14.006v-89.39l-24.254-14.006"/><path fill="url(#a)" d="M263.41 271.26l-23.53 13.59-23.53-13.59v-88.55l23.53-13.588 23.53 13.588v88.553zm1.085-89.597l-24.254-14.006a.719.719 0 0 0-.723 0l-24.253 14.006a.727.727 0 0 0-.362.627v89.39c0 .257.138.496.362.626l24.253 14.006a.72.72 0 0 0 .722-.001l24.255-14.006a.727.727 0 0 0 .362-.627v-89.39a.726.726 0 0 0-.362-.627z"/><path fill="#FFF" d="M239.88 168.284v117.403l24.253-14.008 10.08-5.823 14.174-8.185v-89.388l-24.254-14.007"/><path fill="url(#a)" d="M287.663 257.254l-47.06 27.177V168.703l23.53-13.59 23.53 13.59v88.552zm1.085-89.597l-24.253-14.007a.72.72 0 0 0-.724 0l-24.253 14.007a.724.724 0 0 0-.362.627v117.4a.722.722 0 0 0 1.084.628l48.51-28.012a.727.727 0 0 0 .362-.628v-89.388a.722.722 0 0 0-.362-.627z"/><path fill="#E2EBFB" d="M239.88 168.284l-24.254 14.006 24.253 14.007 24.253-14.007 24.254-14.006-24.254-14.007"/><path fill="url(#a)" d="M239.88 195.46l-22.807-13.17 47.06-27.177 22.806 13.17-47.06 27.178zm48.868-27.803l-24.253-14.007a.72.72 0 0 0-.724 0l-48.506 28.013a.722.722 0 1 0 0 1.254l24.253 14.007a.72.72 0 0 0 .722.001l48.508-28.013a.724.724 0 0 0 0-1.253z"/><path fill="#E2EBFB" d="M219.838 173.966v5.62l20.04 11.576 20.043-11.575v-5.62l-20.04-11.575"/><path fill="url(#a)" d="M259.197 179.17l-19.318 11.156-19.318-11.157v-4.786l19.317-11.156 19.317 11.156v4.785zm1.086-5.83l-20.042-11.576a.719.719 0 0 0-.723 0l-20.04 11.575a.72.72 0 0 0-.363.626v5.62c0 .26.138.5.362.628l20.04 11.575a.72.72 0 0 0 .723-.001l20.043-11.576a.725.725 0 0 0 .36-.627v-5.62c0-.26-.137-.5-.36-.628z"/><path fill="#E2EBFB" d="M239.88 162.392v28.77l20.04-11.575 8.33-4.81 11.712-6.764v-5.62l-20.04-11.576"/><path fill="url(#a)" d="M279.238 167.595l-38.635 22.313V162.81l19.318-11.157 19.318 11.157v4.785zm1.086-5.83l-20.04-11.575a.723.723 0 0 0-.725 0l-20.043 11.574a.727.727 0 0 0-.362.628v28.77a.726.726 0 0 0 .724.723.72.72 0 0 0 .36-.097l40.084-23.15a.724.724 0 0 0 .362-.627v-5.62c0-.26-.138-.5-.362-.63z"/><path fill="#F6F7FB" d="M239.88 162.392l-20.042 11.574 20.04 11.574 20.043-11.574 20.042-11.574-20.04-11.575"/><path fill="url(#a)" d="M239.88 184.704l-18.595-10.738 38.636-22.313 18.594 10.74-38.635 22.31zm40.444-22.94l-20.04-11.574a.723.723 0 0 0-.725 0l-40.084 23.15a.726.726 0 0 0 0 1.253l20.04 11.574a.726.726 0 0 0 .723 0l40.084-23.148a.727.727 0 0 0 0-1.256z"/><path fill="#E2EBFB" d="M264.133 217.686l-24.254 14.006-24.255-14.006v5.038l24.254 14.007 24.253-14.006 24.254-14.007v-5.038"/><path fill="url(#a)" d="M287.663 208.3l-47.784 27.595-23.53-13.59v-3.365l23.167 13.38c.224.13.5.13.724 0l47.423-27.387v3.366zm1.085-5.248a.719.719 0 0 0-.723 0l-48.146 27.804-23.893-13.797a.719.719 0 0 0-.723 0 .72.72 0 0 0-.362.626v5.038c0 .26.138.498.362.627l24.253 14.008a.72.72 0 0 0 .722 0l48.508-28.014a.724.724 0 0 0 .362-.627v-5.038c0-.26-.138-.5-.362-.628z"/><path fill="#E2EBFB" d="M239.88 218.76l-24.254-14.007v5.038L239.88 223.8l24.253-14.007 24.254-14.006v-5.038l-24.254 14.007"/><path fill="url(#a)" d="M287.663 195.366l-47.784 27.596-23.53-13.59v-3.365l23.167 13.38c.224.13.5.13.724 0L287.664 192v3.366zm1.085-5.247a.719.719 0 0 0-.723 0l-48.146 27.804-23.893-13.798a.724.724 0 0 0-1.085.627v5.038c0 .26.138.5.362.628l24.253 14.007a.72.72 0 0 0 .722 0l48.508-28.014a.72.72 0 0 0 .362-.626v-5.038a.722.722 0 0 0-.362-.627z"/><path fill="#E2EBFB" d="M239.88 205.827l-24.254-14.007v5.038l24.253 14.007 24.253-14.007 24.254-14.006v-5.04l-24.254 14.008"/><path fill="url(#a)" d="M287.663 182.434L239.88 210.03l-23.53-13.59v-3.366l23.167 13.38c.224.13.5.13.724 0l47.423-27.386v3.366zm1.085-5.248a.719.719 0 0 0-.723 0L239.88 204.99l-23.893-13.797a.719.719 0 0 0-.723 0 .727.727 0 0 0-.362.627v5.038c0 .26.138.498.362.627l24.253 14.007a.72.72 0 0 0 .722-.001l48.508-28.013a.727.727 0 0 0 .362-.628v-5.038a.725.725 0 0 0-.362-.628z"/><path fill="#E2EBFB" d="M239.88 270.49l-24.254-14.006v5.038l24.253 14.007 24.253-14.008 24.254-14.007v-5.038l-24.254 14.007"/><path fill="url(#a)" d="M287.663 247.097l-47.784 27.596-23.53-13.59v-3.365l23.167 13.38c.224.13.5.13.724 0l47.423-27.387v3.367zm1.085-5.247a.719.719 0 0 0-.723 0l-48.146 27.804-23.893-13.797a.724.724 0 0 0-1.085.627v5.038c0 .26.138.498.362.627l24.253 14.006a.72.72 0 0 0 .722 0l48.508-28.014a.724.724 0 0 0 .362-.627v-5.038a.722.722 0 0 0-.362-.627z"/><path fill="#E2EBFB" d="M239.88 257.558l-24.254-14.007v5.04l24.253 14.006 24.253-14.007 24.254-14.007v-5.04l-24.254 14.008"/><path fill="url(#a)" d="M287.663 234.164L239.88 261.76l-23.53-13.59v-3.365l23.167 13.38c.224.13.5.13.724 0l47.423-27.387v3.366zm1.085-5.247a.719.719 0 0 0-.723 0l-48.146 27.805-23.893-13.798a.724.724 0 0 0-1.085.627v5.04c0 .258.138.497.362.626l24.253 14.007a.72.72 0 0 0 .722 0l48.508-28.013a.727.727 0 0 0 .362-.628v-5.038a.726.726 0 0 0-.362-.627z"/><path fill="#E2EBFB" d="M264.133 230.618l-24.254 14.007-24.255-14.007v5.04l24.254 14.005 24.253-14.006 24.254-14.007v-5.038"/><path fill="url(#a)" d="M287.663 221.232l-47.784 27.595-23.53-13.588v-3.368l23.167 13.38c.224.13.5.13.724 0l47.423-27.386v3.366zm1.085-5.248a.719.719 0 0 0-.723 0L239.88 243.79l-23.893-13.8a.729.729 0 0 0-.723 0 .727.727 0 0 0-.362.628v5.04c0 .257.138.496.362.626l24.253 14.006a.72.72 0 0 0 .722 0l48.508-28.013a.727.727 0 0 0 .362-.627v-5.038a.725.725 0 0 0-.362-.628z"/><path fill="url(#a)" d="M239.88 195.573c-.4 0-.725.324-.725.724v89.388a.724.724 0 1 0 1.447-.001v-89.388c0-.4-.324-.724-.724-.724"/><path fill="#F6F7FB" d="M153.623 163.525v131.008l35.546 20.53 35.545-20.53V163.525l-35.546-20.528"/><path fill="url(#a)" d="M223.99 294.115l-34.82 20.11-34.824-20.11V163.943l34.823-20.11 34.82 20.11v130.172zm1.087-131.217L189.53 142.37a.719.719 0 0 0-.723 0l-35.546 20.528a.727.727 0 0 0-.36.627v131.01c0 .257.137.496.36.626l35.547 20.53a.73.73 0 0 0 .722-.001l35.547-20.53a.724.724 0 0 0 .362-.626v-131.01a.727.727 0 0 0-.363-.626z"/><path fill="#F6F7FB" d="M153.623 163.525l35.546 20.53 35.545-20.53-35.546-20.528"/><path fill="url(#a)" d="M189.17 183.218l-34.1-19.693 34.1-19.692 34.098 19.692-34.1 19.693zm35.907-20.32L189.53 142.37a.719.719 0 0 0-.723 0l-35.546 20.528a.727.727 0 0 0 0 1.254l35.547 20.53a.72.72 0 0 0 .722-.001l35.547-20.528a.724.724 0 0 0-.001-1.254z"/><path fill="#CFDEF8" d="M153.623 294.534l35.546 20.528V184.054l-35.547-20.53"/><path fill="url(#a)" d="M188.445 313.808l-34.1-19.693V164.78l34.1 19.692v129.336zm1.086-130.38l-35.546-20.53a.719.719 0 0 0-.723 0 .725.725 0 0 0-.36.627v131.01c0 .257.137.496.36.626l35.547 20.53a.73.73 0 0 0 .722-.001.726.726 0 0 0 .363-.628V184.054a.722.722 0 0 0-.362-.627z"/><path fill="#FFF" d="M164.078 147.57v13.902l25.09 14.49 25.092-14.49v-13.9l-25.09-14.49"/><path fill="url(#l)" d="M213.536 161.054l-24.367 14.073-24.368-14.073V147.99l24.367-14.073 24.366 14.072v13.064zm1.086-14.11l-25.09-14.49a.723.723 0 0 0-.725 0l-25.09 14.49a.723.723 0 0 0-.363.627v13.902c0 .26.138.498.362.627l25.09 14.49a.726.726 0 0 0 .723 0l25.092-14.49a.727.727 0 0 0 .362-.628v-13.9c0-.26-.138-.5-.362-.628z"/><path fill="#FFF" d="M164.078 147.57l25.09 14.49 25.092-14.49-25.09-14.49"/><path fill="url(#a)" d="M189.17 161.225l-23.644-13.654 23.643-13.653 23.642 13.654-23.643 13.655zm25.452-14.28l-25.09-14.492a.723.723 0 0 0-.725 0l-25.09 14.49a.726.726 0 0 0-.001 1.256l25.09 14.49a.726.726 0 0 0 .723 0l25.092-14.49a.724.724 0 0 0 0-1.253z"/><path fill="#F6F7FB" d="M164.078 161.472l25.09 14.49v-13.9l-25.09-14.49"/><path fill="url(#a)" d="M188.445 174.71l-23.643-13.656v-12.23l23.643 13.655v12.23zm1.086-13.276l-25.09-14.49a.724.724 0 0 0-1.086.627v13.903c0 .258.138.497.362.627l25.09 14.49a.726.726 0 0 0 .723 0 .723.723 0 0 0 .363-.627V162.06a.724.724 0 0 0-.362-.626z"/><path fill="#F6F7FB" d="M178.88 237.372l5.605 3.236v-7.384l-5.604-3.236"/><path fill="url(#a)" d="M183.76 239.354l-4.155-2.4v-5.712l4.156 2.4v5.712zm1.087-6.757l-5.604-3.236a.729.729 0 0 0-.723 0 .727.727 0 0 0-.362.628v7.384c0 .26.138.498.362.627l5.603 3.235a.72.72 0 0 0 .724 0 .724.724 0 0 0 .362-.627v-7.384c0-.26-.14-.497-.363-.627z"/><path fill="#F6F7FB" d="M158.306 225.49l5.604 3.236v-7.384l-5.604-3.236"/><path fill="url(#a)" d="M163.186 227.472l-4.156-2.4v-5.712l4.156 2.4v5.712zm1.086-6.757l-5.604-3.236a.719.719 0 0 0-.723 0 .72.72 0 0 0-.362.626v7.384c0 .26.138.498.362.627l5.603 3.236a.72.72 0 0 0 .724 0 .724.724 0 0 0 .362-.627v-7.384a.722.722 0 0 0-.362-.627z"/><path fill="#F6F7FB" d="M168.594 231.43l5.604 3.237v-7.384l-5.604-3.236"/><path fill="url(#a)" d="M173.474 233.413l-4.156-2.4V225.3l4.156 2.4v5.713zm1.085-6.757l-5.604-3.236a.724.724 0 0 0-1.086.627v7.384c0 .26.138.5.362.628l5.604 3.236a.716.716 0 0 0 .36.097.725.725 0 0 0 .723-.723v-7.384a.722.722 0 0 0-.36-.627z"/><path fill="#F6F7FB" d="M178.88 218.418l5.605 3.236v-7.384l-5.604-3.236"/><path fill="url(#a)" d="M183.76 220.4l-4.155-2.4v-5.712l4.156 2.4v5.712zm1.087-6.757l-5.604-3.236a.724.724 0 0 0-1.085.627v7.384c0 .26.138.498.362.627l5.603 3.236a.72.72 0 0 0 .724.001.72.72 0 0 0 .362-.626v-7.384c0-.26-.14-.498-.363-.627z"/><path fill="#F6F7FB" d="M158.306 206.536l5.604 3.236v-7.384l-5.604-3.236"/><path fill="url(#a)" d="M163.186 208.518l-4.156-2.4v-5.712l4.156 2.4v5.712zm1.086-6.757l-5.604-3.236a.719.719 0 0 0-.723 0 .727.727 0 0 0-.362.628v7.384c0 .258.138.497.362.627l5.603 3.236a.73.73 0 0 0 .724-.001.727.727 0 0 0 .362-.628v-7.384a.722.722 0 0 0-.362-.627z"/><path fill="#F6F7FB" d="M168.594 212.477l5.604 3.236v-7.384l-5.604-3.237"/><path fill="url(#a)" d="M173.474 214.46l-4.156-2.4v-5.713l4.156 2.4v5.712zm1.085-6.758l-5.604-3.236a.724.724 0 0 0-1.086.627v7.384c0 .258.138.497.362.627l5.604 3.236a.716.716 0 0 0 .723 0 .725.725 0 0 0 .36-.627v-7.384c0-.26-.137-.5-.36-.628z"/><path fill="#F6F7FB" d="M158.306 187.58l5.604 3.237v-7.384l-5.604-3.236"/><path fill="url(#a)" d="M163.186 189.563l-4.156-2.4v-5.712l4.156 2.4v5.713zm1.086-6.757l-5.604-3.236a.719.719 0 0 0-.723 0 .727.727 0 0 0-.362.627v7.384c0 .26.138.5.362.628l5.603 3.236a.72.72 0 0 0 .724.001.724.724 0 0 0 .362-.627v-7.384a.726.726 0 0 0-.362-.627z"/><path fill="#F6F7FB" d="M168.594 193.522l5.604 3.237v-7.386l-5.604-3.236"/><path fill="url(#a)" d="M173.474 195.504l-4.156-2.4v-5.71l4.156 2.398v5.712zm1.085-6.757l-5.604-3.236a.73.73 0 0 0-.724 0 .727.727 0 0 0-.362.628v7.384c0 .26.138.498.362.628l5.604 3.236a.726.726 0 0 0 .723 0c.223-.13.36-.37.36-.627v-7.386a.726.726 0 0 0-.36-.627z"/><path fill="#F6F7FB" d="M178.88 199.464l5.605 3.236v-7.384l-5.604-3.237"/><path fill="url(#a)" d="M183.76 201.446l-4.155-2.4v-5.712l4.156 2.4v5.712zm1.087-6.757l-5.604-3.238a.719.719 0 0 0-.723 0 .727.727 0 0 0-.362.627v7.384c0 .258.138.497.362.627l5.603 3.237a.73.73 0 0 0 .724 0 .727.727 0 0 0 .362-.627v-7.384c0-.26-.14-.498-.363-.627z"/><path fill="#F6F7FB" d="M158.306 282.353l5.604 3.236v-7.385l-5.604-3.236"/><path fill="url(#a)" d="M163.186 284.335l-4.156-2.4v-5.712l4.156 2.4v5.712zm1.086-6.757l-5.604-3.236a.724.724 0 0 0-1.085.627v7.383c0 .26.138.498.362.627l5.603 3.236a.72.72 0 0 0 .724 0 .724.724 0 0 0 .362-.627v-7.385a.722.722 0 0 0-.362-.627z"/><path fill="#F6F7FB" d="M168.594 288.294l5.604 3.236v-7.384l-5.604-3.236"/><path fill="url(#a)" d="M173.474 290.276l-4.156-2.4v-5.712l4.156 2.4v5.712zm1.085-6.757l-5.604-3.237a.724.724 0 0 0-1.086.627v7.384c0 .26.138.498.362.627l5.604 3.237a.716.716 0 0 0 .723 0 .725.725 0 0 0 .36-.627v-7.384a.722.722 0 0 0-.36-.627z"/><path fill="#F6F7FB" d="M178.88 294.235l5.605 3.236v-7.383l-5.604-3.236"/><path fill="url(#a)" d="M183.76 296.217l-4.155-2.4v-5.712l4.156 2.4v5.712zm1.087-6.757l-5.604-3.236a.724.724 0 0 0-1.085.627v7.385c0 .26.138.498.362.627l5.603 3.236a.72.72 0 0 0 .724 0 .724.724 0 0 0 .362-.627v-7.383c0-.26-.14-.498-.363-.627z"/><path fill="#F6F7FB" d="M168.594 269.34l5.604 3.236v-7.384l-5.604-3.236"/><path fill="url(#a)" d="M173.474 271.322l-4.156-2.4v-5.712l4.156 2.4v5.712zm1.085-6.757l-5.604-3.237a.72.72 0 0 0-.724 0 .727.727 0 0 0-.362.628v7.384c0 .258.138.497.362.627l5.604 3.236a.726.726 0 0 0 .723 0c.223-.13.36-.37.36-.627v-7.384a.722.722 0 0 0-.36-.627z"/><path fill="#F6F7FB" d="M178.88 275.28l5.605 3.237v-7.384l-5.604-3.236"/><path fill="url(#a)" d="M183.76 277.263l-4.155-2.4v-5.712l4.156 2.4v5.713zm1.087-6.757l-5.604-3.236a.724.724 0 0 0-1.085.627v7.384c0 .26.138.498.362.628l5.603 3.236a.72.72 0 0 0 .724.001.724.724 0 0 0 .362-.627v-7.384c0-.26-.14-.498-.363-.627z"/><path fill="#F6F7FB" d="M158.306 263.4l5.604 3.235v-7.384l-5.604-3.236"/><path fill="url(#a)" d="M163.186 265.38l-4.156-2.4v-5.71l4.156 2.4v5.71zm1.086-6.757l-5.604-3.236a.719.719 0 0 0-.723 0 .727.727 0 0 0-.362.627v7.385c0 .257.138.496.362.626l5.603 3.236c.112.064.237.097.362.097s.25-.034.362-.098a.727.727 0 0 0 .362-.627v-7.384a.726.726 0 0 0-.362-.627z"/><path fill="#F6F7FB" d="M168.594 250.385l5.604 3.236v-7.383L168.594 243"/><path fill="url(#a)" d="M173.474 252.367l-4.156-2.4v-5.712l4.156 2.4v5.712zm1.085-6.757l-5.604-3.236a.72.72 0 0 0-.724 0 .727.727 0 0 0-.362.627v7.385c0 .26.138.498.362.627l5.604 3.236a.716.716 0 0 0 .723 0 .725.725 0 0 0 .36-.627v-7.383a.726.726 0 0 0-.36-.627z"/><path fill="#F6F7FB" d="M158.306 244.444l5.604 3.236v-7.384l-5.604-3.236"/><path fill="url(#a)" d="M163.186 246.426l-4.156-2.4v-5.712l4.156 2.4v5.712zm1.086-6.757l-5.604-3.237a.724.724 0 0 0-1.085.627v7.384c0 .26.138.498.362.627l5.603 3.237a.72.72 0 0 0 .724 0 .724.724 0 0 0 .362-.627v-7.384a.726.726 0 0 0-.362-.627z"/><path fill="#F6F7FB" d="M178.88 256.327l5.605 3.236v-7.385l-5.604-3.236"/><path fill="url(#a)" d="M183.76 258.308l-4.155-2.4v-5.71l4.156 2.398v5.712zm1.087-6.757l-5.604-3.235a.719.719 0 0 0-.723 0 .727.727 0 0 0-.362.627v7.384c0 .26.138.498.362.628l5.603 3.236a.73.73 0 0 0 .724 0 .727.727 0 0 0 .362-.627v-7.385a.729.729 0 0 0-.363-.627z"/><path fill="#F6F7FB" d="M193.853 240.608l5.603-3.236v-7.384l-5.603 3.236"/><path fill="url(#a)" d="M198.733 236.954l-4.156 2.4v-5.712l4.156-2.4v5.712zm1.085-7.593a.73.73 0 0 0-.724 0l-5.603 3.237a.727.727 0 0 0-.36.627v7.384a.722.722 0 0 0 1.085.627l5.603-3.236a.727.727 0 0 0 .362-.628v-7.384a.722.722 0 0 0-.362-.627z"/><path fill="#F6F7FB" d="M214.428 228.726l5.603-3.236v-7.384l-5.602 3.236"/><path fill="url(#a)" d="M219.308 225.072l-4.156 2.4v-5.712l4.156-2.4v5.712zm1.085-7.593a.72.72 0 0 0-.724 0l-5.604 3.235a.724.724 0 0 0-.362.627v7.384a.722.722 0 0 0 1.086.627l5.603-3.236a.724.724 0 0 0 .362-.627v-7.384a.722.722 0 0 0-.362-.627z"/><path fill="#F6F7FB" d="M204.14 234.667l5.604-3.236v-7.383l-5.604 3.236"/><path fill="url(#a)" d="M209.02 231.013l-4.156 2.4V227.7l4.156-2.4v5.713zm1.086-7.593a.72.72 0 0 0-.724 0l-5.604 3.236a.724.724 0 0 0-.362.627v7.384a.722.722 0 0 0 .724.724c.125 0 .25-.03.362-.096l5.604-3.236a.724.724 0 0 0 .362-.627v-7.383a.722.722 0 0 0-.362-.627z"/><path fill="#F6F7FB" d="M193.853 221.654l5.603-3.236v-7.384l-5.603 3.236"/><path fill="url(#a)" d="M198.733 218l-4.156 2.4v-5.712l4.156-2.4V218zm1.085-7.593a.72.72 0 0 0-.724 0l-5.603 3.236a.725.725 0 0 0-.36.627v7.384a.722.722 0 0 0 1.085.628l5.603-3.235a.724.724 0 0 0 .362-.627v-7.384a.722.722 0 0 0-.362-.627z"/><path fill="#F6F7FB" d="M214.428 209.772l5.603-3.236v-7.384l-5.602 3.236"/><path fill="url(#a)" d="M219.308 206.118l-4.156 2.4v-5.712l4.156-2.4v5.712zm1.085-7.593a.72.72 0 0 0-.724 0l-5.604 3.236a.727.727 0 0 0-.362.628v7.384a.726.726 0 0 0 .724.723.73.73 0 0 0 .362-.097l5.603-3.237a.727.727 0 0 0 .362-.627v-7.384a.722.722 0 0 0-.362-.627z"/><path fill="#F6F7FB" d="M204.14 215.713l5.604-3.236v-7.384l-5.604 3.236"/><path fill="url(#a)" d="M209.02 212.06l-4.156 2.4v-5.713l4.156-2.4v5.712zm1.086-7.594a.72.72 0 0 0-.724 0l-5.604 3.236a.724.724 0 0 0-.362.627v7.383a.724.724 0 0 0 1.086.627l5.604-3.236a.724.724 0 0 0 .362-.627v-7.384a.722.722 0 0 0-.362-.627z"/><path fill="#F6F7FB" d="M214.428 190.817l5.603-3.236v-7.383l-5.602 3.236"/><path fill="url(#a)" d="M219.308 187.163l-4.156 2.4v-5.712l4.156-2.4v5.713zm1.085-7.593a.72.72 0 0 0-.724 0l-5.604 3.236a.727.727 0 0 0-.362.627v7.384a.722.722 0 0 0 .724.724c.125 0 .25-.03.362-.096l5.603-3.236a.724.724 0 0 0 .362-.627v-7.383a.724.724 0 0 0-.362-.627z"/><path fill="#F6F7FB" d="M204.14 196.76l5.604-3.238v-7.384l-5.604 3.236"/><path fill="url(#a)" d="M209.02 193.104l-4.156 2.4v-5.712l4.156-2.4v5.712zm1.086-7.593a.73.73 0 0 0-.724 0l-5.604 3.237a.727.727 0 0 0-.362.627v7.385a.725.725 0 0 0 1.086.626l5.604-3.237a.727.727 0 0 0 .362-.628v-7.384a.726.726 0 0 0-.362-.627z"/><path fill="#F6F7FB" d="M193.853 202.7l5.603-3.236v-7.385l-5.603 3.236"/><path fill="url(#a)" d="M198.733 199.046l-4.156 2.4v-5.712l4.156-2.4v5.712zm1.085-7.594a.72.72 0 0 0-.724 0l-5.603 3.237a.72.72 0 0 0-.36.626v7.384a.726.726 0 0 0 .723.724.73.73 0 0 0 .362-.097l5.603-3.236a.724.724 0 0 0 .362-.626v-7.384a.725.725 0 0 0-.362-.628z"/><path fill="#F6F7FB" d="M214.428 285.59l5.603-3.237v-7.384l-5.602 3.235"/><path fill="url(#a)" d="M219.308 281.935l-4.156 2.4v-5.712l4.156-2.4v5.712zm1.085-7.593a.72.72 0 0 0-.724 0l-5.604 3.236a.724.724 0 0 0-.362.627v7.384a.723.723 0 0 0 1.086.626l5.603-3.236a.724.724 0 0 0 .362-.627v-7.384c0-.26-.138-.5-.362-.628z"/><path fill="#F6F7FB" d="M204.14 291.53l5.604-3.236v-7.384l-5.604 3.236"/><path fill="url(#a)" d="M209.02 287.876l-4.156 2.4v-5.712l4.156-2.4v5.712zm1.086-7.593a.72.72 0 0 0-.724 0l-5.604 3.236a.72.72 0 0 0-.362.626v7.384a.722.722 0 0 0 1.086.627l5.604-3.236a.72.72 0 0 0 .362-.626v-7.384a.722.722 0 0 0-.362-.627z"/><path fill="#F6F7FB" d="M193.853 297.47l5.603-3.235v-7.384l-5.603 3.237"/><path fill="url(#a)" d="M198.733 293.817l-4.156 2.4v-5.712l4.156-2.4v5.712zm1.085-7.593a.72.72 0 0 0-.724 0l-5.603 3.236a.725.725 0 0 0-.36.627v7.384a.723.723 0 0 0 1.085.628l5.603-3.236a.724.724 0 0 0 .362-.627v-7.384a.723.723 0 0 0-.362-.626z"/><path fill="#F6F7FB" d="M204.14 272.576l5.604-3.236v-7.384l-5.604 3.236"/><path fill="url(#a)" d="M209.02 268.922l-4.156 2.4v-5.712l4.156-2.4v5.712zm1.086-7.593a.72.72 0 0 0-.724 0l-5.604 3.235a.724.724 0 0 0-.362.627v7.384a.726.726 0 0 0 1.086.627l5.604-3.236a.727.727 0 0 0 .362-.627v-7.384a.722.722 0 0 0-.362-.627z"/><path fill="#F6F7FB" d="M193.853 278.517l5.603-3.236v-7.383l-5.603 3.236"/><path fill="url(#a)" d="M198.733 274.863l-4.156 2.4v-5.712l4.156-2.4v5.713zm1.085-7.593a.72.72 0 0 0-.724 0l-5.603 3.236a.725.725 0 0 0-.36.627v7.384a.722.722 0 0 0 1.085.628l5.603-3.236a.724.724 0 0 0 .362-.627v-7.383a.722.722 0 0 0-.362-.627z"/><path fill="#F6F7FB" d="M214.428 266.635l5.603-3.236v-7.386l-5.602 3.237"/><path fill="url(#a)" d="M219.308 262.98l-4.156 2.4v-5.71l4.156-2.4v5.71zm1.085-7.593a.72.72 0 0 0-.724 0l-5.604 3.236a.727.727 0 0 0-.362.627v7.385a.726.726 0 0 0 1.086.626l5.603-3.236a.727.727 0 0 0 .362-.627v-7.385a.725.725 0 0 0-.362-.628z"/><path fill="#F6F7FB" d="M204.14 253.62l5.604-3.235V243l-5.604 3.237"/><path fill="url(#a)" d="M209.02 249.967l-4.156 2.4v-5.712l4.156-2.4v5.712zm1.086-7.593a.72.72 0 0 0-.724 0l-5.604 3.236a.727.727 0 0 0-.362.627v7.384a.722.722 0 0 0 1.086.628l5.604-3.236a.724.724 0 0 0 .362-.627V243a.724.724 0 0 0-.362-.626z"/><path fill="#F6F7FB" d="M214.428 247.68l5.603-3.236v-7.384l-5.602 3.236"/><path fill="url(#a)" d="M219.308 244.026l-4.156 2.4v-5.712l4.156-2.4v5.712zm1.085-7.593a.72.72 0 0 0-.724 0l-5.604 3.236a.724.724 0 0 0-.362.626v7.384a.722.722 0 0 0 1.086.627l5.603-3.236a.72.72 0 0 0 .362-.626v-7.384a.722.722 0 0 0-.362-.627z"/><path fill="#F6F7FB" d="M193.853 259.563l5.603-3.236v-7.385l-5.603 3.236"/><path fill="url(#a)" d="M198.733 255.908l-4.156 2.4v-5.712l4.156-2.4v5.712zm1.085-7.593a.72.72 0 0 0-.724 0l-5.603 3.236a.727.727 0 0 0-.36.628v7.385a.726.726 0 0 0 .723.724.73.73 0 0 0 .362-.097l5.603-3.237a.724.724 0 0 0 .362-.627v-7.384a.726.726 0 0 0-.362-.627z"/><path fill="#CFDEF8" d="M189.17 143.745c-4.996 0-9.046 1.987-9.046 4.44 0 2.45 4.05 4.44 9.045 4.44 4.994 0 9.044-1.99 9.044-4.44 0-2.453-4.05-4.44-9.045-4.44"/><path fill="#CFDEF8" d="M195.246 150.674c-1.61.79-3.77 1.226-6.077 1.226-2.31 0-4.467-.435-6.078-1.226-1.426-.7-2.244-1.608-2.244-2.49 0-.882.818-1.79 2.244-2.49 1.61-.79 3.77-1.225 6.077-1.225 2.306 0 4.465.434 6.076 1.225 1.426.7 2.244 1.607 2.244 2.49 0 .88-.818 1.79-2.244 2.49m.637-6.28c-1.805-.886-4.19-1.375-6.714-1.375-2.525 0-4.91.49-6.716 1.375-1.97.967-3.054 2.313-3.054 3.79 0 1.476 1.085 2.822 3.054 3.79 1.806.885 4.19 1.373 6.715 1.373 2.523 0 4.908-.488 6.713-1.374 1.97-.967 3.054-2.313 3.054-3.79 0-1.476-1.084-2.822-3.054-3.79"/><path fill="#FFF" d="M189.232 45.398c-19.197 0-34.76 15.566-34.76 34.768 0 29.106 34.76 67.22 34.76 67.22s34.76-38.114 34.76-67.22c0-19.202-15.563-34.768-34.76-34.768"/><path fill="url(#a)" d="M217.898 102.655c-2.864 6.74-6.86 14.014-11.88 21.62-7.34 11.124-14.765 19.736-16.786 22.024-2.022-2.29-9.447-10.9-16.787-22.026-5.02-7.605-9.016-14.88-11.88-21.62-3.562-8.383-5.37-15.95-5.37-22.488 0-9.093 3.542-17.643 9.97-24.073 6.428-6.43 14.975-9.97 24.067-9.97 9.09 0 17.638 3.54 24.066 9.97 6.43 6.43 9.97 14.98 9.97 24.073 0 6.54-1.808 14.105-5.37 22.49m-3.576-47.587a35.35 35.35 0 0 0-11.28-7.607 35.258 35.258 0 0 0-13.81-2.79 35.39 35.39 0 0 0-25.092 10.396 35.398 35.398 0 0 0-7.603 11.28 35.293 35.293 0 0 0-2.788 13.816c0 6.737 1.845 14.497 5.487 23.066 2.9 6.822 6.94 14.177 12.01 21.858 8.622 13.063 17.363 22.69 17.45 22.784a.724.724 0 0 0 1.069.001c.088-.095 8.828-9.72 17.45-22.784 5.07-7.68 9.11-15.036 12.01-21.858 3.642-8.57 5.49-16.33 5.49-23.066a35.385 35.385 0 0 0-10.394-25.095"/><path fill="#F6F7FB" d="M189.232 61.773c-8.422 0-15.25 6.83-15.25 15.254s6.828 15.253 15.25 15.253 15.25-6.83 15.25-15.253c0-8.425-6.828-15.254-15.25-15.254"/><path fill="url(#a)" d="M189.232 91.556c-8.01 0-14.526-6.518-14.526-14.53 0-8.01 6.516-14.53 14.526-14.53s14.525 6.52 14.525 14.53c0 8.012-6.516 14.53-14.525 14.53m0-30.507c-8.808 0-15.974 7.167-15.974 15.977s7.166 15.977 15.974 15.977c8.807 0 15.973-7.167 15.973-15.977S198.04 61.05 189.232 61.05"/></g></svg>