<svg width="46" height="46" viewBox="0 0 46 46" xmlns="http://www.w3.org/2000/svg" xmlns:xlink="http://www.w3.org/1999/xlink"><title>A2BD7591-17DD-4974-B3E8-374C5FDEF660</title><defs><linearGradient x1="12.957%" y1="80.245%" y2="15.021%" id="a"><stop stop-color="#F8A56F" offset="0%"/><stop stop-color="#F26C51" offset="100%"/></linearGradient><path d="M7.917 18.667c3.11-3.96 10.325-9.673 17.226-9.102 5.81.48 13.659-1.273 18.722 9.102 5.063 10.374 1.906 22.51 1.906 22.51L6.377 37.184s-1.57-14.557 1.54-18.516z" id="b"/></defs><g fill="none" fill-rule="evenodd"><path d="M23.162 20.869c.408-.223.889-.075 1.286.1.786.34 1.584.655 2.368 1.001.395.173.776.43.985.818.514.905.736 1.94.897 2.958l.11.973c.05.643.072 1.287.065 1.932a28.81 28.81 0 0 1-.068 1.572c-.39 4.862-1.836 9.596-3.829 14.033a42.153 42.153 0 0 1-2.487 4.638c-.174.27-.35.537-.524.807a28.909 28.909 0 0 1-6.442 6.925c-.431.335-.886.642-1.323.973-1.003.594-1.993 1.276-3.142 1.558-.837.04-1.608-.378-2.367-.684-.585-.27-1.228-.442-1.745-.84-.282-.258-.304-.65-.214-.997.975-2.322 2.116-4.574 3.165-6.862.245-.554.626-1.293 1.353-1.187.955.201 1.82.703 2.732 1.04.936-1.106 1.687-2.36 2.425-3.606.173-.293.347-.587.515-.885 1.757-3.228 3.307-6.577 4.488-10.06.155-.505.334-1.005.44-1.523.245-.79.446-1.603.52-2.426-1-.457-2.037-.846-2.984-1.407-.292-.18-.295-.59-.17-.871.317-.707.639-1.41.956-2.116.144-.32.284-.64.427-.96.548-1.22 1.13-2.423 1.684-3.639.23-.455.422-.985.879-1.265zm.155 1.408a206.035 206.035 0 0 0-3.108 6.8c.864.413 1.738.805 2.618 1.187.361.188.607.607.548 1.016-.13.971-.376 1.927-.636 2.867-1.26 4.085-3.063 7.98-5.098 11.733-.873 1.48-1.755 2.974-2.834 4.322-.295.405-.89.505-1.32.268-.791-.291-1.545-.714-2.357-.927-.571 1.068-1.042 2.19-1.573 3.276-.625 1.388-1.37 2.727-1.888 4.157.748.348 1.523.639 2.283.962.451.173.985.343 1.432.064 2.374-1.1 4.445-2.762 6.313-4.576 3.375-3.36 5.722-7.608 7.453-12.007 1.522-3.987 2.616-8.186 2.762-12.465.025-1.848-.053-3.77-.807-5.488-.14-.371-.495-.575-.844-.717-.847-.357-1.698-.702-2.55-1.047-.222.111-.267.382-.394.575z" fill="url(#a)" transform="scale(-1 1) rotate(20 28.356 -65.875)"/><g transform="translate(4.83 -10)"><mask id="c" fill="#fff"><use xlink:href="#b"/></mask><g mask="url(#c)"><g transform="translate(4.696 10.783)"><path d="M10.249 22.545v-.748l3.116-2.748c.67-.59 1.137-1.08 1.398-1.473.262-.392.393-.801.393-1.227 0-.49-.168-.887-.503-1.19-.335-.303-.744-.454-1.227-.454a2.17 2.17 0 0 0-1.233.356c-.355.237-.713.61-1.073 1.117l-.712-.516c.418-.621.86-1.082 1.325-1.38.466-.299 1.055-.448 1.767-.448.768 0 1.404.231 1.907.693.503.462.755 1.05.755 1.76 0 .59-.16 1.113-.479 1.571-.319.459-.883 1.047-1.693 1.767l-2.293 2.037h4.55v.883H10.25zm12.058 0V20.51h-4.526l-.245-.7 4.857-5.914h.847V19.7h1.337v.81H23.24v2.036h-.933zM18.701 19.7h3.606v-4.43l-3.606 4.43z" fill="url(#a)"/><path fill="#F8A56F" d="M18.113.674h1.006v5.391h-1.006zM31.53 18.196h5.367v1.011H31.53z"/><ellipse stroke="url(#a)" stroke-width=".892" cx="18.784" cy="18.87" rx="18.784" ry="18.87"/></g></g></g><path fill="#F8A56F" d="M27.639 30.435h1.006v2.696h-1.006z"/></g></svg>