<svg width="52" height="40" viewBox="0 0 52 40" xmlns="http://www.w3.org/2000/svg"><title>B997DC70-7F38-4B4F-BFB3-0B7508B87A04</title><defs><linearGradient x1="12.957%" y1="80.245%" y2="15.021%" id="a"><stop stop-color="#F8A56F" offset="0%"/><stop stop-color="#F26C51" offset="100%"/></linearGradient></defs><g transform="translate(-602 -579)" fill="url(#a)" fill-rule="evenodd"><path d="M603.159 610.193l3.135 3.076a.373.373 0 0 1 .106.329l-.74 4.343 3.875-2.05a.364.364 0 0 1 .342 0l3.876 2.05-.741-4.343a.373.373 0 0 1 .106-.329l3.135-3.076-4.333-.634a.368.368 0 0 1-.277-.202l-1.937-3.952-1.938 3.952a.366.366 0 0 1-.277.202l-4.332.634zm11.082 8.796a.37.37 0 0 1-.17-.042l-4.365-2.31-4.364 2.31a.365.365 0 0 1-.387-.029.372.372 0 0 1-.147-.362l.834-4.892-3.53-3.464a.372.372 0 0 1 .203-.632l4.879-.714 2.182-4.45a.367.367 0 0 1 .66 0l2.181 4.45 4.88.714a.373.373 0 0 1 .204.632l-3.53 3.464.833 4.892a.37.37 0 0 1-.363.433zm7.003-8.796l3.135 3.076a.373.373 0 0 1 .106.329l-.74 4.343 3.875-2.05a.364.364 0 0 1 .342 0l3.876 2.05-.741-4.343a.373.373 0 0 1 .106-.329l3.136-3.076-4.334-.634a.367.367 0 0 1-.276-.202l-1.938-3.952-1.937 3.952a.367.367 0 0 1-.277.202l-4.333.634zm11.083 8.796a.37.37 0 0 1-.171-.042l-4.365-2.31-4.364 2.31a.365.365 0 0 1-.387-.029.372.372 0 0 1-.147-.362l.834-4.892-3.53-3.464a.372.372 0 0 1 .203-.632l4.88-.714 2.181-4.45c.124-.252.537-.252.66 0l2.182 4.45 4.88.714a.37.37 0 0 1 .203.632l-3.53 3.464.833 4.892a.37.37 0 0 1-.362.433zm7.003-8.796l3.134 3.076a.373.373 0 0 1 .106.329l-.74 4.343 3.875-2.05a.364.364 0 0 1 .343 0l3.875 2.05-.74-4.343a.375.375 0 0 1 .105-.329l3.136-3.076-4.333-.634a.367.367 0 0 1-.277-.202l-1.938-3.952-1.937 3.952a.367.367 0 0 1-.277.202l-4.333.634zm11.082 8.796a.37.37 0 0 1-.171-.042l-4.365-2.31-4.363 2.31a.365.365 0 0 1-.388-.029.372.372 0 0 1-.146-.362l.833-4.892-3.53-3.464a.372.372 0 0 1 .203-.632l4.88-.714 2.182-4.45c.123-.252.536-.252.66 0l2.181 4.45 4.88.714a.37.37 0 0 1 .204.632l-3.531 3.464.834 4.892a.372.372 0 0 1-.363.433zm-26.675-19.967a.37.37 0 0 1-.368-.37c0-.204.164-.37.367-.37l11.932-.02c.258 0 .547-.45.547-1.052 0-.627-.378-1.08-.633-1.08l-.432-.019a.38.38 0 0 1-.364-.38.361.361 0 0 1 .358-.363h.384c.324 0 .687-.503.687-1.226 0-.726-.368-1.29-.685-1.29l-.406-.02a.369.369 0 0 1-.348-.38.368.368 0 0 1 .368-.36h.384c.324 0 .687-.49.687-1.195 0-.714-.36-1.269-.668-1.269h-.398a.368.368 0 0 1-.36-.288.395.395 0 0 1 .07-.324.374.374 0 0 1 .285-.15h.384c.372 0 .687-.48.687-1.049 0-.567-.315-1.047-.687-1.047h-4.999a.367.367 0 0 1-.294-.148.374.374 0 0 1-.059-.326c.025-.086.05-.16.066-.193.125-.355 1.218-4.073 1.184-4.544 0-.018-.002-.048 0-.066.055-.753-.064-1.313-.335-1.576a.641.641 0 0 0-.542-.171c-.304.033-.567.23-.636.394-.556 2.003-1.311 3.345-1.862 4.325-.137.247-1.285 2.603-1.352 2.923-.002.204-.163.329-.365.329h-2.9a.37.37 0 0 1-.368-.37.37.37 0 0 1 .368-.37h2.633c.326-.883 1.331-2.856 1.343-2.877.533-.948 1.263-2.244 1.81-4.205.2-.48.707-.827 1.251-.886.44-.046.831.083 1.13.375.435.421.628 1.161.56 2.14.019.661-.809 3.45-1.133 4.505h4.5c.784 0 1.423.802 1.423 1.788 0 .594-.232 1.122-.587 1.447.355.365.587.961.587 1.633 0 .664-.234 1.24-.598 1.587.36.367.598.974.598 1.658 0 .664-.227 1.242-.581 1.596.345.337.58.883.58 1.472 0 1.006-.563 1.793-1.282 1.793l-11.93.02h-.001z"/><path d="M623.415 600.324h-5.096a.37.37 0 0 1-.368-.37.37.37 0 0 1 .368-.371h4.728v-13.331l-4.727.012h-.001a.369.369 0 0 1-.368-.37.37.37 0 0 1 .367-.37l5.096-.014a.37.37 0 0 1 .369.371v14.072a.37.37 0 0 1-.368.37"/><path d="M603.159 610.193l3.135 3.076a.373.373 0 0 1 .106.329l-.74 4.343 3.875-2.05a.364.364 0 0 1 .342 0l3.876 2.05-.741-4.343a.373.373 0 0 1 .106-.329l3.135-3.076-4.333-.634a.368.368 0 0 1-.277-.202l-1.937-3.952-1.938 3.952a.366.366 0 0 1-.277.202l-4.332.634zm11.082 8.796a.37.37 0 0 1-.17-.042l-4.365-2.31-4.364 2.31a.365.365 0 0 1-.387-.029.372.372 0 0 1-.147-.362l.834-4.892-3.53-3.464a.372.372 0 0 1 .203-.632l4.879-.714 2.182-4.45a.367.367 0 0 1 .66 0l2.181 4.45 4.88.714a.373.373 0 0 1 .204.632l-3.53 3.464.833 4.892a.37.37 0 0 1-.363.433zm7.003-8.796l3.135 3.076a.373.373 0 0 1 .106.329l-.74 4.343 3.875-2.05a.364.364 0 0 1 .342 0l3.876 2.05-.741-4.343a.373.373 0 0 1 .106-.329l3.136-3.076-4.334-.634a.367.367 0 0 1-.276-.202l-1.938-3.952-1.937 3.952a.367.367 0 0 1-.277.202l-4.333.634zm11.083 8.796a.37.37 0 0 1-.171-.042l-4.365-2.31-4.364 2.31a.365.365 0 0 1-.387-.029.372.372 0 0 1-.147-.362l.834-4.892-3.53-3.464a.372.372 0 0 1 .203-.632l4.88-.714 2.181-4.45c.124-.252.537-.252.66 0l2.182 4.45 4.88.714a.37.37 0 0 1 .203.632l-3.53 3.464.833 4.892a.37.37 0 0 1-.362.433zm7.003-8.796l3.134 3.076a.373.373 0 0 1 .106.329l-.74 4.343 3.875-2.05a.364.364 0 0 1 .343 0l3.875 2.05-.74-4.343a.375.375 0 0 1 .105-.329l3.136-3.076-4.333-.634a.367.367 0 0 1-.277-.202l-1.938-3.952-1.937 3.952a.367.367 0 0 1-.277.202l-4.333.634zm11.082 8.796a.37.37 0 0 1-.171-.042l-4.365-2.31-4.363 2.31a.365.365 0 0 1-.388-.029.372.372 0 0 1-.146-.362l.833-4.892-3.53-3.464a.372.372 0 0 1 .203-.632l4.88-.714 2.182-4.45c.123-.252.536-.252.66 0l2.181 4.45 4.88.714a.37.37 0 0 1 .204.632l-3.531 3.464.834 4.892a.372.372 0 0 1-.363.433zm-26.675-19.967a.37.37 0 0 1-.368-.37c0-.204.164-.37.367-.37l11.932-.02c.258 0 .547-.45.547-1.052 0-.627-.378-1.08-.633-1.08l-.432-.019a.38.38 0 0 1-.364-.38.361.361 0 0 1 .358-.363h.384c.324 0 .687-.503.687-1.226 0-.726-.368-1.29-.685-1.29l-.406-.02a.369.369 0 0 1-.348-.38.368.368 0 0 1 .368-.36h.384c.324 0 .687-.49.687-1.195 0-.714-.36-1.269-.668-1.269h-.398a.368.368 0 0 1-.36-.288.395.395 0 0 1 .07-.324.374.374 0 0 1 .285-.15h.384c.372 0 .687-.48.687-1.049 0-.567-.315-1.047-.687-1.047h-4.999a.367.367 0 0 1-.294-.148.374.374 0 0 1-.059-.326c.025-.086.05-.16.066-.193.125-.355 1.218-4.073 1.184-4.544 0-.018-.002-.048 0-.066.055-.753-.064-1.313-.335-1.576a.641.641 0 0 0-.542-.171c-.304.033-.567.23-.636.394-.556 2.003-1.311 3.345-1.862 4.325-.137.247-1.285 2.603-1.352 2.923-.002.204-.163.329-.365.329h-2.9a.37.37 0 0 1-.368-.37.37.37 0 0 1 .368-.37h2.633c.326-.883 1.331-2.856 1.343-2.877.533-.948 1.263-2.244 1.81-4.205.2-.48.707-.827 1.251-.886.44-.046.831.083 1.13.375.435.421.628 1.161.56 2.14.019.661-.809 3.45-1.133 4.505h4.5c.784 0 1.423.802 1.423 1.788 0 .594-.232 1.122-.587 1.447.355.365.587.961.587 1.633 0 .664-.234 1.24-.598 1.587.36.367.598.974.598 1.658 0 .664-.227 1.242-.581 1.596.345.337.58.883.58 1.472 0 1.006-.563 1.793-1.282 1.793l-11.93.02h-.001z"/><path d="M623.415 600.324h-5.096a.37.37 0 0 1-.368-.37.37.37 0 0 1 .368-.371h4.728v-13.331l-4.727.012h-.001a.369.369 0 0 1-.368-.37.37.37 0 0 1 .367-.37l5.096-.014a.37.37 0 0 1 .369.371v14.072a.37.37 0 0 1-.368.37"/></g></svg>