<svg width="64" height="61" viewBox="0 0 64 61" xmlns="http://www.w3.org/2000/svg"><title>F6A9F481-A6DB-41A6-90E4-3D92A9DF4E49</title><defs><linearGradient x1="12.957%" y1="80.245%" y2="15.021%" id="a"><stop stop-color="#F8A56F" offset="0%"/><stop stop-color="#F26C51" offset="100%"/></linearGradient><linearGradient x1="50%" y1="0%" x2="50%" y2="100%" id="b"><stop stop-color="#EAF1FD" offset="0%"/><stop stop-color="#CFDEF8" offset="100%"/></linearGradient><linearGradient x1="50%" y1="0%" x2="50%" y2="100%" id="c"><stop stop-color="#FFF" offset="0%"/><stop stop-color="#FFF" offset="100%"/></linearGradient></defs><g fill="none" fill-rule="evenodd"><path d="M33.826 9.562c0 5.282-4.31 9.563-9.627 9.563-5.318 0-9.627-4.281-9.627-9.563C14.572 4.281 18.882 0 24.2 0c5.317 0 9.627 4.281 9.627 9.562z" fill="#F6F7FB"/><path d="M13.184 30.44c0 3.361-2.744 6.086-6.129 6.086-3.386 0-6.13-2.725-6.13-6.087 0-3.363 2.744-6.087 6.13-6.087 3.385 0 6.129 2.724 6.129 6.087" fill="#CFDEF8"/><path d="M58.98 14.703a2.766 2.766 0 0 1-2.776 2.757 2.766 2.766 0 0 1-2.775-2.757 2.766 2.766 0 0 1 2.775-2.757 2.766 2.766 0 0 1 2.775 2.757" fill="#F6F7FB"/><path d="M53.73 33.368c0-2.414-6.265-4.37-13.994-4.37-7.728 0-13.992 1.956-13.992 4.37v7.345c0 2.413 6.264 4.368 13.992 4.368 7.729 0 13.994-1.955 13.994-4.368v-7.345z" fill="#BFD9E0"/><path d="M39.737 29.32c-8.177 0-13.67 2.093-13.67 4.048 0 1.954 5.493 4.046 13.67 4.046 8.176 0 13.67-2.092 13.67-4.046 0-1.955-5.494-4.049-13.67-4.049m0 8.737c-8.028 0-14.316-2.06-14.316-4.688 0-2.63 6.288-4.69 14.316-4.69 8.027 0 14.316 2.06 14.316 4.69 0 2.629-6.289 4.688-14.316 4.688" fill="#FFF"/><path d="M39.737 29.32c-8.177 0-13.67 2.093-13.67 4.048v7.345c0 1.954 5.493 4.047 13.67 4.047 8.176 0 13.67-2.093 13.67-4.047v-7.345c0-1.955-5.494-4.049-13.67-4.049m0 16.083c-8.028 0-14.316-2.06-14.316-4.689v-7.345c0-2.63 6.288-4.69 14.316-4.69 8.027 0 14.316 2.06 14.316 4.69v7.345c0 2.63-6.289 4.69-14.316 4.69" fill="#FFF"/><path d="M51.36 26.856c0-1.91-5.204-3.457-11.624-3.457-6.418 0-11.622 1.548-11.622 3.457v5.813c0 1.909 5.204 3.456 11.622 3.456 6.42 0 11.623-1.547 11.623-3.456v-5.813z" fill="#FFF"/><path d="M53.73 21.652c0-2.413-6.265-4.368-13.994-4.368-7.728 0-13.992 1.955-13.992 4.368v7.346c0 2.413 6.264 4.37 13.992 4.37 7.729 0 13.994-1.957 13.994-4.37v-7.346z" fill="#CFDEF8"/><path d="M51.36 14.795c0-1.91-5.204-3.457-11.624-3.457-6.418 0-11.622 1.548-11.622 3.457v5.813c0 1.909 5.204 3.456 11.622 3.456 6.42 0 11.623-1.547 11.623-3.456v-5.813z" fill="#FFF"/><path d="M39.737 17.605c-8.177 0-13.67 2.093-13.67 4.047 0 1.955 5.493 4.047 13.67 4.047 8.176 0 13.67-2.092 13.67-4.047 0-1.954-5.494-4.047-13.67-4.047m0 8.736c-8.028 0-14.316-2.06-14.316-4.689s6.288-4.689 14.316-4.689c8.027 0 14.316 2.06 14.316 4.69 0 2.629-6.289 4.688-14.316 4.688" fill="#FFF"/><path d="M39.737 17.605c-8.177 0-13.67 2.093-13.67 4.047v7.346c0 1.955 5.493 4.049 13.67 4.049 8.176 0 13.67-2.094 13.67-4.049v-7.346c0-1.954-5.494-4.047-13.67-4.047m0 16.084c-8.028 0-14.316-2.06-14.316-4.69v-7.347c0-2.629 6.288-4.689 14.316-4.689 8.027 0 14.316 2.06 14.316 4.69v7.345c0 2.63-6.289 4.69-14.316 4.69" fill="#FFF"/><path d="M53.73 9.937c0-2.412-6.265-4.368-13.994-4.368-7.728 0-13.992 1.956-13.992 4.368v7.347c0 2.412 6.264 4.368 13.992 4.368 7.729 0 13.994-1.956 13.994-4.368V9.937z" fill="#CFDEF8"/><path d="M39.737 5.89c-8.177 0-13.67 2.093-13.67 4.047 0 1.955 5.493 4.048 13.67 4.048 8.176 0 13.67-2.093 13.67-4.048 0-1.954-5.494-4.047-13.67-4.047m0 8.737c-8.028 0-14.316-2.06-14.316-4.69 0-2.629 6.288-4.689 14.316-4.689 8.027 0 14.316 2.06 14.316 4.689 0 2.63-6.289 4.69-14.316 4.69" fill="#FFF"/><path d="M39.737 5.89c-8.177 0-13.67 2.093-13.67 4.047v7.347c0 1.955 5.493 4.047 13.67 4.047 8.176 0 13.67-2.092 13.67-4.047V9.937c0-1.954-5.494-4.047-13.67-4.047m0 16.083c-8.028 0-14.316-2.06-14.316-4.689V9.937c0-2.629 6.288-4.689 14.316-4.689 8.027 0 14.316 2.06 14.316 4.689v7.347c0 2.63-6.289 4.69-14.316 4.69" fill="#FFF"/><path d="M38.812 43.533c0-2.413-6.266-4.37-13.994-4.37-7.729 0-13.993 1.957-13.993 4.37v7.346c0 2.412 6.264 4.368 13.993 4.368 7.728 0 13.994-1.956 13.994-4.368v-7.346z" fill="#F6F7FB"/><path d="M24.818 39.485c-8.176 0-13.67 2.093-13.67 4.048s5.494 4.046 13.67 4.046c8.177 0 13.67-2.091 13.67-4.046s-5.493-4.048-13.67-4.048m0 8.737c-8.028 0-14.316-2.06-14.316-4.69 0-2.63 6.288-4.689 14.316-4.689 8.029 0 14.317 2.06 14.317 4.69 0 2.629-6.288 4.689-14.317 4.689" fill="url(#a)"/><path d="M24.818 39.485c-8.176 0-13.67 2.093-13.67 4.048v7.346c0 1.955 5.494 4.047 13.67 4.047 8.177 0 13.67-2.092 13.67-4.047v-7.346c0-1.955-5.493-4.048-13.67-4.048m0 16.084c-8.028 0-14.316-2.06-14.316-4.69v-7.346c0-2.63 6.288-4.69 14.316-4.69 8.029 0 14.317 2.06 14.317 4.69v7.346c0 2.63-6.288 4.69-14.317 4.69" fill="url(#a)"/><path d="M36.44 37.02c0-1.908-5.203-3.456-11.622-3.456-6.418 0-11.622 1.548-11.622 3.457v5.813c0 1.91 5.204 3.457 11.622 3.457 6.42 0 11.623-1.548 11.623-3.457v-5.813z" fill="#FFF"/><path d="M38.812 31.817c0-2.411-6.266-4.368-13.994-4.368-7.729 0-13.993 1.957-13.993 4.368v7.347c0 2.413 6.264 4.369 13.993 4.369 7.728 0 13.994-1.956 13.994-4.37v-7.346z" fill="#F6F7FB"/><path d="M36.44 24.96c0-1.909-5.203-3.457-11.622-3.457-6.418 0-11.622 1.548-11.622 3.457v5.814c0 1.909 5.204 3.457 11.622 3.457 6.42 0 11.623-1.548 11.623-3.457V24.96z" fill="#FFF"/><path d="M24.818 27.77c-8.176 0-13.67 2.093-13.67 4.048 0 1.954 5.494 4.046 13.67 4.046 8.177 0 13.67-2.092 13.67-4.046 0-1.955-5.493-4.048-13.67-4.048m0 8.736c-8.028 0-14.316-2.06-14.316-4.688 0-2.63 6.288-4.69 14.316-4.69 8.029 0 14.317 2.06 14.317 4.69 0 2.628-6.288 4.688-14.317 4.688" fill="url(#a)"/><path d="M24.818 27.77c-8.176 0-13.67 2.093-13.67 4.048v7.346c0 1.955 5.494 4.048 13.67 4.048 8.177 0 13.67-2.093 13.67-4.048v-7.346c0-1.955-5.493-4.048-13.67-4.048m0 16.084c-8.028 0-14.316-2.06-14.316-4.69v-7.346c0-2.63 6.288-4.69 14.316-4.69 8.029 0 14.317 2.06 14.317 4.69v7.346c0 2.63-6.288 4.69-14.317 4.69" fill="url(#a)"/><path d="M38.812 20.103c0-2.413-6.266-4.368-13.994-4.368-7.729 0-13.993 1.955-13.993 4.368v7.346c0 2.413 6.264 4.368 13.993 4.368 7.728 0 13.994-1.955 13.994-4.368v-7.346z" fill="#F6F7FB"/><path d="M24.818 16.056c-8.176 0-13.67 2.092-13.67 4.047 0 1.955 5.494 4.048 13.67 4.048 8.177 0 13.67-2.093 13.67-4.048s-5.493-4.047-13.67-4.047m0 8.737c-8.028 0-14.316-2.06-14.316-4.69 0-2.63 6.288-4.69 14.316-4.69 8.029 0 14.317 2.06 14.317 4.69 0 2.63-6.288 4.69-14.317 4.69" fill="url(#a)"/><path d="M24.818 16.056c-8.176 0-13.67 2.092-13.67 4.047v7.346c0 1.955 5.494 4.047 13.67 4.047 8.177 0 13.67-2.092 13.67-4.047v-7.346c0-1.955-5.493-4.047-13.67-4.047m0 16.083c-8.028 0-14.316-2.06-14.316-4.69v-7.346c0-2.63 6.288-4.69 14.316-4.69 8.029 0 14.317 2.06 14.317 4.69v7.346c0 2.63-6.288 4.69-14.317 4.69" fill="url(#a)"/><path d="M58.035 34.283a13.996 13.996 0 0 1-11.315-5.74l-.144-.063a14 14 0 0 1-11.363 5.803c-.176 0-.345-.02-.519-.026v13.164c0 6.544 5.341 11.85 11.93 11.85 6.589 0 11.93-5.306 11.93-11.85V34.257c-.173.007-.343.026-.519.026" fill="url(#b)"/><path d="M35.017 34.598V47.42c0 6.357 5.207 11.529 11.607 11.529 6.4 0 11.607-5.172 11.607-11.53v-12.82a3.29 3.29 0 0 1-.196.006 14.407 14.407 0 0 1-11.41-5.648 14.402 14.402 0 0 1-11.412 5.648 3.29 3.29 0 0 1-.196-.006m11.607 24.994c-6.757 0-12.253-5.46-12.253-12.171V33.924l.334.012.22.013c.096.006.19.013.288.013 4.38 0 8.529-2.12 11.101-5.669l.155-.213.462.207.05.068a13.757 13.757 0 0 0 11.054 5.607c.098 0 .193-.007.288-.013.073-.005.146-.01.22-.013l.334-.012v13.497c0 6.711-5.496 12.17-12.253 12.17" fill="url(#a)"/><path d="M37.352 36.784v10.638c0 5.078 4.16 9.21 9.273 9.21 5.112 0 9.272-4.132 9.272-9.21V36.784a16.844 16.844 0 0 1-9.271-4.373 16.822 16.822 0 0 1-9.274 4.373m9.273 20.49c-5.47 0-9.92-4.42-9.92-9.852V36.214l.287-.033a16.171 16.171 0 0 0 9.408-4.444l.226-.22.225.22a16.189 16.189 0 0 0 9.406 4.444l.287.033v11.208c0 5.432-4.45 9.851-9.92 9.851" fill="#FFF"/><path d="M49.91 44.58h-.647v-2.387c0-1.21-.99-2.194-2.209-2.194-1.218 0-2.21.985-2.21 2.194v2.386h-.646v-2.386c0-1.563 1.281-2.836 2.856-2.836 1.574 0 2.855 1.273 2.855 2.836v2.386z" fill="url(#a)"/><path d="M43.223 44.752v3.032c0 2.093 1.723 3.805 3.831 3.805 2.107 0 3.83-1.712 3.83-3.805v-3.032h-7.66z" fill="url(#c)"/><path d="M43.547 45.073v2.711c0 1.922 1.573 3.484 3.507 3.484 1.934 0 3.507-1.562 3.507-3.484v-2.71h-7.014zm3.507 6.837c-2.29 0-4.154-1.85-4.154-4.126v-3.353h8.308v3.353c0 2.275-1.863 4.126-4.154 4.126z" fill="url(#a)"/><path fill="url(#a)" d="M46.731 49.59h.646v-2.714h-.646z"/><path d="M63.836 27.108a3.227 3.227 0 0 1-3.237 3.217c-1.789 0-3.238-1.44-3.238-3.217 0-1.776 1.45-3.216 3.238-3.216s3.237 1.44 3.237 3.216" fill="#CFDEF8"/><path fill="url(#a)" d="M11.334 58.213H24.98v-.642H11.334zM23.36 60.74h10.178v-.642H23.36zM0 14.564h9.714v-.642H0zm14.138-7.925a2.188 2.188 0 0 0-2.193 2.177c0 1.2.984 2.177 2.193 2.177a2.188 2.188 0 0 0 2.192-2.177c0-1.2-.984-2.177-2.192-2.177m0 4.996c-1.565 0-2.839-1.264-2.839-2.819 0-1.554 1.274-2.82 2.839-2.82s2.839 1.266 2.839 2.82c0 1.555-1.274 2.819-2.84 2.819m-7.719 5.226h5.378v-.642H6.418zm50.48 5.514h5.898v-.642h-5.898z"/></g></svg>