<svg width="50" height="40" viewBox="0 0 50 40" xmlns="http://www.w3.org/2000/svg"><title>4358E11C-DF16-4A75-AC71-C98F8256026D</title><defs><linearGradient x1="12.957%" y1="80.245%" y2="15.021%" id="a"><stop stop-color="#F8A56F" offset="0%"/><stop stop-color="#F26C51" offset="100%"/></linearGradient></defs><g fill="none" fill-rule="evenodd"><path d="M3.541 39.466a.406.406 0 0 1-.405-.405v-2.993a.406.406 0 0 1 .81 0v2.993a.406.406 0 0 1-.405.405" fill="url(#a)"/><path d="M.405 39.62A.406.406 0 0 1 0 39.214v-5.946c0-.786.253-1.434.752-1.927.972-.961 2.524-.95 2.589-.952l2.394-.035c.219-.019.54-.186.493-1.398a3.086 3.086 0 0 1-.004-.138.405.405 0 0 1 .406-.4h.006a.406.406 0 0 1 .4.412l.002.095c.055 1.41-.37 2.164-1.263 2.239l-2.433.036c-.025 0-1.296-.001-2.023.72-.342.34-.508.78-.508 1.348v5.946a.406.406 0 0 1-.406.406m16.099 0a.406.406 0 0 1-.406-.406v-5.946c0-.569-.167-1.01-.51-1.351-.72-.71-2-.706-2.01-.717l-2.416-.035c-.92-.076-1.346-.83-1.29-2.24l.002-.095a.406.406 0 0 1 .4-.412c.232.015.408.176.411.4l-.003.138c-.048 1.212.274 1.38.52 1.4l2.377.033c.06.007 1.608-.007 2.578.952.5.493.752 1.141.752 1.927v5.946a.406.406 0 0 1-.405.406" fill="url(#a)"/><path d="M13.572 39.262a.406.406 0 0 1-.406-.405V36.12a.406.406 0 0 1 .811 0v2.737a.406.406 0 0 1-.405.405M8.42 20.348c-2.039 0-3.698 1.905-3.698 4.248s1.66 4.248 3.699 4.248c2.04 0 3.7-1.905 3.7-4.248s-1.66-4.248-3.7-4.248m0 9.307c-2.487 0-4.51-2.27-4.51-5.059 0-2.79 2.023-5.059 4.51-5.059 2.487 0 4.511 2.27 4.511 5.059 0 2.79-2.024 5.059-4.511 5.059m11.235 9.811a.406.406 0 0 1-.405-.405v-2.993a.406.406 0 0 1 .81 0v2.993a.406.406 0 0 1-.405.405" fill="url(#a)"/><path d="M16.52 39.62a.406.406 0 0 1-.405-.406v-5.946c0-.786.253-1.434.752-1.927.972-.961 2.527-.95 2.588-.952l2.395-.035c.218-.019.54-.186.492-1.398a3.086 3.086 0 0 1-.003-.138c.003-.224.202-.38.412-.4a.406.406 0 0 1 .399.412l.003.095c.055 1.41-.37 2.164-1.263 2.239l-2.434.036c-.012 0-1.295-.001-2.022.72-.342.34-.508.78-.508 1.348v5.946a.406.406 0 0 1-.406.406m16.098 0a.406.406 0 0 1-.405-.406v-5.946c0-.569-.167-1.01-.511-1.351-.715-.706-1.974-.717-2.008-.717l-2.417-.035c-.92-.076-1.346-.83-1.29-2.24l.002-.095a.406.406 0 0 1 .4-.412c.221.015.407.176.41.4.001.03 0 .078-.003.138-.047 1.212.274 1.38.52 1.4l2.378.033c.057.005 1.606-.01 2.577.952.5.493.753 1.141.753 1.927v5.946a.406.406 0 0 1-.406.406" fill="url(#a)"/><path d="M29.687 39.262a.406.406 0 0 1-.406-.405V36.12a.406.406 0 0 1 .811 0v2.737a.406.406 0 0 1-.405.405" fill="url(#a)"/><path d="M28.675 24.596c0-2.566-1.84-4.654-4.106-4.654-2.264 0-4.104 2.088-4.104 4.654 0 2.565 1.84 4.654 4.104 4.654 2.266 0 4.106-2.089 4.106-4.654" fill="#FEFEFE"/><path d="M24.57 20.348c-2.04 0-3.7 1.905-3.7 4.248s1.66 4.248 3.7 4.248 3.7-1.905 3.7-4.248-1.66-4.248-3.7-4.248m0 9.307c-2.488 0-4.51-2.27-4.51-5.059 0-2.79 2.022-5.059 4.51-5.059 2.487 0 4.51 2.27 4.51 5.059 0 2.79-2.023 5.059-4.51 5.059m11.19 9.811a.406.406 0 0 1-.406-.405v-2.993a.406.406 0 0 1 .811 0v2.993a.406.406 0 0 1-.405.405" fill="url(#a)"/><path d="M32.624 39.62a.406.406 0 0 1-.406-.406v-5.946c0-.786.253-1.434.753-1.927.97-.96 2.53-.953 2.588-.952l2.395-.035c.218-.019.539-.186.492-1.397l-.003-.14a.405.405 0 0 1 .406-.399h.006a.406.406 0 0 1 .4.412l.001.096c.055 1.41-.37 2.163-1.262 2.238l-2.433.036h-.002c-.05 0-1.303.007-2.021.72-.342.34-.509.78-.509 1.348v5.946a.406.406 0 0 1-.405.406m16.098 0a.406.406 0 0 1-.405-.406v-5.946c0-.569-.168-1.01-.511-1.351-.715-.706-1.974-.717-2.009-.717l-2.416-.035c-.922-.076-1.347-.83-1.291-2.241l.003-.095a.406.406 0 0 1 .4-.41c.222.014.408.175.41.4 0 .03 0 .076-.003.136-.047 1.213.274 1.38.52 1.4l2.378.034c.064.005 1.606-.01 2.577.952.5.493.753 1.141.753 1.927v5.946a.406.406 0 0 1-.406.406" fill="url(#a)"/><path d="M45.79 39.262a.406.406 0 0 1-.405-.405V36.12a.406.406 0 0 1 .81 0v2.737a.406.406 0 0 1-.405.405m-5.117-18.914c-2.04 0-3.7 1.905-3.7 4.248s1.66 4.248 3.7 4.248 3.7-1.905 3.7-4.248-1.66-4.248-3.7-4.248m0 9.307c-2.487 0-4.51-2.27-4.51-5.059 0-2.79 2.023-5.059 4.51-5.059 2.488 0 4.512 2.27 4.512 5.059 0 2.79-2.024 5.059-4.512 5.059m-28.697-9.648a.406.406 0 0 1-.405-.406V16.61a.406.406 0 0 1 .81 0v2.99a.406.406 0 0 1-.405.406" fill="url(#a)"/><path d="M8.84 20.16a.406.406 0 0 1-.405-.405v-5.946c0-.786.253-1.434.752-1.928.97-.96 2.53-.952 2.589-.952l2.394-.034c.218-.02.54-.186.492-1.397l-.003-.14a.405.405 0 0 1 .406-.4h.006a.406.406 0 0 1 .4.413l.001.095c.055 1.411-.37 2.164-1.262 2.239l-2.433.035h-.001c-.05 0-1.304.007-2.022.72-.342.34-.509.781-.509 1.349v5.946a.406.406 0 0 1-.405.405m16.098 0a.406.406 0 0 1-.405-.405v-5.946c0-.57-.167-1.01-.511-1.351-.715-.706-1.974-.718-2.008-.718l-2.417-.034c-.922-.076-1.347-.83-1.29-2.241l.002-.095a.406.406 0 0 1 .4-.411c.222.015.408.176.41.4.001.03 0 .077-.003.137-.047 1.212.274 1.38.52 1.4l2.378.033c.064.006 1.606-.009 2.577.952.5.493.753 1.142.753 1.928v5.946a.406.406 0 0 1-.406.405" fill="url(#a)"/><path d="M22.006 19.803a.406.406 0 0 1-.405-.406v-2.736a.406.406 0 0 1 .81 0v2.736a.406.406 0 0 1-.405.406M16.89.888c-2.04 0-3.7 1.906-3.7 4.249 0 2.342 1.66 4.248 3.7 4.248s3.7-1.906 3.7-4.248c0-2.343-1.66-4.249-3.7-4.249m0 9.307c-2.488 0-4.51-2.269-4.51-5.058 0-2.79 2.022-5.06 4.51-5.06 2.487 0 4.51 2.27 4.51 5.06 0 2.79-2.023 5.058-4.51 5.058m11.302 9.812a.406.406 0 0 1-.405-.406V16.61a.406.406 0 0 1 .81 0v2.99a.406.406 0 0 1-.405.406" fill="url(#a)"/><path d="M25.056 20.16a.406.406 0 0 1-.405-.405v-5.946c0-.786.253-1.434.752-1.928.97-.96 2.53-.952 2.589-.952l2.394-.034c.218-.02.54-.186.492-1.397-.001-.062-.003-.11-.002-.14a.405.405 0 0 1 .405-.4h.007a.406.406 0 0 1 .398.413l.003.095c.054 1.411-.37 2.164-1.263 2.239l-2.433.035h-.001c-.05 0-1.303.007-2.022.72-.342.34-.508.781-.508 1.349v5.946a.406.406 0 0 1-.406.405m16.099 0a.406.406 0 0 1-.406-.405v-5.946c0-.57-.167-1.01-.511-1.351-.715-.706-1.974-.718-2.008-.718l-2.417-.034c-.922-.076-1.346-.83-1.29-2.241l.002-.095a.406.406 0 0 1 .4-.411c.223.015.408.176.41.4.001.03 0 .077-.002.137-.048 1.212.273 1.38.52 1.4l2.377.033c.064.006 1.606-.009 2.578.952.499.493.752 1.142.752 1.928v5.946a.406.406 0 0 1-.405.405" fill="url(#a)"/><path d="M38.222 19.803a.406.406 0 0 1-.405-.406v-2.736a.406.406 0 0 1 .81 0v2.736a.406.406 0 0 1-.405.406M33.106.888c-2.04 0-3.7 1.906-3.7 4.249 0 2.342 1.66 4.248 3.7 4.248s3.7-1.906 3.7-4.248c0-2.343-1.66-4.249-3.7-4.249m0 9.307c-2.487 0-4.51-2.269-4.51-5.058 0-2.79 2.023-5.06 4.51-5.06 2.487 0 4.511 2.27 4.511 5.06 0 2.79-2.024 5.058-4.511 5.058" fill="url(#a)"/></g></svg>