<svg width="812" height="270" viewBox="0 0 812 270" xmlns="http://www.w3.org/2000/svg" xmlns:xlink="http://www.w3.org/1999/xlink"><title>5F9A25EE-5F78-412D-817D-899FA39B6F90</title><defs><path id="f" d="M16 38h712v170H16z"/><filter x="-50%" y="-50%" width="200%" height="200%" filterUnits="objectBoundingBox" id="e"><feOffset dy="6" in="SourceAlpha" result="shadowOffsetOuter1"/><feGaussianBlur stdDeviation="25" in="shadowOffsetOuter1" result="shadowBlurOuter1"/><feColorMatrix values="0 0 0 0 0 0 0 0 0 0 0 0 0 0 0 0 0 0 0.5 0" in="shadowBlurOuter1"/></filter><rect id="a" width="96.487" height="18.695" rx="2.325"/><mask id="g" x="0" y="0" width="96.487" height="18.695" fill="#fff"><use xlink:href="#a"/></mask><rect id="b" width="96.487" height="18.695" rx="2.325"/><mask id="h" x="0" y="0" width="96.487" height="18.695" fill="#fff"><use xlink:href="#b"/></mask><rect id="c" width="96.487" height="18.695" rx="2.325"/><mask id="i" x="0" y="0" width="96.487" height="18.695" fill="#fff"><use xlink:href="#c"/></mask><rect id="d" width="96.487" height="18.695" rx="2.325"/><mask id="j" x="0" y="0" width="96.487" height="18.695" fill="#fff"><use xlink:href="#d"/></mask></defs><g fill="none" fill-rule="evenodd"><g transform="translate(34 6)"><use fill="#000" filter="url(#e)" xlink:href="#f"/><use fill="#D8D8D8" xlink:href="#f"/></g><g transform="translate(34 6)"><rect fill="#FFF" width="744" height="210" rx="4"/><text font-family="GothamPro, Gotham Pro" font-size="8.137" fill-opacity=".54" fill="#363636"><tspan x="23.25" y="63.839">ВОДИТЕЛЬ</tspan></text><text font-family="GothamPro, Gotham Pro" font-size="8.137" fill-opacity=".54" fill="#363636"><tspan x="191.813" y="52.739">КОЛ-ВО</tspan> <tspan x="191.813" y="63.782">ЗАКАЗОВ</tspan></text><text font-family="GothamPro, Gotham Pro" font-size="8.137" fill-opacity=".54" fill="#363636"><tspan x="271.444" y="52.739">СУММА</tspan> <tspan x="271.444" y="63.782">ЗАКАЗОВ</tspan></text><text font-family="GothamPro, Gotham Pro" font-size="8.137" fill-opacity=".54" fill="#363636"><tspan x="351.075" y="52.739">КОМИССИЯ</tspan> <tspan x="351.075" y="63.782">ПАРКА</tspan></text><text font-family="GothamPro, Gotham Pro" font-size="8.137" fill-opacity=".54" fill="#363636"><tspan x="624.263" y="63.839">ВЫДАЧА</tspan></text><text font-family="GothamPro, Gotham Pro" font-size="8.137" fill-opacity=".54" fill="#363636"><tspan x="438.856" y="63.839">АВТОПЛАТЕЖИ</tspan></text><text font-family="GothamPro, Gotham Pro" font-size="8.137" fill-opacity=".54" fill="#363636"><tspan x="545.678" y="63.839">ДЕПОЗИТ</tspan></text><path fill-opacity=".1" fill="#F8A56F" d="M0 78.287h744v32.717H0z"/><text font-family="GothamPro, Gotham Pro" font-size="11.044" fill="#222" transform="translate(0 77.671)"><tspan x="23.25" y="20.301">Иванов Александр</tspan></text><text font-family="GothamPro, Gotham Pro" font-size="9.3" fill="#222" transform="translate(0 77.671)"><tspan x="191.231" y="21.053">12</tspan></text><text font-family="GothamPro, Gotham Pro" font-size="9.3" fill="#222" transform="translate(0 77.671)"><tspan x="271.444" y="21.053">5 400</tspan></text><text font-family="GothamPro, Gotham Pro" font-size="9.3" fill="#222" transform="translate(0 77.671)"><tspan x="351.075" y="21.053">270</tspan></text><text font-family="GothamPro, Gotham Pro" font-size="9.3" fill="#222" transform="translate(0 77.671)"><tspan x="438.844" y="21.053">763</tspan></text><text font-family="GothamPro, Gotham Pro" font-size="9.3" fill="#222" transform="translate(0 77.671)"><tspan x="545.212" y="21.053">4 367</tspan></text><g transform="translate(624.263 85.298)"><use stroke-opacity=".12" stroke="#363636" mask="url(#g)" stroke-width="1.163" fill="#FFF" xlink:href="#a"/><path d="M85.005 5.624a1.282 1.282 0 0 1 1.913.157 1.297 1.297 0 0 1-.109 1.683c-.16.163-.321.325-.483.487l-1.818-1.828.497-.5zm-5.137 5.163c1.467-1.475 2.933-2.95 4.402-4.423.605.609 1.21 1.218 1.816 1.825-1.463 1.478-2.934 2.95-4.4 4.425-.606-.61-1.211-1.219-1.818-1.827zm-.777.78l.538-.54 1.818 1.828c-.178.18-.358.359-.536.54-.617.013-1.235.02-1.852.033.01-.62.02-1.24.032-1.861zm3.84 1.522c1.416-.002 2.831 0 4.247-.001 0 .112-.002.225 0 .338H82.93l.001-.337z" fill="#E1E2E6"/><text font-family="GothamPro-Medium, Gotham Pro" font-size="8.137" font-weight="400" fill="#D9D9D9"><tspan x="9.3" y="11.505">Сумма</tspan></text></g><path d="M0 111.004h659.138v32.717H0z"/><text font-family="GothamPro, Gotham Pro" font-size="11.044" fill="#222" transform="translate(0 77.671)"><tspan x="23.25" y="53.018">Свиридов Сергей</tspan></text><text font-family="GothamPro, Gotham Pro" font-size="9.3" fill="#222" transform="translate(0 77.671)"><tspan x="191.231" y="53.77">42</tspan></text><text font-family="GothamPro, Gotham Pro" font-size="9.3" fill="#222" transform="translate(0 77.671)"><tspan x="271.444" y="53.77">18 900</tspan></text><text font-family="GothamPro, Gotham Pro" font-size="9.3" fill="#222" transform="translate(0 77.671)"><tspan x="351.075" y="53.77">945</tspan></text><text font-family="GothamPro, Gotham Pro" font-size="9.3" fill="#222" transform="translate(0 77.671)"><tspan x="438.844" y="53.77">4 800</tspan></text><text font-family="GothamPro, Gotham Pro" font-size="9.3" fill="#222" transform="translate(0 77.671)"><tspan x="545.212" y="53.77">13 155</tspan></text><g transform="translate(624.263 118.015)"><use stroke-opacity=".12" stroke="#363636" mask="url(#h)" stroke-width="1.163" fill="#FFF" xlink:href="#b"/><path d="M85.005 5.624a1.282 1.282 0 0 1 1.913.157 1.297 1.297 0 0 1-.109 1.683c-.16.163-.321.325-.483.487l-1.818-1.828.497-.5zm-5.137 5.163c1.467-1.475 2.933-2.95 4.402-4.423.605.609 1.21 1.218 1.816 1.825-1.463 1.478-2.934 2.95-4.4 4.425-.606-.61-1.211-1.219-1.818-1.827zm-.777.78l.538-.54 1.818 1.828c-.178.18-.358.359-.536.54-.617.013-1.235.02-1.852.033.01-.62.02-1.24.032-1.861zm3.84 1.522c1.416-.002 2.831 0 4.247-.001 0 .112-.002.225 0 .338H82.93l.001-.337z" fill="#E1E2E6"/><text font-family="GothamPro-Medium, Gotham Pro" font-size="8.137" font-weight="400" fill="#D9D9D9"><tspan x="9.3" y="11.505">Сумма</tspan></text></g><path fill-opacity=".1" fill="#F8A56F" d="M0 144.452h744v32.717H0z"/><text font-family="GothamPro, Gotham Pro" font-size="11.044" fill="#222" transform="translate(0 143.836)"><tspan x="23.25" y="20.301">Макарова Алия</tspan></text><text font-family="GothamPro, Gotham Pro" font-size="9.3" fill="#222" transform="translate(0 143.836)"><tspan x="191.231" y="21.053">14</tspan></text><text font-family="GothamPro, Gotham Pro" font-size="9.3" fill="#222" transform="translate(0 143.836)"><tspan x="271.444" y="21.053">6 300</tspan></text><text font-family="GothamPro, Gotham Pro" font-size="9.3" fill="#222" transform="translate(0 143.836)"><tspan x="351.075" y="21.053">315</tspan></text><text font-family="GothamPro, Gotham Pro" font-size="9.3" fill="#222" transform="translate(0 143.836)"><tspan x="438.844" y="21.053">989</tspan></text><text font-family="GothamPro, Gotham Pro" font-size="9.3" fill="#222" transform="translate(0 143.836)"><tspan x="545.212" y="21.053">4 996</tspan></text><g transform="translate(624.263 151.462)"><use stroke-opacity=".12" stroke="#363636" mask="url(#i)" stroke-width="1.163" fill="#FFF" xlink:href="#c"/><path d="M85.005 5.624a1.282 1.282 0 0 1 1.913.157 1.297 1.297 0 0 1-.109 1.683c-.16.163-.321.325-.483.487l-1.818-1.828.497-.5zm-5.137 5.163c1.467-1.475 2.933-2.95 4.402-4.423.605.609 1.21 1.218 1.816 1.825-1.463 1.478-2.934 2.95-4.4 4.425-.606-.61-1.211-1.219-1.818-1.827zm-.777.78l.538-.54 1.818 1.828c-.178.18-.358.359-.536.54-.617.013-1.235.02-1.852.033.01-.62.02-1.24.032-1.861zm3.84 1.522c1.416-.002 2.831 0 4.247-.001 0 .112-.002.225 0 .338H82.93l.001-.337z" fill="#E1E2E6"/><text font-family="GothamPro-Medium, Gotham Pro" font-size="8.137" font-weight="400" fill="#D9D9D9"><tspan x="9.3" y="11.505">Сумма</tspan></text></g><path d="M0 177.169h659.138v32.717H0z"/><text font-family="GothamPro, Gotham Pro" font-size="11.044" fill="#222" transform="translate(0 143.836)"><tspan x="23.25" y="53.018">Гарифуллин Ильназ</tspan></text><text font-family="GothamPro, Gotham Pro" font-size="9.3" fill="#222" transform="translate(0 143.836)"><tspan x="191.231" y="53.77">31</tspan></text><text font-family="GothamPro, Gotham Pro" font-size="9.3" fill="#222" transform="translate(0 143.836)"><tspan x="271.444" y="53.77">13 950</tspan></text><text font-family="GothamPro, Gotham Pro" font-size="9.3" fill="#222" transform="translate(0 143.836)"><tspan x="351.075" y="53.77">697</tspan></text><text font-family="GothamPro, Gotham Pro" font-size="9.3" fill="#222" transform="translate(0 143.836)"><tspan x="438.844" y="53.77">3 500</tspan></text><text font-family="GothamPro, Gotham Pro" font-size="9.3" fill="#222" transform="translate(0 143.836)"><tspan x="545.212" y="53.77">9 753</tspan></text><g transform="translate(624.263 184.18)"><use stroke-opacity=".12" stroke="#363636" mask="url(#j)" stroke-width="1.163" fill="#FFF" xlink:href="#d"/><path d="M85.005 5.624a1.282 1.282 0 0 1 1.913.157 1.297 1.297 0 0 1-.109 1.683c-.16.163-.321.325-.483.487l-1.818-1.828.497-.5zm-5.137 5.163c1.467-1.475 2.933-2.95 4.402-4.423.605.609 1.21 1.218 1.816 1.825-1.463 1.478-2.934 2.95-4.4 4.425-.606-.61-1.211-1.219-1.818-1.827zm-.777.78l.538-.54 1.818 1.828c-.178.18-.358.359-.536.54-.617.013-1.235.02-1.852.033.01-.62.02-1.24.032-1.861zm3.84 1.522c1.416-.002 2.831 0 4.247-.001 0 .112-.002.225 0 .338H82.93l.001-.337z" fill="#E1E2E6"/><text font-family="GothamPro-Medium, Gotham Pro" font-size="8.137" font-weight="400" fill="#D9D9D9"><tspan x="9.3" y="11.505">Сумма</tspan></text></g><text font-family="GothamPro-Medium, Gotham Pro" font-size="11.044" font-weight="400" fill="#3D485B"><tspan x="432.45" y="19.932">Выгрузить в 1С</tspan></text><text font-family="GothamPro-Medium, Gotham Pro" font-size="11.044" font-weight="400" fill="#3D485B"><tspan x="541.725" y="19.932">Скачать платежные поручения</tspan></text><path fill="#EEE" d="M0 32.133h744v.584H0z"/></g></g></svg>