<svg width="213" height="87" viewBox="0 0 213 87" xmlns="http://www.w3.org/2000/svg"><title>Group 30</title><defs><linearGradient x1="12.957%" y1="80.245%" y2="100%" id="a"><stop stop-color="#FBD785" offset="0%"/><stop stop-color="#EE6A7E" offset="100%"/></linearGradient></defs><g fill="none" fill-rule="evenodd"><path d="M141 86h77.5" stroke="#A9A9A9" stroke-linecap="square" stroke-dasharray="2,8"/><path d="M126 82h6v5h-6v-5zm-14-14h6v19h-6V68zm-14 0h6v19h-6V68zM84 49h6v38h-6V49zM70 34h6v53h-6V34zm-14-7h6v60h-6V27zM42 12h6v75h-6V12zM28 4h6v83h-6V4zM14 4h6v83h-6V4zM0 0h6v87H0V0z" fill="url(#a)"/></g></svg>