<svg width="220" height="92" viewBox="0 0 220 92" xmlns="http://www.w3.org/2000/svg"><title>Group 31</title><defs><linearGradient x1="34.377%" y1="40.412%" x2="-7.856%" y2="79.867%" id="a"><stop stop-color="#FBD785" offset="0%"/><stop stop-color="#EE6A7E" offset="100%"/></linearGradient></defs><g fill="none" fill-rule="evenodd"><path d="M.5 91h61" stroke="#A9A9A9" stroke-linecap="square" stroke-dasharray="2,8"/><path d="M6 87H0v5h6v-5zm14-33h-6v38h6V54zm14-15h-6v53h6V39zm14-7h-6v60h6V32zm14-15h-6v75h6V17zm14-8h-6v83h6V9zm14 0h-6v83h6V9zm14 23h-6v60h6V32zm14-23h-6v83h6V9zm14 0h-6v83h6V9zm14-9h-6v92h6V0zm14 9h-6v83h6V9z" transform="translate(60)" fill="url(#a)"/></g></svg>