<svg width="1734" height="671" viewBox="0 0 1734 671" xmlns="http://www.w3.org/2000/svg" xmlns:xlink="http://www.w3.org/1999/xlink"><title>Group 4</title><defs><linearGradient x1="33.152%" y1="8.95%" x2="30.586%" y2="93.248%" id="a"><stop stop-color="#FCB69F" offset="0%"/><stop stop-color="#FFECD2" offset="100%"/></linearGradient><linearGradient x1="55.007%" y1="30.546%" x2="58.337%" y2="85.913%" id="b"><stop stop-color="#FCB69F" offset="0%"/><stop stop-color="#FFECD2" offset="100%"/></linearGradient><path d="M289.581 416.918s271.318-87.44 330.245-79.44c58.927 8 74.889-39.478 90.187-39.478 15.298 0 47.298 144 89.27 144 41.97 0 54.842-40 67.07-40 21.642 0 44.735 120 90.958 120s43.337-20 61.5-20c18.163 0 38.5 60 93.585 60 17.18 0 57.134-16 72.69-16 15.558 0 52.958 40 80.285 40 28.4 0 48.851-16 74.435-16 14.016 0 121.743 42.374 223.719 56.182S1739 654.996 1739 654.996H289.581V442" id="c"/><linearGradient x1="31.332%" y1="-9.61%" x2="31.332%" y2="100%" id="d"><stop stop-color="#FCB69F" offset="0%"/><stop stop-color="#FFECD2" offset="100%"/></linearGradient><path d="M620.261 631.97c101.6-23.305 193.514-84.734 209.805-84.734 35.577 0 68.476 52.93 113.242 58.906 20.31 2.712 38.284 2.636 58.272 4.656 24.068 2.432 50.165 6.685 74.987 6.438 25.69-.257 59.75-17.125 81.55-18.796 42.826-3.282 14.5 15.81 75.14 7.702 60.639-8.108 74.793-30.058 92.059-30.058 17.265 0 40.575 9.887 61.91 0 32.617-15.114 68.22-79.084 88.441-79.084 20.221 0 44.693 52.211 80.136 50.236 35.444-1.975 57.571-34.035 74.431-34.035s63.243 78.323 91.006 78.323H1739v63.75H454.397s64.265 0 165.864-23.305z" id="e"/><path id="g" d="M0 35h486v477H0z"/><filter x="-50%" y="-50%" width="200%" height="200%" filterUnits="objectBoundingBox" id="f"><feOffset in="SourceAlpha" result="shadowOffsetOuter1"/><feGaussianBlur stdDeviation="25" in="shadowOffsetOuter1" result="shadowBlurOuter1"/><feColorMatrix values="0 0 0 0 0 0 0 0 0 0 0 0 0 0 0 0 0 0 0.54 0" in="shadowBlurOuter1"/></filter></defs><g fill="none" fill-rule="evenodd"><path d="M1241.589 247.096s-54.702 127.208-81.644 127.208c-26.942 0-61.78-16.991-77.547-16.991-28.539 0-68.961 113.104-99.64 116.273-31.201 3.222-75.866-38.452-101.082-38.512-26.839-.063-141.81 87.492-198.598 93.414-56.787 5.923-105.816 2.47-133.87 2.47-28.054 0-184.71 127.225-184.71 127.225" stroke="#FAB39B" stroke-width="1.5" stroke-linecap="square"/><path d="M.182 655.78s196.708-9.987 329.545-29.198c198.43-28.696 315.718-93.17 337.35-100.078 36.112-11.531 58.16 11.47 78.98 0C800.413 496.56 811.636 396 833.973 396c22.337 0 46.151 157.457 77.172 157.457 31.02 0 536.913-125.902 536.913-125.902s15.475 69.005 89.362 69.005S1609.78 396 1609.78 396s20.275 92.507 56.865 92.507S1739 427.555 1739 427.555V655.78H615.081" fill="url(#a)" transform="translate(0 15)"/><g transform="translate(876 429)"><circle fill="#F89F86" cx="8" cy="8" r="4"/><circle stroke-opacity=".3" stroke="#F8A189" stroke-width="2" cx="8" cy="8" r="8"/></g><g transform="translate(672 519)"><circle fill="#F89F86" cx="8" cy="8" r="4"/><circle stroke-opacity=".3" stroke="#F8A189" stroke-width="2" cx="8" cy="8" r="8"/></g><g transform="translate(542 523)"><circle fill="#F89F86" cx="8" cy="8" r="4"/><circle stroke-opacity=".3" stroke="#F8A189" stroke-width="2" cx="8" cy="8" r="8"/></g><g transform="translate(974 465)"><circle fill="#F89F86" cx="8" cy="8" r="4"/><circle stroke-opacity=".3" stroke="#F8A189" stroke-width="2" cx="8" cy="8" r="8"/></g><g transform="translate(1072 348)"><circle fill="#F9A38B" cx="8" cy="8" r="4"/><circle stroke-opacity=".3" stroke="#F8A189" stroke-width="2" cx="8" cy="8" r="8"/></g><g transform="translate(1152 365)"><circle fill="#F8A48B" cx="8" cy="8" r="4"/><circle stroke-opacity=".3" stroke="#F8A189" stroke-width="2" cx="8" cy="8" r="8"/></g><g transform="matrix(-1 0 0 1 2028.581 15)"><use fill="url(#b)" xlink:href="#c"/><use fill-opacity=".3" fill="#F26C51" xlink:href="#c"/></g><g transform="translate(0 15)"><use fill="url(#d)" xlink:href="#e"/><use fill-opacity=".25" fill="#FFF" xlink:href="#e"/></g><g transform="matrix(-1 0 0 1 1739 15)"><use fill="#000" filter="url(#f)" xlink:href="#g"/><use fill="#EEE" xlink:href="#g"/></g><path d="M1739 16c-170.44-.03-300.87.04-431.31-.03-14.88.06-29.75.02-44.63.02-3.05.03-6.17-.14-9.16.65-8.69 2.11-15.59 10.32-15.84 19.32-.15 7.31-.01 14.63-.06 21.95.01 29.77-.01 59.54 0 89.31.01 24.86-.01 49.73 0 74.6.03 19.13-.05 38.25-.01 57.38.02 17.46.01 34.91-.04 52.36.12 6.2 0 12.4.03 18.6.07 16.68-.04 33.36.01 50.04.03 7.25.01 14.5.01 21.76 0 4.06.01 8.12 0 12.18.02 23.95-.03 47.9.03 71.85-.24 11.09 9.86 21.15 20.96 20.81 105.34.01 210.7-.02 316.05-.01 41.32.01 82.64 0 163.96.01v-41.93c-153.99-.1-267.98 0-381.97-.04-28.52-.17-57.06.31-85.58-.15.04-145.4-.12-289.81-.03-434.21 142.52-.04 285.05 0 467.58-.02V16z" fill="#FFF"/></g></svg>