<svg width="385" height="342" viewBox="0 0 385 342" xmlns="http://www.w3.org/2000/svg" xmlns:xlink="http://www.w3.org/1999/xlink"><title>Group 2</title><defs><linearGradient x1="33.152%" y1="8.95%" x2="30.586%" y2="93.248%" id="a"><stop stop-color="#FCB69F" offset="0%"/><stop stop-color="#FFECD2" offset="100%"/></linearGradient><linearGradient x1="55.007%" y1="30.546%" x2="58.337%" y2="85.913%" id="b"><stop stop-color="#FCB69F" offset="0%"/><stop stop-color="#FFECD2" offset="100%"/></linearGradient><path d="M151.125 203.942c14.799 2.623 18.807-12.942 22.65-12.942 3.841 0 11.878 47.208 22.419 47.208 10.54 0 13.773-13.114 16.844-13.114 5.435 0 6.142 44.096 17.75 44.096 11.61 0 9.76-7.081 20.423-7.081 10.663 0 12.68 24.958 26.514 24.958 4.315 0 14.02-4.619 17.928-4.619 3.907 0 19.074 11.195 36.49 17.21 17.417 6.014 52.857 8.376 52.857 8.376H45.746v-77.732s90.58-28.983 105.379-26.36z" id="c"/><linearGradient x1="31.332%" y1="-9.61%" x2="31.332%" y2="100%" id="d"><stop stop-color="#FCB69F" offset="0%"/><stop stop-color="#FFECD2" offset="100%"/></linearGradient><path d="M106.136 301.377c11.516-4.092 21.22-18.633 29.115-18.633 8.404 0 11.206 12.373 21.78 13.77 4.799.634 9.045.617 13.766 1.089 5.686.568 11.85 1.563 17.714 1.505 6.069-.06 14.115-4.003 19.265-4.394 10.116-.767 3.425 3.696 17.75 1.8 14.325-1.895 17.668-7.026 21.747-7.026 4.079 0 9.585 2.311 14.625 0C269.603 285.954 278.013 271 282.79 271c4.777 0 10.558 12.206 18.93 11.744 8.373-.462 13.6-7.957 17.583-7.957 3.983 0 14.94 18.31 21.498 18.31 6.559 0 9.622 1.617 18.146 1.617 8.525 0 26.053 6.663 26.053 6.663V308H65c7.136-1.505 33.585-3.939 41.136-6.623z" id="e"/><path id="g" d="M0 17.084h237.191v232.835H0z"/><filter x="-50%" y="-50%" width="200%" height="200%" filterUnits="objectBoundingBox" id="f"><feOffset in="SourceAlpha" result="shadowOffsetOuter1"/><feGaussianBlur stdDeviation="25" in="shadowOffsetOuter1" result="shadowBlurOuter1"/><feColorMatrix values="0 0 0 0 0 0 0 0 0 0 0 0 0 0 0 0 0 0 0.54 0" in="shadowBlurOuter1"/></filter></defs><g fill="none" fill-rule="evenodd"><path d="M186.755 202.031s-31.19 14.733-35.84 14.733c-8.42 0-17.966 65.92-29.147 65.92-11.181 0-15.734-15.442-24.897-15.442-10.371 0-20.297 60.434-31.871 60.434-11.574 0-23.963-19.33-30.988-16.157-7.025 3.173-21.713 29.134-21.713 29.134" stroke="#FAB39B" stroke-linecap="square"/><path d="M.598 308.164s38.027-2.947 58.548-6.728c20.52-3.78 26.568-10.412 31.698-10.412 5.13 0 6.727 3.3 13.346 3.3s16.057-28.722 24.086-28.722 12.576 13.55 26.811 15.971c9.114 1.55 38.54-6.954 43.442-6.954 8.647 0 149.664-41.274 149.664-41.274L385 218.287v89.877H65" fill="url(#a)" transform="translate(0 33)"/><g transform="translate(92.402 261.955)"><ellipse fill="#F89F86" cx="5.265" cy="5.245" rx="2.633" ry="2.623"/><ellipse stroke-opacity=".3" stroke="#F8A189" stroke-width=".5" cx="5.265" cy="5.245" rx="5.265" ry="5.245"/></g><g transform="translate(114.402 276.955)"><ellipse fill="#F89F86" cx="5.265" cy="5.245" rx="2.633" ry="2.623"/><ellipse stroke-opacity=".3" stroke="#F8A189" stroke-width=".5" cx="5.265" cy="5.245" rx="5.265" ry="5.245"/></g><g transform="translate(58.647 321.144)"><ellipse fill="#F89F86" cx="5.265" cy="5.245" rx="2.633" ry="2.623"/><ellipse stroke-opacity=".3" stroke="#F8A189" stroke-width=".5" cx="5.265" cy="5.245" rx="5.265" ry="5.245"/></g><g transform="translate(30.647 306.144)"><ellipse fill="#F89F86" cx="5.265" cy="5.245" rx="2.633" ry="2.623"/><ellipse stroke-opacity=".3" stroke="#F8A189" stroke-width=".5" cx="5.265" cy="5.245" rx="5.265" ry="5.245"/></g><g transform="matrix(-1 0 0 1 430.746 33)"><use fill="url(#b)" xlink:href="#c"/><use fill-opacity=".3" fill="#F26C51" xlink:href="#c"/></g><g transform="translate(0 33)"><use fill="url(#d)" xlink:href="#e"/><use fill-opacity=".25" fill="#FFF" xlink:href="#e"/></g><g transform="matrix(-1 0 0 1 385 33)"><use fill="#000" filter="url(#f)" xlink:href="#g"/><use fill="#EEE" xlink:href="#g"/></g><path d="M385 33.488c-83.183-.015-146.839.02-210.5-.015-7.262.03-14.52.01-21.781.01-1.489.015-3.012-.068-4.471.318-4.241 1.03-7.609 5.037-7.73 9.43-.074 3.568-.006 7.141-.03 10.714.005 14.532-.005 29.063 0 43.595.005 12.135-.005 24.274 0 36.414.015 9.338-.024 18.67-.005 28.008.01 8.523.005 17.04-.02 25.559.06 3.026 0 6.052.015 9.079.034 8.142-.02 16.284.005 24.426.015 3.538.005 7.077.005 10.621 0 1.982.005 3.964 0 5.945.01 11.691-.015 23.382.015 35.072-.117 5.413 4.812 10.324 10.23 10.158 51.41.005 102.83-.01 154.247-.005 20.166.005 40.332 0 80.02.005v-20.467c-75.154-.049-130.787 0-186.42-.02-13.919-.083-27.848.152-41.767-.073.02-70.973-.058-141.463-.014-211.948 69.556-.02 139.118 0 228.201-.01V33.488z" fill="#FFF"/></g></svg>