<svg width="961" height="573" viewBox="0 0 961 573" xmlns="http://www.w3.org/2000/svg" xmlns:xlink="http://www.w3.org/1999/xlink"><title>Group 3</title><defs><linearGradient x1="33.152%" y1="8.95%" x2="30.586%" y2="93.248%" id="a"><stop stop-color="#FCB69F" offset="0%"/><stop stop-color="#FFECD2" offset="100%"/></linearGradient><linearGradient x1="55.007%" y1="30.546%" x2="58.337%" y2="85.913%" id="b"><stop stop-color="#FCB69F" offset="0%"/><stop stop-color="#FFECD2" offset="100%"/></linearGradient><path d="M195.228 383.607s210.886-57.454 239.156-52.435c28.27 5.02 35.927-24.766 43.266-24.766 7.339 0 22.69 90.34 42.825 90.34 20.136 0 26.31-25.095 32.177-25.095 10.382 0 11.733 84.384 33.908 84.384s18.644-13.551 39.011-13.551c20.368 0 24.222 47.762 50.648 47.762 8.243 0 26.783-8.839 34.246-8.839 7.464 0 31.653 20.345 64.923 31.855C808.658 524.77 852 530.37 852 530.37H193l1.635-140.402" id="c"/><linearGradient x1="31.332%" y1="-9.61%" x2="31.332%" y2="100%" id="d"><stop stop-color="#FCB69F" offset="0%"/><stop stop-color="#FFECD2" offset="100%"/></linearGradient><path d="M271.782 521.806c14.02-2.813 45.882 1.597 62.629-4.845 16.786-6.457 15.44-11.613 23.395-11.613 12.704 0 19.065 7.717 29.123 7.561 10.409-.16 22.922-12.002 31.756-13.05 17.352-2.06 15.793 0 30.653 0s29.053-36.955 36.049-36.955c6.996 0 18.974 6.203 27.618 0 13.216-9.482 26.361-31.516 34.555-31.516 8.193 0 18.108 32.755 32.47 31.516 14.36-1.239 23.327-21.352 30.158-21.352 6.831 0 25.625 49.137 36.874 49.137 11.25 0 16.503 4.338 31.125 4.338S961 490.69 961 490.69v39.993H193c7.315-2.414 37.086-.51 78.782-8.876z" id="e"/><path id="g" d="M0 34.727h454.127V508H0z"/><filter x="-50%" y="-50%" width="200%" height="200%" filterUnits="objectBoundingBox" id="f"><feOffset in="SourceAlpha" result="shadowOffsetOuter1"/><feGaussianBlur stdDeviation="25" in="shadowOffsetOuter1" result="shadowBlurOuter1"/><feColorMatrix values="0 0 0 0 0 0 0 0 0 0 0 0 0 0 0 0 0 0 0.54 0" in="shadowBlurOuter1"/></filter></defs><g fill="none" fill-rule="evenodd"><path d="M548.551 280.06s-34.388 79.805-51.325 79.805c-16.936 0-38.837-10.66-48.749-10.66-17.94 0-44.066 101.104-63.352 103.092-19.614 2.021-68.805-18.197-84.657-18.235-16.872-.04-73.696 95.58-108.468 95.58" stroke="#FAB39B" stroke-width=".714" stroke-linecap="square"/><path d="M.943 529.862s136.266-8.621 180.707-14.648c44.44-6.027 57.68-18.151 67.297-18.151 9.616 0 12.61 6.314 25.018 6.314 12.409 0 30.102-54.965 45.153-54.965 15.05 0 23.575 25.93 50.261 30.564 17.086 2.967 72.247-13.307 81.438-13.307 16.21 0 280.565-78.986 280.565-78.986s8.087 43.29 46.697 43.29 37.812-63.086 37.812-63.086 10.594 58.035 29.715 58.035c19.12 0 115.394-38.239 115.394-38.239v143.255l-664.893-.076H193" fill="url(#a)" transform="translate(-1 15)"/><g transform="translate(295.727 429.18)"><ellipse fill="#F89F86" cx="5.029" cy="5.019" rx="2.515" ry="2.509"/><ellipse stroke-opacity=".3" stroke="#F8A189" stroke-width=".952" cx="5.029" cy="5.019" rx="5.029" ry="5.019"/></g><g transform="translate(378.334 446.764)"><ellipse fill="#F89F86" cx="5.029" cy="5.019" rx="2.515" ry="2.509"/><ellipse stroke-opacity=".3" stroke="#F8A189" stroke-width=".952" cx="5.029" cy="5.019" rx="5.029" ry="5.019"/></g><g transform="translate(441.94 343.363)"><ellipse fill="#F9A38B" cx="5.029" cy="5.019" rx="2.515" ry="2.509"/><ellipse stroke-opacity=".3" stroke="#F8A189" stroke-width=".952" cx="5.029" cy="5.019" rx="5.029" ry="5.019"/></g><g transform="matrix(-1 0 0 1 1044 15)"><use fill="url(#b)" xlink:href="#c"/><use fill-opacity=".3" fill="#F26C51" xlink:href="#c"/></g><g transform="translate(-1 15)"><use fill="url(#d)" xlink:href="#e"/><use fill-opacity=".25" fill="#FFF" xlink:href="#e"/></g><g transform="matrix(-1 0 0 1 961 15)"><use fill="#000" filter="url(#f)" xlink:href="#g"/><use fill="#EEE" xlink:href="#g"/></g><path d="M960 15.992c-140.082-.03-269.473.04-398.873-.03-14.762.06-29.513.02-44.275.02-3.025.03-6.12-.139-9.087.645-8.62 2.094-15.465 10.24-15.713 19.17-.15 7.252-.01 14.515-.06 21.778.01 29.537-.01 59.075 0 88.612.01 24.666-.01 49.342 0 74.017.03 18.98-.05 37.951-.01 56.932.02 17.324.01 34.637-.04 51.95.12 6.152 0 12.304.03 18.456.07 16.55-.04 33.099.01 49.649.03 7.193.01 14.386.01 21.59 0 4.028.01 8.056 0 12.084.02 23.763-.03 47.526.03 71.29-.238 11.003 9.781 20.984 20.793 20.647 104.5.01 209.02-.02 313.531-.01 40.991.01 81.982 0 133.654.01v-41.603c-123.763-.1-236.845 0-349.926-.04-28.293-.168-56.606.308-84.899-.148.04-144.264-.119-287.546-.03-430.818 141.385-.04 282.78 0 434.855-.02v-34.18z" fill="#FFF"/></g></svg>