<svg width="76" height="48" viewBox="0 0 76 48" xmlns="http://www.w3.org/2000/svg" xmlns:xlink="http://www.w3.org/1999/xlink"><title>F9CEB0FB-DFF7-45FF-BE56-0B4C851C818C</title><defs><linearGradient x1="12.957%" y1="80.245%" x2="247.812%" y2="16.146%" id="b"><stop stop-color="#F8A56F" offset="0%"/><stop stop-color="#F26C51" offset="100%"/></linearGradient><linearGradient x1="-190.535%" y1="82.742%" y2="15.021%" id="c"><stop stop-color="#F8A56F" offset="0%"/><stop stop-color="#F26C51" offset="100%"/></linearGradient><linearGradient x1="-53.829%" y1="82.087%" x2="166.736%" y2="14.428%" id="d"><stop stop-color="#F8A56F" offset="0%"/><stop stop-color="#F26C51" offset="100%"/></linearGradient><linearGradient x1="12.957%" y1="80.245%" y2="15.021%" id="e"><stop stop-color="#F8A56F" offset="0%"/><stop stop-color="#F68B61" offset="45.646%"/><stop stop-color="#F26C51" offset="100%"/></linearGradient><rect id="a" width="18.182" height="18.182" rx="3.625"/><mask id="f" x="0" y="0" width="18.182" height="18.182" fill="#fff"><use xlink:href="#a"/></mask><linearGradient x1="12.957%" y1="80.245%" y2="15.021%" id="g"><stop stop-color="#F8A56F" offset="0%"/><stop stop-color="#F26C51" offset="100%"/></linearGradient></defs><g fill="none" fill-rule="evenodd"><path d="M38.064 20.19c.142-10.302-8.095-18.767-18.396-18.91C9.368 1.14.902 9.375.759 19.676c-.069 5.048 1.88 9.645 5.09 13.047l-3.472 8.612 8.22-4.972a18.585 18.585 0 0 0 8.558 2.222c10.3.142 18.766-8.094 18.909-18.395"/><path d="M17.562 27.274a.545.545 0 0 1-.512-.357 21.147 21.147 0 0 1-.992-3.696.546.546 0 0 1 1.075-.187c.207 1.195.523 2.375.94 3.507a.546.546 0 0 1-.511.733m-1.199-8.915l-.046-.002a.545.545 0 0 1-.498-.589 21.287 21.287 0 0 1 1.618-6.563.546.546 0 0 1 1.004.426 20.181 20.181 0 0 0-1.536 6.227.545.545 0 0 1-.542.5" fill="#F8A56F"/><path d="M2.46 41.554a.546.546 0 0 1-.508-.743l3.226-8.326A19.094 19.094 0 0 1 0 19.375C0 8.79 8.613.175 19.2.175c3.338 0 6.627.871 9.51 2.518a.546.546 0 0 1-.541.948A18.107 18.107 0 0 0 19.2 1.267c-9.987 0-18.11 8.123-18.11 18.108a18.01 18.01 0 0 0 5.112 12.604.547.547 0 0 1 .118.577L3.56 39.68l6.754-4.213a.542.542 0 0 1 .54-.021 17.914 17.914 0 0 0 8.346 2.038 18.11 18.11 0 0 0 9.043-2.416.545.545 0 1 1 .546.945 19.206 19.206 0 0 1-9.59 2.562 18.96 18.96 0 0 1-8.57-2.02l-7.881 4.917a.541.541 0 0 1-.288.082" transform="translate(0 .551)" fill="url(#b)"/><path d="M37.855 20.184c-.141-10.301 8.096-18.767 18.397-18.91 10.3-.14 18.765 8.096 18.908 18.397.07 5.047-1.88 9.644-5.09 13.046l3.472 8.612-8.22-4.972a18.585 18.585 0 0 1-8.558 2.222C46.463 38.722 38 30.485 37.855 20.184"/><path d="M26.7 41.554a.54.54 0 0 1-.288-.082l-7.88-4.916a18.975 18.975 0 0 1-8.57 2.02c-3.422 0-6.303-1.023-9.575-2.557a.545.545 0 1 1 .463-.988c3.14 1.473 5.892 2.453 9.111 2.453 2.938 0 5.746-.686 8.346-2.038a.544.544 0 0 1 .54.02L25.6 39.68l-2.76-7.124a.546.546 0 0 1 .117-.577 18.016 18.016 0 0 0 5.113-12.604c0-9.985-8.123-18.108-18.11-18.108-3.136 0-6.226.815-8.936 2.355a.545.545 0 1 1-.54-.947A19.196 19.196 0 0 1 9.96.175c10.588 0 19.201 8.614 19.201 19.2a19.1 19.1 0 0 1-5.179 13.11l3.226 8.326a.546.546 0 0 1-.509.743" transform="translate(46.545 .551)" fill="url(#c)"/><path d="M52.5 8.346C46.102.27 34.37-1.092 26.293 5.304c-8.075 6.396-9.437 18.127-3.042 26.205 3.135 3.957 7.549 6.29 12.186 6.9l2.747 8.87 3.234-9.046a18.58 18.58 0 0 0 8.038-3.682c8.077-6.396 9.437-18.128 3.042-26.205" fill="#FFF"/><path d="M19.675 1.275A18.021 18.021 0 0 0 8.45 5.181C.625 11.379-.7 22.79 5.498 30.62a18.013 18.013 0 0 0 11.83 6.698.545.545 0 0 1 .45.38l2.263 7.305 2.682-7.505a.545.545 0 0 1 .41-.352 17.93 17.93 0 0 0 7.803-3.574c7.827-6.199 9.153-17.61 2.954-25.438-3.57-4.508-8.868-6.859-14.215-6.859m.328 45.998h-.011a.546.546 0 0 1-.51-.385l-2.644-8.537a19.093 19.093 0 0 1-12.195-7.054c-6.571-8.3-5.167-20.4 3.13-26.972 8.301-6.573 20.4-5.168 26.972 3.131 6.573 8.3 5.168 20.4-3.131 26.971a18.993 18.993 0 0 1-7.968 3.728l-3.13 8.756a.544.544 0 0 1-.513.362" transform="translate(18.182 .727)" fill="url(#d)"/><path d="M58.674 26.251a.546.546 0 0 1-.524-.696 21.02 21.02 0 0 0 .812-5.809c0-1.198-.101-2.4-.303-3.574a.546.546 0 0 1 1.076-.184 22.37 22.37 0 0 1 .318 3.758 22.11 22.11 0 0 1-.855 6.11.546.546 0 0 1-.524.395" fill="#F8A56F"/><g transform="translate(29.09 10.91)"><use stroke="url(#e)" mask="url(#f)" stroke-width="3" fill="#FFF" xlink:href="#a"/><path fill="url(#g)" d="M9.549 12.013V6.519h1.967V5.516H6.442V6.52h1.967v5.494z"/></g></g></svg>