<svg width="48" height="48" viewBox="0 0 48 48" xmlns="http://www.w3.org/2000/svg"><title>2AC4D927-FE73-40F6-9AD5-BEF0E2FA3FA3</title><defs><linearGradient x1="12.957%" y1="80.245%" y2="15.021%" id="a"><stop stop-color="#F8A56F" offset="0%"/><stop stop-color="#F5875F" offset="53.002%"/><stop stop-color="#F26C51" offset="100%"/></linearGradient></defs><g fill="none" fill-rule="evenodd"><rect fill="url(#a)" width="48" height="48" rx="24"/><path d="M19.819 12.931c.25-.57.863-.952 1.488-.918 1.723.008 3.447-.008 5.17.007.644-.01 1.238.452 1.437 1.055.15.493.078 1.015.076 1.521.671.002 1.343-.015 2.015.007 1.225.091 2.458.704 3.127 1.76.318.485.387 1.072.524 1.623.225 1.016.475 2.026.69 3.045.025.104.051.208.081.311.548 0 1.13-.07 1.645.168a2.095 2.095 0 0 1 1.24 1.919c0 1.383.005 2.767 0 4.151.008.95-.716 1.841-1.652 2.016-5.316.709-10.692 1.362-16.062.94a80.04 80.04 0 0 1-6.992-.865c-.55-.032-1.117-.163-1.533-.546-.411-.344-.638-.86-.714-1.38-.019-1.441-.001-2.882-.006-4.324-.024-.988.759-1.916 1.734-2.064.457-.05.918-.019 1.377-.018.36-1.413.65-2.843.995-4.259.307-1.12 1.31-1.91 2.377-2.263.915-.315 1.893-.206 2.841-.216.025-.556-.096-1.145.142-1.67zm-3.523 5.124c-.228 1.095-.49 2.184-.719 3.279 5.537-.004 11.073-.005 16.61-.002-.238-1.108-.502-2.21-.746-3.317-.168-.787-.984-1.268-1.743-1.312-3.842-.005-7.684-.001-11.526-.003-.82-.016-1.707.513-1.876 1.355zm-1.917 5.937c-.935.203-1.607 1.229-1.344 2.163.188.885 1.121 1.515 2.013 1.364.678-.107 1.277-.63 1.453-1.296a1.783 1.783 0 0 0-.532-1.806c-.416-.4-1.033-.534-1.59-.425zm18.094 0a1.84 1.84 0 0 0-1.336 1.366c-.253 1.01.551 2.114 1.591 2.178 1.123.15 2.179-.97 1.947-2.083-.132-1.006-1.224-1.72-2.202-1.461zM11.92 31.116c1.73.257 3.461.523 5.199.735-.018.432.009.866-.016 1.298a1.824 1.824 0 0 1-1.264 1.579c-.456.145-.94.068-1.41.087-.468-.013-.964.053-1.403-.147a1.82 1.82 0 0 1-1.103-1.628c.001-.642-.006-1.283-.003-1.924zm18.64.646c1.735-.18 3.463-.424 5.193-.642-.003.67.014 1.342-.009 2.014-.034.857-.778 1.612-1.631 1.67-.56.026-1.12.009-1.68.013-.666.017-1.335-.345-1.644-.942-.374-.642-.179-1.41-.228-2.113z" fill="#FFF"/></g></svg>