<svg width="105" height="97" viewBox="0 0 105 97" xmlns="http://www.w3.org/2000/svg"><title>A06B7017-99F7-4FA4-B557-D6B2BC5C07DB</title><defs><linearGradient x1="12.957%" y1="80.245%" y2="15.021%" id="a"><stop stop-color="#F8A56F" offset="0%"/><stop stop-color="#F26C51" offset="100%"/></linearGradient></defs><g fill="none" fill-rule="evenodd"><path fill="#CFDEF8" d="M77.405 35.525l3.057-3.565 3.388-1.158 2.78-.44 2.373.3 2.545.835 1.241 1.086 1.837 1.803.94 2.28.6 2.11v2.416l-1.67-.497-1.957-1.757-1.315-2.079-1.045-2.651-1.847 2.602-2.041 2.128-2.236.858-2.222.899-2.13.497-.713-2.77z"/><path fill="#F6F7FB" d="M0 70.333h70.409v-67.2H0z"/><path fill="#FFF" d="M6.925 62.055l1.673 3.392 3.745.545-2.71 2.64.64 3.73-3.348-1.76-3.35 1.76.64-3.73-2.71-2.64 3.745-.545z"/><path d="M2.414 5.438l2.163 2.11-.51 2.978L6.742 9.12l2.674 1.406-.51-2.978 2.163-2.11-2.99-.434-1.337-2.71-1.338 2.71-2.99.434zm8.351 6.945l-4.023-2.115-4.024 2.115.769-4.481L.233 4.73l4.497-.654L6.742 0l2.01 4.076 4.499.654-3.255 3.172.77 4.48z" fill="url(#a)" transform="translate(.183 60.908)"/><path d="M38.942 62.63a1.343 1.343 0 1 1-2.687 0 1.343 1.343 0 0 1 2.687 0zm42.959-5.417v5.503H77.66c-5.319 0-9.63 4.314-9.63 9.633v7.18h36.429v-7.18c0-5.32-4.313-9.633-9.632-9.633h-4.242v-5.503H81.9z" fill="#FFF"/><path d="M76.785 47.75l.064.536c.576 4.747 4.622 8.326 9.407 8.326 4.786 0 8.829-3.578 9.407-8.322l.065-.528.523.09a1.79 1.79 0 0 0 2.094-1.762v-3.445a1.79 1.79 0 0 0-1.786-1.79c-.087 0-.17.01-.254.02l-.57.072v-1.918c0-5.228-4.25-9.48-9.479-9.48-5.225 0-9.48 4.252-9.48 9.48v1.932l-.578-.083a1.793 1.793 0 0 0-2.06 1.768v3.444a1.793 1.793 0 0 0 2.115 1.758l.532-.097zm9.471 9.877a10.498 10.498 0 0 1-10.344-8.732 2.81 2.81 0 0 1-2.789-2.805v-3.445a2.808 2.808 0 0 1 2.638-2.8v-.816c0-5.787 4.708-10.495 10.495-10.495 5.787 0 10.495 4.708 10.495 10.495v.818a2.806 2.806 0 0 1 2.61 2.798v3.445a2.807 2.807 0 0 1-2.76 2.805c-.847 5.01-5.21 8.732-10.345 8.732z" fill="url(#a)" transform="translate(0 1)"/><path d="M104.965 79.036H67.521V71.35c0-5.592 4.548-10.142 10.138-10.142h3.734v-4.994h1.016v6.01h-4.75c-5.03 0-9.123 4.094-9.123 9.126v6.67h35.414v-6.67c0-5.032-4.093-9.126-9.124-9.126h-4.75v-6.01h1.015v4.994h3.735c5.591 0 10.14 4.55 10.14 10.142v7.686zM77.431 41.085c-.304 0-.614-.007-.932-.023l.052-1.013c9.02.443 13.06-6.294 13.1-6.363l.558-.966.362 1.056c.02.056 1.984 5.674 5.58 6.22L95.997 41c-3.268-.497-5.26-4.234-6.028-5.994a15.594 15.594 0 0 1-12.538 6.08M83.37 52.07h5.405v-1.016H83.37zm1.647 1.688h2.11v-1.015h-2.11z" fill="url(#a)" transform="translate(0 1)"/><path d="M74.365 68.1h-4.644v-6.02a9.723 9.723 0 0 0 3.169-2.672l.043.176h10.333c-4.592-.85-2.624-12.759-4.592-19.563-1.968-6.805-7.873-7.856-12.628-7.856h-.167c-4.754 0-10.659 1.051-12.627 7.856-1.24 4.285-1.005 11.774-1.745 16.07l-2.112 3.432 8.297.06a9.727 9.727 0 0 0 3.027 2.492h-.504v6.026H55.57c-5.822 0-10.542 4.721-10.542 10.544v7.86h39.88v-7.86c0-5.823-4.72-10.544-10.543-10.544" fill="#FFF"/><path d="M74.724 68.306h-1.202l-8.444 16.837-8.442-16.837h-1.202c-5.978 0-10.824 4.846-10.824 10.824v8.067h40.936V79.13c0-5.978-4.844-10.824-10.822-10.824" fill="#FFF"/><path d="M74.801 67.496h-4.55V62.06h-.096a10.827 10.827 0 0 0 6.171-8.88 1.7 1.7 0 0 0 1.914-1.69V48.6a1.7 1.7 0 0 0-1.695-1.708c-.029 0-.054.003-.081.005v-1.75c0-1.27-.197-2.485-.546-3.622-.04-.134-.087-.266-.13-.398a11.5 11.5 0 0 0-.196-.534c-.065-.161-.135-.32-.208-.478a10.412 10.412 0 0 0-.262-.547c-.043-.084-.087-.163-.132-.244-1.487-2.723-3.982-4.682-6.914-5.24a10.695 10.695 0 0 0-2.482-.301c-5.95 0-10.775 4.851-10.775 10.835v2.258c-.028.012-.048.02-.051.023-.042-.003-.082-.007-.124-.007-.937 0-1.697.764-1.697 1.707v2.89a1.701 1.701 0 0 0 1.913 1.69 10.833 10.833 0 0 0 6.174 8.881h-.093v5.392l-.115-.128-.01.17h-4.425c-5.705 0-10.33 4.652-10.33 10.39v8.848h39.07v-8.849c0-5.737-4.626-10.388-10.33-10.388" fill="#FFF"/><path d="M85.687 85.771H44.79v-8.367c0-6.094 4.957-11.052 11.052-11.052h4.137v-5.519h1.016v6.534h-5.153c-5.533 0-10.036 4.504-10.036 10.037v7.352h38.866v-7.352c0-5.533-4.503-10.037-10.037-10.037h-5.153v-6.534h1.016v5.519h4.137c6.094 0 11.052 4.958 11.052 11.052v8.367z" fill="url(#a)" transform="translate(0 1)"/><path fill="url(#a)" d="M65.238 78.456l-9.025-11.06.788-.641 8.237 10.095 8.24-10.095.788.642z" transform="translate(0 1)"/><path d="M73.205 59.342h10.332c-4.591-.85-2.623-12.758-4.593-19.563-1.967-6.805-7.871-7.855-12.626-7.855h-.167c-4.754 0-10.66 1.05-12.627 7.855-1.97 6.805 0 18.713-4.593 19.563h9.103l-1.89-14.7c9.26-.15 13.253-7.29 13.253-7.29s1.323 6.607 5.551 7.267l-1.743 14.723z" fill="#FFF"/><path d="M55.82 44.745v8.528c0 5.345 4.332 9.678 9.676 9.678 5.345 0 9.679-4.333 9.679-9.678v-7.544c0-.392-.025-.532-.07-.912l-.157-.198c-4.228-.66-5.55-7.267-5.55-7.267s-3.993 7.14-13.255 7.29l-.323.103z" fill="#FFF"/><path fill="url(#a)" d="M48.93 58.85h9.103v-1.016H48.93z" transform="translate(0 1)"/><path d="M83.537 58.85H73.205v-1.016h8.482c-1.658-1.868-1.898-5.939-2.15-10.192-.18-3.077-.367-6.258-1.08-8.722-1.94-6.712-7.858-7.489-12.14-7.489h-.166c-4.282 0-10.198.777-12.14 7.489-.713 2.464-.9 5.645-1.08 8.722-.321 5.446-.623 10.592-3.907 11.199l-.185-.998c2.501-.463 2.78-5.223 3.078-10.261.183-3.133.376-6.372 1.12-8.944 1.6-5.532 5.89-8.222 13.114-8.222h.166c7.225 0 11.517 2.69 13.115 8.222.743 2.572.936 5.811 1.121 8.943.295 5.04.575 9.8 3.078 10.262l-.094 1.007z" fill="url(#a)" transform="translate(0 1)"/><path d="M56.328 44.146v8.128c0 5.055 4.113 9.168 9.168 9.168 5.058 0 9.17-4.113 9.17-9.168v-7.546c0-.288-.015-.428-.04-.652-3.292-.686-4.852-4.564-5.44-6.514-1.496 1.992-5.617 6.397-12.858 6.584m9.168 18.312c-5.614 0-10.183-4.57-10.183-10.184v-8.901l.823-.238c8.843-.144 12.78-6.963 12.82-7.031l.67-1.193.269 1.34c.014.064 1.305 6.269 5.13 6.866l.196.031.37.467.033.27c.038.311.058.473.058.843v7.546c0 5.615-4.569 10.184-10.186 10.184" fill="url(#a)" transform="translate(0 1)"/><path d="M65.929 57.08c-1.255 0-2.34-.415-3.074-.695l.363-.947c1.213.463 3.242 1.24 5.326-.23l.585.83c-1.112.784-2.208 1.042-3.2 1.042m-.999 1.85h2.302v-1.016H64.93z" fill="url(#a)" transform="translate(0 1)"/><path d="M44.699 36.724a1.919 1.919 0 1 1-3.838-.001 1.919 1.919 0 0 1 3.838.001" fill="#FFF"/><path d="M43.803 73.496v-5.144c4.02-1.9 6.98-5.847 7.385-10.518.085.01.174.017.264.017 1.14 0 2.062-.904 2.062-2.02v-3.424c0-1.117-.922-2.022-2.062-2.022-.034 0-.098-2.067-.098-2.067 0-1.502-.24-2.941-.664-4.29-.048-.16-.106-.313-.158-.47a18.026 18.026 0 0 0-.237-.633 13.47 13.47 0 0 0-.252-.566c-.1-.22-.206-.438-.319-.65-.051-.096-.107-.192-.16-.287-1.811-3.227-4.841-5.547-8.405-6.207a13.355 13.355 0 0 0-3.018-.356c-7.232 0-13.096 5.745-13.096 12.833v2.675c-.114.023-.164.018-.212.018-1.14 0-2.064.905-2.064 2.022v3.424c0 1.116.924 2.02 2.064 2.02.09 0 .177-.006.262-.017.404 4.671 3.367 8.618 7.505 10.518l-.114 5.094-.14-.152-.012.202h-5.379c-6.935 0-12.557 5.51-12.557 12.303v10.483h47.493V85.8c0-6.794-5.624-12.303-12.558-12.303h-5.53z" fill="#FFF"/><path d="M38.446 62.421c-1.257 0-2.343-.415-3.074-.696l.363-.948c1.213.463 3.239 1.242 5.324-.23l.585.832c-1.114.784-2.208 1.042-3.198 1.042M12.885 40.345h7.185V39.33h-7.185z" fill="url(#a)" transform="translate(0 1)"/><path fill="url(#a)" d="M15.969 43.43h1.015v-7.185H15.97z" transform="translate(0 1)"/><path d="M26.108 57.263l.044.529c.535 6.318 5.93 11.268 12.278 11.268 6.348 0 11.74-4.95 12.276-11.268l.046-.53.525.068c.86.105 1.708-.6 1.708-1.5v-3.422a1.517 1.517 0 0 0-1.67-1.507l-.56.058v-3.267c0-6.796-5.529-12.325-12.325-12.325-6.797 0-12.326 5.529-12.326 12.325v3.267l-.56-.058c-.875-.084-1.67.619-1.67 1.507v3.423c0 .9.846 1.614 1.706 1.499l.528-.067zM38.43 70.076c-6.714 0-12.438-5.113-13.24-11.726a2.531 2.531 0 0 1-2.332-2.52v-3.422c0-1.295.978-2.364 2.231-2.513v-2.203c0-7.356 5.986-13.34 13.341-13.34 7.356 0 13.34 5.984 13.34 13.34v2.203A2.534 2.534 0 0 1 54 52.408v3.423a2.532 2.532 0 0 1-2.33 2.519c-.801 6.613-6.527 11.726-13.24 11.726z"/><path d="M39.35 35.01h-1.297c-6.641 0-12.026 5.959-12.026 13.308v2.114c.68-.34 2.977-1.67 3.314-4.359.398-3.158 2.188-1.857 3.778-.928 1.551.907 3.108 1.457 5.582 1.482 2.476-.025 4.03-.575 5.583-1.482 1.589-.93 3.38-2.23 3.778.928.337 2.688 2.634 4.02 3.312 4.36v-2.115c0-7.35-5.382-13.308-12.024-13.308" fill="#FFF"/><path d="M62.206 96.79H14.658V85.8c0-7.064 5.747-12.811 12.81-12.811h4.913v.306l-4.1.709 3.867 8.926 6.284-3.92 5.823 3.92 4.13-8.679 1.01-1.262c7.064 0 12.811 5.747 12.811 12.81V96.79z" fill="#E7EBF9"/><path d="M38.884 46.63l-.183-.002c-.06 0-.12.003-.181.003h.364z" fill="#BFD9E0"/><path d="M62.206 96.79H14.658V85.8c0-7.064 5.747-12.811 12.81-12.811h4.913V68.35h1.016v5.653h-5.928c-6.505 0-11.796 5.292-11.796 11.796v9.975h45.518V85.8c0-6.504-5.291-11.796-11.796-11.796h-5.928V68.35h1.016v4.638h4.912c7.064 0 12.811 5.747 12.811 12.81V96.79z"/><path d="M62.206 95.79H14.658V84.8c0-7.064 5.747-12.811 12.81-12.811h4.913V67.35h1.016v5.653h-5.928c-6.505 0-11.796 5.292-11.796 11.796v9.975h45.518V84.8c0-6.504-5.291-11.796-11.796-11.796h-5.928V67.35h1.016v4.638h4.912c7.064 0 12.811 5.747 12.811 12.81V95.79zM37.457 64.274h1.993v-.698h-1.993z" fill="url(#a)" transform="translate(0 1)"/><path d="M26.108 56.263l.044.529c.535 6.318 5.93 11.268 12.278 11.268 6.348 0 11.74-4.95 12.276-11.268l.046-.53.525.068c.86.105 1.708-.6 1.708-1.5v-3.422a1.517 1.517 0 0 0-1.67-1.507l-.56.058v-3.267c0-6.796-5.529-12.325-12.325-12.325-6.797 0-12.326 5.529-12.326 12.325v3.267l-.56-.058c-.875-.084-1.67.619-1.67 1.507v3.423c0 .9.846 1.614 1.706 1.499l.528-.067zM38.43 69.076c-6.714 0-12.438-5.113-13.24-11.726a2.531 2.531 0 0 1-2.332-2.52v-3.422c0-1.295.978-2.364 2.231-2.513v-2.203c0-7.356 5.986-13.34 13.341-13.34 7.356 0 13.34 5.984 13.34 13.34v2.203A2.534 2.534 0 0 1 54 51.408v3.423a2.532 2.532 0 0 1-2.33 2.519c-.801 6.613-6.527 11.726-13.24 11.726z" fill="url(#a)" transform="translate(0 1)"/><path fill="url(#a)" d="M37.215 57.949h2.476v-1.016h-2.476zm-5.038 24.756a.507.507 0 0 1-.291-.924l5.26-3.665-4.765-5.091a.507.507 0 1 1 .742-.695l5.165 5.52a.511.511 0 0 1-.083.764l-5.739 4a.501.501 0 0 1-.289.091" transform="translate(0 1)"/><path d="M32.193 82.7a.507.507 0 0 1-.468-.31l-4.032-9.515a.508.508 0 0 1 .934-.396l4.032 9.515a.505.505 0 0 1-.466.705m12.036.006a.507.507 0 0 1-.292-.091l-5.737-4a.504.504 0 0 1-.072-.773l5.452-5.521a.507.507 0 1 1 .722.715l-5.027 5.09 5.243 3.656a.507.507 0 0 1-.29.924" fill="url(#a)" transform="translate(0 1)"/><path d="M44.213 82.701a.508.508 0 0 1-.468-.706l4.034-9.516a.507.507 0 1 1 .934.396l-4.034 9.517a.506.506 0 0 1-.466.31m6.989-32.83c-.14-.052-3.411-1.315-3.848-4.445-.101-.723-.3-1.18-.574-1.32-.46-.232-1.365.256-2.164.687l-.318.17c-1.796.947-3.458 1.363-5.662 1.404v.003l-.366-.003c-2.202-.04-3.866-.457-5.662-1.405l-.318-.17c-.8-.429-1.704-.918-2.164-.686-.275.14-.474.597-.574 1.32-.437 3.13-3.71 4.393-3.848 4.445l-.36-.95c.03-.01 2.851-1.11 3.202-3.636.153-1.097.52-1.78 1.12-2.083.93-.474 2.035.123 3.106.696l.309.166c1.432.755 2.902 1.265 5.372 1.29 2.47-.025 3.94-.535 5.37-1.29l.31-.166c1.07-.573 2.174-1.17 3.107-.696.6.303.967.986 1.12 2.083.35 2.527 3.17 3.625 3.201 3.635l-.36.95z" fill="url(#a)" transform="translate(0 1)"/><path fill="#DCE7FB" d="M89.89 74.623h9.212V71.17H89.89z"/><path fill="#FFF" d="M45.552 91.934h12.08v-3.685h-12.08z"/><path d="M31.13 26.512h15.524l4.695 4.172v-4.172h2.778l-.443-16.904C53.684 3.925 48.359.7 45.17.7H18.073v20.722c0 2.806 2.593 5.089 5.778 5.089h2.585l4.695 4.172v-4.172zm21.03 5.98l-5.815-5.169H31.943v5.17l-5.816-5.17H23.85c-3.634 0-6.59-2.646-6.59-5.9V0h28.546c3.635 0 8.797 3.925 8.797 9.608 0 5.683.335 17.715.335 17.715H52.16v5.17z" stroke="url(#a)" stroke-width=".5" fill="url(#a)" transform="translate(0 1)"/><path d="M31.13 27.512h15.524l4.695 4.172v-4.172h2.778l-.443-16.904c0-5.683-5.325-8.907-8.513-8.907H18.073v20.722c0 2.806 2.593 5.089 5.778 5.089h2.585l4.695 4.172v-4.172z" fill="#FFF"/><path d="M41.313 16.467c.69-.132 1.121-.677 1.126-1.342.004-.638-.679-1.264-1.302-1.307.117 0 .742-.307.747-1.047.006-.767-.754-1.382-1.6-1.387v-.013l-3.59-.025.872-3.287s.143-1.079-.14-1.735c-.385-.897-1.114-1.446-1.629-1.225-.498.214-.404.944-.402 1.646.002.703-.96 1.962-1.431 2.52-.672.798-1.67 1.664-2.385 2.299-.544.482-.936.869-1.29 1.305-.166.205-.34.556-.456.994-.123.463-.018 6.058.153 6.333.445.716 1.335 1.214 2.126 1.353.203.035 7.714.063 7.84.063.847.006 1.537-.611 1.542-1.378a1.331 1.331 0 0 0-.503-1.038c.769-.068 1.372-.654 1.377-1.371.005-.648-.395-1.2-1.055-1.358z" fill="#FFF"/><path d="M41.313 16.467c.69-.132 1.121-.677 1.126-1.342.004-.638-.679-1.264-1.302-1.307.117 0 .742-.307.747-1.047.006-.767-.754-1.382-1.6-1.387v-.013l-3.59-.025.872-3.287s.143-1.079-.14-1.735c-.385-.897-1.114-1.446-1.629-1.225-.498.214-.404.944-.402 1.646.002.703-.96 1.962-1.431 2.52-.672.798-1.67 1.664-2.385 2.299-.544.482-.936.869-1.29 1.305-.166.205-.34.556-.456.994-.123.463-.018 6.058.153 6.333.445.716 1.335 1.214 2.126 1.353.203.035 7.714.063 7.84.063.847.006 1.537-.611 1.542-1.378a1.331 1.331 0 0 0-.503-1.038c.769-.068 1.372-.654 1.377-1.371.005-.648-.395-1.2-1.055-1.358"/><path d="M12.26.426c-.342 0-.551.451-.772.93-.04.087-.08.175-.123.262-.36.745-1.997 1.514-2.49 1.732-.889.394-2.03.711-2.946.966l-.231.064c-.74.207-1.234.38-1.702.597-.232.108-.524.349-.779.643-.299.346-2.55 5.238-2.59 5.629.084.81.681 1.586 1.236 1.988.147.093 2.714 1.37 6.861 3.414l.13.063c.202.101.426.154.645.154.474 0 .887-.24 1.08-.627a1.14 1.14 0 0 0-.001-.983l-.201-.44.452.173c.166.063.338.095.512.095.473 0 .887-.24 1.079-.628a1.15 1.15 0 0 0-.302-1.441l-.708-.585.886.24a1.158 1.158 0 0 0 1.371-.61c.222-.448-.044-1.211-.52-1.485l.188-.35c-.01-.003.013 0 .054 0a.914.914 0 0 0 .811-.523c.136-.274.134-.602-.007-.923a1.57 1.57 0 0 0-.734-.76l-.18-.089.007-.011-3.266-1.622 2.392-2.764c-.002 0 .557-.856.588-1.5.02-.439-.055-.852-.216-1.165-.082-.16-.259-.431-.524-.444zM9.5 17.265a1.86 1.86 0 0 1-.822-.195l-.128-.064C4.07 14.8 1.74 13.64 1.63 13.558 1.004 13.104.33 12.22.232 11.27.188 10.847 2.6 5.728 2.917 5.36c.295-.34.627-.61.912-.743.49-.226 1-.405 1.762-.618l.232-.064c.904-.252 2.03-.565 2.892-.947.908-.402 2.053-1.047 2.293-1.543.041-.084.081-.17.12-.256.264-.57.537-1.16 1.112-1.16.384.018.689.252.898.66.19.374.282.859.257 1.364-.036.76-.642 1.682-.668 1.721l-2.073 2.398 3.167 1.572-.01.02c.327.208.594.512.745.858.189.43.189.877 0 1.259a1.31 1.31 0 0 1-.818.692c.382.47.528 1.175.284 1.666-.26.522-.741.845-1.3.874a1.56 1.56 0 0 1 .053 1.522c-.26.522-.81.847-1.434.847-.096 0-.19-.007-.285-.022.064.328.024.662-.123.957-.26.523-.809.848-1.434.848z" transform="rotate(-26 34.582 -48.29)" stroke="url(#a)" stroke-width=".5" fill="url(#a)"/><path fill="#F26C51" d="M41.27 14.06l-1.154-.009.003-.396 1.155.008zm-.017 2.607l-1.155-.009.003-.396 1.154.008zm-.216 2.75l-.958-.007.003-.396.958.007z"/><path fill="url(#a)" d="M83.262 95.061h6.93v-1.015h-6.93zm5.706-5.707h15.084v-1.016H88.968z" transform="translate(0 1)"/><path d="M85.535 14.2a3.447 3.447 0 0 0-3.443 3.443 3.447 3.447 0 0 0 3.443 3.442 3.447 3.447 0 0 0 3.445-3.442 3.448 3.448 0 0 0-3.445-3.443" fill="#CFDEF8"/></g></svg>