<svg width="1169" height="312" viewBox="0 0 1169 312" xmlns="http://www.w3.org/2000/svg" xmlns:xlink="http://www.w3.org/1999/xlink"><title>Group 37</title><defs><linearGradient x1="100%" y1="50%" x2="37.86%" y2="86.729%" id="d"><stop stop-color="#FCB69F" offset="0%"/><stop stop-color="#FFECD2" offset="100%"/></linearGradient><linearGradient x1="100%" y1="0%" x2="-1.495%" y2="100%" id="e"><stop stop-color="#EB815E" offset="0%"/><stop stop-color="#FDB8A1" offset="36.01%"/><stop stop-color="#FDD0B7" offset="100%"/></linearGradient><rect id="g" x="3" y="5" width="83.2" height="27.2" rx="4"/><filter x="-50%" y="-50%" width="200%" height="200%" filterUnits="objectBoundingBox" id="f"><feOffset dy="1" in="SourceAlpha" result="shadowOffsetOuter1"/><feGaussianBlur stdDeviation="4" in="shadowOffsetOuter1" result="shadowBlurOuter1"/><feColorMatrix values="0 0 0 0 0 0 0 0 0 0 0 0 0 0 0 0 0 0 0.1 0" in="shadowBlurOuter1"/></filter><rect id="a" width="89.6" height="32" rx="4"/><mask id="h" x="0" y="0" width="89.6" height="32" fill="#fff"><use xlink:href="#a"/></mask><rect id="j" x="3" y="5" width="83.2" height="27.2" rx="4"/><filter x="-50%" y="-50%" width="200%" height="200%" filterUnits="objectBoundingBox" id="i"><feOffset dy="1" in="SourceAlpha" result="shadowOffsetOuter1"/><feGaussianBlur stdDeviation="4" in="shadowOffsetOuter1" result="shadowBlurOuter1"/><feColorMatrix values="0 0 0 0 0 0 0 0 0 0 0 0 0 0 0 0 0 0 0.1 0" in="shadowBlurOuter1"/></filter><rect id="b" width="89.6" height="32" rx="4"/><mask id="k" x="0" y="0" width="89.6" height="32" fill="#fff"><use xlink:href="#b"/></mask><rect id="m" x="3" y="5" width="83.2" height="27.2" rx="4"/><filter x="-50%" y="-50%" width="200%" height="200%" filterUnits="objectBoundingBox" id="l"><feOffset dy="1" in="SourceAlpha" result="shadowOffsetOuter1"/><feGaussianBlur stdDeviation="4" in="shadowOffsetOuter1" result="shadowBlurOuter1"/><feColorMatrix values="0 0 0 0 0 0 0 0 0 0 0 0 0 0 0 0 0 0 0.1 0" in="shadowBlurOuter1"/></filter><rect id="c" width="89.6" height="32" rx="4"/><mask id="n" x="0" y="0" width="89.6" height="32" fill="#fff"><use xlink:href="#c"/></mask></defs><g transform="translate(1)" fill="none" fill-rule="evenodd"><path d="M0 156h1167" stroke="#7ADD99" stroke-linecap="square" stroke-dasharray="2,8"/><path d="M0 85h1167" stroke="#D9D9D9" stroke-linecap="square" stroke-dasharray="2,8"/><path fill="#FAFBFD" d="M484 0h32v207h-32zm227 0h32v177h-32zm327 0h32v207h-32z"/><path d="M399.127 217.24s29.219 8.07 42.043 13.277c12.824 5.207 42.528-29.45 59.452-29.45 16.277 0 24.04 28.576 43.48 29.45 21.741.977 47.411-29.852 71.496-29.45 18.469.31 38.583-1.333 57.084 0 22.73 1.64 30.057-48.357 50.884-47.412 23.015 1.044 44.053 26.49 54.748 26.49 7.31 0 16.504-16.064 23.689-14.417 8.86 2.032 17.676 23.485 29.453 19.704 21.327-6.847 34.724-37.727 34.724-37.727s19.816-33.086 50.933-36.07c25.217-2.42 55.24 24.032 83.887 19.525 28.646-4.506 28.847-44.392 51-45.49 20.952-1.04 17.92 16.4 52.251 16.4 11.725 0 23.937-1.18 33.386-5.953C1155.856 86.915 1167 71 1167 71v240.07H0v-4.578s115.418-2.63 160.387-10.254c44.969-7.624 95.253-36.664 112.011-38.457 16.759-1.792 72.468 3.76 87.457-1.792" fill="url(#d)"/><path d="M.88 306.455s136.252-7.147 152.526-9.572c47.883-7.137 98.36-39.387 126.024-39.387 28.157 0 46.062 1.98 72.87 0 22.183-1.638 33.86-39.422 48.973-39.422 15.114 0 34.427 12.121 40.77 12.121 16.924 0 42.527-29.449 59.452-29.449 16.277 0 24.04 28.576 43.479 29.45 21.742.977 47.412-29.853 71.497-29.45 18.468.31 38.583-1.334 57.083 0 22.73 1.639 30.058-48.357 50.885-47.413 23.015 1.044 42.535 25.651 53.23 25.651 7.31 0 15.097-15.47 22.283-13.823 8.86 2.032 19.9 22.667 31.677 18.886 21.327-6.847 33.458-34.412 33.458-34.412s27.581-38.537 54.304-38.537c26.722 0 53.093 21.011 79.082 21.011 20.351 0 38.98-46.382 53.222-46.382 22.79 0 26.832 17 51.57 17 49.126 0 63.735-32.851 63.735-32.851" stroke="url(#e)" stroke-width="2" stroke-linecap="round"/><path d="M0 200h1167" stroke="#D9D9D9" stroke-linecap="square" stroke-dasharray="2,8"/><text font-family="GothamPro, Gotham Pro" font-size="14" fill-opacity=".54" fill="#363636"><tspan x="701" y="117">4 з/час</tspan></text><circle stroke="#F8A56F" stroke-width="2" fill="#FFF" cx="500" cy="201" r="8"/><g transform="translate(455 148)"><use fill="#000" filter="url(#f)" xlink:href="#g"/><use fill="#FFF" xlink:href="#g"/><use stroke="#FAFBFD" mask="url(#h)" stroke-width="2" fill="#FFF" xlink:href="#a"/></g><text font-family="GothamPro, Gotham Pro" font-size="14" fill-opacity=".54" fill="#363636"><tspan x="474" y="164">2 з/час</tspan></text><g transform="translate(682 101)"><use fill="#000" filter="url(#i)" xlink:href="#j"/><use fill="#FFF" xlink:href="#j"/><use stroke="#FAFBFD" mask="url(#k)" stroke-width="2" fill="#FFF" xlink:href="#b"/></g><g transform="translate(1009 32)"><use fill="#000" filter="url(#l)" xlink:href="#m"/><use fill="#FFF" xlink:href="#m"/><use stroke="#FAFBFD" mask="url(#n)" stroke-width="2" fill="#FFF" xlink:href="#c"/></g><text font-family="GothamPro, Gotham Pro" font-size="14" fill-opacity=".54" fill="#363636"><tspan x="701" y="117">3 з/час</tspan></text><text font-family="GothamPro, Gotham Pro" font-size="14" fill-opacity=".54" fill="#363636"><tspan x="1028" y="48">6 з/час</tspan></text><circle stroke="#F8A56F" stroke-width="2" fill="#FFF" cx="727" cy="154" r="8"/><circle stroke="#F8A56F" stroke-width="2" fill="#FFF" cx="1054" cy="85" r="8"/><text font-family="GothamPro, Gotham Pro" font-size="14" fill="#7ADD99"><tspan x="0" y="141">Норма по заказам</tspan></text><text font-family="GothamPro, Gotham Pro" font-size="14" fill-opacity=".54" fill="#363636"><tspan x="0" y="185">Спецпредложение от системы</tspan></text><text font-family="GothamPro, Gotham Pro" font-size="14" fill-opacity=".54" fill="#363636"><tspan x="0" y="70">Водитель перевыполнил план</tspan></text></g></svg>