<svg width="320" height="291" viewBox="0 0 320 291" xmlns="http://www.w3.org/2000/svg" xmlns:xlink="http://www.w3.org/1999/xlink"><title>Group 38</title><defs><linearGradient x1="100%" y1="50%" x2="37.86%" y2="86.729%" id="d"><stop stop-color="#FCB69F" offset="0%"/><stop stop-color="#FFECD2" offset="100%"/></linearGradient><linearGradient x1="100%" y1="0%" x2="-1.495%" y2="100%" id="e"><stop stop-color="#EB815E" offset="0%"/><stop stop-color="#FDB8A1" offset="36.01%"/><stop stop-color="#FDD0B7" offset="100%"/></linearGradient><rect id="g" x="6" y="8" width="52" height="16" rx="4"/><filter x="-50%" y="-50%" width="200%" height="200%" filterUnits="objectBoundingBox" id="f"><feOffset dy="1" in="SourceAlpha" result="shadowOffsetOuter1"/><feGaussianBlur stdDeviation="4" in="shadowOffsetOuter1" result="shadowBlurOuter1"/><feColorMatrix values="0 0 0 0 0 0 0 0 0 0 0 0 0 0 0 0 0 0 0.1 0" in="shadowBlurOuter1"/></filter><rect id="a" width="64" height="24" rx="4"/><mask id="h" x="0" y="0" width="64" height="24" fill="#fff"><use xlink:href="#a"/></mask><rect id="j" x="6" y="8" width="52" height="16" rx="4"/><filter x="-50%" y="-50%" width="200%" height="200%" filterUnits="objectBoundingBox" id="i"><feOffset dy="1" in="SourceAlpha" result="shadowOffsetOuter1"/><feGaussianBlur stdDeviation="4" in="shadowOffsetOuter1" result="shadowBlurOuter1"/><feColorMatrix values="0 0 0 0 0 0 0 0 0 0 0 0 0 0 0 0 0 0 0.1 0" in="shadowBlurOuter1"/></filter><rect id="b" width="64" height="24" rx="4"/><mask id="k" x="0" y="0" width="64" height="24" fill="#fff"><use xlink:href="#b"/></mask><rect id="m" x="6" y="8" width="52" height="16" rx="4"/><filter x="-50%" y="-50%" width="200%" height="200%" filterUnits="objectBoundingBox" id="l"><feOffset dy="1" in="SourceAlpha" result="shadowOffsetOuter1"/><feGaussianBlur stdDeviation="4" in="shadowOffsetOuter1" result="shadowBlurOuter1"/><feColorMatrix values="0 0 0 0 0 0 0 0 0 0 0 0 0 0 0 0 0 0 0.1 0" in="shadowBlurOuter1"/></filter><rect id="c" width="64" height="24" rx="4"/><mask id="n" x="0" y="0" width="64" height="24" fill="#fff"><use xlink:href="#c"/></mask></defs><g fill="none" fill-rule="evenodd"><text font-family="GothamPro, Gotham Pro" font-size="12" fill="#7ADD99" transform="translate(0 -3)"><tspan x="104.96" y="49">Норма по </tspan> <tspan x="115.604" y="64">заказам</tspan></text><text font-family="GothamPro, Gotham Pro" font-size="12" fill-opacity=".54" fill="#363636" transform="translate(0 -3)"><tspan x="29.208" y="90">Система </tspan> <tspan x="20.94" y="105">повысила </tspan> <tspan x="42.036" y="120">тариф</tspan></text><text font-family="GothamPro, Gotham Pro" font-size="12" fill-opacity=".54" fill="#363636" transform="translate(0 -3)"><tspan x="182.38" y="9">Перевыполнение</tspan> <tspan x="252.844" y="24">плана</tspan></text><g transform="translate(0 35)"><path fill="#FAFBFD" d="M139 40h24v216h-24zM57 96h24v160H57zM265 0h24v256h-24z"/><path d="M29.169 220.042s11.067 3.093 15.924 5.088c4.857 1.996 16.107-11.285 22.517-11.285 6.165 0 9.105 10.95 16.468 11.285 8.235.375 17.957-11.44 27.08-11.285 6.994.118 14.612-.512 21.62 0 8.609.628 11.384-18.532 19.272-18.17 8.717.4 16.685 10.152 20.736 10.152 2.768 0 6.25-6.157 8.972-5.525 3.356.779 6.694 9 11.155 7.55 8.078-2.623 13.152-14.457 13.152-14.457s7.505-12.68 19.29-13.823c9.551-.927 20.923 9.21 31.773 7.483 10.85-1.727 10.926-17.012 19.316-17.433 7.935-.399 6.787 6.285 19.79 6.285 4.44 0 9.066-.453 12.645-2.282C315.779 170.1 320 164 320 164v92H0v-21.109s8.618 2.129 14.295 0" fill="url(#d)"/><path d="M0 234.745s1.04.747 11.2 0c8.409-.618 12.835-14.865 18.563-14.865 5.729 0 13.049 4.57 15.453 4.57 6.415 0 16.12-11.103 22.534-11.103 6.17 0 9.112 10.774 16.48 11.104 8.242.368 17.971-11.256 27.1-11.104 7 .116 14.625-.503 21.637 0 8.616.618 11.393-18.234 19.287-17.878 8.723.394 16.122 9.672 20.176 9.672 2.77 0 5.722-5.833 8.446-5.212 3.359.766 7.543 8.547 12.007 7.121 8.084-2.582 12.681-12.976 12.681-12.976s10.455-14.53 20.583-14.53c10.13 0 20.125 7.922 29.975 7.922 7.714 0 14.775-17.49 20.174-17.49 8.637 0 10.17 6.41 19.546 6.41C314.462 176.387 320 164 320 164" stroke="url(#e)" stroke-linecap="round"/><path d="M151 202a5 5 0 1 0 0-10 5 5 0 0 0 0 10z" stroke="#F8A56F" fill="#FFF"/><g transform="translate(37 170)"><use fill="#000" filter="url(#f)" xlink:href="#g"/><use fill="#FFF" xlink:href="#g"/><use stroke="#FAFBFD" mask="url(#h)" stroke-width="2" fill="#FFF" xlink:href="#a"/></g><text font-family="GothamPro, Gotham Pro" font-size="12" fill-opacity=".54" fill="#363636" transform="translate(37 170)"><tspan x="10" y="13">2 з/час</tspan></text><g transform="translate(119 152)"><use fill="#000" filter="url(#i)" xlink:href="#j"/><use fill="#FFF" xlink:href="#j"/><use stroke="#FAFBFD" mask="url(#k)" stroke-width="2" fill="#FFF" xlink:href="#b"/></g><text font-family="GothamPro, Gotham Pro" font-size="12" fill-opacity=".54" fill="#363636" transform="translate(119 152)"><tspan x="10" y="13">3 з/час</tspan></text><g transform="translate(245 125)"><use fill="#000" filter="url(#l)" xlink:href="#m"/><use fill="#FFF" xlink:href="#m"/><use stroke="#FAFBFD" mask="url(#n)" stroke-width="2" fill="#FFF" xlink:href="#c"/></g><text font-family="GothamPro, Gotham Pro" font-size="12" fill-opacity=".54" fill="#363636" transform="translate(245 125)"><tspan x="10" y="13">6 з/час</tspan></text><circle stroke="#ED8968" fill="#FFF" cx="277" cy="170" r="5"/><path d="M67 220a5 5 0 1 0 0-10 5 5 0 0 0 0 10z" stroke="#F8A56F" fill="#FFF"/></g></g></svg>