<svg width="28" height="28" viewBox="0 0 28 28" xmlns="http://www.w3.org/2000/svg"><title>Group 4</title><defs><linearGradient x1="12.957%" y1="80.245%" y2="15.021%" id="a"><stop stop-color="#F8A56F" offset="0%"/><stop stop-color="#F5875F" offset="53.002%"/><stop stop-color="#F26C51" offset="100%"/></linearGradient></defs><g fill="none" fill-rule="evenodd"><rect fill="url(#a)" width="28" height="28" rx="14"/><path d="M11.561 7.543a.913.913 0 0 1 .868-.535c1.005.004 2.011-.005 3.016.004.376-.006.722.264.838.615.088.287.046.592.044.887.392.002.784-.008 1.176.005.715.053 1.434.41 1.824 1.026.186.283.226.626.305.947.132.592.278 1.182.403 1.776.015.06.03.121.048.182.32 0 .659-.042.959.097.434.187.732.647.724 1.12 0 .807.002 1.614 0 2.421a1.216 1.216 0 0 1-.964 1.176c-3.101.414-6.237.795-9.37.549a46.69 46.69 0 0 1-4.079-.505c-.32-.018-.65-.095-.894-.319-.24-.2-.372-.501-.417-.805-.01-.84 0-1.68-.002-2.521a1.225 1.225 0 0 1 1.01-1.205c.267-.03.536-.01.804-.01.21-.824.38-1.659.58-2.485.18-.653.765-1.113 1.387-1.32.534-.183 1.104-.12 1.657-.126.015-.324-.056-.667.083-.974zm-2.055 2.99c-.133.638-.285 1.273-.42 1.912 3.23-.003 6.46-.003 9.69-.001-.139-.647-.293-1.29-.436-1.935-.098-.46-.574-.74-1.016-.766-2.241-.003-4.483 0-6.723-.001-.479-.01-.996.299-1.095.79zm-1.118 3.462c-.546.119-.938.717-.784 1.262.11.516.654.884 1.174.796a1.06 1.06 0 0 0 .847-.756c.11-.373-.02-.8-.31-1.054-.242-.233-.602-.311-.927-.248zm10.555 0a1.074 1.074 0 0 0-.78.797c-.147.59.322 1.233.928 1.27.655.088 1.271-.565 1.136-1.214-.077-.587-.714-1.004-1.284-.853zm-11.99 4.156c1.01.15 2.02.305 3.033.429-.01.252.005.505-.009.757-.031.418-.335.8-.737.92-.267.086-.55.04-.823.052-.273-.008-.562.03-.819-.086a1.062 1.062 0 0 1-.643-.95c0-.374-.003-.748-.002-1.122zm10.874.377c1.012-.106 2.02-.248 3.029-.375-.002.392.008.783-.005 1.175-.02.5-.454.94-.952.975-.327.014-.654.004-.98.007a1.06 1.06 0 0 1-.959-.55c-.218-.374-.104-.822-.133-1.232z" fill="#FFF"/></g></svg>