<svg xmlns="http://www.w3.org/2000/svg" width="44" height="56" viewBox="0 0 44 56"><defs><linearGradient id="a" x1="12.957%" y1="80.245%" y2="15.021%"><stop offset="0%" stop-color="#F8A56F"/><stop offset="100%" stop-color="#F26C51"/></linearGradient></defs><g fill="url(#a)" fill-rule="evenodd" transform="translate(-768 -986)"><path d="M773.787 989.496h-4.773a1.923 1.923 0 0 1-.124-.68c0-1.05.842-1.905 1.876-1.905h2.456a.449.449 0 0 0 .445-.451c0-.25-.2-.452-.445-.452h-2.456c-1.525 0-2.766 1.26-2.766 2.808 0 .47.118.937.341 1.35a.443.443 0 0 0 .39.234h5.056a.449.449 0 0 0 .445-.452c0-.25-.2-.452-.445-.452z"/><path d="M790.946 986.008h-19.605a2.25 2.25 0 0 0-.45.004.45.45 0 0 0-.39.476.448.448 0 0 0 .445.423h.362c.3.027.768.132 1.172.492.582.522.878 1.424.878 2.682v21.743c0 1.158.332 2.043.987 2.63.718.644 1.624.733 2.058.733.16 0 .257-.012.257-.013h7.364a.449.449 0 0 0 .446-.452c0-.25-.2-.452-.446-.452l-7.419.004c-.01 0-.997.106-1.671-.497-.455-.408-.686-1.065-.686-1.953v-21.743c0-1.4-.333-2.466-.991-3.174h17.688c.247.002 2.414.086 2.414 2.447v10.592c0 .249.2.451.445.451a.449.449 0 0 0 .445-.451v-10.592c0-2.65-2.16-3.35-3.303-3.35"/><path d="M781.563 999.529c-.287-.021-.466.002-.466.002a.45.45 0 0 0-.391.476.446.446 0 0 0 .442.424h.382c.24 0 .436-.192.445-.435a.449.449 0 0 0-.412-.467"/><path d="M783.48 1014.282h-5.078c.576-.645.71-1.59.715-2.973-.013-3.253-.025-8.68-.025-8.974 0-1.05.842-1.904 1.876-1.904h2.456a.449.449 0 0 0 .445-.452.448.448 0 0 0-.445-.451h-2.456c-1.525 0-2.766 1.26-2.766 2.807 0 .293.011 5.723.025 8.974-.008 2.111-.295 2.614-1.701 2.988a.453.453 0 0 0 .113.888h6.841a.449.449 0 0 0 .445-.451c0-.25-.2-.452-.445-.452"/><path d="M801.149 999.528H781.53a.448.448 0 0 0-.444.433.45.45 0 0 0 .409.469c.771.063 2.065.56 2.065 3.174 0 1.753-.004 4.06-.008 6.528-.005 2.834-.01 5.879-.01 8.534 0 .25.2.452.445.452a.449.449 0 0 0 .445-.452c0-2.654.006-5.699.01-8.533.004-2.467.008-4.775.008-6.529 0-1.603-.43-2.58-.98-3.173h17.677c.247.002 2.414.085 2.414 2.448v15.838c0 .25.2.452.445.452a.448.448 0 0 0 .445-.452v-15.838c0-2.651-2.16-3.351-3.302-3.351"/><path d="M799.315 1009.093h-10.682a.449.449 0 0 0-.446.452c0 .25.2.452.446.452h10.682a.449.449 0 0 0 .446-.452c0-.25-.2-.452-.446-.452m0 5.42h-10.682a.449.449 0 0 0-.446.451c0 .25.2.452.446.452h10.682a.449.449 0 0 0 .446-.452c0-.249-.2-.451-.446-.451m-10.089-20.473h-10.683a.449.449 0 0 0-.445.451c0 .25.2.452.445.452h10.683a.449.449 0 0 0 .445-.452c0-.25-.2-.451-.445-.451m21.579 44.564c0 2.01-1.843 2.085-2.058 2.087h-27.932c-.211-.002-2.059-.075-2.059-2.087v-17.344c0-2.012 1.848-2.085 2.057-2.087h27.936c.084 0 2.056.024 2.056 2.087v17.344zm-2.056-20.334h-27.936c-1.02 0-2.947.626-2.947 2.99v17.344c0 2.365 1.928 2.99 2.947 2.99h27.936c1.019 0 2.946-.625 2.946-2.99v-17.344c0-2.364-1.927-2.99-2.946-2.99z"/><path d="M789.57 1036.883h-7.506a.448.448 0 0 0-.445.452c0 .25.2.452.445.452h7.505a.449.449 0 0 0 .445-.452c0-.25-.2-.452-.445-.452m.001-3.383h-7.506a.448.448 0 0 0-.445.45c0 .25.2.452.445.452h7.505a.449.449 0 0 0 .445-.451c0-.25-.2-.452-.445-.452m21.681-11.422h-32.939a.449.449 0 0 0-.445.452c0 .25.2.451.445.451h32.94a.449.449 0 0 0 .444-.451.448.448 0 0 0-.445-.452m0 4.231h-32.939a.449.449 0 0 0-.445.451c0 .25.2.452.445.452h32.94a.449.449 0 0 0 .444-.452.447.447 0 0 0-.445-.451m-13.072 10.576h8.902v-5.22h-8.902v5.22zm9.347-6.123h-9.792a.449.449 0 0 0-.445.452v6.122c0 .25.2.452.445.452h9.792a.449.449 0 0 0 .446-.452v-6.122c0-.25-.2-.452-.446-.452z"/></g></svg>