<svg width="48" height="48" viewBox="0 0 48 48" xmlns="http://www.w3.org/2000/svg"><title>D3789FBB-5A7D-4BBB-9E36-03DC7280B9A9</title><g fill="none" fill-rule="evenodd"><circle fill="#FFF" cx="24" cy="24" r="24"/><path d="M29.72 31.733l2.928 3.219a15.92 15.92 0 0 1-1.915 1.223A14.89 14.89 0 0 1 23.558 38C15.541 38 9 31.711 9 24.001 9 16.29 15.541 10 23.558 10c2.283 0 4.451.512 6.382 1.42.303.138.602.292.902.458l-1.34 1.153-2.007-2.001-3.398 2.916-2.013-2.12-6.337 5.488 4.06 4.304-1.597 1.347 4 4.308-1.589 1.345 5.715 6.116 3.384-3.001zm6.951-8.69l1.556 1.666-1.729 1.498-1.558-1.664 1.731-1.5zm-2.396 5.867l2.339 2.499-2.598 2.249-2.34-2.499 2.6-2.249zM27.38 13.568l2.339 2.499-2.598 2.249-2.338-2.499 2.597-2.249zm-5.49.864l3.117 3.33-3.463 2.997-3.116-3.33 3.462-2.997zm7.625 8.904l-2.338-2.496 2.593-2.25 2.343 2.497-2.598 2.249zm3.212-3.737l1.726-1.499 1.556 1.665-1.724 1.499-1.558-1.665zm-.991 9.01l-2.343-2.493 2.598-2.251 2.343 2.494-2.598 2.25zm-1.221-13.958l1.73-1.498 1.557 1.665-1.73 1.498-1.557-1.665zm-6.49 11.793l-3.117-3.33 3.462-3.001 3.117 3.33-3.462 3.001zm2.462 5.756l-3.114-3.33 3.46-2.997 3.116 3.33-3.462 2.997z" fill="#0159A3"/></g></svg>