<svg width="114" height="73" viewBox="0 0 114 73" xmlns="http://www.w3.org/2000/svg"><title>96924872-B1E2-464A-AE07-353813E38382</title><g fill="none" fill-rule="evenodd"><path fill="#FF8203" d="M.105 72.782h113.567V.386H.105z"/><path d="M0 .28v72.607h113.777V.281H0zm.21 72.397h113.358V.49H.21v72.186z" fill="#FFF"/><path d="M56.922 6.179c27.617 0 50.016 13.617 50.016 30.4 0 16.792-22.399 30.409-50.016 30.409-27.615 0-50.01-13.617-50.01-30.409 0-16.783 22.395-30.4 50.01-30.4" fill="#FFF"/><path d="M19.07 20.39l-4.976 7.427h39.533l5.342-7.428z"/><path d="M78.25 23.684c.58-.848 1.846-3.298-1.867-3.294h-.191l-15.237.05-3.674 7.4h11.754l-16.147 29L78.25 23.683z" fill="#0091D4"/><path d="M14.658 43.633c-2.863-.082-4.835-3.189-3.828-6.226.876-2.636 2.44-4.804 4.884-6.227 1.544-.935 3.244-1.37 5.042-1.37 1.317 0 2.303.32 2.66.613l.236.189-1.825 3.018-.382-.242c-.215-.13-.851-.359-1.862-.359-.942 0-1.898.306-2.696.863-1.177.805-2.106 2.138-2.546 3.68-.53 1.844.149 2.864 1.91 2.864.772 0 1.598-.143 2.207-.375l.607-.232-.584 3.092s-1.318.8-3.823.712m68.739 0c-2.865-.082-4.838-3.189-3.827-6.226.874-2.636 2.438-4.804 4.883-6.227 1.543-.935 3.242-1.37 5.041-1.37 1.317 0 2.302.32 2.66.613l.234.189-1.823 3.018-.38-.242c-.218-.13-.857-.359-1.864-.359-.943 0-1.899.306-2.695.863-1.18.805-2.106 2.138-2.548 3.68-.529 1.844.15 2.864 1.91 2.864.773 0 1.599-.143 2.208-.375l.607-.232-.583 3.092s-1.317.8-3.823.712M28.962 32.959c-.637 0-1.305.276-1.935.805-1.147.924-2.134 2.771-2.522 4.123-.344 1.196-.404 2.621 1.263 2.621.587 0 1.257-.274 1.887-.777 1.055-.866 2.097-2.801 2.49-4.166.75-2.606-.704-2.606-1.183-2.606m-4.46 10.693c-3.09 0-4.509-2.28-3.533-5.676.703-2.444 2.227-4.78 4.079-6.25 1.564-1.236 3.379-1.915 5.115-1.915 3.124 0 4.503 2.233 3.514 5.679-.702 2.442-2.198 4.766-4 6.23-1.587 1.272-3.375 1.932-5.175 1.932m13.768-.202L38 38.146a47.456 47.456 0 0 1-.03-2.292c-.382.85-.823 1.81-1.307 2.84l-2.227 4.756h-3.317l6.334-13.432h3.725l.246 5.078c.01.642.01 1.245-.003 1.845.263-.62.563-1.28.907-2.005l2.307-4.918h3.315L41.636 43.45H38.27zm15.112 0l4.82-10.176h-3.246l1.541-3.256h10.148l-1.553 3.256H61.78L56.958 43.45zm21.919-6.208s.652-3.055.693-3.262c-.175.257-2.337 3.262-2.337 3.262h1.644zm-1.403 6.208l.684-3.25h-2.901l-2.443 3.25H65.35l10.633-13.43h4.009l-2.33 13.431h-3.764zm16.716 0l4.822-10.176H92.15l1.579-3.256h10.147l-1.552 3.256h-3.313L94.19 43.45z" fill="#1F191A"/><path d="M47.778 45.428L61.71 17.59 38.567 49.677l-.063.08s-.688.887-.553 1.89c.089.662.616 1.249 2.221 1.243.134 0 .258.006.376.019h13.944l4.022-7.481H47.778z" fill="#0091D4"/><path d="M62.295 45.428l-5.673 7.48h36.219l4.54-7.49z"/></g></svg>