<svg width="48" height="48" viewBox="0 0 48 48" xmlns="http://www.w3.org/2000/svg"><title>F8E77A06-86F2-47A5-90B1-40EF1F015A1D</title><g fill="none" fill-rule="evenodd"><circle fill="#FFF" cx="24" cy="24" r="24"/><path d="M17.855 18.5l13.068-7.517a14.462 14.462 0 0 0-1.702-.853l-11.366 6.538-5.061-2.912c-.361.397-.7.814-1.016 1.248l6.077 3.497zm15.818-5.434c-.404-.39-.831-.755-1.278-1.097l-14.54 8.364-6.942-3.993c-.262.458-.5.934-.712 1.423l7.654 4.401 15.818-9.098zm-15.818 10.93l-8.213-4.722c-.16.523-.293 1.059-.394 1.606l8.607 4.95 17.88-10.285a14.768 14.768 0 0 0-.952-1.285l-16.928 9.736zm20.283-.434c0 8.045-6.523 14.568-14.569 14.568C15.523 38.13 9 31.607 9 23.562c0-.328.013-.652.034-.973l8.82 5.074L36.54 16.916a14.519 14.519 0 0 1 1.6 6.646z" fill="#00A831"/></g></svg>