<svg width="55" height="40" viewBox="0 0 55 40" xmlns="http://www.w3.org/2000/svg"><title>C8035A31-ADF2-449B-B020-0D6D028F9229</title><defs><linearGradient x1="12.957%" y1="80.245%" y2="15.021%" id="a"><stop stop-color="#F8A56F" offset="0%"/><stop stop-color="#F26C51" offset="100%"/></linearGradient></defs><g transform="translate(-868 -4521)" fill="url(#a)" fill-rule="evenodd"><path d="M909.799 4544.58a.435.435 0 0 1-.435-.435v-5.098h-6.956a.435.435 0 0 1 0-.87h7.39c.24 0 .435.195.435.435v4.483l4.79-4.79a.433.433 0 0 1 .308-.128h6.519v-15.728h-24.028v12.014a.435.435 0 0 1-.87 0v-12.449c0-.24.195-.434.435-.434h24.897c.24 0 .435.194.435.434v16.598c0 .24-.195.435-.435.435h-6.773l-5.405 5.405a.433.433 0 0 1-.307.128m-32.06 15.905h-3.312a.435.435 0 0 1-.435-.434v-8.634a.435.435 0 0 1 .87 0v8.199h2.442v-8.199a.435.435 0 0 1 .87 0v8.634c0 .24-.195.434-.435.434m-8.869-11.668l1.066.621v-9.764l-1.066.62v8.523zm1.5 1.813a.43.43 0 0 1-.219-.06l-1.935-1.128a.435.435 0 0 1-.216-.375v-9.023c0-.154.082-.297.216-.375l1.936-1.127a.436.436 0 0 1 .653.376v11.278a.435.435 0 0 1-.435.434zm32-1.691a.436.436 0 0 1-.125-.852l1.586-.473v-6.117l-1.585-.472a.435.435 0 0 1 .248-.834l1.896.565a.434.434 0 0 1 .31.417v6.765a.435.435 0 0 1-.31.416l-1.895.567a.447.447 0 0 1-.125.018"/><path d="M900.113 4555.706a.454.454 0 0 1-.107-.014l-19.74-5.075a.435.435 0 0 1 .217-.843l19.196 4.936v-20.309l-19.196 4.938a.435.435 0 1 1-.216-.843l19.739-5.077a.44.44 0 0 1 .374.077c.106.083.168.21.168.344v21.43a.437.437 0 0 1-.435.436"/><path d="M901.24 4556.78c-.876 0-1.561-.562-1.561-1.28a.435.435 0 1 1 .87 0c0 .194.295.411.69.411.399 0 .696-.217.696-.411v-21.994c0-.194-.297-.41-.695-.41-.396 0-.692.216-.692.41a.435.435 0 0 1-.87 0c0-.718.686-1.28 1.562-1.28.878 0 1.565.562 1.565 1.28v21.994c0 .718-.687 1.28-1.565 1.28m-21.847-5.022h-6.203a.435.435 0 0 1-.435-.435v-.693h-.354c-.206.337-.648.564-1.17.564-.726 0-1.295-.438-1.295-.998a.435.435 0 0 1 .87-.013c.028.046.18.141.425.141.254 0 .407-.103.428-.147 0-.24.192-.416.432-.416h1.099c.24 0 .435.195.435.435v.692h5.333v-.692c0-.24.195-.435.435-.435h.692v-10.408h-7.994a.435.435 0 0 1-.435-.435c-.018-.027-.17-.133-.425-.133-.256 0-.408.106-.429.15 0 .24-.193.426-.433.426a.44.44 0 0 1-.433-.443c0-.562.569-1.002 1.295-1.002.523 0 .965.229 1.17.567h8.12c.24 0 .434.195.434.435v11.278c0 .24-.195.434-.435.434h-.692v.693c0 .24-.195.435-.435.435"/></g></svg>