<svg width="49" height="50" viewBox="0 0 49 50" xmlns="http://www.w3.org/2000/svg"><title>D94FCE2B-CBEE-4CC3-A26E-76FCCAE5558F</title><defs><linearGradient x1="12.957%" y1="80.245%" y2="15.021%" id="a"><stop stop-color="#F8A56F" offset="0%"/><stop stop-color="#F26C51" offset="100%"/></linearGradient></defs><g transform="translate(-468 -1503)" fill="url(#a)" fill-rule="evenodd"><path d="M490.084 1506.922c-11.742.385-21.224 10.214-21.224 22.115 0 12.203 9.843 22.131 21.941 22.131 11.722 0 21.462-9.498 21.917-21.263h-7.463c-.445 7.739-6.716 13.741-14.454 13.741-7.986 0-14.484-6.553-14.484-14.61 0-7.75 6.137-14.207 13.767-14.587v-7.527zm.717 45.114c-12.572 0-22.801-10.318-22.801-23 0-12.52 10.097-22.833 22.509-22.991a.402.402 0 0 1 .308.125.435.435 0 0 1 .127.309v8.39a.43.43 0 0 1-.421.433c-7.359.15-13.345 6.31-13.345 13.735 0 7.576 6.111 13.741 13.623 13.741 7.41 0 13.39-5.85 13.612-13.32a.432.432 0 0 1 .43-.421h8.318a.43.43 0 0 1 .43.442c-.233 12.437-10.457 22.557-22.79 22.557z"/><path d="M507.856 1525.992h7.46c-.301-11.626-9.69-21.157-21.214-21.536v7.527c7.534.365 13.464 6.407 13.754 14.009m7.897.868h-8.317a.432.432 0 0 1-.43-.43c-.075-7.472-5.935-13.444-13.342-13.594a.433.433 0 0 1-.422-.434v-8.39a.43.43 0 0 1 .43-.434h.006c12.33.158 22.427 10.405 22.506 22.845a.435.435 0 0 1-.43.437m-33.414 7.963h3.155v-4.918h-3.155v4.918zm3.585.867h-4.015a.432.432 0 0 1-.43-.433v-5.786c0-.24.193-.434.43-.434h4.015c.238 0 .43.194.43.434v5.786a.431.431 0 0 1-.43.433zm3.299-.867h3.154v-7.233h-3.154v7.233zm3.585.867h-4.016a.432.432 0 0 1-.43-.433v-8.1c0-.24.193-.435.43-.435h4.016c.237 0 .43.195.43.434v8.1c0 .24-.193.434-.43.434z"/><path d="M496.107 1534.823h3.155v-14.755h-3.155v14.755zm3.585.867h-4.015a.432.432 0 0 1-.43-.433v-15.622c0-.24.192-.434.43-.434h4.015c.237 0 .43.194.43.434v15.622a.432.432 0 0 1-.43.433z"/></g></svg>