<svg width="64" height="57" viewBox="0 0 64 57" xmlns="http://www.w3.org/2000/svg"><title>32978076-36F4-4E9E-B1E5-BA93AE976A3D</title><defs><linearGradient x1="12.957%" y1="80.245%" y2="15.021%" id="a"><stop stop-color="#F8A56F" offset="0%"/><stop stop-color="#F26C51" offset="100%"/></linearGradient></defs><g fill="none" fill-rule="evenodd"><path d="M40.27 45.202c2.309-1.234 4.67-3.055 6.798-5.048l.009.009c.057-.057.112-.117.169-.174l.177-.165-.01-.01c2.03-2.095 3.893-4.428 5.172-6.722 2.981-5.348 3.133-8.82-.017-12.06l-2.7-2.78-7.91 7.778c2.717 3.038 6.603 3.925 2.576 7.733L43 35.273l-.346.339-1.534 1.509c-3.877 3.963-4.67.036-7.628-2.764l-7.91 7.778 2.702 2.778c3.148 3.24 6.604 3.167 11.986.289z" fill="#CFDEF8"/><path d="M26.054 42.14l2.468 2.539c2.956 3.04 6.205 3.106 11.591.227 2.123-1.134 4.45-2.863 6.728-4.998l.24-.224h.001l.093-.104c2.172-2.241 3.942-4.542 5.118-6.653 2.984-5.349 2.994-8.619.037-11.66l-2.467-2.54-7.439 7.315c.6.632 1.254 1.177 1.84 1.665 1.233 1.029 2.299 1.917 2.336 3.143.03.94-.555 1.943-1.838 3.158l-3.41 3.353c-1.231 1.258-2.257 1.813-3.175 1.772-1.218-.066-2.076-1.157-3.07-2.421-.472-.6-1-1.27-1.614-1.887l-7.439 7.315zm7.475 5.536c-2.09 0-3.844-.84-5.484-2.528l-2.934-3.019 8.376-8.237.234.22c.748.71 1.365 1.492 1.908 2.184.932 1.183 1.667 2.118 2.584 2.168.694.04 1.591-.477 2.668-1.578l3.42-3.362c1.123-1.063 1.656-1.929 1.633-2.653-.029-.924-.941-1.684-2.096-2.648-.675-.562-1.439-1.2-2.127-1.968l-.214-.24 8.377-8.236 2.933 3.018c3.166 3.258 3.186 6.868.068 12.459-1.164 2.088-2.89 4.352-5.002 6.562l.011.012-.81.812-.019-.02c-2.244 2.073-4.53 3.755-6.629 4.876-2.713 1.45-4.95 2.178-6.897 2.178z" fill="url(#a)"/><path fill="url(#a)" d="M44.51 28.255l-.47-.474 7.567-7.612.471.474zM28.294 44.568l-.472-.474 7.496-7.54.471.474zm11.794 12.127h-.667a2.352 2.352 0 0 0-2.342-2.357h-18.04v-.67h18.04c1.66 0 3.009 1.358 3.009 3.027"/><path d="M36.995 54.276H18.747a2.126 2.126 0 0 1-2.117-2.13c0-1.174.95-2.13 2.117-2.13h7.956v.671h-7.956c-.8 0-1.45.655-1.45 1.46 0 .804.65 1.458 1.45 1.458h18.248v.671z" fill="url(#a)"/><path d="M26.839 50.774H25.48v-.67h1.358c1.782 0 3.23-1.458 3.23-3.25h.668c0 2.161-1.75 3.92-3.898 3.92M5.553 6.609v15.095c0 4.226 3.418 7.665 7.62 7.665h19.364V14.274c0-4.227-3.419-7.665-7.622-7.665H5.553zm27.65 23.43h-20.03c-4.57 0-8.287-3.739-8.287-8.335V5.938h20.03c4.569 0 8.287 3.74 8.287 8.336V30.04z" fill="url(#a)"/><path d="M7.15 22.08v-.717l.912-.891c2.194-2.1 3.184-3.217 3.198-4.52 0-.877-.423-1.689-1.705-1.689-.78 0-1.427.4-1.824.732l-.37-.824a3.76 3.76 0 0 1 2.432-.878c1.85 0 2.63 1.276 2.63 2.513 0 1.595-1.15 2.884-2.96 4.64l-.688.637v.027h3.86v.97H7.15zm10.378-3.27v-2.885a23 23 0 0 1 .04-1.356h-.04a24.1 24.1 0 0 1-.714 1.277l-2.101 2.937v.027h2.815zm0 3.27v-2.353h-3.991v-.77l3.833-5.518h1.255v5.371h1.202v.917h-1.202v2.353h-1.097zm2.58.532l3.687-9.638h.9l-3.702 9.638zm10.721-9.172v.77l-3.74 7.87h-1.204l3.728-7.644v-.026H25.41v-.97z" fill="url(#a)"/><path d="M45.1.135c-4.877 0-8.832 3.978-8.832 8.884 0 2.096.726 4.019 1.932 5.538l-2.856 2.752s2.558 1.32 5.844-.333a8.738 8.738 0 0 0 3.913.929c4.878 0 8.833-3.98 8.833-8.886 0-4.906-3.955-8.884-8.833-8.884M15.724 48.297l-2.28-2.197a7.085 7.085 0 0 0 1.543-4.42c0-3.92-3.158-7.095-7.053-7.095S.881 37.76.881 41.679s3.158 7.094 7.053 7.094a6.98 6.98 0 0 0 3.125-.741c2.623 1.32 4.665.265 4.665.265" fill="#F6F7FB"/><path fill="#FFF" d="M40.819 8.547h8.297v-.67h-8.297zm0 2.692h8.297v-.67h-8.297zM4.417 40.855h7.628v-.67H4.417zm0 2.558h7.628v-.67H4.417z"/><path d="M19.472 34.394c-.591 0-1.071.483-1.071 1.078 0 .595.48 1.078 1.071 1.078s1.072-.483 1.072-1.078c0-.595-.48-1.078-1.072-1.078m0 2.827a1.746 1.746 0 0 1-1.738-1.75c0-.963.78-1.748 1.738-1.748.959 0 1.739.785 1.739 1.749 0 .964-.78 1.749-1.739 1.749m40.15-22.751a1.75 1.75 0 0 0-1.742 1.752c0 .965.781 1.75 1.742 1.75.96 0 1.74-.785 1.74-1.75 0-.966-.78-1.752-1.74-1.752m0 4.173a2.417 2.417 0 0 1-2.408-2.421 2.418 2.418 0 0 1 2.408-2.423 2.417 2.417 0 0 1 2.407 2.423 2.417 2.417 0 0 1-2.407 2.421M0 26.855h4.55v-.67H0zm.803 4.981h9.234v-.67H.803zm41.354 19.52h4.55v-.671h-4.55zm3.747-3.77h9.903v-.67h-9.903zM13.517 1.143h9.904v-.67h-9.904zm42.826 37.962h2.141v-.67h-2.141zM17.13 45.028h4.818v-.67H17.13z" fill="url(#a)"/><path fill="url(#a)" d="M19.206 47.116h.667V42.27h-.667zM29.71 2.758h4.818v-.67H29.71z"/><path fill="url(#a)" d="M31.786 4.846h.667V0h-.667zM58.015 30.22h5.622v-.67h-5.622z"/><path fill="url(#a)" d="M60.493 32.712h.666v-5.655h-.666z"/><path fill="#F8A56F" d="M36 29.278h3.079v-.67H36z"/></g></svg>