<svg width="63" height="36" viewBox="0 0 63 36" xmlns="http://www.w3.org/2000/svg" xmlns:xlink="http://www.w3.org/1999/xlink"><title>80086B23-F164-4CB8-958A-EE56C93A4731</title><defs><linearGradient x1="12.957%" y1="80.245%" y2="15.021%" id="b"><stop stop-color="#F8A56F" offset="0%"/><stop stop-color="#F26C51" offset="100%"/></linearGradient><ellipse id="a" cx="46.814" cy="29.503" rx="1.5" ry="1.503"/><mask id="c" x="0" y="0" width="2.999" height="3.006" fill="#fff"><use xlink:href="#a"/></mask></defs><g transform="translate(0 1)" stroke="url(#b)" fill="none" fill-rule="evenodd"><g fill="url(#b)" opacity=".93"><path d="M5.598.2C22.125.044 38.662.175 55.192.134c2.953.009 5.734 2.543 5.679 5.554-.025 7.937.038 15.874-.032 23.81-.445 2.829-3.203 4.933-6.045 4.765-15.844.036-31.688 0-47.532.019-1.624.054-3.385-.098-4.75-1.068C1.123 32.166.042 30.53.13 28.722c.007-7.723 0-15.444.004-23.166C.13 2.696 2.765.202 5.598.2zm-.533.515c-2.55.304-4.549 2.68-4.53 5.24-.019 7.28.002 14.56-.01 21.84-.073 1.536.348 3.128 1.415 4.273 1.295 1.445 3.328 1.882 5.19 1.683 15.844-.004 31.69-.005 47.534.001 2.776.285 5.502-1.882 5.754-4.685.121-7.7.027-15.408.046-23.111.05-2.827-2.445-5.37-5.27-5.293C38.483.696 21.77.592 5.063.715z" stroke-width=".5"/><path d="M46.116 4.956c2.05-.14 4.11-.072 6.163-.007l.005.9c-1.746.052-3.493-.033-5.239.032-.331 1.464-.323 2.983-.562 4.464 1.034-.699 2.316-1.19 3.565-.786 1.542.266 2.466 1.837 2.659 3.287.099 1.677-.317 3.754-2.03 4.497-2.079 1.053-5.522-.055-5.394-2.746-.301-.794 1.476-.541.973.241.24 2.116 3.16 2.58 4.555 1.324.87-.95.895-2.315.792-3.527-.296-2.07-2.839-2.785-4.5-1.777-.548.378-.813 1.65-1.674.932.19-2.277.375-4.57.687-6.834zM9.203 8.555c2.098-1.6 5.911-.601 6.12 2.292.085 1.35-.645 2.823-1.982 3.25 2.357.825 2.868 4.044 1.181 5.754-1.646 1.444-4.283 1.195-5.945-.118-.564-.723-1.02-1.575-.924-2.528.3.08 1.01-.226.994.323.213 2.202 3.134 3.179 4.82 1.93 1.248-.854 1.333-2.764.5-3.948-.885-.93-2.343-1.043-3.542-.842-.376.123-.223-1.676.535-.9 1.7.293 3.688-1.006 3.285-2.912-.197-2.328-3.533-2.824-4.83-1.16-.458.448-.492 1.102-.697 1.674l-.373.077c-.193-.052-.4-.09-.556-.224.046-1.05.508-2.086 1.414-2.668zm16.809-.47c2.73-.026 5.46-.018 8.189-.001.189 1.237-1.122 1.886-1.574 2.9-1.858 2.596-2.884 5.79-2.649 9 .408 1.04-1.671.95-1.074-.124-.142-3.223.948-6.414 2.79-9.031.405-.677.985-1.246 1.338-1.947-2.34-.058-4.68.024-7.02-.023v-.774z" stroke-width=".524"/></g><use mask="url(#c)" stroke-width="3.117" xlink:href="#a"/><path d="M.871 25.375H60.13M21.35.438v24.5m18.3-24.5v24.5" stroke-width=".873" stroke-linecap="square"/></g></svg>