<svg width="82" height="47" viewBox="0 0 82 47" xmlns="http://www.w3.org/2000/svg"><title>ADB5E7F6-5BC5-4563-BC96-EC737EC71157</title><g fill="none" fill-rule="evenodd"><path fill="#E7EBF9" d="M-420-746h734v944h-734z"/><g fill="#C4C8CD"><path d="M0 0h81.315v46.677H0V0zm14.007 19.754c1.002.017 1.998.046 2.995.075.527-3.233.372-6.575.023-9.825a124.21 124.21 0 0 1 3.275-.07c.023-1.106.052-2.218.075-3.324-1.031.011-2.062.028-3.093.04-.172-1.095.441-2.49-.492-3.337a73.775 73.775 0 0 0-2.766-.034c-.034 5.492-.011 10.983-.017 16.475zM26.679 3.296c0 1.118.012 2.23.012 3.348-1.094 0-2.188-.075-3.276.052-.091.985-.177 2.034.218 2.974.945.524 2.056.219 3.086.276-.063 3.273-.017 6.552-.045 9.831 1.088-.006 2.181-.006 3.27-.011-.006-5.486.005-10.978-.006-16.464-1.088 0-2.17 0-3.259-.006zm5.784 3.337c2.216.046 4.426.029 6.637.034-.063 4.357 0 8.719-.046 13.076 1.054.023 2.102.034 3.155.057.035-4.38.035-8.753-.011-13.133 2.216 0 4.432.012 6.648-.04a32 32 0 0 0-.355-3.394 384.92 384.92 0 0 1-15.69 0 32.233 32.233 0 0 0-.338 3.4zm18.828-3.337c-.005 5.492.006 10.99 0 16.481l3.293-.017c-.006-2.225-.029-4.443.006-6.667 2.107.028 4.214.028 6.327.017a192.089 192.089 0 0 1-.005-3.147 193.02 193.02 0 0 0-6.328.018c-.023-2.225-.006-4.449 0-6.668l-3.293-.017zm12.656.012c.005 1.1.011 2.207.023 3.313 1.1.006 2.193.023 3.292.029l-.034-3.348c-1.094 0-2.188 0-3.281.006zM60.94 9.935c1.002.005 1.999.011 3.001.023.023-1.1.029-2.202.052-3.302-1.043-.012-2.085-.023-3.121-.03.017 1.102.04 2.208.068 3.309zm-40.617-.006a117.86 117.86 0 0 1-.057 3.18c1.128.018 2.262.024 3.39.018-.15-.985.246-2.184-.533-2.968-.887-.334-1.872-.15-2.8-.23zm40.617 3.204a320.903 320.903 0 0 0-.074 3.32c1.042-.012 2.084-.03 3.127-.047-.018-1.1-.03-2.201-.052-3.296-1.002.006-1.999.017-3 .023zm3.041 3.302c-.017 1.112-.034 2.218-.04 3.33 1.094.006 2.193.006 3.293.012.011-1.118.017-2.236.028-3.348-1.093 0-2.187.006-3.28.006zM13.984 26.727c.023 1.147.04 2.287.063 3.434 3.31-.029 6.62-.023 9.93-.017-.132 4.489.005 8.978-.086 13.467 1.14.017 2.279.029 3.418.04-.04-5.641-.063-11.288.012-16.93-4.45.017-8.893 0-13.337.006zm16.664 0c.046 5.636.04 11.271.005 16.913 5.555-.012 11.115-.04 16.67.017-.017-5.647-.046-11.294.011-16.942-5.56.023-11.12.006-16.686.012zm20.002-.006c.063 5.642.057 11.277 0 16.919 5.566-.006 11.132-.04 16.692.017-.034-5.647-.051-11.294.012-16.942-5.566.023-11.138.006-16.704.006z"/><path d="M33.986 30.138c3.344.006 6.694-.006 10.044.006-.046 1.147-.068 2.293-.103 3.44a296.053 296.053 0 0 0-9.86 0c-.03-1.147-.052-2.293-.08-3.446zM53.994 30.144c3.344-.006 6.683-.012 10.021.006-.045 1.14-.074 2.282-.108 3.423a398.05 398.05 0 0 0-9.815.005c-.035-1.146-.058-2.287-.098-3.434zM34.026 36.984c3.327.035 6.66.012 9.987.017-.034 1.187-.063 2.375-.132 3.562-.498-.087-1.494-.26-1.992-.352-.47.012-1.41.023-1.879.029-2.004-.017-4.002.006-6-.023.01-1.078.016-2.155.016-3.233zM54.057 36.996c3.299.011 6.603.005 9.907 0-.006 1.077 0 2.155.023 3.227-3.04.138-6.127-.317-9.122.282l-.877-.484c.04-1.008.052-2.017.07-3.025z"/></g><g fill="#FFF"><path d="M14.007 19.754c.006-5.492-.017-10.983.017-16.475.922-.006 1.844.006 2.766.034.933.848.32 2.242.492 3.337 1.031-.012 2.062-.029 3.093-.04-.023 1.106-.052 2.218-.075 3.325a124.21 124.21 0 0 0-3.275.069c.349 3.25.504 6.592-.023 9.825-.997-.029-1.993-.058-2.995-.075zM26.68 3.296c1.087.006 2.17.006 3.258.006.011 5.486 0 10.978.005 16.464-1.088.005-2.181.005-3.27.011.03-3.279-.017-6.558.046-9.83-1.03-.058-2.141.247-3.086-.277-.395-.94-.31-1.989-.218-2.974 1.088-.127 2.182-.052 3.276-.052 0-1.118-.012-2.23-.012-3.348zM51.291 3.296l3.293.017c-.006 2.22-.023 4.443 0 6.668 2.107-.046 4.22-.04 6.328-.018-.006 1.05-.006 2.098.005 3.147-2.113.011-4.22.011-6.327-.017-.035 2.224-.012 4.442-.006 6.667l-3.293.017c.006-5.492-.005-10.99 0-16.48zM63.947 3.308c1.093-.006 2.187-.006 3.28-.006l.035 3.348c-1.1-.006-2.193-.023-3.292-.029-.012-1.106-.018-2.213-.023-3.313zM60.94 9.935c-.028-1.101-.051-2.207-.068-3.308 1.036.006 2.078.017 3.12.029-.022 1.1-.028 2.201-.051 3.302a520.87 520.87 0 0 0-3-.023zM20.323 9.929c.928.08 1.913-.104 2.8.23.779.784.384 1.983.533 2.968-1.128.006-2.262 0-3.39-.017.034-1.06.051-2.12.057-3.181zM60.94 13.133c1.002-.006 1.999-.017 3.001-.023.023 1.095.034 2.195.052 3.296-1.043.017-2.085.035-3.127.046.017-1.106.046-2.213.074-3.32zM63.981 16.435c1.094 0 2.188-.006 3.281-.006-.011 1.112-.017 2.23-.028 3.348-1.1-.006-2.2-.006-3.293-.011.006-1.113.023-2.219.04-3.331zM13.984 26.727c4.444-.006 8.887.011 13.337-.006-.075 5.642-.052 11.289-.012 16.93-1.14-.011-2.279-.023-3.418-.04.091-4.489-.046-8.978.085-13.467-3.31-.006-6.62-.012-9.93.017-.022-1.147-.04-2.287-.062-3.434zM30.648 26.727c5.566-.006 11.126.011 16.686-.012-.057 5.648-.028 11.295-.011 16.942-5.555-.057-11.115-.029-16.67-.017.035-5.642.04-11.277-.005-16.913zm3.338 3.411c.029 1.153.052 2.3.08 3.446 3.287-.052 6.574-.057 9.861 0 .035-1.147.057-2.293.103-3.44-3.35-.012-6.7 0-10.044-.006zm.04 6.846c0 1.078-.005 2.155-.017 3.233 1.999.029 3.997.006 6.001.023.47-.006 1.41-.017 1.879-.029.498.092 1.494.265 1.992.352.07-1.187.098-2.375.132-3.562-3.327-.005-6.66.018-9.987-.017zM50.65 26.721c5.566 0 11.138.017 16.704-.006-.063 5.648-.046 11.295-.012 16.942-5.56-.057-11.126-.023-16.692-.017.057-5.642.063-11.277 0-16.919zm3.344 3.423c.04 1.147.063 2.288.098 3.434 3.27-.046 6.545-.04 9.815-.005.034-1.141.063-2.282.108-3.423-3.338-.018-6.677-.012-10.02-.006zm.063 6.852c-.017 1.008-.028 2.017-.069 3.025l.877.484c2.995-.6 6.081-.144 9.122-.282-.023-1.072-.029-2.15-.023-3.227-3.304.005-6.608.011-9.907 0z"/></g><path d="M32.463 6.633c.057-1.136.16-2.277.338-3.4 5.228.104 10.462.11 15.69 0a32 32 0 0 1 .355 3.394c-2.216.052-4.432.04-6.648.04.046 4.38.046 8.754.011 13.133-1.053-.023-2.101-.034-3.155-.057.046-4.357-.017-8.72.046-13.076-2.21-.005-4.42.012-6.637-.034z" fill="#FFF"/></g></svg>