<svg width="73" height="63" viewBox="0 0 73 63" xmlns="http://www.w3.org/2000/svg"><title>BEBDA067-4CB6-4380-89A8-AB4316A7D72C</title><defs><linearGradient x1="12.957%" y1="80.245%" y2="15.021%" id="a"><stop stop-color="#F8A56F" offset="0%"/><stop stop-color="#F26C51" offset="100%"/></linearGradient><linearGradient x1="-80.734%" y1="86.34%" y2="15.021%" id="b"><stop stop-color="#F8A56F" offset="0%"/><stop stop-color="#F26C51" offset="100%"/></linearGradient></defs><g fill="none" fill-rule="evenodd"><g fill="url(#a)"><path d="M4.027 11.005h19.87V5.04H4.026v5.966zm20.527 1.316H3.369a.658.658 0 0 1-.658-.658V4.38c0-.363.295-.658.658-.658h21.185c.364 0 .657.295.657.658v7.283a.658.658 0 0 1-.657.658zM4.707 17.982h2.009v-2.01h-2.01v2.01zm2.507.995H4.209a.498.498 0 0 1-.498-.497v-3.005c0-.275.223-.498.498-.498h3.005c.274 0 .497.223.497.498v3.005a.498.498 0 0 1-.497.497zM13.313 17.982h2.01v-2.01h-2.01v2.01zm2.507.995h-3.005a.497.497 0 0 1-.497-.497v-3.005c0-.275.222-.498.497-.498h3.005c.275 0 .498.223.498.498v3.005a.498.498 0 0 1-.498.497zM21.919 17.982h2.01v-2.01h-2.01v2.01zm2.507.995h-3.005a.498.498 0 0 1-.497-.497v-3.005c0-.275.223-.498.497-.498h3.005c.275 0 .498.223.498.498v3.005a.497.497 0 0 1-.498.497zM4.707 24.602h2.009v-2.01h-2.01v2.01zm2.507.995H4.209a.498.498 0 0 1-.498-.497v-3.005c0-.275.223-.498.498-.498h3.005c.274 0 .497.223.497.498V25.1a.498.498 0 0 1-.497.497zM13.313 24.602h2.01v-2.01h-2.01v2.01zm2.507.995h-3.005a.497.497 0 0 1-.497-.497v-3.005c0-.275.222-.498.497-.498h3.005c.275 0 .498.223.498.498V25.1a.498.498 0 0 1-.498.497zM21.919 24.602h2.01v-2.01h-2.01v2.01zm2.507.995h-3.005a.498.498 0 0 1-.497-.497v-3.005c0-.275.223-.498.497-.498h3.005c.275 0 .498.223.498.498V25.1a.497.497 0 0 1-.498.497zM4.707 31.222h2.009v-2.009h-2.01v2.01zm2.506.996H4.21a.498.498 0 0 1-.498-.498v-3.005c0-.275.223-.497.498-.497h3.004c.275 0 .498.222.498.497v3.005a.498.498 0 0 1-.498.498zM13.313 31.222h2.009v-2.009h-2.01v2.01zm2.506.996h-3.004a.497.497 0 0 1-.497-.498v-3.005c0-.275.222-.497.497-.497h3.004c.275 0 .498.222.498.497v3.005a.498.498 0 0 1-.498.498zM21.919 31.222h2.009v-2.009h-2.01v2.01zm2.506.996h-3.004a.498.498 0 0 1-.497-.498v-3.005c0-.275.223-.497.497-.497h3.004c.276 0 .498.222.498.497v3.005a.497.497 0 0 1-.498.498z"/><path d="M1.967 1.316a.652.652 0 0 0-.651.65v32.47c0 .36.292.652.65.652h23.865c.358 0 .65-.292.65-.651V1.967a.651.651 0 0 0-.65-.651H1.967zM25.83 36.404H1.967A1.97 1.97 0 0 1 0 34.437V1.967A1.97 1.97 0 0 1 1.967 0H25.83c1.083 0 1.965.882 1.965 1.967v32.47a1.969 1.969 0 0 1-1.965 1.967z"/></g><g transform="translate(28 19)" fill="url(#b)"><path d="M37.828 0h.483c.178.07.369.149.475.32a.738.738 0 0 1-.139.977c-.21.188-.51.159-.77.19-.865.046-1.702.512-2.169 1.244-.204.305-.316.657-.417 1.006a13.786 13.786 0 0 1 4.943.39c1.287.354 2.624.971 3.342 2.155.466.73.5 1.623.492 2.463.012 2.368-.116 4.747-.559 7.077-.272 1.31-.618 2.638-1.323 3.792a4.317 4.317 0 0 1-1.07 1.194c.003.85 0 1.703.002 2.554.005.216-.039.443-.199.6-.357.384-.743.74-1.11 1.115.332.67.666 1.338 1.003 2.004.115.237.265.466.301.732-.007.337-.168.645-.261.964-.362 1.12-.767 2.227-1.103 3.353.364.725.918 1.35 1.311 2.062.123.26.034.565-.14.78-.635.846-1.272 1.69-1.905 2.538.41 1.022.814 2.046 1.231 3.065.083.223.186.465.104.704-.059.22-.25.364-.421.497-.72.531-1.434 1.071-2.151 1.606-.298.22-.58.475-.926.618h-.245c-.32-.093-.569-.322-.83-.515-.771-.577-1.54-1.158-2.314-1.728-.166-.127-.339-.271-.394-.481-.077-.23.014-.464.095-.676.391-.978.796-1.953 1.175-2.935.092-.15-.038-.283-.116-.403-.582-.77-1.16-1.54-1.738-2.311-.197-.24-.25-.598-.075-.863.385-.607.808-1.19 1.195-1.794.124-.137.025-.313-.014-.463-.395-1.15-.767-2.307-1.161-3.458-.087-.258-.193-.55-.055-.81.397-.832.824-1.65 1.238-2.474-.352-.38-.737-.729-1.09-1.107a.7.7 0 0 1-.217-.527c-.008-.884 0-1.767 0-2.65-.748-.582-1.249-1.414-1.601-2.28-.548-1.362-.834-2.813-1.022-4.264-1.766 2.88-5.053 4.79-8.441 4.81-.18 0-.301.15-.434.246-1.062.881-2.386 1.396-3.737 1.625-.327.383-.512.873-.788 1.295-.24.359-.377.876-.845.999-.484.143-.978.255-1.466.39-.08.932-.108 1.867-.183 2.798-.01.195-.129.357-.267.484-1.052.951-2.134 1.869-3.175 2.834.04.759.11 1.516.142 2.276a.713.713 0 0 1-.43.698c-.955.427-1.93.815-2.886 1.24-.143.039-.14.205-.165.323-.13.99-.289 1.974-.418 2.964-.039.236-.066.502-.25.675-.18.192-.456.213-.701.247-1.124.118-2.243.277-3.366.396-.35.062-.684-.169-.798-.494C.985 36.907.472 35.755 0 34.589v-.241a.968.968 0 0 1 .386-.546c.894-.694 1.777-1.4 2.673-2.092-.116-1.07-.262-2.136-.382-3.204-.047-.307.1-.633.386-.769.616-.32 1.246-.614 1.866-.928a.369.369 0 0 0 .238-.298c.275-1.311.536-2.626.808-3.937a.797.797 0 0 1 .378-.554l2.237-1.472c-.111-.531-.293-1.044-.4-1.575-.06-.229.06-.446.168-.638.348-.6.697-1.2 1.041-1.803-.403-1.024-.626-2.131-.564-3.234.035-.472-.03-.941-.056-1.412-.135-1.65-.953-3.204-2.134-4.35C5.096 6.02 2.946 5.15.78 5.132.405 5.157.08 4.881 0 4.52v-.217c.062-.372.4-.67.786-.634 1.7.006 3.374.53 4.834 1.387C7.5 6.17 9.083 7.874 9.824 9.95c1.425-2.43 4.357-3.793 7.134-3.5a6.992 6.992 0 0 1 3.948 1.701c1.342 1.172 2.21 2.853 2.449 4.613a7.264 7.264 0 0 1-.96 4.765c1.89-.265 3.697-1.157 5.015-2.544 1.066-1.12 1.802-2.586 1.927-4.139.086-1.089-.021-2.184.084-3.272a3.31 3.31 0 0 1 .826-1.816c.913-1.009 2.247-1.484 3.54-1.782.233-2.044 2-3.764 4.04-3.975zm-2.71 5.226c-1.067.128-2.152.358-3.085.917-.588.354-1.08.938-1.153 1.641-.092 1.165-.02 2.333-.018 3.498.07 1.797.21 3.603.618 5.358.214.843.474 1.7.995 2.408.304.401.76.755 1.289.731 1.866.002 3.733-.003 5.6.002.312-.002.645.017.927-.142.51-.267.839-.77 1.083-1.274.55-1.181.77-2.481.95-3.763.267-2.2.329-4.424.252-6.638-.008-.692-.432-1.314-.988-1.696-.79-.548-1.74-.797-2.676-.958a13.618 13.618 0 0 0-3.794-.084zM15.51 7.825c-.807.082-1.6.33-2.3.742-1.309.762-2.28 2.05-2.729 3.488-.399 1.259-.357 2.664.167 3.881.349.603.662 1.238 1.158 1.738 1.163 1.229 2.853 1.97 4.553 1.894.953.043 1.894-.268 2.71-.744 2.28-1.34 3.535-4.285 2.728-6.836-.782-2.629-3.576-4.428-6.287-4.163zM9.712 18.98c.124.585.32 1.152.45 1.737a.722.722 0 0 1-.315.757c-.827.55-1.664 1.086-2.485 1.646-.285 1.388-.567 2.778-.854 4.166a.753.753 0 0 1-.412.58c-.63.318-1.264.632-1.897.943.11 1.042.25 2.08.369 3.121a.718.718 0 0 1-.286.68 274.07 274.07 0 0 1-2.638 2.067c.294.8.664 1.57.987 2.358.847-.092 1.694-.19 2.539-.303.168-1.1.317-2.202.48-3.303.029-.25.173-.491.41-.594.974-.435 1.97-.823 2.936-1.275-.053-.694-.094-1.388-.137-2.083a.752.752 0 0 1 .284-.652c1.022-.902 2.04-1.808 3.062-2.71.16-.106.153-.31.167-.479.052-.88.098-1.76.16-2.638a.715.715 0 0 1 .534-.643c.572-.167 1.156-.294 1.723-.478.17-.294.342-.586.511-.879-.756-.1-1.5-.293-2.202-.595-1.463 2.544-2.938 5.08-4.402 7.622a.734.734 0 0 1-.875.348c-.41-.122-.647-.647-.425-1.025 1.466-2.566 2.962-5.115 4.429-7.68a8.142 8.142 0 0 1-1.606-1.601c-.169.304-.385.587-.507.913zm24.061 2.293c.003.625.004 1.25-.001 1.877.406.422.826.83 1.24 1.246.235.219.298.59.146.873a448.16 448.16 0 0 1-1.256 2.512c-.097.147-.006.316.035.465.417 1.222.818 2.45 1.232 3.673.092.24.106.523-.047.741-.386.599-.789 1.188-1.182 1.784.615.82 1.234 1.638 1.848 2.459.178.216.252.521.13.783-.42 1.038-.828 2.081-1.25 3.118.666.53 1.362 1.024 2.038 1.542.688-.503 1.366-1.021 2.05-1.53-.424-1.055-.848-2.11-1.268-3.167-.156-.369.096-.711.32-.981.547-.736 1.115-1.459 1.646-2.206-.339-.68-.862-1.26-1.222-1.928-.11-.233-.025-.491.05-.72.416-1.2.802-2.41 1.216-3.612.051-.144.084-.305.005-.445-.409-.84-.842-1.668-1.25-2.508a.705.705 0 0 1 .107-.797c.403-.44.86-.831 1.254-1.278.076-.628.015-1.268.027-1.9-.732-.004-1.465.006-2.197-.001.004 2.849 0 5.699.002 8.549-.002.224.01.471-.132.66-.222.339-.736.421-1.05.165-.207-.144-.302-.396-.288-.641-.002-2.912-.001-5.822-.001-8.732-.734-.002-1.468.004-2.202-.001z"/><path d="M34.326 7.39c.3-.092.616-.053.925-.057 1.136 0 2.273-.002 3.41 0 .957-.024 1.822.9 1.741 1.854-.029.52.095 1.083-.177 1.558-.296.538-.853.981-1.487.988-1.331-.002-2.662.004-3.994 0-.64.003-1.204-.435-1.504-.975-.28-.477-.15-1.05-.185-1.573-.069-.803.527-1.552 1.271-1.794zm.204 1.412c-.003.487-.006.974 0 1.461 1.463.002 2.928.007 4.392-.001.017-.487.009-.972.008-1.459-1.467-.006-2.933-.003-4.4-.001zM14.984 9.402a1.7 1.7 0 0 1 1.389.207c.974.569 1.955 1.129 2.931 1.695.269.157.566.29.765.54.38.473.538 1.14.346 1.722-.158.38-.399.72-.595 1.083-.34.652-1.139.957-1.845.86-.308-.039-.567-.22-.83-.369-1.02-.588-2.04-1.177-3.062-1.763-.697-.377-.996-1.28-.799-2.024.148-.402.408-.75.61-1.125.216-.425.637-.708 1.09-.826zm-.395 2.567c1.268.735 2.538 1.464 3.806 2.197.253-.418.5-.84.732-1.27-1.27-.727-2.533-1.472-3.81-2.19-.24.423-.488.84-.728 1.263z"/></g></g></svg>