<svg width="24" height="21" viewBox="0 0 24 21" xmlns="http://www.w3.org/2000/svg"><title>4DEEB060-051E-48A4-854B-075A7371631A</title><g fill="#363636" fill-rule="evenodd" fill-opacity=".54"><path d="M5.846.29C6.36.092 6.916.045 7.46.054c2.916.006 5.832-.004 8.747.005 1.088.013 2.125.539 2.884 1.327 1.117 1.146 1.778 2.664 2.285 4.18.338.001.676-.013 1.014.001.434.017.811.407.828.853.012.367.005.734-.002 1.1-.028.66-.456 1.255-1.027 1.538l.069.474c.375.255.673.637.805 1.083.169.535.157 1.106.16 1.662-.003 1.74.003 3.481-.002 5.222.012.494-.415.912-.886.923-.013.462-.178.924-.495 1.258-.33.363-.81.57-1.292.568-.576.006-1.152-.002-1.728.004a1.772 1.772 0 0 1-1.137-.382c-.44-.337-.697-.895-.704-1.456-3.56.002-7.12-.002-10.68.002a1.964 1.964 0 0 1-.354 1.084c-.327.467-.877.75-1.435.751-.595-.005-1.19.003-1.784-.002a1.766 1.766 0 0 1-1.46-.786c-.213-.301-.311-.673-.325-1.042-.47-.007-.9-.428-.885-.921-.005-1.817 0-3.634-.002-5.451.003-.598.018-1.226.294-1.767.153-.308.397-.555.67-.752l.069-.47a1.87 1.87 0 0 1-.905-.986c-.2-.487-.104-1.026-.13-1.538-.031-.486.358-.95.834-.97.338-.01.676 0 1.013 0 .399-1.204.897-2.389 1.64-3.414C4.128 1.338 4.902.627 5.846.289zM4.677 2.176c-.683.745-1.153 1.667-1.538 2.604-.55 1.373-.91 2.82-1.144 4.284 1.5-.46 3.077-.552 4.632-.645 1.707-.087 3.417-.1 5.126-.104 2.153.008 4.309.028 6.456.21 1.036.1 2.081.218 3.077.544-.318-1.884-.8-3.766-1.69-5.454-.549-1.024-1.314-2.018-2.409-2.44-.666-.276-1.394-.184-2.094-.2-2.655.002-5.31-.002-7.966.002-.94.005-1.823.497-2.45 1.2zM.947 6.484c.007.325-.01.65.004.975.006.244.148.452.31.618.11-.535.23-1.068.374-1.595-.23 0-.458.004-.687.002zm20.696-.002c.144.526.258 1.059.375 1.591.16-.162.298-.368.309-.606.014-.328.001-.655.002-.982a54.795 54.795 0 0 0-.686-.003zM4.17 9.535c-.713.097-1.432.204-2.104.474-.343.137-.684.336-.888.662-.203.32-.226.717-.232 1.09 0 1.912.002 3.824 0 5.736.297.002.593-.004.89-.001.005.344-.009.69.01 1.034.04.446.448.81.88.802.614-.003 1.23.005 1.845-.004.43-.017.81-.407.825-.85.007-.328.003-.654.005-.981.891-.002 11.583-.002 12.474 0 .008.327-.006.654.004.98.019.442.395.837.827.85.614.013 1.229 0 1.843.005.451.01.868-.39.887-.855.013-.326-.005-.654.004-.98.297-.005.593.002.89 0v-5.68c-.002-.412-.024-.858-.269-1.203-.31-.423-.818-.613-1.294-.76-.905-.255-1.843-.35-2.775-.432-1.447-.114-2.899-.152-4.35-.174-1.911-.02-3.823-.018-5.734.037-1.248.042-2.498.098-3.738.25z"/><path d="M3.257 11.108c.118-.025.24-.034.36-.036.614-.003 1.229 0 1.842-.001.26 0 .525-.022.776.06.493.146.881.615.937 1.142.02.229.011.46.014.689-.004.313.024.64-.106.934a1.334 1.334 0 0 1-1.234.846c-.782 0-1.563.009-2.345-.004-.865-.038-1.621-.817-1.66-1.709-.077-.887.569-1.754 1.416-1.92zm.11.918a.91.91 0 0 0-.635.883c-.02.488.412.925.883.916.746-.001 1.491.001 2.237-.001.234.006.444-.21.44-.45.005-.31-.002-.62-.001-.93.008-.243-.205-.462-.44-.45-.408-.01-.817-.002-1.225-.003-.42.012-.844-.038-1.259.035zM17.222 11.088c.792-.038 1.587-.007 2.38-.016.552-.02 1.106.24 1.447.688.407.51.507 1.255.25 1.86-.202.504-.635.9-1.144 1.05-.25.082-.515.075-.774.073-.67-.001-1.34.005-2.009-.002-.65-.013-1.234-.585-1.27-1.255a17.408 17.408 0 0 1-.001-1.156c.036-.616.529-1.157 1.121-1.242zm.063.926a.446.446 0 0 0-.293.37c-.019.252 0 .504-.006.755.003.165-.024.35.08.491.09.143.26.202.419.194.707.002 1.415 0 2.121 0 .251.01.506-.08.682-.268a.946.946 0 0 0 .181-1.03.894.894 0 0 0-.808-.536H17.82c-.178.004-.361-.02-.535.024z"/></g></svg>