<svg width="52" height="41" viewBox="0 0 52 41" xmlns="http://www.w3.org/2000/svg"><title>C33DFD43-A531-41F8-9489-E1C5720945D2</title><defs><linearGradient x1="12.957%" y1="80.245%" y2="15.021%" id="a"><stop stop-color="#F8A56F" offset="0%"/><stop stop-color="#F26C51" offset="100%"/></linearGradient></defs><g fill="none" fill-rule="evenodd"><path d="M3.683 40.453a.419.419 0 0 1-.422-.416V36.97c0-.23.19-.416.422-.416.233 0 .422.187.422.416v3.067c0 .23-.19.416-.422.416" fill="url(#a)"/><path d="M.422 40.61A.419.419 0 0 1 0 40.195V34.1c0-.806.263-1.47.783-1.976 1.01-.985 2.624-.974 2.691-.975l2.49-.036c.228-.02.562-.19.513-1.433a3.117 3.117 0 0 1-.004-.142.419.419 0 0 1 .422-.41h.007a.419.419 0 0 1 .415.423l.002.097c.058 1.446-.384 2.219-1.313 2.295l-2.53.037c-.026 0-1.348-.001-2.104.738-.356.348-.529.8-.529 1.382v6.095c0 .229-.189.415-.421.415M17.164 40.61a.419.419 0 0 1-.422-.415V34.1c0-.583-.174-1.036-.531-1.385-.75-.729-2.08-.724-2.09-.735l-2.512-.036c-.958-.077-1.4-.85-1.343-2.296l.003-.097a.419.419 0 0 1 .415-.422c.242.015.425.18.428.409 0 .032 0 .08-.003.142-.05 1.243.285 1.414.54 1.435l2.473.034c.063.007 1.673-.008 2.681.975.52.506.783 1.17.783 1.976v6.095c0 .229-.19.415-.422.415" fill="url(#a)"/><path d="M14.115 40.244a.419.419 0 0 1-.422-.416v-2.805c0-.23.189-.415.422-.415.232 0 .421.186.421.415v2.805c0 .23-.189.416-.421.416M8.758 20.857c-2.121 0-3.847 1.953-3.847 4.354s1.726 4.354 3.847 4.354c2.122 0 3.848-1.953 3.848-4.354s-1.726-4.354-3.848-4.354m0 9.54c-2.587 0-4.69-2.327-4.69-5.186 0-2.86 2.103-5.185 4.69-5.185s4.692 2.325 4.692 5.185c0 2.86-2.105 5.185-4.692 5.185M20.443 40.453a.419.419 0 0 1-.422-.416V36.97c0-.23.189-.416.422-.416.232 0 .421.187.421.416v3.067c0 .23-.189.416-.421.416" fill="url(#a)"/><path d="M17.181 40.61a.419.419 0 0 1-.422-.415V34.1c0-.806.264-1.47.783-1.976 1.01-.985 2.628-.974 2.692-.975l2.49-.036c.227-.02.562-.19.512-1.433a3.117 3.117 0 0 1-.003-.142c.003-.23.21-.389.428-.41a.419.419 0 0 1 .415.423l.003.097c.057 1.446-.385 2.219-1.313 2.295l-2.531.037c-.014 0-1.348-.001-2.103.738-.356.348-.53.8-.53 1.382v6.095c0 .229-.188.415-.42.415M33.923 40.61a.419.419 0 0 1-.421-.415V34.1c0-.583-.175-1.036-.532-1.385-.743-.724-2.053-.735-2.089-.735l-2.512-.036c-.958-.077-1.4-.85-1.344-2.296l.003-.097a.42.42 0 0 1 .416-.422c.23.015.424.18.428.409l-.004.142c-.049 1.243.285 1.414.542 1.435l2.472.034c.06.005 1.67-.01 2.68.975.52.506.783 1.17.783 1.976v6.095c0 .229-.189.415-.422.415" fill="url(#a)"/><path d="M30.874 40.244a.419.419 0 0 1-.421-.416v-2.805c0-.23.188-.415.421-.415.233 0 .422.186.422.415v2.805c0 .23-.19.416-.422.416" fill="url(#a)"/><path d="M29.822 25.21c0-2.629-1.914-4.77-4.27-4.77-2.355 0-4.268 2.141-4.268 4.77 0 2.63 1.913 4.771 4.268 4.771 2.356 0 4.27-2.14 4.27-4.77" fill="#FEFEFE"/><path d="M25.552 20.857c-2.12 0-3.847 1.953-3.847 4.354s1.726 4.354 3.847 4.354c2.122 0 3.849-1.953 3.849-4.354s-1.727-4.354-3.849-4.354m0 9.54c-2.586 0-4.69-2.327-4.69-5.186 0-2.86 2.104-5.185 4.69-5.185 2.587 0 4.692 2.325 4.692 5.185 0 2.86-2.105 5.185-4.692 5.185M37.19 40.453a.419.419 0 0 1-.421-.416V36.97c0-.23.188-.416.421-.416.233 0 .422.187.422.416v3.067c0 .23-.189.416-.422.416" fill="url(#a)"/><path d="M33.929 40.61a.419.419 0 0 1-.422-.415V34.1c0-.806.263-1.47.783-1.976 1.008-.983 2.631-.976 2.692-.975l2.49-.036c.227-.02.56-.19.512-1.432-.002-.063-.004-.112-.003-.144a.419.419 0 0 1 .422-.408h.006a.42.42 0 0 1 .415.422l.002.098c.057 1.446-.385 2.218-1.313 2.294l-2.53.037h-.001c-.052 0-1.356.007-2.103.738-.355.348-.529.8-.529 1.382v6.095c0 .229-.189.415-.421.415M50.671 40.61a.419.419 0 0 1-.421-.415V34.1c0-.583-.175-1.036-.532-1.385-.743-.724-2.053-.735-2.089-.735l-2.513-.036c-.959-.077-1.4-.85-1.343-2.297l.003-.097a.42.42 0 0 1 .416-.421c.232.015.425.18.427.41.001.03 0 .079-.003.14-.05 1.243.285 1.415.54 1.436l2.474.034c.066.005 1.67-.01 2.68.975.52.506.783 1.17.783 1.976v6.095c0 .229-.19.415-.422.415" fill="url(#a)"/><path d="M47.622 40.244a.419.419 0 0 1-.422-.416v-2.805c0-.23.189-.415.422-.415.232 0 .421.186.421.415v2.805c0 .23-.189.416-.421.416M42.3 20.857c-2.12 0-3.847 1.953-3.847 4.354s1.726 4.354 3.847 4.354c2.122 0 3.849-1.953 3.849-4.354s-1.727-4.354-3.849-4.354m0 9.54c-2.586 0-4.69-2.327-4.69-5.186 0-2.86 2.104-5.185 4.69-5.185 2.587 0 4.692 2.325 4.692 5.185 0 2.86-2.105 5.185-4.692 5.185M12.455 20.507a.419.419 0 0 1-.422-.416v-3.067c0-.23.19-.416.422-.416.233 0 .422.187.422.416v3.067c0 .23-.19.416-.422.416" fill="url(#a)"/><path d="M9.194 20.664a.419.419 0 0 1-.422-.415v-6.095c0-.806.263-1.47.783-1.976 1.008-.983 2.631-.976 2.692-.975l2.49-.036c.227-.02.56-.19.512-1.432-.002-.063-.004-.112-.003-.144a.419.419 0 0 1 .421-.408h.007a.42.42 0 0 1 .415.422l.002.098c.057 1.446-.385 2.218-1.313 2.294l-2.53.037h-.001c-.052 0-1.356.007-2.103.738-.356.348-.529.8-.529 1.382v6.095c0 .23-.189.415-.421.415M25.936 20.664a.419.419 0 0 1-.422-.415v-6.095c0-.583-.174-1.036-.531-1.385-.744-.724-2.053-.735-2.089-.735l-2.513-.036c-.959-.077-1.4-.85-1.343-2.297l.003-.097a.42.42 0 0 1 .416-.421c.232.015.425.18.427.41 0 .03 0 .079-.003.14-.05 1.243.284 1.415.54 1.436l2.474.034c.066.005 1.67-.01 2.68.975.519.506.783 1.17.783 1.976v6.095c0 .23-.19.415-.422.415" fill="url(#a)"/><path d="M22.886 20.298a.419.419 0 0 1-.421-.416v-2.805c0-.23.189-.415.421-.415.233 0 .422.186.422.415v2.805c0 .23-.189.416-.422.416M17.565.91c-2.12 0-3.847 1.954-3.847 4.355 0 2.401 1.726 4.354 3.847 4.354 2.122 0 3.849-1.953 3.849-4.354S19.687.911 17.565.911m0 9.54c-2.586 0-4.69-2.327-4.69-5.186 0-2.86 2.104-5.185 4.69-5.185 2.587 0 4.692 2.325 4.692 5.185 0 2.86-2.105 5.185-4.692 5.185M29.32 20.507a.419.419 0 0 1-.422-.416v-3.067c0-.23.19-.416.422-.416.233 0 .422.187.422.416v3.067c0 .23-.19.416-.422.416" fill="url(#a)"/><path d="M26.058 20.664a.419.419 0 0 1-.421-.415v-6.095c0-.806.263-1.47.782-1.976 1.009-.983 2.632-.976 2.693-.975l2.49-.036c.226-.02.56-.19.512-1.432-.002-.063-.004-.112-.003-.144a.419.419 0 0 1 .421-.408h.007a.42.42 0 0 1 .415.422l.002.098c.057 1.446-.385 2.218-1.313 2.294l-2.53.037h-.001c-.052 0-1.356.007-2.103.738-.356.348-.529.8-.529 1.382v6.095c0 .23-.189.415-.422.415M42.8 20.664a.419.419 0 0 1-.42-.415v-6.095c0-.583-.175-1.036-.533-1.385-.743-.724-2.052-.735-2.088-.735l-2.513-.036c-.959-.077-1.4-.85-1.343-2.297l.003-.097a.42.42 0 0 1 .416-.421c.232.015.424.18.427.41 0 .03 0 .079-.003.14-.05 1.243.284 1.415.54 1.436l2.474.034c.066.005 1.67-.01 2.68.975.519.506.783 1.17.783 1.976v6.095c0 .23-.19.415-.422.415" fill="url(#a)"/><path d="M39.751 20.298a.419.419 0 0 1-.421-.416v-2.805c0-.23.189-.415.421-.415.233 0 .422.186.422.415v2.805c0 .23-.189.416-.422.416M34.43.91c-2.121 0-3.847 1.954-3.847 4.355 0 2.401 1.726 4.354 3.847 4.354 2.122 0 3.849-1.953 3.849-4.354S36.552.911 34.43.911m0 9.54c-2.587 0-4.69-2.327-4.69-5.186 0-2.86 2.103-5.185 4.69-5.185s4.692 2.325 4.692 5.185c0 2.86-2.105 5.185-4.692 5.185" fill="url(#a)"/></g></svg>