<svg width="40" height="40" viewBox="0 0 40 40" xmlns="http://www.w3.org/2000/svg"><title>BD3F8789-FCF7-49D8-8CBE-8BDFCEADE438</title><defs><linearGradient x1="12.957%" y1="80.245%" y2="15.021%" id="a"><stop stop-color="#F8A56F" offset="0%"/><stop stop-color="#F26C51" offset="100%"/></linearGradient></defs><g transform="translate(-336 -579)" fill="url(#a)" fill-rule="evenodd"><path d="M338.829 618.872a.385.385 0 0 1-.385-.385v-39.102a.385.385 0 0 1 .77 0v39.102a.385.385 0 0 1-.385.385"/><path d="M375.487 616.917h-39.102a.385.385 0 0 1 0-.77h39.102a.385.385 0 0 1 0 .77M353.431 607.335c-.16 0-.3-.106-.344-.261-.012-.042-1.036-3.722-1.576-7.053-2.344 4.035-11.723 3.782-12.165 3.766a.358.358 0 0 1-.346-.369.36.36 0 0 1 .37-.345c.113.003 11.36.31 11.93-4.646a.357.357 0 0 1 .71 0c.257 2.27.9 5.066 1.335 6.805l2.194-13.93a.357.357 0 0 1 .338-.301.35.35 0 0 1 .363.273l2.373 9.85 2.009-2.078a.358.358 0 0 1 .601.15l1.304 4.573 3.425-2.107a.356.356 0 0 1 .39.01c.014.009 1.813 1.123 9.305 1.21a.358.358 0 0 1-.009.715c-6.463-.075-8.821-.905-9.486-1.219l-3.652 2.247a.359.359 0 0 1-.53-.206l-1.265-4.43-2.03 2.098a.357.357 0 0 1-.604-.165l-2.106-8.734-2.18 13.845a.357.357 0 0 1-.333.302h-.02"/><g><path d="M338.829 618.872a.385.385 0 0 1-.385-.385v-39.102a.385.385 0 0 1 .77 0v39.102a.385.385 0 0 1-.385.385"/><path d="M375.487 616.917h-39.102a.385.385 0 0 1 0-.77h39.102a.385.385 0 0 1 0 .77M353.431 607.335c-.16 0-.3-.106-.344-.261-.012-.042-1.036-3.722-1.576-7.053-2.344 4.035-11.723 3.782-12.165 3.766a.358.358 0 0 1-.346-.369.36.36 0 0 1 .37-.345c.113.003 11.36.31 11.93-4.646a.357.357 0 0 1 .71 0c.257 2.27.9 5.066 1.335 6.805l2.194-13.93a.357.357 0 0 1 .338-.301.35.35 0 0 1 .363.273l2.373 9.85 2.009-2.078a.358.358 0 0 1 .601.15l1.304 4.573 3.425-2.107a.356.356 0 0 1 .39.01c.014.009 1.813 1.123 9.305 1.21a.358.358 0 0 1-.009.715c-6.463-.075-8.821-.905-9.486-1.219l-3.652 2.247a.359.359 0 0 1-.53-.206l-1.265-4.43-2.03 2.098a.357.357 0 0 1-.604-.165l-2.106-8.734-2.18 13.845a.357.357 0 0 1-.333.302h-.02"/></g></g></svg>