<svg width="49" height="40" viewBox="0 0 49 40" xmlns="http://www.w3.org/2000/svg" xmlns:xlink="http://www.w3.org/1999/xlink"><title>3D4DF055-0F47-40C4-86CC-C906CC8D123A</title><defs><linearGradient x1="12.957%" y1="80.245%" y2="15.021%" id="a"><stop stop-color="#F8A56F" offset="0%"/><stop stop-color="#F26C51" offset="100%"/></linearGradient><path id="b" d="M3.94 11.2h3.483V.148H.458V11.2z"/><path id="d" d="M3.94 11.2h3.483V.148H.458V11.2z"/></defs><g fill="none" fill-rule="evenodd"><path d="M3.503 39.473a.4.4 0 0 1-.401-.4v-2.952a.4.4 0 0 1 .801 0v2.952a.4.4 0 0 1-.4.4M13.423 39.272a.4.4 0 0 1-.401-.4v-2.7a.4.4 0 0 1 .802 0v2.7a.4.4 0 0 1-.401.4M19.44 39.473a.4.4 0 0 1-.4-.4v-2.952a.4.4 0 0 1 .801 0v2.952a.4.4 0 0 1-.4.4M29.36 39.272a.4.4 0 0 1-.4-.4v-2.7a.4.4 0 0 1 .801 0v2.7a.4.4 0 0 1-.4.4M35.367 39.473a.4.4 0 0 1-.401-.4v-2.952a.4.4 0 0 1 .802 0v2.952a.4.4 0 0 1-.401.4M45.287 39.272a.4.4 0 0 1-.401-.4v-2.7a.4.4 0 0 1 .802 0v2.7a.4.4 0 0 1-.401.4" fill="url(#a)"/><path d="M11.107 30.903a.401.401 0 0 1-.4-.394l-.243-14.099L.733 3.615C.058 2.798.198 1.55 1.055.844c.858-.705 2.114-.603 2.8.226l9.086 10.852h1.624a1.55 1.55 0 0 0 1.047-1.462.409.409 0 0 1 .414-.386.4.4 0 0 1 .387.413 2.352 2.352 0 0 1-1.686 2.222.404.404 0 0 1-.101.013h-1.837c-.05 0-.1-.01-.148-.028l-.054-.022a.4.4 0 0 1-.16-.115L3.237 1.58c-.406-.49-1.156-.542-1.672-.119-.515.425-.607 1.169-.203 1.658l9.781 12.86a.394.394 0 0 1 .061.115l.053.16c.014.038.02.078.021.12l.23 14.122a.4.4 0 0 1-.394.407h-.007z" transform="translate(6.95 .158)" fill="url(#a)"/><path d="M30.915 31.365h-.006a.4.4 0 0 1-.395-.405l.216-14.468a.399.399 0 0 1 .068-.217l.08-.119 9.78-12.67c.018-.024.363-.426.317-.886-.027-.277-.197-.538-.505-.775-.528-.432-1.276-.38-1.68.11l-8.641 10.76a.383.383 0 0 1-.104.09l-.057.036a.398.398 0 0 1-.21.06h-2.457a.397.397 0 0 1-.088-.01c-.052-.012-1.28-.307-1.28-2.189a.4.4 0 0 1 .802 0c0 1.07.493 1.343.629 1.398h2.231l8.553-10.649c.688-.834 1.944-.936 2.803-.23.482.371.755.821.802 1.33.076.808-.475 1.438-.499 1.465L31.531 16.62l-.215 14.35a.4.4 0 0 1-.401.394" fill="url(#a)"/><path d="M24.648 2.402c-1.968 0-3.57 1.835-3.57 4.09 0 2.257 1.602 4.091 3.57 4.091 1.969 0 3.57-1.834 3.57-4.09s-1.601-4.09-3.57-4.09m0 8.98c-2.41 0-4.371-2.193-4.371-4.89 0-2.697 1.96-4.89 4.371-4.89 2.41 0 4.372 2.193 4.372 4.89 0 2.697-1.962 4.89-4.372 4.89M.401 39.625a.4.4 0 0 1-.401-.4v-5.867c0-.775.25-1.415.744-1.902.96-.948 2.496-.937 2.56-.939l2.368-.034c.216-.019.534-.184.487-1.38a3.037 3.037 0 0 1-.003-.136.4.4 0 0 1 .4-.395h.007a.401.401 0 0 1 .395.407l.002.093c.055 1.393-.365 2.136-1.248 2.21l-2.407.035c-.024 0-1.282-.001-2 .71-.338.336-.503.771-.503 1.331v5.867a.4.4 0 0 1-.401.4M16.323 39.625a.4.4 0 0 1-.401-.4v-5.867c0-.562-.166-.997-.506-1.333-.712-.702-1.978-.697-1.987-.708l-2.39-.034c-.91-.075-1.33-.818-1.276-2.21l.003-.094a.401.401 0 0 1 .394-.407c.23.015.404.174.408.395l-.004.136c-.047 1.196.271 1.361.515 1.381l2.35.033c.06.007 1.591-.007 2.55.94.494.486.744 1.126.744 1.901v5.867a.4.4 0 0 1-.4.4" fill="url(#a)"/><path d="M8.328 20.61c-2.017 0-3.658 1.88-3.658 4.191 0 2.312 1.641 4.192 3.658 4.192 2.018 0 3.66-1.88 3.66-4.192 0-2.311-1.642-4.191-3.66-4.191m0 9.183c-2.46 0-4.46-2.24-4.46-4.992s2-4.991 4.46-4.991 4.462 2.239 4.462 4.991c0 2.753-2.001 4.992-4.462 4.992M16.339 39.625a.4.4 0 0 1-.401-.4v-5.867c0-.775.25-1.415.744-1.902.96-.948 2.5-.937 2.56-.939l2.368-.034c.216-.019.534-.184.487-1.38a3.037 3.037 0 0 1-.003-.136c.003-.221.2-.375.407-.395a.401.401 0 0 1 .395.407l.003.093c.054 1.393-.366 2.136-1.25 2.21l-2.406.035c-.013 0-1.282-.001-2 .71-.339.336-.503.771-.503 1.331v5.867a.4.4 0 0 1-.401.4M32.26 39.625a.4.4 0 0 1-.4-.4v-5.867c0-.562-.167-.997-.507-1.333-.706-.697-1.951-.708-1.986-.708l-2.39-.034c-.91-.075-1.331-.818-1.277-2.21l.003-.094a.401.401 0 0 1 .395-.407c.22.015.404.174.407.395l-.003.136c-.047 1.196.27 1.361.515 1.381l2.35.033c.058.005 1.589-.01 2.55.94.493.486.744 1.126.744 1.901v5.867a.4.4 0 0 1-.401.4" fill="url(#a)"/><path d="M24.3 20.21c-2.24 0-4.06 2.06-4.06 4.591s1.82 4.592 4.06 4.592c2.24 0 4.06-2.06 4.06-4.592 0-2.53-1.82-4.591-4.06-4.591z" fill="#FEFEFE"/><path d="M24.3 20.61c-2.018 0-3.659 1.88-3.659 4.191 0 2.312 1.641 4.192 3.659 4.192s3.66-1.88 3.66-4.192c0-2.311-1.642-4.191-3.66-4.191m0 9.183c-2.46 0-4.46-2.24-4.46-4.992s2-4.991 4.46-4.991 4.461 2.239 4.461 4.991c0 2.753-2.001 4.992-4.461 4.992M32.265 39.625a.4.4 0 0 1-.4-.4v-5.867c0-.775.25-1.415.743-1.902.96-.946 2.503-.94 2.56-.939l2.368-.034c.216-.019.534-.184.487-1.379-.001-.06-.003-.108-.002-.138a.4.4 0 0 1 .4-.394h.007a.401.401 0 0 1 .395.407l.002.094c.054 1.392-.366 2.135-1.249 2.209l-2.406.035h-.001c-.05 0-1.29.007-2 .71-.338.336-.503.771-.503 1.331v5.867a.4.4 0 0 1-.4.4" fill="url(#a)"/><g transform="translate(41.164 28.425)"><mask id="c" fill="#fff"><use xlink:href="#b"/></mask><path d="M7.023 11.2a.4.4 0 0 1-.401-.4V4.933c0-.561-.166-.997-.506-1.333-.707-.697-1.952-.708-1.986-.708l-2.39-.034C.828 2.783.408 2.04.463.647L.466.554A.401.401 0 0 1 .86.148c.22.015.404.174.407.394 0 .03-.001.077-.004.136-.047 1.196.27 1.361.515 1.382l2.351.032c.064.006 1.589-.009 2.55.94.493.486.744 1.126.744 1.901V10.8a.4.4 0 0 1-.401.4" fill="url(#a)" mask="url(#c)"/></g><path d="M40.226 20.61c-2.017 0-3.658 1.88-3.658 4.191 0 2.312 1.641 4.192 3.658 4.192 2.018 0 3.66-1.88 3.66-4.192 0-2.311-1.642-4.191-3.66-4.191m0 9.183c-2.46 0-4.46-2.24-4.46-4.992s2-4.991 4.46-4.991 4.462 2.239 4.462 4.991c0 2.753-2.001 4.992-4.462 4.992" fill="url(#a)"/><g><path d="M3.503 39.473a.4.4 0 0 1-.401-.4v-2.952a.4.4 0 0 1 .801 0v2.952a.4.4 0 0 1-.4.4M13.423 39.272a.4.4 0 0 1-.401-.4v-2.7a.4.4 0 0 1 .802 0v2.7a.4.4 0 0 1-.401.4M19.44 39.473a.4.4 0 0 1-.4-.4v-2.952a.4.4 0 0 1 .801 0v2.952a.4.4 0 0 1-.4.4M29.36 39.272a.4.4 0 0 1-.4-.4v-2.7a.4.4 0 0 1 .801 0v2.7a.4.4 0 0 1-.4.4M35.367 39.473a.4.4 0 0 1-.401-.4v-2.952a.4.4 0 0 1 .802 0v2.952a.4.4 0 0 1-.401.4M45.287 39.272a.4.4 0 0 1-.401-.4v-2.7a.4.4 0 0 1 .802 0v2.7a.4.4 0 0 1-.401.4" fill="url(#a)"/><path d="M11.107 30.903a.401.401 0 0 1-.4-.394l-.243-14.099L.733 3.615C.058 2.798.198 1.55 1.055.844c.858-.705 2.114-.603 2.8.226l9.086 10.852h1.624a1.55 1.55 0 0 0 1.047-1.462.409.409 0 0 1 .414-.386.4.4 0 0 1 .387.413 2.352 2.352 0 0 1-1.686 2.222.404.404 0 0 1-.101.013h-1.837c-.05 0-.1-.01-.148-.028l-.054-.022a.4.4 0 0 1-.16-.115L3.237 1.58c-.406-.49-1.156-.542-1.672-.119-.515.425-.607 1.169-.203 1.658l9.781 12.86a.394.394 0 0 1 .061.115l.053.16c.014.038.02.078.021.12l.23 14.122a.4.4 0 0 1-.394.407h-.007z" transform="translate(6.95 .158)" fill="url(#a)"/><path d="M30.915 31.365h-.006a.4.4 0 0 1-.395-.405l.216-14.468a.399.399 0 0 1 .068-.217l.08-.119 9.78-12.67c.018-.024.363-.426.317-.886-.027-.277-.197-.538-.505-.775-.528-.432-1.276-.38-1.68.11l-8.641 10.76a.383.383 0 0 1-.104.09l-.057.036a.398.398 0 0 1-.21.06h-2.457a.397.397 0 0 1-.088-.01c-.052-.012-1.28-.307-1.28-2.189a.4.4 0 0 1 .802 0c0 1.07.493 1.343.629 1.398h2.231l8.553-10.649c.688-.834 1.944-.936 2.803-.23.482.371.755.821.802 1.33.076.808-.475 1.438-.499 1.465L31.531 16.62l-.215 14.35a.4.4 0 0 1-.401.394" fill="url(#a)"/><path d="M24.648 2.402c-1.968 0-3.57 1.835-3.57 4.09 0 2.257 1.602 4.091 3.57 4.091 1.969 0 3.57-1.834 3.57-4.09s-1.601-4.09-3.57-4.09m0 8.98c-2.41 0-4.371-2.193-4.371-4.89 0-2.697 1.96-4.89 4.371-4.89 2.41 0 4.372 2.193 4.372 4.89 0 2.697-1.962 4.89-4.372 4.89M.401 39.625a.4.4 0 0 1-.401-.4v-5.867c0-.775.25-1.415.744-1.902.96-.948 2.496-.937 2.56-.939l2.368-.034c.216-.019.534-.184.487-1.38a3.037 3.037 0 0 1-.003-.136.4.4 0 0 1 .4-.395h.007a.401.401 0 0 1 .395.407l.002.093c.055 1.393-.365 2.136-1.248 2.21l-2.407.035c-.024 0-1.282-.001-2 .71-.338.336-.503.771-.503 1.331v5.867a.4.4 0 0 1-.401.4M16.323 39.625a.4.4 0 0 1-.401-.4v-5.867c0-.562-.166-.997-.506-1.333-.712-.702-1.978-.697-1.987-.708l-2.39-.034c-.91-.075-1.33-.818-1.276-2.21l.003-.094a.401.401 0 0 1 .394-.407c.23.015.404.174.408.395l-.004.136c-.047 1.196.271 1.361.515 1.381l2.35.033c.06.007 1.591-.007 2.55.94.494.486.744 1.126.744 1.901v5.867a.4.4 0 0 1-.4.4" fill="url(#a)"/><path d="M8.328 20.61c-2.017 0-3.658 1.88-3.658 4.191 0 2.312 1.641 4.192 3.658 4.192 2.018 0 3.66-1.88 3.66-4.192 0-2.311-1.642-4.191-3.66-4.191m0 9.183c-2.46 0-4.46-2.24-4.46-4.992s2-4.991 4.46-4.991 4.462 2.239 4.462 4.991c0 2.753-2.001 4.992-4.462 4.992M16.339 39.625a.4.4 0 0 1-.401-.4v-5.867c0-.775.25-1.415.744-1.902.96-.948 2.5-.937 2.56-.939l2.368-.034c.216-.019.534-.184.487-1.38a3.037 3.037 0 0 1-.003-.136c.003-.221.2-.375.407-.395a.401.401 0 0 1 .395.407l.003.093c.054 1.393-.366 2.136-1.25 2.21l-2.406.035c-.013 0-1.282-.001-2 .71-.339.336-.503.771-.503 1.331v5.867a.4.4 0 0 1-.401.4M32.26 39.625a.4.4 0 0 1-.4-.4v-5.867c0-.562-.167-.997-.507-1.333-.706-.697-1.951-.708-1.986-.708l-2.39-.034c-.91-.075-1.331-.818-1.277-2.21l.003-.094a.401.401 0 0 1 .395-.407c.22.015.404.174.407.395l-.003.136c-.047 1.196.27 1.361.515 1.381l2.35.033c.058.005 1.589-.01 2.55.94.493.486.744 1.126.744 1.901v5.867a.4.4 0 0 1-.401.4" fill="url(#a)"/><path d="M24.3 20.21c-2.24 0-4.06 2.06-4.06 4.591s1.82 4.592 4.06 4.592c2.24 0 4.06-2.06 4.06-4.592 0-2.53-1.82-4.591-4.06-4.591z" fill="#FEFEFE"/><path d="M24.3 20.61c-2.018 0-3.659 1.88-3.659 4.191 0 2.312 1.641 4.192 3.659 4.192s3.66-1.88 3.66-4.192c0-2.311-1.642-4.191-3.66-4.191m0 9.183c-2.46 0-4.46-2.24-4.46-4.992s2-4.991 4.46-4.991 4.461 2.239 4.461 4.991c0 2.753-2.001 4.992-4.461 4.992M32.265 39.625a.4.4 0 0 1-.4-.4v-5.867c0-.775.25-1.415.743-1.902.96-.946 2.503-.94 2.56-.939l2.368-.034c.216-.019.534-.184.487-1.379-.001-.06-.003-.108-.002-.138a.4.4 0 0 1 .4-.394h.007a.401.401 0 0 1 .395.407l.002.094c.054 1.392-.366 2.135-1.249 2.209l-2.406.035h-.001c-.05 0-1.29.007-2 .71-.338.336-.503.771-.503 1.331v5.867a.4.4 0 0 1-.4.4" fill="url(#a)"/><g transform="translate(41.164 28.425)"><mask id="e" fill="#fff"><use xlink:href="#d"/></mask><path d="M7.023 11.2a.4.4 0 0 1-.401-.4V4.933c0-.561-.166-.997-.506-1.333-.707-.697-1.952-.708-1.986-.708l-2.39-.034C.828 2.783.408 2.04.463.647L.466.554A.401.401 0 0 1 .86.148c.22.015.404.174.407.394 0 .03-.001.077-.004.136-.047 1.196.27 1.361.515 1.382l2.351.032c.064.006 1.589-.009 2.55.94.493.486.744 1.126.744 1.901V10.8a.4.4 0 0 1-.401.4" fill="url(#a)" mask="url(#e)"/></g><path d="M40.226 20.61c-2.017 0-3.658 1.88-3.658 4.191 0 2.312 1.641 4.192 3.658 4.192 2.018 0 3.66-1.88 3.66-4.192 0-2.311-1.642-4.191-3.66-4.191m0 9.183c-2.46 0-4.46-2.24-4.46-4.992s2-4.991 4.46-4.991 4.462 2.239 4.462 4.991c0 2.753-2.001 4.992-4.462 4.992" fill="url(#a)"/></g></g></svg>