<svg width="60" height="44" viewBox="0 0 60 44" xmlns="http://www.w3.org/2000/svg"><title>360931D6-1F87-4F3C-8373-DE60265EB795</title><defs><linearGradient x1="12.957%" y1="80.245%" y2="15.021%" id="a"><stop stop-color="#F8A56F" offset="0%"/><stop stop-color="#F26C51" offset="100%"/></linearGradient><linearGradient x1="12.957%" y1="80.245%" x2="293.121%" y2="-107.122%" id="b"><stop stop-color="#F8A56F" offset="0%"/><stop stop-color="#F26C51" offset="100%"/></linearGradient></defs><g fill="none" fill-rule="evenodd"><g transform="translate(6.176)" fill="url(#a)"><path d="M3.79 35.376h46.112V5.086H3.79v30.29zm46.651 1.066H3.251a.536.536 0 0 1-.54-.533V4.553c0-.294.242-.533.54-.533h47.19c.298 0 .54.239.54.533V35.91a.536.536 0 0 1-.54.533z"/><path d="M34.169 11.518h-17.9a.536.536 0 0 1-.54-.533c0-.294.242-.533.54-.533h17.9c.298 0 .54.239.54.533a.536.536 0 0 1-.54.533M34.169 15.538h-17.9a.536.536 0 0 1-.54-.533c0-.294.242-.533.54-.533h17.9c.298 0 .54.239.54.533a.536.536 0 0 1-.54.533M34.169 25.99h-17.9a.536.536 0 0 1-.54-.533c0-.294.242-.533.54-.533h17.9c.298 0 .54.239.54.533a.536.536 0 0 1-.54.533M34.169 30.01h-17.9a.536.536 0 0 1-.54-.533c0-.294.242-.533.54-.533h17.9c.298 0 .54.239.54.533a.536.536 0 0 1-.54.533M39.59 15.276h4.617v-4.563H39.59v4.563zm5.156 1.066h-5.695a.536.536 0 0 1-.54-.533V10.18c0-.294.242-.533.54-.533h5.695c.298 0 .54.239.54.533v5.628a.536.536 0 0 1-.54.533zM39.59 29.748h4.617v-4.563H39.59v4.563zm5.156 1.066h-5.695a.536.536 0 0 1-.54-.533v-5.629c0-.294.242-.533.54-.533h5.695c.298 0 .54.24.54.533v5.629a.536.536 0 0 1-.54.533zM1.35 4.02h50.993V1.066H1.349V4.02zm51.533 1.066H.81a.536.536 0 0 1-.54-.533V.533C.27.24.512 0 .81 0h52.073c.297 0 .539.239.539.533v4.02a.536.536 0 0 1-.54.533z"/></g><path d="M9.16 23.84c1.986-.2 4.027.206 5.782 1.153a10.152 10.152 0 0 1 4.304 4.474 10.06 10.06 0 0 1 .94 5.652 10.058 10.058 0 0 1-3.013 6.02 10.13 10.13 0 0 1-3.347 2.141 10.162 10.162 0 0 1-4.983.604 10.057 10.057 0 0 1-5.297-2.36 10.056 10.056 0 0 1-3.028-10.74A10.11 10.11 0 0 1 9.16 23.84z" fill="#FFF"/><path d="M9.16.08c1.986-.2 4.027.206 5.782 1.153a10.152 10.152 0 0 1 4.304 4.474 10.06 10.06 0 0 1 .94 5.652 10.058 10.058 0 0 1-3.013 6.02 10.13 10.13 0 0 1-3.347 2.141 10.162 10.162 0 0 1-4.983.604 10.057 10.057 0 0 1-5.297-2.36A10.056 10.056 0 0 1 .518 7.023 10.11 10.11 0 0 1 9.16.08zM7.452 2.154c-1.778.582-3.325 1.801-4.355 3.353a8.392 8.392 0 0 0-1.375 4.856 8.37 8.37 0 0 0 1.897 5.076c3.956-3.942 7.91-7.885 11.862-11.832a8.408 8.408 0 0 0-2.783-1.503 8.47 8.47 0 0 0-5.246.05zM4.812 16.63c2.072 1.715 4.995 2.325 7.584 1.591a8.422 8.422 0 0 0 4.725-3.38 8.36 8.36 0 0 0 1.44-5.21A8.373 8.373 0 0 0 16.674 4.8C12.719 8.74 8.765 12.685 4.81 16.63z" fill="url(#b)" transform="translate(0 23.76)"/></g></svg>