<svg width="47" height="71" viewBox="0 0 47 71" xmlns="http://www.w3.org/2000/svg"><title>F02E2998-6659-4926-8DCC-BC02299CE67A</title><defs><linearGradient x1="12.957%" y1="80.245%" y2="15.021%" id="a"><stop stop-color="#F8A56F" offset="0%"/><stop stop-color="#F26C51" offset="100%"/></linearGradient></defs><g transform="translate(-936 -1585)" fill="url(#a)" fill-rule="evenodd"><path d="M973.676 1640.288a.606.606 0 0 1-.282-.07l-8.53-4.471a.605.605 0 0 1 .562-1.073l7.446 3.903-2.496-14.56a.604.604 0 0 1 .174-.537l10.577-10.31-14.617-2.124a.604.604 0 0 1-.456-.33l-6.536-13.246-6.538 13.245a.604.604 0 0 1-.455.331l-14.618 2.124 10.576 10.31c.143.14.208.34.175.536l-2.5 14.586 7.007-3.529a.606.606 0 1 1 .545 1.082l-8.08 4.068a.605.605 0 1 1-.87-.644l2.65-15.454-11.228-10.943a.609.609 0 0 1-.153-.621.609.609 0 0 1 .49-.413l15.516-2.254 6.94-14.06a.607.607 0 0 1 1.086 0l6.937 14.06 15.516 2.254a.606.606 0 0 1 .336 1.034l-11.227 10.943 2.65 15.454a.607.607 0 0 1-.597.709"/><path d="M965.069 1637.347h-11.304a.605.605 0 1 1 0-1.21h11.304a.606.606 0 0 1 0 1.21"/><path d="M965.069 1655.649a.606.606 0 0 1-.606-.606v-28.26a.606.606 0 0 1 1.211 0v28.26a.606.606 0 0 1-.605.606M953.765 1655.649a.606.606 0 0 1-.605-.606v-28.26a.606.606 0 0 1 1.21 0v28.26a.606.606 0 0 1-.605.606"/><path d="M965.069 1652.42h-11.304a.605.605 0 1 1 0-1.212h11.304a.606.606 0 0 1 0 1.211M965.069 1644.884h-11.304a.605.605 0 1 1 0-1.211h11.304a.606.606 0 0 1 0 1.21M965.069 1629.812h-11.304a.605.605 0 1 1 0-1.212h11.304a.606.606 0 0 1 0 1.212M959.417 1591.863a.606.606 0 0 1-.606-.606v-4.844a.606.606 0 0 1 1.211 0v4.844a.606.606 0 0 1-.605.606M945.079 1603.974a.6.6 0 0 1-.428-.177l-3.425-3.425a.605.605 0 1 1 .856-.856l3.425 3.425a.605.605 0 0 1-.428 1.033M973.95 1603.974a.605.605 0 0 1-.428-1.033l3.425-3.425a.605.605 0 1 1 .856.856l-3.425 3.425a.6.6 0 0 1-.428.177"/></g></svg>