<svg width="58" height="48" viewBox="0 0 58 48" xmlns="http://www.w3.org/2000/svg" xmlns:xlink="http://www.w3.org/1999/xlink"><title>D3D98680-1124-4B17-9561-C0096BE57FF4</title><defs><path id="a" d="M38.597 13.272v-13H0v26h38.597z"/><linearGradient x1="12.957%" y1="80.245%" y2="15.021%" id="b"><stop stop-color="#F8A56F" offset="0%"/><stop stop-color="#F26C51" offset="100%"/></linearGradient></defs><g fill="none" fill-rule="evenodd"><g transform="translate(0 21.62)"><mask id="c" fill="#fff"><use xlink:href="#a"/></mask><path d="M37.58 22.939c0 2.24-2.102 2.323-2.346 2.325H3.362c-.096 0-2.346-.026-2.346-2.325V3.605c0-2.242 2.108-2.324 2.346-2.326h31.873c.096 0 2.346.027 2.346 2.326v19.334zM35.236.272H3.362C2.199.272 0 .97 0 3.605v19.334c0 2.635 2.199 3.332 3.362 3.332h31.873c1.162 0 3.362-.697 3.362-3.332V3.605c0-2.635-2.2-3.333-3.362-3.333z" fill="url(#b)" mask="url(#c)"/></g><path d="M13.352 21.42H4.789a.506.506 0 0 0-.507.503c0 .278.227.503.507.503h8.563c.28 0 .508-.225.508-.503a.506.506 0 0 0-.508-.504M13.352 17.646H4.789a.506.506 0 0 0-.507.504c0 .278.227.503.507.503h8.563c.28 0 .508-.225.508-.503a.506.506 0 0 0-.508-.504M38.089 4.915H.508A.506.506 0 0 0 0 5.418c0 .278.228.503.508.503h37.58c.281 0 .509-.225.509-.503a.506.506 0 0 0-.508-.503M38.089 9.63H.508a.506.506 0 0 0-.508.503c0 .278.228.504.508.504h37.58c.281 0 .509-.226.509-.504a.506.506 0 0 0-.508-.503M23.174 21.42h10.157V15.6H23.174v5.818zm10.665-6.826H22.666a.506.506 0 0 0-.508.504v6.825c0 .278.228.503.508.503H33.84c.28 0 .508-.225.508-.503v-6.825a.506.506 0 0 0-.508-.504z" fill="url(#b)" transform="translate(0 21.222)"/><g transform="translate(36.941)" fill="url(#b)"><path d="M10.349 1.433c-5.162 0-9.36 4.211-9.36 9.388s4.198 9.389 9.36 9.389c5.162 0 9.36-4.212 9.36-9.39 0-5.176-4.198-9.387-9.36-9.387m0 19.737C4.659 21.17.031 16.527.031 10.82.031 5.116 4.66.474 10.35.474c5.69 0 10.318 4.642 10.318 10.348S16.038 21.17 10.349 21.17" transform="translate(0 .167)" stroke="url(#b)" stroke-width=".5"/><path d="M10.349 11.467a.48.48 0 0 1-.478-.478L9.86 6.72a.48.48 0 0 1 .478-.481h.001a.48.48 0 0 1 .479.478l.008 4.268a.48.48 0 0 1-.477.481h-.001zM10.35 4.584a.48.48 0 0 1-.479-.48v-1.28a.48.48 0 1 1 .957 0v1.28a.48.48 0 0 1-.478.48M10.35 19.74a.48.48 0 0 1-.479-.48v-1.282a.48.48 0 1 1 .957 0v1.281a.48.48 0 0 1-.478.48M3.432 11.522H2.156a.48.48 0 0 1 0-.96h1.276a.48.48 0 0 1 0 .96M18.542 11.522h-1.277a.48.48 0 0 1 0-.96h1.277a.48.48 0 0 1 0 .96" stroke="url(#b)" stroke-width=".5"/><path d="M15.013 16.574a.476.476 0 0 1-.352-.155l-4.606-5.022a.48.48 0 0 1 .028-.677.477.477 0 0 1 .676.028l4.606 5.02a.481.481 0 0 1-.352.806"/></g></g></svg>