<svg width="221" height="104" viewBox="0 0 221 104" xmlns="http://www.w3.org/2000/svg" xmlns:xlink="http://www.w3.org/1999/xlink"><title>48EC08A7-1572-43E9-B7FA-93F3A4575814</title><defs><path id="c" d="M11 24h143v24H11z"/><filter x="-50%" y="-50%" width="200%" height="200%" filterUnits="objectBoundingBox" id="b"><feOffset dy="6" in="SourceAlpha" result="shadowOffsetOuter1"/><feGaussianBlur stdDeviation="20" in="shadowOffsetOuter1" result="shadowBlurOuter1"/><feColorMatrix values="0 0 0 0 0 0 0 0 0 0 0 0 0 0 0 0 0 0 0.25 0" in="shadowBlurOuter1"/></filter><rect id="a" width="28.737" height="28.8" rx="4.8"/><mask id="d" x="0" y="0" width="28.737" height="28.8" fill="#fff"><use xlink:href="#a"/></mask></defs><g fill="none" fill-rule="evenodd"><g transform="translate(28 10)"><use fill="#000" filter="url(#b)" xlink:href="#c"/><use fill="#D8D8D8" xlink:href="#c"/></g><g transform="translate(28 10)"><rect fill="#F8A56F" width="182" height="48" rx="4.8"/><g transform="translate(143.684 9.6)"><path d="M13.25.044c3.29-.263 6.66.658 9.351 2.575a14.407 14.407 0 0 1 5.306 7.058 14.483 14.483 0 0 1 .263 8.559 14.342 14.342 0 0 1-3.379 5.996 14.328 14.328 0 0 1-6.023 3.827 14.393 14.393 0 0 1-7.776.3 14.33 14.33 0 0 1-7.494-4.576A14.318 14.318 0 0 1 .04 15.42c-.269-3.511.813-7.104 2.986-9.872 1.986-2.57 4.868-4.432 8.029-5.164a13.84 13.84 0 0 1 2.195-.34zm7.33 10.046c-2.723 2.694-5.462 5.374-8.175 8.078-.823-.893-1.605-1.824-2.414-2.73-.272-.298-.508-.65-.876-.838-.418-.227-.981-.226-1.347.103-.496.408-.737 1.209-.324 1.756 1.262 1.45 2.536 2.893 3.801 4.34.112.131.203.293.367.365a1.36 1.36 0 0 0 1.554-.247c3.072-2.989 6.141-5.98 9.214-8.968.248-.227.415-.544.443-.88.05-.617-.41-1.215-1.004-1.359-.444-.121-.93.049-1.238.38z"/><use stroke="#FFF" mask="url(#d)" stroke-width="2.4" xlink:href="#a"/><path d="M20.601 10.111c.309-.331.795-.502 1.239-.38.593.144 1.054.742 1.003 1.358a1.364 1.364 0 0 1-.442.881c-3.073 2.988-6.142 5.98-9.214 8.968-.4.4-1.051.508-1.555.247-.164-.072-.254-.234-.366-.364-1.266-1.448-2.54-2.89-3.802-4.34-.412-.548-.171-1.349.325-1.757.366-.33.929-.33 1.346-.103.369.188.604.54.876.838.81.906 1.592 1.837 2.414 2.73 2.714-2.704 5.452-5.384 8.176-8.078z" fill="#FFF"/></g><text font-family="GothamPro-Medium, Gotham Pro" font-size="22.8" font-weight="400" fill="#FFF"><tspan x="28.737" y="33">Uber</tspan></text></g></g></svg>