<svg width="425" height="133" viewBox="0 0 425 133" xmlns="http://www.w3.org/2000/svg" xmlns:xlink="http://www.w3.org/1999/xlink"><title>75FF4FAC-5230-444E-9F7B-6C8E18585C92</title><defs><path id="c" d="M15.057 19h368.887v77H15.057z"/><filter x="-50%" y="-50%" width="200%" height="200%" filterUnits="objectBoundingBox" id="b"><feOffset dy="6" in="SourceAlpha" result="shadowOffsetOuter1"/><feGaussianBlur stdDeviation="14" in="shadowOffsetOuter1" result="shadowBlurOuter1"/><feColorMatrix values="0 0 0 0 0 0 0 0 0 0 0 0 0 0 0 0 0 0 0.25 0" in="shadowBlurOuter1"/></filter><rect id="a" y="19.478" width="354.278" height="33.391" rx="2.796"/><mask id="d" x="0" y="0" width="354.278" height="33.391" fill="#fff"><use xlink:href="#a"/></mask></defs><g fill="none" fill-rule="evenodd"><g transform="translate(13 3)"><use fill="#000" filter="url(#b)" xlink:href="#c"/><use fill="#D8D8D8" xlink:href="#c"/></g><g transform="translate(13 3)"><rect fill="#FFF" width="399" height="96" rx="4.193"/><g transform="translate(22.36 20.87)"><text font-family="GothamPro-Light, Gotham Pro" font-size="11.182" font-weight="300" fill-opacity=".54" fill="#363636"><tspan x="0" y="10">ГРУППА:</tspan></text><use stroke-opacity=".12" stroke="#000" mask="url(#d)" stroke-width="1.398" fill="#FFF" xlink:href="#a"/><g fill="#F26C51"><path d="M273.663 32.699c.01 1.073.004 2.146.003 3.22-1.08.005-2.16-.002-3.24.003.006.165.003.331.003.497 1.08.01 2.16.002 3.239.004 0 1.075-.005 2.15.003 3.224.164-.016.348.03.5-.016v-3.208c1.082-.002 2.164.005 3.244-.003-.004-.166-.004-.331-.004-.497-1.08-.007-2.16-.002-3.24-.002V32.7a8.075 8.075 0 0 0-.508-.002z" stroke="#F26C51" stroke-width=".699"/><text font-family="GothamPro-Medium, Gotham Pro" font-size="11.182" font-weight="400" transform="translate(270.426 29.217)"><tspan x="13.975" y="10">Добавить</tspan></text></g><g transform="translate(2.795 22.26)"><rect fill-opacity=".3" fill="#F8A56F" width="121.587" height="27.826" rx="2.796"/><path d="M93.636 8.348h11.18v11.13h-11.18z"/><path d="M96.523 10.495a.203.203 0 0 1 .29.003c.797.793 1.588 1.591 2.386 2.382l2.386-2.382a.204.204 0 0 1 .293-.003c.245.243.489.487.732.732.084.075.069.21-.01.281-.795.799-1.595 1.591-2.387 2.392.79.784 1.575 1.574 2.363 2.36.093.074.108.226.02.31-.238.24-.48.478-.718.718a.208.208 0 0 1-.265.04c-.057-.043-.103-.097-.154-.146-.754-.756-1.507-1.514-2.264-2.268L96.82 17.29a.204.204 0 0 1-.303.003c-.24-.238-.48-.477-.718-.717a.206.206 0 0 1 .002-.306l2.38-2.374-2.25-2.255c-.058-.061-.124-.116-.173-.184-.05-.08-.023-.186.046-.244.24-.24.478-.48.719-.718z" fill-opacity=".54" fill="#363636"/><text font-family="GothamPro, Gotham Pro" font-size="13.279" fill="#222"><tspan x="16.771" y="18.348">Водители</tspan></text></g></g></g></g></svg>