<svg width="168" height="41" viewBox="0 0 168 41" xmlns="http://www.w3.org/2000/svg"><title>CC66F56A-DD40-47FF-86F0-9DA8E39134CD</title><g fill="none" fill-rule="evenodd"><path fill="#E7EBF9" d="M-755-416H645v1475H-755z"/><g fill="#3D485B"><path d="M79.612 12.46v19.344h4.253v-7.992h8.1v-3.306h-8.1v-4.47h9.347V12.46h-13.6zm19.614 3.17v-3.17H95.38v3.17h3.847zm-3.847 2.167v14.007h3.847V17.797H95.38zm10.458 6.638l-5.04 7.369h4.308l2.926-4.416 2.926 4.416h4.39l-5.176-7.45 4.606-6.557h-4.253l-2.439 3.658-2.465-3.658h-4.389l4.606 6.638zm15.659-8.399v15.768h4.253V16.036h5.798V12.46h-15.849v3.576h5.798zm11.704 6.069c.054-.903.28-1.653.677-2.249a4.612 4.612 0 0 1 1.517-1.436 6.611 6.611 0 0 1 2.073-.772c.767-.153 1.54-.23 2.316-.23.704 0 1.418.05 2.14.149.723.1 1.382.293 1.978.582.596.29 1.084.691 1.463 1.206.38.515.569 1.196.569 2.045v7.288c0 .632.036 1.237.108 1.815.073.578.199 1.012.38 1.3h-3.902a5.52 5.52 0 0 1-.27-1.354 5.013 5.013 0 0 1-2.168 1.328 8.7 8.7 0 0 1-2.547.379 6.88 6.88 0 0 1-1.869-.244 4.281 4.281 0 0 1-1.517-.759 3.531 3.531 0 0 1-1.016-1.3c-.244-.524-.366-1.147-.366-1.87 0-.794.14-1.449.42-1.963.28-.515.641-.926 1.084-1.233a4.855 4.855 0 0 1 1.517-.691 16.196 16.196 0 0 1 1.72-.366c.578-.09 1.147-.162 1.707-.216.56-.055 1.057-.136 1.49-.244.434-.109.777-.267 1.03-.474.253-.208.37-.51.352-.908 0-.415-.068-.745-.203-.989a1.494 1.494 0 0 0-.542-.569 2.131 2.131 0 0 0-.786-.27 6.429 6.429 0 0 0-.962-.068c-.758 0-1.354.162-1.788.487-.433.325-.686.867-.758 1.626H133.2zm8.886 2.844a1.726 1.726 0 0 1-.61.339 6.226 6.226 0 0 1-.785.203c-.28.054-.574.1-.88.136-.308.036-.615.081-.922.135a6.947 6.947 0 0 0-.853.217c-.28.09-.524.212-.732.366a1.739 1.739 0 0 0-.501.582c-.126.235-.19.533-.19.894 0 .343.064.632.19.867s.298.42.515.555c.216.136.47.23.758.285.29.054.587.081.894.081.759 0 1.346-.126 1.761-.38.416-.252.723-.554.921-.907.2-.352.321-.709.366-1.07.045-.361.068-.65.068-.867V24.95zm10.403-.514l-5.039 7.369h4.308l2.926-4.416 2.926 4.416h4.389l-5.175-7.45 4.606-6.557h-4.254l-2.438 3.658-2.466-3.658h-4.388l4.605 6.638zm14.928-8.805v-3.17h-3.847v3.17h3.847zm-3.847 2.167v14.007h3.847V17.797h-3.847zM24.971.278c3.039-.13 6.082-.125 9.12-.02 2.572 7.027 5.086 14.073 7.76 21.056 5.7-.69 11.4-1.419 17.042-2.483-.388 1.788-.846 3.561-1.498 5.272-4.556.84-9.154 1.376-13.743 1.994.062.48.118.959.18 1.443 3.77-.168 7.49-.882 11.233-1.366-.34 1.769-1.016 3.436-1.588 5.138-2.495.537-5.042.738-7.57 1.069.807 2.727 2.05 5.296 2.802 8.042-2.09.1-4.183.039-6.276.11-2.774-6.796-5.09-13.808-7.727-20.671-1.796-4.515-3.166-9.198-5.118-13.64-1.13 1.873-1.607 4.044-2.471 6.043-3.171 8.89-6.531 17.705-9.717 26.591-.217.585-.5 1.14-.789 1.692-2.022-.1-4.05-.058-6.077-.062.401-2.833 1.876-5.359 2.632-8.1-2.538-.23-5.057-.652-7.575-1.03-.51-1.731-1.23-3.394-1.621-5.158 3.714.427 7.41 1.222 11.153 1.284l.396-1.356c-4.63-.623-9.262-1.25-13.87-2.013-.61-1.74-1.049-3.532-1.536-5.31 2.288.24 4.518.82 6.791 1.164 3.398.614 6.853.825 10.265 1.366 2.77-6.95 5.189-14.043 7.802-21.055z"/><path d="M25.415 26.294c.903-.024 1.81-.053 2.718-.077l.014 2.876c-.912-.043-1.824-.077-2.736-.115 0-.896.004-1.793.004-2.684zM30.959 26.198c.902.01 1.805.014 2.708.02-.015.915-.024 1.83-.034 2.75-.897.039-1.795.077-2.693.12.01-.963.014-1.927.019-2.89zM22.599 29.05c.95-.02 1.9-.029 2.85-.024-.01.92-.02 1.84-.024 2.756-.898.014-1.796.024-2.694.038-.052-.925-.094-1.85-.132-2.77zM28.166 29.026c.912.005 1.829.014 2.745.033l-.028 2.775c-.888-.01-1.777-.014-2.67-.024-.014-.93-.033-1.854-.047-2.784zM33.624 28.997c.917.014 1.829.024 2.746.038l.07 2.78a540.71 540.71 0 0 0-2.788-.019l-.028-2.799z"/></g></g></svg>