<svg width="19" height="25" viewBox="0 0 19 25" xmlns="http://www.w3.org/2000/svg" xmlns:xlink="http://www.w3.org/1999/xlink"><title>7CEE1C75-3A8B-49D6-AF70-AA64D2395B7A</title><defs><path id="a" d="M0 24h19v1H0z"/><mask id="b" x="0" y="0" width="19" height="1" fill="#fff"><use xlink:href="#a"/></mask></defs><g fill="none" fill-rule="evenodd"><g fill="#363636" fill-opacity=".54"><path d="M9.534 5.236a3.058 3.058 0 0 0-3.055 3.055 3.058 3.058 0 0 0 3.055 3.054 3.058 3.058 0 0 0 3.055-3.054 3.058 3.058 0 0 0-3.055-3.055zm0 5.237A2.184 2.184 0 0 1 7.352 8.29c0-1.203.979-2.182 2.182-2.182 1.203 0 2.182.979 2.182 2.182a2.184 2.184 0 0 1-2.182 2.182z"/><path d="M15.374 2.451A8.314 8.314 0 0 0 9.457 0C7.22 0 5.12.87 3.54 2.451.615 5.376.25 10.878 2.752 14.211l6.705 9.683 6.694-9.669c2.511-3.347 2.148-8.85-.777-11.774zm.07 11.264l-5.987 8.646L3.46 13.7c-2.269-3.024-1.944-7.993.696-10.633a7.446 7.446 0 0 1 5.3-2.195c2.002 0 3.884.78 5.3 2.195 2.64 2.64 2.965 7.609.686 10.647z"/></g><use stroke="#979797" mask="url(#b)" stroke-width="2" fill="#D8D8D8" xlink:href="#a"/></g></svg>