<svg width="38" height="38" viewBox="0 0 38 38" xmlns="http://www.w3.org/2000/svg"><title>66503D55-2E3E-47F1-B4F0-22028D5E0C73</title><defs><linearGradient x1="12.957%" y1="80.245%" y2="15.021%" id="a"><stop stop-color="#F8A56F" offset="0%"/><stop stop-color="#F26C51" offset="100%"/></linearGradient></defs><g fill="none" fill-rule="evenodd"><g fill="url(#a)"><path d="M36.823.878L22.41 35.49l-3.745-15.132a.595.595 0 0 0-1.154.28l4.178 16.88a.596.596 0 0 0 1.126.084L37.92 1.326A.585.585 0 0 0 37.6.559a.596.596 0 0 0-.776.319"/><path d="M17.471 19.418l-14.97-3.63L37.475 1.524a.585.585 0 0 0 .322-.767.596.596 0 0 0-.775-.32L.368 15.388a.588.588 0 0 0-.366.588c.02.252.202.466.451.526l17.057 4.135c.2.049.41-.008.557-.151l18.622-18.06c.234-.228-.597-1.067-.831-.84"/></g><path d="M35.625 2.375l1.188-.792" stroke="#F26C51" stroke-width="1.627" stroke-linecap="round"/></g></svg>