<svg xmlns="http://www.w3.org/2000/svg" width="20" height="20" viewBox="0 0 20 20">
    <defs>
        <linearGradient id="a" x1="12.957%" y1="80.245%" y2="15.021%">
            <stop offset="0%" stop-color="#F8A56F"/>
            <stop offset="100%" stop-color="#F26C51"/>
        </linearGradient>
    </defs>
    <g fill="none" fill-rule="evenodd">
        <path fill="url(#a)" d="M20 10c0-5.523-4.477-10-10-10S0 4.477 0 10s4.477 10 10 10 10-4.477 10-10z"/>
        <path fill="#FFF" d="M8.185 6.91c-.16.307-.25.75-.272 1.326H6.727c0-.959.271-1.73.813-2.313.542-.584 1.285-.876 2.23-.876.875 0 1.575.25 2.102.75.526.498.789 1.137.789 1.914 0 .47-.096.853-.29 1.145-.194.293-.583.724-1.168 1.292-.427.413-.703.763-.83 1.05-.126.286-.19.708-.19 1.267H8.999c0-.634.076-1.146.227-1.534.15-.388.481-.834.991-1.336l.533-.526c.16-.15.288-.308.386-.473.178-.288.267-.588.267-.899 0-.435-.13-.812-.39-1.132-.258-.319-.688-.479-1.287-.479-.742-.001-1.255.274-1.54.825z"/>
        <path fill="#FFF" fill-rule="nonzero" d="M8.97 13.57h1.326v1.384H8.971z"/>
    </g>
</svg>
