<?xml version="1.0" encoding="UTF-8"?>
<svg width="385px" height="342px" viewBox="0 0 385 342" version="1.1" xmlns="http://www.w3.org/2000/svg" xmlns:xlink="http://www.w3.org/1999/xlink">
    <!-- Generator: Sketch 39 (31667) - http://www.bohemiancoding.com/sketch -->
    <title>Group 2</title>
    <desc>Created with Sketch.</desc>
    <defs>
        <linearGradient x1="33.1520435%" y1="8.95035767%" x2="30.585564%" y2="93.2483286%" id="linearGradient-1">
            <stop stop-color="#FCB69F" offset="0%"></stop>
            <stop stop-color="#FFECD2" offset="100%"></stop>
        </linearGradient>
        <linearGradient x1="55.0074454%" y1="30.5460346%" x2="58.3371878%" y2="85.9126249%" id="linearGradient-2">
            <stop stop-color="#FCB69F" offset="0%"></stop>
            <stop stop-color="#FFECD2" offset="100%"></stop>
        </linearGradient>
        <path d="M151.124897,203.941965 C165.923856,206.564607 169.932469,191 173.774462,191 C177.616455,191 185.652944,238.207547 196.193623,238.207547 C206.734302,238.207547 209.966766,225.094339 213.037905,225.094339 C218.473025,225.094339 219.180371,269.18978 230.788879,269.18978 C242.397387,269.18978 240.548595,262.108525 251.211056,262.108526 C261.873517,262.108526 263.891135,287.067203 277.725103,287.067204 C282.039875,287.067204 291.745659,282.448269 295.652712,282.448269 C299.559764,282.448269 314.727036,293.643213 332.143616,299.657486 C349.560195,305.671758 385,308.034012 385,308.034012 L45.7458193,308.034012 L45.7458193,230.301987 C45.7458193,230.301987 136.325938,201.319324 151.124897,203.941965 Z" id="path-3"></path>
        <linearGradient x1="31.3323498%" y1="-9.61033557%" x2="31.3323491%" y2="100%" id="linearGradient-4">
            <stop stop-color="#FCB69F" offset="0%"></stop>
            <stop stop-color="#FFECD2" offset="100%"></stop>
        </linearGradient>
        <path d="M106.13625,301.37738 C117.652063,297.284657 127.356295,282.743877 135.250732,282.743877 C143.655042,282.743877 146.456922,295.117238 157.031912,296.514432 C161.829765,297.148336 166.07557,297.130713 170.79745,297.602847 C176.482963,298.171333 182.647754,299.165617 188.511398,299.107748 C194.579968,299.047857 202.62592,295.1046 207.775811,294.713967 C217.89244,293.946595 211.20124,298.409887 225.52592,296.514432 C239.8506,294.618977 243.194178,289.487681 247.272863,289.487681 C251.351548,289.487681 256.857938,291.799022 261.898008,289.487681 C269.602807,285.954315 278.013362,271 282.790181,271 C287.567,271 293.3478,283.205573 301.72061,282.743877 C310.09342,282.282181 315.320504,274.787299 319.303294,274.787299 C323.286084,274.787299 334.24293,293.097197 340.801444,293.097196 C347.359957,293.097195 350.422635,294.713967 358.94746,294.713967 C367.472284,294.713967 385,301.37738 385,301.37738 L385,308 L65,308 C72.1356457,306.495099 98.5851988,304.061026 106.13625,301.37738 Z" id="path-5"></path>
        <rect id="path-6" x="0" y="17.084353" width="237.191235" height="232.835326"></rect>
        <filter x="-50%" y="-50%" width="200%" height="200%" filterUnits="objectBoundingBox" id="filter-7">
            <feOffset dx="0" dy="0" in="SourceAlpha" result="shadowOffsetOuter1"></feOffset>
            <feGaussianBlur stdDeviation="25" in="shadowOffsetOuter1" result="shadowBlurOuter1"></feGaussianBlur>
            <feColorMatrix values="0 0 0 0 0   0 0 0 0 0   0 0 0 0 0  0 0 0 0.54 0" type="matrix" in="shadowBlurOuter1"></feColorMatrix>
        </filter>
    </defs>
    <g id="Индикаторы" stroke="none" stroke-width="1" fill="none" fill-rule="evenodd">
        <g id="Artboard" transform="translate(-1535.000000, -2183.000000)">
            <g id="Group-7" transform="translate(1535.000000, 2183.000000)">
                <g id="Group-2" transform="translate(0.000000, 33.000000)">
                    <path d="M12.2993611,169.031463 C12.2993611,169.031463 43.4892169,183.763698 48.1402119,183.763698 C56.5589607,183.763698 66.1053799,249.684279 77.2864674,249.684279 C88.4675549,249.684279 93.0209416,234.241988 102.183471,234.241988 C112.554564,234.241988 122.4803,294.67578 134.054564,294.67578 C145.628829,294.67578 158.017592,275.346223 165.0428,278.519141 C172.068008,281.692059 186.755202,307.652648 186.755202,307.652648" id="Line" stroke="#FAB39B" stroke-linecap="square" transform="translate(99.527282, 238.342055) scale(-1, 1) translate(-99.527282, -238.342055) "></path>
                    <path d="M0.598250255,308.163718 C0.598250255,308.163718 38.6245907,305.217078 59.1457203,301.436453 C79.66685,297.655829 85.7141238,291.024258 90.8439433,291.024258 C95.9737628,291.024258 97.5710721,294.323852 104.189974,294.323852 C110.808877,294.323852 120.24742,265.601686 128.276037,265.601686 C136.304654,265.601686 140.851755,279.151483 155.087203,281.573005 C164.201093,283.123324 193.626481,274.619117 198.529057,274.619117 C207.175936,274.619118 348.192971,233.344692 348.192971,233.344692 L385.000014,218.286511 L385,308.163719 L65,308.163719" id="Path-4" fill="url(#linearGradient-1)"></path>
                    <g id="Group-29" transform="translate(92.402229, 228.954568)">
                        <ellipse id="Oval-4" fill="#F89F86" cx="5.26548027" cy="5.24528302" rx="2.63274013" ry="2.62264151"></ellipse>
                        <ellipse id="Oval-4-Copy" stroke-opacity="0.3" stroke="#F8A189" stroke-width="0.5" cx="5.26548027" cy="5.24528302" rx="5.26548027" ry="5.24528302"></ellipse>
                    </g>
                    <g id="Group-29-Copy-4" transform="translate(114.402229, 243.954568)">
                        <ellipse id="Oval-4" fill="#F89F86" cx="5.26548027" cy="5.24528302" rx="2.63274013" ry="2.62264151"></ellipse>
                        <ellipse id="Oval-4-Copy" stroke-opacity="0.3" stroke="#F8A189" stroke-width="0.5" cx="5.26548027" cy="5.24528302" rx="5.26548027" ry="5.24528302"></ellipse>
                    </g>
                    <g id="Group-29-Copy" transform="translate(58.646738, 288.143673)">
                        <ellipse id="Oval-4" fill="#F89F86" cx="5.26548027" cy="5.24528302" rx="2.63274013" ry="2.62264151"></ellipse>
                        <ellipse id="Oval-4-Copy" stroke-opacity="0.3" stroke="#F8A189" stroke-width="0.5" cx="5.26548027" cy="5.24528302" rx="5.26548027" ry="5.24528302"></ellipse>
                    </g>
                    <g id="Group-29-Copy-6" transform="translate(30.646738, 273.143673)">
                        <ellipse id="Oval-4" fill="#F89F86" cx="5.26548027" cy="5.24528302" rx="2.63274013" ry="2.62264151"></ellipse>
                        <ellipse id="Oval-4-Copy" stroke-opacity="0.3" stroke="#F8A189" stroke-width="0.5" cx="5.26548027" cy="5.24528302" rx="5.26548027" ry="5.24528302"></ellipse>
                    </g>
                    <g id="Line" transform="translate(215.372910, 249.517006) scale(-1, 1) translate(-215.372910, -249.517006) ">
                        <use fill="url(#linearGradient-2)" xlink:href="#path-3"></use>
                        <use fill-opacity="0.3" fill="#F26C51" xlink:href="#path-3"></use>
                    </g>
                    <g id="Path-5">
                        <use fill="url(#linearGradient-4)" xlink:href="#path-5"></use>
                        <use fill-opacity="0.25" fill="#FFFFFF" xlink:href="#path-5"></use>
                    </g>
                    <g id="Group" transform="translate(262.500000, 125.000000) scale(-1, 1) translate(-262.500000, -125.000000) translate(140.000000, 0.000000)">
                        <g id="Rectangle-28">
                            <use fill="black" fill-opacity="1" filter="url(#filter-7)" xlink:href="#path-6"></use>
                            <use fill="#EEEEEE" fill-rule="evenodd" xlink:href="#path-6"></use>
                        </g>
                        <g id="#23232dff" fill="#FFFFFF">
                            <path d="M0,0.488124372 C83.1828685,0.473480641 146.838944,0.507649347 210.4999,0.473480641 C217.762052,0.502768104 225.019323,0.483243129 232.281474,0.483243129 C233.77002,0.49788686 235.292729,0.414905717 236.751992,0.800523971 C240.993127,1.8304664 244.360657,5.83796749 244.482669,10.2310868 C244.555876,13.799276 244.48755,17.3723464 244.511952,20.9454168 C244.507072,35.4768794 244.516833,50.008342 244.511952,64.5398045 C244.507072,76.6745764 244.516833,88.8142296 244.511952,100.953883 C244.497311,110.291702 244.536355,119.62464 244.516833,128.962459 C244.507072,137.485111 244.511952,146.002881 244.536355,154.520651 C244.477789,157.547022 244.536355,160.573394 244.521713,163.599765 C244.48755,171.741679 244.541235,179.883594 244.516833,188.025508 C244.502191,191.56441 244.511952,195.103312 244.511952,198.647095 C244.511952,200.62888 244.507072,202.610665 244.511952,204.592449 C244.502191,216.283028 244.526594,227.973607 244.497311,239.664186 C244.614442,245.077485 239.685159,249.988016 234.267829,249.822054 C182.856873,249.826935 131.436155,249.812291 80.0203187,249.817173 C59.8541833,249.822054 39.6880478,249.817173 0,249.822054 L0,229.354999 C75.1544821,229.306186 130.787052,229.354999 186.419622,229.335474 C200.338745,229.252493 214.267629,229.486792 228.186753,229.262255 C228.167231,158.288972 228.245319,87.7989309 228.201394,17.3137715 C158.644821,17.2942465 89.0833665,17.3137715 0,17.304009 L0,0.488124372 Z" id="Shape"></path>
                        </g>
                    </g>
                </g>
            </g>
        </g>
    </g>
</svg>