<?xml version="1.0" encoding="UTF-8"?>
<svg width="1734px" height="671px" viewBox="0 0 1734 671" version="1.1" xmlns="http://www.w3.org/2000/svg" xmlns:xlink="http://www.w3.org/1999/xlink">
    <!-- Generator: Sketch 39 (31667) - http://www.bohemiancoding.com/sketch -->
    <title>Group 4</title>
    <desc>Created with Sketch.</desc>
    <defs>
        <linearGradient x1="33.1520435%" y1="8.95035767%" x2="30.585564%" y2="93.2483286%" id="linearGradient-1">
            <stop stop-color="#FCB69F" offset="0%"></stop>
            <stop stop-color="#FFECD2" offset="100%"></stop>
        </linearGradient>
        <linearGradient x1="55.0074454%" y1="30.5460346%" x2="58.3371878%" y2="85.9126249%" id="linearGradient-2">
            <stop stop-color="#FCB69F" offset="0%"></stop>
            <stop stop-color="#FFECD2" offset="100%"></stop>
        </linearGradient>
        <path d="M289.581299,416.917648 C289.581299,416.917648 560.898741,329.47765 619.825806,337.47765 C678.752872,345.47765 694.714523,298 710.012719,298 C725.310915,298 757.310915,442 799.282197,441.999999 C841.253479,441.999998 854.124628,401.999999 866.353409,401.999999 C887.995179,401.999999 911.087708,521.999999 957.310914,521.999999 C1003.53412,521.999999 1000.64795,501.999999 1018.81091,501.999999 C1036.97388,501.999999 1057.31091,561.999997 1112.39554,562 C1129.57626,562.000001 1169.52954,546 1185.08679,546 C1200.64404,546 1238.0437,586 1265.37097,586 C1293.77018,586 1314.22241,570 1339.80591,570 C1353.82154,570 1461.54871,612.374146 1563.52478,626.181885 C1665.50085,639.989624 1739,654.995819 1739,654.995819 L289.581299,654.995819 L289.581299,442" id="path-3"></path>
        <linearGradient x1="31.3323498%" y1="-9.61033557%" x2="31.3323491%" y2="100%" id="linearGradient-4">
            <stop stop-color="#FCB69F" offset="0%"></stop>
            <stop stop-color="#FFECD2" offset="100%"></stop>
        </linearGradient>
        <path d="M620.261388,631.969345 C721.86086,608.6651 813.775142,547.236366 830.066422,547.236366 C865.643493,547.236367 898.542184,600.165454 943.308166,606.142181 C963.618408,608.853811 981.591722,608.778427 1001.58035,610.798058 C1025.64823,613.229851 1051.74498,617.483064 1076.56692,617.235519 C1102.25635,616.979323 1136.31643,600.111393 1158.11691,598.440399 C1200.94256,595.157838 1172.61742,614.250302 1233.25656,606.142181 C1293.8957,598.034061 1308.04972,576.0841 1325.31558,576.084099 C1342.58144,576.084097 1365.89106,585.971239 1387.22665,576.084099 C1419.84256,560.969542 1455.44607,497 1475.66727,497 C1495.88847,497 1520.35971,549.211346 1555.80344,547.236366 C1591.24716,545.261387 1613.37442,513.200794 1630.23434,513.200795 C1647.09426,513.200795 1693.47671,591.524399 1721.24017,591.524394 C1749.00363,591.52439 1739.00003,591.524391 1739.00003,591.524391 L1739.00003,655.27359 L454.397313,655.27359 C454.397313,655.27359 518.661916,655.27359 620.261388,631.969345 Z" id="path-5"></path>
        <rect id="path-6" x="0" y="35" width="486" height="477"></rect>
        <filter x="-50%" y="-50%" width="200%" height="200%" filterUnits="objectBoundingBox" id="filter-7">
            <feOffset dx="0" dy="0" in="SourceAlpha" result="shadowOffsetOuter1"></feOffset>
            <feGaussianBlur stdDeviation="25" in="shadowOffsetOuter1" result="shadowBlurOuter1"></feGaussianBlur>
            <feColorMatrix values="0 0 0 0 0   0 0 0 0 0   0 0 0 0 0  0 0 0 0.54 0" type="matrix" in="shadowBlurOuter1"></feColorMatrix>
        </filter>
    </defs>
    <g id="Индикаторы" stroke="none" stroke-width="1" fill="none" fill-rule="evenodd">
        <g id="Artboard" transform="translate(-41.000000, -226.000000)">
            <g id="Group-5" transform="translate(41.000000, 226.000000)">
                <g id="Group-4" transform="translate(0.000000, 15.000000)">
                    <path d="M364.498583,232.095972 C364.498583,232.095972 419.200722,359.304172 446.142395,359.304172 C473.084068,359.304172 507.922339,342.3125 523.688938,342.3125 C552.228,342.3125 592.650484,455.417258 623.329759,458.585779 C654.530332,461.808139 699.195644,420.133974 724.411583,420.074214 C751.249971,420.010609 866.222246,507.565577 923.009081,513.488459 C979.795915,519.411341 1028.82561,515.95788 1056.87932,515.95788 C1084.93303,515.95788 1241.58879,643.183466 1241.58879,643.183466" id="Line" stroke="#FAB39B" stroke-width="1.5" stroke-linecap="square" transform="translate(803.043688, 437.639719) scale(-1, 1) translate(-803.043688, -437.639719) "></path>
                    <path d="M0.182384436,655.779968 C0.182384436,655.779968 196.890471,645.792902 329.727489,626.582291 C528.156373,597.885922 645.44481,533.411707 667.076508,526.504284 C703.189415,514.972729 725.237066,537.973325 746.056396,526.504284 C800.413544,496.559788 811.636368,396 833.973792,396 C856.311215,396 880.125488,553.456875 911.145803,553.456876 C942.166118,553.456876 1448.05878,427.555031 1448.05878,427.555031 C1448.05878,427.555031 1463.53396,496.559785 1537.42122,496.559784 C1611.30847,496.559784 1609.7807,396 1609.7807,396 C1609.7807,396 1630.05566,488.507111 1666.646,488.507111 C1703.23633,488.507111 1739,427.555031 1739,427.555031 L1739,655.779968 L615.081043,655.779973" id="Path-4" fill="url(#linearGradient-1)"></path>
                    <g id="Group-29" transform="translate(876.000000, 414.000000)">
                        <circle id="Oval-4" fill="#F89F86" cx="8" cy="8" r="4"></circle>
                        <circle id="Oval-4-Copy" stroke-opacity="0.3" stroke="#F8A189" stroke-width="2" cx="8" cy="8" r="8"></circle>
                    </g>
                    <g id="Group-29-Copy-4" transform="translate(672.000000, 504.000000)">
                        <circle id="Oval-4" fill="#F89F86" cx="8" cy="8" r="4"></circle>
                        <circle id="Oval-4-Copy" stroke-opacity="0.3" stroke="#F8A189" stroke-width="2" cx="8" cy="8" r="8"></circle>
                    </g>
                    <g id="Group-29-Copy-5" transform="translate(542.000000, 508.000000)">
                        <circle id="Oval-4" fill="#F89F86" cx="8" cy="8" r="4"></circle>
                        <circle id="Oval-4-Copy" stroke-opacity="0.3" stroke="#F8A189" stroke-width="2" cx="8" cy="8" r="8"></circle>
                    </g>
                    <g id="Group-29-Copy" transform="translate(974.000000, 450.000000)">
                        <circle id="Oval-4" fill="#F89F86" cx="8" cy="8" r="4"></circle>
                        <circle id="Oval-4-Copy" stroke-opacity="0.3" stroke="#F8A189" stroke-width="2" cx="8" cy="8" r="8"></circle>
                    </g>
                    <g id="Group-29-Copy-2" transform="translate(1072.000000, 333.000000)">
                        <circle id="Oval-4" fill="#F9A38B" cx="8" cy="8" r="4"></circle>
                        <circle id="Oval-4-Copy" stroke-opacity="0.3" stroke="#F8A189" stroke-width="2" cx="8" cy="8" r="8"></circle>
                    </g>
                    <g id="Group-29-Copy-3" transform="translate(1152.000000, 350.000000)">
                        <circle id="Oval-4" fill="#F8A48B" cx="8" cy="8" r="4"></circle>
                        <circle id="Oval-4-Copy" stroke-opacity="0.3" stroke="#F8A189" stroke-width="2" cx="8" cy="8" r="8"></circle>
                    </g>
                    <g id="Line" transform="translate(1014.290650, 476.497910) scale(-1, 1) translate(-1014.290650, -476.497910) ">
                        <use fill="url(#linearGradient-2)" xlink:href="#path-3"></use>
                        <use fill-opacity="0.3" fill="#F26C51" xlink:href="#path-3"></use>
                    </g>
                    <g id="Path-5">
                        <use fill="url(#linearGradient-4)" xlink:href="#path-5"></use>
                        <use fill-opacity="0.25" fill="#FFFFFF" xlink:href="#path-5"></use>
                    </g>
                    <g id="Group" transform="translate(1488.000000, 256.000000) scale(-1, 1) translate(-1488.000000, -256.000000) translate(1237.000000, 0.000000)">
                        <g id="Rectangle-28">
                            <use fill="black" fill-opacity="1" filter="url(#filter-7)" xlink:href="#path-6"></use>
                            <use fill="#EEEEEE" fill-rule="evenodd" xlink:href="#path-6"></use>
                        </g>
                        <g id="#23232dff" fill="#FFFFFF">
                            <path d="M0,1 C170.44,0.97 300.87,1.04 431.31,0.97 C446.19,1.03 461.06,0.99 475.94,0.99 C478.99,1.02 482.11,0.85 485.1,1.64 C493.79,3.75 500.69,11.96 500.94,20.96 C501.09,28.27 500.95,35.59 501,42.91 C500.99,72.68 501.01,102.45 501,132.22 C500.99,157.08 501.01,181.95 501,206.82 C500.97,225.95 501.05,245.07 501.01,264.2 C500.99,281.66 501,299.11 501.05,316.56 C500.93,322.76 501.05,328.96 501.02,335.16 C500.95,351.84 501.06,368.52 501.01,385.2 C500.98,392.45 501,399.7 501,406.96 C501,411.02 500.99,415.08 501,419.14 C500.98,443.09 501.03,467.04 500.97,490.99 C501.21,502.08 491.11,512.14 480.01,511.8 C374.67,511.81 269.31,511.78 163.96,511.79 C122.64,511.8 81.32,511.79 0,511.8 L0,469.87 C153.99,469.77 267.98,469.87 381.97,469.83 C410.49,469.66 439.03,470.14 467.55,469.68 C467.51,324.28 467.67,179.87 467.58,35.47 C325.06,35.43 182.53,35.47 0,35.45 L0,1 Z" id="Shape"></path>
                        </g>
                    </g>
                </g>
            </g>
        </g>
    </g>
</svg>