<?xml version="1.0" encoding="UTF-8"?>
<svg width="961px" height="573px" viewBox="0 0 961 573" version="1.1" xmlns="http://www.w3.org/2000/svg" xmlns:xlink="http://www.w3.org/1999/xlink">
    <!-- Generator: Sketch 39 (31667) - http://www.bohemiancoding.com/sketch -->
    <title>Group 3</title>
    <desc>Created with Sketch.</desc>
    <defs>
        <linearGradient x1="33.1520435%" y1="8.95035767%" x2="30.585564%" y2="93.2483286%" id="linearGradient-1">
            <stop stop-color="#FCB69F" offset="0%"></stop>
            <stop stop-color="#FFECD2" offset="100%"></stop>
        </linearGradient>
        <linearGradient x1="55.0074454%" y1="30.5460346%" x2="58.3371878%" y2="85.9126249%" id="linearGradient-2">
            <stop stop-color="#FCB69F" offset="0%"></stop>
            <stop stop-color="#FFECD2" offset="100%"></stop>
        </linearGradient>
        <path d="M195.228498,383.606791 C195.228498,383.606791 406.114422,326.153431 434.383832,331.172299 C462.653243,336.191167 470.310615,306.40566 477.649704,306.40566 C484.988793,306.40566 500.340331,396.745283 520.475449,396.745282 C540.610567,396.745282 546.785315,371.650943 552.651897,371.650943 C563.034224,371.650943 564.385417,456.035024 586.560333,456.035024 C608.73525,456.035024 605.203632,442.483845 625.571381,442.483846 C645.939129,442.483847 649.793244,490.246494 676.219299,490.246496 C684.461505,490.246496 703.001782,481.407385 710.465149,481.407385 C717.928516,481.407385 742.117968,501.752321 775.387634,513.261648 C808.657301,524.770975 852,530.370031 852,530.370031 L193,530.370025 L194.634877,389.968122" id="path-3"></path>
        <linearGradient x1="31.3323498%" y1="-9.61033557%" x2="31.3323491%" y2="100%" id="linearGradient-4">
            <stop stop-color="#FCB69F" offset="0%"></stop>
            <stop stop-color="#FFECD2" offset="100%"></stop>
        </linearGradient>
        <path d="M271.782455,521.805727 C285.801636,518.992739 317.663811,523.403213 334.41095,516.961337 C351.19699,510.504496 349.85022,505.348238 357.805969,505.348238 C370.509514,505.348238 376.871107,513.064764 386.928589,512.909464 C397.337565,512.748738 409.851491,500.90743 418.684723,499.859118 C436.03704,497.799776 434.477982,499.859118 449.338422,499.859117 C464.198863,499.859116 478.390817,462.904054 485.386688,462.904053 C492.38256,462.904052 504.360567,469.106835 513.005432,462.904053 C526.220913,453.421808 539.366311,431.387843 547.559641,431.387843 C555.75297,431.387843 565.668355,464.143074 580.029627,462.904054 C594.390898,461.665033 603.356535,441.551548 610.187924,441.551549 C617.019314,441.551549 635.812795,490.688527 647.062135,490.688524 C658.311475,490.688521 663.564664,495.027338 678.186675,495.027338 C692.808686,495.027337 961,490.688525 961,490.688525 L961,530.682124 L193,530.682124 C200.314821,528.268446 230.085507,530.172338 271.782455,521.805727 Z" id="path-5"></path>
        <rect id="path-6" x="0" y="34.7265625" width="454.12749" height="473.273438"></rect>
        <filter x="-50%" y="-50%" width="200%" height="200%" filterUnits="objectBoundingBox" id="filter-7">
            <feOffset dx="0" dy="0" in="SourceAlpha" result="shadowOffsetOuter1"></feOffset>
            <feGaussianBlur stdDeviation="25" in="shadowOffsetOuter1" result="shadowBlurOuter1"></feGaussianBlur>
            <feColorMatrix values="0 0 0 0 0   0 0 0 0 0   0 0 0 0 0  0 0 0 0.54 0" type="matrix" in="shadowBlurOuter1"></feColorMatrix>
        </filter>
    </defs>
    <g id="Индикаторы" stroke="none" stroke-width="1" fill="none" fill-rule="evenodd">
        <g id="Artboard" transform="translate(-959.000000, -1267.000000)">
            <g id="Group-6" transform="translate(958.000000, 1267.000000)">
                <g id="Group-3" transform="translate(0.000000, 15.000000)">
                    <path d="M192.999991,265.060209 C192.999991,265.060209 227.388068,344.865353 244.324743,344.865353 C261.261418,344.865353 283.162228,334.205483 293.073779,334.205483 C311.01464,334.205483 337.140261,435.308845 356.426551,437.296644 C376.040549,439.318219 425.2313,419.099729 441.083106,419.062238 C457.954851,419.022335 514.779028,514.642927 549.551169,514.642927" id="Line" stroke="#FAB39B" stroke-width="0.714197148" stroke-linecap="square" transform="translate(371.275580, 389.851568) scale(-1, 1) translate(-371.275580, -389.851568) "></path>
                    <path d="M0.943376823,529.861966 C0.943376823,529.861966 137.209032,521.24104 181.649599,515.214109 C226.090166,509.187177 239.329993,497.062711 248.946539,497.062711 C258.563085,497.062711 261.557459,503.377042 273.965493,503.377042 C286.373528,503.377042 304.067363,448.41232 319.1181,448.41232 C334.168837,448.41232 342.692997,474.342149 369.379285,478.97614 C386.464513,481.942937 441.626413,465.6687 450.81696,465.6687 C467.026714,465.668701 731.382365,386.683109 731.382365,386.683109 C731.382365,386.683109 739.468966,429.973827 778.078962,429.973827 C816.688959,429.973827 815.890617,366.886792 815.890617,366.886792 C815.890617,366.886792 826.485357,424.921914 845.60574,424.921914 C864.726122,424.921914 960.999978,386.683109 960.999978,386.683109 L961,529.937843 L296.107476,529.861964 L193,529.861966" id="Path-4" fill="url(#linearGradient-1)"></path>
                    <g id="Group-29" transform="translate(296.726596, 414.179245)">
                        <ellipse id="Oval-4" fill="#F89F86" cx="5.02913825" cy="5.01886792" rx="2.51456913" ry="2.50943396"></ellipse>
                        <ellipse id="Oval-4-Copy" stroke-opacity="0.3" stroke="#F8A189" stroke-width="0.952262864" cx="5.02913825" cy="5.01886792" rx="5.02913825" ry="5.01886792"></ellipse>
                    </g>
                    <g id="Group-29-Copy" transform="translate(379.333540, 431.764151)">
                        <ellipse id="Oval-4" fill="#F89F86" cx="5.02913825" cy="5.01886792" rx="2.51456913" ry="2.50943396"></ellipse>
                        <ellipse id="Oval-4-Copy" stroke-opacity="0.3" stroke="#F8A189" stroke-width="0.952262864" cx="5.02913825" cy="5.01886792" rx="5.02913825" ry="5.01886792"></ellipse>
                    </g>
                    <g id="Group-29-Copy-2" transform="translate(442.940484, 328.363208)">
                        <ellipse id="Oval-4" fill="#F9A38B" cx="5.02913825" cy="5.01886792" rx="2.51456913" ry="2.50943396"></ellipse>
                        <ellipse id="Oval-4-Copy" stroke-opacity="0.3" stroke="#F8A189" stroke-width="0.952262864" cx="5.02913825" cy="5.01886792" rx="5.02913825" ry="5.01886792"></ellipse>
                    </g>
                    <g id="Line" transform="translate(522.500000, 418.387846) scale(-1, 1) translate(-522.500000, -418.387846) ">
                        <use fill="url(#linearGradient-2)" xlink:href="#path-3"></use>
                        <use fill-opacity="0.3" fill="#F26C51" xlink:href="#path-3"></use>
                    </g>
                    <g id="Path-5">
                        <use fill="url(#linearGradient-4)" xlink:href="#path-5"></use>
                        <use fill-opacity="0.25" fill="#FFFFFF" xlink:href="#path-5"></use>
                    </g>
                    <g id="Group" transform="translate(492.000000, 0.000000)">
                        <g transform="translate(235.000000, 254.000000) scale(-1, 1) translate(-235.000000, -254.000000) ">
                            <g id="Rectangle-28">
                                <use fill="black" fill-opacity="1" filter="url(#filter-7)" xlink:href="#path-6"></use>
                                <use fill="#EEEEEE" fill-rule="evenodd" xlink:href="#path-6"></use>
                            </g>
                            <g id="#23232dff" transform="translate(1.000000, 0.000000)" fill="#FFFFFF">
                                <path d="M2.84217094e-14,0.9921875 C140.081912,0.962421875 269.472629,1.031875 398.873267,0.962421875 C413.634701,1.02195313 428.386215,0.982265625 443.147649,0.982265625 C446.173347,1.01203125 449.268486,0.843359375 452.234661,1.6271875 C460.855418,3.72070313 467.700438,11.8665625 467.948446,20.79625 C468.097251,28.0491406 467.958367,35.3119531 468.007968,42.5747656 C467.998048,72.1121875 468.017888,101.649609 468.007968,131.187031 C467.998048,155.852813 468.017888,180.528516 468.007968,205.204219 C467.978207,224.184766 468.05757,243.155391 468.017888,262.135938 C467.998048,279.459531 468.007968,296.773203 468.05757,314.086875 C467.938526,320.238437 468.05757,326.39 468.027809,332.541563 C467.958367,349.09125 468.06749,365.640937 468.017888,382.190625 C467.988127,389.383984 468.007968,396.577344 468.007968,403.780625 C468.007968,407.808906 467.998048,411.837188 468.007968,415.865469 C467.988127,439.628359 468.037729,463.39125 467.978207,487.154141 C468.216295,498.1575 458.196773,508.138906 447.185219,507.801562 C342.684582,507.811484 238.164104,507.781719 133.653546,507.791641 C92.6627888,507.801562 51.6720319,507.791641 5.68434189e-14,507.801562 L2.84217094e-14,466.199141 C123.762988,466.099922 236.844701,466.199141 349.926414,466.159453 C378.219163,465.990781 406.531753,466.467031 434.824502,466.010625 C434.784821,321.746562 434.943546,178.464766 434.854263,35.1928906 C293.46988,35.1532031 152.075578,35.1928906 2.84217094e-14,35.1730469 L2.84217094e-14,0.9921875 Z" id="Shape"></path>
                            </g>
                        </g>
                    </g>
                </g>
            </g>
        </g>
    </g>
</svg>