<svg width="471" height="280" viewBox="0 0 471 280" xmlns="http://www.w3.org/2000/svg"><title>7D3FE1A8-3521-4591-877A-B5FC821490C8</title><defs><linearGradient x1="12.957%" y1="80.245%" x2="90.104%" y2="22.883%" id="a"><stop stop-color="#FBD785" offset="0%"/><stop stop-color="#EE6A7E" offset="100%"/></linearGradient></defs><g fill="none" fill-rule="evenodd"><path fill="#FAFBFD" d="M382 0h32v280h-32z"/><path d="M470 134.244s-40.138-16.418-71.73-16.418c-39.571 0-45.728 48.33-72.033 51.046-26.751 2.763-30.988-63.698-52.608-63.75-23.012-.054-34.98 103.204-61.078 103.204-26.096 0-52.669-46.948-67.637-44.127-19.153 3.61-44.516 44.127-63.145 44.127-18.628 0-22.883-20.396-34.476-20.396C35.701 187.93 1 212.995 1 212.995" stroke="#7ADD99" stroke-width="1.5" stroke-linecap="square"/><g transform="translate(390 110)"><circle fill="#7ADD99" cx="8" cy="8" r="4"/><circle stroke-opacity=".3" stroke="#7ADD99" stroke-width="2" cx="8" cy="8" r="8"/></g><path d="M0 250.098s26.544-24.985 37.643-24.985c17.499 0 38.14 28.225 58.97 28.857 11.801.358 26.287-37.396 38.774-37.185 10.484.178 24.441 18.158 35.214 18.594 6.96.281 12.496-5.461 19.508-5.166 10.621.447 20.325 16.214 35.113 15.523 14.788-.691 14.99-58.236 34.048-57.698 19.058.539 11.479 55.55 25.513 57.698 12.15 1.859 26.118-6.963 38.089-5.853 23.697 2.198 45.926 12.739 66.928 14.087 15.631 1.004 32-20.667 44.412-21.165C460.964 231.732 469 250.098 469 250.098v29.867H0" fill="url(#a)" transform="translate(1)"/></g></svg>