<svg width="48" height="40" viewBox="0 0 48 40" xmlns="http://www.w3.org/2000/svg" xmlns:xlink="http://www.w3.org/1999/xlink"><title>730994BF-1CC2-426E-B5DB-16042A2FB974</title><defs><path id="a" d="M38.869 26.131V.565H.372V26.13H38.87z"/><linearGradient x1="12.957%" y1="80.245%" y2="15.021%" id="b"><stop stop-color="#F8A56F" offset="0%"/><stop stop-color="#F26C51" offset="100%"/></linearGradient></defs><g fill="none" fill-rule="evenodd"><g transform="translate(9.123 .137)"><mask id="c" fill="#fff"><use xlink:href="#a"/></mask><path d="M32.146 26.131L25 26.13a.527.527 0 0 1 0-1.053l7.1.002c.011-.002.023-.002.035-.002 3.133-.067 5.682-2.67 5.682-5.802a5.774 5.774 0 0 0-5.636-5.8.528.528 0 0 1-.454-.767 7.543 7.543 0 0 0 .837-3.468c0-4.203-3.419-7.623-7.623-7.623a7.61 7.61 0 0 0-6.734 4.054.527.527 0 0 1-.804.155 7.022 7.022 0 0 0-4.518-1.648c-3.864 0-7.012 3.144-7.015 7.007a.527.527 0 0 1-.31.48 7.034 7.034 0 0 0-4.135 6.398.527.527 0 0 1-1.053 0 8.088 8.088 0 0 1 4.452-7.213c.18-4.29 3.729-7.724 8.061-7.724 1.692 0 3.339.533 4.703 1.512A8.658 8.658 0 0 1 24.941.564c4.784 0 8.676 3.892 8.676 8.676a8.575 8.575 0 0 1-.631 3.247 6.817 6.817 0 0 1 5.883 6.788c0 3.684-2.985 6.75-6.664 6.853a.553.553 0 0 1-.059.003" fill="url(#b)" mask="url(#c)"/></g><path d="M30.702 34.99h-2.106a.527.527 0 0 1 0-1.052h1.58v-5.79a.527.527 0 0 1 1.052 0v6.316c0 .29-.236.526-.526.526M25.79 34.99h-.702a.527.527 0 0 1 0-1.052h.701a.527.527 0 0 1 0 1.052" fill="url(#b)" transform="translate(9.123)"/><g transform="translate(0 18.947)" fill="url(#b)"><path d="M1.178 19.674h30.524V1.17H1.178v18.504zM32.29 0H.589A.587.587 0 0 0 0 .585v19.674c0 .323.264.585.589.585h31.702a.587.587 0 0 0 .589-.585V.585A.587.587 0 0 0 32.291 0z"/></g></g></svg>