<svg width="13" height="20" viewBox="0 0 13 20" xmlns="http://www.w3.org/2000/svg"><title>BDAC6F12-B49B-49C7-A276-CFFA8626B402</title><path d="M.31.032C.53-.022.732.13.888.269l11.353 10.229c.162.148.34.349.293.587-.066.212-.3.298-.5.33-1.209.155-2.418.303-3.628.456-.235.027-.477.114-.63.303-.2.24-.208.595-.08.872l2.316 5.118c.242.534-.008 1.23-.543 1.477-.293.123-.572.305-.895.335a1.149 1.149 0 0 1-1.137-.663c-.768-1.694-1.533-3.389-2.3-5.084-.103-.223-.277-.428-.516-.506-.283-.1-.6-.002-.824.185-.924.774-1.846 1.55-2.77 2.325-.153.123-.345.24-.55.198-.194-.041-.285-.251-.31-.43-.027-.266-.015-.535-.02-.802L.027.63C.028.411.067.113.309.032z" fill="#FFB64D" fill-rule="evenodd"/></svg>