<svg width="342" height="183" viewBox="0 0 342 183" xmlns="http://www.w3.org/2000/svg"><title>BE3E1F36-D0E3-4274-BC49-5034955A043E</title><defs><linearGradient x1="12.957%" y1="80.245%" y2="15.021%" id="a"><stop stop-color="#F8A56F" offset="0%"/><stop stop-color="#F68F63" offset="39.152%"/><stop stop-color="#F26C51" offset="100%"/></linearGradient></defs><g fill="none" fill-rule="evenodd"><rect fill="#F8F8F8" width="342" height="183" rx="4.283"/><path d="M197.907 60h63.297c1.442.232 2.638 1.428 2.796 2.875v58.356c-.174.8-.563 1.58-1.234 2.082-.448.36-1.003.548-1.554.687h-63.414c-.81-.17-1.596-.559-2.105-1.221-.366-.442-.556-.991-.693-1.536V62.88c.159-1.48 1.412-2.72 2.907-2.88zm-.024 3.259c-.748.206-.953 1.248-.42 1.77.565.642 1.8.216 1.839-.64.174-.77-.716-1.389-1.42-1.13zm4.308-.02c-.418.165-.745.576-.757 1.029.019.615.614 1.143 1.24 1.061.552-.004.998-.522.95-1.06.03-.696-.769-1.312-1.433-1.03zm4.317.018c-.941.24-.968 1.806-.002 2.02.717.262 1.55-.37 1.417-1.132.002-.701-.793-1.102-1.415-.888zm-8.63 5.339c-.897.268-.731 1.356-.714 2.073-.002 16.714.004 33.427-.004 50.139-.005.563.498 1.059 1.066 1.053 20.849-.004 41.7-.002 62.548 0 .442 0 .886-.274 1.006-.709.116-.464.06-.95.056-1.421.002-16.714-.003-33.427.002-50.139 0-.472-.351-.924-.822-1.021-.395-.072-.798-.043-1.195-.036-20.168.013-40.337.002-60.504.006-.479-.005-.97-.058-1.438.055z" fill="#C8CFD1"/><path d="M204.57 104.793l26.68-.001c.897.056 1.798-.08 2.693.021.576.05 1.012.624.976 1.179-.084.43-.423.821-.856.93-.44.073-.887.017-1.329.014-9.661.016-19.322-.01-28.982.013-.459.002-.928-.217-1.113-.65-.341-.548.074-1.248.628-1.459.423-.117.869-.047 1.303-.047z" fill="#C8CFD1"/><path d="M256.237 63.487c1.371.056 3.135-.054 4.504.048.88.049 1.109.68 1.109 1.152 0 .472-.447.834-1.109.944-.672.072-32.54-.023-47.32 0-.702 0-1.171-.424-1.171-1.07 0-.647.323-.816 1.17-1.026.648-.118 29.208-.047 42.817-.048z" fill="#EEE"/><path d="M242.083 104.872c1.367-.192 2.753-.021 4.13-.081 3.011 0 6.023.01 9.035-.007.499-.012.994.268 1.158.75.259.537-.16 1.157-.673 1.357-.423.12-.87.049-1.303.049-4-.008-8 .019-12.002-.013-.598.064-1.075-.499-1.062-1.06-.012-.436.278-.888.717-.995zM203.27 109.14c1.184-.213 2.395-.01 3.59-.083 7.19.014 14.382-.016 21.571.015.859-.09 1.36 1.036.875 1.676-.302.475-.926.444-1.42.461-6.83-.002-13.656-.005-20.485.002-1.217-.043-2.434.05-3.65-.019-.288-.027-.602-.04-.844-.215-.587-.493-.428-1.64.364-1.837zM242.079 109.107c.422-.118.87-.047 1.302-.047 2.246.013 4.494-.03 6.74.021.838.004 1.222 1.162.69 1.74-.321.411-.897.363-1.364.388-2.25.01-4.499-.024-6.748.015-.496.015-1.043-.172-1.248-.657-.34-.55.073-1.251.628-1.46zM203.258 113.381c1.6-.128 3.212-.016 4.816-.058 7.009.012 14.017-.004 21.024.006.371.023.818-.05 1.107.239.45.397.498 1.167.06 1.59-.335.345-.862.289-1.301.318-8.132-.005-16.263.001-24.394-.004-.546-.01-1.184.13-1.635-.257-.625-.466-.497-1.667.323-1.834zM242.083 113.407c.87-.178 1.765-.063 2.646-.072 2.338-.035 4.676.024 7.013-.028.401.009.865.026 1.159.34.24.261.427.637.32.997-.146.453-.574.845-1.074.841-2.022-.025-4.045-.005-6.068-.01-1.332-.055-2.674.109-3.997-.078-.968-.174-.936-1.78.001-1.99z" fill="#C8CFD1"/><path d="M197.883 63.259c.703-.259 1.593.36 1.419 1.13-.04.856-1.274 1.282-1.838.64-.534-.522-.33-1.564.419-1.77zM202.191 63.239c.664-.282 1.462.334 1.433 1.03.048.538-.398 1.056-.95 1.06-.626.082-1.221-.446-1.24-1.061.012-.453.34-.864.757-1.03zM206.508 63.257c.622-.214 1.417.187 1.415.888.133.762-.7 1.394-1.417 1.132-.966-.214-.939-1.78.002-2.02z" fill-opacity=".54" fill="#363636"/><path d="M197.894 68.606c.469-.113.96-.06 1.438-.054 20.167-.004 40.336.006 60.504-.007.397-.007.8-.036 1.195.036.47.097.822.55.822 1.021-.005 16.712 0 33.426-.002 50.139.004.472.06.957-.056 1.421-.12.435-.564.71-1.006.71-20.849-.003-41.7-.004-62.548 0-.568.005-1.071-.491-1.066-1.054.008-16.712.002-33.425.004-50.138-.017-.718-.183-1.806.715-2.074zm5.39 4.263c-.477.15-.763.648-.726 1.13.01 2.451-.01 4.903.01 7.354-.028.57.495 1.065 1.064 1.05 2.338.025 4.678-.003 7.017.013.444-.006.968.038 1.3-.32.323-.291.323-.75.32-1.148-.004-2.226-.005-4.451.001-6.676 0-.4 0-.856-.32-1.15-.255-.29-.662-.321-1.023-.314-2.388 0-4.776.004-7.163-.002-.163 0-.323.02-.48.063zm11.86.003a1.043 1.043 0 0 0-.716.996c-.026 2.36.01 4.72-.016 7.08.004.37-.006.789.263 1.082.223.282.595.39.947.382 4.95-.003 9.899.004 14.847-.003.613.064 1.217-.433 1.196-1.057.026-2.36-.01-4.72.016-7.08-.006-.37.005-.787-.262-1.08-.225-.284-.597-.395-.948-.384-4.859 0-9.716.002-14.573 0-.252.005-.51-.007-.754.064zm19.31.042c-.663.247-.64 1.05-.644 1.63.038 1.512-.005 3.022.022 4.533.012.837-.088 1.681.045 2.512a.975.975 0 0 0 1.02.81c3.634.04 7.27-.006 10.904.023.151.73.386 1.444.673 2.134-.666-.022-1.334-.038-1.999.005-.586.033-.998.613-.944 1.172-.004 2.407-.003 4.815 0 7.221-.062.604.434 1.214 1.068 1.183 3.555.019 7.11.001 10.666.01.614.057 1.215-.437 1.198-1.062.015-2.45.005-4.901.004-7.352.042-.516-.287-1.065-.826-1.155-.69-.078-1.387-.012-2.078-.053.276-.7.52-1.417.667-2.156.591.027 1.246.157 1.793-.133.405-.235.444-.735.444-1.15.019-2.362-.012-4.725.013-7.088.033-.48-.257-.98-.736-1.121-.6-.152-1.226-.064-1.838-.065-5.749-.01-11.5-.002-17.25-.004-.732.006-1.488-.091-2.202.106zm-31.168 11.694c-.488.134-.752.646-.721 1.125-.018 2.316.012 4.632-.014 6.95.004.397.006.857.325 1.149.26.28.662.32 1.023.317 3.283-.01 6.567-.001 9.85-.004.666-.008 1.338.047 2-.041.537-.088.864-.636.827-1.15.016-2.181-.012-4.361.011-6.542-.014-.416.035-.851-.11-1.248-.174-.431-.65-.65-1.102-.62-3.733-.008-7.466.005-11.199-.006-.297.006-.6-.006-.89.07zm16.171.009c-.443.105-.708.553-.704.987-.073 1.466.014 2.937-.029 4.406.048 1.024-.037 2.05.011 3.074.004.562.488 1.073 1.067 1.065 5.573-.004 11.147-.003 16.72-.001 1.34-.047 2.687.085 4.022-.055.551-.065.85-.632.821-1.139.046-2.316-.023-4.634.03-6.95-.006-.427-.038-.923-.403-1.211-.452-.39-1.096-.235-1.64-.252H223.45c-1.33.05-2.673-.105-3.994.076zm-16.173 14.917c-.544.174-.88.824-.666 1.358.154.474.657.752 1.146.722 3.51-.006 7.023.002 10.533-.005.49.041.999-.239 1.147-.716.25-.655-.299-1.439-1.012-1.412-3.327-.013-6.656 0-9.983-.007-.389.006-.786-.04-1.165.06zm38.811.003c-.469.147-.78.648-.715 1.13.052.517.528.96 1.063.937 2.837.016 5.674.006 8.512.005.571.055 1.14-.367 1.194-.943.089-.61-.435-1.21-1.062-1.182-2.7-.022-5.399 0-8.097-.01-.299.006-.605-.017-.895.063zm-38.813 5.313c-.554.21-.97.91-.628 1.459.186.433.654.652 1.113.65 9.66-.022 19.321.003 28.982-.013.442.003.89.059 1.33-.013.432-.11.771-.501.855-.93.036-.555-.4-1.13-.976-1.18-.895-.1-1.796.035-2.692-.02h-26.681c-.434 0-.88-.07-1.303.047zm38.816.032c-.44.107-.729.559-.717.995-.013.561.464 1.124 1.062 1.06 4.001.032 8.002.005 12.002.013.433 0 .88.07 1.303-.05.513-.2.932-.82.673-1.356-.164-.482-.659-.762-1.158-.75-3.012.018-6.024.007-9.036.007-1.376.06-2.762-.11-4.129.081zm-38.812 4.268c-.791.198-.95 1.344-.364 1.838.242.174.556.188.843.214 1.217.07 2.434-.024 3.651.019 6.829-.007 13.656-.004 20.485-.001.494-.018 1.118.013 1.42-.462.485-.64-.016-1.765-.875-1.676-7.19-.03-14.38-.001-21.57-.014-1.196.073-2.407-.131-3.59.082zm38.808-.033c-.555.21-.969.91-.628 1.46.205.485.752.672 1.248.657 2.25-.038 4.498-.005 6.748-.014.467-.026 1.043.022 1.365-.388.53-.58.147-1.736-.69-1.74-2.247-.052-4.495-.008-6.741-.022-.433 0-.88-.07-1.302.047zm-38.82 4.275c-.821.166-.95 1.368-.324 1.833.451.388 1.089.248 1.635.257 8.131.006 16.262-.001 24.394.004.439-.03.966.027 1.3-.318.44-.423.391-1.192-.06-1.59-.288-.29-.735-.216-1.106-.238-7.007-.011-14.015.005-21.024-.007-1.604.043-3.216-.07-4.816.059zm38.824.025c-.937.21-.969 1.816-.001 1.99 1.323.187 2.665.023 3.997.078 2.023.005 4.046-.015 6.068.01.5.005.928-.387 1.074-.84.107-.36-.08-.737-.32-.998-.294-.313-.758-.33-1.16-.34-2.336.052-4.674-.007-7.012.028-.88.01-1.777-.105-2.646.072z" fill="#FFF"/><path d="M203.27 72.859c.156-.043.316-.063.479-.063 2.387.005 4.775.001 7.163.001.36-.006.768.026 1.023.315.32.293.32.75.32 1.15-.006 2.225-.005 4.45-.001 6.675.003.399.003.858-.32 1.15-.332.357-.856.313-1.3.318-2.34-.016-4.679.012-7.017-.012-.569.015-1.092-.481-1.063-1.05-.02-2.451 0-4.903-.011-7.354-.037-.482.25-.981.726-1.13z" fill="#30C882"/><path d="M215.883 72.797c4.857.003 9.714.002 14.572 0 .352-.01.724.1.95.384.266.294.255.711.26 1.08-.025 2.36.011 4.722-.015 7.08.021.624-.583 1.122-1.196 1.058-4.948.006-9.897 0-14.847.002-.352.01-.724-.1-.947-.381-.269-.293-.26-.712-.263-1.081.025-2.36-.01-4.722.016-7.082-.008-.44.29-.862.716-.996.244-.07.502-.058.754-.064z" fill="#7ADD99"/><path d="M243.516 85.723c-.054-.559.358-1.139.944-1.172.665-.043 1.333-.027 1.999-.006.685 1.648 1.558 3.216 2.538 4.708.211.362.591.563.993.652a1.358 1.358 0 0 0 1.002-.644c.987-1.505 1.866-3.085 2.556-4.746.69.041 1.388-.026 2.078.053.539.09.868.639.826 1.155.001 2.45.01 4.902-.004 7.352.017.625-.584 1.118-1.198 1.061-3.555-.008-7.11.01-10.666-.01-.634.031-1.13-.578-1.068-1.182-.003-2.407-.004-4.815 0-7.221z" fill="#F8F8F8"/><path d="M234.44 72.904c.713-.197 1.47-.1 2.201-.107 5.75.003 11.501-.005 17.25.004.612.002 1.237-.086 1.838.066.479.141.769.641.736 1.121-.025 2.363.006 4.725-.013 7.088 0 .415-.04.915-.444 1.15-.547.29-1.202.16-1.793.133.105-.65.15-1.327-.018-1.97-.306-1.281-1.215-2.414-2.44-2.946-1.646-.762-3.747-.335-4.954 1.008-.995 1.044-1.332 2.578-1.017 3.961-3.634-.03-7.27.017-10.905-.024a.975.975 0 0 1-1.019-.81c-.133-.83-.033-1.674-.045-2.511-.027-1.511.016-3.022-.022-4.532.004-.58-.019-1.384.644-1.631zM219.442 84.607c1.321-.182 2.663-.026 3.994-.076 5.3-.002 10.6 0 15.9 0 .545.017 1.19-.138 1.64.252.366.288.398.784.404 1.21-.053 2.316.016 4.635-.03 6.951.03.507-.27 1.073-.82 1.139-1.336.14-2.683.008-4.022.054-5.574-.001-11.148-.002-16.72.002-.58.008-1.064-.503-1.068-1.066-.048-1.022.036-2.049-.01-3.073.042-1.47-.045-2.94.028-4.407-.004-.433.261-.881.704-.986z" fill="#90B1FF"/><path d="M248.834 75.094c.583-.397 1.312-.475 1.971-.694.997.568 2.118 1.44 1.891 2.72-.082 1.247-1.297 1.863-2.365 2.195-.561-.242-1.17-.427-1.64-.827-.968-.882-.883-2.59.143-3.394z" fill="#FDFDFD"/><path d="M244.401 72.37c2.09-2.3 5.727-3.031 8.578-1.727 2.118.912 3.692 2.854 4.222 5.05-.744-1.282-2.195-2.1-3.716-1.926-1.29-.016-2.298.818-3.22 1.59-.522.174-1.1.235-1.562.55-.814.638-.882 1.993-.115 2.692.374.318.857.464 1.302.656.051 4.25-.012 8.497.028 12.745-.695-.153-1.353-.498-1.72-1.117-1.695-2.557-3.207-5.244-4.392-8.068a19.992 19.992 0 0 1-1.164-3.656c-.546-2.37.038-5 1.76-6.788zm9.084 1.397c1.52-.174 2.972.644 3.716 1.926.291 1.101.212 2.262.03 3.375-.254 1.265-.676 2.495-1.154 3.694-1.195 2.847-2.716 5.555-4.423 8.134-.371.617-1.015 1.013-1.736 1.104-.04-4.248.023-8.495-.028-12.745.847-.263 1.81-.752 1.876-1.741.18-1.015-.71-1.707-1.5-2.157.921-.772 1.929-1.606 3.219-1.59z" fill="#F8A56F"/><path d="M203.27 84.597c.29-.076.594-.064.891-.069 3.733.01 7.466-.003 11.2.007.45-.031.927.188 1.1.618.146.398.097.832.11 1.248-.022 2.182.006 4.362-.01 6.543.037.513-.29 1.061-.827 1.15-.662.087-1.334.033-2 .04-3.283.003-6.567-.005-9.85.005-.361.002-.763-.038-1.023-.318-.32-.292-.32-.752-.325-1.149.026-2.317-.004-4.633.014-6.95-.031-.478.233-.99.72-1.125z" fill="#6687FD"/><path d="M203.27 99.524c.378-.1.775-.055 1.164-.06 3.327.007 6.656-.007 9.983.007.713-.027 1.263.757 1.012 1.412-.148.477-.658.757-1.147.716-3.51.006-7.022-.002-10.533.005-.49.03-.992-.248-1.146-.723-.214-.533.122-1.184.666-1.357zM242.08 99.527c.29-.08.596-.058.895-.063 2.698.01 5.398-.012 8.097.01.627-.029 1.15.573 1.062 1.182-.054.576-.623.997-1.194.943-2.838.001-5.675.01-8.512-.006-.535.023-1.01-.42-1.063-.937a1.064 1.064 0 0 1 .715-1.13z" fill-opacity=".54" fill="#363636"/><text font-family="GothamPro-Light, Gotham Pro" font-size="24" font-weight="300" fill="#000" transform="translate(78 60)"><tspan x="77" y="45">+</tspan></text><g transform="translate(78 68)"><rect fill="url(#a)" width="48" height="48" rx="6"/><path fill="#222" d="M25.209 31.714V17.211h5.194v-2.648H17.006v2.648H22.2v14.503z"/></g></g></svg>