<svg xmlns="http://www.w3.org/2000/svg" width="276" height="297" viewBox="0 0 276 297">
    <defs>
        <linearGradient id="a" x1="12.957%" y1="80.245%" y2="15.021%">
            <stop offset="0%" stop-color="#F8A56F"/>
            <stop offset="100%" stop-color="#F26C51"/>
        </linearGradient>
    </defs>
    <g fill="none" fill-rule="evenodd">
        <path fill="url(#a)" stroke="#FFF" stroke-width=".6" d="M19.263 38.052l-2.073-7.771c-1.66 3.18-4.516 5.886-8.15 7.608a1.286 1.286 0 0 1-1.71-.61 1.281 1.281 0 0 1 .608-1.707c4.3-2.036 7.31-5.626 8.094-9.635l-.97-3.638c-1.662 3.174-4.514 5.875-8.144 7.594a1.286 1.286 0 0 1-1.71-.61 1.281 1.281 0 0 1 .61-1.707c4.288-2.031 7.296-5.611 8.088-9.61l-.974-3.648c-1.662 3.168-4.511 5.862-8.135 7.58a1.286 1.286 0 0 1-1.71-.61 1.282 1.282 0 0 1 .609-1.708c4.28-2.028 7.284-5.596 8.083-9.584l-.976-3.66c-1.663 3.162-4.51 5.85-8.128 7.565a1.286 1.286 0 0 1-1.71-.609 1.282 1.282 0 0 1 .61-1.708C5.885 9.543 8.9 5.94 9.674 1.918c.01-.223.08-.443.204-.635a1.284 1.284 0 0 1 2.192.026c2.668 3.098 7.069 4.729 11.812 4.373a1.282 1.282 0 0 1 .193 2.556 19.59 19.59 0 0 1-1.472.056c-3.438 0-6.676-.914-9.31-2.588l.986 3.7c2.676 3.031 7.03 4.622 11.724 4.273a1.283 1.283 0 0 1 .193 2.556c-.494.037-.984.056-1.47.056-3.433 0-6.666-.912-9.299-2.58l.99 3.71c2.677 3.019 7.024 4.603 11.707 4.254a1.281 1.281 0 1 1 .193 2.556c-.493.037-.984.056-1.47.056-3.427 0-6.654-.909-9.284-2.572l.992 3.72c2.679 3.008 7.017 4.587 11.69 4.236a1.283 1.283 0 0 1 .193 2.556c-.493.037-.984.056-1.47.056-3.42 0-6.643-.905-9.27-2.563l2.024 7.59c3.331 3.866 8.813 5.903 14.724 5.461a1.283 1.283 0 0 1 .193 2.557c-.598.045-1.193.067-1.782.067-4.458 0-8.635-1.27-11.932-3.577l4.5 16.874a1.281 1.281 0 0 1-1.24 1.613c-.568 0-1.087-.38-1.24-.953l-4.492-16.841c-1.953 4.097-5.532 7.597-10.154 9.786a1.286 1.286 0 0 1-1.71-.61 1.281 1.281 0 0 1 .61-1.707c5.32-2.52 9.058-6.96 10.064-11.928z" transform="rotate(15 -635.755 107.838)"/>
        <path fill="url(#a)" stroke="#FFF" stroke-width=".6" d="M14.09 31.925l1.54-6.261c-2.29 1.42-5.086 2.197-8.052 2.197-.331 0-.664-.01-.999-.03a1.283 1.283 0 0 1-1.206-1.354 1.29 1.29 0 0 1 1.356-1.206c4.018.236 7.72-1.198 9.943-3.841l.66-2.681c-2.289 1.414-5.08 2.19-8.041 2.19-.331 0-.664-.01-.999-.03a1.283 1.283 0 0 1-1.206-1.355 1.292 1.292 0 0 1 1.356-1.205c4.014.234 7.705-1.193 9.929-3.825l.661-2.69c-2.285 1.41-5.072 2.181-8.028 2.181-.331 0-.664-.009-.999-.029a1.283 1.283 0 0 1-1.207-1.354 1.29 1.29 0 0 1 1.357-1.206c4.001.233 7.69-1.186 9.915-3.809l.664-2.699c-2.284 1.406-5.066 2.175-8.017 2.175-.33 0-.664-.01-.998-.029a1.283 1.283 0 0 1-1.207-1.355 1.293 1.293 0 0 1 1.356-1.205c4.044.237 7.76-1.213 9.978-3.884.106-.17.252-.314.427-.419a1.283 1.283 0 0 1 1.957 1.032c.725 3.384 3.333 6.384 7.013 8.053a1.283 1.283 0 1 1-1.061 2.334c-3.018-1.368-5.442-3.512-6.961-6.065l-.673 2.735c.764 3.329 3.352 6.272 6.982 7.919a1.283 1.283 0 1 1-1.061 2.334c-3.013-1.366-5.435-3.506-6.954-6.054l-.676 2.745c.77 3.32 3.355 6.254 6.978 7.897a1.283 1.283 0 1 1-1.061 2.334c-3.008-1.363-5.427-3.499-6.947-6.041l-.678 2.754c.777 3.311 3.358 6.236 6.972 7.875a1.283 1.283 0 1 1-1.061 2.334c-3.003-1.361-5.419-3.492-6.94-6.029L16.6 32.465c.914 4.231 4.17 7.977 8.757 10.057a1.283 1.283 0 1 1-1.061 2.334c-3.905-1.77-6.986-4.614-8.78-7.985l-3.483 14.16a1.284 1.284 0 0 1-2.493-.613l3.477-14.134C10.161 38.215 6.58 39.28 2.764 39.28c-.4 0-.804-.012-1.208-.035A1.283 1.283 0 0 1 .348 37.89a1.293 1.293 0 0 1 1.357-1.205c4.993.292 9.597-1.483 12.385-4.76z" transform="rotate(-13 1062.917 -573.246)"/>
        <path fill="url(#a)" stroke="#FFF" stroke-width=".6" d="M20.947 56.658l3.066 17.572a1.284 1.284 0 0 0 2.53-.44l-3.224-18.476c4.555 4.414 11.138 7.004 18.338 7.085h.014a1.283 1.283 0 0 0 .014-2.564c-7.867-.089-14.885-3.437-18.824-8.969a1.286 1.286 0 0 0-.403-.485l-1.052-6.03c4.005 3.571 9.579 5.653 15.647 5.72h.014c.702 0 1.276-.564 1.284-1.267a1.283 1.283 0 0 0-1.27-1.296c-6.87-.078-12.998-2.996-16.438-7.818a1.29 1.29 0 0 0-.073-.129l-.962-5.518c3.255 2.641 7.61 4.168 12.323 4.222h.015c.702 0 1.275-.565 1.283-1.268a1.283 1.283 0 0 0-1.27-1.297c-5.476-.06-10.362-2.36-13.138-6.168l-.84-4.811c3.255 2.64 7.609 4.167 12.322 4.22h.014a1.283 1.283 0 0 0 .014-2.564c-5.475-.061-10.36-2.36-13.136-6.165l-.84-4.813c3.254 2.64 7.607 4.165 12.319 4.218h.014a1.283 1.283 0 0 0 .014-2.564c-5.473-.06-10.357-2.358-13.134-6.162l-.84-4.813c3.255 2.638 7.606 4.163 12.317 4.216h.015a1.283 1.283 0 0 0 .014-2.565c-5.51-.061-10.423-2.389-13.19-6.238a1.283 1.283 0 0 0-2.206-.207c-.134.18-.217.39-.244.608-1.291 4.57-5.13 8.433-10.304 10.357a1.282 1.282 0 1 0 .897 2.403c4.421-1.645 8.003-4.558 10.17-8.148l.839 4.807c-1.318 4.528-5.139 8.35-10.277 10.262a1.282 1.282 0 1 0 .896 2.403c4.421-1.645 8.002-4.558 10.169-8.146l.839 4.809c-1.32 4.526-5.139 8.347-10.276 10.258a1.281 1.281 0 1 0 .897 2.403c4.42-1.645 8-4.557 10.167-8.144l.84 4.81C14.97 34.49 11.15 38.31 6.015 40.22a1.281 1.281 0 1 0 .897 2.403c4.418-1.644 7.998-4.554 10.165-8.141l1.033 5.922c-1.68 5.575-6.403 10.271-12.734 12.627a1.28 1.28 0 0 0 .449 2.484c.149 0 .3-.027.448-.081 5.583-2.078 10.06-5.82 12.642-10.419l1.238 7.1c-2.044 6.177-7.36 11.356-14.422 13.983a1.282 1.282 0 1 0 .897 2.403c6.339-2.358 11.413-6.616 14.318-11.843z" transform="rotate(10 -1205.362 562.939)"/>
        <path fill="url(#a)" stroke="#FFF" stroke-width=".6" d="M13.178 40.473l-.733 11.236a1.283 1.283 0 0 0 2.562.166l.77-11.785c2.447 3.312 6.245 5.807 10.741 6.948a1.284 1.284 0 0 0 1.56-.927 1.28 1.28 0 0 0-.928-1.558c-5.133-1.303-9.192-4.588-10.897-8.809a1.286 1.286 0 0 0-.168-.395l.197-3.006c2.179 2.692 5.39 4.715 9.151 5.67a1.283 1.283 0 0 0 .632-2.485c-4.467-1.134-7.998-3.988-9.484-7.654a1.288 1.288 0 0 0-.006-.025l.182-2.798c1.79 1.984 4.28 3.471 7.16 4.201a1.284 1.284 0 0 0 1.56-.927 1.28 1.28 0 0 0-.929-1.557c-3.511-.891-6.298-3.108-7.514-5.959l.149-2.281c1.789 1.983 4.28 3.47 7.158 4.199a1.283 1.283 0 0 0 .632-2.485c-3.511-.89-6.297-3.105-7.514-5.955l.15-2.283c1.788 1.982 4.278 3.468 7.156 4.198a1.283 1.283 0 0 0 .632-2.485c-3.51-.89-6.295-3.104-7.512-5.952l.149-2.285c1.789 1.982 4.278 3.467 7.155 4.197a1.283 1.283 0 0 0 .632-2.485c-3.555-.902-6.367-3.162-7.559-6.065a1.284 1.284 0 0 0-1.166-.985 1.268 1.268 0 0 0-.99.368 1.284 1.284 0 0 0-.293.434C14.26 3.68 11.172 5.568 7.52 6.005a1.282 1.282 0 1 0 .305 2.546c2.952-.353 5.617-1.508 7.649-3.246l-.149 2.277c-1.573 2.676-4.627 4.518-8.23 4.948a1.283 1.283 0 1 0 .306 2.546c2.951-.352 5.615-1.507 7.647-3.245l-.149 2.278c-1.573 2.675-4.626 4.516-8.227 4.946a1.283 1.283 0 1 0 .304 2.546c2.951-.352 5.615-1.506 7.646-3.243l-.149 2.28c-1.574 2.672-4.626 4.512-8.225 4.943a1.283 1.283 0 1 0 .304 2.546c2.95-.353 5.613-1.506 7.644-3.242l-.2 3.055c-1.985 3.321-5.788 5.605-10.263 6.14a1.282 1.282 0 1 0 .305 2.545c3.785-.452 7.177-1.995 9.674-4.313l-.25 3.82c-2.327 3.668-6.606 6.18-11.619 6.78a1.283 1.283 0 1 0 .306 2.546c4.333-.518 8.208-2.304 11.03-4.985z" transform="rotate(-3 4119.518 -2133.452)"/>
        <path fill="url(#a)" stroke="#FFF" stroke-width=".6" d="M8.469 14.326l-.839-3.503c-1.035 1.032-2.415 1.915-4.02 2.54a1.281 1.281 0 1 1-.932-2.39c2.018-.785 3.582-2.068 4.174-3.403l-.736-3.077C5.082 5.521 3.706 6.4 2.105 7.023a1.281 1.281 0 1 1-.931-2.39c2.115-.822 3.731-2.193 4.253-3.596.044-.182.128-.355.252-.507A1.287 1.287 0 0 1 7.672.519c1.1 1.013 3.154 1.508 5.405 1.297a1.281 1.281 0 1 1 .242 2.552c-.425.04-.845.06-1.258.06-1.238 0-2.407-.178-3.444-.516l.742 3.102c1.136.908 3.091 1.341 5.223 1.14a1.281 1.281 0 1 1 .241 2.553c-.425.04-.845.06-1.257.06-1.233 0-2.398-.176-3.431-.511l.823 3.44c1.433 1.226 3.97 1.82 6.732 1.56a1.282 1.282 0 0 1 .241 2.553c-.513.048-1.02.072-1.518.072-1.696 0-3.283-.277-4.645-.8l1.572 6.57a1.282 1.282 0 0 1-1.25 1.581c-.58 0-1.106-.396-1.248-.985l-1.57-6.564c-1.27 1.387-3.055 2.577-5.168 3.399a1.285 1.285 0 0 1-1.662-.73c-.257-.66.07-1.403.73-1.66 2.564-.996 4.552-2.645 5.297-4.366z" transform="rotate(15 -910.973 298.107)"/>
        <path fill="url(#a)" stroke="#FFF" stroke-width=".692" d="M7.374 11.866l.73-2.6a9.696 9.696 0 0 1-2.27.26c-.506 0-1.027-.036-1.555-.109a1.282 1.282 0 1 1 .35-2.54c1.757.242 3.386-.04 4.353-.738l.628-2.236a9.704 9.704 0 0 1-2.259.256c-.507 0-1.027-.035-1.555-.108a1.282 1.282 0 1 1 .35-2.54c1.87.257 3.589-.078 4.526-.873.139-.147.315-.264.518-.333a1.283 1.283 0 0 1 1.684.968c.389 1.162 1.677 2.339 3.397 3.093a1.282 1.282 0 1 1-1.032 2.348c-1.247-.547-2.325-1.273-3.16-2.105l-.634 2.257c.47 1.087 1.7 2.16 3.309 2.866a1.282 1.282 0 1 1-1.032 2.348c-1.243-.545-2.318-1.268-3.152-2.097l-.716 2.548c.563 1.447 2.162 2.881 4.265 3.803a1.281 1.281 0 1 1-1.032 2.348c-1.682-.737-3.107-1.745-4.146-2.896l-1.47 5.237a1.284 1.284 0 0 1-2.473-.692l1.47-5.234c-.966.282-2.036.43-3.165.43-.61 0-1.235-.044-1.871-.131a1.281 1.281 0 1 1 .349-2.54c2.256.31 4.352-.069 5.593-.99z" transform="rotate(-14 1148.066 -824.064)"/>
        <path fill="url(#a)" stroke="#FFF" stroke-width=".6" d="M14.676 29.7l.42-1.974c1.538 2.38 3.917 4.343 6.834 5.553a1.281 1.281 0 0 0 1.677-.693 1.28 1.28 0 0 0-.693-1.675c-3.548-1.471-6.12-4.241-6.911-7.433l.396-1.858c1.277 1.752 3.118 3.193 5.33 4.11a1.281 1.281 0 0 0 1.678-.692 1.28 1.28 0 0 0-.693-1.676c-2.77-1.149-4.79-3.285-5.46-5.753l.303-1.419c1.277 1.75 3.118 3.191 5.33 4.108a1.281 1.281 0 0 0 1.677-.692 1.28 1.28 0 0 0-.693-1.676c-2.768-1.148-4.788-3.283-5.459-5.75l.303-1.421c1.278 1.75 3.118 3.19 5.33 4.107a1.281 1.281 0 0 0 1.676-.692 1.281 1.281 0 0 0-.693-1.676c-2.767-1.148-4.787-3.282-5.458-5.749l.304-1.42c1.277 1.749 3.117 3.188 5.328 4.105a1.281 1.281 0 0 0 1.677-.693 1.28 1.28 0 0 0-.693-1.675c-2.814-1.168-4.855-3.355-5.491-5.874A1.284 1.284 0 0 0 18.74.226c-.18.108-.328.259-.434.435-1.605 2.055-4.363 3.23-7.425 3.152a1.27 1.27 0 0 0-1.317 1.25 1.283 1.283 0 0 0 1.25 1.314c.119.003.236.004.354.004 2.266 0 4.406-.565 6.195-1.593l-.301 1.414C15.444 8.19 12.716 9.32 9.723 9.246a1.283 1.283 0 0 0-.066 2.563c.118.003.235.005.352.005 2.266 0 4.407-.565 6.196-1.593l-.302 1.415c-1.617 1.987-4.342 3.125-7.337 3.042A1.283 1.283 0 0 0 8.5 17.24c.117.003.235.005.352.005 2.265 0 4.405-.565 6.194-1.593l-.302 1.418c-1.617 1.985-4.324 3.12-7.335 3.039-.718-.037-1.298.54-1.317 1.249a1.283 1.283 0 0 0 1.25 1.314c.119.003.236.005.354.005 2.264 0 4.403-.564 6.191-1.591l-.44 2.062c-2.041 2.48-5.44 3.89-9.195 3.796a1.27 1.27 0 0 0-1.316 1.249 1.283 1.283 0 0 0 1.25 1.314c.142.004.283.006.424.006 2.943 0 5.708-.79 7.953-2.218l-.57 2.669c-2.37 2.732-6.206 4.285-10.412 4.172h-.034a1.283 1.283 0 0 0-.032 2.563c.16.004.319.006.477.006 3.388 0 6.566-.93 9.12-2.607L9.218 42.98a1.283 1.283 0 0 0 2.512.534l1.985-9.308c1.705 2.92 4.517 5.337 8.019 6.79a1.281 1.281 0 0 0 1.677-.693 1.28 1.28 0 0 0-.693-1.676c-4.093-1.697-7.057-4.9-7.96-8.592a1.286 1.286 0 0 0-.082-.337z" transform="rotate(-11 1031.672 -996.404)"/>
        <path fill="url(#a)" stroke="#FFF" stroke-width=".6" d="M9.054 14.865l-.838-3.503c-1.035 1.033-2.415 1.916-4.02 2.54a1.285 1.285 0 0 1-1.663-.73c-.257-.66.07-1.402.73-1.66 2.019-.784 3.582-2.067 4.175-3.403l-.736-3.076C5.667 6.06 4.292 6.94 2.69 7.563a1.285 1.285 0 0 1-1.663-.73c-.257-.66.07-1.403.73-1.66 2.117-.823 3.735-2.194 4.255-3.599.048-.198.144-.386.287-.547a1.287 1.287 0 0 1 1.956.03c1.1 1.014 3.152 1.51 5.407 1.299a1.282 1.282 0 0 1 .241 2.552c-.424.04-.844.06-1.256.06-1.238 0-2.408-.178-3.446-.516l.743 3.102c1.134.908 3.089 1.34 5.223 1.141a1.282 1.282 0 0 1 .241 2.552c-.425.04-.845.06-1.256.06-1.234 0-2.399-.176-3.433-.511l.823 3.44c1.433 1.226 3.97 1.82 6.732 1.56a1.282 1.282 0 1 1 .242 2.552c-.513.049-1.02.073-1.518.073-1.697 0-3.284-.278-4.646-.8l1.572 6.57a1.282 1.282 0 0 1-1.25 1.58c-.58 0-1.106-.395-1.247-.984l-1.57-6.564C8.588 19.61 6.803 20.8 4.69 21.622a1.285 1.285 0 0 1-1.662-.73c-.258-.66.07-1.403.73-1.66 2.563-.996 4.551-2.645 5.296-4.367z" transform="rotate(14 -621.117 264.303)"/>
        <path fill="url(#a)" stroke="#FFF" d="M209.665 56.883c4.113.385 7.808.58 10.936.58a55.52 55.52 0 0 0 4.208-.144c3.885-.298 6.265-1.043 7.315-2.315 11.41 1.313 21.501 1.985 29.66 1.985 2.336 0 4.513-.055 6.517-.166 10.31-.57 15.684-2.56 16.431-6.083 1.063-5.013-8.106-11.279-27.254-18.625-5.716-2.193-12.077-4.382-18.94-6.527-.227-1.897-2.66-4.763-14.071-9.14a142.577 142.577 0 0 0-5.172-1.865c-.334-2.269-4.422-4.148-8.49-5.708-5.264-2.02-12.393-4.027-20.073-5.651-7.68-1.625-15.01-2.677-20.643-2.962-4.351-.22-8.85-.159-10.078 1.78a142.68 142.68 0 0 0-5.485-.39c-12.212-.619-15.597 1.016-16.574 2.659-7.144-.818-13.848-1.393-19.962-1.703-20.487-1.039-31.412.978-32.476 5.99-1.849 8.717 27.814 19.412 46.313 25.185.507 1.925 3.763 5.482 20.163 10.943.457.152.938.034 1.27-.267 3.788-.718 13.74-.05 26.777 2.708 12.33 2.607 23.157 6.341 27.12 8.696.152.47.57.829 1.093.882l.173.018a1.28 1.28 0 0 0 1.242.12zm-.245-2.598c16.693 1.614 20.628-.355 20.762-.985.097-.459-1.728-3.012-12.434-7.119-8.914-3.42-21.021-6.826-34.093-9.59-13.071-2.766-25.522-4.555-35.058-5.038-11.453-.58-14.16 1.014-14.256 1.473-.13.607 2.545 3.9 17.818 9.052 4.419-1.126 15.683-.112 28.41 2.58 12.634 2.672 24.895 6.788 28.851 9.627zM132.418 31.28c-13.864-4.333-25.322-8.736-33.185-12.752-11.051-5.645-11.372-8.622-11.207-9.4.148-.696 1.219-2.428 7.96-3.456 5.263-.803 12.623-.973 21.874-.504 19.138.97 44.11 4.556 70.317 10.1 26.208 5.544 50.492 12.376 68.38 19.24 19.79 7.592 26.193 13.203 25.664 15.7-.165.777-1.667 3.368-14.061 4.054-8.819.487-21.08-.128-35.513-1.78-.552-1.892-3.427-4.647-13.979-8.696-9.035-3.466-21.28-6.913-34.48-9.705-13.2-2.793-25.794-4.6-35.46-5.09-11.292-.571-15.038.783-16.31 2.289zm102.27-6.876c-1.55-1.23-4.776-3.122-11.141-5.564-8.914-3.42-21.022-6.826-34.093-9.59-13.071-2.766-25.522-4.555-35.058-5.039-6.813-.344-10.53.08-12.445.576 14.361 1.785 30.322 4.496 46.758 7.973 16.436 3.477 32.126 7.46 45.978 11.644zm-21.624-11.817c-4.322-1.987-12.23-4.606-22.864-6.856-7.018-1.484-13.828-2.496-19.174-2.847-1.8-.118-3.244-.15-4.4-.13 7.181.895 15.153 2.25 23.36 3.987 8.249 1.744 16.125 3.745 23.078 5.846z" transform="translate(-10 1)"/>
        <path d="M227.237 27.225c.618-2.916-8.867-7.58-23.444-12.071l4.222.893c.532-2.506-11.802-7.238-27.549-10.57-15.746-3.33-28.942-3.999-29.474-1.493l4.223.894c-15.149-1.798-25.713-1.375-26.332 1.542l3.27.692C100.407 3.139 78.044 3.857 76.77 9.864c-1.229 5.794 17.474 15.036 46.295 23.96-.406 2.636 7.226 6.655 19.332 10.686l19.462 4.158 37.294 8.04c-.067-.06-.145-.122-.222-.184 12.968 1.278 21.79.714 22.486-1.894 29.981 3.514 50.83 2.638 52.06-3.155 1.273-6.007-18.877-15.719-49.51-24.941l3.27.691z"/>
        <path fill="#FFF" d="M196.22 32.48c-.246.766 1.442 2.945 5.408 4.21 3.968 1.264 6.606.462 6.85-.303.246-.765-1.442-2.946-5.408-4.21-3.967-1.264-6.606-.463-6.85.303"/>
        <path fill="#F6F7FB" d="M184.625 186.672l14.319-127.855.192-.908c.532-2.507-11.802-7.239-27.549-10.57-15.746-3.33-28.942-3.999-29.474-1.493l-.192.908-63.31 139.918h106.014z"/>
        <path fill="url(#a)" stroke="#FFF" d="M126.004 20.38c.288.416 1.682 1.333 4.133 1.674 2.451.34 4.042-.162 4.434-.483-.289-.416-1.682-1.333-4.134-1.673-2.45-.341-4.042.161-4.433.482m5.736 4.351c-.633 0-1.292-.046-1.957-.138-4.721-.656-6.61-2.83-6.367-4.572.242-1.742 2.654-3.32 7.375-2.663 1.661.231 3.204.73 4.343 1.405 1.982 1.175 2.12 2.489 2.025 3.167-.095.679-.585 1.905-2.814 2.495-.768.203-1.658.306-2.605.306" transform="translate(-10 1)"/>
        <path fill="#FFF" d="M116.004 21.38c.288.416 1.682 1.333 4.133 1.674 2.451.34 4.042-.162 4.434-.483-.289-.416-1.682-1.333-4.134-1.673-2.45-.341-4.042.161-4.433.482"/>
        <path fill="url(#a)" stroke="#FFF" d="M157.964 26.652c-.615 0-1.243-.035-1.877-.103-5.102-.556-8.719-3.083-8.414-5.878.305-2.795 4.383-4.484 9.484-3.93 2.235.244 4.31.896 5.843 1.836 1.82 1.117 2.733 2.552 2.57 4.042-.162 1.49-1.363 2.695-3.382 3.394-1.218.421-2.675.639-4.224.639M182.279 23.941c-.82 0-1.584.082-2.242.245-1.208.3-1.71.773-1.773 1.088-.063.314.219.944 1.218 1.685 1.13.836 2.816 1.523 4.629 1.885 1.814.362 3.636.375 5 .036 1.207-.3 1.71-.774 1.772-1.088.063-.314-.218-.944-1.218-1.685-1.128-.836-2.816-1.523-4.63-1.885a14.237 14.237 0 0 0-2.756-.281m4.586 7.75a16.76 16.76 0 0 1-3.257-.333c-2.204-.44-4.212-1.27-5.656-2.34-1.716-1.271-2.499-2.78-2.205-4.247.293-1.466 1.597-2.558 3.67-3.073 1.745-.434 3.92-.43 6.122.01 2.204.44 4.212 1.27 5.656 2.34 1.716 1.272 2.5 2.78 2.206 4.246-.293 1.467-1.597 2.559-3.67 3.074-.866.215-1.838.323-2.866.323" transform="translate(-10 1)"/>
        <path fill="#FFF" d="M172.279 24.941c-.82 0-1.584.082-2.242.245-1.208.3-1.71.773-1.773 1.088-.063.314.219.944 1.218 1.685 1.13.836 2.816 1.523 4.629 1.885 1.814.362 3.636.375 5 .036 1.207-.3 1.71-.774 1.772-1.088.063-.314-.218-.944-1.218-1.685-1.128-.836-2.816-1.523-4.63-1.885a14.237 14.237 0 0 0-2.756-.281"/>
        <path fill="url(#a)" stroke="#FFF" d="M232.537 42.294c.227.452 1.477 1.555 3.857 2.237 2.378.68 4.024.407 4.457.144-.228-.452-1.478-1.556-3.857-2.237-2.38-.681-4.025-.407-4.457-.144m6.676 5.254c-1.002 0-2.18-.167-3.527-.553-4.582-1.311-6.147-3.729-5.662-5.42.486-1.691 3.095-2.913 7.678-1.601 4.582 1.312 6.147 3.729 5.661 5.42-.342 1.194-1.744 2.154-4.15 2.154M206.22 31.48c-.246.766 1.442 2.945 5.408 4.21 3.968 1.264 6.606.462 6.85-.303.246-.765-1.442-2.946-5.408-4.21-3.967-1.264-6.606-.463-6.85.303m9.277 7.43c-1.411 0-2.999-.252-4.65-.778-4.888-1.558-7.93-4.753-7.074-7.431.856-2.679 5.188-3.525 10.078-1.967 4.888 1.559 7.93 4.753 7.074 7.432-.567 1.774-2.66 2.744-5.428 2.744" transform="translate(-10 1)"/>
        <path fill="#FFF" d="M222.537 43.294c.227.452 1.477 1.555 3.857 2.237 2.378.68 4.024.407 4.457.144-.228-.452-1.478-1.556-3.857-2.237-2.38-.681-4.025-.407-4.457-.144"/>
        <path fill="#F6F7FB" d="M184.625 187.527c0 10.496-23.732 19.004-53.007 19.004-29.274 0-53.006-8.508-53.006-19.004 0-10.497 23.732-19.005 53.006-19.005 29.275 0 53.007 8.508 53.007 19.005"/>
        <path fill="#FFF" stroke="#FFF" d="M145.235 20.199c-3.132 0-4.935 1.063-5.01 1.75-.087.799 2.001 2.6 6.14 3.05 1.838.2 3.654.05 4.982-.409 1.177-.408 1.636-.927 1.671-1.249.036-.321-.3-.927-1.363-1.58-1.198-.734-2.938-1.27-4.776-1.47a15.239 15.239 0 0 0-1.644-.092"/>
        <path fill="url(#a)" stroke="#F6F7FB" d="M134.154 131.914a1.281 1.281 0 0 1-1.201-1.735l2.463-6.527a1.284 1.284 0 0 1 2.402.904l-2.463 6.528c-.194.514-.682.83-1.201.83M139.044 118.952a1.282 1.282 0 0 1-1.201-1.735l21.55-57.123a1.283 1.283 0 0 1 2.402.905l-21.55 57.123c-.193.513-.682.83-1.201.83M183.246 141.55a1.282 1.282 0 0 1-1.272-1.47l1.027-6.901c.104-.7.756-1.185 1.458-1.08a1.282 1.282 0 0 1 1.081 1.457l-1.026 6.9a1.284 1.284 0 0 1-1.268 1.094M185.283 127.848a1.282 1.282 0 0 1-1.272-1.47l8.98-60.38c.105-.7.758-1.186 1.46-1.08a1.282 1.282 0 0 1 1.08 1.456l-8.98 60.38a1.284 1.284 0 0 1-1.268 1.094M161.263 99.841a1.287 1.287 0 0 1-1.235-1.635L172.3 55.355a1.284 1.284 0 0 1 2.468.705l-12.272 42.851c-.162.563-.676.93-1.234.93M180.22 82.128a1.282 1.282 0 0 1-1.26-1.533l4.051-20.3a1.285 1.285 0 0 1 1.51-1.005 1.282 1.282 0 0 1 1.008 1.507l-4.05 20.3a1.285 1.285 0 0 1-1.258 1.03" transform="translate(-10 1)"/>
        <path fill="#FFF" d="M169.422 170.009l-4.49 2.15a.725.725 0 0 1-.966-.34l-2.988-6.22a.723.723 0 0 1 .34-.966l4.49-2.15a.725.725 0 0 1 .967.339l2.987 6.221c.173.36.02.793-.34.966M131.376 153.917l-7.145-3.124a.723.723 0 0 1-.373-.954l4.243-9.675a.725.725 0 0 1 .955-.373l7.144 3.125c.367.16.534.587.374.953l-4.243 9.676a.725.725 0 0 1-.955.372M98.332 182.44l-1.307-1.488a.723.723 0 0 1 .068-1.021l2.265-1.983a.726.726 0 0 1 1.023.067l1.306 1.488c.264.301.234.758-.067 1.022l-2.265 1.983a.725.725 0 0 1-1.023-.067M178.533 178.54l-1.853.703a.725.725 0 0 1-.935-.42l-1.069-2.812a.723.723 0 0 1 .42-.934l1.853-.702a.725.725 0 0 1 .935.42l1.07 2.812a.723.723 0 0 1-.421.933M165.694 145.205l-1.852.702a.725.725 0 0 1-.935-.42l-1.07-2.811a.724.724 0 0 1 .42-.934l1.853-.703a.725.725 0 0 1 .935.42l1.07 2.812a.724.724 0 0 1-.42.934"/>
        <path fill="url(#a)" d="M167.492 174.832l6.709 5.549 5.431-3.805-6.052-6.38-6.088 4.636zm6.677 6.996a.641.641 0 0 1-.41-.148l-7.708-6.375a.642.642 0 0 1 .02-1.004l7.189-5.474c.26-.2.63-.169.855.069l6.96 7.337a.64.64 0 0 1-.097.965l-6.44 4.514a.641.641 0 0 1-.37.116z" transform="translate(-10 1)"/>
        <path fill="#FFF" d="M164.169 182.187l6.44-4.513-6.96-7.337-7.188 5.474z"/>
        <path fill="url(#a)" stroke="#FFF" stroke-width=".5" d="M169.848 175.163a.64.64 0 0 1-.361-1.17l3.951-2.685a.64.64 0 1 1 .722 1.06l-3.951 2.684a.64.64 0 0 1-.36.111M171.062 176.443a.64.64 0 0 1-.362-1.171l3.952-2.684a.642.642 0 0 1 .721 1.06l-3.95 2.684a.64.64 0 0 1-.361.11M172.275 177.722a.64.64 0 0 1-.361-1.171l3.951-2.684a.64.64 0 1 1 .722 1.06l-3.951 2.684a.64.64 0 0 1-.36.11M173.9 179.197a.641.641 0 0 1-.376-1.16l1.69-1.22a.641.641 0 1 1 .751 1.04l-1.69 1.219a.639.639 0 0 1-.375.121" transform="translate(-10 1)"/>
        <path fill="#FFF" d="M156.522 154.62l-7.036.968a.725.725 0 0 1-.817-.618l-1.32-9.567a.723.723 0 0 1 .619-.815l7.035-.969a.725.725 0 0 1 .817.618l1.32 9.567a.724.724 0 0 1-.618.815M110.14 167.042l-4.49 2.15a.725.725 0 0 1-.967-.34l-2.987-6.221a.724.724 0 0 1 .34-.966l4.489-2.15a.725.725 0 0 1 .967.34l2.988 6.221c.173.36.02.793-.34.966"/>
        <path fill="url(#a)" d="M149.201 175.204a1.072 1.072 0 0 1-1-.689l-10.225-26.886a1.068 1.068 0 0 1 .663-1.393l20.648-6.846a1.07 1.07 0 0 1 1.352.677l8.3 24.963c.17.513-.07 1.074-.561 1.304l-18.722 8.77a1.068 1.068 0 0 1-.455.1z" transform="translate(-10 1)"/>
        <path fill="#FFF" d="M157.923 166.366l-18.722 8.77-10.225-26.886 20.647-6.847z"/>
        <path fill="#FFF" d="M130.373 148.913l9.419 24.767 16.817-7.878-7.664-23.048z"/>
        <path fill="url(#a)" stroke="#FFF" d="M144.537 151.736a1.069 1.069 0 0 1-.337-2.083l12.45-4.128a1.068 1.068 0 1 1 .674 2.028l-12.45 4.129a1.08 1.08 0 0 1-.337.054M145.985 156.089a1.068 1.068 0 0 1-.337-2.083l12.45-4.129a1.07 1.07 0 0 1 .674 2.028l-12.45 4.13a1.08 1.08 0 0 1-.337.054M147.431 160.44a1.068 1.068 0 0 1-.337-2.083l12.45-4.127a1.07 1.07 0 0 1 .674 2.028l-12.45 4.128a1.08 1.08 0 0 1-.337.055M148.878 164.793a1.068 1.068 0 0 1-.337-2.083l7.141-2.368a1.068 1.068 0 1 1 .675 2.028l-7.141 2.368a1.08 1.08 0 0 1-.338.055" transform="translate(-10 1)"/>
        <path fill="#FFF" d="M113.152 153.075l-4.2-2.672a.723.723 0 0 1-.221-1l3.712-5.819a.725.725 0 0 1 1-.221l4.2 2.672a.723.723 0 0 1 .221.999l-3.712 5.82a.725.725 0 0 1-1 .22"/>
        <path fill="url(#a)" d="M116.515 169.123l9.81 3.228 7.46-11.238-11.155-4.167-6.115 12.177zm10.163 5.098a.854.854 0 0 1-.268-.043l-11.372-3.74a.854.854 0 0 1-.497-1.196l6.904-13.749a.855.855 0 0 1 1.065-.417l12.884 4.812a.853.853 0 0 1 .413 1.273l-8.415 12.678a.857.857 0 0 1-.714.382z" transform="translate(-10 1)"/>
        <path fill="#FFF" d="M116.678 174.366l-11.372-3.74 6.904-13.75 12.884 4.813z"/>
        <path fill="url(#a)" stroke="#FFF" stroke-width=".9" d="M130.034 162.613a.852.852 0 0 1-.257-.04l-6.939-2.172a.854.854 0 1 1 .512-1.63l6.94 2.172a.854.854 0 0 1-.256 1.67M128.83 165.01a.852.852 0 0 1-.257-.04l-6.938-2.172a.854.854 0 1 1 .512-1.63l6.939 2.172a.854.854 0 0 1-.256 1.67M127.626 167.407a.852.852 0 0 1-.256-.04l-6.939-2.172a.854.854 0 1 1 .512-1.63l6.939 2.172a.854.854 0 0 1-.256 1.67M123.498 169.208a.85.85 0 0 1-.313-.06l-4.015-1.575a.854.854 0 1 1 .626-1.591l4.015 1.575a.854.854 0 0 1-.313 1.65" transform="translate(-10 1)"/>
        <path fill="#FFF" d="M148.4 181.585l-1.306-1.489a.723.723 0 0 1 .067-1.021l2.266-1.983a.726.726 0 0 1 1.022.067l1.307 1.489c.263.3.234.758-.068 1.02l-2.265 1.984a.725.725 0 0 1-1.022-.067M121.938 176.347l1.49-1.305a.726.726 0 0 1 1.023.067l1.986 2.262c.264.3.234.758-.067 1.022l-1.49 1.304a.725.725 0 0 1-1.023-.067l-1.986-2.262a.723.723 0 0 1 .067-1.021"/>
    </g>
</svg>
