<svg width="203" height="150" viewBox="0 0 203 150" xmlns="http://www.w3.org/2000/svg"><title>8C0F1BD9-11E6-4E37-AD88-7BE6CD17188E</title><defs><linearGradient x1="12.957%" y1="80.245%" y2="15.021%" id="a"><stop stop-color="#F8A56F" offset="0%"/><stop stop-color="#F8A06C" offset="8.409%"/><stop stop-color="#F26C51" offset="100%"/></linearGradient><linearGradient x1="12.957%" y1="80.245%" x2="613.576%" y2="-123.381%" id="b"><stop stop-color="#F8A56F" offset="0%"/><stop stop-color="#F26C51" offset="100%"/></linearGradient><linearGradient x1="0%" y1="335.955%" x2="428.51%" y2="-33.918%" id="c"><stop stop-color="#F8A56F" offset="0%"/><stop stop-color="#F26C51" offset="100%"/></linearGradient><linearGradient x1="0%" y1="335.955%" x2="428.51%" y2="-33.918%" id="d"><stop stop-color="#F8A56F" offset="0%"/><stop stop-color="#F89C6A" offset="15.411%"/><stop stop-color="#F89C6A" offset="15.678%"/><stop stop-color="#F26C51" offset="100%"/></linearGradient><linearGradient x1="12.957%" y1="80.245%" y2="15.021%" id="e"><stop stop-color="#F8A56F" offset="0%"/><stop stop-color="#F26C51" offset="100%"/></linearGradient><linearGradient x1="12.957%" y1="80.245%" x2="139.147%" y2="9.233%" id="f"><stop stop-color="#F8A56F" offset="0%"/><stop stop-color="#F26C51" offset="100%"/></linearGradient><linearGradient x1="12.957%" y1="80.245%" x2="127.716%" y2="-1862.558%" id="g"><stop stop-color="#F8A56F" offset="0%"/><stop stop-color="#F26C51" offset="100%"/></linearGradient><linearGradient x1="-1013.736%" y1="82.835%" x2="4767.152%" y2="-13.714%" id="h"><stop stop-color="#F8A56F" offset="0%"/><stop stop-color="#F26C51" offset="100%"/></linearGradient><linearGradient x1="12.957%" y1="80.245%" x2="2009.147%" y2="6.735%" id="i"><stop stop-color="#F8A56F" offset="0%"/><stop stop-color="#F26C51" offset="100%"/></linearGradient><linearGradient x1="50%" y1="0%" x2="50%" y2="100%" id="j"><stop stop-color="#FFF" offset="0%"/><stop stop-color="#FFF" offset="100%"/></linearGradient><linearGradient x1="12.957%" y1="80.245%" x2="154.511%" y2="-22.4%" id="k"><stop stop-color="#F8A56F" offset="0%"/><stop stop-color="#F26C51" offset="100%"/></linearGradient><linearGradient x1="-165.218%" y1="107.623%" y2="15.021%" id="l"><stop stop-color="#F8A56F" offset="0%"/><stop stop-color="#F26C51" offset="100%"/></linearGradient><linearGradient x1="-325.121%" y1="74.591%" x2="173.007%" y2="-25.97%" id="m"><stop stop-color="#F8A56F" offset="0%"/><stop stop-color="#F26C51" offset="100%"/></linearGradient><linearGradient x1="-7194.706%" y1="100%" x2="6758.791%" y2="-171.993%" id="n"><stop stop-color="#F8A56F" offset="0%"/><stop stop-color="#F26C51" offset="100%"/></linearGradient><linearGradient x1="-962.371%" y1="190.369%" x2="866.963%" y2="32.571%" id="o"><stop stop-color="#F8A56F" offset="0%"/><stop stop-color="#F26C51" offset="100%"/></linearGradient><linearGradient x1="-194.796%" y1="112.72%" x2="158.61%" y2="0%" id="p"><stop stop-color="#F8A56F" offset="0%"/><stop stop-color="#F26C51" offset="100%"/></linearGradient><linearGradient x1="12.957%" y1="80.245%" x2="492.774%" y2="0%" id="q"><stop stop-color="#F8A56F" offset="0%"/><stop stop-color="#F26C51" offset="100%"/></linearGradient></defs><g fill="none" fill-rule="evenodd"><path fill="#FFF" d="M32.28 101.73h21.205V47.656H32.281z"/><path d="M32.6 101.411h20.565V47.974H32.6v53.437zm-.64.638h21.846V47.337H31.96v54.712z" fill="url(#a)"/><path d="M35.766 54.227h2.557v-3.826h-2.557z"/><path d="M36.086 53.909h1.917V50.72h-1.917v3.188zm-.64.637h3.197v-4.463h-3.197v4.463z" fill="url(#b)"/><path d="M39.659 54.227h2.556v-3.826H39.66z"/><path d="M39.979 53.909h1.916V50.72H39.98v3.188zm-.64.637h3.196v-4.463h-3.197v4.463z" fill="url(#c)"/><path d="M43.551 54.227h2.557v-3.826H43.55z"/><path d="M43.87 53.909h1.917V50.72h-1.916v3.188zm-.639.637h3.197v-4.463H43.23v4.463z" fill="url(#c)"/><path d="M47.444 54.227H50v-3.826h-2.556z"/><path d="M47.763 53.909h1.917V50.72h-1.917v3.188zm-.64.637h3.197v-4.463h-3.196v4.463z" fill="url(#c)"/><path d="M35.766 60.285h2.557v-3.826h-2.557z"/><path d="M36.086 59.966h1.917v-3.188h-1.917v3.188zm-.64.637h3.197V56.14h-3.197v4.463z" fill="url(#b)"/><path d="M39.659 60.285h2.556v-3.826H39.66z"/><path d="M39.979 59.966h1.916v-3.188H39.98v3.188zm-.64.637h3.196V56.14h-3.197v4.463z" fill="url(#c)"/><path d="M43.551 60.285h2.557v-3.826H43.55z"/><path d="M43.87 59.966h1.917v-3.188h-1.916v3.188zm-.639.637h3.197V56.14H43.23v4.463z" fill="url(#c)"/><path d="M47.444 60.285H50v-3.826h-2.556z"/><path d="M47.763 59.966h1.917v-3.188h-1.917v3.188zm-.64.637h3.197V56.14h-3.196v4.463z" fill="url(#c)"/><path d="M35.766 66.342h2.557v-3.826h-2.557z"/><path d="M36.086 66.023h1.917v-3.188h-1.917v3.188zm-.64.637h3.197v-4.463h-3.197v4.463z" fill="url(#b)"/><path d="M39.659 66.342h2.556v-3.826H39.66z"/><path d="M39.979 66.023h1.916v-3.188H39.98v3.188zm-.64.637h3.196v-4.463h-3.197v4.463z" fill="url(#c)"/><path d="M43.551 66.342h2.557v-3.826H43.55z"/><path d="M43.87 66.023h1.917v-3.188h-1.916v3.188zm-.639.637h3.197v-4.463H43.23v4.463z" fill="url(#c)"/><path d="M47.444 66.342H50v-3.826h-2.556z"/><path d="M47.763 66.023h1.917v-3.188h-1.917v3.188zm-.64.637h3.197v-4.463h-3.196v4.463z" fill="url(#c)"/><path d="M35.766 72.399h2.557v-3.826h-2.557z"/><path d="M36.086 72.08h1.917v-3.188h-1.917v3.188zm-.64.638h3.197v-4.463h-3.197v4.463z" fill="url(#b)"/><path d="M39.659 72.399h2.556v-3.826H39.66z"/><path d="M39.979 72.08h1.916v-3.188H39.98v3.188zm-.64.638h3.196v-4.463h-3.197v4.463z" fill="url(#c)"/><path d="M43.551 72.399h2.557v-3.826H43.55z"/><path d="M43.87 72.08h1.917v-3.188h-1.916v3.188zm-.639.638h3.197v-4.463H43.23v4.463z" fill="url(#d)"/><path d="M47.444 72.399H50v-3.826h-2.556z"/><path d="M47.763 72.08h1.917v-3.188h-1.917v3.188zm-.64.638h3.197v-4.463h-3.196v4.463z" fill="url(#c)"/><path d="M84.717 101.75H55.532V34.57a2.911 2.911 0 0 1 2.917-2.908h23.348c1.61 0 2.92 1.301 2.92 2.908v67.178z" fill="#F6F7FB"/><path d="M55.852 101.43l28.544.001v-66.86a2.597 2.597 0 0 0-2.599-2.589H58.45a2.595 2.595 0 0 0-2.596 2.589l-.001 66.86zm29.184.638H55.212V34.571a3.234 3.234 0 0 1 3.237-3.226h23.348a3.236 3.236 0 0 1 3.24 3.226v67.497z" fill="url(#e)"/><path fill="url(#e)" d="M55.532 45.506h29.183v-.638H55.532zM55.532 59.32h29.183v-.637H55.532zM55.532 73.136h29.183v-.638H55.532zM55.532 87.353h29.183v-.637H55.532z"/><path d="M73.528 40.834l6.147-2.747" fill="#E8F6FF"/><path fill="#F8A56F" d="M73.659 41.124l-.262-.581 6.147-2.747.262.582z"/><path d="M77.512 38.005l3.241-1.449" fill="#E8F6FF"/><path fill="#F8A56F" d="M77.643 38.296l-.262-.582 3.241-1.448.262.581z"/><path fill="url(#e)" d="M69.803 95.45h.64V31.663h-.64z"/><path d="M59.255 55.051l6.147-2.746" fill="#E8F6FF"/><path fill="#F8A56F" d="M59.386 55.342l-.262-.582 6.147-2.746.262.581z"/><path d="M63.239 52.222l3.241-1.448" fill="#E8F6FF"/><path fill="#F8A56F" d="M63.37 52.513l-.262-.582 3.24-1.448.263.582z"/><path fill="#FFF" d="M148.604 101.75h26.146V36.558h-26.146z"/><path d="M148.924 101.432h25.506V36.876h-25.506v64.556zm-.64.638h26.786V36.239h-26.786v65.83z" fill="url(#f)"/><path fill="url(#f)" d="M154.799 101.753h.64V36.557h-.64zM161.357 101.752h.64V36.556h-.64zM167.914 101.75h.64V36.556h-.64z"/><path fill="url(#g)" d="M148.604 81.473h26.146v-.638h-26.146zM148.604 78.766h26.146v-.638h-26.146z"/><path fill="#E7EBF9" d="M84.511 77.168h33.107v24.277H84.511z"/><path fill="url(#g)" d="M148.604 58.678h26.146v-.637h-26.146zM148.604 55.971h26.146v-.637h-26.146z"/><path fill="#F6F7FB" d="M88.201 77.361h26.146V20.8H88.201z"/><path d="M88.52 77.042h25.507V21.118H88.521v55.924zm-.639.638h26.786v-57.2H87.881v57.2z" fill="url(#e)"/><path fill="url(#e)" d="M118.082 102.068H84.466V70.692h7.354v.637h-6.714v30.102h32.336V71.329h-6.156l-.001-40.382h.64v39.745h6.157z"/><path fill="url(#e)" d="M94.396 77.362h.64V20.8h-.64zM97.183 77.362h.64V20.8h-.64zM104.438 77.362h.64V20.8h-.64zM107.225 77.362h.641V20.8h-.64z"/><path fill="#FFF" d="M92.379 20.799h17.924v-7.81H92.379z"/><path d="M92.699 20.48h17.283v-7.173H92.7v7.173zm-.64.638h18.564v-8.449H92.059v8.449z" fill="url(#e)"/><path fill="url(#e)" d="M100.954 12.988h.64V1.777h-.64z"/><path fill="#F8A56F" d="M84.786 77.681h32.976v-.637H84.786z"/><path fill="#FFF" d="M88.201 101.751h5.485V84.844h-5.485z"/><path d="M88.52 101.432h4.846v-16.27H88.52v16.27zm-.64.638h6.126V84.525h-6.125v17.545z" fill="url(#e)"/><path fill="#FFF" d="M98.532 101.751h5.485V84.844h-5.485z"/><path d="M98.852 101.432h4.844v-16.27h-4.844v16.27zm-.64.638h6.125V84.525h-6.125v17.545z" fill="url(#e)"/><path fill="#FFF" d="M108.862 101.751h5.485V84.844h-5.485z"/><path d="M109.182 101.432h4.845v-16.27h-4.845v16.27zm-.64.638h6.125V84.525h-6.125v17.545zM91.259 68.22h.64V36.557h-.64z" fill="url(#e)"/><path fill="#FFF" d="M132.746 1.1l-7.012 12.564h14.023z"/><path d="M126.279 13.346h12.934l-6.467-11.59-6.467 11.59zm14.022.637h-15.11L132.746.444l7.555 13.54z" fill="url(#e)"/><path d="M147.648 24.271v69.484h-29.801V24.27a11.64 11.64 0 0 1 .076-1.358c.052-.49.138-.975.253-1.447h29.142c.115.472.202.956.253 1.447a11.64 11.64 0 0 1 .077 1.358" fill="#E7EBF9"/><path d="M118.167 93.436h29.16V24.27a11.124 11.124 0 0 0-.073-1.312 10.597 10.597 0 0 0-.19-1.174h-28.633c-.086.387-.149.777-.19 1.161a11.177 11.177 0 0 0-.075 1.325v69.165zm29.801.638h-30.442V24.27a11.84 11.84 0 0 1 .078-1.38c.053-.504.14-1.005.261-1.5l.06-.244h29.645l.06.244c.12.496.208.997.26 1.49.013.127.026.247.035.364.03.328.043.664.043 1.026v69.803z" fill="url(#e)"/><path fill="url(#h)" d="M122.42 72.817h.641v-45.96h-.64zM127.381 72.817h.641v-45.96h-.64z"/><path fill="url(#i)" d="M132.343 72.817h.64v-45.96h-.64zM137.303 72.817h.641v-45.96h-.64z"/><path fill="url(#h)" d="M142.264 72.817h.64v-45.96h-.64z"/><path fill="#0094D5" d="M121.249 22.196h23.16v-.638h-23.16z"/><path fill="#E7EBF9" d="M117.762 101.73h29.803V75.642h-29.803z"/><path d="M118.082 101.411h29.162v-25.45h-29.162v25.45zm-.64.638h30.443V75.323h-30.443v26.726z" fill="url(#e)"/><path fill="#FFF" d="M117.725 23.27h30.042v-1.804h-30.042z"/><path d="M118.045 22.952h29.4v-1.167h-29.4v1.167zm-.64.637h30.681v-2.442h-30.682v2.442z" fill="url(#e)"/><path fill="#E8F6FF" d="M119.079 21.305h27.334v-1.803h-27.334z"/><path d="M119.4 20.986h26.693v-1.165H119.4v1.165zm-.641.637h27.974v-2.44H118.76v2.44z" fill="url(#e)"/><path fill="#FFF" d="M120.309 19.338h24.874v-1.803h-24.874z"/><path d="M120.629 19.019h24.234v-1.166h-24.234v1.166zm-.64.637h25.514v-2.44h-25.515v2.44z" fill="url(#e)"/><path fill="#E8F6FF" d="M121.428 17.37h22.636v-1.802h-22.636z"/><path d="M121.749 17.052h21.995v-1.165h-21.995v1.165zm-.64.638h23.275v-2.441h-23.276v2.44z" fill="url(#e)"/><path fill="#FFF" d="M122.447 15.404h20.598v-1.803h-20.598z"/><path d="M122.767 15.085h19.958V13.92h-19.958v1.165zm-.64.638h21.238v-2.44h-21.238v2.44zM202.876 102.184L0 102.072v-.638l202.876.113z" fill="url(#e)"/><path d="M118.683 136.71c0-5.541-4.51-10.034-10.074-10.034M124.115 102.517c-5.782 0-10.47 4.669-10.47 10.428 0 5.76 4.688 10.428 10.47 10.428M99.313 81.464l-3.213 3.2" fill="#FFF"/><path d="M97.959 111.455h8.799c.337 0 .61-.272.61-.607v-2.11a.608.608 0 0 0-.61-.607h-8.8a.608.608 0 0 0-.609.607v2.11c0 .335.273.607.61.607" fill="url(#j)"/><path d="M75.658 88.135l-3.213 3.2M73.973 100.852l-3.213 3.2M74.685 101.503l-2.319 2.31M50.436 17.777a3.549 3.549 0 0 0-3.552 3.537 3.549 3.549 0 0 0 3.552 3.538h14.843a3.549 3.549 0 0 0 3.55-3.538 3.549 3.549 0 0 0-3.55-3.537H62.55v-.611c0-.952-.777-1.726-1.733-1.726-.955 0-1.733.774-1.733 1.726h-.64v-2.483a3.52 3.52 0 0 0-3.522-3.509 3.52 3.52 0 0 0-3.522 3.509v3.094h-.965zm14.843 7.712H50.436c-2.311 0-4.192-1.873-4.192-4.175 0-2.302 1.88-4.175 4.192-4.175h.325v-2.456c0-2.286 1.867-4.146 4.162-4.146s4.162 1.86 4.162 4.146v.87a2.373 2.373 0 0 1 1.733-.75c1.3 0 2.359 1.045 2.373 2.336h2.088c2.31 0 4.191 1.873 4.191 4.175 0 2.302-1.88 4.175-4.191 4.175zM158.229 17.767c-2.702 0-4.9 2.19-4.9 4.88s2.198 4.88 4.9 4.88h20.012c2.701 0 4.899-2.19 4.899-4.88s-2.198-4.88-4.9-4.88h-1.19v-4.061c0-2.67-2.18-4.841-4.86-4.841s-4.86 2.172-4.86 4.84v3.349h-.64a2.446 2.446 0 0 0-2.447-2.439 2.446 2.446 0 0 0-2.449 2.439v.713h-3.565zm20.012 10.398h-20.012c-3.055 0-5.54-2.475-5.54-5.518 0-3.043 2.485-5.518 5.54-5.518h2.925v-.075a3.085 3.085 0 0 1 3.089-3.076c.995 0 1.882.472 2.448 1.203v-1.475c0-3.02 2.467-5.478 5.5-5.478s5.5 2.457 5.5 5.478v3.423h.55c3.054 0 5.54 2.475 5.54 5.518 0 3.043-2.486 5.518-5.54 5.518zM31.094 36.112a2.505 2.505 0 0 0-2.508 2.497v.425a2.505 2.505 0 0 0 2.508 2.497h10.455a2.505 2.505 0 0 0 2.508-2.497v-.425a2.505 2.505 0 0 0-2.508-2.497h-1.227v-.585a2.505 2.505 0 0 0-2.507-2.497 2.505 2.505 0 0 0-2.507 2.497v.585h-4.214zm10.455 6.057H31.094a3.144 3.144 0 0 1-3.147-3.135v-.425a3.144 3.144 0 0 1 3.147-3.135h3.574a3.145 3.145 0 0 1 3.147-3.082 3.145 3.145 0 0 1 3.147 3.082h.587a3.144 3.144 0 0 1 3.147 3.135v.425a3.144 3.144 0 0 1-3.147 3.135z" fill="#FFF"/><path d="M172.472 149.883H47.677c-1.593 0-2.884-1.277-2.884-2.85 0-1.575 1.291-2.852 2.884-2.852h124.795c1.593 0 2.884 1.277 2.884 2.851s-1.291 2.85-2.884 2.85z" fill="#F6F7FB"/><path d="M112.54 112.378v17.938H86.912c-2.04-4.064-6.292-6.848-11.196-6.848a12.51 12.51 0 0 0-11.193 6.848H47.83c-.333 0-.645.052-.94.15l.456-1.794h5.873c1.113 0 2.02-.89 2.02-1.994v-.548c0-.613-.5-1.108-1.112-1.108H48.61a8.934 8.934 0 0 1 2.131-2.528l1.04-.849a18.269 18.269 0 0 1 3.63-2.31 17.977 17.977 0 0 1 4.091-1.38l25.096-5.293h.004l27.938-.284z" fill="#CFDEF8"/><path d="M47.666 129.077l-.217.854a3.4 3.4 0 0 1 .381-.021h16.441c2.237-4.231 6.599-6.848 11.444-6.848 4.855 0 9.218 2.617 11.448 6.848h24.967v-17.122l-27.486.28-25.055 5.284c-1.362.281-2.706.735-3.998 1.349a17.892 17.892 0 0 0-3.548 2.257l-1.039.848a8.596 8.596 0 0 0-1.661 1.81h4.784c.84 0 1.523.68 1.523 1.514v.548c0 1.323-1.09 2.4-2.431 2.4h-5.553zm-1.357 2.007l.716-2.818h6.194a1.6 1.6 0 0 0 1.61-1.588v-.548a.703.703 0 0 0-.702-.702h-6.214l.339-.603a9.314 9.314 0 0 1 2.228-2.644l1.04-.849a18.732 18.732 0 0 1 3.712-2.362 18.43 18.43 0 0 1 4.187-1.412l25.18-5.302 28.353-.288v18.753H86.657l-.114-.225c-2.052-4.085-6.201-6.623-10.828-6.623-4.617 0-8.765 2.538-10.825 6.623l-.114.225H47.83c-.28 0-.546.043-.81.13l-.71.233z" fill="url(#k)"/><path d="M53.219 128.672h-5.873l.365-1.433a8.852 8.852 0 0 1 .9-2.217h5.515c.613 0 1.114.496 1.114 1.108v.548c0 1.104-.908 1.994-2.021 1.994" fill="#FFF"/><path d="M47.77 128.344h5.45c.93 0 1.689-.747 1.689-1.666v-.548a.783.783 0 0 0-.782-.78h-5.321a8.585 8.585 0 0 0-.774 1.969l-.261 1.025zm5.45.654h-6.3l.47-1.84a9.214 9.214 0 0 1 .933-2.297l.095-.166h5.709c.796 0 1.444.644 1.444 1.435v.548c0 1.28-1.055 2.32-2.352 2.32z" fill="#005C99"/><path d="M166.166 123.28v.995c0 1.421 1.162 2.57 2.6 2.57h4.682v3.69a2.896 2.896 0 0 0-1.13-.22h-14.983c-2.041-4.063-6.292-6.847-11.192-6.847-4.905 0-9.147 2.784-11.192 6.848h-3.952c.382-5.545 3.754-8.298 6.375-9.612 1.893-.95 4.226-3.317 4.05-5.412l-.28-3.304 10.375-.142c.895 0 1.385-1.031.801-1.704L142.183 98.37c1.007.243 1.984.568 2.929.974a18.708 18.708 0 0 1 4.6 2.821l6.999 5.829 13.911 6.073c1.713.755 2.826 2.439 2.826 4.294v3.353h-5.693c-.874 0-1.59.698-1.59 1.567" fill="#CFDEF8"/><path d="M157.587 129.91h14.732c.248 0 .488.024.718.072v-2.731h-4.271c-1.66 0-3.011-1.335-3.011-2.975v-.995c0-1.088.897-1.973 2-1.973h5.282v-2.947a4.303 4.303 0 0 0-2.581-3.924l-14.01-6.132-6.998-5.83a18.34 18.34 0 0 0-6.073-3.348l9.258 10.752c.373.43.456 1.018.216 1.533a1.45 1.45 0 0 1-1.33.84l-9.929.136.243 2.87c.202 2.398-2.43 4.883-4.273 5.807-2.533 1.271-5.61 3.832-6.115 8.845h3.254c2.233-4.23 6.595-6.848 11.444-6.848 4.853 0 9.214 2.617 11.444 6.848zm16.272 1.24l-.572-.242a2.507 2.507 0 0 0-.968-.187H157.08l-.114-.225c-2.052-4.085-6.2-6.622-10.824-6.622-4.62 0-8.768 2.537-10.825 6.622l-.113.225h-4.646l.03-.433c.392-5.68 3.804-8.544 6.599-9.946 1.709-.858 3.99-3.078 3.826-5.016l-.316-3.738 10.816-.148a.63.63 0 0 0 .59-.368.605.605 0 0 0-.096-.667l-10.96-12.728 1.233.299c1.027.248 2.035.583 2.995.996a19.15 19.15 0 0 1 4.701 2.883l6.954 5.791 13.858 6.05c1.866.822 3.07 2.653 3.07 4.665v3.759h-6.104a1.17 1.17 0 0 0-1.178 1.16v.996c0 1.193.982 2.163 2.189 2.163h5.093v4.711z" fill="url(#l)"/><path d="M112.54 112.378l-27.937.284a6.297 6.297 0 0 0 2.522-1.149l13.455-10.164a15.291 15.291 0 0 1 8.244-3.052l7.836-.597s.083-.004.243-.004a474.36 474.36 0 0 1 12.97-.13c3.91.029 7.743.126 10.014.39.025.004.046.004.07.008.752.09 1.495.227 2.227.406l10.136 11.772c.583.673.094 1.704-.801 1.704l-10.375.142h-.004l-28.6.39z" fill="#FFF"/><path d="M127.947 97.888c-5.757 0-10.978.134-11.036.135-.153 0-.23.003-.235.004l-7.827.596a14.919 14.919 0 0 0-8.068 2.986l-13.455 10.165a6.61 6.61 0 0 1-.842.542l26.054-.265 38.977-.532c.294 0 .54-.155.66-.414a.681.681 0 0 0-.107-.751l-10.067-11.691a18.393 18.393 0 0 0-2.084-.374l-.085-.01c-1.932-.225-5.195-.352-9.96-.386-.644-.003-1.289-.005-1.925-.005zm-43.34 15.101l-.072-.647a5.992 5.992 0 0 0 2.388-1.088l13.456-10.165a15.578 15.578 0 0 1 8.424-3.12l7.832-.596c.01 0 .097-.004.268-.004.055-.002 6.497-.168 12.973-.13 4.79.035 8.078.163 10.05.392l.031.333.04-.325c.744.088 1.507.228 2.266.413l.104.026 10.205 11.852c.353.407.432.962.205 1.449-.228.49-.71.794-1.258.794l-38.975.532-27.937.284z" fill="url(#e)"/><path d="M173.448 121.714v5.13h-4.682c-1.438 0-2.6-1.148-2.6-2.569v-.994c0-.869.714-1.567 1.59-1.567h5.692z" fill="#FFF"/><path d="M167.755 122.041a1.25 1.25 0 0 0-1.258 1.24v.995c0 1.236 1.018 2.242 2.269 2.242h4.351v-4.477h-5.362zm6.024 5.131h-5.013c-1.616 0-2.931-1.3-2.931-2.896v-.995c0-1.044.861-1.894 1.92-1.894h6.024v5.785z" fill="#005C99"/><path d="M172.319 130.315a2.9 2.9 0 0 1 1.129.22v5.768H46.701V131.2l.185-.734h.004c.295-.098.608-.15.94-.15h16.692a12.51 12.51 0 0 1 11.193-6.848c4.904 0 9.155 2.784 11.196 6.847h48.04c2.045-4.063 6.288-6.847 11.192-6.847 4.9 0 9.151 2.784 11.192 6.847h14.984z" fill="#FFF"/><path d="M47.032 135.976h126.085v-5.215a2.681 2.681 0 0 0-.798-.118h-15.19l-.09-.182c-2.066-4.112-6.241-6.666-10.896-6.666-4.65 0-8.826 2.554-10.896 6.666l-.092.182H86.706l-.092-.182c-2.065-4.112-6.242-6.666-10.9-6.666-4.646 0-8.821 2.554-10.896 6.666l-.09.182H47.83c-.23 0-.451.027-.67.084l-.128.514v4.735zm126.747.654H46.37l.01-5.508.247-.984h.212c.32-.1.654-.15.992-.15h16.49c2.216-4.23 6.564-6.848 11.395-6.848 4.842 0 9.19 2.619 11.4 6.849h47.632c2.213-4.23 6.56-6.849 11.396-6.849 4.839 0 9.187 2.619 11.396 6.849h14.78c.451 0 .875.082 1.26.245l.2.085v6.31z" fill="#005C99"/><path d="M175.313 133.262v.09c0 2.914-2.403 5.289-5.352 5.289H50.188c-2.95 0-5.344-2.375-5.344-5.29v-.089c0-1.302.855-2.41 2.041-2.796h.005c.295-.098.607-.15.94-.15h124.489c.398 0 .784.072 1.13.219a2.946 2.946 0 0 1 1.864 2.727" fill="#E7EBF9"/><g transform="translate(44.433 129.74)" fill="url(#e)"><path d="M2.52 1.132A2.532 2.532 0 0 0 .821 3.523v.09c0 2.692 2.213 4.882 4.933 4.882h119.774c2.724 0 4.94-2.19 4.94-4.883v-.089c0-1.036-.63-1.96-1.607-2.352a2.513 2.513 0 0 0-.975-.19H3.396c-.28 0-.546.043-.81.13l-.066.021zm123.008 8.175H5.754C2.581 9.307 0 6.752 0 3.612v-.089C0 2.071.934.793 2.324.34l.068-.02c.325-.1.662-.15 1.005-.15h124.489c.462 0 .896.085 1.29.252a3.337 3.337 0 0 1 2.114 3.101v.09c0 3.14-2.585 5.694-5.762 5.694z"/></g><path d="M88.221 135.82c0 .162 0 .32-.012.483-.029.8-.135 1.583-.316 2.338H63.545a12.235 12.235 0 0 1-.317-2.338c-.012-.163-.012-.32-.012-.483 0-1.977.469-3.849 1.306-5.504a12.51 12.51 0 0 1 11.193-6.848c4.904 0 9.155 2.784 11.196 6.848a12.166 12.166 0 0 1 1.31 5.504" fill="#FFF"/><path d="M63.876 138.235h23.687a11.52 11.52 0 0 0 .236-1.947c.012-.168.012-.316.012-.468 0-1.87-.426-3.661-1.267-5.323-2.053-4.086-6.202-6.623-10.83-6.623-4.616 0-8.763 2.537-10.824 6.623a11.682 11.682 0 0 0-1.263 5.323c0 .152 0 .3.011.452.024.657.103 1.312.238 1.963zm24.342.812h-25l-.074-.315a12.663 12.663 0 0 1-.326-2.415c-.012-.156-.012-.325-.012-.497 0-2.003.454-3.916 1.349-5.686 2.2-4.362 6.63-7.072 11.56-7.072 4.94 0 9.372 2.71 11.564 7.073a12.478 12.478 0 0 1 1.34 6.198 12.194 12.194 0 0 1-.326 2.401l-.075.313z" fill="url(#e)"/><path d="M158.65 135.82c0 .162 0 .32-.013.483-.029.8-.14 1.583-.316 2.338h-24.348a11.913 11.913 0 0 1-.317-2.338c-.012-.163-.012-.32-.012-.483 0-1.977.464-3.849 1.307-5.504 2.045-4.064 6.288-6.848 11.192-6.848 4.9 0 9.15 2.784 11.192 6.848a12.169 12.169 0 0 1 1.315 5.504" fill="#FFF"/><path d="M134.302 138.235h23.688c.134-.65.214-1.303.237-1.947.012-.168.012-.316.012-.468 0-1.865-.428-3.656-1.271-5.323-2.053-4.086-6.2-6.623-10.826-6.623-4.62 0-8.768 2.537-10.824 6.622a11.637 11.637 0 0 0-1.263 5.324c0 .152 0 .3.011.452.025.673.104 1.328.236 1.963zm24.345.812h-25l-.074-.313a12.27 12.27 0 0 1-.327-2.417c-.012-.156-.012-.325-.012-.497 0-2.012.454-3.925 1.349-5.687 2.196-4.361 6.626-7.071 11.56-7.071 4.938 0 9.368 2.71 11.56 7.073.9 1.78 1.357 3.693 1.357 5.685 0 .172 0 .34-.013.513a12.546 12.546 0 0 1-.326 2.4l-.074.314z" fill="url(#m)"/><path d="M127.4 93.18h-8.221c-.671 0-1.264.434-1.458 1.07l-1.058 3.447h13.251l-1.056-3.448a1.522 1.522 0 0 0-1.459-1.069" fill="#FFF"/><path d="M117.217 97.291h12.144l-.897-2.924a1.105 1.105 0 0 0-1.065-.78h-8.22c-.494 0-.922.313-1.066.78l-.896 2.924zm13.25.812H116.11l1.217-3.971a1.92 1.92 0 0 1 1.852-1.357h8.22a1.92 1.92 0 0 1 1.851 1.357l1.218 3.97z" fill="url(#e)"/><path d="M155.863 135.82c0 5.303-4.35 9.602-9.717 9.602-5.367 0-9.717-4.3-9.717-9.603 0-5.304 4.35-9.603 9.717-9.603 5.366 0 9.717 4.3 9.717 9.603" fill="#CFDEF8"/><path d="M146.146 126.622c-5.131 0-9.306 4.126-9.306 9.197 0 5.072 4.175 9.197 9.306 9.197 5.131 0 9.306-4.125 9.306-9.197 0-5.071-4.175-9.197-9.306-9.197m0 19.206c-5.584 0-10.127-4.49-10.127-10.009 0-5.52 4.543-10.009 10.127-10.009 5.584 0 10.127 4.49 10.127 10.01 0 5.518-4.543 10.008-10.127 10.008" fill="url(#e)"/><path d="M85.436 135.82c0 5.303-4.35 9.602-9.716 9.602-5.367 0-9.717-4.3-9.717-9.603 0-5.304 4.35-9.603 9.717-9.603 5.366 0 9.716 4.3 9.716 9.603" fill="#CFDEF8"/><path d="M75.72 126.622c-5.132 0-9.306 4.126-9.306 9.197 0 5.072 4.174 9.197 9.306 9.197 5.131 0 9.306-4.125 9.306-9.197 0-5.071-4.175-9.197-9.306-9.197m0 19.206c-5.585 0-10.127-4.49-10.127-10.009 0-5.52 4.542-10.009 10.127-10.009 5.584 0 10.127 4.49 10.127 10.01 0 5.518-4.543 10.008-10.127 10.008" fill="url(#e)"/><path d="M79.084 135.82c0 1.835-1.506 3.324-3.364 3.324-1.858 0-3.364-1.49-3.364-3.325 0-1.836 1.506-3.324 3.364-3.324 1.858 0 3.364 1.488 3.364 3.324" fill="#E7EBF9"/><path d="M75.72 132.9c-1.629 0-2.953 1.31-2.953 2.919 0 1.61 1.324 2.918 2.953 2.918 1.628 0 2.953-1.309 2.953-2.918 0-1.61-1.325-2.919-2.953-2.919m0 6.65c-2.082 0-3.775-1.674-3.775-3.731s1.693-3.73 3.775-3.73c2.081 0 3.774 1.673 3.774 3.73s-1.693 3.73-3.774 3.73" fill="url(#e)"/><path d="M149.51 135.82c0 1.835-1.506 3.324-3.364 3.324-1.858 0-3.364-1.49-3.364-3.325 0-1.836 1.506-3.324 3.364-3.324 1.858 0 3.364 1.488 3.364 3.324" fill="#E7EBF9"/><path d="M146.146 132.9c-1.628 0-2.953 1.31-2.953 2.919 0 1.61 1.325 2.918 2.953 2.918s2.953-1.309 2.953-2.918c0-1.61-1.325-2.919-2.953-2.919m0 6.65c-2.082 0-3.775-1.674-3.775-3.731s1.693-3.73 3.775-3.73c2.081 0 3.774 1.673 3.774 3.73s-1.693 3.73-3.774 3.73" fill="url(#e)"/><path fill="url(#n)" d="M112.191 138.637h.7v-8.322h-.7z"/><path d="M112.89 112.403l-.697-.05c.857-11.72 4.094-14.783 4.231-14.908l.48.504c-.039.034-3.178 3.004-4.015 14.454" fill="url(#o)"/><path d="M137.374 120.703c-2.62 1.316-5.993 4.067-6.375 9.612h-18.458v-17.937l28.6-.39h.003l.28 3.305c.176 2.094-2.157 4.46-4.05 5.41" fill="#CFDEF8"/><path d="M112.952 129.91h17.668c.514-5.43 3.836-8.198 6.567-9.568 1.71-.858 3.99-3.078 3.827-5.016l-.247-2.926-27.815.378v17.132zm18.43.811H112.13v-18.743l29.387-.4.036.377.28 3.304c.202 2.397-2.43 4.882-4.274 5.806-2.604 1.307-5.785 3.978-6.15 9.278l-.026.378z" fill="url(#p)"/><path d="M130.397 138.676l-.694-.079.929-7.989c.002-.09.01-.204.019-.318l.696.05a7.816 7.816 0 0 0-.019.32l-.931 8.016z" fill="url(#n)"/><path fill="url(#o)" d="M140.796 112.017l-1.212-14.29.697-.062.024.267 1.187 14.028z"/><path fill="#FFF" d="M119.414 95.555h1.55v-1.532h-1.55z"/><path d="M119.825 95.15h.728v-.72h-.728v.72zm-.822.811h2.371v-2.343h-2.37v2.343z" fill="url(#q)"/><path fill="#FFF" d="M120.964 97.106h1.55v-1.532h-1.55z"/><path d="M121.374 96.7h.73v-.72h-.73v.72zm-.82.812h2.37v-2.344h-2.37v2.344z" fill="url(#q)"/><path fill="#FFF" d="M122.514 95.562h1.55V94.03h-1.55z"/><path d="M122.924 95.156h.73v-.72h-.73v.72zm-.82.812h2.37v-2.344h-2.37v2.344z" fill="url(#q)"/><path fill="#FFF" d="M124.064 97.119h1.55v-1.532h-1.55z"/><path d="M124.475 96.713h.729v-.72h-.73v.72zm-.822.812h2.371V95.18h-2.37v2.344z" fill="url(#q)"/><path fill="#FFF" d="M125.614 95.574h1.55v-1.531h-1.55z"/><path d="M126.024 95.168h.73v-.72h-.73v.72zm-.82.812h2.37v-2.343h-2.37v2.343z" fill="url(#q)"/><path fill="#F8A56F" d="M115.114 115.411h4.3v-.654h-4.3zM105.832 115.411h4.3v-.654h-4.3z"/><path d="M55.24 126.13v.548c0 1.105-.908 1.994-2.02 1.994h-5.875l.366-1.433a8.872 8.872 0 0 1 .9-2.217h5.516c.612 0 1.113.495 1.113 1.108" fill="#FFF"/><path d="M47.77 128.344h5.45c.93 0 1.689-.747 1.689-1.666v-.548a.783.783 0 0 0-.782-.78h-5.321a8.585 8.585 0 0 0-.774 1.969l-.261 1.025zm5.45.654h-6.3l.47-1.84a9.214 9.214 0 0 1 .933-2.297l.095-.166h5.709c.796 0 1.444.644 1.444 1.435v.548c0 1.28-1.055 2.32-2.352 2.32z" fill="#F8A56F"/><path d="M173.448 121.714v5.13h-4.682c-1.438 0-2.6-1.148-2.6-2.569v-.994c0-.869.714-1.567 1.59-1.567h5.692z" fill="#FFF"/><path d="M167.755 122.041a1.25 1.25 0 0 0-1.258 1.24v.995c0 1.236 1.018 2.242 2.269 2.242h4.351v-4.477h-5.362zm6.024 5.131h-5.013c-1.616 0-2.931-1.3-2.931-2.896v-.995c0-1.044.861-1.894 1.92-1.894h6.024v5.785z" fill="#F26C51"/></g></svg>