<?xml version="1.0" encoding="UTF-8"?>
<svg width="28px" height="28px" viewBox="0 0 28 28" version="1.1" xmlns="http://www.w3.org/2000/svg" xmlns:xlink="http://www.w3.org/1999/xlink">
    <!-- Generator: Sketch 39 (31667) - http://www.bohemiancoding.com/sketch -->
    <title>Group 4</title>
    <desc>Created with Sketch.</desc>
    <defs>
        <linearGradient x1="12.9569056%" y1="80.2446875%" x2="100%" y2="15.0207094%" id="linearGradient-1">
            <stop stop-color="#F8A56F" offset="0%"></stop>
            <stop stop-color="#F5875F" offset="53.0015728%"></stop>
            <stop stop-color="#F26C51" offset="100%"></stop>
        </linearGradient>
    </defs>
    <g id="Главная" stroke="none" stroke-width="1" fill="none" fill-rule="evenodd">
        <g id="Главная-(выпадающий-список)" transform="translate(-622.000000, -245.000000)">
            <g id="Group" transform="translate(590.000000, 68.000000)">
                <g id="Group-8" transform="translate(32.000000, 177.000000)">
                    <g id="Group-11">
                        <g id="Group-4">
                            <rect id="Rectangle-46" fill="url(#linearGradient-1)" x="0" y="0" width="28" height="28" rx="14"></rect>
                            <g id="Group-10" transform="translate(6.000000, 7.000000)" fill="#FFFFFF">
                                <g id="#472c00ff">
                                    <path d="M5.56106195,0.543362832 C5.70737463,0.210619469 6.06430678,-0.0123893805 6.42890855,0.00766961652 C7.43421829,0.0123893805 8.44011799,0.00294985251 9.44542773,0.01179941 C9.82064897,0.00589970501 10.1669617,0.275516224 10.2831858,0.627138643 C10.3705015,0.914454277 10.3286136,1.21887906 10.3274336,1.51445428 C10.719174,1.51563422 11.1109145,1.50560472 11.5026549,1.51858407 C12.2176991,1.57168142 12.9368732,1.92920354 13.3268437,2.54513274 C13.5126844,2.82772861 13.5528024,3.17050147 13.6324484,3.4920354 C13.7640118,4.08436578 13.9097345,4.67374631 14.0348083,5.26784661 C14.0495575,5.32861357 14.0648968,5.38938053 14.0825959,5.44955752 C14.4023599,5.44955752 14.7415929,5.40825959 15.0418879,5.54749263 C15.4761062,5.7339233 15.7740413,6.19351032 15.7657817,6.66666667 C15.7657817,7.47374631 15.7681416,8.28082596 15.7657817,9.08849558 C15.7699115,9.64247788 15.3474926,10.1622419 14.8017699,10.2643068 C11.700885,10.6778761 8.56460177,11.0589971 5.43244838,10.8129794 C4.0660767,10.7067847 2.70501475,10.5339233 1.35339233,10.3079646 C1.03244838,10.2896755 0.702064897,10.2129794 0.45899705,9.98938053 C0.219469027,9.78879056 0.0873156342,9.4879056 0.0424778761,9.1840708 C0.0318584071,8.3439528 0.0418879056,7.50324484 0.0395280236,6.66253687 C0.0253687316,6.08613569 0.4820059,5.54454277 1.05073746,5.45840708 C1.31740413,5.42890855 1.58643068,5.44719764 1.85427729,5.44778761 C2.06371681,4.62359882 2.23362832,3.78938053 2.43421829,2.96342183 C2.61356932,2.31032448 3.19882006,1.84955752 3.82123894,1.64306785 C4.35457227,1.45958702 4.92507375,1.52330383 5.47846608,1.51740413 C5.49262537,1.19292035 5.42241888,0.849557522 5.56106195,0.543362832 L5.56106195,0.543362832 Z M3.50619469,3.53215339 C3.37286136,4.17109145 3.22064897,4.80589971 3.08672566,5.44483776 C6.31622419,5.44247788 9.54572271,5.44188791 12.7752212,5.44365782 C12.6371681,4.79705015 12.4831858,4.1539823 12.340413,3.50855457 C12.2424779,3.04955752 11.7663717,2.76932153 11.3238938,2.74336283 C9.08259587,2.74041298 6.84129794,2.74277286 4.60058997,2.74159292 C4.12212389,2.73215339 3.60471976,3.04070796 3.50619469,3.53215339 L3.50619469,3.53215339 Z M2.38761062,6.99528024 C1.84247788,7.11386431 1.45014749,7.7120944 1.60353982,8.25722714 C1.71327434,8.77345133 2.25781711,9.14100295 2.77817109,9.05250737 C3.17345133,8.99056047 3.52271386,8.68554572 3.62536873,8.29675516 C3.73569322,7.92448378 3.60589971,7.49734513 3.31504425,7.24306785 C3.07256637,7.0100295 2.71268437,6.93156342 2.38761062,6.99528024 L2.38761062,6.99528024 Z M12.9427729,6.99528024 C12.5610619,7.08849558 12.2477876,7.40825959 12.1634218,7.79233038 C12.0159292,8.38112094 12.4849558,9.02536873 13.0914454,9.06253687 C13.7463127,9.15044248 14.3622419,8.49675516 14.2271386,7.84778761 C14.1498525,7.26076696 13.5132743,6.84424779 12.9427729,6.99528024 L12.9427729,6.99528024 Z" id="Shape"></path>
                                    <path d="M0.95339233,11.1510324 C1.96283186,11.300885 2.97227139,11.4560472 3.98584071,11.579941 C3.97581121,11.8318584 3.99115044,12.0849558 3.97699115,12.3368732 C3.94572271,12.7551622 3.64188791,13.1374631 3.23952802,13.2578171 C2.97345133,13.3427729 2.69085546,13.2979351 2.41710914,13.3085546 C2.1439528,13.300885 1.85486726,13.339823 1.59823009,13.2230088 C1.22418879,13.0672566 0.957522124,12.680236 0.955162242,12.2731563 C0.955752212,11.899115 0.951622419,11.5250737 0.95339233,11.1510324 L0.95339233,11.1510324 Z" id="Shape"></path>
                                    <path d="M11.8271386,11.5280236 C12.8389381,11.4224189 13.8466077,11.280236 14.8560472,11.1533923 C14.8542773,11.5445428 14.8643068,11.9362832 14.8507375,12.3280236 C14.8306785,12.8283186 14.3970501,13.2684366 13.899115,13.3026549 C13.5722714,13.3174041 13.2454277,13.3073746 12.919174,13.3097345 C12.5309735,13.319764 12.140413,13.1085546 11.960472,12.760472 C11.7421829,12.3858407 11.8560472,11.9380531 11.8271386,11.5280236 L11.8271386,11.5280236 Z" id="Shape"></path>
                                </g>
                            </g>
                        </g>
                    </g>
                </g>
            </g>
        </g>
    </g>
</svg>