<svg width="104" height="15" viewBox="0 0 104 15" xmlns="http://www.w3.org/2000/svg"><title>71DA7203-1372-4D6A-A88B-C3994DD77460</title><g fill="#25181C" fill-rule="evenodd"><path d="M43.643.155c2.416-.477 5.082.2 6.868 2.01 2.56 2.538 2.777 7.154.465 9.939-2.638 3.29-7.884 3.544-10.937.748-2.534-2.246-3.014-6.46-1.256-9.356C39.837 1.708 41.68.51 43.643.155zm.213 4.079c-1.853.781-2.455 3.409-1.41 5.114 1.005 1.767 3.652 1.992 5.007.552 1.089-1.161 1.202-3.119.387-4.473-.788-1.384-2.615-1.793-3.984-1.193zM59.868.165c1.763-.286 3.646-.09 5.219.839.66.377 1.177 1.098 1.165 1.909.04.963-.737 1.856-1.65 1.93-1.231.148-2.193-1.033-3.439-.853-1.746.01-3.162 1.744-3.034 3.534-.053 1.71 1.31 3.298 2.97 3.332 1.417.283 2.508-1.266 3.914-.823 1.301.387 1.742 2.31.764 3.288-1.246 1.159-3.016 1.478-4.637 1.447-2.379.017-4.788-1.203-6.094-3.308-1.716-2.675-1.47-6.558.635-8.93C56.76 1.269 58.277.45 59.868.166zM92.773 1.928C92.736.317 94.795-.566 95.946.416c1.253.978.695 2.794.813 4.18 1.751.052 3.725-.268 5.228.898 2.328 1.725 2.55 5.657.556 7.74-.875.953-2.161 1.357-3.403 1.345-1.47-.005-2.941.01-4.412-.005-1.033.068-1.992-.895-1.96-1.976-.004-3.557-.009-7.113.005-10.67zm3.989 6.119a628.92 628.92 0 0 0 0 2.956c.78-.007 1.565.06 2.344-.04 1.297-.255 1.278-2.706-.058-2.878-.76-.091-1.527-.031-2.286-.038zM.234 2.146C.19 1.125 1.096.232 2.054.249 4.47.232 6.89.242 9.308.244c1.068-.096 1.901 1.06 1.732 2.112-.097.908-.894 1.672-1.78 1.629-1.696.029-3.392-.005-5.087.007-.003.525-.003 1.048-.003 1.573 1.473.036 2.953-.075 4.422.05 1.045.158 1.61 1.486 1.186 2.449-.246.696-.964 1.11-1.659 1.071-1.315.01-2.633-.012-3.949-.002v1.694c1.781.019 3.565-.037 5.344.019 1.133.07 1.844 1.478 1.42 2.533-.223.73-.927 1.241-1.661 1.195-2.4 0-4.8.015-7.199-.007-.975.01-1.89-.898-1.844-1.933C.236 9.138.225 5.64.234 2.146zM12.28 2.131C12.256 1.115 13.157.23 14.116.25c1.235-.031 2.472.01 3.709-.012 1.211-.017 2.471.068 3.571.65 2.087 1.024 2.37 4.709.25 5.865.901.417 1.714 1.128 2.013 2.14.394 1.487.063 3.256-1.058 4.318-1.082 1.06-2.632 1.393-4.072 1.371-1.469-.019-2.937.02-4.406-.014-.984.01-1.885-.924-1.844-1.96-.004-3.49-.006-6.984.003-10.476zm3.992 1.551v2.064c.75-.027 1.55.12 2.26-.191.672-.261.63-1.454-.048-1.677-.711-.247-1.473-.176-2.212-.196zm0 5.03v2.354c.935-.031 1.887.104 2.81-.087.898-.256.917-1.814.032-2.102-.92-.29-1.897-.136-2.842-.165zM25.933.714c.831-.76 2.015-.392 3.016-.472 1.957.1 4.164-.411 5.862.895 2.72 1.991 2.67 6.823-.102 8.739-1.591 1.205-3.641.743-5.469.83-.011.863.063 1.734-.053 2.593-.338 1.432-2.237 1.957-3.263.99-.559-.46-.698-1.241-.681-1.943.007-3.23.007-6.462 0-9.694-.024-.704.139-1.479.69-1.938zm3.31 3.099v3.382c.806-.01 1.614.053 2.418-.036 1.577-.232 1.487-3.247-.13-3.33-.762-.055-1.526-.014-2.288-.016zM67.695 2.402c-.074-1.149.873-2.245 1.997-2.16 2.41.005 4.822-.012 7.233.007 1.13-.031 1.902 1.333 1.566 2.398-.201.818-.996 1.396-1.8 1.343-1.667.014-3.335-.005-5.003.002v1.573c1.427.026 2.856-.051 4.283.029 1.056.065 1.726 1.347 1.371 2.346-.206.712-.887 1.22-1.598 1.188-1.35.024-2.703-.007-4.056.005v1.694c1.744.014 3.49-.027 5.235.012 1.03.02 1.827 1.159 1.614 2.194-.115.82-.813 1.556-1.635 1.534-2.406.024-4.815.005-7.224.01-1.052.046-2.004-.922-1.978-2.023-.017-3.382-.005-6.77-.005-10.152zM79.916 3.368C78.954 2.338 79.63.302 81.04.252c3.102-.017 6.208-.017 9.312 0 1.593.002 2.19 2.453.926 3.367-1.056.683-2.376.264-3.55.373-.005 2.87.002 5.739 0 8.608.03.852-.448 1.713-1.217 2.03-1.197.554-2.805-.368-2.775-1.793-.016-2.947.003-5.898-.004-8.845-1.256-.15-2.828.443-3.817-.624z"/></g></svg>