<svg width="104" height="37" viewBox="0 0 104 37" xmlns="http://www.w3.org/2000/svg"><title>A428C333-47A4-4C24-8278-D2E69D366135</title><g fill="#4A4A4A" fill-rule="evenodd"><path d="M13.876.157c3.416-.396 6.965.356 9.898 2.115 2.964 1.766 5.307 4.519 6.501 7.708a15.104 15.104 0 0 1 .502 9.081 15.214 15.214 0 0 1-5.63 8.347 15.63 15.63 0 0 1-8.28 3.09c-3.567.286-7.221-.685-10.144-2.704-3.256-2.208-5.582-5.68-6.339-9.485-.624-3.145-.267-6.491 1.129-9.399C3.708 4.154 8.565.698 13.876.157zm-.825 1.79A14.048 14.048 0 0 0 4.867 6.76c-2.337 2.8-3.471 6.543-3.009 10.136.356 2.997 1.776 5.862 3.965 7.99 2.25 2.246 5.333 3.673 8.536 3.963a14.094 14.094 0 0 0 8.724-2.05c2.97-1.831 5.192-4.795 6.055-8.127.73-2.771.53-5.77-.569-8.424-1.313-3.203-3.917-5.875-7.128-7.31a14.169 14.169 0 0 0-8.39-.992z"/><path d="M17.62 3.547c.693-.179 1.365-.577 2.095-.533.446.207.078.746.105 1.104.563.23 1.12.49 1.722.614.555.508 1.143 1.021 1.48 1.703.364.722.15 1.596.54 2.302.598.61 1.47.867 2.12 1.426-.192.446-.317.923-.562 1.345-.29.45-.894.324-1.35.348-.146.066-.29.135-.432.201a68.849 68.849 0 0 1-.131-.356c-.563-.078-1.137-.118-1.686.067.44.27.85.585 1.199.963l.363-.211c.118.287.245.569.391.844-.13.217-.245.449-.428.63-1.2-.403-2.433-.706-3.703-.78l.337-.399c-1.996.04-4.064-.026-5.973.62-.487.116-.623.56-.66.997-.96.235-1.973.446-2.779 1.04-.688.575-.762 1.53-.93 2.34.986-.84 2.342-.935 3.592-.95.52-.041.907.33 1.233.67-.567-.064-1.186-.486-1.722-.1-.37.238-.798.292-1.231.264.787.434 1.658-.155 2.46.239-1.147.322-2.304.617-3.482.808 1.15.692 2.528.19 3.786.316.89.002 1.914.42 2.158 1.335.23.72-.133 1.414-.49 2.021.41-.312.8-.645 1.175-.997.275 1.472-.216 3.145-1.57 3.957-1.215.607-2.67.708-3.99.414-1.317-.402-2.507-1.164-3.49-2.103 2.09.145 4.23.024 6.207-.704-2.719.032-5.504-.338-7.966-1.516-.851-1-1.236-2.323-1.575-3.565 1.727 1.22 3.642 2.222 5.73 2.696-2.47-1.357-4.667-3.267-6.007-5.74.103-1.161.314-2.315.72-3.415.638 1.504 1.372 2.996 2.52 4.197-.8-2.138-1.417-4.426-1.09-6.719.436-.824 1.18-1.444 1.841-2.095-.244 1.544-.267 3.123.002 4.665a13.716 13.716 0 0 1 1.747-5.192c.286-.448.514-1.013 1.055-1.223.573-.267 1.186-.442 1.786-.65a13.413 13.413 0 0 0-1.365 2.247c1.82-1.47 3.988-2.483 6.248-3.125zm-.244 1.949l1.087-.191c-.01-.113-.035-.336-.045-.447.185-.31.372-.621.555-.935a6.182 6.182 0 0 0-1.597 1.573zm-3.439 5.622c.45-.207.903-.41 1.357-.61a20.58 20.58 0 0 0-.457 2.084c.599-.014 1.195-.07 1.793-.109-.298-.23-.9-.33-.824-.814.028-.635.267-1.235.431-1.842-.316.075-.63.153-.945.231.557-1.256 1.29-2.425 2.076-3.555a14.934 14.934 0 0 0-3.43 4.615zm8.657-3.83l-.368.649a42.12 42.12 0 0 0-1.41-.243c.385.47.77.945 1.156 1.415-.11-.32-.218-.641-.325-.961.283.089.567.179.849.272.037-.379.067-.755.098-1.133zM92.52 4.307c.297.008.593.018.889.024.205.475.458 1.149-.078 1.513-.73.492-1.793.46-2.56.062-.595-.346-.383-1.082-.147-1.577.296-.006.592-.012.89-.02-.08.34-.385.783-.004 1.056.339.16.75.145 1.075-.046.281-.302-.002-.68-.064-1.012zM35.087 5.47c1.979.146 4.065-.318 5.96.41 2.191.846 2.368 4.168.528 5.453-1.184.849-2.72.797-4.117.782.017.996-.131 2.044.327 2.97-.906-.005-1.813-.005-2.717.003.393-.823.276-1.742.286-2.619-.004-1.874-.002-3.746.004-5.62.02-.475-.103-.937-.271-1.38zm2.371 1.21c-.002 1.412.003 2.821-.004 4.233.907-.002 1.986.095 2.662-.623.703-.847.724-2.224-.014-3.057-.7-.676-1.75-.54-2.644-.553zM52.203 9.66c.453-1.699 2.122-2.922 3.897-2.984 1.186-.165 2.362.459 3.53.083-.276.597-.537 1.2-.78 1.81-1.025-1.01-2.955-1.298-3.93-.077-.764.943-.795 2.232-.667 3.376.102.885.592 1.826 1.516 2.102 1.295.402 2.631-.244 3.52-1.153.083.332.322.66.297 1.006-1.502 1.675-4.445 1.916-6.211.514-1.342-1.132-1.56-3.076-1.172-4.677zM60.193 9.612c.462-1.69 2.145-2.882 3.909-2.938 1.171-.145 2.324.424 3.486.115-.274.589-.524 1.188-.773 1.787-.64-.533-1.422-.979-2.294-.886-1.023.016-1.874.81-2.137 1.745-.321 1.106-.33 2.347.125 3.418.32.779 1.161 1.27 2.01 1.231 1.059.03 2.012-.527 2.715-1.259.134.332.267.664.403.996-.736.635-1.574 1.222-2.58 1.333-1.358.227-2.908.008-3.91-.993-1.17-1.18-1.357-3.017-.954-4.549z"/><path d="M43.314 6.785c.987.004 1.975.004 2.964-.002-.074.464-.107.949.11 1.385.599 1.42 1.238 2.823 1.824 4.25.545-1.43 1.087-2.86 1.626-4.294.168-.426.15-.89.14-1.34.688.005 1.377.005 2.065-.001-.288.426-.557.868-.738 1.349-.814 2.1-1.625 4.2-2.45 6.294-.407.971-.929 2.013-1.928 2.51-1.21.58-2.702.295-3.722-.531l.619-1.213c.464.503 1.036 1.054 1.798.955.787.03 1.266-.663 1.606-1.257-.732-1.558-1.427-3.13-2.144-4.693-.54-1.16-.989-2.377-1.77-3.412zM68.57 6.783c.863.008 1.729.008 2.594-.004-.487 1.275-.162 2.664-.257 3.991.956-.981 1.928-1.946 2.89-2.922.294-.293.442-.683.596-1.057.849-.006 1.698-.006 2.546.004-1.46 1.09-2.674 2.451-3.983 3.704.964 1.124 1.895 2.272 2.855 3.398.384.469.865.843 1.363 1.19-1.104-.012-2.206-.003-3.31-.005-.119-.405-.254-.817-.544-1.139-.804-.955-1.613-1.906-2.409-2.871.095 1.333-.25 2.74.265 4.016a126.49 126.49 0 0 0-2.62 0c.185-.453.327-.925.302-1.418-.004-1.81-.006-3.62.002-5.43.02-.504-.113-.99-.29-1.457zM77.982 6.779c.865.012 1.728.012 2.593.002-.141.408-.281.824-.267 1.26-.002 1.285.006 2.568.006 3.851 1.19-1.224 2.356-2.473 3.533-3.71a4.832 4.832 0 0 0-.302-1.403c.864.012 1.727.012 2.59.002-.386.915-.265 1.912-.273 2.875.004 1.337-.004 2.677-.007 4.014-.02.489.122.963.292 1.418-.873-.01-1.745-.01-2.618 0 .156-.387.302-.787.281-1.209.002-1.303-.006-2.604-.006-3.907-1.175 1.239-2.337 2.49-3.53 3.71.042.479.139.951.301 1.406-.87-.01-1.738-.01-2.606 0 .154-.389.308-.789.29-1.213 0-1.947-.002-3.893.002-5.84.02-.436-.134-.85-.28-1.256zM87.907 6.779a92.65 92.65 0 0 0 2.59 0c-.15.4-.288.814-.27 1.246-.002 1.291.002 2.582.008 3.875l3.525-3.712a5.17 5.17 0 0 0-.287-1.41c.863.013 1.726.013 2.591.005-.41.9-.269 1.902-.285 2.857.008 1.416-.015 2.83.002 4.243-.006.42.15.814.294 1.205a126.29 126.29 0 0 0-2.619 0c.364-.76.263-1.61.27-2.42-.007-.9 0-1.8-.007-2.698-1.17 1.24-2.333 2.487-3.525 3.706.03.485.122.963.313 1.412-.872-.01-1.743-.01-2.613 0 .374-.755.278-1.605.282-2.415-.008-1.545.002-3.09.002-4.634.016-.438-.121-.854-.271-1.26zM13.563 15.114c-.415-.415.158-.933.352-1.32.096.1.287.3.384.399a44.024 44.024 0 0 1 2.575-.228c-.764.698-1.825 1.22-2.063 2.303-.703-.352-.278-.995-.025-1.474-.4.125-.795.318-1.223.32zM23.207 14.062c.937.06 1.872-.008 2.803-.119-.298.212-.596.42-.902.618.795.18 1.574.412 2.35.665-.025.541-.062 1.084-.106 1.625-1.235-1.118-2.622-2.08-4.145-2.789zM15.014 16.238c.915-.453 1.938-.03 2.851.221 1.698.51 2.894 1.858 4.004 3.135-.385-.08-.769-.163-1.151-.245 1.13 1.359 2.635 2.491 3.227 4.208-.6.537-1.246 1.022-1.906 1.488.33-1.063.325-2.22-.12-3.253-1.164-2.832-3.918-4.848-6.905-5.554zM20.701 16.242c2.267.474 4.195 1.838 5.953 3.253-.276.64-.592 1.261-.938 1.868-.873-2.304-2.803-4.047-5.015-5.121zM35.814 18.363c1.427-1.108 3.365-1.184 5.087-.87.685.158 1.39.11 2.041-.163-.397.708-.74 1.44-1.1 2.165-.563-.492-1.194-.973-1.973-1.051-1.22-.248-2.55.344-3.118 1.437-.66 1.28-.674 2.822-.269 4.18.3 1.033 1.272 1.829 2.374 1.903 1.293.21 2.493-.48 3.391-1.325.187.33.377.662.566.992-.812.643-1.698 1.27-2.759 1.427-1.806.302-3.948-.02-5.134-1.52-1.605-2.127-1.326-5.544.894-7.175z"/><path d="M43.505 18.761c2.56-.02 5.118-.008 7.677-.006-.222.491-.448.98-.658 1.476-.756-.488-1.677-.376-2.532-.376 0 1.963-.004 3.926-.004 5.886-.01.439.136.855.28 1.263a74.121 74.121 0 0 0-2.59.002c.137-.408.283-.822.265-1.259-.006-1.964-.006-3.927-.006-5.89-1.05-.024-2.136-.058-3.11.388.234-.49.46-.987.678-1.484zM53.017 18.753c.825-.002 1.649-.002 2.473-.002l2.33 5.323c.455 1.004.786 2.085 1.536 2.928-.976-.01-1.955-.012-2.93.004.102-.621-.097-1.213-.352-1.772-1.215.002-2.43 0-3.644.004-.235.56-.434 1.15-.319 1.766-.662-.01-1.324-.01-1.983-.004.322-.465.63-.94.853-1.456.88-2.007 1.771-4.006 2.65-6.012-.203-.26-.408-.52-.614-.779zm-.127 5.424c.915.006 1.83.004 2.746.006-.438-1.12-.882-2.238-1.328-3.356-.491 1.11-.941 2.236-1.418 3.35zM60.08 18.73c.855.031 1.712.031 2.569.003-.44 1.098-.226 2.29-.267 3.437h3.543c-.045-1.144.177-2.347-.294-3.433.857.022 1.716.022 2.575 0-.174.507-.306 1.032-.283 1.57.008 1.744.004 3.486.002 5.229-.019.505.127.993.294 1.468a69.38 69.38 0 0 0-2.588.004c.497-1.184.23-2.487.296-3.73-1.182-.006-2.366-.002-3.548-.002.062 1.24-.203 2.538.278 3.726-.86-.01-1.718-.012-2.577.006.14-.412.269-.833.25-1.269-.006-1.878-.01-3.756.002-5.634.023-.475-.102-.931-.252-1.376zM70.453 18.743c2.178.01 4.36.024 6.54-.008-.405.807-.261 1.72-.28 2.584.025 1.331-.043 2.667.025 3.998.006.575.565.863 1.003 1.122 0 .466.002.93.006 1.397-.633-.398-1.303-.836-2.086-.83a201.385 201.385 0 0 0-4.544-.004c-.806-.002-1.511.418-2.167.826.004-.476.007-.953.009-1.43.534-.299 1.132-.607 1.4-1.184.503-1.027.31-2.198.345-3.296-.05-1.06.17-2.165-.251-3.175zm1.654 1.098c-.17 2.017.366 4.167-.54 6.067.993-.05 1.991.04 2.982-.06.154-.272.093-.602.117-.9-.01-1.712-.004-3.428-.006-5.14-.85-.005-1.702-.015-2.553.033zM81.192 18.74c.826.015 1.652.013 2.48.01 1.022 2.322 2.031 4.65 3.05 6.975.2.465.504.873.802 1.281-.978-.016-1.954-.014-2.93-.004.131-.617-.095-1.207-.325-1.768-1.221.004-2.442-.004-3.663.006-.228.561-.409 1.15-.304 1.76a110.72 110.72 0 0 0-2.002 0c.325-.453.633-.919.853-1.432.884-2.013 1.78-4.022 2.666-6.034-.21-.266-.417-.531-.627-.795zm-.117 5.44h2.75c-.444-1.125-.892-2.25-1.342-3.372-.467 1.125-.938 2.249-1.408 3.373zM88.108 18.737c1.862.147 3.819-.29 5.611.366 1.87.672 2.04 3.443.535 4.567-1.067.847-2.516.838-3.817.816 0 .843-.103 1.72.253 2.518a90.602 90.602 0 0 0-2.561 0c.135-.406.265-.82.253-1.253 0-1.884-.009-3.768.004-5.652.022-.47-.103-.927-.278-1.362zm2.333 1c-.01 1.25-.008 2.501-.002 3.752.647-.032 1.363.078 1.942-.274.905-.56.97-1.852.537-2.716-.52-.815-1.63-.714-2.477-.762zM96.184 18.747c2.55.008 5.1.004 7.652.002-.224.495-.45.988-.673 1.482-.744-.49-1.656-.378-2.503-.376 0 1.963 0 3.926-.004 5.886-.02.436.117.853.257 1.261-.857-.01-1.712-.01-2.57.002.136-.408.28-.824.266-1.259-.002-1.962-.006-3.925-.002-5.888-1.057-.026-2.15-.058-3.128.398.24-.5.47-1.005.705-1.508zM19.351 23.921c.273-.812.337-1.67.5-2.507.265 1.616.154 3.29-.412 4.836a24.17 24.17 0 0 1-2.386.505 4.8 4.8 0 0 0 2.298-2.834zM35.033 30.802c1.542.033 3.085 0 4.627.023-.142.335-.286.671-.426 1.01-.787-.264-1.623-.226-2.441-.216-.002.515-.002 1.031-.002 1.546.78.028 1.621-.036 2.326.354 1.207.622 1.08 2.703-.249 3.115-1.225.394-2.538.143-3.802.221.292-1 .16-2.045.183-3.068-.02-.996.12-2.021-.216-2.985zm1.762 3.095a73.99 73.99 0 0 0 .006 2.24c.386-.054.785-.078 1.159-.207.545-.261.588-.99.382-1.478-.296-.559-1.005-.494-1.547-.555zM42.231 30.805c.631.014 1.264.014 1.897.016.95 2.002 1.648 4.126 2.787 6.036-.703-.012-1.408-.01-2.11-.008a6.044 6.044 0 0 0-.245-1.25c-.898-.01-1.799-.003-2.697-.017-.134.415-.23.839-.26 1.273a82.929 82.929 0 0 0-1.415-.004c.952-1.558 1.533-3.3 2.318-4.94.317-.403-.065-.769-.275-1.106zm1 1.562c-.332.808-.671 1.615-1.01 2.421h1.967c-.319-.806-.642-1.613-.956-2.421zM47.534 30.796c.637.025 1.274.025 1.913.004-.236.825-.176 1.686-.168 2.53h2.618c-.01-.844.105-1.721-.211-2.53.639.02 1.28.02 1.921-.002-.285 1.036-.137 2.114-.168 3.172.018.96-.095 1.942.154 2.885a64.003 64.003 0 0 0-1.864.002c.246-.87.166-1.78.166-2.672H49.28c-.002.89-.07 1.793.144 2.67a56.978 56.978 0 0 0-1.854.004c.273-1.074.14-2.186.166-3.277-.018-.932.111-1.889-.201-2.786zM54.935 30.796c.631.025 1.264.025 1.897.01-.24.952-.148 1.937-.15 2.904.808-.985 1.992-1.695 2.508-2.89.651-.003 1.303-.003 1.956-.01-1.091.787-1.975 1.794-2.947 2.707 1.021 1.11 1.825 2.43 3.05 3.346-.802-.02-1.603-.014-2.405-.02-.48-1.11-1.438-1.914-2.168-2.861.012.959-.086 1.932.15 2.873a57.853 57.853 0 0 0-1.868.004c.277-1.01.158-2.057.176-3.086-.018-.994.11-2.013-.199-2.977z"/></g></svg>