<svg width="37" height="33" viewBox="0 0 37 33" xmlns="http://www.w3.org/2000/svg" xmlns:xlink="http://www.w3.org/1999/xlink"><title>05C5C554-016F-462F-8C2D-5A080FFC3496</title><defs><path id="a" d="M0 13.223h36.3V.03H0z"/><linearGradient x1="12.957%" y1="80.245%" y2="15.021%" id="b"><stop stop-color="#F8A56F" offset="0%"/><stop stop-color="#F68C61" offset="44.626%"/><stop stop-color="#F68C61" offset="44.723%"/><stop stop-color="#F26C51" offset="100%"/></linearGradient><path id="d" d="M33.59 16.271V.017H.541v16.254z"/><linearGradient x1="12.957%" y1="80.245%" y2="15.021%" id="e"><stop stop-color="#F8A56F" offset="0%"/><stop stop-color="#F26C51" offset="100%"/></linearGradient><path id="g" d="M5.183 8.728V0H0v8.728h5.183H0z"/><path id="i" d="M9.8.034H.467v3.523h9.335V.034z"/></defs><g fill="none" fill-rule="evenodd"><g transform="translate(0 5.933)"><mask id="c" fill="#fff"><use xlink:href="#a"/></mask><path d="M35.757.029H.542C.242.029 0 .272 0 .57v8.667c0 .2.11.383.285.477.183.1 4.578 2.432 11.799 3.425a.543.543 0 0 0 .147-1.074c-5.998-.825-10.068-2.64-11.146-3.163v-7.79h34.13v7.801c-1.042.541-5.054 2.446-11.239 3.228a.543.543 0 0 0 .136 1.077c7.445-.942 11.74-3.408 11.918-3.513a.542.542 0 0 0 .27-.468V.57c0-.3-.244-.542-.543-.542" fill="url(#b)" mask="url(#c)"/></g><g transform="translate(1 16)"><mask id="f" fill="#fff"><use xlink:href="#d"/></mask><path d="M33.047.017c-.3 0-.542.243-.542.543v14.627H1.625V.56a.543.543 0 0 0-1.084 0v15.169c0 .3.243.542.542.542h31.964c.3 0 .542-.243.542-.542V.559c0-.299-.243-.542-.542-.542" fill="url(#e)" mask="url(#f)"/></g><g transform="translate(15 14)"><mask id="h" fill="#fff"><use xlink:href="#g"/></mask><path d="M3.09 6.933V4.679c1.03.267 1.239.62 1.239 1.128 0 .604-.5 1.05-1.238 1.126zm-.785-3.304c-1.001-.278-1.2-.62-1.2-1.134 0-.572.495-1.01 1.2-1.087v2.22zm.786.184V1.455c.41.08.783.26 1.156.556a.411.411 0 0 0 .291.112c.238 0 .432-.19.432-.422 0-.182-.104-.287-.208-.368C4.212.926 3.71.713 3.11.638V.412A.418.418 0 0 0 2.698 0a.412.412 0 0 0-.412.412V.61C1.096.708.251 1.496.251 2.533c0 1.029.617 1.621 2.054 1.965v2.41c-.593-.097-1.101-.357-1.581-.802a.427.427 0 0 0-.302-.12.433.433 0 0 0-.422.422.43.43 0 0 0 .169.339c.648.562 1.325.872 2.117.966v.602c0 .228.185.413.412.413a.418.418 0 0 0 .413-.413V7.73c1.228-.105 2.072-.893 2.072-1.962 0-1.016-.647-1.622-2.092-1.955z" fill="url(#e)" mask="url(#h)"/></g><g transform="translate(13.017 .509)"><mask id="j" fill="#fff"><use xlink:href="#i"/></mask><path d="M8.248 2.472h-6.23c-.248 0-.467-.316-.467-.676 0-.362.219-.678.468-.678h6.23c.248 0 .467.316.467.678 0 .36-.219.676-.468.676m0-2.439h-6.23C1.163.033.467.823.467 1.796c0 .971.696 1.76 1.553 1.76h6.23c.855 0 1.552-.789 1.552-1.76C9.8.824 9.104.033 8.248.033" fill="url(#e)" mask="url(#j)"/></g><path d="M14.087 1.627H11.92c-.3 0-.542.243-.542.542V5.96a.542.542 0 1 0 1.084 0V2.712h1.625a.543.543 0 0 0 0-1.085M24.38 1.627h-1.625a.543.543 0 0 0 0 1.085h1.083v3.792a.542.542 0 1 0 1.085 0V2.169c0-.299-.243-.542-.543-.542" fill="url(#e)"/></g></svg>