<svg width="568" height="269" viewBox="0 0 568 269" xmlns="http://www.w3.org/2000/svg"><title>BB32A545-DD76-422F-8B3F-E084654EA38D</title><defs><linearGradient x1="12.957%" y1="80.245%" y2="15.021%" id="a"><stop stop-color="#F8A56F" offset="0%"/><stop stop-color="#F26C51" offset="100%"/></linearGradient></defs><g fill="none" fill-rule="evenodd"><path d="M181.18 14.393c-5.995 0-10.857 5.029-10.857 11.23 0 3.268 1.35 6.208 3.5 8.259.04.038 5.886 6.039 6.631 6.787.672.675.729.689 1.434.003.59-.573 6.612-6.757 6.63-6.773 2.163-2.052 3.518-5 3.518-8.275 0-6.202-4.86-11.23-10.857-11.23"/><path d="M181.18 15.066c-5.615 0-10.184 4.736-10.184 10.558 0 2.943 1.2 5.776 3.292 7.77l1.258 1.29c1.768 1.813 4.857 4.98 5.385 5.51.062.063.157.157.237.232.09-.08.194-.18.251-.237.444-.43 4.158-4.239 5.744-5.865.89-.912.89-.912.916-.935 2.078-1.974 3.284-4.813 3.284-7.765 0-5.822-4.569-10.558-10.184-10.558m-.017 26.784c-.36 0-.716-.235-1.185-.706-.529-.531-3.624-3.705-5.395-5.52l-1.235-1.266c-2.346-2.237-3.697-5.425-3.697-8.734 0-6.564 5.172-11.904 11.53-11.904 6.357 0 11.53 5.34 11.53 11.904 0 3.32-1.359 6.514-3.727 8.763l-.856.877c-1.724 1.768-5.312 5.447-5.77 5.89-.476.464-.837.696-1.195.696" fill="#F8A56F"/><path d="M185.98 25.464a4.801 4.801 0 0 0-9.602 0 4.8 4.8 0 1 0 9.602 0" fill="#FEFEFE"/><path d="M181.179 21.338a4.131 4.131 0 0 0-4.127 4.126 4.131 4.131 0 0 0 4.127 4.126 4.132 4.132 0 0 0 4.128-4.126 4.132 4.132 0 0 0-4.128-4.126m0 9.599a5.48 5.48 0 0 1-5.473-5.473 5.48 5.48 0 0 1 5.473-5.472 5.48 5.48 0 0 1 5.474 5.472 5.48 5.48 0 0 1-5.474 5.473M251.565 81.02c-4.909 4.512-6.887 9.227-5.59 10.636 1.296 1.409 6.16-.164 11.07-4.675 2.298-2.112 4.129-4.439 5.156-6.553.907-1.867 1.07-3.393.435-4.083-.634-.69-2.169-.656-4.107.09-2.193.846-4.666 2.475-6.964 4.585m-4.103 12.48c-1.044 0-1.898-.301-2.48-.933-2.08-2.264.358-7.653 5.672-12.538 2.418-2.222 5.043-3.945 7.391-4.85 2.547-.982 4.53-.89 5.582.255 1.054 1.146.978 3.128-.214 5.582-1.1 2.262-3.038 4.732-5.456 6.956-3.831 3.52-7.798 5.528-10.495 5.528" fill="#F8A56F"/><path d="M247.449 75.85c-.661 0-1.171.165-1.475.495-1.295 1.409.682 6.123 5.591 10.636 2.297 2.11 4.77 3.739 6.964 4.585 1.938.746 3.473.781 4.107.09 1.296-1.409-.681-6.124-5.59-10.635-2.297-2.112-4.771-3.74-6.965-4.586-1.01-.39-1.911-.584-2.632-.584m13.714 17.646c-.897 0-1.947-.225-3.118-.676-2.348-.905-4.972-2.628-7.39-4.85-5.315-4.885-7.753-10.274-5.673-12.537 1.054-1.146 3.037-1.236 5.584-.254 2.348.905 4.972 2.627 7.39 4.85 5.315 4.883 7.753 10.274 5.671 12.537-.569.62-1.409.93-2.464.93" fill="#F8A56F"/><path d="M254.306 82.569a1.293 1.293 0 0 0 0 2.583 1.293 1.293 0 0 0 0-2.583m0 3.93a2.641 2.641 0 0 1-2.64-2.639 2.641 2.641 0 0 1 2.64-2.637 2.64 2.64 0 0 1 2.638 2.637 2.64 2.64 0 0 1-2.638 2.638M376.804 244.89h-22.022a.673.673 0 1 1 0-1.345h22.022c.213-.002 5.257-.086 5.257-5.255v-30.48c0-6.525 6.537-6.6 6.602-6.6h1.694c.066 0 6.603.075 6.603 6.6a555.5 555.5 0 0 1-.01 3.96c-.008 1.023-.012 1.49-.68 1.499-.074.005-.67-.018-.69-.766a.7.7 0 0 1 .017-.17c.008-.388.016-1.483.016-4.524 0-5.168-5.043-5.252-5.257-5.254h-1.693c-.213.002-5.256.086-5.256 5.254v30.481c0 6.525-6.537 6.6-6.603 6.6" fill="#F8A56F"/><path d="M401.001 221.204v-3.705a4.61 4.61 0 0 0-4.611-4.609 4.609 4.609 0 0 0-4.61 4.609v3.705H401z" fill="#FFF"/><path d="M392.452 220.531h7.876V217.5a3.942 3.942 0 0 0-3.938-3.936 3.942 3.942 0 0 0-3.938 3.936v3.032zm8.55 1.346h-9.223a.673.673 0 0 1-.673-.673V217.5a5.29 5.29 0 0 1 5.284-5.282 5.29 5.29 0 0 1 5.284 5.282v3.705a.673.673 0 0 1-.673.673z" fill="#F8A56F"/><path d="M403.117 221.877H389.51a.673.673 0 1 1 0-1.346h13.607a.673.673 0 1 1 0 1.346" fill="#F8A56F"/><path d="M393.139 226.333a.673.673 0 0 1-.673-.673v-4.534a.673.673 0 1 1 1.346 0v4.534a.673.673 0 0 1-.673.673M399.488 226.333a.673.673 0 0 1-.673-.673v-4.534a.673.673 0 1 1 1.347 0v4.534a.673.673 0 0 1-.674.673M566.58 268.663H1.42c-.784 0-1.42-.301-1.42-.673 0-.372.636-.673 1.42-.673h565.16c.785 0 1.42.3 1.42.673 0 .372-.635.673-1.42.673" fill="#F8A56F"/><path fill="#F6F7FB" d="M308.52 267.99h60.597V130.02H308.52z"/><path d="M309.193 267.317h59.25V130.693h-59.25v136.624zm59.923 1.346H308.52a.673.673 0 0 1-.673-.673V130.02c0-.372.301-.673.673-.673h60.596c.372 0 .673.301.673.673v137.97a.673.673 0 0 1-.673.673z" fill="#F8A56F"/><path d="M323.333 267.99a.673.673 0 0 1-.674-.673V130.02a.673.673 0 1 1 1.347 0v137.297a.673.673 0 0 1-.673.673M338.818 267.99a.673.673 0 0 1-.673-.673V130.02a.673.673 0 1 1 1.346 0v137.297a.673.673 0 0 1-.673.673M354.304 268.663a.673.673 0 0 1-.673-.673V130.693a.673.673 0 1 1 1.346 0V267.99a.673.673 0 0 1-.673.673" fill="#F8A56F"/><path fill="#FEFEFE" d="M308.52 158.287h60.597v-2.692H308.52z"/><path d="M309.193 157.614h59.25v-1.346h-59.25v1.346zm59.923 1.346H308.52a.673.673 0 0 1-.673-.673v-2.692c0-.372.301-.673.673-.673h60.596c.372 0 .673.3.673.673v2.692a.673.673 0 0 1-.673.673z" fill="url(#a)"/><path fill="#FEFEFE" d="M308.52 216.167h60.597v-2.692H308.52z"/><path d="M309.193 215.494h59.25v-1.346h-59.25v1.346zm59.923 1.346H308.52a.673.673 0 0 1-.673-.673v-2.692c0-.372.301-.673.673-.673h60.596c.372 0 .673.3.673.673v2.692a.673.673 0 0 1-.673.673z" fill="url(#a)"/><path fill="#FEFEFE" d="M308.52 245.78h60.597v-2.692H308.52z"/><path d="M309.193 245.107h59.25v-1.346h-59.25v1.346zm59.923 1.346H308.52a.673.673 0 0 1-.673-.673v-2.692c0-.372.301-.673.673-.673h60.596c.372 0 .673.3.673.673v2.692a.673.673 0 0 1-.673.673z" fill="url(#a)"/><path fill="#FEFEFE" d="M308.52 187.227h60.597v-2.692H308.52z"/><path d="M309.193 186.554h59.25v-1.346h-59.25v1.346zm59.923 1.346H308.52a.673.673 0 0 1-.673-.673v-2.692c0-.372.301-.673.673-.673h60.596c.372 0 .673.3.673.673v2.692a.673.673 0 0 1-.673.673z" fill="url(#a)"/><path fill="#FEFEFE" d="M308.52 130.02h63.29v-3.365h-63.29z"/><path d="M309.193 129.347h61.943v-2.02h-61.943v2.02zm62.616 1.346h-63.29a.673.673 0 0 1-.672-.673v-3.365c0-.372.301-.673.673-.673h63.289c.372 0 .673.301.673.673v3.365a.673.673 0 0 1-.673.673z" fill="url(#a)"/><path fill="#F6F7FB" d="M153.664 267.99h60.596V130.02h-60.596z"/><path d="M154.337 267.317h59.25V130.693h-59.25v136.624zm59.923 1.346h-60.596a.673.673 0 0 1-.673-.673V130.02c0-.372.3-.673.673-.673h60.596c.372 0 .673.301.673.673v137.97a.673.673 0 0 1-.673.673z" fill="#F8A56F"/><path d="M199.447 267.99a.673.673 0 0 1-.673-.673V130.02a.673.673 0 0 1 1.347 0v137.297a.673.673 0 0 1-.674.673M183.962 267.99a.673.673 0 0 1-.674-.673V130.02a.673.673 0 0 1 1.347 0v137.297a.673.673 0 0 1-.673.673M168.476 268.663a.673.673 0 0 1-.673-.673V130.693a.673.673 0 0 1 1.346 0V267.99a.673.673 0 0 1-.673.673" fill="#F8A56F"/><path fill="#FEFEFE" d="M153.664 158.287h60.596v-2.692h-60.596z"/><path d="M154.337 157.614h59.25v-1.346h-59.25v1.346zm59.923 1.346h-60.596a.673.673 0 0 1-.673-.673v-2.692c0-.372.3-.673.673-.673h60.596c.372 0 .673.3.673.673v2.692a.673.673 0 0 1-.673.673z" fill="#F8A56F"/><path fill="#FEFEFE" d="M153.664 216.167h60.596v-2.692h-60.596z"/><path d="M154.337 215.494h59.25v-1.346h-59.25v1.346zm59.923 1.346h-60.596a.673.673 0 0 1-.673-.673v-2.692c0-.372.3-.673.673-.673h60.596c.372 0 .673.3.673.673v2.692a.673.673 0 0 1-.673.673z" fill="url(#a)"/><path fill="#FEFEFE" d="M153.664 245.78h60.596v-2.692h-60.596z"/><path d="M154.337 245.107h59.25v-1.346h-59.25v1.346zm-.673 1.346a.673.673 0 0 1-.673-.673v-2.692c0-.372.3-.673.673-.673h60.596c.372 0 .673.3.673.673v2.692a.673.673 0 0 1-.673.673h-60.596z" fill="url(#a)"/><path fill="#FEFEFE" d="M153.664 187.227h60.596v-2.692h-60.596z"/><path d="M154.337 186.554h59.25v-1.346h-59.25v1.346zm59.923 1.346h-60.596a.673.673 0 0 1-.673-.673v-2.692c0-.372.3-.673.673-.673h60.596c.372 0 .673.3.673.673v2.692a.673.673 0 0 1-.673.673z" fill="url(#a)"/><path fill="#FEFEFE" d="M150.97 130.02h63.29v-3.365h-63.29z"/><path d="M151.644 129.347h61.943v-2.02h-61.943v2.02zm62.616 1.346h-63.29a.673.673 0 0 1-.672-.673v-3.365c0-.372.3-.673.673-.673h63.289c.372 0 .673.301.673.673v3.365a.673.673 0 0 1-.673.673z" fill="#F8A56F"/><path fill="#CFDEF8" d="M214.26 233.666h94.26V118.578h-94.26z"/><path fill="#E7EBF9" d="M214.26 267.317h94.26v-24.902h-94.26z"/><path fill="#FEFEFE" d="M243.841 267.99h35.011v-24.902h-35.011z"/><path d="M214.933 267.317h92.914V119.25h-92.914v148.066zm93.587 1.346h-94.26a.673.673 0 0 1-.673-.673V118.578c0-.371.3-.673.673-.673h94.26c.372 0 .673.302.673.673V267.99a.673.673 0 0 1-.673.673z" fill="#F8A56F"/><path d="M212.24 117.905h98.3v-3.365h-98.3v3.365zm98.973 1.346h-99.646a.673.673 0 0 1-.673-.673v-4.71c0-.372.3-.674.673-.674h99.646c.372 0 .673.302.673.673v4.711a.673.673 0 0 1-.673.673z" fill="url(#a)"/><path d="M216.28 113.194h90.22v-3.365h-90.22v3.365zm90.893 1.346h-91.566a.673.673 0 0 1-.674-.673v-4.711c0-.372.301-.673.674-.673h91.566c.373 0 .674.301.674.673v4.711a.673.673 0 0 1-.674.673z" fill="url(#a)"/><path d="M226.552 108.483h11.773l-1.709-7.403h-8.355l-1.71 7.403zm12.62 1.346h-13.467a.673.673 0 0 1-.655-.824l2.02-8.75a.673.673 0 0 1 .655-.521h9.426c.314 0 .586.216.657.521l2.02 8.75a.675.675 0 0 1-.656.824z" fill="#F8A56F"/><path d="M232.438 101.08a.673.673 0 0 1-.673-.673V88.965a.673.673 0 0 1 1.347 0v11.442a.673.673 0 0 1-.674.673" fill="#F8A56F"/><path d="M232.438 82.908a2.695 2.695 0 0 0-2.693 2.692 2.695 2.695 0 0 0 2.693 2.692 2.696 2.696 0 0 0 2.694-2.692 2.696 2.696 0 0 0-2.694-2.692m0 6.73a4.043 4.043 0 0 1-4.04-4.038 4.043 4.043 0 0 1 4.04-4.038 4.043 4.043 0 0 1 4.04 4.038 4.043 4.043 0 0 1-4.04 4.038" fill="#F8A56F"/><path fill="#FEFEFE" d="M214.26 243.088h94.26v-4.038h-94.26z"/><path d="M214.933 242.415h92.914v-2.692h-92.914v2.692zm93.587 1.346h-94.26a.673.673 0 0 1-.673-.673v-4.038c0-.372.3-.673.673-.673h94.26c.372 0 .673.3.673.673v4.038a.673.673 0 0 1-.673.673z" fill="url(#a)"/><path d="M244.557 267.317h16.16V243.76h-16.16v23.556zm16.833 1.346h-17.506a.673.673 0 0 1-.673-.673v-24.902c0-.372.301-.673.673-.673h17.506c.372 0 .673.3.673.673v24.902a.673.673 0 0 1-.673.673z" fill="#F8A56F"/><path d="M262.063 267.317h16.159V243.76h-16.16v23.556zm16.832 1.346H261.39a.673.673 0 0 1-.674-.673v-24.902c0-.372.302-.673.674-.673h17.505c.372 0 .673.3.673.673v24.902a.673.673 0 0 1-.673.673zM257.35 257.894a.673.673 0 0 1-.673-.673v-3.365a.673.673 0 1 1 1.346 0v3.365a.673.673 0 0 1-.673.673" fill="#F8A56F"/><path d="M265.43 257.894a.673.673 0 0 1-.674-.673v-3.365a.673.673 0 1 1 1.347 0v3.365a.673.673 0 0 1-.673.673" fill="#F8A56F"/><path d="M270.816 109.156l5.386-5.384" fill="#FEFEFE"/><path d="M270.816 109.829a.672.672 0 0 1-.476-1.149l5.386-5.384a.673.673 0 1 1 .952.952l-5.386 5.384a.672.672 0 0 1-.476.197" fill="url(#a)"/><path d="M286.975 109.156l-4.713-5.384" fill="#FEFEFE"/><path d="M286.975 109.829a.674.674 0 0 1-.507-.23l-4.713-5.384a.673.673 0 0 1 1.014-.887l4.713 5.384a.673.673 0 0 1-.507 1.117" fill="#F8A56F"/><path d="M282.717 101.737a3.366 3.366 0 1 0-6.733.002 3.366 3.366 0 0 0 6.733-.002" fill="#FEFEFE"/><path d="M279.35 99.045a2.695 2.695 0 0 0-2.693 2.692 2.695 2.695 0 0 0 2.693 2.692 2.695 2.695 0 0 0 2.694-2.692 2.695 2.695 0 0 0-2.694-2.692m0 6.73a4.043 4.043 0 0 1-4.04-4.038 4.043 4.043 0 0 1 4.04-4.038 4.043 4.043 0 0 1 4.04 4.038 4.043 4.043 0 0 1-4.04 4.038" fill="#F8A56F"/><path d="M278.439 94.739c3.704 8.116 13.29 11.693 21.408 7.99l-13.415-29.39c-8.12 3.703-11.698 13.284-7.993 21.4" fill="#FEFEFE"/><path d="M279.051 94.46c3.45 7.559 12.268 11.015 19.899 7.923l-12.845-28.14a15.371 15.371 0 0 0-7.473 8.377 15.37 15.37 0 0 0 .42 11.84m14.113 10.4c-6.392 0-12.516-3.658-15.34-9.842a16.708 16.708 0 0 1-.454-12.87 16.72 16.72 0 0 1 8.782-9.422.672.672 0 0 1 .892.333l13.415 29.39a.676.676 0 0 1-.333.892 16.744 16.744 0 0 1-6.962 1.518" fill="#F8A56F"/><path d="M293.14 88.707a.674.674 0 0 1-.28-1.285l4.288-1.956a.672.672 0 1 1 .559 1.224l-4.288 1.956a.664.664 0 0 1-.279.061" fill="#F8A56F"/><path d="M295.656 94.218a.672.672 0 0 1-.656-.828l1.772-7.467a.674.674 0 0 1 1.31.31L296.31 93.7a.674.674 0 0 1-.654.518" fill="#F8A56F"/><path d="M297.427 86.751a.673.673 0 0 1-.311-.076l-6.803-3.555a.672.672 0 1 1 .622-1.193l6.804 3.555a.672.672 0 0 1-.312 1.27" fill="#F8A56F"/><path d="M248.597 108.483h10.773v-2.02h-10.773v2.02zm11.446 1.346h-12.12a.673.673 0 0 1-.672-.673v-3.365c0-.372.301-.673.673-.673h12.119c.372 0 .673.301.673.673v3.365a.673.673 0 0 1-.673.673z" fill="url(#a)"/><path d="M253.984 106.464a.673.673 0 0 1-.674-.673V95.696a.673.673 0 0 1 1.347 0v10.095a.673.673 0 0 1-.673.673" fill="#F8A56F"/><path fill="#FEFEFE" d="M211.567 239.05h99.647v-4.711h-99.647z"/><path d="M212.24 238.377h98.3v-3.365h-98.3v3.365zm98.973 1.346h-99.646a.673.673 0 0 1-.673-.673v-4.711c0-.373.3-.673.673-.673h99.646c.372 0 .673.3.673.673v4.71a.673.673 0 0 1-.673.674z" fill="url(#a)"/><path d="M338.818 250.155v16.825" fill="#B7D660"/><path d="M338.818 267.653a.673.673 0 0 1-.673-.673v-16.825a.673.673 0 1 1 1.346 0v16.825a.673.673 0 0 1-.673.673" fill="#F8A56F"/><path d="M331.412 251.5a7.405 7.405 0 0 0 7.406 7.404 7.405 7.405 0 0 0 7.406-7.403v-14.134a7.405 7.405 0 0 0-7.406-7.403 7.405 7.405 0 0 0-7.406 7.403v14.134z" fill="#FFF"/><path d="M338.818 230.637c-3.712 0-6.733 3.02-6.733 6.73v14.134c0 3.71 3.02 6.73 6.733 6.73 3.713 0 6.733-3.02 6.733-6.73v-14.134c0-3.71-3.02-6.73-6.733-6.73m0 28.94c-4.455 0-8.08-3.623-8.08-8.076v-14.134c0-4.453 3.625-8.076 8.08-8.076s8.08 3.623 8.08 8.076v14.134c0 4.453-3.625 8.076-8.08 8.076M58.818 267.653a.673.673 0 0 1-.673-.673v-16.825a.673.673 0 1 1 1.346 0v16.825a.673.673 0 0 1-.673.673" fill="#F8A56F"/><path d="M51.412 251.5a7.405 7.405 0 0 0 7.406 7.404 7.405 7.405 0 0 0 7.406-7.403v-14.134a7.405 7.405 0 0 0-7.406-7.403 7.405 7.405 0 0 0-7.406 7.403v14.134z" fill="#FFF"/><path d="M58.818 230.637c-3.712 0-6.733 3.02-6.733 6.73v14.134c0 3.71 3.02 6.73 6.733 6.73 3.713 0 6.733-3.02 6.733-6.73v-14.134c0-3.71-3.02-6.73-6.733-6.73m0 28.94c-4.455 0-8.08-3.623-8.08-8.076v-14.134c0-4.453 3.625-8.076 8.08-8.076s8.08 3.623 8.08 8.076v14.134c0 4.453-3.625 8.076-8.08 8.076" fill="#F8A56F"/><path d="M229.745 239.723c0-8.55-6.932-15.48-15.485-15.48-8.553 0-15.486 6.93-15.486 15.48s6.933 15.48 15.486 15.48 15.485-6.93 15.485-15.48" fill="#FFF"/><path d="M210.22 248.472l4.04 2.692M214.26 251.164l4.04-2.692M214.26 245.107v22.883" fill="#FEFEFE"/><g fill="#F8A56F"><path d="M214.26 224.916c-8.168 0-14.813 6.642-14.813 14.807 0 8.164 6.645 14.806 14.813 14.806 8.167 0 14.812-6.642 14.812-14.806 0-8.165-6.645-14.807-14.812-14.807m0 30.96c-8.91 0-16.16-7.247-16.16-16.153 0-8.906 7.25-16.153 16.16-16.153s16.159 7.247 16.159 16.153c0 8.906-7.25 16.152-16.16 16.152"/><path d="M214.259 251.837a.676.676 0 0 1-.373-.113l-4.04-2.692a.674.674 0 0 1 .748-1.12l4.04 2.692a.674.674 0 0 1-.375 1.233"/><path d="M214.26 251.837a.673.673 0 0 1-.374-1.233l4.04-2.692a.674.674 0 0 1 .747 1.12l-4.04 2.692a.676.676 0 0 1-.373.113"/><path d="M214.26 268.663a.673.673 0 0 1-.674-.673v-22.883a.673.673 0 1 1 1.347 0v22.883a.673.673 0 0 1-.673.673"/></g><g fill="#F8A56F"><path d="M487.26 224.916c-8.168 0-14.813 6.642-14.813 14.807 0 8.164 6.645 14.806 14.813 14.806 8.167 0 14.812-6.642 14.812-14.806 0-8.165-6.645-14.807-14.812-14.807m0 30.96c-8.91 0-16.16-7.247-16.16-16.153 0-8.906 7.25-16.153 16.16-16.153s16.159 7.247 16.159 16.153c0 8.906-7.25 16.152-16.16 16.152"/><path d="M487.259 251.837a.676.676 0 0 1-.373-.113l-4.04-2.692a.674.674 0 0 1 .748-1.12l4.04 2.692a.674.674 0 0 1-.375 1.233"/><path d="M487.26 251.837a.673.673 0 0 1-.374-1.233l4.04-2.692a.674.674 0 0 1 .747 1.12l-4.04 2.692a.676.676 0 0 1-.373.113"/><path d="M487.26 268.663a.673.673 0 0 1-.674-.673v-22.883a.673.673 0 1 1 1.347 0v22.883a.673.673 0 0 1-.673.673"/></g><path d="M141.304 247.412l12.36 9.884" fill="#4D6AB4"/><path d="M153.663 257.969a.668.668 0 0 1-.42-.148l-12.36-9.883a.674.674 0 0 1 .842-1.052l12.36 9.884a.673.673 0 0 1-.422 1.199M153.664 251.118l8.651-5.56M153.664 251.791a.673.673 0 0 1-.365-1.239l8.653-5.558a.672.672 0 1 1 .728 1.131l-8.652 5.56a.668.668 0 0 1-.364.106" fill="#F8A56F"/><path d="M177.147 240.308c0-5.97-4.842-10.81-10.815-10.81-5.972 0-10.815 4.84-10.815 10.81 0 5.97 4.843 10.81 10.815 10.81 5.973 0 10.815-4.84 10.815-10.81" fill="#FFF"/><path d="M166.332 230.17c-5.591 0-10.14 4.549-10.14 10.139 0 5.588 4.549 10.136 10.14 10.136 5.593 0 10.142-4.548 10.142-10.136 0-5.59-4.55-10.138-10.142-10.138m0 21.62c-6.334 0-11.487-5.15-11.487-11.482 0-6.333 5.153-11.484 11.487-11.484 6.334 0 11.488 5.151 11.488 11.484 0 6.332-5.154 11.482-11.488 11.482" fill="#F8A56F"/><path d="M136.458 237.077a5.255 5.255 0 0 0-7.424.277 5.248 5.248 0 0 0 .277 7.42l9.964 9.246a5.255 5.255 0 0 0 7.424-.276 5.25 5.25 0 0 0-.277-7.421l-9.964-9.246z" fill="#FFF"/><path d="M132.886 236.35c-1.23 0-2.457.491-3.358 1.462a4.544 4.544 0 0 0-1.22 3.284 4.542 4.542 0 0 0 1.461 3.184l9.964 9.247a4.587 4.587 0 0 0 6.473-.241 4.583 4.583 0 0 0-.241-6.47L136 237.572a4.564 4.564 0 0 0-3.114-1.22m9.96 19.741a5.904 5.904 0 0 1-4.028-1.579l-9.965-9.246a5.884 5.884 0 0 1-1.89-4.121 5.886 5.886 0 0 1 1.578-4.251 5.936 5.936 0 0 1 8.375-.311l9.964 9.245a5.929 5.929 0 0 1 .312 8.372 5.91 5.91 0 0 1-4.345 1.891" fill="#F8A56F"/><path d="M153.664 243.088v24.091" fill="#4D6AB4"/><path d="M145.092 247.412h17.962s3.17 0 3.17-3.169v-19.011c0-3.168-3.17-3.168-3.17-3.168h-17.962s-3.17 0-3.17 3.168v19.011c0 3.169 3.17 3.169 3.17 3.169" fill="#FFF"/><path d="M145.094 246.739h17.96c.253-.003 2.497-.094 2.497-2.495v-19.012c0-2.425-2.241-2.495-2.497-2.495h-17.961c-.254.003-2.498.093-2.498 2.495v19.012c0 2.397 2.237 2.492 2.499 2.495m17.96 1.346h-17.961c-1.33 0-3.844-.802-3.844-3.841v-19.012c0-3.038 2.514-3.841 3.844-3.841h17.96c1.33 0 3.844.803 3.844 3.841v19.012c0 3.039-2.513 3.841-3.843 3.841" fill="#F8A56F"/><path d="M153.664 267.852a.673.673 0 0 1-.674-.673v-24.091a.673.673 0 1 1 1.347 0v24.091a.673.673 0 0 1-.673.673" fill="#F8A56F"/><path d="M455.092 247.412h17.962s3.17 0 3.17-3.169v-19.011c0-3.168-3.17-3.168-3.17-3.168h-17.962s-3.17 0-3.17 3.168v19.011c0 3.169 3.17 3.169 3.17 3.169" fill="#FFF"/><path d="M455.094 246.739h17.96c.253-.003 2.497-.094 2.497-2.495v-19.012c0-2.425-2.241-2.495-2.497-2.495h-17.961c-.254.003-2.498.093-2.498 2.495v19.012c0 2.397 2.237 2.492 2.499 2.495m17.96 1.346h-17.961c-1.33 0-3.844-.802-3.844-3.841v-19.012c0-3.038 2.514-3.841 3.844-3.841h17.96c1.33 0 3.844.803 3.844 3.841v19.012c0 3.039-2.513 3.841-3.843 3.841" fill="#F8A56F"/><path d="M463.664 267.852a.673.673 0 0 1-.674-.673v-24.091a.673.673 0 1 1 1.347 0v24.091a.673.673 0 0 1-.673.673" fill="#F8A56F"/><path fill="#E7EBF9" d="M242.175 119.251h-5.077l70.749 70.722v-5.076zM260.582 119.251h-8.885l56.15 56.128v-8.88z"/><path d="M293.035 234.339a.673.673 0 0 1-.674-.673V118.578a.673.673 0 1 1 1.347 0v115.088a.673.673 0 0 1-.673.673" fill="#F8A56F"/><path fill="#FEFEFE" d="M211.567 147.518h99.647v-3.365h-99.647z"/><path d="M212.24 146.845h98.3v-2.019h-98.3v2.02zm-.673 1.346a.673.673 0 0 1-.673-.673v-3.365c0-.371.3-.673.673-.673h99.646c.372 0 .673.302.673.673v3.365a.673.673 0 0 1-.673.673h-99.646z" fill="url(#a)"/><path fill="#E7EBF9" d="M214.933 159.823v14.576l59.29 59.267h14.582z"/><path d="M229.745 234.339a.673.673 0 0 1-.673-.673V118.578a.673.673 0 0 1 1.347 0v115.088a.673.673 0 0 1-.674.673M261.39 234.339a.673.673 0 0 1-.673-.673V118.578a.673.673 0 1 1 1.346 0v115.088a.673.673 0 0 1-.673.673" fill="#F8A56F"/><path fill="#FEFEFE" d="M211.567 177.805h99.647v-3.366h-99.647z"/><path d="M212.24 177.131h98.3v-2.019h-98.3v2.02zm98.973 1.347h-99.646a.673.673 0 0 1-.673-.673v-3.366c0-.372.3-.673.673-.673h99.646c.372 0 .673.301.673.673v3.366a.673.673 0 0 1-.673.673z" fill="url(#a)"/><path fill="#FEFEFE" d="M211.567 208.09h99.647v-3.365h-99.647z"/><path d="M212.24 207.418h98.3v-2.02h-98.3v2.02zm98.973 1.346h-99.646a.673.673 0 0 1-.673-.673v-3.366c0-.372.3-.673.673-.673h99.646c.372 0 .673.301.673.673v3.366a.673.673 0 0 1-.673.673zM214.933 121.943h92.914v-2.692h-92.914zM214.933 150.884h92.914v-2.693h-92.914zM214.933 181.17h92.914v-2.692h-92.914z" fill="url(#a)"/><path fill="url(#a)" d="M214.933 211.456h92.914v-2.692h-92.914z"/><path d="M183.923 75.726h-5.386a.673.673 0 0 1 0-1.346h5.386a.673.673 0 0 1 0 1.346M183.25 108.03h-4.04a.673.673 0 0 1 0-1.345h4.04a.673.673 0 0 1 0 1.346M182.636 111.373c-1.428 0-2.892-.003-4.324-.008a.672.672 0 0 1 .002-1.346h.002c3.772.013 7.776.01 10.712-.012 1.462-.012 2.37-.94 2.37-2.424v-1.458a.673.673 0 1 1 1.348 0v1.458c0 2.203-1.525 3.753-3.708 3.77-1.826.013-4.064.02-6.402.02M192.071 101.638a.673.673 0 0 1-.673-.673v-1.857a.673.673 0 0 1 1.347 0v1.857a.673.673 0 0 1-.674.673M192.07 93.674a.673.673 0 0 1-.673-.673v-1.178a.673.673 0 0 1 1.347 0v1.178a.673.673 0 0 1-.673.673M192.07 85.766a.673.673 0 0 1-.674-.673v-1.627a.673.673 0 0 1 1.347 0v1.627a.673.673 0 0 1-.674.673" fill="#F8A56F"/><path d="M192.07 77.858a.673.673 0 0 1-.674-.673v-2.221c0-1.157-1.038-1.848-2.042-1.848-5.084 0-15.41.037-16.706.066-.752.016-1.264.478-1.561.863a.674.674 0 0 1-1.067-.821c.673-.874 1.596-1.367 2.599-1.388 1.301-.029 11.646-.066 16.735-.066 1.666 0 3.389 1.194 3.389 3.194v2.22a.673.673 0 0 1-.674.674M189.764 87.027a.673.673 0 0 1-.673-.673l.003-5.174a.674.674 0 0 1 1.347.001l-.004 5.174a.673.673 0 0 1-.673.672M189.762 95.524a.673.673 0 0 1-.674-.673l.002-5.132a.673.673 0 0 1 1.347 0l-.002 5.132a.673.673 0 0 1-.673.673M189.372 104.195h-10.413a.673.673 0 1 1 0-1.346h10.128l.001-5.474a.673.673 0 0 1 1.347 0v5.718c0 .67-.418 1.102-1.063 1.102" fill="#F8A56F"/><path d="M172.207 96.565a.673.673 0 0 1-.673-.673c-.011-17.372 0-17.508.006-17.582.057-.613.504-.994 1.105-.945.256.008 5.614.004 15.906-.015l.87-.001c.277 0 .535.11.727.31.206.212.312.503.3.817a.673.673 0 1 1-1.3.219h-.595c-11.252.021-14.708.022-15.673.017-.004 1.034-.007 5.115 0 17.179a.674.674 0 0 1-.673.674z" fill="#F8A56F"/><path d="M163.46 116.84a.673.673 0 0 1-.674-.672c-.002-1.523-1.106-6.727-1.288-7.285-2.057-6.334-1.607-10.448-1.46-11.8.016-.142.029-.243.03-.301 0-.568.975-4.576 2.895-12.265.5-2.005.973-3.9 1.01-4.105.084-.539.26-.84.351-.967l4.238-6.57a.671.671 0 0 1 .673-.3c.09.015 2.22.38 3.094 2.376.866 1.98.144 4.744-2.147 8.216-.236.835-.347 6.904-.318 12.38a.673.673 0 0 1-.67.676h-.003c-.37 0-.672-.3-.674-.67-.023-4.501.006-12.18.476-13.026 2.052-3.096 2.769-5.513 2.102-7.036-.39-.893-1.183-1.3-1.668-1.474l-3.984 6.177a.736.736 0 0 1-.048.065c.011-.009-.052.102-.093.364-.029.19-.29 1.247-1.032 4.22-.984 3.937-2.813 11.264-2.856 11.954 0 .068-.013.218-.037.432-.14 1.281-.566 5.179 1.403 11.238.222.686 1.35 6.019 1.353 7.699 0 .372-.3.673-.673.674zM181.37 116.724a.673.673 0 0 1-.648-.857c.4-1.408 1.768-5.161 3.27-5.614a.674.674 0 0 1 .39 1.288c-.467.181-1.664 2.23-2.365 4.693a.673.673 0 0 1-.647.49M193.186 101.367a.539.539 0 0 0-.246.057l-1.818.907c-.394.196-.6.94-.27 1.696.18.41.484.725.812.844.183.066.35.063.497-.01l1.817-.906c.394-.197.6-.942.27-1.696-.18-.41-.484-.726-.812-.845a.735.735 0 0 0-.25-.047m-1.27 4.896c-.236 0-.476-.042-.711-.127-.678-.245-1.256-.817-1.585-1.568-.604-1.378-.208-2.89.901-3.441l1.817-.907a1.958 1.958 0 0 1 1.555-.072c.678.245 1.257.817 1.587 1.57.605 1.375.21 2.887-.9 3.44l-1.818.907a1.89 1.89 0 0 1-.847.198M193.73 93.491a.678.678 0 0 0-.332.085l-2.62 1.476c-.484.273-.685 1.257-.201 2.234.27.548.696.956 1.136 1.092.232.07.437.057.611-.04l2.62-1.477c.484-.272.685-1.256.201-2.233-.27-.548-.696-.956-1.136-1.091a.94.94 0 0 0-.278-.046m-1.741 6.276c-.222 0-.449-.034-.674-.103-.799-.247-1.508-.896-1.947-1.781-.777-1.57-.449-3.328.748-4.003l2.62-1.476c.494-.278 1.087-.334 1.669-.154.799.247 1.508.896 1.947 1.781.777 1.571.449 3.33-.748 4.003l-2.62 1.476c-.303.171-.643.257-.995.257M195.738 89.395h.007-.007zm-1.74-4.418a.877.877 0 0 0-.456.122l-2.85 1.69c-.66.39-.77 1.578-.242 2.593.315.605.808 1.054 1.317 1.198.2.058.5.091.777-.074l2.85-1.69c.66-.39.77-1.58.242-2.594-.315-.605-.807-1.052-1.316-1.197a1.197 1.197 0 0 0-.322-.048zm-1.91 6.996c-.228 0-.459-.032-.69-.098-.87-.247-1.652-.93-2.143-1.87-.877-1.685-.547-3.606.75-4.374l2.85-1.69c.538-.32 1.19-.394 1.834-.21.87.248 1.651.929 2.141 1.869.877 1.684.548 3.605-.748 4.374l-2.851 1.69c-.345.204-.737.31-1.144.31zM193.999 77.158a.81.81 0 0 0-.397.1l-2.777 1.538c-.604.334-.743 1.378-.304 2.28.257.527.675.926 1.118 1.065.181.057.452.095.713-.049l2.776-1.54c.605-.334.744-1.377.305-2.278-.257-.527-.675-.926-1.117-1.065a1.08 1.08 0 0 0-.317-.051m-2.045 6.38c-.238 0-.48-.038-.72-.113-.8-.252-1.501-.894-1.924-1.76-.767-1.577-.388-3.354.862-4.046l2.777-1.538c.53-.293 1.16-.349 1.772-.156.8.252 1.5.894 1.922 1.76.77 1.575.39 3.351-.862 4.045l-2.776 1.54c-.322.178-.681.268-1.05.268" fill="#F8A56F"/><path d="M162.388 125.858h19.858v-8.996h-19.858v8.996zm20.531 1.346h-21.204a.673.673 0 0 1-.674-.673v-10.342c0-.371.302-.673.674-.673h21.204c.372 0 .673.302.673.673v10.342a.673.673 0 0 1-.673.673zM176.604 112.979a.673.673 0 0 1-.498-1.126 9.319 9.319 0 0 0 2.432-6.287c0-5.152-4.193-9.343-9.347-9.343a.673.673 0 1 1 0-1.346c5.897 0 10.694 4.796 10.694 10.69 0 2.666-.989 5.221-2.783 7.192a.67.67 0 0 1-.498.22M244.706 13.346h.006-.006zm3.314 13.133h22.3l.042-.003c2.91-.061 5.276-2.477 5.276-5.386a5.36 5.36 0 0 0-5.233-5.383.673.673 0 0 1-.58-.98 7.06 7.06 0 0 0 .783-3.243c0-3.93-3.2-7.13-7.132-7.13a7.122 7.122 0 0 0-6.301 3.791.67.67 0 0 1-1.028.2 6.553 6.553 0 0 0-4.218-1.538c-3.609 0-6.547 2.933-6.55 6.54a.674.674 0 0 1-.396.613 6.564 6.564 0 0 0-3.861 5.971c0 3.61 2.939 6.548 6.55 6.548.078 0 .153-.003.231-.006.038 0 .079 0 .117.006zm22.357.67h.007-.007zm0 .676H247.93c-.022 0-.043-.001-.065-.003a6.167 6.167 0 0 1-.193.003c-4.355 0-7.898-3.541-7.898-7.894a7.914 7.914 0 0 1 4.27-7.013c.226-4.15 3.677-7.457 7.884-7.457 1.595 0 3.15.484 4.457 1.377a8.464 8.464 0 0 1 7.09-3.83c4.675 0 8.478 3.803 8.478 8.476a8.375 8.375 0 0 1-.539 2.974 6.694 6.694 0 0 1 5.57 6.632c0 3.616-2.926 6.622-6.536 6.73a.64.64 0 0 1-.072.005z" fill="#F8A56F"/><path d="M260.29 33.392a2.356 2.356 0 1 0-4.711 0 2.356 2.356 0 0 0 4.712 0" fill="#FFF"/><path d="M257.934 31.71c-.927 0-1.683.754-1.683 1.682 0 .927.756 1.682 1.683 1.682.929 0 1.684-.755 1.684-1.682 0-.928-.755-1.683-1.684-1.683m0 4.711a3.033 3.033 0 0 1-3.03-3.028c0-1.67 1.36-3.029 3.03-3.029 1.67 0 3.03 1.359 3.03 3.029s-1.36 3.028-3.03 3.028M257.934 42.365a8.974 8.974 0 0 1-7.451-3.967.673.673 0 0 1 1.117-.752 7.63 7.63 0 0 0 6.334 3.373 7.63 7.63 0 0 0 6.329-3.363.672.672 0 1 1 1.115.754 8.973 8.973 0 0 1-7.444 3.955" fill="#F8A56F"/><path d="M257.934 46.516c-4.459 0-8.576-2.234-11.011-5.976a.672.672 0 1 1 1.127-.734 11.757 11.757 0 0 0 9.884 5.364c3.92 0 7.573-1.942 9.77-5.194a.673.673 0 0 1 1.117.754 13.126 13.126 0 0 1-10.887 5.786M138.822 104.48a6.74 6.74 0 0 1 3.098 3.098 6.74 6.74 0 0 1 3.099-3.098 6.74 6.74 0 0 1-3.099-3.097 6.74 6.74 0 0 1-3.098 3.097m3.098 6.695a.673.673 0 0 1-.673-.673c0-2.95-2.4-5.349-5.35-5.349a.673.673 0 0 1 0-1.346c2.95 0 5.35-2.398 5.35-5.348a.673.673 0 1 1 1.347 0c0 2.95 2.4 5.348 5.35 5.348a.673.673 0 1 1 0 1.346c-2.95 0-5.35 2.4-5.35 5.349a.673.673 0 0 1-.674.673" fill="#F8A56F"/><path d="M6.514 41.054a.616.616 0 0 0-.26.052l-3.781 1.648a.631.631 0 0 0-.326.83l.303.695c.139.32.513.465.83.326l3.78-1.648a.627.627 0 0 0 .335-.348.627.627 0 0 0-.008-.481l-.303-.696a.627.627 0 0 0-.57-.378m-3.521 4.949a1.98 1.98 0 0 1-1.778-1.186l-.303-.695a1.979 1.979 0 0 1 1.022-2.602l3.782-1.648c.483-.21 1.02-.22 1.513-.026.492.193.878.566 1.088 1.048l.304.695c.21.484.22 1.02.027 1.513a1.965 1.965 0 0 1-1.05 1.09l-3.78 1.647a1.96 1.96 0 0 1-.825.164" fill="url(#a)" transform="translate(406)"/><path d="M439.53 26.284l2.959 6.786 2.468-1.075-2.96-6.786-2.468 1.075zm2.597 8.346a.674.674 0 0 1-.604-.404l-3.497-8.02a.673.673 0 0 1 .348-.887l3.703-1.613a.67.67 0 0 1 .886.348l3.498 8.02a.674.674 0 0 1-.348.886l-3.703 1.613a.671.671 0 0 1-.283.057zM418.117 37.817l1.346 3.085 3.086-1.345-1.346-3.085-3.086 1.345zm.985 4.644a.675.675 0 0 1-.605-.404l-1.883-4.319a.67.67 0 0 1 .348-.886l4.32-1.883a.673.673 0 0 1 .887.348l1.883 4.319a.672.672 0 0 1-.348.886l-4.32 1.882a.66.66 0 0 1-.282.057z" fill="#F8A56F"/><path d="M425.05 43.607l-5.113-11.722 14.654-6.386a4.214 4.214 0 0 1 5.546 2.178l1.744 4.001a4.21 4.21 0 0 1-2.178 5.543l-14.654 6.386z"/><path d="M14.824 32.233l4.573 10.487 14.037-6.115a3.543 3.543 0 0 0 1.83-4.658l-1.744-4a3.515 3.515 0 0 0-1.952-1.88 3.515 3.515 0 0 0-2.708.05l-14.036 6.116zm4.212 12.047a.674.674 0 0 1-.605-.404l-5.11-11.722a.672.672 0 0 1 .347-.886l14.654-6.385a4.855 4.855 0 0 1 3.74-.07 4.853 4.853 0 0 1 2.692 2.595l1.745 4a4.89 4.89 0 0 1-2.527 6.43l-14.653 6.385a.674.674 0 0 1-.283.057z" fill="url(#a)" transform="translate(406)"/><path fill="#FEFEFE" d="M423.64 30.27l5.113 11.723-3.704 1.614-5.112-11.722z"/><path d="M14.824 32.233l4.573 10.488 2.469-1.075-4.574-10.489-2.468 1.076zm4.213 12.047a.676.676 0 0 1-.605-.405L13.32 32.154a.672.672 0 0 1 .348-.886l3.703-1.614a.674.674 0 0 1 .887.348l5.112 11.722a.672.672 0 0 1-.349.886l-3.702 1.613a.673.673 0 0 1-.282.057z" fill="url(#a)" transform="translate(406)"/><path d="M406.9 33.99c4.849-1.96 10.405.278 12.507 5.1 2.103 4.822-.038 10.414-4.775 12.63L406.9 33.99z" fill="#FFF"/><path d="M407.804 34.379l7.16 16.415a8.95 8.95 0 0 0 3.826-11.435 8.955 8.955 0 0 0-10.986-4.98m6.815 18.015a.677.677 0 0 1-.605-.404l-7.731-17.731a.671.671 0 0 1 .365-.893c5.245-2.118 11.118.278 13.377 5.455 2.257 5.179.014 11.112-5.107 13.51a.676.676 0 0 1-.299.063M444.709 65.81a.674.674 0 0 1-.606-.404l-11.03-25.295a.673.673 0 1 1 1.235-.539l11.03 25.296a.673.673 0 0 1-.63.942" fill="#F8A56F"/><path d="M26.33 48.51l7.802 17.892 8.64-3.765-7.802-17.892-8.64 3.765zm7.44 19.451a.674.674 0 0 1-.605-.404l-8.34-19.125a.672.672 0 0 1 .35-.887l9.874-4.302a.674.674 0 0 1 .886.348l8.341 19.126a.672.672 0 0 1-.348.885l-9.875 4.303a.671.671 0 0 1-.282.056z" fill="url(#a)" transform="translate(406)"/><path d="M437.35 62.408a.674.674 0 0 1-.257-1.29l9.875-4.302a.674.674 0 0 1 .538 1.233l-9.875 4.303a.67.67 0 0 1-.281.056M433.852 54.388a.674.674 0 0 1-.257-1.29l9.875-4.303a.674.674 0 0 1 .538 1.234l-9.875 4.303a.67.67 0 0 1-.281.056M428.566 28.792a.674.674 0 0 1-.605-.404L416.93 3.093a.672.672 0 1 1 1.234-.537l11.032 25.295a.673.673 0 0 1-.63.941" fill="#F8A56F"/><path d="M413.496 5.324l7.802 17.892 8.641-3.765-7.803-17.892-8.64 3.765zm7.44 19.45a.673.673 0 0 1-.604-.404l-8.34-19.125a.673.673 0 0 1 .349-.886l9.875-4.303a.673.673 0 0 1 .886.348l8.34 19.125a.67.67 0 0 1-.348.886l-9.875 4.303a.67.67 0 0 1-.283.056z" fill="#F8A56F"/><path d="M415.019 11.201a.674.674 0 0 1-.258-1.29l9.875-4.303a.672.672 0 1 1 .539 1.234l-9.875 4.303a.67.67 0 0 1-.281.056M418.516 19.222a.674.674 0 0 1-.257-1.29l9.875-4.303a.672.672 0 1 1 .538 1.234l-9.874 4.303a.67.67 0 0 1-.282.056" fill="#F8A56F"/><path d="M390.794 51.77c-.213-.305-.207-.824.097-1.037l1.129-.639-1.271.231a.672.672 0 1 1-.24-1.324l4.304-.784a.674.674 0 0 1 .507 1.213l-3.588 2.507a.673.673 0 0 1-.937-.166z" fill="#F26C51"/><path stroke="url(#a)" stroke-width="1.5" stroke-linecap="square" stroke-dasharray="6,6" d="M294.5 69.5l100.059-20.505-86.178 51.78"/><path d="M330.33 24.863a6.716 6.716 0 0 1 2.89.645 6.738 6.738 0 0 1 .486-4.348 6.741 6.741 0 0 1-4.35-.481c.16.717.203 1.463.12 2.215a6.707 6.707 0 0 1-.603 2.13c.476-.106.964-.16 1.458-.16m4.718 3.607a.673.673 0 0 1-.526-.253 5.32 5.32 0 0 0-3.587-1.975 5.316 5.316 0 0 0-3.933 1.139.674.674 0 0 1-.842-1.05 5.354 5.354 0 0 0 .836-7.518.674.674 0 0 1 1.052-.84 5.357 5.357 0 0 0 7.52.834.673.673 0 1 1 .842 1.051 5.353 5.353 0 0 0-.837 7.518.674.674 0 0 1-.525 1.094M458.33 133.863a6.716 6.716 0 0 1 2.89.645 6.738 6.738 0 0 1 .486-4.348 6.741 6.741 0 0 1-4.35-.481c.16.717.203 1.463.12 2.215a6.707 6.707 0 0 1-.603 2.13c.476-.106.964-.16 1.458-.16m4.718 3.607a.673.673 0 0 1-.526-.253 5.32 5.32 0 0 0-3.587-1.975 5.316 5.316 0 0 0-3.933 1.139.674.674 0 0 1-.842-1.05 5.354 5.354 0 0 0 .836-7.518.674.674 0 0 1 1.052-.84 5.357 5.357 0 0 0 7.52.834.673.673 0 1 1 .842 1.051 5.353 5.353 0 0 0-.837 7.518.674.674 0 0 1-.525 1.094M412.808 109.156h-7.519a.673.673 0 1 1 0-1.346h7.519a.673.673 0 1 1 0 1.346M420.102 109.156h-2.693a.673.673 0 1 1 0-1.346h2.693a.673.673 0 1 1 0 1.346M499.728 119.251h-6.733a.673.673 0 1 1 0-1.346h6.733a.673.673 0 1 1 0 1.346M219.42 55.074h-4.04a.673.673 0 0 1 0-1.346h4.04a.673.673 0 0 1 0 1.346M181.18 54.102a.673.673 0 0 1-.674-.674v-6.73a.673.673 0 0 1 1.347 0v6.73a.673.673 0 0 1-.673.674M181.18 67.102a.673.673 0 0 1-.674-.674v-6.73a.673.673 0 0 1 1.347 0v6.73a.673.673 0 0 1-.673.674M70.347 57.333H98.4v-16.48H70.347v16.48zm28.727 1.346h-29.4a.673.673 0 0 1-.674-.673V40.18c0-.371.302-.673.673-.673h29.4c.372 0 .674.302.674.673v17.826a.673.673 0 0 1-.673.673z" fill="#F8A56F"/><path d="M99.074 40.18l-14.46 10.118L70.637 40.18z"/><path d="M72.715 40.854l11.906 8.618 12.317-8.618H72.715zM84.614 50.97a.675.675 0 0 1-.395-.128L70.243 40.726a.673.673 0 0 1 .394-1.218h28.437a.673.673 0 0 1 .386 1.224L85 50.849a.67.67 0 0 1-.386.122zM84.45 68.438a.673.673 0 0 1-.673-.673V63.39a.673.673 0 0 1 1.347 0v4.375a.673.673 0 0 1-.673.673M84.45 87.283a.673.673 0 0 1-.673-.673v-9.423a.673.673 0 0 1 1.347 0v9.423a.673.673 0 0 1-.673.673m0 18.844a.673.673 0 0 1-.674-.673v-9.422a.673.673 0 0 1 1.347 0v9.422a.673.673 0 0 1-.673.673m0 18.845a.673.673 0 0 1-.674-.673v-9.422a.673.673 0 0 1 1.347 0v9.422a.673.673 0 0 1-.673.673m0 18.845a.673.673 0 0 1-.674-.673v-9.423a.673.673 0 0 1 1.347 0v9.423a.673.673 0 0 1-.673.673M88.827 157.614H84.45a.673.673 0 0 1-.674-.673v-4.375a.673.673 0 0 1 1.347 0v3.702h3.703a.673.673 0 1 1 0 1.346" fill="#F8A56F"/><g><path d="M6.15 1.614H.988a.673.673 0 1 1 0-1.346H6.15a.673.673 0 1 1 0 1.346" fill="url(#a)" transform="translate(125 156)"/><path d="M140.689 157.614h-4.376a.673.673 0 1 1 0-1.346h4.376a.673.673 0 1 1 0 1.346M151.689 157.614h-4.376a.673.673 0 1 1 0-1.346h4.376a.673.673 0 1 1 0 1.346" fill="#F8A56F"/></g><g><path d="M6.15 1.614H.988a.673.673 0 1 1 0-1.346H6.15a.673.673 0 1 1 0 1.346" fill="url(#a)" transform="translate(93.32 156)"/><path d="M109.009 157.614h-4.376a.673.673 0 1 1 0-1.346h4.376a.673.673 0 1 1 0 1.346" fill="#F8A56F"/></g><g transform="translate(114.32 156)" fill="url(#a)"><path d="M6.15 1.614H.988a.673.673 0 1 1 0-1.346H6.15a.673.673 0 1 1 0 1.346"/></g></g></svg>