<svg width="52" height="47" viewBox="0 0 52 47" xmlns="http://www.w3.org/2000/svg"><title>3D8A29F4-35B0-4150-80E0-E2F7D8DF8C16</title><defs><linearGradient x1="12.957%" y1="80.245%" y2="15.021%" id="a"><stop stop-color="#F8A56F" offset="0%"/><stop stop-color="#F26C51" offset="100%"/></linearGradient></defs><g transform="translate(-468 -1249)" fill="url(#a)" fill-rule="evenodd"><path d="M493.792 1295.899c-12.678 0-25.792-2.841-25.792-7.597 0-2.133 2.58-4.004 7.46-5.408a.432.432 0 0 1 .235.83c-4.345 1.25-6.838 2.92-6.838 4.578 0 3.252 10.02 6.734 24.935 6.734 14.914 0 24.934-3.482 24.934-6.734 0-1.616-2.437-3.266-6.686-4.526a.433.433 0 0 1 .242-.828c4.776 1.417 7.301 3.268 7.301 5.354 0 4.756-13.114 7.597-25.791 7.597M481.588 1282.451a.431.431 0 0 1-.065-.858 75.687 75.687 0 0 1 7.737-.774.423.423 0 0 1 .449.409.43.43 0 0 1-.406.453 75.151 75.151 0 0 0-7.65.765.421.421 0 0 1-.065.005M505.935 1282.441a.414.414 0 0 1-.065-.005 75.2 75.2 0 0 0-7.59-.755.43.43 0 0 1-.407-.453.427.427 0 0 1 .45-.41c2.687.137 5.27.394 7.676.766a.43.43 0 0 1 .359.49.43.43 0 0 1-.423.367M487.858 1277.821a1.844 1.844 0 0 1-1.836-1.849v-13.782c0-2.135 1.997-2.698 3.054-2.698h2.16c-.013-.002.389-.064.392-.271a.44.44 0 0 1 .435-.425c.236.004.426.2.422.438-.012.79-.793 1.077-1.204 1.119l-2.205.002c-.089 0-2.197.032-2.197 1.835v13.782c0 .543.439.986.979.986s.977-.443.977-.986v-11.113a.43.43 0 0 1 .429-.431.43.43 0 0 1 .429.431v11.113c0 1.02-.823 1.85-1.835 1.85M499.672 1277.821a1.844 1.844 0 0 1-1.836-1.849v-11.066a.43.43 0 0 1 .429-.432.43.43 0 0 1 .428.432v11.066c0 .543.44.986.98.986a.983.983 0 0 0 .976-.986v-13.782c0-1.814-2.107-1.835-2.196-1.835h-2.162a1.105 1.105 0 0 1-.748-.293c-.146-.14-.32-.399-.322-.832a.43.43 0 0 1 .426-.434.432.432 0 0 1 .43.43c.001.092.002.264.207.266h2.169c1.056 0 3.053.563 3.053 2.698v13.782c0 1.02-.822 1.85-1.834 1.85"/><path d="M493.88 1290.915a.43.43 0 0 1-.43-.432v-14.68a.43.43 0 0 1 .43-.432.43.43 0 0 1 .428.432v14.68a.43.43 0 0 1-.429.432M489.267 1290.915a.43.43 0 0 1-.426-.386.616.616 0 0 1-.005-.07v-22.712a.43.43 0 0 1 .428-.432.43.43 0 0 1 .429.432v22.686a.43.43 0 0 1-.426.482M498.266 1290.915a.43.43 0 0 1-.426-.482v-22.686a.43.43 0 0 1 .429-.432.43.43 0 0 1 .428.432v22.713c0 .02-.002.047-.005.07a.43.43 0 0 1-.426.385M493.763 1249.863c-1.794 0-3.254 1.693-3.254 3.774 0 2.08 1.46 3.774 3.254 3.774 1.796 0 3.256-1.693 3.256-3.774s-1.46-3.774-3.256-3.774m0 8.41c-2.266 0-4.111-2.08-4.111-4.636 0-2.557 1.845-4.637 4.111-4.637 2.268 0 4.114 2.08 4.114 4.637 0 2.557-1.846 4.637-4.114 4.637M505.068 1278.357a1.361 1.361 0 0 1-1.356-1.364v-9.077c0-1.522 1.412-1.924 2.158-1.924h1.424a.478.478 0 0 0 .122-.06.414.414 0 0 1 .43-.412c.237.004.42.214.416.452-.009.54-.486.836-.924.88l-1.468.003c-.131.001-1.3.04-1.3 1.061v9.077a.5.5 0 0 0 .498.5.5.5 0 0 0 .498-.5v-7.32a.43.43 0 0 1 .429-.431.43.43 0 0 1 .428.431v7.32c0 .752-.608 1.364-1.355 1.364M512.848 1278.357a1.362 1.362 0 0 1-1.356-1.364v-7.289a.43.43 0 0 1 .429-.431.43.43 0 0 1 .428.431v7.289a.5.5 0 0 0 .5.5.5.5 0 0 0 .496-.5v-9.077c0-1.02-1.168-1.06-1.301-1.06h-1.423c-.042 0-.35 0-.594-.236-.116-.112-.255-.316-.256-.652a.43.43 0 0 1 .426-.434h.002a.43.43 0 0 1 .429.43c0 .036.005.051.005.051l1.412-.023c.747 0 2.158.402 2.158 1.924v9.077a1.36 1.36 0 0 1-1.355 1.364M509.033 1286.98a.43.43 0 0 1-.428-.431v-9.668a.43.43 0 0 1 .428-.432.43.43 0 0 1 .43.432v9.668a.43.43 0 0 1-.43.431"/><path d="M505.996 1286.98a.43.43 0 0 1-.426-.388.544.544 0 0 1-.004-.06v-14.956a.43.43 0 0 1 .429-.432.43.43 0 0 1 .428.432v14.933a.43.43 0 0 1-.427.471M511.922 1286.98a.43.43 0 0 1-.428-.431l.001-.04v-14.933a.43.43 0 0 1 .429-.432.43.43 0 0 1 .428.432v14.957c0 .018 0 .04-.004.06a.43.43 0 0 1-.426.387M509.047 1259.406c-1.102 0-1.998 1.048-1.998 2.337 0 1.29.896 2.339 1.998 2.339 1.101 0 1.997-1.05 1.997-2.339s-.896-2.337-1.997-2.337m0 5.539c-1.574 0-2.855-1.436-2.855-3.202 0-1.765 1.28-3.2 2.855-3.2 1.574 0 2.854 1.435 2.854 3.2 0 1.766-1.28 3.202-2.854 3.202M474.704 1278.357a1.361 1.361 0 0 1-1.355-1.364v-9.077c0-1.522 1.412-1.924 2.158-1.924h1.424a.488.488 0 0 0 .122-.06.415.415 0 0 1 .43-.412c.236.004.419.214.415.452-.008.54-.484.836-.924.88l-1.467.003c-.132.001-1.301.04-1.301 1.061v9.077a.5.5 0 0 0 .498.5.5.5 0 0 0 .498-.5v-7.32a.43.43 0 0 1 .429-.431.43.43 0 0 1 .428.431v7.32c0 .752-.608 1.364-1.355 1.364M482.485 1278.357a1.362 1.362 0 0 1-1.356-1.364v-7.289a.43.43 0 0 1 .428-.431.43.43 0 0 1 .429.431v7.289a.5.5 0 0 0 .499.5.5.5 0 0 0 .497-.5v-9.077c0-1.02-1.169-1.06-1.302-1.06h-1.422c-.042-.002-.351 0-.594-.236-.116-.112-.255-.315-.258-.652a.43.43 0 0 1 .427-.434c.213.002.429.19.43.429.001.037.006.052.006.052l1.413-.023c.746 0 2.157.402 2.157 1.924v9.077a1.36 1.36 0 0 1-1.354 1.364M478.67 1286.98a.43.43 0 0 1-.429-.431v-9.668a.43.43 0 0 1 .429-.432.43.43 0 0 1 .429.432v9.668a.43.43 0 0 1-.43.431"/><path d="M475.633 1286.98a.43.43 0 0 1-.426-.388.436.436 0 0 1-.004-.06v-14.956a.43.43 0 0 1 .428-.432.43.43 0 0 1 .429.432v14.933a.43.43 0 0 1-.427.471M481.558 1286.98a.43.43 0 0 1-.426-.474v-14.93a.43.43 0 0 1 .429-.432.43.43 0 0 1 .428.432v14.957c0 .02-.002.045-.005.067a.43.43 0 0 1-.426.38M478.683 1259.406c-1.101 0-1.997 1.048-1.997 2.337 0 1.29.896 2.339 1.997 2.339 1.102 0 1.998-1.05 1.998-2.339s-.896-2.337-1.998-2.337m0 5.539c-1.574 0-2.854-1.436-2.854-3.202 0-1.765 1.28-3.2 2.854-3.2s2.855 1.435 2.855 3.2c0 1.766-1.28 3.202-2.855 3.202"/></g></svg>