<svg width="27" height="48" viewBox="0 0 27 48" xmlns="http://www.w3.org/2000/svg" xmlns:xlink="http://www.w3.org/1999/xlink"><title>7B8BD9FD-6590-4ED5-9D1F-FFEE71A3F826</title><defs><path id="a" d="M17.275.233H.191v38.044h17.084V.233z"/></defs><g fill="none" fill-rule="evenodd"><path d="M.562 38.32a.562.562 0 0 1-.531-.746l3.326-9.661a.56.56 0 0 1 .354-.35l1.457-.487a.563.563 0 0 1 .356 1.067l-1.194.398-2.916 8.472 5.664-1.132a.561.561 0 1 1 .22 1.102L.674 38.31a.55.55 0 0 1-.11.011M26.026 38.32a.55.55 0 0 1-.11-.011l-6.625-1.326a.562.562 0 1 1 .22-1.102l5.663 1.132-2.915-8.472-1.194-.398a.562.562 0 1 1 .356-1.067l1.458.487a.558.558 0 0 1 .353.35l3.326 9.661a.562.562 0 0 1-.532.746" fill="#86888F"/><g transform="translate(4.5 .517)"><mask id="b" fill="#fff"><use xlink:href="#a"/></mask><path d="M13.909 38.277a.553.553 0 0 1-.155-.022c-1.512-.431-2.49-.701-3.512-.835a.563.563 0 1 1 .146-1.115c.982.128 1.896.364 3.193.731.169-.418.374-.943.374-.943a31.135 31.135 0 0 0 2.195-10.957l-.01-1.08c-.178-10.95-5.732-19.904-7.407-22.358C6.326 5.209-3.18 20.69 3.874 37.033c.1-.031.2-.062.298-.094.975-.306 1.983-.624 3.614-.712a.568.568 0 0 1 .592.531.563.563 0 0 1-.531.592c-1.489.081-2.387.363-3.337.663a29.63 29.63 0 0 1-.797.242.56.56 0 0 1-.666-.31C-5.176 19.672 6.83 2.375 8.227.463a.564.564 0 0 1 .454-.23h.105c.18 0 .348.085.454.23.8 1.095 7.822 11.063 8.024 23.578l.011 1.1a32.285 32.285 0 0 1-2.273 11.366s-.453 1.153-.58 1.437a.562.562 0 0 1-.513.333" fill="#86888F" mask="url(#b)"/></g><path d="M7.928 12.962h10.611c-1.805-5.322-4.257-9.219-5.305-10.748-1.049 1.53-3.502 5.428-5.306 10.748m11.39 1.125H7.15a.56.56 0 0 1-.536-.734C8.783 6.57 12.086 1.856 12.727.98a.563.563 0 0 1 .454-.23h.105c.18 0 .348.086.454.23.64.876 3.944 5.587 6.113 12.373a.56.56 0 0 1-.536.734M13.227 17.02a2.737 2.737 0 0 0-2.732 2.735 2.736 2.736 0 0 0 2.732 2.734 2.737 2.737 0 0 0 2.735-2.734 2.738 2.738 0 0 0-2.735-2.735m0 6.594a3.862 3.862 0 0 1-3.857-3.859c0-2.128 1.73-3.86 3.857-3.86a3.864 3.864 0 0 1 3.86 3.86 3.863 3.863 0 0 1-3.86 3.859M12.46 27.474a.393.393 0 0 0-.398.382l-.029 1.583c.182 4.528.93 8.776 1.611 9.154.638-.43 1.133-4.63 1.064-9.084l.031-1.603a.388.388 0 0 0-.38-.395l-1.9-.037zm1.189 12.253h-.021c-2.01-.04-2.567-6.455-2.72-10.277l.03-1.616a1.523 1.523 0 0 1 1.514-1.485l1.93.037a1.516 1.516 0 0 1 1.482 1.542l-.03 1.583c.021 1.374.056 8.4-1.378 9.855-.294.298-.601.361-.807.361zM13.172 47.767a.563.563 0 0 1-.562-.562v-2.766a.563.563 0 0 1 1.125 0v2.766c0 .31-.252.563-.563.563M9.023 45.693a.563.563 0 0 1-.562-.563v-2.766a.563.563 0 0 1 1.125 0v2.766c0 .31-.252.563-.563.563M17.322 45.693a.563.563 0 0 1-.563-.563v-2.766a.563.563 0 0 1 1.125 0v2.766c0 .31-.252.563-.562.563" fill="#86888F"/></g></svg>