<svg width="108" height="84" viewBox="0 0 108 84" xmlns="http://www.w3.org/2000/svg"><title>C2A4D028-CA2C-42EF-BA5D-C5776DC85F9C</title><defs><linearGradient x1="12.957%" y1="80.245%" y2="15.021%" id="a"><stop stop-color="#F8A56F" offset="0%"/><stop stop-color="#F26C51" offset="100%"/></linearGradient></defs><g fill="none" fill-rule="evenodd"><path fill="#CFDEF8" d="M27.441 77.441h34.007v-57.3H27.441z"/><path fill="#CFDEF8" d="M61.208 21.775h6.219L44.949 6.091 22.471 21.775h6.219z"/><path fill="url(#a)" d="M38.597 35.911h12.245v-1H38.597zM38.597 44.715h12.245v-1H38.597zM97.348 63.696a5.28 5.28 0 0 1-4.761-2.958 8.514 8.514 0 0 1-3.002.543c-4.747 0-8.608-3.861-8.608-8.607 0-4.747 3.86-8.608 8.608-8.608 4.747 0 8.608 3.86 8.608 8.608 0 .15-.004.3-.013.448 2.56.403 4.498 2.615 4.498 5.244a5.336 5.336 0 0 1-5.33 5.33zM38.597 53.521h12.245v-1H38.597z"/><path d="M93.128 59.423l.188.49a4.295 4.295 0 0 0 4.032 2.783 4.335 4.335 0 0 0 4.33-4.33c0-2.273-1.787-4.162-4.067-4.301l-.524-.032.057-.522a7.71 7.71 0 0 0 .049-.837c0-4.195-3.413-7.608-7.608-7.608s-7.608 3.413-7.608 7.608 3.413 7.607 7.608 7.607a7.543 7.543 0 0 0 3.063-.647l.48-.211z" fill="#E7EBF9"/><path fill="url(#a)" d="M38.598 62.325h12.244v-1H38.598z"/><path d="M36.08 23.941a8.14 8.14 0 0 1 16.278 0H36.08z" fill="#FFF"/><path d="M36.596 23.441h15.246c-.26-3.98-3.58-7.139-7.624-7.139-4.043 0-7.364 3.16-7.622 7.14zm16.262 1H35.58v-.5c0-4.763 3.875-8.639 8.638-8.639 4.764 0 8.64 3.876 8.64 8.64v.5z" fill="url(#a)"/><path fill="#3C3C3C" d="M26.997 78.382h35.738v-1H26.997z"/><path fill="url(#a)" d="M27.497 42.611h-1V22.388H20.88L44.864 5.33l18.063 12.774-.578.817L44.867 6.555 24.012 21.388h3.485z"/><path fill="#FFF" d="M87.906 30.418L69.468 11.916 51.03 30.418h5.101v47.464h26.674V30.418z"/><path d="M56.63 77.382h25.675V29.918h4.397L69.468 12.624 52.234 29.918h4.397v47.464zm26.675 1H55.63V30.918h-5.805l19.642-19.71 19.643 19.71h-5.806v47.464z" fill="url(#a)"/><path fill="#CFDEF8" d="M62.052 41.738h14.457v-7.88H62.052z"/><path d="M62.552 56.073h13.457v-6.88H62.552v6.88zm-1 1h15.457v-8.88H61.552v8.88z" fill="url(#a)"/><path fill="#CFDEF8" d="M62.052 71.407h14.457v-7.88H62.052z"/><path fill="url(#a)" d="M0 78.382h104.022v-1H0z"/><path d="M97.874 68.525a3.38 3.38 0 1 1-6.763 0 3.382 3.382 0 1 1 6.763 0" fill="#CFDEF8"/><path d="M17.244 50.164a10.551 10.551 0 0 1 9.094-5.864 8.067 8.067 0 1 1 14.086 6.604 7.31 7.31 0 0 1-1.379 14.486H23.393l-6.149-15.226z" fill="#FFF"/><path fill="url(#a)" d="M30.773 77.882h1V42.674h-1z"/><path fill="url(#a)" d="M31.83 64.035l-.512-.86 9.538-5.66.511.861z"/><path d="M10.947 59.958a8.137 8.137 0 1 1 4.602 5.739 5.034 5.034 0 1 1-4.602-5.739z" fill="#E7EBF9"/><path fill="url(#a)" d="M31.831 49.78l-.515-.857 6.046-3.64.517.856zM17.502 77.882h1V54.72h-1z"/><path fill="url(#a)" d="M17.354 70.832l-7.355-4.426.516-.858 7.355 4.428zM18.397 61.558l-.516-.856 5.354-3.224.516.857z"/><path d="M39.045 65.89H22.778v-1h16.267a6.817 6.817 0 0 0 6.809-6.809 6.811 6.811 0 0 0-5.524-6.686l-.845-.16.558-.656a7.569 7.569 0 0 0 1.812-4.909c0-4.173-3.395-7.568-7.568-7.568a7.543 7.543 0 0 0-7.456 6.282l-.068.401-.407.014a10.041 10.041 0 0 0-8.664 5.587l-.896-.444a11.038 11.038 0 0 1 9.126-6.12 8.54 8.54 0 0 1 8.365-6.72c4.724 0 8.568 3.844 8.568 8.568a8.576 8.576 0 0 1-1.564 4.932 7.815 7.815 0 0 1 5.563 7.48c0 4.305-3.503 7.808-7.81 7.808" fill="url(#a)"/><path d="M10.568 60.443a4.539 4.539 0 0 0-4.533 4.533c0 2.5 2.034 4.533 4.533 4.533 2.24 0 4.169-1.669 4.486-3.883l.095-.66.607.276a7.586 7.586 0 0 0 3.155.682c4.21 0 7.637-3.426 7.637-7.636s-3.426-7.637-7.637-7.637c-4.21 0-7.636 3.426-7.636 7.637 0 .527.054 1.055.162 1.568l.135.647-.66-.046a4.895 4.895 0 0 0-.344-.014m0 10.066a5.54 5.54 0 0 1-5.533-5.533 5.54 5.54 0 0 1 5.318-5.529 8.634 8.634 0 0 1-.078-1.159c0-4.763 3.874-8.637 8.636-8.637 4.762 0 8.637 3.874 8.637 8.637 0 4.762-3.875 8.636-8.637 8.636a8.565 8.565 0 0 1-2.993-.535c-.632 2.388-2.83 4.12-5.35 4.12M6.933 34.502a3.263 3.263 0 0 0-3.26 3.258 3.263 3.263 0 0 0 3.26 3.26h5.838a2.381 2.381 0 0 0 2.379-2.38 2.382 2.382 0 0 0-2.38-2.38c-.705 0-1.37.313-1.824.857l-.62.74-.248-.934a3.258 3.258 0 0 0-3.145-2.422m5.838 7.519H6.933a4.264 4.264 0 0 1-4.26-4.26 4.264 4.264 0 0 1 4.26-4.258 4.26 4.26 0 0 1 3.836 2.416 3.368 3.368 0 0 1 2.002-.657 3.383 3.383 0 0 1 3.379 3.38 3.383 3.383 0 0 1-3.38 3.379" fill="url(#a)"/><path d="M77.358.5a3.757 3.757 0 0 1 3.63 2.794 2.88 2.88 0 1 1 2.209 4.724h-5.839a3.759 3.759 0 0 1 0-7.518" fill="#FFF"/><path d="M77.358 1A3.263 3.263 0 0 0 74.1 4.259a3.263 3.263 0 0 0 3.26 3.259h5.837a2.382 2.382 0 0 0 2.38-2.379 2.382 2.382 0 0 0-2.38-2.379 2.37 2.37 0 0 0-1.825.855l-.619.74-.248-.933A3.259 3.259 0 0 0 77.358 1m5.838 7.518h-5.838A4.264 4.264 0 0 1 73.1 4.259 4.264 4.264 0 0 1 77.36 0c1.656 0 3.138.962 3.835 2.417a3.367 3.367 0 0 1 2.002-.657 3.383 3.383 0 0 1 3.38 3.379 3.383 3.383 0 0 1-3.38 3.379M13.161 1.351a5.142 5.142 0 0 0-5.137 5.137 5.142 5.142 0 0 0 5.137 5.136h11.555A2.227 2.227 0 0 0 26.94 9.4a2.226 2.226 0 0 0-2.224-2.224c-.14 0-.277.017-.41.042l-.547.103-.044-.555c-.149-1.877-1.73-3.348-3.602-3.348-.66 0-1.318.191-1.902.552l-.426.263-.263-.426c-.948-1.538-2.578-2.456-4.36-2.456m11.554 11.273H13.161a6.143 6.143 0 0 1-6.137-6.136A6.144 6.144 0 0 1 13.161.351c1.974 0 3.791.94 4.948 2.535a4.58 4.58 0 0 1 2.004-.468c2.217 0 4.115 1.614 4.53 3.76 1.79-.023 3.297 1.42 3.297 3.222a3.227 3.227 0 0 1-3.224 3.224M88.561 77.85h1V49.771h-1z" fill="url(#a)"/><path fill="url(#a)" d="M89.414 74.105l-.707-.707 4.509-4.509.707.707z"/><path d="M94.492 65.644a2.885 2.885 0 0 0-2.882 2.882 2.885 2.885 0 0 0 2.882 2.88 2.884 2.884 0 0 0 2.881-2.88 2.885 2.885 0 0 0-2.88-2.882m0 6.763a3.886 3.886 0 0 1-3.883-3.881 3.886 3.886 0 0 1 3.882-3.882 3.886 3.886 0 0 1 3.881 3.882 3.885 3.885 0 0 1-3.88 3.88M89.445 57.715l-.707-.707 3.895-3.894.707.707zM87.421 39h11.272v-1H87.421zM95.414 36.13h12.093v-1H95.414zM13.022 27.522h10.453v-1H13.022zM79.427 17.684h10.658v-1H79.427zM60.982 30.596h15.986v-1H60.982zM14.953 83.552h80.206v-1H14.953z" fill="url(#a)"/></g></svg>