<svg width="45" height="40" viewBox="0 0 45 40" xmlns="http://www.w3.org/2000/svg"><title>A258946D-3F18-4261-842C-794A013EE954</title><defs><linearGradient x1="12.957%" y1="80.245%" y2="15.021%" id="a"><stop stop-color="#F8A56F" offset="0%"/><stop stop-color="#F26C51" offset="100%"/></linearGradient></defs><g transform="translate(-165 -4642)" fill="url(#a)" fill-rule="evenodd"><path d="M172.931 4647.417h35.268v-3.546c0-.762-.644-.834-.841-.837h-33.59c-.192.003-.837.075-.837.837v3.546zm35.786 1.035h-36.303a.517.517 0 0 1-.517-.518v-4.063c0-1.373 1.119-1.871 1.871-1.871h33.594c.752 0 1.872.498 1.872 1.871v4.063a.517.517 0 0 1-.517.518z"/><path d="M178.601 4645.536h-2.758a.517.517 0 0 1 0-1.035h2.758a.517.517 0 0 1 0 1.035M184.118 4645.536h-2.758a.517.517 0 0 1 0-1.035h2.758a.517.517 0 0 1 0 1.035"/><path d="M173.682 4643.034c-.193.004-.837.075-.837.838v30.342c0 .796.697.837.837.837h33.593c.194-.003.838-.075.838-.837v-30.342c0-.761-.641-.833-.84-.838h-33.59zm33.593 33.052h-33.593c-.752 0-1.871-.5-1.871-1.872v-30.342c0-1.373 1.119-1.872 1.871-1.872h33.593c.753 0 1.872.499 1.872 1.872v30.342c0 1.373-1.12 1.872-1.872 1.872zM166.483 4648.717a.517.517 0 0 1-.286-.948 2.163 2.163 0 0 1 1.106-.338h2.582a.517.517 0 0 1 0 1.035h-2.582c.002 0-.295.007-.533.165a.52.52 0 0 1-.287.086m-.535 6.741a.517.517 0 0 1-.517-.517v-3.458a.517.517 0 0 1 1.034 0v3.458a.517.517 0 0 1-.517.517m0 6.912a.517.517 0 0 1-.517-.517v-3.456a.517.517 0 0 1 1.034 0v3.456a.517.517 0 0 1-.517.517m0 6.91a.517.517 0 0 1-.517-.516v-3.455a.517.517 0 0 1 1.034 0v3.455a.517.517 0 0 1-.517.517m0 6.91a.517.517 0 0 1-.517-.516v-3.457a.517.517 0 0 1 1.034 0v3.457a.517.517 0 0 1-.517.517m2.144 5.325h-.789c-.753 0-1.872-.499-1.872-1.872v-.511a.517.517 0 0 1 1.034 0v.511c0 .797.698.837.838.837h.789a.517.517 0 0 1 0 1.035m6.896 0h-3.448a.517.517 0 0 1 0-1.035h3.448a.517.517 0 0 1 0 1.035m6.897 0h-3.449a.517.517 0 0 1 0-1.035h3.449a.517.517 0 0 1 0 1.035m6.896 0h-3.448a.517.517 0 0 1 0-1.035h3.448a.517.517 0 0 1 0 1.035m6.897 0h-3.448a.517.517 0 0 1 0-1.035h3.448a.517.517 0 0 1 0 1.035m5.218 0h-1.77a.517.517 0 0 1 0-1.035h1.77c.062-.001.647-.026.796-.522a.518.518 0 0 1 .99.297c-.297.994-1.262 1.26-1.786 1.26"/></g></svg>