<svg width="17" height="12" viewBox="0 0 17 12" xmlns="http://www.w3.org/2000/svg"><title>BA30B603-CCEF-400B-AC26-8B56B34935AC</title><g fill="none" fill-rule="evenodd"><path d="M13.496 1.36c.266-.284.685-.43 1.067-.326.511.124.908.637.865 1.167-.025.29-.168.562-.382.757-2.647 2.568-5.29 5.139-7.936 7.708a1.173 1.173 0 0 1-1.34.212c-.14-.062-.218-.201-.315-.313-1.09-1.245-2.187-2.484-3.274-3.73-.355-.471-.148-1.16.28-1.51.314-.283.8-.284 1.16-.088.317.16.52.464.754.72.697.778 1.37 1.578 2.079 2.346 2.337-2.324 4.696-4.627 7.042-6.943z" stroke="#AFEBC2" stroke-width=".5" fill-opacity=".6" fill="#7ADD99"/><path d="M1-2h16v16H1z"/></g></svg>