<svg width="203" height="160" viewBox="0 0 203 160" xmlns="http://www.w3.org/2000/svg"><title>0D1DF227-326C-4333-979D-13538F8A5A84</title><defs><linearGradient x1="12.957%" y1="80.245%" y2="15.021%" id="a"><stop stop-color="#F8A56F" offset="0%"/><stop stop-color="#F8A06C" offset="8.409%"/><stop stop-color="#F26C51" offset="100%"/></linearGradient><linearGradient x1="12.957%" y1="80.245%" x2="613.576%" y2="-123.381%" id="b"><stop stop-color="#F8A56F" offset="0%"/><stop stop-color="#F26C51" offset="100%"/></linearGradient><linearGradient x1="0%" y1="335.955%" x2="428.51%" y2="-33.918%" id="c"><stop stop-color="#F8A56F" offset="0%"/><stop stop-color="#F26C51" offset="100%"/></linearGradient><linearGradient x1="0%" y1="335.955%" x2="428.51%" y2="-33.918%" id="d"><stop stop-color="#F8A56F" offset="0%"/><stop stop-color="#F89C6A" offset="15.411%"/><stop stop-color="#F89C6A" offset="15.678%"/><stop stop-color="#F26C51" offset="100%"/></linearGradient><linearGradient x1="12.957%" y1="80.245%" y2="15.021%" id="e"><stop stop-color="#F8A56F" offset="0%"/><stop stop-color="#F26C51" offset="100%"/></linearGradient><linearGradient x1="12.957%" y1="80.245%" x2="139.147%" y2="9.233%" id="f"><stop stop-color="#F8A56F" offset="0%"/><stop stop-color="#F26C51" offset="100%"/></linearGradient><linearGradient x1="12.957%" y1="80.245%" x2="127.716%" y2="-1862.558%" id="g"><stop stop-color="#F8A56F" offset="0%"/><stop stop-color="#F26C51" offset="100%"/></linearGradient><linearGradient x1="-1013.736%" y1="82.835%" x2="4767.152%" y2="-13.714%" id="h"><stop stop-color="#F8A56F" offset="0%"/><stop stop-color="#F26C51" offset="100%"/></linearGradient><linearGradient x1="12.957%" y1="80.245%" x2="2009.147%" y2="6.735%" id="i"><stop stop-color="#F8A56F" offset="0%"/><stop stop-color="#F26C51" offset="100%"/></linearGradient><linearGradient x1="50%" y1="0%" x2="50%" y2="100%" id="j"><stop stop-color="#FFF" offset="0%"/><stop stop-color="#FFF" offset="100%"/></linearGradient><linearGradient x1="12.957%" y1="80.245%" y2="15.021%" id="k"><stop stop-color="#F8A56F" offset="0%"/><stop stop-color="#F5815C" offset="63.936%"/><stop stop-color="#F5805B" offset="64.776%"/><stop stop-color="#F26C51" offset="100%"/></linearGradient><linearGradient x1="12.957%" y1="80.245%" y2="15.021%" id="l"><stop stop-color="#F8A56F" offset="0%"/><stop stop-color="#F47A58" offset="74.855%"/><stop stop-color="#F26C51" offset="100%"/></linearGradient><linearGradient x1="12.957%" y1="80.245%" y2="15.021%" id="m"><stop stop-color="#F8A56F" offset="0%"/><stop stop-color="#F47A58" offset="74.833%"/><stop stop-color="#F26C51" offset="100%"/></linearGradient></defs><g fill="none" fill-rule="evenodd"><path fill="#FFF" d="M32.28 102.025h21.205V47.794H32.281z"/><path d="M32.6 101.705h20.565V48.113H32.6v53.592zm-.64.64h21.846v-54.87H31.96v54.87z" fill="url(#a)"/><path d="M35.766 54.384h2.557v-3.836h-2.557z"/><path d="M36.086 54.065h1.917v-3.197h-1.917v3.197zm-.64.64h3.197v-4.477h-3.197v4.476z" fill="url(#b)"/><path d="M39.659 54.384h2.556v-3.836H39.66z"/><path d="M39.979 54.065h1.916v-3.197H39.98v3.197zm-.64.64h3.196v-4.477h-3.197v4.476z" fill="url(#c)"/><path d="M43.551 54.384h2.557v-3.836H43.55z"/><path d="M43.87 54.065h1.917v-3.197h-1.916v3.197zm-.639.64h3.197v-4.477H43.23v4.476z" fill="url(#c)"/><path d="M47.444 54.384H50v-3.836h-2.556z"/><path d="M47.763 54.065h1.917v-3.197h-1.917v3.197zm-.64.64h3.197v-4.477h-3.196v4.476z" fill="url(#c)"/><path d="M35.766 60.46h2.557v-3.837h-2.557z"/><path d="M36.086 60.14h1.917v-3.198h-1.917v3.197zm-.64.64h3.197v-4.477h-3.197v4.476z" fill="url(#b)"/><path d="M39.659 60.46h2.556v-3.837H39.66z"/><path d="M39.979 60.14h1.916v-3.198H39.98v3.197zm-.64.64h3.196v-4.477h-3.197v4.476z" fill="url(#c)"/><path d="M43.551 60.46h2.557v-3.837H43.55z"/><path d="M43.87 60.14h1.917v-3.198h-1.916v3.197zm-.639.64h3.197v-4.477H43.23v4.476z" fill="url(#c)"/><path d="M47.444 60.46H50v-3.837h-2.556z"/><path d="M47.763 60.14h1.917v-3.198h-1.917v3.197zm-.64.64h3.197v-4.477h-3.196v4.476z" fill="url(#c)"/><path d="M35.766 66.534h2.557v-3.837h-2.557z"/><path d="M36.086 66.215h1.917v-3.198h-1.917v3.198zm-.64.639h3.197v-4.476h-3.197v4.476z" fill="url(#b)"/><path d="M39.659 66.534h2.556v-3.837H39.66z"/><path d="M39.979 66.215h1.916v-3.198H39.98v3.198zm-.64.639h3.196v-4.476h-3.197v4.476z" fill="url(#c)"/><path d="M43.551 66.534h2.557v-3.837H43.55z"/><path d="M43.87 66.215h1.917v-3.198h-1.916v3.198zm-.639.639h3.197v-4.476H43.23v4.476z" fill="url(#c)"/><path d="M47.444 66.534H50v-3.837h-2.556z"/><path d="M47.763 66.215h1.917v-3.198h-1.917v3.198zm-.64.639h3.197v-4.476h-3.196v4.476z" fill="url(#c)"/><path d="M35.766 72.609h2.557v-3.837h-2.557z"/><path d="M36.086 72.29h1.917v-3.198h-1.917v3.197zm-.64.639h3.197v-4.477h-3.197v4.477z" fill="url(#b)"/><path d="M39.659 72.609h2.556v-3.837H39.66z"/><path d="M39.979 72.29h1.916v-3.198H39.98v3.197zm-.64.639h3.196v-4.477h-3.197v4.477z" fill="url(#c)"/><path d="M43.551 72.609h2.557v-3.837H43.55z"/><path d="M43.87 72.29h1.917v-3.198h-1.916v3.197zm-.639.639h3.197v-4.477H43.23v4.477z" fill="url(#d)"/><path d="M47.444 72.609H50v-3.837h-2.556z"/><path d="M47.763 72.29h1.917v-3.198h-1.917v3.197zm-.64.639h3.197v-4.477h-3.196v4.477z" fill="url(#c)"/><path d="M84.717 102.044H55.532V34.671a2.916 2.916 0 0 1 2.917-2.916h23.348c1.61 0 2.92 1.305 2.92 2.916v67.373z" fill="#F6F7FB"/><path d="M55.852 101.725h28.544V34.671a2.6 2.6 0 0 0-2.599-2.596H58.45a2.599 2.599 0 0 0-2.596 2.596l-.001 67.054zm29.184.64H55.212V34.67a3.239 3.239 0 0 1 3.237-3.235h23.348a3.24 3.24 0 0 1 3.24 3.235v67.693z" fill="url(#e)"/><path fill="url(#e)" d="M55.532 45.638h29.183v-.64H55.532zM55.532 59.493h29.183v-.64H55.532zM55.532 73.348h29.183v-.64H55.532zM55.532 87.606h29.183v-.64H55.532z"/><path d="M73.528 40.952l6.147-2.755" fill="#E8F6FF"/><path fill="#F8A56F" d="M73.659 41.244l-.262-.584 6.147-2.755.262.584z"/><path d="M77.512 38.115l3.241-1.453" fill="#E8F6FF"/><path fill="#F8A56F" d="M77.643 38.407l-.262-.584 3.241-1.452.262.583z"/><path fill="url(#e)" d="M69.803 95.727h.64V31.755h-.64z"/><path d="M59.255 55.21l6.147-2.754" fill="#E8F6FF"/><path fill="#F8A56F" d="M59.386 55.502l-.262-.583 6.147-2.755.262.584z"/><path d="M63.239 52.374l3.241-1.453" fill="#E8F6FF"/><path fill="#F8A56F" d="M63.37 52.665l-.262-.583 3.24-1.453.263.584z"/><path fill="#FFF" d="M148.604 102.046h26.146V36.663h-26.146z"/><path d="M148.924 101.726h25.506V36.983h-25.506v64.743zm-.64.64h26.786V36.344h-26.786v66.022z" fill="url(#f)"/><path fill="url(#f)" d="M154.799 102.047h.64V36.663h-.64zM161.357 102.047h.64V36.662h-.64zM167.914 102.046h.64V36.66h-.64z"/><path fill="url(#g)" d="M148.604 81.709h26.146v-.64h-26.146zM148.604 78.994h26.146v-.64h-26.146zM148.604 58.848h26.146v-.64h-26.146zM148.604 56.134h26.146v-.64h-26.146z"/><path fill="#F6F7FB" d="M88.201 77.585h26.146V20.86H88.201z"/><path d="M88.52 77.266h25.507V21.179H88.521v56.087zm-.639.639h26.786V20.539H87.881v57.366z" fill="url(#e)"/><path fill="url(#e)" d="M118.082 102.364H84.466V70.897h7.354v.639h-6.714v30.189h32.336v-30.19h-6.156l-.001-40.498h.64v39.86h6.157z"/><path fill="url(#e)" d="M94.396 77.587h.64V20.859h-.64zM97.183 77.587h.64V20.859h-.64zM104.438 77.587h.64V20.859h-.64zM107.225 77.587h.641V20.859h-.64z"/><path fill="#FFF" d="M92.379 20.86h17.924v-7.834H92.379z"/><path d="M92.699 20.54h17.283v-7.195H92.7v7.194zm-.64.639h18.564v-8.473H92.059v8.473z" fill="url(#e)"/><path fill="url(#e)" d="M100.954 13.026h.64V1.782h-.64z"/><path fill="#0094D5" d="M84.786 77.907h32.976v-.64H84.786z"/><path fill="#E8F6FF" d="M88.201 102.046h5.485V85.09h-5.485z"/><path d="M88.52 101.726h4.846V85.41H88.52v16.317zm-.64.64h6.126V84.77h-6.125v17.596z" fill="#0094D5"/><path fill="#E8F6FF" d="M98.532 102.046h5.485V85.09h-5.485z"/><path d="M98.852 101.726h4.844V85.41h-4.844v16.317zm-.64.64h6.125V84.77h-6.125v17.596z" fill="#0094D5"/><path fill="#E8F6FF" d="M108.862 102.046h5.485V85.09h-5.485z"/><path d="M109.182 101.726h4.845V85.41h-4.845v16.317zm-.64.64h6.125V84.77h-6.125v17.596z" fill="#0094D5"/><path fill="url(#e)" d="M91.259 68.418h.64V36.662h-.64z"/><path fill="#FFF" d="M132.746 1.104l-7.012 12.6h14.023z"/><path d="M126.279 13.384h12.934l-6.467-11.622-6.467 11.622zm14.022.64h-15.11L132.746.446l7.555 13.578z" fill="url(#e)"/><path d="M147.648 24.342v69.684h-29.801V24.342a11.708 11.708 0 0 1 .076-1.362c.052-.493.138-.979.253-1.452h29.142c.115.473.202.96.253 1.452a11.708 11.708 0 0 1 .077 1.362" fill="#E7EBF9"/><path d="M118.167 93.707h29.16V24.342a11.188 11.188 0 0 0-.073-1.317 10.657 10.657 0 0 0-.19-1.177h-28.633c-.086.389-.149.78-.19 1.165a11.242 11.242 0 0 0-.075 1.329v69.365zm29.801.64h-30.442V24.341a11.908 11.908 0 0 1 .078-1.384c.053-.506.14-1.009.261-1.506l.06-.244h29.645l.06.245c.12.497.208 1 .26 1.494.013.128.026.248.035.365.03.33.043.667.043 1.03v70.004z" fill="url(#e)"/><path fill="url(#h)" d="M122.42 73.028h.641V26.934h-.64zM127.381 73.028h.641V26.934h-.64z"/><path fill="url(#i)" d="M132.343 73.028h.64V26.934h-.64zM137.303 73.028h.641V26.934h-.64z"/><path fill="url(#h)" d="M142.264 73.028h.64V26.934h-.64z"/><path fill="#0094D5" d="M121.249 22.26h23.16v-.64h-23.16z"/><path fill="#E7EBF9" d="M117.762 102.025h29.803V75.86h-29.803z"/><path d="M118.082 101.705h29.162V76.181h-29.162v25.524zm-.64.64h30.443V75.54h-30.443v26.804z" fill="url(#e)"/><path fill="#FFF" d="M117.725 23.338h30.042v-1.81h-30.042z"/><path d="M118.045 23.018h29.4v-1.17h-29.4v1.17zm-.64.64h30.681v-2.45h-30.682v2.45z" fill="url(#e)"/><path fill="#E8F6FF" d="M119.079 21.366h27.334v-1.808h-27.334z"/><path d="M119.4 21.047h26.693v-1.169H119.4v1.169zm-.641.639h27.974v-2.448H118.76v2.448z" fill="url(#e)"/><path fill="#FFF" d="M120.309 19.394h24.874v-1.808h-24.874z"/><path d="M120.629 19.074h24.234v-1.17h-24.234v1.17zm-.64.64h25.514v-2.448h-25.515v2.447z" fill="url(#e)"/><path fill="#E8F6FF" d="M121.428 17.421h22.636v-1.808h-22.636z"/><path d="M121.749 17.102h21.995v-1.17h-21.995v1.17zm-.64.639h23.275v-2.448h-23.276v2.448z" fill="url(#e)"/><path fill="#FFF" d="M122.447 15.449h20.598V13.64h-20.598z"/><path d="M122.767 15.13h19.958v-1.17h-19.958v1.17zm-.64.638h21.238v-2.447h-21.238v2.447zM202.876 102.48L0 102.368v-.64l202.876.114z" fill="url(#e)"/><path d="M68.826 54.604a5.039 5.039 0 0 1 7.12 0l33.94 33.904.028-.028 14.021 14.006V78.905a6.537 6.537 0 0 1 6.54-6.534h.561a2.955 2.955 0 0 1 2.958 2.966l-.12 37.078.601.6a9.854 9.854 0 0 1 0 13.944l-15.723 15.706c-3.745 3.742-9.818 3.742-13.563 0L80.43 117.933l22.335-22.312-33.94-33.904a5.026 5.026 0 0 1 0-7.113" fill="url(#j)"/><path d="M80.946 117.933l24.501 24.474c3.597 3.593 9.45 3.593 13.047 0l15.722-15.706a9.426 9.426 0 0 0 2.785-6.714c0-2.536-.99-4.92-2.785-6.714l-.707-.708.12-37.23a2.572 2.572 0 0 0-.756-1.837 2.575 2.575 0 0 0-1.836-.762h-.561c-3.405 0-6.176 2.767-6.176 6.169v24.462l-14.385-14.37-.287-.231-33.94-33.904a4.679 4.679 0 0 0-6.604 0 4.633 4.633 0 0 0-1.368 3.299c0 1.246.486 2.417 1.368 3.299l34.198 34.161-22.336 22.312zm31.024 27.898c-2.55 0-5.099-.97-7.04-2.907l-25.016-24.991 22.335-22.312-33.682-33.645a5.397 5.397 0 0 1 0-7.63 5.41 5.41 0 0 1 7.638 0l33.68 33.645.287.23 13.398 13.384v-22.7c0-3.804 3.098-6.899 6.906-6.899h.56a3.3 3.3 0 0 1 2.355.977c.627.63.971 1.466.968 2.355l-.12 36.926.494.493a10.152 10.152 0 0 1 2.998 7.23c0 2.731-1.065 5.299-2.998 7.23l-15.723 15.707a9.932 9.932 0 0 1-7.04 2.907z" fill="url(#k)"/><path d="M118.683 137.107c0-5.558-4.51-10.064-10.074-10.064" fill="#FFF"/><path d="M119.048 137.107h-.73c0-5.348-4.356-9.699-9.71-9.699v-.73c5.757 0 10.44 4.679 10.44 10.429" fill="url(#e)"/><path d="M124.115 102.814c-5.782 0-10.47 4.683-10.47 10.459s4.688 10.458 10.47 10.458" fill="#FFF"/><path d="M124.115 124.096c-5.974 0-10.834-4.855-10.834-10.823 0-5.969 4.86-10.823 10.834-10.823v.729c-5.571 0-10.104 4.528-10.104 10.094 0 5.565 4.533 10.093 10.104 10.093v.73z" fill="url(#e)"/><path d="M89.249 71.998l-3.213 3.21" fill="#FFF"/><path fill="#005C99" d="M86.294 75.465l-.517-.515 3.214-3.21.516.515z"/><path d="M99.313 81.7L96.1 84.91" fill="#FFF"/><path fill="#005C99" d="M96.358 85.168l-.517-.516 3.214-3.21.516.516z"/><path d="M133.144 76.291h.798v6.647h-1.925c-.585 0-1.06-.473-1.06-1.058v-3.405c0-1.206.98-2.184 2.187-2.184" fill="#FFF"/><path d="M133.144 76.656a1.822 1.822 0 0 0-1.821 1.82v3.404c0 .383.311.694.695.694h1.56v-5.918h-.434zm1.163 6.647h-2.29a1.426 1.426 0 0 1-1.425-1.423v-3.404a2.553 2.553 0 0 1 2.552-2.55h1.163v7.377z" fill="url(#e)"/><path d="M84.88 117.054h34.957a2.74 2.74 0 0 0 2.741-2.737V44.913a2.74 2.74 0 0 0-2.74-2.738H84.88a2.74 2.74 0 0 0-2.741 2.738v69.404a2.74 2.74 0 0 0 2.74 2.737" fill="#FFF"/><path d="M84.88 42.54a2.377 2.377 0 0 0-2.376 2.373v69.403a2.377 2.377 0 0 0 2.376 2.374h34.957a2.377 2.377 0 0 0 2.376-2.374V44.913a2.377 2.377 0 0 0-2.376-2.373H84.88zm34.957 74.88H84.88a3.108 3.108 0 0 1-3.106-3.104V44.913a3.108 3.108 0 0 1 3.106-3.103h34.957a3.108 3.108 0 0 1 3.106 3.103v69.403a3.108 3.108 0 0 1-3.106 3.103z" fill="url(#l)"/><path d="M85.083 116.576h34.952c1.18 0 2.137-.956 2.137-2.135v-68.49c0-1.18-.957-2.135-2.137-2.135H85.083c-1.18 0-2.137.956-2.137 2.135v68.49c0 1.18.957 2.135 2.137 2.135" fill="#CFDEF8"/><path d="M86.171 106.076h32.375a1.38 1.38 0 0 0 1.38-1.379V50.32a1.38 1.38 0 0 0-1.38-1.379H86.17a1.38 1.38 0 0 0-1.38 1.38v54.377a1.38 1.38 0 0 0 1.38 1.38" fill="#FFF"/><path d="M86.171 49.305c-.56 0-1.015.455-1.015 1.014v54.378c0 .56.455 1.015 1.015 1.015h32.375c.56 0 1.015-.455 1.015-1.015V50.32c0-.56-.456-1.014-1.015-1.014H86.17zm32.375 57.136H86.17a1.747 1.747 0 0 1-1.746-1.744V50.32c0-.961.783-1.744 1.746-1.744h32.375c.963 0 1.746.783 1.746 1.744v54.378c0 .962-.783 1.744-1.746 1.744z" fill="url(#e)"/><path d="M96.572 46.756h11.573c.258 0 .468-.21.468-.468v-.641a.468.468 0 0 0-.468-.468H96.572a.468.468 0 0 0-.468.468v.64c0 .26.21.469.468.469" fill="#FFF"/><path d="M96.572 45.544a.103.103 0 0 0-.103.103v.64c0 .057.046.104.103.104h11.572a.104.104 0 0 0 .104-.104v-.64a.103.103 0 0 0-.104-.103H96.572zm11.572 1.576H96.572a.834.834 0 0 1-.833-.833v-.64c0-.46.374-.833.833-.833h11.572c.46 0 .834.373.834.833v.64c0 .46-.374.833-.834.833z" fill="url(#e)"/><path d="M97.959 111.778h8.799a.61.61 0 0 0 .61-.608v-2.117a.609.609 0 0 0-.61-.609h-8.8a.609.609 0 0 0-.609.61v2.116a.61.61 0 0 0 .61.608" fill="url(#j)"/><path d="M97.959 108.809a.245.245 0 0 0-.245.244v2.116c0 .135.11.245.245.245h8.799c.134 0 .244-.11.244-.245v-2.116a.245.245 0 0 0-.244-.244h-8.8zm8.799 3.335h-8.8a.975.975 0 0 1-.974-.975v-2.116c0-.537.437-.974.975-.974h8.799c.538 0 .974.437.974.974v2.116a.975.975 0 0 1-.974.975z" fill="url(#e)"/><path d="M75.56 74.411l-3.212 3.21a2.758 2.758 0 0 0 0 3.903L83.97 93.136a4.542 4.542 0 0 0 6.418 0l.703-.702a4.53 4.53 0 0 0 0-6.412l-11.624-11.61a2.766 2.766 0 0 0-3.908 0" fill="#FFF"/><path d="M77.514 73.968c-.614 0-1.228.234-1.696.701l-3.212 3.209a2.396 2.396 0 0 0 0 3.388L84.23 92.877a4.145 4.145 0 0 0 2.95 1.222 4.146 4.146 0 0 0 2.95-1.222l.704-.702a4.14 4.14 0 0 0 1.222-2.947 4.14 4.14 0 0 0-1.222-2.948L79.21 74.67a2.392 2.392 0 0 0-1.696-.702m9.666 20.86c-1.31 0-2.54-.51-3.467-1.434L72.09 81.782a3.104 3.104 0 0 1-.916-2.21c0-.835.326-1.62.916-2.21l3.213-3.209a3.11 3.11 0 0 1 2.212-.915 3.11 3.11 0 0 1 2.213.915L91.35 85.764a4.865 4.865 0 0 1 1.436 3.464c0 1.308-.51 2.538-1.436 3.464l-.702.702a4.875 4.875 0 0 1-3.468 1.434" fill="url(#e)"/><path d="M83.25 89.593l1.916 1.913a1.27 1.27 0 0 0 1.795 0l2.53-2.527a1.267 1.267 0 0 0 0-1.794l-1.915-1.913a2.281 2.281 0 0 0-3.224 0l-1.101 1.1c-.89.89-.89 2.332 0 3.221" fill="#FFF"/><path d="M85.964 84.97c-.511 0-.992.199-1.353.56l-1.102 1.1a1.899 1.899 0 0 0-.56 1.353c0 .51.199.99.56 1.353l1.915 1.912a.906.906 0 0 0 1.279 0l2.53-2.527a.897.897 0 0 0 .265-.64.897.897 0 0 0-.265-.638l-1.915-1.913a1.902 1.902 0 0 0-1.354-.56m.1 7.272c-.42 0-.838-.16-1.157-.478l-1.914-1.913c-.5-.499-.775-1.163-.775-1.868 0-.706.275-1.37.775-1.869l1.1-1.1c.5-.498 1.164-.773 1.871-.773.707 0 1.37.275 1.87.774l1.915 1.913c.31.308.48.718.48 1.154 0 .436-.17.846-.48 1.155l-2.53 2.527a1.631 1.631 0 0 1-1.156.478" fill="url(#e)"/><path d="M73.875 87.164l-3.212 3.209a2.759 2.759 0 0 0 0 3.904l11.623 11.612a4.542 4.542 0 0 0 6.418 0l.703-.702a4.53 4.53 0 0 0 0-6.412l-11.623-11.61a2.766 2.766 0 0 0-3.909 0" fill="#FFF"/><path d="M75.83 86.722c-.615 0-1.229.233-1.696.7l-3.213 3.209a2.378 2.378 0 0 0-.702 1.694c0 .64.249 1.242.702 1.694l11.624 11.611a4.148 4.148 0 0 0 2.95 1.222 4.145 4.145 0 0 0 2.95-1.222l.704-.701a4.139 4.139 0 0 0 1.222-2.948 4.14 4.14 0 0 0-1.222-2.948l-11.624-11.61a2.392 2.392 0 0 0-1.696-.701m9.666 20.86c-1.31 0-2.54-.51-3.467-1.435L70.405 94.535a3.127 3.127 0 0 1 0-4.42l3.212-3.209a3.11 3.11 0 0 1 2.212-.915 3.11 3.11 0 0 1 2.213.915l11.624 11.611a4.865 4.865 0 0 1 1.435 3.464c0 1.308-.51 2.538-1.435 3.463l-.703.703a4.877 4.877 0 0 1-3.468 1.434" fill="url(#e)"/><path d="M75.658 88.39l-3.213 3.21M81.566 102.346l1.915 1.913a1.27 1.27 0 0 0 1.795 0l2.53-2.527a1.267 1.267 0 0 0 0-1.794l-1.914-1.913a2.281 2.281 0 0 0-3.225 0l-1.1 1.1c-.891.89-.891 2.332 0 3.221" fill="#FFF"/><path d="M84.28 97.724c-.491 0-.98.186-1.354.559l-1.101 1.1a1.899 1.899 0 0 0-.562 1.353c0 .51.2.991.562 1.353l1.914 1.913c.343.34.939.34 1.279 0l2.53-2.528a.904.904 0 0 0 0-1.278l-1.915-1.913a1.91 1.91 0 0 0-1.353-.559m.099 7.271c-.437 0-.847-.17-1.156-.478l-1.915-1.913c-.5-.499-.775-1.162-.775-1.868 0-.706.275-1.37.775-1.868l1.101-1.1a2.65 2.65 0 0 1 3.741 0l1.914 1.912a1.633 1.633 0 0 1 0 2.31l-2.53 2.527c-.308.309-.718.478-1.155.478" fill="url(#e)"/><path d="M72.19 99.917l-3.212 3.209a2.759 2.759 0 0 0 0 3.904l11.624 11.612a4.542 4.542 0 0 0 6.418 0l.702-.702a4.53 4.53 0 0 0 0-6.412L76.1 99.918a2.766 2.766 0 0 0-3.908 0" fill="#FFF"/><path d="M74.145 99.473c-.64 0-1.243.25-1.696.702l-3.213 3.21a2.377 2.377 0 0 0-.702 1.693c0 .64.25 1.241.702 1.694l11.624 11.612a4.182 4.182 0 0 0 5.901 0l.703-.702a4.17 4.17 0 0 0 0-5.896L75.84 100.175a2.383 2.383 0 0 0-1.695-.702m9.665 20.859a4.891 4.891 0 0 1-3.467-1.433L68.72 107.288a3.126 3.126 0 0 1 0-4.42l3.212-3.209a3.11 3.11 0 0 1 2.213-.915c.836 0 1.621.325 2.212.915l11.624 11.612a4.9 4.9 0 0 1 0 6.926l-.703.702a4.893 4.893 0 0 1-3.468 1.433" fill="url(#m)"/><path d="M73.973 101.144l-3.213 3.21M74.685 101.797l-2.319 2.316M79.881 115.1l1.915 1.912a1.27 1.27 0 0 0 1.796 0l2.53-2.527a1.267 1.267 0 0 0 0-1.794l-1.915-1.913a2.281 2.281 0 0 0-3.224 0l-1.102 1.1c-.89.89-.89 2.332 0 3.221" fill="#FFF"/><path d="M80.14 114.841l1.915 1.913a.906.906 0 0 0 1.278 0l2.53-2.527a.903.903 0 0 0 0-1.278l-1.914-1.913a1.919 1.919 0 0 0-2.708 0l-1.101 1.1a1.914 1.914 0 0 0 0 2.705m2.554 2.907a1.63 1.63 0 0 1-1.156-.478l-1.915-1.913a2.644 2.644 0 0 1 0-3.737l1.1-1.1a2.651 2.651 0 0 1 3.742 0l1.915 1.913a1.634 1.634 0 0 1 0 2.31l-2.53 2.527a1.63 1.63 0 0 1-1.156.478" fill="url(#e)"/><path d="M108.718 95.408H96.4a.984.984 0 0 1-.985-.984V90.29c0-.544.44-.984.985-.984h12.318c.544 0 .985.44.985.984v4.134c0 .544-.441.984-.985.984" fill="#CFDEF8"/><path fill="#FFF" d="M97.386 92.357h2.069V90.29h-2.07zM99.455 94.45h2.07v-2.068h-2.07zM101.524 92.365h2.07v-2.067h-2.07zM103.594 94.467h2.07V92.4h-2.07zM105.663 92.382h2.07v-2.067h-2.07z"/><path d="M110.512 70.254c0 4.498-8.154 13.344-8.154 13.344s-8.153-8.846-8.153-13.344c0-4.499 3.65-8.145 8.153-8.145s8.154 3.646 8.154 8.145" fill="#CFDEF8"/><path d="M105.429 70.482a3.069 3.069 0 0 1-3.07 3.067 3.07 3.07 0 0 1-3.071-3.067 3.07 3.07 0 0 1 3.07-3.067 3.069 3.069 0 0 1 3.071 3.067M146.247 130.463l-23.412 23.387-7.918-7.91 23.411-23.388z" fill="#FFF"/><path d="M115.433 145.94l7.403 7.394 22.895-22.872-7.403-7.394-22.895 22.872zm7.403 8.426l-8.435-8.426.257-.258 23.67-23.646 8.436 8.426-.258.259-23.67 23.645z" fill="url(#e)"/><path fill="#F6F7FB" d="M119.926 159.406l-3.924-3.92 31.79-31.755 17.856 17.838"/><path fill="url(#e)" d="M119.668 159.664l-4.182-4.177.258-.258 32.047-32.014 18.115 18.095-.517.517-17.598-17.58-31.273 31.24 3.667 3.661z"/><path d="M50.436 17.828a3.554 3.554 0 0 0-3.552 3.548 3.554 3.554 0 0 0 3.552 3.548h14.843a3.554 3.554 0 0 0 3.55-3.548 3.554 3.554 0 0 0-3.55-3.548H62.55v-.612a1.734 1.734 0 0 0-3.466 0h-.64v-2.49c0-1.94-1.58-3.52-3.522-3.52a3.524 3.524 0 0 0-3.522 3.52v3.102h-.965zm14.843 7.735H50.436a4.194 4.194 0 0 1-4.192-4.187 4.194 4.194 0 0 1 4.192-4.187h.325v-2.464a4.165 4.165 0 0 1 4.162-4.158 4.165 4.165 0 0 1 4.162 4.158v.872a2.375 2.375 0 0 1 4.106 1.592h2.088a4.194 4.194 0 0 1 4.191 4.187c0 2.309-1.88 4.187-4.191 4.187zM158.229 17.818a4.902 4.902 0 0 0-4.9 4.895 4.902 4.902 0 0 0 4.9 4.894h20.012c2.701 0 4.899-2.196 4.899-4.894a4.903 4.903 0 0 0-4.9-4.895h-1.19v-4.073a4.863 4.863 0 0 0-4.86-4.854 4.863 4.863 0 0 0-4.86 4.854v3.358h-.64a2.45 2.45 0 0 0-2.447-2.445 2.45 2.45 0 0 0-2.449 2.445v.715h-3.565zm20.012 10.428h-20.012a5.543 5.543 0 0 1-5.54-5.533 5.543 5.543 0 0 1 5.54-5.534h2.925v-.076a3.09 3.09 0 0 1 5.537-1.878v-1.48a5.503 5.503 0 0 1 5.5-5.493c3.033 0 5.5 2.464 5.5 5.493v3.434h.55a5.543 5.543 0 0 1 5.54 5.534 5.543 5.543 0 0 1-5.54 5.533zM31.094 36.216a2.509 2.509 0 0 0-2.508 2.505v.426a2.509 2.509 0 0 0 2.508 2.505h10.455a2.509 2.509 0 0 0 2.508-2.505v-.426a2.509 2.509 0 0 0-2.508-2.505h-1.227v-.586a2.509 2.509 0 0 0-2.507-2.505 2.509 2.509 0 0 0-2.507 2.505v.586h-4.214zm10.455 6.075H31.094a3.149 3.149 0 0 1-3.147-3.144v-.426a3.149 3.149 0 0 1 3.147-3.144h3.574a3.15 3.15 0 0 1 3.147-3.091 3.15 3.15 0 0 1 3.147 3.091h.587a3.149 3.149 0 0 1 3.147 3.144v.426a3.149 3.149 0 0 1-3.147 3.144z" fill="#FFF"/></g></svg>