<svg width="114" height="24" viewBox="0 0 114 24" xmlns="http://www.w3.org/2000/svg"><title>E9424EE9-5949-4794-B9FE-C9C5BED68295</title><g fill="none" fill-rule="evenodd"><path fill="#E7EBF9" d="M-329-425h1400v1475H-329z"/><g fill="#3D485B"><path d="M.47.355C2.082.207 3.708.306 5.326.297c-.007 4.526-.006 9.052 0 13.579.035 1.631.255 3.442 1.467 4.656 1.25 1.222 3.106 1.49 4.782 1.5 1.702.043 3.518-.185 4.909-1.252 1.286-1.123 1.68-2.896 1.706-4.534-.008-4.403-.002-8.806-.004-13.21-.01-.236.058-.464.123-.687 1.618-.136 3.25-.047 4.873-.052-.024 4.776.006 9.55-.015 14.326-.052 2.527-.839 5.208-2.828 6.895-2.26 1.924-5.35 2.388-8.223 2.457-2.98.01-6.179-.347-8.62-2.21C1.371 20.146.44 17.412.383 14.819.376 10.284.386 5.751.38 1.218.378.927.42.64.47.356zM33.003.653c.494-.326 1.107-.364 1.684-.371 3.353.002 6.71.002 10.063 0 1.814.011 3.684.114 5.38.818 1.15.478 2.15 1.376 2.612 2.55.546 1.413.576 3 .227 4.466-.315 1.32-1.167 2.511-2.373 3.154 1.149.37 2.206 1.095 2.812 2.157.915 1.577 1.064 3.505.762 5.277-.263 1.48-1.135 2.86-2.442 3.632-1.572.974-3.471 1.212-5.287 1.233-4.17-.01-8.341.011-12.51-.011-.753.046-1.523-.472-1.474-1.284-.023-6.707.002-13.416-.011-20.126-.006-.534.069-1.175.557-1.495zm4.342 3.406c-.01 1.97-.004 3.936-.006 5.905 2.286.013 4.57 0 6.855.007.983-.013 2.038.064 2.933-.419.725-.372 1.077-1.201 1.11-1.981.042-.926.059-1.995-.607-2.726-.645-.66-1.625-.758-2.5-.786-2.595-.005-5.19-.001-7.785 0zm.982 9.746c-.61.268-.986.916-.982 1.572-.013 1.471-.004 2.941-.002 4.41 2.347.016 4.692.003 7.038.008 1.178-.017 2.405.097 3.534-.307.867-.293 1.365-1.185 1.425-2.06.06-.91.087-1.89-.353-2.718-.551-.942-1.726-1.168-2.73-1.2-1.869-.007-3.737.004-5.603-.003-.781-.002-1.598-.02-2.327.298zM63.268 1.597c.026-1.006 1.139-1.32 1.97-1.311 3.55-.008 7.1 0 10.65-.002 2.521.03 5.048-.064 7.568.05-.613 1.15-.964 2.422-1.538 3.59l-.246.161c-4.52.038-9.042.01-13.56.014-.02 1.925-.006 3.851-.008 5.78 3.784.009 7.567-.029 11.35.018-.38 1.226-.925 2.393-1.4 3.584-.222.061-.446.134-.68.125-2.175-.008-4.352 0-6.528-.004-.74.018-1.532.093-2.146.544-.52.424-.58 1.145-.596 1.77 0 1.279-.011 2.557.007 3.836 5.075-.003 10.151-.009 15.226.004-.358 1.276-.955 2.474-1.441 3.707-.562.154-1.149.097-1.723.104-5.032.002-10.063-.004-15.095.004-.505-.006-1.059-.036-1.473-.362-.324-.279-.363-.73-.356-1.127.019-6.828-.017-13.658.019-20.485zM92.019.751c.548-.436 1.279-.47 1.95-.47 3.55.007 7.097-.003 10.645.005 2.093.078 4.316.286 6.103 1.482 1.427.934 2.197 2.602 2.362 4.258.226 2.023.079 4.236-1.098 5.966-.816 1.159-2.12 1.872-3.469 2.224a1495.88 1495.88 0 0 0 5.05 8.664c.133.208.18.44.138.693-1.61-.028-3.223.028-4.832-.026-.377.024-.494-.371-.664-.623-1.493-2.745-3.053-5.452-4.54-8.2-1.49-.012-2.98-.005-4.472-.006-.762.02-1.59.12-2.198.624-.486.493-.505 1.234-.512 1.885.013 2.11-.011 4.22.013 6.333-1.603-.045-3.227.136-4.817-.105-.094-7.042-.008-14.089-.043-21.133 0-.537-.038-1.166.384-1.57zm4.468 3.307c-.003 2.328-.003 4.656 0 6.984 2.827-.005 5.655-.001 8.483-.001.759-.01 1.545-.144 2.202-.542.73-.488.988-1.397 1.042-2.23.046-1.038.08-2.166-.485-3.085-.658-.927-1.877-1.091-2.93-1.123-2.771-.01-5.541-.002-8.312-.003z"/></g></g></svg>