<svg width="81" height="17" viewBox="0 0 81 17" xmlns="http://www.w3.org/2000/svg"><title>77E99D31-E8C3-484A-BD47-BEB46CD75C1E</title><g fill="#3D485B" fill-rule="evenodd"><path d="M.334.251c1.145-.104 2.3-.034 3.45-.04-.005 3.205-.004 6.411 0 9.618.025 1.155.182 2.438 1.043 3.298.887.866 2.207 1.056 3.397 1.062 1.21.03 2.5-.13 3.488-.887.914-.795 1.194-2.051 1.212-3.21-.005-3.12-.001-6.239-.003-9.358-.006-.168.042-.328.088-.487C14.159.151 15.318.214 16.47.21c-.017 3.383.004 6.765-.01 10.148-.037 1.79-.596 3.689-2.01 4.884-1.605 1.363-3.801 1.691-5.842 1.74-2.117.007-4.39-.245-6.126-1.565-1.508-1.147-2.17-3.084-2.21-4.92C.267 7.284.274 4.072.27.862A3.38 3.38 0 0 1 .334.251zM23.45.462c.35-.23.786-.257 1.196-.262h7.15c1.289.008 2.617.08 3.823.579.817.339 1.527.975 1.856 1.806.388 1.002.409 2.126.161 3.164-.224.935-.829 1.779-1.686 2.234.816.262 1.567.776 1.998 1.528.65 1.117.756 2.483.541 3.737-.186 1.05-.806 2.027-1.735 2.573-1.117.69-2.466.86-3.757.874-2.963-.007-5.926.008-8.888-.008-.535.033-1.082-.334-1.048-.91-.015-4.75.002-9.503-.008-14.255-.003-.379.05-.833.397-1.06zm3.085 2.413c-.007 1.395-.003 2.788-.004 4.183 1.624.01 3.246 0 4.87.005.698-.01 1.448.045 2.084-.297.515-.264.765-.85.788-1.404.03-.655.042-1.413-.43-1.93-.459-.468-1.156-.537-1.777-.557-1.844-.004-3.688 0-5.531 0zm.698 6.903c-.433.19-.701.65-.698 1.114-.01 1.042-.003 2.083-.002 3.124 1.668.01 3.334.002 5 .006.838-.012 1.71.068 2.512-.218.616-.207.97-.84 1.012-1.46.043-.643.062-1.339-.25-1.924-.392-.668-1.227-.828-1.94-.85-1.328-.005-2.655.003-3.981-.003-.555-.001-1.135-.014-1.653.211zM44.953 1.131c.019-.712.81-.935 1.4-.929 2.523-.005 5.045 0 7.567-.001 1.792.021 3.587-.045 5.378.036-.436.814-.685 1.715-1.093 2.542l-.175.115c-3.21.026-6.424.006-9.635.01-.013 1.363-.004 2.728-.006 4.093 2.69.007 5.377-.02 8.065.013-.27.869-.657 1.696-.995 2.539-.158.043-.317.095-.482.088-1.546-.005-3.093 0-4.639-.002-.526.013-1.089.066-1.525.385-.37.3-.412.811-.424 1.253 0 .907-.007 1.812.006 2.718 3.605-.002 7.212-.006 10.818.003-.254.904-.678 1.752-1.024 2.625-.399.11-.816.069-1.224.074-3.575.002-7.15-.002-10.725.003-.36-.004-.753-.025-1.047-.256-.23-.198-.258-.517-.253-.798.013-4.837-.012-9.675.013-14.51zM65.382.532c.39-.309.908-.334 1.385-.332 2.522.004 5.043-.003 7.564.002 1.487.056 3.066.204 4.337 1.05 1.013.662 1.56 1.844 1.678 3.017.16 1.433.056 3-.78 4.226-.58.82-1.506 1.326-2.465 1.575 1.19 2.048 2.383 4.095 3.588 6.136a.681.681 0 0 1 .098.491c-1.144-.02-2.29.02-3.433-.018-.268.017-.351-.263-.472-.44-1.061-1.946-2.17-3.863-3.225-5.81-1.06-.008-2.118-.003-3.178-.004-.542.014-1.13.086-1.562.442-.346.35-.359.875-.364 1.335.01 1.495-.008 2.99.01 4.486-1.14-.032-2.294.096-3.424-.074-.066-4.988-.005-9.98-.03-14.97 0-.38-.027-.826.273-1.112zm3.175 2.342c-.003 1.65-.003 3.299 0 4.948 2.008-.004 4.017-.002 6.027-.002.539-.006 1.098-.101 1.564-.383.52-.346.702-.99.74-1.58.034-.735.058-1.534-.344-2.185-.467-.657-1.334-.773-2.082-.795-1.968-.007-3.937-.002-5.905-.003z"/></g></svg>