<svg width="80" height="80" viewBox="0 0 80 80" xmlns="http://www.w3.org/2000/svg"><title>6BF13C2B-7C7E-474D-B7EC-96CDCD946A1C</title><g fill="none" fill-rule="evenodd"><path fill="#000001" d="M0 0h80v80H0z"/><g fill="#FFF"><path d="M14.498 35.01c.727-.064 1.46-.022 2.19-.026-.003 1.94-.002 3.88 0 5.82.016.7.116 1.475.662 1.996.564.523 1.401.638 2.158.642.767.019 1.587-.079 2.214-.536.58-.482.758-1.242.77-1.943-.004-1.887-.001-3.775-.002-5.662-.004-.101.026-.199.055-.294.73-.059 1.466-.02 2.199-.023-.011 2.047.002 4.093-.007 6.14-.023 1.083-.378 2.232-1.276 2.955-1.02.825-2.414 1.024-3.71 1.053-1.344.004-2.787-.148-3.888-.947-.958-.694-1.379-1.866-1.404-2.977-.004-1.943 0-3.886-.002-5.828 0-.126.018-.249.04-.37zM29.174 35.137c.223-.14.5-.156.76-.159h4.54c.818.005 1.662.049 2.427.35.519.206.97.59 1.178 1.093.247.606.26 1.286.103 1.915a2.092 2.092 0 0 1-1.07 1.351c.517.159.994.47 1.267.924.413.677.48 1.503.344 2.262a2.27 2.27 0 0 1-1.101 1.557c-.71.417-1.566.52-2.386.528-1.88-.004-3.762.005-5.643-.005-.34.02-.687-.202-.665-.55-.01-2.874 0-5.75-.005-8.625-.003-.23.031-.504.251-.641zm1.96 1.46c-.005.844-.003 1.687-.003 2.53 1.03.006 2.06 0 3.092.004.443-.006.92.027 1.323-.18.327-.16.486-.515.5-.85.02-.396.027-.854-.273-1.167-.291-.284-.733-.325-1.128-.337-1.17-.003-2.341 0-3.512 0zm.442 4.176a.733.733 0 0 0-.443.674c-.006.63-.002 1.26 0 1.89 1.058.007 2.116.001 3.174.004.532-.007 1.085.041 1.595-.132.39-.125.615-.508.642-.883.027-.39.04-.81-.159-1.165-.249-.403-.779-.5-1.232-.514-.843-.003-1.685.002-2.527-.001-.352-.001-.72-.009-1.05.127zM42.828 35.542c.011-.432.513-.566.889-.562 1.6-.004 3.202 0 4.803-.001 1.138.013 2.278-.027 3.415.021-.277.493-.435 1.038-.694 1.539-.028.017-.083.051-.11.07-2.04.015-4.08.003-6.118.005-.009.825-.003 1.65-.004 2.477 1.707.004 3.414-.012 5.12.008-.171.525-.417 1.025-.631 1.536-.1.026-.201.057-.306.053-.982-.003-1.964 0-2.946-.002-.334.008-.691.04-.968.234-.234.182-.261.49-.269.758 0 .548-.005 1.096.004 1.644 2.289-.001 4.579-.004 6.868.002-.161.547-.43 1.06-.65 1.589-.253.066-.518.041-.777.044-2.27.001-4.54-.001-6.81.002-.228-.003-.478-.015-.664-.155-.147-.12-.164-.313-.16-.483.008-2.926-.008-5.854.008-8.78zM55.798 35.18c.247-.188.577-.203.88-.202 1.6.002 3.201-.002 4.802.002.944.033 1.947.122 2.753.635.644.4.991 1.115 1.066 1.825.102.867.035 1.815-.495 2.557-.369.496-.957.802-1.566.953a634.257 634.257 0 0 0 2.279 3.713c.06.09.08.188.062.297-.727-.012-1.454.012-2.18-.011-.17.01-.223-.16-.3-.267-.673-1.177-1.377-2.337-2.047-3.515-.673-.005-1.345-.002-2.018-.002-.344.008-.717.052-.991.267-.22.212-.228.53-.232.808.006.904-.005 1.809.006 2.714-.723-.02-1.456.058-2.173-.045-.042-3.018-.003-6.038-.02-9.057 0-.23-.016-.5.174-.673zm2.016 1.416a887.97 887.97 0 0 0 0 2.994c1.275-.003 2.55-.001 3.827-.001.342-.004.697-.062.993-.232.33-.21.446-.6.47-.956.02-.445.036-.928-.219-1.322-.297-.397-.847-.468-1.322-.481-1.25-.004-2.5-.001-3.75-.002z"/></g></g></svg>