<svg width="56" height="48" viewBox="0 0 56 48" xmlns="http://www.w3.org/2000/svg"><title>4BEBFB9E-B5BE-4C90-A91C-0B3476C9A841</title><defs><linearGradient x1="12.957%" y1="80.245%" y2="15.021%" id="a"><stop stop-color="#F8A56F" offset="0%"/><stop stop-color="#F26C51" offset="100%"/></linearGradient></defs><g transform="translate(-468 -1759)" fill="url(#a)" fill-rule="evenodd"><path d="M513.197 1796.676h2.942v-14.435h-2.942v14.435zm3.448 1.017h-3.954a.508.508 0 0 1-.506-.508v-15.453c0-.28.227-.509.506-.509h3.954c.28 0 .506.228.506.509v15.453c0 .28-.227.508-.506.508z"/><path d="M517.151 1795.792h.31a.51.51 0 0 1 .318-.407c2.781-1.08 4.579-3.417 4.579-5.951 0-2.53-1.79-4.861-4.56-5.945l-.647-.193v12.496zm.811.068h.006-.006zm0 .95h-1.317a.508.508 0 0 1-.506-.509v-13.685a.505.505 0 0 1 .65-.488l1.316.391a.38.38 0 0 1 .04.014c3.174 1.233 5.225 3.941 5.225 6.9 0 2.857-1.912 5.48-4.902 6.769v.099c0 .28-.226.509-.506.509zM504.546 1803.062c-.717 0-1.3.586-1.3 1.307s.583 1.307 1.3 1.307h4.156c.717 0 1.301-.586 1.301-1.307 0-.72-.584-1.307-1.3-1.307h-4.157zm4.156 3.631h-4.156a2.321 2.321 0 0 1-2.313-2.324 2.322 2.322 0 0 1 2.313-2.325h4.156a2.322 2.322 0 0 1 2.313 2.325 2.321 2.321 0 0 1-2.313 2.324z"/><path d="M510.509 1804.877a.508.508 0 1 1-.003-1.017c4.094-.029 6.882-1.046 8.287-3.02 1.753-2.464.733-5.632.723-5.664a.506.506 0 0 1 .96-.321c.049.149 1.19 3.696-.86 6.577-1.604 2.254-4.667 3.414-9.104 3.445h-.003zM475.23 1796.676h2.942v-14.435h-2.941v14.435zm3.448 1.017h-3.953a.508.508 0 0 1-.506-.508v-15.453c0-.28.226-.509.506-.509h3.953c.28 0 .506.228.506.509v15.453c0 .28-.226.508-.506.508z"/><path d="M473.91 1795.792h.308v-12.496l-.647.193c-2.77 1.084-4.559 3.415-4.559 5.945 0 2.534 1.797 4.87 4.578 5.951a.508.508 0 0 1 .32.407m.814 1.018h-1.316a.508.508 0 0 1-.506-.509v-.099c-2.99-1.289-4.902-3.912-4.902-6.768 0-2.96 2.051-5.668 5.225-6.901.013-.006.026-.01.04-.014l1.316-.39a.504.504 0 0 1 .65.487v13.685c0 .28-.227.509-.507.509M514.865 1782.008a.508.508 0 0 1-.506-.509v-3.732c0-9.787-7.922-17.75-17.66-17.75h-2.03c-9.736 0-17.657 7.963-17.657 17.75v3.732c0 .28-.227.509-.506.509a.508.508 0 0 1-.507-.509v-3.732c0-10.348 8.376-18.767 18.67-18.767h2.03c10.296 0 18.672 8.419 18.672 18.767v3.732c0 .28-.227.509-.506.509"/></g></svg>