<svg width="32" height="32" viewBox="0 0 32 32" xmlns="http://www.w3.org/2000/svg"><title>1EF230BA-FDE8-4166-BCC3-94160D2F7E4D</title><g fill="none" fill-rule="evenodd"><ellipse fill="#4D76A1" cx="15.886" cy="15.886" rx="15.886" ry="15.886"/><path d="M15.286 22.854h1.247s.377-.042.569-.249c.177-.19.171-.548.171-.548s-.024-1.673.752-1.92c.766-.242 1.749 1.618 2.79 2.333.788.541 1.387.422 1.387.422l2.786-.038s1.457-.09.766-1.236c-.057-.094-.402-.847-2.071-2.396-1.747-1.622-1.513-1.36.591-4.164 1.282-1.708 1.794-2.75 1.634-3.197-.153-.425-1.095-.313-1.095-.313l-3.137.02s-.232-.032-.405.07c-.168.102-.277.338-.277.338s-.496 1.321-1.158 2.445c-1.397 2.372-1.955 2.497-2.184 2.35-.53-.343-.398-1.379-.398-2.115 0-2.298.349-3.256-.679-3.504-.34-.083-.592-.137-1.464-.146-1.119-.012-2.066.003-2.602.266-.357.175-.632.564-.465.587.207.027.677.126.926.465.321.437.31 1.42.31 1.42s.185 2.705-.431 3.041c-.423.23-1.003-.24-2.248-2.392-.638-1.102-1.12-2.32-1.12-2.32s-.093-.228-.258-.35c-.202-.147-.482-.194-.482-.194l-2.981.02s-.447.012-.612.207c-.146.173-.011.53-.011.53s2.333 5.46 4.975 8.211c2.423 2.522 5.174 2.357 5.174 2.357z" fill="#FFF"/></g></svg>