<svg xmlns="http://www.w3.org/2000/svg" width="52" height="48" viewBox="0 0 52 48">
    <g fill="none" fill-rule="evenodd" transform="translate(-736 -1723)">
        <g fill="#FFB9DB" fill-rule="nonzero">
            <path d="M739.516 1735.843c7.361-4.263 14.723-8.526 22.084-12.793 7.361 4.265 14.722 8.53 22.084 12.793.174.103.36.251.362.476a.526.526 0 0 1-.542.572 164.1 164.1 0 0 1-3.229-.003 561.33 561.33 0 0 1-7.018.01c-2.72-.008-5.439 0-8.159-.001-1.2.042-2.4-.065-3.6-.015-1.132.038-2.265.02-3.397.015-2.721-.001-5.441-.005-8.162 0-1.415.009-2.83.01-4.245 0a36.951 36.951 0 0 0-2.777-.003c-1.071.002-2.143.009-3.215-.002a.527.527 0 0 1-.547-.581c.005-.222.189-.366.361-.468zM740.925 1760.453c.663-.037 1.329-.002 1.993-.016 1.462-.002 2.925-.027 4.387.02.878.039 1.755-.034 2.633-.02 2.721.002 5.442.005 8.163.001a674.02 674.02 0 0 1 6.996.002l8.16-.002c2.34.059 4.68-.047 7.021 0 .664.013 1.329-.022 1.993.014.287.017.51.286.504.571.033.903-.032 1.81.04 2.712-.904.098-1.808-.062-2.712-.002-1.333.075-2.668.027-4.002.04-1.301-.013-2.604.035-3.905-.039-.899-.05-1.797.06-2.697.042-1.931-.018-3.864.022-5.795-.019-1.134-.097-2.267.042-3.401.018-2.234-.019-4.47.04-6.702-.055-2.264.1-4.531.032-6.796.056-.837.02-1.671-.075-2.508-.05-1.3.065-2.603.069-3.904.021.056-.906-.002-1.816.029-2.724-.002-.282.217-.552.503-.57z"/>
        </g>
        <path fill="#F35D97" fill-rule="nonzero" d="M740.393 1763.747a45 45 0 0 0 3.904-.022c.837-.024 1.671.072 2.508.05 2.265-.023 4.532.046 6.796-.055 2.232.096 4.468.036 6.702.055 1.134.024 2.267-.115 3.401-.018 1.931.04 3.864.001 5.795.019.9.019 1.798-.091 2.697-.042 1.301.074 2.604.026 3.905.04 1.334-.014 2.669.034 4.002-.04.904-.061 1.808.099 2.712.001.051.518.022 1.039.027 1.558-.716.005-1.432 0-2.149-.008-.248.01-.522-.007-.735.147-.211.147-.383.341-.562.525-1.362 1.408-2.778 2.762-4.117 4.193-.614.002-1.228.002-1.842 0 .451-.586 1.006-1.076 1.516-1.606 1.047-1.066 2.11-2.116 3.154-3.185-.4-.04-.799-.098-1.202-.073-1.803.02-3.607.001-5.41.005-.372-.034-.624.268-.859.507-1.402 1.468-2.882 2.862-4.262 4.352-.647.002-1.294.002-1.94 0 .495-.644 1.113-1.171 1.668-1.757.997-1.024 2.034-2.01 3.007-3.057a14.61 14.61 0 0 0-1.707-.04c-1.567-.009-3.134.009-4.701-.013-.265.002-.567-.002-.759.216-1.507 1.562-3.089 3.055-4.563 4.65-.648.003-1.295.003-1.943 0 .467-.606 1.044-1.109 1.57-1.658 1.033-1.054 2.093-2.081 3.105-3.154a13.648 13.648 0 0 0-1.612-.045c-1.634.002-3.267.012-4.901-.006a.88.88 0 0 0-.761.305c-1.467 1.541-3.015 3.002-4.465 4.559-.647.002-1.294.002-1.94 0 .314-.395.66-.76 1.024-1.107 1.222-1.224 2.434-2.457 3.654-3.683-.435-.05-.871-.103-1.309-.07-1.767.011-3.535 0-5.302.001-.349-.038-.597.227-.815.458-1.42 1.484-2.911 2.898-4.311 4.4-.647.003-1.293.003-1.94 0 .352-.453.764-.854 1.174-1.253 1.161-1.184 2.341-2.349 3.497-3.537-.574-.084-1.153-.08-1.731-.065.004-.515-.018-1.032.02-1.547z"/>
        <path fill="#BDDAE4" fill-rule="nonzero" d="M787.051 1765.424c.056.11.109.225.149.344v1.401c-.433.602-1.02 1.06-1.516 1.604-.428.467-.897.893-1.309 1.377-.648.002-1.295.002-1.943 0 .886-1.084 1.98-1.971 2.893-3.03.496-.646 1.192-1.086 1.726-1.696z"/>
        <g fill-rule="nonzero">
            <path fill="#F35D97" d="M742.917 1736.894a36.951 36.951 0 0 1 2.777.004c1.415.01 2.83.008 4.245 0-.002.754.009 1.51-.006 2.266-2.333.034-4.667-.007-7 .027-.027-.765-.004-1.532-.016-2.297zM742.918 1760.437c.006-.727-.016-1.454.016-2.18 2.331.041 4.664.02 6.997 0 .017.726.007 1.453.007 2.18-.878-.014-1.755.059-2.633.02-1.462-.047-2.925-.022-4.387-.02z"/>
            <path fill="#FF84B7" d="M742.933 1739.191c2.333-.034 4.667.007 7-.027-.015 6.364-.011 12.729-.002 19.093-2.333.02-4.666.041-6.997 0 .026-1.433.003-2.867.01-4.299-.006-4.922.014-9.845-.011-14.767z"/>
        </g>
        <g fill-rule="nonzero">
            <path fill="#F35D97" d="M758.117 1736.894a36.951 36.951 0 0 1 2.777.004c1.415.01 2.83.008 4.245 0-.002.754.009 1.51-.006 2.266-2.333.034-4.667-.007-7 .027-.027-.765-.004-1.532-.016-2.297zM758.118 1760.437c.006-.727-.016-1.454.016-2.18 2.331.041 4.664.02 6.997 0 .017.726.007 1.453.007 2.18-.878-.014-1.755.059-2.633.02-1.462-.047-2.925-.022-4.387-.02z"/>
            <path fill="#FF84B7" d="M758.133 1739.191c2.333-.034 4.667.007 7-.027-.015 6.364-.011 12.729-.002 19.093-2.333.02-4.666.041-6.997 0 .026-1.433.003-2.867.01-4.299-.006-4.922.014-9.845-.011-14.767z"/>
        </g>
        <g fill-rule="nonzero">
            <path fill="#F35D97" d="M773.317 1736.894a36.951 36.951 0 0 1 2.777.004c1.415.01 2.83.008 4.245 0-.002.754.009 1.51-.006 2.266-2.333.034-4.667-.007-7 .027-.027-.765-.004-1.532-.016-2.297zM773.318 1760.437c.006-.727-.016-1.454.016-2.18 2.331.041 4.664.02 6.997 0 .017.726.007 1.453.007 2.18-.878-.014-1.755.059-2.633.02-1.462-.047-2.925-.022-4.387-.02z"/>
            <path fill="#FF84B7" d="M773.333 1739.191c2.333-.034 4.667.007 7-.027-.015 6.364-.011 12.729-.002 19.093-2.333.02-4.666.041-6.997 0 .026-1.433.003-2.867.01-4.299-.006-4.922.014-9.845-.011-14.767z"/>
        </g>
        <rect width="51.2" height="4.88" x="736" y="1765.24" fill="#FF84B7" rx=".795"/>
    </g>
</svg>
