<svg xmlns="http://www.w3.org/2000/svg" xmlns:xlink="http://www.w3.org/1999/xlink" width="36" height="56" viewBox="0 0 36 56">
    <defs>
        <path id="a" d="M17.97 0h.025c1.707 1.434 3.4 2.887 5.106 4.323 2.214-.005 4.43-.001 6.645-.002.383 2.21.77 4.42 1.158 6.628 1.698 1.44 3.397 2.879 5.093 4.322-1.11 1.94-2.217 3.879-3.324 5.82.38 2.208.772 4.415 1.153 6.623-1.903.698-3.805 1.402-5.71 2.097-.21.098-.496.117-.619.342-1.093 1.893-2.15 3.81-3.266 5.69-2.069-.788-4.15-1.54-6.23-2.301-1.972.726-3.948 1.444-5.918 2.18-.13.025-.337.186-.407-.011-1.032-1.836-2.098-3.652-3.13-5.487-.164-.347-.603-.35-.908-.5-1.82-.674-3.643-1.338-5.464-2.01.382-2.208.773-4.415 1.154-6.622-1.108-1.94-2.212-3.883-3.325-5.82 1.694-1.442 3.39-2.882 5.09-4.314.394-2.211.772-4.425 1.161-6.637 2.216-.001 4.431-.001 6.646.004C14.587 2.88 16.305 1.47 17.97 0zm-.68 7.796c-1.12.102-2.226.348-3.27.775-3.266 1.335-5.8 4.392-6.454 7.904-.168 1.03-.351 2.083-.199 3.126.155.873.276 1.762.6 2.591.451 1.358 1.229 2.578 2.124 3.68.412.52.971.885 1.459 1.325a11.281 11.281 0 0 0 5.484 2.22c.96-.008 1.931.033 2.879-.16 2.632-.446 5.062-1.95 6.664-4.107 1.7-2.223 2.434-5.128 2.126-7.91-.3-2.213-1.27-4.343-2.779-5.978-.66-.818-1.536-1.417-2.41-1.98-1.593-.976-3.448-1.436-5.294-1.562a5.734 5.734 0 0 0-.93.076z"/>
        <path id="c" d="M4.162.117c.327-.103.762-.14 1.009.15.627.555.309 1.48.34 2.208.052 2.225.049 4.45.045 6.677-.016.344-.06.735-.336.975-.357.418-1.087.35-1.423-.063-.312-.376-.186-.9-.21-1.348-.014-1.785.035-3.568-.002-5.353-.556.567-1.12 1.126-1.674 1.693-.263.242-.564.53-.952.47-.74-.004-1.192-1.022-.682-1.581C1.324 2.848 2.41 1.789 3.467.7c.217-.209.41-.465.695-.584z"/>
        <path id="e" d="M10.047.15c.308-.043.619-.083.93-.076 1.847.126 3.701.586 5.294 1.562.875.563 1.75 1.162 2.41 1.98 1.509 1.635 2.48 3.765 2.78 5.977.307 2.783-.427 5.687-2.126 7.911-1.602 2.156-4.033 3.66-6.665 4.108-.948.191-1.918.15-2.879.158a11.281 11.281 0 0 1-5.484-2.22c-.488-.439-1.047-.805-1.459-1.324-.895-1.102-1.672-2.322-2.124-3.68-.324-.83-.445-1.718-.6-2.591-.152-1.044.032-2.097.2-3.126.654-3.512 3.188-6.57 6.454-7.904A11.321 11.321 0 0 1 10.047.15zm.932 5.783c-.286.118-.478.375-.695.583C9.227 7.604 8.14 8.664 7.094 9.76c-.51.56-.058 1.578.681 1.581.389.06.69-.227.952-.47.555-.567 1.119-1.126 1.675-1.692.037 1.784-.012 3.567 0 5.352.025.449-.1.972.212 1.348.335.414 1.066.482 1.423.064.275-.24.32-.631.335-.976.004-2.226.008-4.452-.044-6.677-.032-.728.287-1.653-.34-2.208-.248-.29-.682-.253-1.01-.15z"/>
        <path id="g" d="M.076.001c.305.15.744.153.908.5 1.032 1.835 2.098 3.65 3.13 5.487.07.197.277.036.407.01 1.97-.735 3.945-1.453 5.918-2.18 2.079.762 4.161 1.514 6.23 2.302 1.116-1.88 2.172-3.797 3.266-5.69.123-.225.41-.244.62-.342-.002 1.866.01 3.73-.007 5.595-1.164 1.248-2.115 2.683-3.21 3.991-.093.079-.154.243-.293.235-1.985-.941-3.969-1.89-5.974-2.784-.303-.134-.621-.417-.965-.237L3.75 9.402c-.266.088-.528.28-.816.247-.433-.583-.752-1.247-1.19-1.83-.6-.827-1.008-1.783-1.659-2.575C.062 3.496.08 1.749.075 0z"/>
        <path id="i" d="M.085.074c.651.793 1.059 1.75 1.66 2.576.437.583.756 1.246 1.19 1.83.287.032.549-.16.815-.248 2.119-.839 4.238-1.675 6.356-2.513.344-.18.662.103.965.237 2.005.895 3.99 1.842 5.974 2.784.14.008.2-.157.293-.235 1.095-1.309 2.046-2.743 3.21-3.991-.02 6.576.015 13.155-.016 19.732h-.035c-.893-.875-1.875-1.656-2.803-2.494-2.381-2.078-4.75-4.173-7.14-6.242-3.212 2.688-6.431 5.368-9.645 8.053-.255.216-.54.404-.733.683H.13c-.059-.463-.04-.93-.04-1.396C.087 12.592.097 6.333.086.074z"/>
    </defs>
    <g fill="none" fill-rule="evenodd">
        <g>
            <mask id="b" fill="#fff">
                <use xlink:href="#a"/>
            </mask>
            <path fill="#FFB9DB" d="M-.53 36.382h37.06V-.538H-.53z" mask="url(#b)"/>
        </g>
        <g transform="translate(14.06 13.462)">
            <mask id="d" fill="#fff">
                <use xlink:href="#c"/>
            </mask>
            <use fill="#D8D8D8" xlink:href="#c"/>
            <path fill="#FFF1F7" d="M-.473 10.948h6.57V-.497h-6.57z" mask="url(#d)"/>
        </g>
        <g transform="translate(7.243 7.646)">
            <mask id="f" fill="#fff">
                <use xlink:href="#e"/>
            </mask>
            <path fill="#FF84B7" d="M-.465 22.308h22.526V-.465H-.465z" mask="url(#f)"/>
        </g>
        <g transform="translate(7.562 29.723)">
            <mask id="h" fill="#fff">
                <use xlink:href="#g"/>
            </mask>
            <path fill="#F35D97" d="M-.46 10.448h21.55V-.537H-.46z" mask="url(#h)"/>
        </g>
        <g transform="translate(7.562 34.892)">
            <mask id="j" fill="#fff">
                <use xlink:href="#i"/>
            </mask>
            <path fill="#F68DB6" d="M-.447 20.785H21.08V-.465H-.447z" mask="url(#j)"/>
        </g>
    </g>
</svg>
