<svg xmlns="http://www.w3.org/2000/svg" xmlns:xlink="http://www.w3.org/1999/xlink" width="48" height="48" viewBox="0 0 48 48">
    <defs>
        <path id="a" d="M.886.092h.095c.545-.007.997.581.78 1.098-.222.665-1.27.723-1.582.104C-.124.78.307.104.886.092z"/>
        <path id="c" d="M.57.109c.445-.167 1.015.086 1.167.544.1.299.013.658-.23.863-.462.429-1.341.118-1.44-.504C-.003.642.213.24.57.11z"/>
        <path id="e" d="M.692.062c.524-.19 1.097.31 1.022.85-.045.712-1.1 1.063-1.536.48C-.222.925.102.157.692.061z"/>
        <path id="g" d="M.415.135c.603-.36 1.43.302 1.253.968-.1.566-.864.828-1.295.448C-.125 1.236-.13.405.415.135z"/>
        <path id="i" d="M.596.073c.539-.239 1.202.266 1.1.85-.055.659-.954 1.056-1.439.569C-.22 1.074.029.27.597.072z"/>
        <path id="k" d="M.107.825C.11.333.619-.081 1.1.052c.399.072.658.474.64.866.002 1-.004 2.002-.01 3.002a803.718 803.718 0 0 0-.015 7.6c1.038 1.119 2.155 2.162 3.225 3.25.75.688 1.428 1.45 2.165 2.15.76.752 1.523 1.502 2.27 2.266.356.335.315.973-.096 1.245-.335.254-.827.169-1.103-.133-.75-.742-1.498-1.487-2.243-2.235-1.862-1.84-3.696-3.706-5.566-5.535a.905.905 0 0 1-.293-.734c.006-2.61.022-5.22.01-7.829C.112 2.92.079 1.871.107.825z"/>
        <path id="m" d="M.585.145c.63-.268 1.275.423 1.113 1.042-.094.518-.757.804-1.199.52C-.082 1.38-.093.366.585.144z"/>
        <path id="o" d="M.503 1.707C-.157 1.427-.123.322.568.1c.503-.207 1.075.216 1.09.745V.99c-.017.557-.646.968-1.155.717z"/>
        <path id="q" d="M.5.157a.82.82 0 0 1 1.05.245c.347.473.038 1.255-.54 1.366a.824.824 0 0 1-.886-.424C-.088.934.104.378.5.157z"/>
        <path id="s" d="M.509.161c.43-.316 1.119-.047 1.227.475.204.696-.7 1.382-1.304.95C-.097 1.272-.016.439.51.16z"/>
        <path id="u" d="M.69.064c.615-.23 1.278.492 1.001 1.089-.21.595-1.12.73-1.48.205C-.135.906.135.186.69.064z"/>
        <path id="w" d="M13.05.5c.697-.199 1.425-.25 2.136-.378.458-.04.919-.024 1.378-.067-.538.299-1.157.374-1.727.59-2.37.778-4.6 2.011-6.465 3.674-2.611 2.301-4.46 5.427-5.3 8.8a12.187 12.187 0 0 0-.479 2.906c-.139 1.76-.038 3.541.323 5.271.132.746.31 1.486.598 2.188.556 1.625 1.373 3.15 2.337 4.567a19.127 19.127 0 0 0 4.333 4.151c.193.127.405.237.556.419l-.008.06a16.944 16.944 0 0 1-6.491-4.587 16.807 16.807 0 0 1-4.146-9.853c-.005-.64-.115-1.278-.023-1.916.1-4.068 1.805-8.056 4.607-11A16.857 16.857 0 0 1 13.05.5z"/>
        <path id="y" d="M14.076.055C16.512.01 18.96.485 21.2 1.448c.3.324.665.575 1.012.844 2.74 2.291 5.02 5.22 6.24 8.6 1.67 4.343 1.507 9.34-.377 13.59-1.534 3.49-4.268 6.497-7.742 8.121-.48.247-1.007.385-1.475.656a8.895 8.895 0 0 1-1.528.335c-2.853.5-5.832.235-8.561-.733-.179-.06-.385-.092-.516-.24-.151-.182-.363-.292-.557-.419a19.127 19.127 0 0 1-4.332-4.15c-.964-1.419-1.781-2.943-2.338-4.568-.288-.702-.466-1.442-.598-2.188a18.646 18.646 0 0 1-.322-5.271c.04-.984.204-1.96.479-2.906.84-3.373 2.688-6.499 5.3-8.8C7.748 2.656 9.978 1.423 12.35.646c.57-.217 1.188-.292 1.726-.59zm-.426 5.837c-.028 1.046.005 2.094-.022 3.14-2.444.21-4.7 1.724-5.94 3.824-.95 1.571-1.28 3.478-1.014 5.287a7.848 7.848 0 0 0 2.413 4.55 7.793 7.793 0 0 0 5.751 2.15 7.787 7.787 0 0 0 4.639-1.713 427.46 427.46 0 0 0 2.243 2.235c.276.302.767.387 1.103.133.41-.272.452-.91.096-1.245-.748-.764-1.51-1.514-2.27-2.266 1.145-1.378 1.81-3.15 1.817-4.944.075-2.2-.866-4.4-2.472-5.897-1.266-1.235-2.968-1.983-4.72-2.159.005-1 .012-2.002.01-3.002.017-.392-.241-.794-.64-.866-.482-.133-.99.28-.994.773z"/>
        <path id="A" d="M2.406.066C5.26 1.273 7.732 3.33 9.514 5.856a16.727 16.727 0 0 1 2.919 7.504c.117.761.12 1.534.159 2.302-.07.674-.027 1.357-.151 2.025-.33 2.782-1.399 5.467-3.032 7.741-2.056 2.864-5.023 5.072-8.373 6.177-.318.11-.636.233-.972.272.468-.27.995-.409 1.475-.656C5.013 29.597 7.747 26.59 9.28 23.1c1.884-4.249 2.047-9.246.378-13.589-1.221-3.38-3.5-6.309-6.241-8.6C3.07.641 2.707.39 2.406.066z"/>
        <path id="C" d="M1.766.56c.163-.433.718-.65 1.125-.42.4.19.536.708.356 1.098A22.161 22.161 0 0 0 1.86 12.532c.463 3.13 1.534 6.2 3.3 8.84.248.39.487.788.783 1.147.425.527.804 1.093 1.282 1.576.482.501.928 1.042 1.466 1.488 3.869 3.64 9.127 5.742 14.432 5.843.275.014.58.017.799.21a.812.812 0 0 1 .14 1.084c-.142.222-.404.32-.655.354h-.115c-3.581-.066-7.154-.923-10.346-2.556-2.7-1.34-5.117-3.236-7.103-5.5a23.515 23.515 0 0 1-4.994-9.295C.341 13.909.085 12.035 0 10.155v-1.26C.097 6.043.667 3.198 1.766.56z"/>
        <path id="E" d="M1.147 3.828c1.24-2.1 3.496-3.614 5.94-3.824.011 2.609-.004 5.219-.01 7.829a.905.905 0 0 0 .292.733c1.87 1.83 3.705 3.696 5.567 5.535a7.787 7.787 0 0 1-4.639 1.713 7.793 7.793 0 0 1-5.75-2.15 7.848 7.848 0 0 1-2.414-4.55C-.134 7.306.197 5.4 1.147 3.828z"/>
    </defs>
    <g fill="none" fill-rule="evenodd">
        <g transform="translate(22.203)">
            <mask id="b" fill="#fff">
                <use xlink:href="#a"/>
            </mask>
            <path fill="#FF84B7" d="M-.382 2.186h2.66V-.369h-2.66z" mask="url(#b)"/>
        </g>
        <g transform="translate(31.14 1.658)">
            <mask id="d" fill="#fff">
                <use xlink:href="#c"/>
            </mask>
            <path fill="#FF84B7" d="M-.407 2.175h2.645V-.403H-.407z" mask="url(#d)"/>
        </g>
        <g transform="translate(13.45 2.027)">
            <mask id="f" fill="#fff">
                <use xlink:href="#e"/>
            </mask>
            <path fill="#FF84B7" d="M-.46 2.146h2.642V-.44H-.46z" mask="url(#f)"/>
        </g>
        <g transform="translate(38.786 6.633)">
            <mask id="h" fill="#fff">
                <use xlink:href="#g"/>
            </mask>
            <path fill="#FF84B7" d="M-.458 2.19h2.61V-.426h-2.61z" mask="url(#h)"/>
        </g>
        <g transform="translate(6.08 7.278)">
            <mask id="j" fill="#fff">
                <use xlink:href="#i"/>
            </mask>
            <path fill="#FF97D2" d="M-.456 2.169h2.623V-.448H-.456z" mask="url(#j)"/>
        </g>
        <g transform="translate(22.663 11.792)">
            <mask id="l" fill="#fff">
                <use xlink:href="#k"/>
            </mask>
            <path fill="#FF84B7" d="M-.388 21.042h10.467V-.434H-.388z" mask="url(#l)"/>
        </g>
        <g transform="translate(43.76 14.096)">
            <mask id="n" fill="#fff">
                <use xlink:href="#m"/>
            </mask>
            <path fill="#FF84B7" d="M-.391 2.28h2.575V-.376H-.391z" mask="url(#n)"/>
        </g>
        <g transform="translate(45.511 23.032)">
            <mask id="p" fill="#fff">
                <use xlink:href="#o"/>
            </mask>
            <path fill="#FF84B7" d="M-.433 2.243H2.12V-.414H-.433z" mask="url(#p)"/>
        </g>
        <g transform="translate(43.576 31.876)">
            <mask id="r" fill="#fff">
                <use xlink:href="#q"/>
            </mask>
            <path fill="#FF84B7" d="M-.424 2.244h2.58V-.401h-2.58z" mask="url(#r)"/>
        </g>
        <g transform="translate(38.325 39.339)">
            <mask id="t" fill="#fff">
                <use xlink:href="#s"/>
            </mask>
            <path fill="#FF84B7" d="M-.387 2.18h2.613V-.434H-.387z" mask="url(#t)"/>
        </g>
        <g transform="translate(30.679 44.13)">
            <mask id="v" fill="#fff">
                <use xlink:href="#u"/>
            </mask>
            <path fill="#FF84B7" d="M-.403 2.146h2.62V-.44h-2.62z" mask="url(#v)"/>
        </g>
        <g transform="translate(6.633 6.725)">
            <mask id="x" fill="#fff">
                <use xlink:href="#w"/>
            </mask>
            <path fill="#FFB9DB" d="M-.425 33.142h17.45V-.405H-.426z" mask="url(#x)"/>
        </g>
        <g transform="translate(9.12 6.725)">
            <mask id="z" fill="#fff">
                <use xlink:href="#y"/>
            </mask>
            <path fill="#FFA9CC" d="M-.415 34.302h30.48V-.408H-.415z" mask="url(#z)"/>
        </g>
        <g transform="translate(27.915 8.107)">
            <mask id="B" fill="#fff">
                <use xlink:href="#A"/>
            </mask>
            <path fill="#FF84B7" d="M-.397 32.338h13.45V-.394H-.397z" mask="url(#B)"/>
        </g>
        <g transform="translate(0 14.188)">
            <mask id="D" fill="#fff">
                <use xlink:href="#C"/>
            </mask>
            <path fill="#FF84B7" d="M-.46 33.535h25.13V-.413H-.46z" mask="url(#D)"/>
        </g>
    </g>
</svg>
