<svg xmlns="http://www.w3.org/2000/svg" width="104" height="41" viewBox="0 0 104 41">
    <g fill="#C4C8CD" fill-rule="nonzero">
        <path d="M52.863.07c.762-.025 1.525-.018 2.287-.023.16.296.293.614.508.876.306.099.623.155.938.221-.41-.008-.82-.01-1.23-.013A66.89 66.89 0 0 0 55.4 3.66c.548.112 1.1.225 1.65.341-.553-.026-1.104-.058-1.655-.077.013 4.847-.061 9.698.077 14.541.872-.72 1.442-1.73 2.307-2.454.305-.279.736-.208 1.115-.234.557.02 1.14-.057 1.676.14.044.075.136.223.18.296-1.865 2.338-3.917 4.515-5.784 6.848-.623.725-1.293 1.408-1.938 2.112-.25-7.105-.068-14.221-.157-21.333.023-.957.036-1.915.008-2.872l-.015-.897zM.108 15.771c2.468-.021 4.935-.03 7.402-.002.015.803.019 1.606.015 2.408-.764.024-1.53.013-2.293.063.013-.052.04-.157.055-.21.674-.115 1.517.154 2.053-.372.065-.565.048-1.136.053-1.702a272.15 272.15 0 0 0-7.13-.013c-.004.667-.004 1.335 0 2.003.732.06 1.464.13 2.196.186-.054 2.782-.066 5.564.02 8.344.905.026 1.809.039 2.712.067-.91.167-1.835.146-2.756.12-.049-2.786.051-5.58-.104-8.363a150.15 150.15 0 0 0-2.197-.017 43 43 0 0 1-.026-2.512z"/>
        <path d="M48.578 1.775c1.374-.53 2.85-.652 4.3-.807.028.957.015 1.915-.008 2.872-3.799.168-7.389 1.932-10.21 4.437-1.285 1.387-2.585 2.802-3.455 4.5-.372.697-.655 1.438-1.008 2.146-.95-.008-1.901.01-2.852-.02.6-2.234 1.789-4.256 3.137-6.108.762-1.145 1.82-2.031 2.79-2.984 2.055-1.936 4.637-3.207 7.306-4.036zM55.367 1.131c.408.002.819.005 1.229.013 1.446.013 2.805.582 4.168 1.011 1.183.367 2.272.968 3.36 1.55 1.445.781 2.64 1.936 3.852 3.033 1.013.921 1.77 2.072 2.638 3.123 1.182 1.486 1.829 3.304 2.473 5.07a55.311 55.311 0 0 1-3.1.005c-.783-2.095-1.917-4.061-3.49-5.65-1.173-1.487-2.774-2.529-4.39-3.46-1.59-.85-3.282-1.516-5.058-1.825-.55-.116-1.102-.23-1.65-.341a66.89 66.89 0 0 1-.032-2.529zM26.23 15.786c1.19-.017 2.382-.036 3.573.01-1.487 1.62-2.701 3.47-4.241 5.039 1.582 1.863 3.052 3.823 4.651 5.673-1.244.08-2.492.052-3.737.026-1.135-1.462-2.271-2.926-3.415-4.381-.047 1.462-.024 2.926-.024 4.388-.965.021-1.93.027-2.896.006-.01-3.59-.03-7.176-.015-10.765.923-.015 1.846-.011 2.769-.013.255 1.374.057 2.778.17 4.164 1.083-1.36 2.067-2.797 3.165-4.147zM70.278 15.765a75.089 75.089 0 0 1 2.95.008c.027 2.097-.03 4.192.04 6.288 1.703-2.042 3.275-4.186 4.909-6.284.931-.032 1.863-.019 2.796-.019.002 1.116-.004 2.233.098 3.345 0 2.475.006 4.95.017 7.427-.923.028-1.846.013-2.769.017.03-2.119-.11-4.231-.136-6.35-1.242 1.445-2.278 3.055-3.524 4.495-.502.576-.921 1.217-1.361 1.84-1.01.034-2.019.02-3.027.017-.002-3.595-.034-7.191.007-10.784zM82.47 15.773c2.519-.034 5.039-.017 7.557-.004.004.783.015 1.57.013 2.355-.821.015-1.642.01-2.46.028-.014 2.799 0 5.596-.005 8.395-.934.002-1.868 0-2.801-.006-.021-2.795-.01-5.592-.05-8.39-.754-.008-1.51-.004-2.262-.027a57.736 57.736 0 0 1 .009-2.35zM92.483 15.765a53.723 53.723 0 0 1 2.759.006c.808 1.786 1.346 3.68 2.14 5.472.729-1.83 1.444-3.662 2.218-5.472.931-.02 1.863-.017 2.796-.013.4 2.374.73 4.761 1.085 7.142.18 1.208.417 2.408.476 3.63-.929.026-1.858.021-2.786.01-.217-1.938-.487-3.87-.772-5.797a188.056 188.056 0 0 0-2.473 5.8l-1.155-.007c-.72-1.977-1.587-3.894-2.376-5.843-.325 1.928-.657 3.862-.797 5.813-.974.06-1.95.047-2.924.02.559-3.596 1.152-7.185 1.81-10.761zM9.554 21.498c.71-1.9 1.43-3.795 2.12-5.703 1.027-.013 2.057-.011 3.084-.009.89 2.383 2.04 4.656 2.854 7.069.432 1.232.953 2.432 1.316 3.686-1.029.032-2.06.021-3.09.01a32.422 32.422 0 0 1-.719-1.792c-1.265-.004-2.53-.022-3.794.013-.221.59-.442 1.18-.644 1.777a56.583 56.583 0 0 1-3.018-.006c.51-1.728 1.312-3.343 1.89-5.045zm2.645.964c.698.032 1.395.028 2.093-.004-.306-1.041-.649-2.072-1.087-3.063-.261 1.045-.657 2.05-1.006 3.067z"/>
        <path d="M31.57 17.263c1.672-1.726 4.462-1.964 6.585-1.026-.013 1.099.02 2.198-.015 3.3-.802-.759-1.891-1.415-3.029-1.083-1.138.23-2.056 1.213-2.26 2.357-.145.908.24 1.827.882 2.454.806.68 1.948.824 2.948.592.56-.2 1.004-.61 1.474-.961.008 1.11.032 2.22.01 3.329-1.733.723-3.809.73-5.468-.204-1.231-.822-2.316-2.02-2.59-3.527-.41-1.829.053-3.947 1.463-5.231zM39.877 15.78c.93-.02 1.86-.013 2.79-.011.09 2.097-.108 4.207.177 6.294 1.725-2.042 3.21-4.276 4.958-6.298.957-.005 1.916-.02 2.87.021.007 3.587.007 7.174.016 10.761-.966.02-1.93.024-2.895-.01-.015-2.096.017-4.19-.049-6.284-.534.623-1.08 1.237-1.557 1.906-1.074 1.496-2.27 2.894-3.362 4.377a74 74 0 0 1-2.929.015c-.004-3.591-.031-7.182-.019-10.771zM61.01 15.906l.101-.152c1.54 0 3.078.006 4.617.004 1.423-.008 2.952.867 3.308 2.334.44 1.506.114 3.458-1.247 4.383-1.184.719-2.618.524-3.934.554-.005 1.167.004 2.335.002 3.503-.919.015-1.836.021-2.754.026.05-3.553-.23-7.103-.094-10.652zm2.849 2.211c-.013.848-.017 1.696.015 2.544.627.013 1.28.017 1.867-.247.745-.558.623-1.878-.249-2.234-.538-.097-1.089-.06-1.633-.063zM.264 15.943a272.15 272.15 0 0 1 7.129.013c-.005.566.012 1.137-.053 1.702-.536.526-1.379.257-2.053.371l-.055.21c-.113 2.763-.009 5.537-.04 8.304-.904-.028-1.808-.041-2.712-.067-.087-2.78-.075-5.562-.021-8.344-.732-.056-1.464-.126-2.195-.186-.005-.668-.005-1.336 0-2.003zM35.511 27.418c.938-.015 1.878-.006 2.816-.012.544 1.032.94 2.15 1.64 3.095.85 1.13 1.667 2.299 2.722 3.246.95.867 2.022 1.584 3.09 2.297 5.081 2.927 11.668 2.977 16.76.045 1.394-.926 2.81-1.862 3.936-3.124 1.17-1.367 2.333-2.786 3.005-4.48.21-.365.266-.908.71-1.064.92-.045 1.842-.003 2.763-.007-.46 1.896-1.387 3.65-2.592 5.167-3.633 5.266-9.928 8.724-16.34 8.374-4.503.204-8.899-1.623-12.387-4.411-1.385-1.265-2.77-2.578-3.75-4.2-.946-1.553-2.003-3.107-2.373-4.926z"/>
    </g>
</svg>
