<svg xmlns="http://www.w3.org/2000/svg" width="144" height="24" viewBox="0 0 144 24">
    <g fill="#C4C8CD" fill-rule="nonzero">
        <path d="M30.697 0h5.356c-.469.644-.925 1.305-1.546 1.809-1.814.064-3.635 0-5.455.047A16.493 16.493 0 0 1 30.697 0zM19.387 3.313c1.856-.205 3.74-.064 5.602-.064-.07.427-.216 1.282-.287 1.709-1.85.03-3.693.03-5.543 0 .059-.41.17-1.235.228-1.645zM26.423 4.976a5.636 5.636 0 0 1 1.557-1.774c1.786.047 3.565-.012 5.35.023a6.334 6.334 0 0 1-1.562 1.768c-1.78-.04-3.565.006-5.345-.017zM39.313 3.325c5.514-.228 11.075-.07 16.607-.082-.064.427-.193 1.276-.252 1.703-5.526.053-11.057.035-16.583.012l.228-1.633zM58.583 3.284c5.526-.135 11.064-.059 16.596-.035-.065.415-.188 1.252-.246 1.668-5.526.123-11.064.047-16.595.041.064-.416.187-1.253.245-1.674zM77.842 3.272c5.532-.111 11.063-.04 16.595-.035-.064.422-.187 1.259-.252 1.68-5.525.123-11.063.053-16.589.03.059-.416.187-1.253.246-1.675zM5.25 6.386c1.845-.052 3.683-.017 5.527-.023l-.188 1.399c-1.855.04-3.717.018-5.572.012.058-.352.175-1.042.234-1.388zM4.87 9.231c1.832-.082 3.67-.023 5.509-.029-.077.439-.223 1.311-.293 1.744-1.797-.205-3.963.416-5.544-.292L4.87 9.23zM18.638 9.208c3.138-.018 6.281-.024 9.424 0a3.72 3.72 0 0 1 .627 1.727c-3.46-.059-6.978.193-10.408-.13.088-.397.27-1.2.357-1.597zM38.54 9.208c5.526-.012 11.052-.041 16.578.012-.088.427-.263 1.281-.345 1.709-5.514-.018-11.046.134-16.549-.076.082-.41.235-1.235.316-1.645zM57.793 9.208c4.865.04 9.77-.147 14.61.093.276.352.832 1.054 1.107 1.405l-.38.258c-5.216-.1-10.455.129-15.659-.117.082-.41.24-1.23.322-1.64zM76.794 10.911a3.727 3.727 0 0 1 .328-1.715c4.853.105 9.793-.21 14.599.152.457.48.773 1.019.948 1.628-5.291-.082-10.583.04-15.875-.065zM4.35 12.498c1.82-.276 3.71-.088 5.554-.088-.04.673.041 2.008-1.053 1.72-1.557-.011-3.114.018-4.666-.017l.164-1.615zM18.117 12.416c3.723-.1 7.458-.03 11.18-.036.282.574.54 1.16.773 1.757-4.056-.024-8.107 0-12.158-.018.053-.421.152-1.276.205-1.703zM38.974 12.334c5.186.087 10.378.011 15.565.04-.065.416-.188 1.253-.252 1.675-4.765.181-9.57.029-14.353.076-.674-.527-.99-1.124-.96-1.791zM57.325 12.392c5.514-.035 11.028-.035 16.536 0l-.28 1.551c-5.403.428-11 .065-16.479.182.059-.433.17-1.3.223-1.733zM76.607 12.38c5.485-.005 10.964-.035 16.443.018 0 .714.035 2.066-1.107 1.733-5.192-.012-10.39 0-15.588-.006.065-.433.193-1.305.252-1.745zM48.603 15.582c1.856-.14 3.723-.064 5.584-.04-.07.427-.199 1.281-.263 1.703-1.844.04-3.694.035-5.544.006.059-.416.164-1.247.223-1.669zM67.879 15.541c1.856-.052 3.705-.046 5.561 0-.064.416-.193 1.259-.252 1.68-1.855.088-3.717.053-5.578.024.07-.427.205-1.276.269-1.704zM76.103 15.577c1.862-.13 3.73-.065 5.59-.036-.075.428-.222 1.282-.292 1.704-1.85.04-3.7.04-5.543 0 .064-.416.187-1.253.245-1.668zM87.161 15.524a174.26 174.26 0 0 1 5.532.006l-.258 1.68c-1.855.117-3.729.058-5.59.029.082-.427.24-1.282.316-1.715zM3.512 18.673c1.838-.04 3.676-.017 5.514-.012l-.234 1.71c-1.832.082-3.664.017-5.502.04.058-.432.164-1.305.222-1.738zM17.04 20.365c.07-.662-.082-2.02 1.03-1.715 1.546.07 3.12-.117 4.654.076a154.13 154.13 0 0 0-.152 1.551c-1.81.287-3.7.1-5.532.088zM25.592 18.644c2.008.023 4.01-.012 6.012.023.51.463.796 1.048.866 1.756-2.049-.035-4.097.006-6.146-.029a20.823 20.823 0 0 1-.732-1.75zM36.966 20.37c.1-.626-.1-1.931.954-1.72 5.245.006 10.484.011 15.723 0-.053.433-.158 1.311-.21 1.75-5.492 0-10.982.053-16.467-.03zM56.219 20.37c.07-.667-.053-2.03 1.059-1.72 5.216.006 10.431.006 15.647 0-.059.439-.182 1.311-.24 1.75-5.49-.006-10.982.053-16.466-.03zM75.694 18.872l.363-.222c5.38.006 10.753 0 16.132.006-.058.433-.181 1.305-.24 1.744-5.496.006-10.999.041-16.501-.023.064-.375.181-1.13.246-1.505zM3.126 21.846c1.826.058 3.711-.2 5.496.134l-.304 1.593c-1.85.023-3.7.017-5.555.006.094-.434.275-1.3.363-1.733zM16.788 21.975c1.75-.147 4.01-.445 5.596.152-.076.345-.216 1.042-.286 1.387-1.768.24-3.589 0-5.374.123-.176-.52-.152-1.077.064-1.662zM26.91 21.858a142.34 142.34 0 0 1 6.122 0c.193.439.586 1.31.779 1.744-2.067-.006-4.133.04-6.2-.018a4.315 4.315 0 0 1-.702-1.726zM36.86 21.828c5.087-.017 10.18.047 15.273-.035-.299.802-1.007 1.428-1.733 1.827-4.648-.03-9.29.011-13.932-.024.094-.439.293-1.323.392-1.768zM57.419 21.817c4.659.023 9.319.023 13.978 0-.28.802-1.03 1.293-1.674 1.797-3.858-.053-7.727.082-11.573-.07-.298-.375-.884-1.124-1.176-1.5l.445-.227zM76.203 21.992c4.683-.369 9.495-.076 14.218-.146l.246.234c-.497.574-1.088 1.054-1.674 1.528-3.541.017-7.083-.012-10.624.012-1.16.374-1.546-1.001-2.166-1.628zM.568.222C6.07-.105 11.643.152 17.175.094c.17 1.235-.287 1.814-1.376 1.744C10.665 1.82 5.526 1.85.392 1.826.433 1.428.521.626.568.222zM19.838.129c1.85-.111 3.711-.041 5.561-.035-.053.427-.164 1.282-.217 1.709-1.843.064-3.687.017-5.525.03.046-.428.134-1.277.181-1.704zM78.702 1.861A15.55 15.55 0 0 1 80.306.123c4.83-.1 9.659-.035 14.488-.03l-.28 1.733c-5.27.035-10.543-.029-15.812.035zM0 3.337c5.573-.252 11.175-.088 16.759-.082-.076.427-.234 1.276-.31 1.697C10.964 5.005 5.485 4.97 0 4.97V3.337zM40.285 1.861c.544-.638.995-1.539 1.844-1.79C46.185.1 50.248.017 54.31.11c.287.433.855 1.311 1.142 1.745a935.69 935.69 0 0 0-15.167.005zM59.063.1C64.583.076 70.11.023 75.635.129c-.082.386-.24 1.17-.322 1.563-5.438.333-10.993.047-16.478.14.053-.433.17-1.3.228-1.732zM3.969 15.53c1.85-.035 3.693-.03 5.543-.006-.064.421-.199 1.253-.263 1.668-1.838.17-3.694.047-5.544.065.065-.434.2-1.3.264-1.727zM17.655 15.612c1.85-.217 3.728-.065 5.59-.076-.07.427-.21 1.287-.275 1.715-1.85.035-3.7.035-5.544 0 .059-.41.17-1.23.229-1.64zM97.2.222c1.715-.304 3.489-.087 5.233-.128 5.561.526 10.385 3.611 14.98 6.532 3.19.545 6.45.826 9.606 1.598 6.427 1.288 12.45 4.672 16.981 9.372v.966c-.38.667-.831 1.3-1.194 1.978.123.434.357 1.306.474 1.739-3.073 1.58-6.755.814-10.074 1.37 3.98-3.138 3.442-9.98-1.036-12.38-3.343-2.096-8.108-.873-10.15 2.452-2.008 2.956-1.47 7.364 1.328 9.63-9.746.151-19.498.023-29.25.064l.28-1.54c5.532-.105 11.07 0 16.607-.053l-.936-1.404c-5.169-.03-10.332.011-15.495-.012.059-.433.17-1.3.223-1.727 4.946-.082 9.886.047 14.833-.064-.147-.322-.433-.966-.58-1.288-4.694-.17-9.407.04-14.101-.1l.28-1.691c4.344-.065 8.693.011 13.037-.041a2.603 2.603 0 0 0-.644-1.353c-4.045-.052-8.09.012-12.135-.029l.1-1.645c3.77-.222 7.569-.04 11.35-.093-.123-.34-.357-1.019-.474-1.358-3.536-.158-7.077-.018-10.613-.07.041-.428.135-1.283.176-1.704 3.12-.111 6.24-.018 9.36-.047l.263-.287c-.14-.251-.415-.749-.55-1-2.886-.3-5.836-.048-8.745-.118-.211-.527-.123-.995.263-1.416 2.61-.035 5.227-.006 7.85-.006-.129-.328-.38-.99-.504-1.323-2.458-.205-4.94.058-7.404-.135.093-.421.269-1.264.357-1.686 2.095-.146 4.29.24 6.327-.17-.199-.298-.603-.9-.802-1.205-1.802-.053-3.605.017-5.402-.024.04-.404.134-1.2.181-1.604z"/>
        <path d="M126.14 12.053c3.232-1.34 7.247.655 8.143 4.039 1.03 3.202-1.147 6.919-4.402 7.645-3.126.895-6.685-1.177-7.428-4.338-.943-2.927.872-6.252 3.687-7.346z"/>
        <path d="M18.714 7.727c-.064-.948.316-1.405 1.142-1.376 1.615.176 3.36-.398 4.846.433 1.81-.919 4.004-.175 5.983-.456-.246.322-.732.966-.972 1.288-3.606.368-7.346.14-10.999.11z" opacity=".96"/>
        <path d="M38.64 7.727c.135-.34.41-1.025.544-1.364 1.739-.012 3.483-.018 5.222 0-.012.34-.041 1.024-.059 1.364-1.896.117-3.81.1-5.707 0zM49.662 7.762c-.298-1.955 1.815-1.335 2.998-1.405.901.21 2.16-.445 2.827.322-.082.275-.24.831-.322 1.106-1.838 0-3.67.035-5.503-.023zM57.87 7.75c-.089-1.124.749-1.691 1.785-1.399 1.328.117 2.74-.205 4.021.147l-.328 1.3c-1.826-.03-3.652.04-5.479-.048zM77.432 6.527c1.756-.264 3.805-.34 5.526.04-.064.305-.199.914-.27 1.218-1.843.006-3.687.024-5.53-.011.07-.316.21-.937.274-1.247z" opacity=".95"/>
        <path d="M24.304 15.565c2.06-.14 4.133-.035 6.2-.059.198.44.602 1.312.807 1.75-2.06.053-4.127.024-6.187.012-.205-.427-.615-1.282-.82-1.703z" opacity=".96"/>
        <path d="M123.348 23.35l.422.65H94.01l.088-.585c9.752-.041 19.504.087 29.25-.065z" opacity=".3"/>
    </g>
</svg>
