<svg xmlns="http://www.w3.org/2000/svg" width="84" height="48" viewBox="0 0 84 48">
    <g fill="none" fill-rule="evenodd">
        <g fill="#C4C8CD">
            <path d="M0 0h83.298v47.504H0V0zm14.348 20.104c1.027.018 2.048.047 3.068.077.54-3.29.382-6.692.024-10 1.12-.04 2.235-.058 3.355-.07.024-1.126.053-2.258.076-3.384-1.055.012-2.111.03-3.167.04-.176-1.113.451-2.533-.505-3.395a76.069 76.069 0 0 0-2.833-.035c-.035 5.59-.012 11.178-.018 16.767zM27.33 3.354c0 1.138.012 2.27.012 3.408-1.12 0-2.241-.076-3.356.053-.094 1.003-.181 2.07.223 3.026.968.534 2.106.223 3.162.282-.064 3.33-.018 6.668-.047 10.005 1.115-.006 2.235-.006 3.35-.012-.006-5.583.006-11.172-.006-16.756-1.115 0-2.223 0-3.338-.005zm5.925 3.396c2.27.047 4.534.03 6.799.035-.065 4.434 0 8.874-.047 13.308 1.079.023 2.152.035 3.232.058a725.1 725.1 0 0 0-.012-13.366c2.27 0 4.54.012 6.81-.04a32.363 32.363 0 0 0-.363-3.455c-5.356.112-10.717.106-16.073 0a32.598 32.598 0 0 0-.346 3.46zm19.287-3.395c-.005 5.589.006 11.184 0 16.773l3.373-.018c-.006-2.264-.029-4.522.006-6.785 2.159.029 4.318.029 6.482.017a194.223 194.223 0 0 1-.006-3.202c-2.158-.023-4.323-.03-6.482.018-.023-2.264-.006-4.528 0-6.786l-3.373-.017zm12.964.011c.006 1.12.012 2.247.024 3.373 1.126.005 2.247.023 3.373.029l-.035-3.408c-1.12 0-2.241 0-3.362.006zm-3.08 6.745c1.027.006 2.048.012 3.075.023.023-1.12.029-2.24.052-3.36-1.067-.012-2.135-.024-3.197-.03.018 1.12.041 2.247.07 3.367zm-41.607-.006a119.17 119.17 0 0 1-.059 3.237c1.156.018 2.317.024 3.473.018-.153-1.003.252-2.223-.546-3.02-.91-.34-1.918-.153-2.868-.235zm41.608 3.26c-.03 1.127-.059 2.253-.077 3.379 1.068-.012 2.136-.03 3.203-.047-.017-1.12-.029-2.24-.052-3.355-1.027.006-2.048.018-3.074.024zm3.115 3.361c-.018 1.132-.036 2.258-.041 3.39 1.12.006 2.246.006 3.373.012.011-1.138.017-2.276.029-3.408-1.12 0-2.241.006-3.361.006zM14.325 27.201c.023 1.167.041 2.328.064 3.495 3.391-.03 6.782-.023 10.172-.018-.135 4.569.006 9.138-.088 13.706 1.168.018 2.335.03 3.502.041-.04-5.741-.064-11.489.012-17.23-4.558.017-9.11 0-13.662.006zm17.07 0c.047 5.735.041 11.471.006 17.213 5.69-.012 11.386-.041 17.076.017-.017-5.747-.047-11.495.012-17.242-5.696.023-11.392.006-17.094.012zm20.49-.006c.065 5.741.059 11.477 0 17.219 5.702-.006 11.404-.041 17.1.017-.035-5.747-.053-11.495.012-17.242-5.702.023-11.41.006-17.112.006z"/>
            <path d="M34.815 30.673c3.426.005 6.858-.006 10.29.005-.048 1.167-.071 2.335-.106 3.502a305.259 305.259 0 0 0-10.102 0c-.03-1.167-.053-2.335-.082-3.507zM55.311 30.678c3.426-.005 6.846-.011 10.266.006-.047 1.161-.076 2.323-.112 3.484-3.35-.035-6.705-.041-10.054.006-.035-1.167-.059-2.329-.1-3.496zM34.856 37.64c3.408.035 6.822.012 10.23.017-.035 1.209-.064 2.417-.134 3.625-.51-.088-1.531-.264-2.042-.358-.48.012-1.443.024-1.924.03-2.053-.018-4.1.005-6.147-.024.011-1.097.017-2.193.017-3.29zM55.376 37.652c3.379.011 6.763.005 10.148 0-.006 1.096 0 2.193.023 3.284-3.114.14-6.276-.323-9.344.287l-.898-.492c.041-1.027.053-2.053.07-3.08z"/>
        </g>
        <g fill="#FFF">
            <path d="M14.348 20.104c.006-5.589-.017-11.178.018-16.767.944-.006 1.889.006 2.833.035.956.862.329 2.282.505 3.396 1.056-.012 2.112-.03 3.167-.041-.023 1.126-.052 2.258-.076 3.384-1.12.012-2.235.03-3.355.07.358 3.308.516 6.71-.024 10-1.02-.03-2.041-.06-3.068-.077zM27.33 3.355c1.115.005 2.223.005 3.338.005.012 5.584 0 11.173.006 16.756-1.115.006-2.235.006-3.35.012.03-3.337-.017-6.674.047-10.005-1.056-.06-2.194.252-3.162-.282-.404-.956-.317-2.023-.223-3.026 1.115-.13 2.235-.053 3.356-.053 0-1.138-.012-2.27-.012-3.407zM52.542 3.355l3.373.017c-.006 2.258-.023 4.522 0 6.786 2.16-.047 4.324-.041 6.482-.018-.006 1.067-.006 2.135.006 3.202-2.164.012-4.323.012-6.482-.017-.035 2.263-.012 4.521-.006 6.785l-3.373.018c.006-5.59-.005-11.184 0-16.773zM65.506 3.366c1.12-.006 2.241-.006 3.362-.006l.035 3.408c-1.126-.006-2.247-.024-3.373-.03-.012-1.125-.018-2.251-.024-3.372zM62.427 10.11c-.03-1.12-.053-2.245-.07-3.366 1.061.006 2.129.018 3.196.03-.023 1.12-.029 2.24-.052 3.36a537.065 537.065 0 0 0-3.074-.023zM20.819 10.105c.95.082 1.959-.106 2.868.235.798.797.393 2.017.546 3.02-1.156.006-2.317 0-3.473-.018.035-1.079.053-2.158.059-3.237zM62.427 13.366c1.026-.006 2.047-.018 3.074-.024.023 1.115.035 2.235.052 3.355-1.067.017-2.135.035-3.203.047.018-1.126.047-2.252.077-3.378zM65.542 16.726c1.12 0 2.24-.006 3.36-.006-.01 1.132-.017 2.27-.028 3.408-1.127-.006-2.253-.006-3.373-.012.005-1.132.023-2.258.04-3.39zM14.325 27.2c4.552-.005 9.104.012 13.662-.005-.076 5.741-.053 11.489-.012 17.23-1.167-.011-2.334-.023-3.502-.04.094-4.57-.047-9.138.088-13.707-3.39-.005-6.78-.011-10.172.018-.023-1.167-.04-2.328-.064-3.495zM31.395 27.2c5.702-.005 11.398.012 17.094-.011-.059 5.747-.03 11.495-.012 17.242-5.69-.058-11.386-.03-17.076-.017.035-5.742.041-11.478-.006-17.213zm3.42 3.473c.03 1.172.053 2.34.082 3.507 3.367-.053 6.734-.059 10.102 0 .035-1.167.058-2.335.105-3.502-3.431-.011-6.863 0-10.289-.005zm.041 6.967c0 1.097-.006 2.193-.017 3.29 2.047.03 4.094.006 6.147.023.481-.005 1.443-.017 1.924-.029.51.094 1.531.27 2.042.358.07-1.208.1-2.416.135-3.625-3.409-.005-6.823.018-10.23-.017zM51.885 27.195c5.702 0 11.41.017 17.112-.006-.065 5.747-.047 11.495-.012 17.242-5.696-.058-11.398-.023-17.1-.017.059-5.742.065-11.478 0-17.22zm3.426 3.483c.041 1.167.065 2.329.1 3.496 3.35-.047 6.705-.041 10.054-.006.036-1.161.065-2.323.112-3.484-3.42-.017-6.84-.011-10.266-.006zm.065 6.974c-.018 1.026-.03 2.052-.07 3.079.222.123.674.369.897.492 3.068-.61 6.23-.146 9.344-.287-.023-1.091-.029-2.188-.023-3.284-3.385.005-6.77.011-10.148 0z"/>
        </g>
        <path fill="#FFF" d="M33.255 6.75c.058-1.155.164-2.316.346-3.46 5.356.106 10.717.112 16.073 0 .188 1.144.299 2.293.364 3.454-2.27.053-4.54.041-6.81.041a725.1 725.1 0 0 1 .01 13.366c-1.079-.023-2.152-.035-3.231-.058.047-4.434-.018-8.874.047-13.308-2.265-.005-4.53.012-6.8-.035z"/>
    </g>
</svg>
