<svg xmlns="http://www.w3.org/2000/svg" width="37" height="33" viewBox="0 0 37 33">
    <g fill="none" fill-rule="evenodd">
        <path d="M0-3h40v40H0z"/>
        <g fill-rule="nonzero">
            <path fill="#FFF" d="M11.676 1.904c.512-.911 1.538-1.483 2.58-1.48 2.797-.006 5.593.014 8.39-.006-.037 1.48.024 2.957.014 4.436-2.594.034-5.19-.01-7.784.018-.315-.035-.525.359-.34.606.148.215.442.155.665.174 2.482-.015 4.965-.007 7.448-.003.007.858.01 1.717-.001 2.575-2.59.025-5.18 0-7.77.019-.43-.056-.565.619-.157.742.405.063.819.018 1.228.029 2.233.018 4.467-.012 6.7.016.018.86-.03 1.72-.013 2.58-2.586.001-5.173-.016-7.759.004-.298-.037-.51.315-.363.57.087.184.305.202.485.205 2.555.011 5.112-.017 7.667.01-.015.83-.02 1.66-.006 2.49 1.734.03 3.469-.02 5.203.031 1.024.025 2.048-.038 3.072-.022.58.013 1.166-.055 1.737.068-5.892-.001-11.783.007-17.675.006-.303-.055-.631.214-.505.532.1.297.46.242.708.255 2.483-.026 4.966.003 7.449-.005.025 1.48-.014 2.961.014 4.441-2.734.029-5.47.009-8.205.01-.918.026-1.864-.32-2.463-1.033-.49-.558-.725-1.305-.724-2.041V6.362c.003-.91-.01-1.82-.008-2.731 0-.597.096-1.212.413-1.727z"/>
            <path fill="#F0E6FD" d="M22.645.418c3.369-.022 6.736.008 10.104-.01.351 0 .704 0 1.053.05.827.149 1.543.68 2.009 1.368.3.55.437 1.177.444 1.801.014 4.36-.015 8.72.009 13.08 0 .717-.077 1.473-.475 2.09-.51.868-1.499 1.414-2.5 1.424-.946.006-1.89-.011-2.836-.004a1275.6 1275.6 0 0 1-3.842 6.878c-.593-1.002-1.143-2.03-1.711-3.043-.59-1.052-1.182-2.101-1.764-3.156-.14-.245-.255-.514-.473-.7-.028-1.481.011-2.962-.014-4.442 3.333-.01 6.668.002 10.002-.007.49.025.496-.745.021-.781-.571-.123-1.158-.055-1.737-.068-1.024-.016-2.048.047-3.072.022-1.734-.05-3.469 0-5.203-.03-.015-.831-.01-1.661.006-2.492 3.288.024 6.578.004 9.867.006.313.045.647-.314.445-.603-.077-.172-.268-.202-.435-.193-3.302-.002-6.605-.013-9.907.002-.016-.86.03-1.72.013-2.58 3.262.018 6.524.006 9.786.013.214.006.49-.03.564-.27.123-.207-.055-.494-.278-.536-.238-.04-.48-.026-.721-.027-3.117.01-6.235-.005-9.352.014.011-.858.008-1.717 0-2.575 3.299.003 6.598-.005 9.897.002.296.069.62-.281.445-.553-.101-.272-.436-.246-.671-.255-3.22.018-6.44-.013-9.659.011.01-1.479-.05-2.957-.015-4.436z"/>
            <path fill="#E1CEFC" d="M2.038 6.52c.437-.159.91-.154 1.368-.16 2.62.006 5.243-.01 7.865.002v10.769c-.001.736.235 1.483.724 2.041.6.714 1.545 1.06 2.463 1.034 2.735-.002 5.47.018 8.205-.01.218.186.333.455.473.7.582 1.055 1.174 2.104 1.764 3.156-.385 1.187-1.525 2.104-2.788 2.119-2.873-.004-5.747.015-8.621-.007-1.284 2.285-2.559 4.576-3.838 6.863-1.283-2.284-2.575-4.563-3.836-6.858-.91-.011-1.82.002-2.73-.005a3.509 3.509 0 0 1-1.689-.457 3.148 3.148 0 0 1-1.384-2.614C.005 18.875.01 14.657.01 10.439c0-.57-.028-1.146.089-1.707.185-1.015.962-1.89 1.94-2.212z"/>
        </g>
    </g>
</svg>
