<svg xmlns="http://www.w3.org/2000/svg" width="37" height="28" viewBox="0 0 37 28">
    <g fill="none" fill-rule="nonzero">
        <path fill="#EAC9FB" d="M3.677.027C4.271.035 4.865.015 5.46.035c-.008.709-.003 1.417-.003 2.127.723 0 1.448-.001 2.172 0 7.804.007 15.607-.013 23.411-.013.001-.707.007-1.414.007-2.122h1.783c-.01.709-.003 1.417-.009 2.127h2.136c.478 0 .955.001 1.434-.001-.001 3.363.003 6.725-.002 10.089-6.081 0-12.162.015-18.242-.008-6.045-.02-12.088-.007-18.131-.008 0-3.354 0-6.709-.003-10.063 1.224-.001 2.446.003 3.669.001 0-.712.002-1.425-.004-2.137z"/>
        <path fill="#FDFDFD" d="M.015 12.226c6.043.001 12.086-.013 18.13.008-.003.824.035 1.652-.056 2.473l-.306.111c-.33.022-.661.032-.99.045-.04.873-.07 1.745-.044 2.62.468-.035.937-.053 1.407-.047-.008.457-.012.914-.013 1.37-.452.004-.903.006-1.355.012-.005.861-.007 1.722.002 2.583.452 0 .904 0 1.357.006 0 .455-.001.91-.005 1.365-.451.003-.902.005-1.354.013-.006.862-.006 1.724 0 2.584.436.038.874.057 1.312.053-.03.857.063 1.712.05 2.569A3863.07 3863.07 0 0 0 .027 27.99a8.265 8.265 0 0 1-.021-.67c.017-5.031-.01-10.062.009-15.094zM2.39 14.85c-.004.862-.007 1.723.002 2.585.872.009 1.745-.036 2.613.038-.048-.871-.023-1.744-.028-2.617a59.637 59.637 0 0 0-2.587-.006zm4.78.015c-.084.849-.095 1.712-.003 2.562.864.011 1.729.006 2.592.004.024-.863.025-1.728 0-2.591-.861-.043-1.73-.075-2.589.025zm4.818-.013c-.007.86-.035 1.724.016 2.584.858-.01 1.715.009 2.572-.013-.007-.85-.01-1.702.002-2.554-.862-.05-1.727-.028-2.59-.017zm-9.597 3.97c.002.879-.078 1.757-.035 2.638.87-.063 1.743-.068 2.616-.059.006-.874-.003-1.747.05-2.618-.877-.034-1.754.026-2.631.038zm4.787.014c.007.852.005 1.705.001 2.558.86.013 1.719.006 2.58.005.029-.858.017-1.716.006-2.574a41.874 41.874 0 0 0-2.587.011zm4.81-.013c.006.877-.052 1.75-.026 2.626.873.034 1.742-.077 2.615-.056-.006-.483-.026-.968.024-1.45.032-.394.119-.806-.037-1.185-.859.048-1.717.056-2.576.065zm-9.6 3.959c-.003.864-.002 1.728 0 2.591h2.584c.008-.863.007-1.727.001-2.591-.861-.009-1.723.012-2.584 0zm4.788.024c.008.867.016 1.735-.008 2.603.863.025 1.729.031 2.59-.048.07-.863.05-1.729.041-2.594-.875.029-1.75-.022-2.623.039zm4.81-.024c-.006.864-.026 1.728.012 2.59.86-.004 1.719.014 2.577-.011-.006-.851-.01-1.702.003-2.552-.864-.061-1.728-.017-2.592-.027z"/>
        <path fill="#F5E4FD" d="M18.146 12.234c6.08.023 12.16.008 18.242.008-.008 5.25.009 10.5-.005 15.751-6.078.007-12.156.008-18.233-.002.013-.857-.08-1.712-.05-2.569.433 0 .866-.004 1.3-.016.016-.876.032-1.753-.032-2.629-.408-.009-.817-.01-1.226-.005.004-.455.006-.91.005-1.365.409.004.817.004 1.226 0 .003-.865.005-1.73-.002-2.595-.41-.011-.818-.013-1.228-.006.001-.456.005-.913.013-1.37.404.01.81.01 1.216.006.008-.879-.011-1.756.034-2.634a32.914 32.914 0 0 0-1.296.003l-.327.007.306-.11c.09-.822.053-1.65.057-2.474zm3.424 2.626c.004.857.002 1.713.001 2.57.862.01 1.723.005 2.585.003.02-.859.017-1.718.002-2.576a41.042 41.042 0 0 0-2.588.003zm4.806-.009c.01.878-.06 1.755-.022 2.633.873 0 1.743-.073 2.617-.058-.01-.708-.026-1.417.062-2.121.014-.178.053-.536-.23-.496-.81-.004-1.618.047-2.427.042zm4.79-.012c-.001.866-.002 1.732.001 2.598.866.001 1.732-.001 2.599.001-.003-.867-.002-1.733-.002-2.6h-2.598zm-9.6 3.994c-.001.866.037 1.735-.04 2.6.873.052 1.747.001 2.62-.04.062-.868.065-1.739.046-2.608-.874.051-1.751-.005-2.625.048zm4.816-.016c-.014.861-.03 1.725.01 2.587.859-.007 1.72.007 2.58-.01a91.26 91.26 0 0 1 .002-2.554c-.863-.062-1.728-.018-2.592-.023zm4.784-.01c-.001.866-.001 1.732.001 2.597.866.007 1.732.004 2.6.003.002-.867.003-1.734-.003-2.6-.866-.002-1.732-.002-2.598 0zm-9.66 3.941c.096.87.059 1.747.068 2.62.86.01 1.722.008 2.583.003.02-.861.018-1.723.001-2.583-.885-.007-1.77 0-2.652-.04zm4.877.044c-.019.86-.029 1.72.006 2.58.86-.043 1.76.159 2.594-.013.066-.85-.047-1.704-.013-2.555-.861-.048-1.724-.029-2.587-.012zm4.775-.026c-.002.87.012 1.74.008 2.61h2.6c-.002-.867 0-1.735 0-2.602-.87.005-1.74-.01-2.608-.008z"/>
    </g>
</svg>
