<svg width="32" height="32" viewBox="0 0 32 32" xmlns="http://www.w3.org/2000/svg"><title>134752FC-87EF-48E6-BD02-B0294EF2600E</title><g fill="none" fill-rule="evenodd"><circle fill="#1BD741" cx="16" cy="16" r="16"/><g fill="#FFF"><path d="M15.552 6.778c-4.877.232-8.725 4.293-8.71 9.176a9.118 9.118 0 0 0 .997 4.13l-.973 4.72a.356.356 0 0 0 .432.419l4.624-1.096a9.114 9.114 0 0 0 3.935.956c4.985.076 9.141-3.882 9.297-8.865a9.159 9.159 0 0 0-9.602-9.44zm5.519 14.218a7.124 7.124 0 0 1-5.071 2.1 7.096 7.096 0 0 1-3.192-.748l-.643-.32-2.836.671.597-2.897-.317-.621a7.09 7.09 0 0 1-.78-3.256c0-1.915.746-3.716 2.1-5.07A7.183 7.183 0 0 1 16 8.755c1.915 0 3.716.745 5.07 2.1a7.124 7.124 0 0 1 2.1 5.07 7.183 7.183 0 0 1-2.1 5.071z"/><path d="M20.445 17.911l-1.774-.509a.662.662 0 0 0-.655.173l-.433.441a.646.646 0 0 1-.703.149c-.84-.34-2.604-1.91-3.055-2.694a.646.646 0 0 1 .051-.717l.379-.49a.661.661 0 0 0 .081-.671l-.746-1.688a.662.662 0 0 0-1.033-.237c-.495.419-1.082 1.055-1.154 1.76-.126 1.243.407 2.81 2.423 4.691 2.328 2.174 4.193 2.46 5.408 2.167.688-.167 1.239-.836 1.586-1.383a.662.662 0 0 0-.375-.992z"/></g></g></svg>