<svg xmlns="http://www.w3.org/2000/svg" xmlns:xlink="http://www.w3.org/1999/xlink" width="74" height="72" viewBox="0 0 74 72"><defs><path id="a" d="M.916.221c.733-.324 1.682.145 1.844.938.143.802.03 1.627.067 2.436.014.685.064 1.538-.574 1.978-.781.639-2.11.073-2.176-.942C.014 3.616.06 2.596.053 1.579.044 1.004.375.438.916.221z"/><path id="c" d="M.941.079c.318-.096.655-.085.972.014l.018.009c.701.408 1.188 1.084 1.78 1.625.426.474 1.053.88 1.143 1.561.143.763-.498 1.535-1.263 1.57-.498.051-.94-.246-1.272-.586C1.705 3.646 1.074 3.037.47 2.404a1.595 1.595 0 0 1-.438-1.252l.079-.29C.169.775.285.603.342.515A.152.152 0 0 0 .356.498C.505.314.716.194.923.086A.085.085 0 0 0 .94.08z"/><path id="e" d="M3.058.072c.86-.303 1.84.443 1.784 1.354-.051.894-.91 1.381-1.44 1.996-.634.55-1.156 1.476-2.102 1.44C.395 4.836-.255 3.808.1 2.969c.33-.64.937-1.065 1.412-1.59C2.012.93 2.413.32 3.058.073z"/><path id="g" d="M12.95.14C20.838.122 28.73.144 36.62.13c-2.127 3.96-4.184 7.963-6.314 11.924-1.574 2.968-3.116 5.953-4.688 8.923-.257.475-.52.95-.717 1.456 4.67.046 9.339.004 14.008.021 3.139-.018 6.277.03 9.414-.023-.022-.086-.07-.257-.093-.341.038.061.11.188.146.25a.367.367 0 0 0 .02.03l.105.11-.059-.001c-7.872.013-15.746.016-23.618-.002 2.445 6.814 4.917 13.617 7.377 20.424 1.455 4.002 2.871 8.02 4.363 12.007l.132.04.175.04-.23.2C24.447 44.31 12.246 33.44.053 22.562c2.458-.134 4.923-.009 7.383-.078 5.775.05 11.552-.007 17.327.02-.335-.901-.888-1.69-1.332-2.535-.968-2.009-2.066-3.949-3.077-5.935-2.028-3.687-3.87-7.476-5.928-11.146-.485-.912-.844-1.91-1.498-2.72l.02-.029z"/><path id="i" d="M11.729.13l.102-.004c.47 1.093 1.133 2.09 1.622 3.175.512 1.162 1.224 2.217 1.802 3.346 1.02 2.03 2.177 3.99 3.13 6.053 1.751 3.075 3.378 6.222 4.954 9.39l.093.341c-3.137.053-6.276.005-9.414.023-4.67-.017-9.339.025-14.008-.021.196-.506.46-.98.717-1.456 1.572-2.97 3.114-5.955 4.688-8.923C7.545 8.093 9.602 4.091 11.729.13z"/><path id="k" d="M10.63.125l.105.006c1.18 1.83 2.346 3.67 3.495 5.52l.011.018.01.016.263.413.053.09.065.107.054.087.259.405.031.045c3.316 5.182 6.59 10.393 9.887 15.59l.028-.144v.274l-.008-.001a8.513 8.513 0 0 0-1.418-.06c-7.772-.01-15.544.014-23.316-.01l-.105-.111.003-.008c.989-1.552 1.608-3.298 2.46-4.923.922-2.193 2-4.316 3-6.475C7.222 7.354 8.941 3.748 10.63.124z"/><path id="m" d="M.1.126C7.52.123 14.94.125 22.36.125c-1.687 3.623-3.407 7.23-5.123 10.84-.999 2.158-2.078 4.281-2.999 6.474-.852 1.625-1.472 3.371-2.46 4.923l-.023-.023-.146-.25c-1.577-3.167-3.203-6.314-4.954-9.389-.953-2.063-2.11-4.023-3.13-6.053-.578-1.129-1.29-2.184-1.803-3.346C1.233 2.216.571 1.22.1.126z"/><path id="o" d="M.076.078c7.872.017 15.746.014 23.618.001-3.914 10.824-7.84 21.643-11.746 32.47l-.132-.04c-1.492-3.988-2.908-8.006-4.363-12.007C4.993 13.694 2.521 6.89.076.078z"/><path id="q" d="M12.93.024c.653.81 1.012 1.808 1.497 2.72 2.058 3.67 3.9 7.46 5.928 11.147 1.011 1.986 2.109 3.925 3.077 5.934.444.844.997 1.634 1.332 2.535-5.775-.026-11.552.031-17.327-.02-2.46.07-4.925-.055-7.383.078L0 22.377v-.04C4.297 14.892 8.622 7.462 12.93.024z"/><path id="s" d="M11.82.079l.06.001c7.771.025 15.543 0 23.315.012a8.513 8.513 0 0 1 1.418.059c-.376.326-.738.667-1.111.995a1.592 1.592 0 0 1-.05.046l-.085.074c-.013.01-.037.033-.05.044-.372.323-.735.657-1.103.985l-.05.044c-.021.02-.064.057-.086.076l-.05.045c-.37.321-.732.653-1.097.979-.014.011-.04.036-.053.047a33.155 33.155 0 0 0-.14.124c-.35.303-.688.617-1.036.922l-.079.07-.081.073c-.38.336-.755.677-1.136 1.011l-.074.066-.072.065c-.379.337-.755.677-1.134 1.013-.02.02-.06.055-.08.072l-.08.07c-.388.344-.773.691-1.16 1.037-.01.01-.034.03-.045.042l-.043.039c-.393.34-.778.692-1.167 1.038l-.079.07-.08.072c-.38.333-.751.67-1.129 1.005l-.08.072-.08.072c-.38.333-.751.673-1.129 1.006l-.08.072-.078.072c-.387.342-.77.685-1.158 1.024a1.545 1.545 0 0 1-.051.047l-.053.047a89.07 89.07 0 0 1-1.302 1.164l-1.176 1.055-.043.039-.044.04c-.44.38-.866.775-1.303 1.157l-.016.015-.014.012A16701.29 16701.29 0 0 1 .249 32.59l-.175-.04C3.98 21.722 7.907 10.903 11.821.079z"/></defs><g fill="none" fill-rule="evenodd"><g transform="translate(35.191)"><mask id="b" fill="#fff"><use xlink:href="#a"/></mask><path fill="#FFB9DB" d="M-.672 6.561H3.55V-.601H-.672z" mask="url(#b)"/></g><g transform="translate(27.895 3.159)"><mask id="d" fill="#fff"><use xlink:href="#c"/></mask><path fill="#FFB9DB" d="M-.689 5.581H5.59V-.705H-.689z" mask="url(#d)"/></g><g transform="translate(40.484 3.159)"><mask id="f" fill="#fff"><use xlink:href="#e"/></mask><path fill="#FFB9DB" d="M-.714 5.58H5.56V-.714H-.714z" mask="url(#f)"/></g><g transform="translate(0 16.225)"><mask id="h" fill="#fff"><use xlink:href="#g"/></mask><path fill="#FFB9DB" d="M-.66 55.906h49.876V-.589H-.66z" mask="url(#h)"/></g><g transform="translate(24.891 16.225)"><mask id="j" fill="#fff"><use xlink:href="#i"/></mask><path fill="#FF84B7" d="M-.705 23.175h24.852V-.592H-.705z" mask="url(#j)"/></g><g transform="translate(48.352 16.225)"><mask id="l" fill="#fff"><use xlink:href="#k"/></mask><path fill="#FF84B7" d="M-.67 23.27h26.277V-.593H-.671z" mask="url(#l)"/></g><g transform="translate(36.622 16.225)"><mask id="n" fill="#fff"><use xlink:href="#m"/></mask><path fill="#F35D97" d="M-.615 23.08h23.691V-.593H-.615z" mask="url(#n)"/></g><g transform="translate(24.748 38.625)"><mask id="p" fill="#fff"><use xlink:href="#o"/></mask><path fill="#F35D97" d="M-.64 33.266h25.05V-.64H-.64z" mask="url(#p)"/></g><g transform="translate(0 16.369)"><mask id="r" fill="#fff"><use xlink:href="#q"/></mask><path fill="#FFE6F0" d="M-.715 23.136h26.194V-.694H-.715z" mask="url(#r)"/></g><g transform="translate(36.622 38.625)"><mask id="t" fill="#fff"><use xlink:href="#s"/></mask><path fill="#FFE6F0" d="M-.64 33.307h37.968V-.64H-.64z" mask="url(#t)"/></g></g></svg>