<svg xmlns="http://www.w3.org/2000/svg" width="55" height="48" viewBox="0 0 55 48"><g fill="none"><path fill="#FFB9DB" d="M27.665.18c.47-.219 1.079.074 1.204.579.083.52.041 1.578.041 1.578v2.042s-.004 4.546.003 6.82c-.004.279-.028.572-.202.804a1.007 1.007 0 0 0-.196.181c-.35.211-.843.19-1.127-.123-.244-.214-.27-.556-.274-.858.008-1.665 0-3.33.004-4.994.002-.681-.006-4.096.003-5.122-.015-.375.183-.767.544-.906z"/><path fill="#FF84B7" d="M39.78 3.324c.458-.346 1.204-.158 1.386.402.18.452-.118.886-.315 1.274-1.478 2.89-2.954 5.782-4.435 8.67-.162.354-.554.615-.949.533a.884.884 0 0 1-.76-.749c-.05-.3.102-.576.228-.835 1.572-3.029 3.085-6.09 4.683-9.105.052-.065.11-.124.162-.19zm-23.515 0c-.457-.346-1.203-.158-1.385.402-.18.452.118.886.314 1.274 1.479 2.89 2.955 5.782 4.436 8.67.162.354.554.615.948.533a.884.884 0 0 0 .761-.749c.05-.3-.102-.576-.228-.835-1.572-3.029-3.085-6.09-4.683-9.105-.052-.065-.11-.124-.163-.19z"/><path fill="#FFB9DB" d="M6.422 18.235c3.017.044 6.036.006 9.054.023 11.462-.02 22.925.02 34.388-.015.703.078 1.302.734 1.287 1.449.007 1.293-.001 2.587.001 3.88-.2-.123-.42-.206-.624-.32-.086-.037-4.345-.077-4.345-.077l-.091.053-.117.058c-.023.012-1.862 1.359-2.274 2.083-.782 1.307-.977 2.965-.466 4.406.68 2.144 2.863 3.682 5.104 3.615.993.015 1.958-.324 2.803-.827.01 1.306.012 2.613.002 3.918.007.534-.326 1.034-.787 1.285-.315.193-.698.17-1.051.174-2.111-.012-4.222.013-6.332-.023-3.01.023-6.02.025-9.03.005-9.06.014-18.119-.01-27.177.001-.773.082-1.509-.557-1.561-1.326-.048-1.442-.02-2.884-.03-4.326 1.216.973 2.875 1.307 4.382.973a5.315 5.315 0 0 0 3.126-2.04c.977-1.342 1.314-3.167.77-4.748a5.31 5.31 0 0 0-2.837-3.228s-.35-.138-.486-.18c-.168-.216-3.941.173-4 .196a18.31 18.31 0 0 0-.949.587c-.003-.195-.001-.39-.004-.583-.001-1.188-.007-2.376.002-3.563-.02-.703.557-1.346 1.242-1.45zm17.692 6.356c-.87.989-1.292 2.31-1.375 3.608.12 1.53.823 3.053 2.028 4.024.805.68 1.822 1.06 2.848 1.244.827.148 1.648-.119 2.429-.364 2.268-.81 3.743-3.285 3.48-5.664-.265-1.365-.925-2.697-2.046-3.553-.335-.242-.68-.551-1.087-.63 0 0-2.27-.533-3.339-.22-1.068.314-2.656 1.218-2.938 1.555z"/><path fill="#FF84B7" d="M31.478 23.886c1.121.856 1.78 2.188 2.045 3.553.264 2.38-1.21 4.854-3.48 5.664-.78.245-1.6.512-2.428.364-1.026-.183-2.043-.564-2.848-1.244-1.205-.971-1.908-2.493-2.028-4.024.083-1.299.505-2.62 1.375-3.608.519-.62 1.201-1.086 1.916-1.45 0 0 .35-.18.675-.255a5.86 5.86 0 0 1 1.08-.12c.281-.004 1.72.054 2.493.375.774.321 1.069.65 1.2.745z"/><path fill="#FFA9CC" d="M0 24.678c.027-.726.66-1.387 1.391-1.403.673-.025 1.346.01 2.019-.018-.005 1.397.005 2.794-.005 4.191a41.482 41.482 0 0 0 .005 3.115c-.011 2.405.02 4.812-.019 7.217-.014.592.386 1.13.905 1.38.6.301 41.672.202 41.672.202.015.728.017 1.457.004 2.185.01.61-.433 1.164-.994 1.363-.372.108-.764.075-1.147.08-1.65-.02-7.376.033-8.592-.005-1.399-.001-2.798-.001-4.196-.003-.754-.006-4.26.03-5.263 0-1.644-.003-11.383-.024-12.78-.007-1.147-.018-2.298.041-3.443-.048-.183-.009-.366.024-.549.034-2.498.032-4.999.008-7.498.01-.768.048-1.468-.62-1.51-1.378V24.678z"/><path fill="#FFE6F0" d="M10.617 23.228a5.31 5.31 0 0 1 2.838 3.228c.543 1.581.206 3.406-.77 4.747a5.315 5.315 0 0 1-3.127 2.04c-1.507.335-3.166 0-4.381-.972-.002-2.813.015-5.627.005-8.44.175-.115.518-.378.849-.553.33-.174.513-.196.613-.228a6.763 6.763 0 0 1 1.16-.204 8.992 8.992 0 0 1 1.85.087c.697.116.963.295.963.295zm40.527.296c-.006 1.536.018 3.135 0 4.671-.058 1.455.015 2.911-.002 4.368-.845.503-1.81.842-2.803.827-2.241.067-4.424-1.471-5.104-3.615-.511-1.441-.316-3.1.466-4.406.412-.724 1.032-1.298 1.698-1.786.095.002.517-.36 1-.55.293-.117 1.335-.252 2.143-.25.807.001 2.386.642 2.602.74z"/><path fill="#F35D97" d="M3.41 23.257c.588-.02 1.178-.005 1.768-.01.003.194 0 .39.004.584.01 2.813-.007 5.627-.005 8.44.008 1.442-.019 2.884.029 4.326.052.769.788 1.408 1.56 1.326 9.06-.01 18.118.013 27.177 0 3.01.019 6.021.017 9.031-.006 2.11.036 4.22.01 6.332.023.353-.005.736.019 1.051-.174.461-.25.794-.751.787-1.285.01-1.305.007-2.612-.002-3.918.017-1.457-.056-2.913.002-4.368h1.519c-.022 2.545-.01 5.093-.019 7.64.017.832.282 1.675.035 2.498-.165.697-.836 1.21-1.547 1.206-1.214.043-2.428-.145-3.64-.027-.072.929-.015 1.86.037 2.79.01.615-.031 1.337-.535 1.769-.547.473-1.326.304-1.986.307-2.4-.064-34.309-.02-35.993-.032-.006-.462-.006-.923-.007-1.385.183-.01.366-.043.55-.034 1.144.089 35.048.091 35.42-.017.561-.199 1.004-.754.994-1.363.013-.728.011-1.457-.004-2.185-1.465-.022-37.84.018-39.738-.01-.643-.03-1.335.11-1.934-.192-.519-.25-.919-.788-.905-1.38.039-2.405.008-4.812.019-7.217a42.02 42.02 0 0 1-.005-3.115c.01-1.397 0-2.794.005-4.19z"/><path fill="#FF84B7" d="M52.663 28.194c.417.01.84-.031 1.254.049.58.164 1.033.703 1.083 1.31v16.894c-.004.643-.474 1.23-1.085 1.407-.386.078-.782.042-1.172.05-6.311-.004-33.985-.006-40.296-.006.974-1.076 3.041-3.594 3.424-3.549 2.4.03 26.738-.035 29.137.03.66-.004 1.44.165 1.986-.308.504-.432.544-1.154.535-1.77-.052-.928-.109-1.86-.038-2.79 1.213-.117 2.427.07 3.64.028.712.004 1.383-.51 1.548-1.206.247-.823-.018-1.666-.035-2.498.01-2.547-.003-5.095.019-7.64z"/><path fill="#FF84B7" d="M9.015 44.346c1.684.012 3.369.004 5.053.009.59.006 1.803 0 1.803 0s-1.524 1.562-2.253 2.328c-.393.357-1.171 1.215-1.171 1.215h-2.182c-.701-.093-1.278-.798-1.246-1.51-.01-.68.006-1.36-.004-2.042z"/></g></svg>