<svg xmlns="http://www.w3.org/2000/svg" width="56" height="56" viewBox="0 0 56 56"><g fill="none"><path fill="#FF96D1" d="M4.11.191c.616-.332 1.466.182 1.395.9-.02.721-.94 1.123-1.504.709-.587-.355-.516-1.331.108-1.609z"/><path d="M13.29.184c.34-.14.773-.129 1.069.113.383.277.473.868.199 1.252-.353.556-1.288.558-1.642.001-.332-.445-.126-1.142.373-1.366zm9.189.011c.634-.348 1.548.16 1.448.917-.034.83-1.2 1.142-1.715.548-.415-.428-.27-1.212.267-1.465zm9.286-.033c.671-.307 1.553.304 1.358 1.06-.131.808-1.333 1.01-1.766.348-.359-.461-.134-1.207.408-1.408zm9.194.008c.444-.176 1.026-.053 1.27.386.323.497.018 1.244-.558 1.37-.418.123-.924-.026-1.143-.422-.301-.461-.066-1.128.43-1.335zm9.185.012c.666-.348 1.555.294 1.353 1.045-.11.67-1 .958-1.514.549-.559-.381-.458-1.33.161-1.594z" fill="#FF99D4"/><path fill="#FFB9DB" d="M21.593 10.051a8.037 8.037 0 0 1 4.975-2.1 8.064 8.064 0 0 1 5.784 1.982 8.14 8.14 0 0 1 2.733 5.176c-.535.11-1.08.047-1.62.058-1.384.012-2.77-.082-4.152.011a.995.995 0 0 0-.768.443c-.214.368-.124.864.148 1.179.229.201.537.298.84.295a77.112 77.112 0 0 1 5.546-.014c-.24 2.256-1.514 4.37-3.358 5.67a8.042 8.042 0 0 1-5.03 1.49c-1.943-.072-3.841-.893-5.246-2.241-1.091-1.052-1.9-2.411-2.262-3.89a4.912 4.912 0 0 1-.164-.887l.081-.12c1.613-.068 3.229-.06 4.844-.052.421.006.966-.047 1.147-.503.292-.477.03-1.177-.516-1.32-.71-.138-1.44-.021-2.158-.065-1.088-.06-2.177.004-3.267-.001a19.559 19.559 0 0 1-.148-.152 8.143 8.143 0 0 1 2.59-4.959z"/><path fill="#FFA9CC" d="M4.061 11.401a4.28 4.28 0 0 1 3.118 1.063c.816.714 1.365 1.743 1.463 2.83a4.306 4.306 0 0 1-.964 3.208 4.265 4.265 0 0 1-2.873 1.564 4.273 4.273 0 0 1-3.342-1.076C.557 18.195.046 17.01 0 15.81v-.147c.053-.937.347-1.874.943-2.608A4.296 4.296 0 0 1 4.06 11.4z"/><path fill="#FF84B7" d="M40.38 15.96c-.072-.55.427-1.046.968-1.022 2.842-.005 5.684-.004 8.527 0 .398-.008.793.233.93.615.084.273.069.562.069.843-.008 1.28.01 2.563-.01 3.843.005.556-.557 1.026-1.098.897-.466-.07-.786-.54-.764-1-.007-1.106.001-2.213.001-3.318-2.556 0-5.113.007-7.668-.004-.476.01-.935-.364-.956-.855z"/><path fill="#FFA9CC" d="M.895 28.185a4.293 4.293 0 0 1 2.937-1.688 4.273 4.273 0 0 1 3.168.89 4.349 4.349 0 0 1 1.653 3.093 4.313 4.313 0 0 1-.975 3.096 4.266 4.266 0 0 1-2.876 1.564 4.272 4.272 0 0 1-3.337-1.077C.557 33.27.045 32.083 0 30.881v-.147c.053-.912.33-1.824.895-2.55z"/><path fill="#FFB9DB" d="M51.679 34.6c.205-.213.49-.305.78-.316.486.07.904.527.835 1.036-.035.432-.408.705-.681.995-.985.988-1.967 1.98-2.95 2.97-.227.236-.544.42-.88.37-.38-.036-.64-.344-.893-.596-.406-.428-.846-.824-1.237-1.265-.363-.39-.286-1.076.156-1.372.378-.29.926-.193 1.246.139.279.278.552.563.832.84.933-.93 1.855-1.873 2.792-2.8zm-.141 6.465c.2-.202.435-.41.732-.433.427-.067.806.23.988.598-1.596 1.545-3.125 3.16-4.717 4.71-.495-.31-.851-.785-1.275-1.179-.344-.377-.87-.714-.848-1.29.01-.636.747-1.1 1.315-.809.451.274.767.714 1.154 1.066.884-.886 1.769-1.773 2.65-2.663z"/><path fill="#FF84B7" d="M18.968 14.991l.034.019.148.152c1.09.005 2.18-.059 3.268 0 .717.045 1.447-.072 2.157.067.545.142.808.842.516 1.32-.18.455-.726.508-1.147.502-1.615-.008-3.23-.016-4.844.053l-.08.12-.01.013c-.144-.737-.092-1.5-.042-2.246zm16.117.118l.015-.002a7.6 7.6 0 0 1 .003 1.976l-.024-.002a77.14 77.14 0 0 0-5.547.014 1.253 1.253 0 0 1-.839-.295c-.272-.315-.362-.81-.148-1.18.174-.251.46-.433.767-.442 1.383-.093 2.769.001 4.152-.01.54-.012 1.086.051 1.621-.059z"/><path fill="#FFB9DB" d="M43.738 25.099c-.092-.575.442-1.092 1.003-1.05 3.422-.004 6.846-.005 10.268.001.503-.025.933.383.991.876v.1c-.038.507-.48.924-.99.9-3.422.008-6.845.003-10.266.002-.482.028-.968-.33-1.006-.83zm.665 3.937c.43-.095.875-.035 1.311-.05 3.096.003 6.191-.005 9.285.004.508-.023.952.379 1.001.884v.096c-.04.345-.244.642-.54.816-.6.158-1.229.053-1.841.086-2.96-.003-5.92.003-8.88-.005-.439.016-.89-.272-.981-.717-.133-.468.177-1 .645-1.114z"/><path fill="#FFA9CC" d="M26.475 29.45l.086-.043c1.557-.099 3.108.232 4.566.763.18.55.54 1.013.814 1.517.65 1.198 1.298 2.401 1.834 3.658a23.407 23.407 0 0 1 1.474 5.575c.233 1.089.309 2.201.414 3.308.18 1.598.18 3.21.3 4.813-5.908.017-11.814-.002-17.721.01a1.469 1.469 0 0 1-.06-.741c.074-.528 0-1.069.133-1.59l.005-.035c.116-2.41.361-4.817.817-7.187.178-.708.353-1.418.501-2.133.226-.716.448-1.436.736-2.128.693-1.44 1.426-2.864 2.248-4.233.143-.271.388-.512.39-.837v-.004c.99-.363 2.012-.638 3.063-.736l.09.066c.112.09.215.075.31-.043zm-1.423 3.558c.126.693.258 1.386.393 2.078.048.357.359.564.62.763-.158 1.339-.356 2.674-.466 4.019l-.085-.006-.008.19-.063.104.08.215-.028.378-.084-.005-.008.188-.067.105.085.215c-.018.098-.051.295-.068.394l-.005.035c-.032.265-.075.53-.08.798l-.094.024-.029.115.07.085a14 14 0 0 0-.063.681c-.19-.009-.186.317-.084.426l.002.068.062.058.216.34.04.059.042.059.136.197.043.062.043.061.143.206a7.021 7.021 0 0 0 .082.118c.06.083.176.252.235.335.01.016.03.045.042.06l.041.061.137.198.042.06.042.062.141.204.043.063.04.059.22.32c.005.007.016.019.02.026l.187.194.014.055.05-.102.091-.101c.021-.027.063-.08.083-.108l.055-.072.149-.201c.013-.019.04-.054.052-.073l.076-.099.053-.07.147-.2.051-.07.075-.096c.013-.018.04-.052.052-.07l.153-.204.052-.07.074-.098.053-.069.147-.2.053-.073c.018-.024.057-.073.075-.099l.053-.069.148-.201.052-.072a2.51 2.51 0 0 0 .074-.098l.054-.067.124-.164c.195.009.168-.438-.032-.38-.015-.241-.05-.481-.081-.721-.001-.008-.003-.025-.006-.034l-.078-.44.03-.042c.109-.174.08-.28-.085-.318a52.213 52.213 0 0 0-.05-.41l.03-.04c.112-.174.083-.277-.085-.311-.013-.107-.04-.32-.055-.426l.03-.04c.113-.174.084-.276-.087-.308a8.74 8.74 0 0 0-.065-.676l.068-.086-.031-.117-.096-.022a4.591 4.591 0 0 0-.048-.548l.069-.085-.029-.115-.095-.024-.006-.237.05-.098-.05-.115-.021-.188-.084.006-.016-.37.057-.096-.045-.12.04-.097c-.036-.02-.107-.065-.142-.086l-.043-.382c.139-.078.137-.445-.066-.391.017-.279-.05-.554-.088-.826.252-.196.56-.397.613-.74.127-.626.235-1.255.358-1.882.251-.658-.28-1.433-.984-1.4a44.176 44.176 0 0 0-1.984.004c-.586 0-1.1.594-.968 1.18z"/><path fill="#F35D97" d="M3.55 40.16c-.02-.473.338-.937.815-.98.53-.093 1.046.376 1.048.911.019 2.52.002 5.04.009 7.56 1.84.004 3.68 0 5.519.004.572-.036 1.111.503.99 1.087-.054.482-.533.816-.999.792-2.112.003-4.224.003-6.335.001-.322.004-.662-.109-.853-.382-.193-.236-.197-.56-.198-.85.005-2.715-.001-5.43.004-8.144z"/><path fill="#FFB9DB" d="M16.416 38.444c.617-3.646 3.174-6.901 6.597-8.277-.003.325-.248.566-.391.837-.822 1.37-1.555 2.793-2.248 4.233-.288.692-.51 1.412-.736 2.128a54.83 54.83 0 0 1-.5 2.133c-.457 2.37-.702 4.777-.818 7.187a.24.24 0 0 1-.005.036c-.134.52-.06 1.06-.132 1.589-.042.248-.027.501.059.74l-.058-.001a73.625 73.625 0 0 0-1.972-.019c.01-2.59.017-5.18.03-7.77.006-.628-.013-1.263.091-1.882.155-.14.162-.357.063-.532l-.018-.057c.017-.082.055-.246.072-.327l.008-.012.002-.014-.015.004-.029.004z"/><path fill="#F35D97" d="M31.127 30.17a10.11 10.11 0 0 1 2.57 1.508l.053.04c.192.148.376.308.549.478l.057.056.087.08.06.052c1.676 1.588 2.807 3.739 3.204 6.018.235 1.233.166 2.492.185 3.74.017 2.287 0 4.575.043 6.862l-.087.01c-.196-.16-.47-.17-.653.01-.411.013-.822.012-1.233.017-.12-1.604-.119-3.215-.3-4.813-.104-1.107-.18-2.22-.413-3.308a23.407 23.407 0 0 0-1.474-5.575c-.536-1.257-1.183-2.46-1.834-3.658-.274-.504-.634-.966-.814-1.517z"/><path fill="#FFB9DB" d="M48.54 45.94c1.593-1.55 3.122-3.165 4.718-4.71.186.535-.18 1.004-.559 1.332-1.042 1.042-2.074 2.095-3.12 3.131-.267.28-.675.358-1.038.247z"/><path d="M25.052 33.008c-.132-.586.382-1.18.968-1.18a43.74 43.74 0 0 1 1.984-.004c.705-.033 1.235.742.984 1.4-.123.627-.231 1.256-.358 1.882-.054.343-.36.544-.612.74.038.272.105.547.087.826a.634.634 0 0 0 .066.391l.043.382c.004.044.01.133.012.177.02.055.06.166.078.221l.016.371c.004.044.01.133.015.178l.09.217.006.237.055.224c.026.182.043.364.048.548.015.056.043.168.059.225.032.224.051.45.065.676l.044.296.013.052c.015.107.042.319.055.426l.043.3.012.052.05.409.042.307.013.053.078.44c.003.009.005.026.006.034.032.24.066.48.08.722 0 .126.01.254.033.38l-.124.163-.054.067a2.51 2.51 0 0 1-.074.098l-.053.072-.147.201-.053.07-.075.098-.053.073-.147.2-.053.07a81556.728 81556.728 0 0 1-.126.167l-.153.204c-.013.018-.04.052-.052.07l-.075.096-.051.07-.147.2-.053.07-.076.1-.052.072-.149.201-.055.072-.083.108-.092.1-.063.048-.187-.194c-.004-.007-.015-.02-.02-.026l-.22-.32-.04-.06a3.099 3.099 0 0 1-.043-.062l-.14-.204c-.012-.015-.032-.046-.043-.061l-.042-.06-.137-.199-.041-.061a1.148 1.148 0 0 1-.042-.06l-.235-.335a28358.795 28358.795 0 0 1-.082-.118l-.143-.206-.043-.061-.043-.062-.136-.197c-.01-.014-.03-.045-.042-.06l-.04-.058-.216-.34-.006-.061-.003-.067a7.61 7.61 0 0 0 .029-.424c.017-.228.035-.455.062-.681l.055-.224c.004-.269.047-.533.079-.798l.005-.035c.017-.1.05-.296.068-.394a.595.595 0 0 0 .068-.32l.006-.183.029-.378a.49.49 0 0 0 .068-.32l.007-.183c.11-1.345.308-2.68.466-4.02-.261-.198-.572-.405-.62-.762-.135-.692-.267-1.385-.393-2.078z" fill="#FFF"/><g fill="#F35D97"><path d="M37.848 49.014l.087-.01c.037 2.272.008 4.545.02 6.818-.645-.026-1.29.004-1.935-.02.012-1.579.025-3.16-.032-4.737-1.351.058-2.703-.028-4.054-.01-1.531.002-3.063 0-4.595 0-1.274-.01-2.548.067-3.822.01-1.785-.026-3.57.008-5.354-.014-.008-.668.045-1.334.02-2.002l.059.001c5.907-.01 11.813.008 17.72-.009.41-.005.822-.004 1.233-.016.216.04.44.057.653-.011z"/><path d="M26.08 54.01c.003-.487.441-.93.93-.915a.89.89 0 0 1 .87.81c.049.627.02 1.26.01 1.89-.615.015-1.23-.01-1.846.025.066-.602.006-1.207.035-1.81z"/></g><path d="M16.212 49.03c.657-.003 1.314.005 1.972.019.024.668-.029 1.334-.021 2.002 1.785.022 3.569-.012 5.354.014 1.274.057 2.548-.02 3.822-.01 1.532 0 3.064.002 4.595 0 1.351-.018 2.703.068 4.054.01.057 1.577.045 3.158.032 4.737-2.71-.013-5.42-.004-8.13-.007.01-.63.039-1.263-.01-1.89a.89.89 0 0 0-.87-.81c-.489-.015-.927.428-.93.916-.03.602.03 1.207-.036 1.809-3.283-.026-6.568.01-9.85-.01.004-2.26-.009-4.52.018-6.78z" fill="#FF84B7"/></g></svg>