<svg xmlns="http://www.w3.org/2000/svg" xmlns:xlink="http://www.w3.org/1999/xlink" width="56" height="55" viewBox="0 0 56 55"><defs><path id="a" d="M.086 1.707C.081.801.919.013 1.83.051c6.16-.003 12.321 0 18.482 0 .919-.049 1.772.74 1.767 1.656.006 4.535-.01 9.07-.013 13.606-.465.38-.874.818-1.307 1.233a28.053 28.053 0 0 1-3.003-2.421c-5.314.005-10.628.014-15.943.018-.913.032-1.745-.77-1.728-1.68C.077 8.878.077 5.293.086 1.707zm4.479 2.087c-.645.031-1.135.732-.922 1.339.129.517.678.795 1.184.776 4.122.005 8.244-.009 12.366.002.363.003.77-.031 1.04-.303.4-.347.453-1.01.112-1.414-.236-.321-.654-.428-1.036-.42-4.248.018-8.498-.026-12.744.02zm-.023 4.337c-.488.04-.896.456-.945.936-.08.623.488 1.218 1.124 1.161 4.158 0 8.316.002 12.474.004.303-.011.64.008.896-.182.501-.306.635-1.055.265-1.51-.26-.37-.74-.45-1.163-.427-4.217.018-8.434-.02-12.65.018z"/><path id="c" d="M1.018.064C5.264.018 9.514.062 13.762.044c.382-.008.8.099 1.036.42.34.405.288 1.066-.113 1.414-.27.272-.676.306-1.039.303-4.122-.011-8.244.003-12.366-.003-.506.02-1.055-.259-1.184-.775C-.117.796.373.095 1.018.063z"/><path id="e" d="M.995.03C5.212-.005 9.43.03 13.646.014c.422-.023.904.057 1.163.427.37.455.236 1.204-.264 1.51-.257.19-.594.17-.897.183-4.158-.003-8.316-.005-12.474-.005C.538 2.185-.03 1.59.05.968.099.488.507.07.995.03z"/><path id="g" d="M.633.08c.422-.125.87-.042 1.303-.046.359.018.762-.048 1.068.188.21.17.36.453.298.727-.097.54-.199 1.08-.309 1.618-.037.29-.3.459-.492.647.228 2.022.538 4.035.702 6.065.063.32-.175.56-.342.801-.4.545-.772 1.11-1.16 1.663C1.162 11 .557 10.31.027 9.565c.29-2.117.605-4.233.898-6.35-.17-.205-.42-.378-.466-.656-.097-.5-.198-.999-.316-1.494C.027.675.234.209.634.08z"/><path id="i" d="M.027.936C-.057.504.299.06.738.03c.544-.032 1.09-.017 1.635-.01.488-.017.934.456.82.945-.108.565-.187 1.137-.319 1.698-.058.242-.292.374-.47.524.29 2.125.615 4.245.895 6.372-.553.732-1.088 1.478-1.67 2.188C1.103 11 .554 10.27.05 9.508c.273-2.106.52-4.216.792-6.324-.207-.166-.458-.333-.496-.617A39.776 39.776 0 0 1 .027.936z"/><path id="k" d="M.015 1.306C.448.89.857.452 1.322.072c.003.62-.001 1.24-.001 1.86C.856 1.79.427 1.56.015 1.306z"/><path id="m" d="M4.312.45a6.55 6.55 0 0 1 5.015.224 6.477 6.477 0 0 1 3.346 3.685c.447 1.246.457 2.619.116 3.89l-2.569.001c.005.93.685 1.778 1.593 2-1.08 1.46-2.781 2.465-4.61 2.628a6.496 6.496 0 0 1-4.475-1.2A6.424 6.424 0 0 1 .25 8.004c-.354-1.461-.188-3.048.5-4.391A6.481 6.481 0 0 1 4.311.45z"/><path id="o" d="M3.778.678A6.54 6.54 0 0 1 8.781.443a6.474 6.474 0 0 1 3.406 2.844 6.393 6.393 0 0 1 .654 4.802c-.414 1.634-1.516 3.078-2.98 3.93a6.514 6.514 0 0 1-4.597.762c-1.585-.304-3.009-1.248-3.965-2.532.909-.222 1.59-1.07 1.593-1.999-.857-.001-1.714.001-2.57-.001-.335-1.271-.332-2.642.115-3.887A6.477 6.477 0 0 1 3.778.678z"/><path id="q" d="M.715.963C1.422.21 2.563-.113 3.555.22 4.718.57 5.54 1.77 5.422 2.973 5.358 4.067 4.54 5.06 3.476 5.35c-.624.19-1.295.1-1.898-.126-.684-.367-1.251-.977-1.46-1.73-.256-.875-.006-1.85.597-2.53z"/><path id="s" d="M2.011.194c.972-.29 2.067.036 2.754.768.706.758.904 1.927.486 2.872-.26.612-.765 1.098-1.36 1.392-.49.18-1.02.286-1.541.198C1.136 5.264.128 4.19.06 2.978-.062 1.744.805.514 2.011.194z"/><path id="u" d="M.55.133C.754.07.971.08 1.183.078 4.011.086 6.84.069 9.667.088c.472-.012.85.5.698.94-.093.342-.448.553-.794.532-2.903.005-5.806 0-8.709 0-.358.012-.725-.235-.777-.6A.73.73 0 0 1 .549.133z"/><path id="w" d="M.08.647C.123.28.483.016.845.027 3.753.014 6.662.02 9.569.02c.362-.025.673.21.82.526l-.074.116-.01.259.06.118c-.17.283-.46.491-.807.464-2.903 0-5.807.005-8.71-.002-.45.02-.86-.409-.768-.855z"/><path id="y" d="M3.866.657C5.486.014 7.303-.172 9.007.232l.167.12.08-.057c.362.07.71.195 1.058.316.873 1.395 1.692 2.831 2.31 4.357.37.96.604 1.966.879 2.956.365 1.778.544 3.588.656 5.398.021.727.01 1.455.078 2.18-4.719.038-9.438-.017-14.157.02l.002-.027c.064-1.453.116-2.906.281-4.351.02-1.284.29-2.547.607-3.785C1.44 5.256 2.384 3.29 3.51 1.46c.16-.25.27-.524.356-.803zm2.249 1.341c-.4.13-.607.595-.49.985.119.496.22.994.317 1.494.046.278.295.451.466.656-.293 2.117-.61 4.233-.898 6.35.53.747 1.135 1.436 1.672 2.178.39-.553.76-1.118 1.16-1.663.167-.24.406-.481.343-.801-.165-2.03-.474-4.043-.702-6.064.192-.189.454-.357.492-.647.11-.538.212-1.079.308-1.62.063-.273-.088-.555-.297-.726-.307-.235-.71-.17-1.069-.188-.433.005-.88-.078-1.302.046z"/><path id="A" d="M3.829.655c2.089-.851 4.499-.835 6.59.011.047.151.085.31.16.453 1.142 1.835 2.163 3.786 2.659 5.9.73 2.767.86 5.642.983 8.487-4.725.019-9.45-.003-14.175.006H.013c.147-1.756.163-3.524.366-5.276.323-2 .708-4.013 1.555-5.87a26.069 26.069 0 0 1 1.674-3.129c.11-.179.168-.381.22-.582zm1.68 2.2c.097.544.197 1.09.318 1.63.037.284.289.452.495.618-.27 2.107-.518 4.217-.792 6.323.505.762 1.054 1.493 1.581 2.24.582-.71 1.117-1.456 1.67-2.188-.28-2.127-.606-4.247-.895-6.372.177-.15.412-.281.47-.523.132-.562.21-1.133.318-1.7.115-.487-.331-.96-.82-.944-.544-.007-1.09-.022-1.634.01-.44.03-.795.473-.712.905z"/><path id="C" d="M.101.078c1.92.713 3.504 2.185 4.477 3.96.31.73.693 1.442.82 2.234.27 1.09.181 2.215.203 3.325.007 1.784.012 3.568.015 5.353-.531.034-1.062.02-1.592.02-.069-.726-.057-1.454-.078-2.18-.112-1.81-.29-3.621-.656-5.399-.275-.99-.51-1.995-.878-2.956C1.792 2.91.974 1.473.1.078z"/><path id="E" d="M.587 4.952C1.41 2.75 3.178.91 5.37.017a3.32 3.32 0 0 1-.356.804C3.89 2.65 2.944 4.617 2.473 6.72c-.318 1.238-.588 2.501-.607 3.784-.166 1.445-.217 2.899-.282 4.352-.527.016-1.057-.038-1.584.026V8.004C.06 6.967.197 5.92.587 4.952z"/><path id="G" d="M.47.156C.624.079.799.07.966.066 3.722.065 6.48.07 9.237.065c.287.006.61-.03.856.15.316.22.404.702.17 1.01-.168.265-.501.338-.796.328-2.834-.003-5.67 0-8.504 0-.269.005-.562-.063-.732-.285C-.062.93.061.344.471.156z"/><path id="I" d="M1.104 3.938C2.059 2.205 3.586.765 5.44.016c-.053.2-.11.403-.22.582a26.069 26.069 0 0 0-1.675 3.129c-.847 1.857-1.232 3.87-1.554 5.87-.203 1.751-.22 3.52-.367 5.276-.527-.008-1.052-.014-1.578-.018.025-1.788.022-3.574.033-5.36.007-1.175-.044-2.368.26-3.513.159-.712.441-1.39.765-2.044z"/><path id="K" d="M.1.027c2.878 1.14 4.977 3.955 5.278 7.008.02.355.053.708.104 1.06v6.75c-.527.012-1.054.013-1.58.021-.122-2.844-.253-5.72-.983-8.486C2.424 4.265 1.403 2.315.261.48.186.336.147.178.1.027z"/><path id="M" d="M.063.095C1.488.939 3 1.643 4.584 2.135c-.603.682-.852 1.656-.596 2.53.208.754.776 1.364 1.46 1.732-1.486.06-2.973-.226-4.361-.743-.022-1.11.067-2.236-.202-3.325C.757 1.537.374.825.063.095z"/><path id="O" d="M.895 2.135C2.476 1.649 3.983.945 5.403.1c-.323.654-.606 1.332-.765 2.044-.303 1.145-.253 2.34-.26 3.513-1.385.52-2.872.798-4.355.74.594-.293 1.1-.78 1.358-1.392a2.694 2.694 0 0 0-.486-2.871z"/><path id="Q" d="M0 .068C.527.004 1.057.058 1.584.042v.026c-.021.523-.03 1.048-.02 1.572 2.631.057 5.262-.015 7.894.007 2.107-.023 4.213.054 6.32-.005.049 1.231.035 2.464.067 3.695.498.044.999.028 1.497.061l-.248.017C11.396 5.42 5.698 5.4 0 5.423V.068zm7.897 3.8c.045-.59.885-.83 1.25-.37.376.488.051 1.153.262 1.697-.096.103-.22.221-.378.17-.367-.013-.733-.015-1.095.05-.118-.505-.062-1.034-.04-1.547z"/><path id="S" d="M15.74 48.754c.53 0 1.06.014 1.592-.019.003 1.79.005 3.579.01 5.368-.498-.033-1-.017-1.497-.06-.032-1.231-.018-2.464-.068-3.695-2.106.058-4.212-.019-6.319.004-2.632-.021-5.263.05-7.894-.007-.01-.524-.001-1.048.02-1.572 4.718-.036 9.437.019 14.156-.019z"/><path id="U" d="M37.735 48.773c.527-.063 1.057-.01 1.585-.026l-.001.026c-.02.524-.03 1.048-.02 1.572 2.631.057 5.263-.014 7.895.007 2.106-.023 4.212.054 6.319-.004.05 1.23.035 2.464.067 3.695.498.043.999.027 1.498.06l-.249.017c-5.697.005-11.396-.016-17.094.008v-5.355zm7.897 3.8c.045-.59.886-.83 1.25-.369.376.487.052 1.152.262 1.696-.095.103-.219.221-.378.17-.366-.013-.733-.015-1.094.05-.118-.505-.062-1.033-.04-1.547z"/><path id="W" d="M53.475 48.754c.53 0 1.06.014 1.592-.019.003 1.79.005 3.579.01 5.368-.498-.033-.999-.017-1.497-.06-.032-1.231-.018-2.464-.067-3.695-2.107.058-4.213-.019-6.32.004-2.631-.021-5.263.05-7.894-.007-.01-.524 0-1.048.02-1.572 4.718-.036 9.438.019 14.156-.019z"/></defs><g fill="none" fill-rule="evenodd"><g transform="translate(16.445)"><mask id="b" fill="#fff"><use xlink:href="#a"/></mask><path fill="#FF84B7" d="M-.458 17.079h23.076V-.484H-.458z" mask="url(#b)"/></g><g transform="translate(19.992 3.73)"><mask id="d" fill="#fff"><use xlink:href="#c"/></mask><path fill="#FFF" d="M-.492 2.714H15.56V-.491H-.492z" mask="url(#d)"/></g><g transform="translate(19.992 8.1)"><mask id="f" fill="#fff"><use xlink:href="#e"/></mask><path fill="#FFF" d="M-.495 2.665h16.052V-.524H-.495z" mask="url(#f)"/></g><g transform="translate(6.986 35.17)"><mask id="h" fill="#fff"><use xlink:href="#g"/></mask><path fill="#FFF" d="M-.51 12.275h4.363V-.522H-.509z" mask="url(#h)"/></g><g transform="translate(44.713 35.17)"><mask id="j" fill="#fff"><use xlink:href="#i"/></mask><path fill="#FFF" d="M-.523 12.28h4.359V-.521H-.523z" mask="url(#j)"/></g><g transform="translate(37.189 15.24)"><mask id="l" fill="#fff"><use xlink:href="#k"/></mask><path fill="#FF84B7" d="M-.522 2.465H1.86V-.46H-.522z" mask="url(#l)"/></g><g transform="translate(2.15 16.306)"><mask id="n" fill="#fff"><use xlink:href="#m"/></mask><path fill="#FFB9DB" d="M-.468 13.446h14.034V-.477H-.468z" mask="url(#n)"/></g><g transform="translate(39.768 16.306)"><mask id="p" fill="#fff"><use xlink:href="#o"/></mask><path fill="#FFB9DB" d="M-.453 13.445h14.036V-.477H-.453z" mask="url(#p)"/></g><g transform="translate(20.1 38.9)"><mask id="r" fill="#fff"><use xlink:href="#q"/></mask><path fill="#FFB9DB" d="M-.519 5.986H5.97v-6.43H-.52z" mask="url(#r)"/></g><g transform="translate(29.45 38.9)"><mask id="t" fill="#fff"><use xlink:href="#s"/></mask><path fill="#FFB9DB" d="M-.489 5.988h6.494V-.444H-.489z" mask="url(#t)"/></g><g transform="translate(22.141 28.03)"><mask id="v" fill="#fff"><use xlink:href="#u"/></mask><path fill="#FFF1F7" d="M-.47 2.095h11.406v-2.55H-.47z" mask="url(#v)"/></g><g transform="translate(22.141 31.014)"><mask id="x" fill="#fff"><use xlink:href="#w"/></mask><path fill="#FFA9CC" d="M-.47 2.04h11.396V-.515H-.471z" mask="url(#x)"/></g><g transform="translate(1.505 33.252)"><mask id="z" fill="#fff"><use xlink:href="#y"/></mask><path fill="#FF84B7" d="M-.459 16.055h15.231V-.514H-.458z" mask="url(#z)"/></g><g transform="translate(39.231 33.252)"><mask id="B" fill="#fff"><use xlink:href="#A"/></mask><path fill="#FF84B7" d="M-.525 16.047h15.283V-.51H-.525z" mask="url(#B)"/></g><g transform="translate(11.716 33.785)"><mask id="D" fill="#fff"><use xlink:href="#C"/></mask><path fill="#F35D97" d="M-.436 15.505h6.59V-.455h-6.59z" mask="url(#D)"/></g><g transform="translate(0 33.891)"><mask id="F" fill="#fff"><use xlink:href="#E"/></mask><path fill="#FFB9DB" d="M-.537 15.415h6.445V-.515H-.537z" mask="url(#F)"/></g><g transform="translate(22.141 33.891)"><mask id="H" fill="#fff"><use xlink:href="#G"/></mask><path fill="#FF84B7" d="M-.467 2.087h11.4V-.468h-11.4z" mask="url(#H)"/></g><g transform="translate(37.619 33.891)"><mask id="J" fill="#fff"><use xlink:href="#I"/></mask><path fill="#FFB9DB" d="M-.49 15.406h6.468V-.517H-.49z" mask="url(#J)"/></g><g transform="translate(49.55 33.891)"><mask id="L" fill="#fff"><use xlink:href="#K"/></mask><path fill="#F35D97" d="M-.437 15.4h6.456V-.507H-.437z" mask="url(#L)"/></g><g transform="translate(16.23 37.728)"><mask id="N" fill="#fff"><use xlink:href="#M"/></mask><path fill="#F35D97" d="M-.474 6.938h6.459V-.438H-.474z" mask="url(#N)"/></g><g transform="translate(33.32 37.728)"><mask id="P" fill="#fff"><use xlink:href="#O"/></mask><path fill="#F35D97" d="M-.515 6.94h6.456V-.433H-.515z" mask="url(#P)"/></g><path fill="#F35D97" d="M7.326 54.099h2.62v-3.224h-2.62z"/><g transform="translate(0 48.705)"><mask id="R" fill="#fff"><use xlink:href="#Q"/></mask><path fill="#FF84B7" d="M-.537 5.955H17.88V-.497H-.537z" mask="url(#R)"/></g><mask id="T" fill="#fff"><use xlink:href="#S"/></mask><path fill="#F35D97" d="M1.022 54.636H17.88v-6.434H1.022zm44.04-.537h2.62v-3.224h-2.62z" mask="url(#T)"/><mask id="V" fill="#fff"><use xlink:href="#U"/></mask><path fill="#FF84B7" d="M37.198 54.66h18.417v-6.452H37.198z" mask="url(#V)"/><mask id="X" fill="#fff"><use xlink:href="#W"/></mask><path fill="#F35D97" d="M38.757 54.636h16.858v-6.434H38.757z" mask="url(#X)"/></g></svg>