<svg xmlns="http://www.w3.org/2000/svg" width="116" height="32" viewBox="0 0 116 32"><path d="M1.728 15.429v-14.4h3.168v6.294l5.842-6.294h3.827l-5.863 6.11 6.13 8.29h-3.806l-4.464-6.13-1.666 1.727v4.403H1.728zm23.211 0L31.111.926h2.921l6.171 14.503h-3.312l-1.316-3.23h-6.09l-1.316 3.23h-3.23zM30.617 9.4h3.826L32.53 4.73 30.617 9.4zm21.237 6.028v-14.4h3.415l3.785 6.089 3.785-6.09h3.415v14.4h-3.148v-9.4l-4.052 6.15h-.083L54.96 6.09v9.34h-3.106zm26.05 0L84.075.926h2.922l6.171 14.503h-3.312l-1.317-3.23H82.45l-1.316 3.23h-3.23zM83.582 9.4h3.826l-1.913-4.67-1.913 4.67zM109.94.781c1.536 0 2.787.364 3.754 1.091.967.727 1.45 1.653 1.45 2.777 0 1.536-.775 2.64-2.324 3.312 1.796.576 2.694 1.708 2.694 3.394 0 1.262-.497 2.298-1.491 3.107-.994.809-2.321 1.213-3.98 1.213-1.468 0-2.699-.198-3.693-.596a8.02 8.02 0 0 1-2.705-1.81l1.687-2.202c1.248 1.221 2.777 1.831 4.587 1.831.7 0 1.279-.154 1.738-.463.46-.308.69-.73.69-1.265 0-.576-.258-1-.772-1.275-.514-.274-1.21-.412-2.088-.412h-1.666V6.85h1.625c1.714 0 2.571-.555 2.571-1.666 0-.494-.212-.885-.637-1.173-.426-.288-.988-.432-1.687-.432-1.564 0-2.86.528-3.888 1.584l-1.667-2.016c1.509-1.577 3.443-2.365 5.802-2.365zM.347 29.684l.126-1.04c.12.04.258.06.412.06.117 0 .22-.012.308-.037a.872.872 0 0 0 .287-.156c.102-.078.19-.187.266-.326.075-.139.149-.328.22-.568.073-.239.131-.524.177-.853.045-.33.08-.734.108-1.21.026-.478.04-1.018.04-1.62v-1.422h4.937v7.202H5.962v-6.057H3.476v.648c0 .9-.033 1.676-.1 2.326-.067.65-.16 1.177-.28 1.584-.118.407-.274.728-.469.964-.194.236-.4.398-.62.485-.22.087-.481.13-.786.13-.295 0-.586-.036-.874-.11zm8.297-2.677a2.796 2.796 0 0 1 1.419-2.453 2.932 2.932 0 0 1 1.484-.384c.546 0 1.04.126 1.482.379.442.253.786.596 1.034 1.03.248.433.372.91.372 1.428a2.85 2.85 0 0 1-.824 1.996c-.254.257-.562.46-.924.61a2.962 2.962 0 0 1-1.16.227 2.906 2.906 0 0 1-1.477-.382 2.752 2.752 0 0 1-1.034-1.03 2.806 2.806 0 0 1-.372-1.42zm1.246 0c0 .482.157.895.472 1.238.314.343.71.515 1.185.515.492 0 .889-.169 1.19-.507.302-.338.452-.754.452-1.246 0-.485-.156-.898-.47-1.238-.312-.34-.71-.51-1.192-.51-.489 0-.884.168-1.185.503-.302.335-.452.75-.452 1.245zm5.81 2.707v-5.429h3.848v1.07H16.94v4.36H15.7zm4.832 0v-5.429h1.21v3.641c.938-1.332 1.795-2.546 2.572-3.64h1.175v5.428h-1.205v-3.62l-2.582 3.62h-1.17zm6.218-2.687v-.02c0-.509.12-.98.361-1.414a2.772 2.772 0 0 1 2.456-1.424c.486 0 .902.081 1.248.242.347.16.656.391.927.693l-.774.834a2.566 2.566 0 0 0-.643-.505 1.616 1.616 0 0 0-.768-.174 1.43 1.43 0 0 0-1.115.505 1.78 1.78 0 0 0-.447 1.223v.02c0 .492.153.908.46 1.246.306.338.695.507 1.167.507.275 0 .524-.059.749-.176.224-.117.443-.286.658-.507l.753.743a3.237 3.237 0 0 1-.962.759c-.346.174-.767.26-1.263.26a2.787 2.787 0 0 1-1.439-.378 2.701 2.701 0 0 1-1.007-1.025c-.24-.43-.361-.9-.361-1.409zm5.534-1.672v-1.07h4.751v1.07h-1.747v4.36h-1.256v-4.36h-1.748zm5.74 4.36v-5.43h1.211v3.641a1128.67 1128.67 0 0 1 2.571-3.64h1.176v5.428h-1.206v-3.62l-2.581 3.62h-1.17zm6.354-3.325v-2.105h1.245v1.808c0 .258.082.48.247.668a.82.82 0 0 0 .647.281c.462 0 .904-.12 1.326-.361v-2.396h1.246v5.43h-1.246V27.69c-.214.11-.468.206-.763.287-.295.08-.578.12-.849.12-.556 0-1.003-.149-1.343-.447-.34-.298-.51-.718-.51-1.26zm5.971.607c0-.515.113-.988.337-1.419.224-.43.54-.772.95-1.027a2.54 2.54 0 0 1 1.37-.381c.338 0 .65.05.934.153.285.102.529.243.731.424.203.181.375.394.517.64.143.247.248.514.317.802.068.288.103.589.103.904 0 .15-.007.266-.02.346h-3.993c.067.435.242.774.525 1.017.283.243.628.364 1.037.364.295 0 .557-.052.788-.158.231-.105.46-.269.683-.49l.734.648c-.563.68-1.304 1.02-2.225 1.02-.522 0-.995-.117-1.416-.352a2.569 2.569 0 0 1-1.002-1.004 2.967 2.967 0 0 1-.37-1.487zm1.236-.376h2.787c-.043-.422-.185-.766-.424-1.033-.24-.266-.557-.399-.952-.399-.375 0-.689.132-.941.394-.253.263-.41.609-.47 1.038zm4.972.406v-.02c0-.509.12-.98.362-1.414a2.73 2.73 0 0 1 1.012-1.037 2.772 2.772 0 0 1 1.444-.386c.485 0 .901.08 1.248.24.346.161.655.392.926.694l-.773.834a2.566 2.566 0 0 0-.643-.505 1.616 1.616 0 0 0-.768-.174 1.43 1.43 0 0 0-1.115.505 1.78 1.78 0 0 0-.447 1.223v.02c0 .492.153.908.46 1.246.305.338.695.507 1.167.507.274 0 .524-.059.748-.176a2.61 2.61 0 0 0 .658-.507l.753.743a3.237 3.237 0 0 1-.961.759c-.347.174-.768.26-1.263.26a2.787 2.787 0 0 1-1.44-.378 2.701 2.701 0 0 1-1.006-1.025c-.241-.43-.362-.9-.362-1.409zm6.122 2.687v-5.429h1.23v2.602l2.366-2.602h1.462l-2.11 2.28 2.286 3.15H66.44l-1.642-2.24-.89.933v1.306h-1.23zm6.097 0v-5.429h1.21v3.641a1128.67 1128.67 0 0 1 2.572-3.64h1.175v5.428h-1.205v-3.62l-2.581 3.62h-1.17zm6.52 0v-5.429h1.21v3.641a1128.67 1128.67 0 0 1 2.571-3.64h1.175v5.428h-1.205v-3.62l-2.581 3.62h-1.17zm.873-7.488l.759-.146c.147.47.431.703.853.703s.707-.234.854-.703l.754.146c-.067.442-.244.791-.53 1.047-.287.256-.646.384-1.078.384-.435 0-.796-.129-1.082-.386-.286-.258-.463-.606-.53-1.045zm8.729 7.488v-5.429h1.23v4.36h2.346v-4.36h1.235v4.36h.784l-.166 2.375h-1.04v-1.306h-4.389zm6.328-2.717c0-.515.112-.988.337-1.419.224-.43.54-.772.949-1.027a2.54 2.54 0 0 1 1.37-.381c.34 0 .65.05.935.153.285.102.528.243.73.424.203.181.376.394.518.64.142.247.248.514.317.802.068.288.102.589.102.904 0 .15-.006.266-.02.346h-3.992c.067.435.242.774.524 1.017.283.243.63.364 1.038.364.294 0 .557-.052.788-.158.231-.105.459-.269.683-.49l.733.648c-.562.68-1.304 1.02-2.224 1.02-.523 0-.995-.117-1.417-.352a2.569 2.569 0 0 1-1.002-1.004 2.967 2.967 0 0 1-.369-1.487zm1.236-.376h2.787c-.044-.422-.185-.766-.424-1.033-.24-.266-.557-.399-.952-.399-.375 0-.689.132-.942.394-.253.263-.41.609-.47 1.038zm5.273 3.093v-5.429h1.24v2.2h2.401v-2.2h1.24v5.43h-1.24v-2.19h-2.4v2.19h-1.241zm5.861-4.36v-1.069h4.751v1.07H106.6v4.36h-1.255v-4.36h-1.748zm5.74 6.008v-7.077h1.241v.904c.482-.68 1.097-1.02 1.843-1.02.325 0 .638.064.94.191.3.128.57.309.808.543.238.234.428.534.57.899.142.365.214.767.214 1.205 0 .436-.072.834-.214 1.196a2.56 2.56 0 0 1-.567.894 2.534 2.534 0 0 1-.806.542c-.302.127-.617.19-.945.19-.743 0-1.357-.319-1.843-.958v2.49h-1.24zm1.211-4.355c0 .51.156.926.467 1.25.311.326.685.488 1.12.488.439 0 .807-.16 1.105-.48.298-.32.447-.745.447-1.278 0-.512-.15-.93-.452-1.253a1.448 1.448 0 0 0-1.1-.485 1.49 1.49 0 0 0-1.12.493c-.311.328-.467.75-.467 1.265z" fill="#C4C8CD" fill-rule="evenodd"/></svg>