<svg xmlns="http://www.w3.org/2000/svg" width="11" height="9" viewBox="0 0 11 9"><g fill="none" fill-rule="evenodd" transform="translate(0 -6)"><rect width="20" height="20" rx="4"/><path fill="#D33B6A" fill-rule="nonzero" d="M9.535 6.117a.91.91 0 0 1 1.351.774.915.915 0 0 1-.262.654l-6.257 6.127c-.141.143-.289.295-.487.355a.897.897 0 0 1-.94-.232c-.902-1-1.802-2.003-2.703-3.004a.911.911 0 0 1 1.369-1.2c.663.754 1.334 1.5 1.992 2.258.603-.561 1.183-1.148 1.777-1.72C6.647 8.89 7.918 7.649 9.19 6.411c.11-.104.211-.22.345-.294z"/></g></svg>